<svg xmlns="http://www.w3.org/2000/svg" xml:space="preserve" id="Layer_1" width="58.65mm" height="75.41mm" x="0" y="0" version="1.1" viewBox="0 0 166.25 213.76"><style>.st1{fill:#98986f}.st2{fill:#161516}.st3{fill:#fff}.st4{fill:#464646}.st5{fill:#fdfd77}.st6{fill:#424445}.st7{fill:#9b9c9d}.st8{fill:#aeada4}.st10{fill:#141313}.st11{fill:#9b9b7c}.st13{fill:#fefe7f}.st14{fill:#7e7e7f}.st15{fill:#e4e4e4}.st17{fill:#4a4a4a}.st19{fill:#8d8d62}.st20{fill:#7f7f7f}.st21{fill:#2fa430}.st22{fill:#f3fefe}.st23{fill:#e9f3f3}.st26{fill:#313030}.st27{fill:#272626}.st28{fill:#101010}.st29{fill:#756648}.st30{fill:#8e8e8b}.st31{fill:#baba7b}.st33{fill:#444}.st35{fill:#646464}.st36{fill:gray}.st37{fill:#fefe7a}.st38{fill:#fefe00}.st39{fill:#fefefe}.st40{fill:#7e2720}.st43{fill:#adadaf}.st44{fill:#f0f0f0}.st45{fill:#333}.st46{fill:#0e0e0e}.st47{fill:#636363}.st48{fill:#225fac}.st49{fill:#54c7e6}.st50{fill:#1b98d5}.st51{fill:#1998d5}.st52{fill:#00adee}.st53{fill:#53c7e5}.st54{fill:#1a9ad6}.st55{fill:#231f20}.st56{fill:#989862}.st61{fill:#7f7b39}.st62{fill:#a1a16b}.st63{fill:#f6f6f5}.st65{fill:#f8f8f8}.st67{fill:none}.st68{font-family:&quot;MyriadPro-Regular&quot;}.st69{font-size:4.3686px}.st72{fill:#c7c7c7}.st73{font-size:3.7354px}.st76{font-size:3.9673px}.st78{font-size:3.8331px}</style><path d="M.14 0H166.4v213.76H.14z"/><path d="M92.77 82.28h1.65v1.15h-1.65z" style="fill:#979449"/><path d="M44.74 78.28h3.23v3.23h-3.23z" class="st1"/><path d="M84.08 6.94h52.89v23.52H84.08zM84.08 80.19h52.89v3.33H84.08z" class="st2"/><path d="M40.56 78.28h2.99v3.23h-2.99z" class="st1"/><path d="M45.91 78.54h.37v2.55h-.37zM41.94 78.54h.37v2.55h-.37z" class="st3"/><path d="M75.76 194.29h23.12v.71H75.76z" class="st4"/><path d="M154.09 44.4v2.11h1.63v1.69h2.03v-2.09h-3.23V44.4z" class="st5"/><path d="M155.29 42.4h.43V42h1.24v.4h.36v.82h-.36v-.4h-1.2v.4h-.46z" class="st6"/><path d="M156.89 41.15h.86v.41h-.86z" class="st7"/><path d="M154.87 41.02h2.09v.61h-2.09z" class="st8"/><path d="M154.09 39.13h3.35v3.69h-3.35z" class="st5"/><path d="M153.03 34.55h2.32v.86h-2.32z" style="fill:#77774d"/><path d="M145.89 35.4h5.33v3.37h-5.33z" class="st5"/><path d="m165.89 142.82-8.15-3.13h-6.97v60.12l6.97 7.97z" class="st10"/><path d="M74.24 57.21h-.22c-.4 0-.72-.32-.72-.72v-6.55c0-.4.32-.72.72-.72h.22c.4 0 .72.32.72.72v6.55c0 .4-.33.72-.72.72M70.04 46.56h1.81v11.05h-1.81zM53.7 49.03h1.81v7.72H53.7z" class="st11"/><path d="M54.14 48.56h1.62v8.6h-1.62z" class="st3"/><path d="M55.8 46.56H70v11.79H55.8z" style="fill:#1b1b1b"/><path d="M58.74 43.22h.46v2.99h-.46zM67.25 43.22h.46v2.99h-.46z" class="st13"/><circle cx="71.87" cy="17.1" r=".63" class="st3"/><circle cx="72.51" cy="17.79" r=".64" class="st3"/><path d="M50.74 18.36h.88v6.75h-.88z" class="st14"/><path d="M51.26 19.41h-.44v-7.72h.44c1.3 0 2.35 1.05 2.35 2.35v3.02c0 1.3-1.05 2.35-2.35 2.35" class="st13"/><path d="M51.19 18.94h-.25v-6.82h.25c1.09 0 1.97.88 1.97 1.97v2.88c0 1.09-.88 1.97-1.97 1.97" class="st14"/><path d="M51.81 10.82H52c.08 0 .15-.07.15-.15V8.19c0-.08-.07-.15-.15-.15h-.19c-.08 0-.15.07-.15.15v2.48c-.01.08.06.15.15.15" class="st15"/><path d="M51.1 7.93h.68v4.09h-.68z" style="fill:#898989"/><path d="M64.8 122.28h.54v1.26h-.54zM72.27 122.28h.54v1.26h-.54z" class="st17"/><path d="M71.63 123.05h1.47v60h-1.47z" style="fill:#383838"/><path d="M61.97 136.29a2.279 2.279 0 1 0 0-4.56h-4.85v4.56z" class="st19"/><path d="M61.86 135.86c1.02 0 1.84-.83 1.84-1.84s-.83-1.84-1.84-1.84h-3.92v3.69h3.92z" class="st20"/><path d="M59.09 132.6h.77v.88h-.77z" class="st21"/><path d="M58.23 133.37h1.94v3.02h-1.94z" class="st22"/><path d="M61.97 143.85a2.279 2.279 0 1 0 0-4.56h-4.85v4.56z" class="st19"/><path d="M61.86 143.41c1.02 0 1.84-.83 1.84-1.84s-.83-1.84-1.84-1.84h-3.92v3.69h3.92z" class="st20"/><path d="M59.09 140.16h.77v.88h-.77z" class="st21"/><path d="M58.23 140.93h1.94v3.24h-1.94z" class="st22"/><path d="M61.97 151.47a2.279 2.279 0 1 0 0-4.56h-4.85v4.56z" class="st19"/><path d="M61.86 151.04c1.02 0 1.84-.83 1.84-1.84s-.83-1.84-1.84-1.84h-3.92v3.69h3.92z" class="st20"/><path d="M59.09 147.78h.77v.88h-.77z" class="st21"/><path d="M58.23 148.55h1.94v3.34h-1.94z" class="st22"/><path d="M61.97 158.99a2.279 2.279 0 1 0 0-4.56h-4.85v4.56z" class="st19"/><path d="M61.86 158.55c1.02 0 1.84-.83 1.84-1.84s-.83-1.84-1.84-1.84h-3.92v3.69h3.92z" class="st20"/><path d="M59.09 155.3h.77v.88h-.77z" class="st21"/><path d="M58.23 156.07h1.94v3.62h-1.94z" class="st22"/><path d="M61.97 166.64a2.279 2.279 0 1 0 0-4.56h-4.85v4.56z" class="st19"/><path d="M61.86 166.21c1.02 0 1.84-.83 1.84-1.84 0-1.02-.83-1.84-1.84-1.84h-3.92v3.69h3.92z" class="st20"/><path d="M59.09 162.95h.77v.88h-.77z" class="st21"/><path d="M58.23 163.72h1.94v3.49h-1.94z" class="st22"/><path d="M61.97 174.06a2.279 2.279 0 1 0 0-4.56h-4.85v4.56z" class="st19"/><path d="M61.86 173.63c1.02 0 1.84-.83 1.84-1.84s-.83-1.84-1.84-1.84h-3.92v3.69h3.92z" class="st20"/><path d="M59.09 170.37h.77v.88h-.77z" class="st21"/><path d="M58.23 171.14h1.94v3.84h-1.94z" class="st22"/><path d="M61.97 181.32a2.279 2.279 0 1 0 0-4.56h-4.85v4.56z" class="st19"/><path d="M61.86 180.89c1.02 0 1.84-.83 1.84-1.84s-.83-1.84-1.84-1.84h-3.92v3.69h3.92z" class="st20"/><path d="M59.09 177.63h.77v.88h-.77z" class="st21"/><path d="M58.23 178.4h1.94v4.33h-1.94z" class="st22"/><path d="M61.97 128.78a2.279 2.279 0 1 0 0-4.56h-4.85v4.56z" class="st19"/><path d="M61.86 128.35c1.02 0 1.84-.83 1.84-1.84s-.83-1.84-1.84-1.84h-3.92v3.69h3.92z" class="st20"/><path d="M34.93 124.22a2.279 2.279 0 1 0 0 4.56h4.85v-4.56z" class="st19"/><path d="M35.04 124.66c-1.02 0-1.84.83-1.84 1.84s.83 1.84 1.84 1.84h3.92v-3.69h-3.92z" class="st20"/><path d="M35.17 125.84h1.19v3.15h-1.19z" class="st23"/><path d="M34.93 131.86a2.279 2.279 0 1 0 0 4.56h4.85v-4.56z" class="st19"/><path d="M35.04 132.29c-1.02 0-1.84.83-1.84 1.84 0 1.02.83 1.84 1.84 1.84h3.92v-3.69h-3.92z" class="st20"/><path d="M35.17 133.48h1.19v3.15h-1.19z" class="st23"/><path d="M34.93 139.49a2.279 2.279 0 1 0 0 4.56h4.85v-4.56z" class="st19"/><path d="M35.04 139.92c-1.02 0-1.84.83-1.84 1.84s.83 1.84 1.84 1.84h3.92v-3.69h-3.92z" class="st20"/><path d="M35.17 141.11h1.19v3.23h-1.19z" class="st23"/><path d="M34.93 147.04a2.279 2.279 0 1 0 0 4.56h4.85v-4.56z" class="st19"/><path d="M35.04 147.47c-1.02 0-1.84.83-1.84 1.84s.83 1.84 1.84 1.84h3.92v-3.69h-3.92z" class="st20"/><path d="M35.17 148.66h1.19v3.3h-1.19z" class="st23"/><path d="M34.93 154.54a2.279 2.279 0 1 0 0 4.56h4.85v-4.56z" class="st19"/><path d="M35.04 154.97c-1.02 0-1.84.83-1.84 1.84s.83 1.84 1.84 1.84h3.92v-3.69h-3.92z" class="st20"/><path d="M35.17 156.16h1.19v3.56h-1.19z" class="st23"/><path d="M34.93 162.03a2.279 2.279 0 1 0 0 4.56h4.85v-4.56z" class="st19"/><path d="M35.04 162.47c-1.02 0-1.84.83-1.84 1.84s.83 1.84 1.84 1.84h3.92v-3.69h-3.92z" class="st20"/><path d="M35.17 163.65h1.19v3.71h-1.19z" class="st23"/><path d="M34.93 169.86a2.279 2.279 0 1 0 0 4.56h4.85v-4.56z" class="st19"/><path d="M35.04 170.3c-1.02 0-1.84.83-1.84 1.84 0 1.02.83 1.84 1.84 1.84h3.92v-3.69h-3.92z" class="st20"/><path d="M35.17 171.48h1.19v3.67h-1.19z" class="st23"/><path d="M34.93 177.32a2.279 2.279 0 1 0 0 4.56h4.85v-4.56z" class="st19"/><path d="M35.04 177.76c-1.02 0-1.84.83-1.84 1.84s.83 1.84 1.84 1.84h3.92v-3.69h-3.92z" class="st20"/><path d="M35.17 178.94h1.19v3.79h-1.19z" class="st23"/><path d="m19.55 123.68 5.3-1.19h7.09v60.42l-4.18 7.58z" class="st10"/><path d="M9.05 155.05h4.37v.48H9.05z" style="fill:#707070"/><path d="m8.87 16.18 5.7 8.32.12 61.07H6.17L.66 83.39z" class="st10"/><path d="M36.81 125.18v-1.37h21.42v61.05l-.92 1.58z" style="fill:#282929"/><path d="m.66 159.88 6.5-4.35h7.53v46.09l-5.82 7.87-8.21-.27z" class="st10"/><path d="M.66 85.39h8.21v66.42H.66zM.66 16.18h8.21v67.21H.66z" class="st26"/><path d="M2.69 18.55h4.09v4.09H2.69z" class="st27"/><path d="M3.88 19.91h2.11v2.17H3.88z" class="st28"/><path d="M5.12 20.59h.84v.84h-.84z" class="st29"/><path d="M2.69 26.9h4.09v4.09H2.69z" class="st27"/><path d="M3.88 28.27h2.11v2.17H3.88z" class="st28"/><path d="M5.12 28.95h.84v.84h-.84z" class="st29"/><path d="M2.69 35.26h4.09v4.09H2.69z" class="st27"/><path d="M3.88 36.62h2.11v2.17H3.88z" class="st28"/><path d="M5.12 37.3h.84v.84h-.84z" class="st29"/><path d="M2.69 43.65h4.09v4.09H2.69z" class="st27"/><path d="M3.88 45.01h2.11v2.17H3.88z" class="st28"/><path d="M5.12 45.69h.84v.84h-.84z" class="st29"/><path d="M2.69 52.2h4.09v4.09H2.69z" class="st27"/><path d="M3.88 53.57h2.11v2.17H3.88z" class="st28"/><path d="M5.12 54.25h.84v.84h-.84z" class="st29"/><path d="M2.69 60.51h4.09v4.09H2.69z" class="st27"/><path d="M3.88 61.87h2.11v2.17H3.88z" class="st28"/><path d="M5.12 62.55h.84v.84h-.84z" class="st29"/><path d="M2.69 68.66h4.09v4.09H2.69z" class="st27"/><path d="M3.88 70.02h2.11v2.17H3.88z" class="st28"/><path d="M5.12 70.71h.84v.84h-.84z" class="st29"/><path d="M2.69 77.43h4.09v4.09H2.69z" class="st27"/><path d="M3.88 78.8h2.11v2.17H3.88z" class="st28"/><path d="M5.12 79.48h.84v.84h-.84z" class="st29"/><path d="M157.85 56.05h8.04v81.62h-8.04zM157.85 142.82h8.04v64.96h-8.04z" class="st26"/><path d="M2.69 87.35h4.09v4.06H2.69z" class="st27"/><path d="M3.88 88.71h2.11v2.16H3.88z" class="st28"/><path d="M5.12 89.38h.84v.83h-.84z" class="st29"/><path d="M2.69 95.66h4.09v4.06H2.69z" class="st27"/><path d="M3.88 97.01h2.11v2.16H3.88z" class="st28"/><path d="M5.12 97.69h.84v.83h-.84z" class="st29"/><path d="M2.69 103.97h4.09v4.06H2.69z" class="st27"/><path d="M3.88 105.32h2.11v2.16H3.88z" class="st28"/><path d="M5.12 106h.84v.83h-.84z" class="st29"/><path d="M2.69 112.31h4.09v4.06H2.69z" class="st27"/><path d="M3.88 113.66h2.11v2.16H3.88z" class="st28"/><path d="M5.12 114.34h.84v.83h-.84z" class="st29"/><path d="M2.69 120.81h4.09v4.06H2.69z" class="st27"/><path d="M3.88 122.17h2.11v2.16H3.88z" class="st28"/><path d="M5.12 122.84h.84v.83h-.84z" class="st29"/><path d="M2.69 129.07h4.09v4.06H2.69z" class="st27"/><path d="M3.88 130.42h2.11v2.16H3.88z" class="st28"/><path d="M5.12 131.1h.84v.83h-.84z" class="st29"/><path d="M2.69 137.18h4.09v4.06H2.69z" class="st27"/><path d="M3.88 138.53h2.11v2.16H3.88z" class="st28"/><path d="M5.12 139.21h.84v.83h-.84z" class="st29"/><path d="M2.69 145.9h4.09v4.06H2.69z" class="st27"/><path d="M3.88 147.25h2.11v2.16H3.88z" class="st28"/><path d="M5.12 147.93h.84v.83h-.84z" class="st29"/><path d="M163.64 62.339h-4.09v-4.06h4.09z" class="st27"/><path d="M162.447 60.987h-2.11v-2.16h2.11z" class="st28"/><path d="M161.206 60.305h-.84v-.83h.84z" class="st29"/><path d="M163.64 70.647h-4.09v-4.06h4.09z" class="st27"/><path d="M162.447 69.295h-2.11v-2.16h2.11z" class="st28"/><path d="M161.206 68.624h-.84v-.83h.84z" class="st29"/><path d="M163.64 78.516h-4.09v-4.06h4.09z" class="st27"/><path d="M162.447 77.164h-2.11v-2.16h2.11z" class="st28"/><path d="M161.206 76.492h-.84v-.83h.84z" class="st29"/><path d="M163.64 86.93h-4.09v-4.06h4.09z" class="st27"/><path d="M162.447 85.568h-2.11v-2.16h2.11z" class="st28"/><path d="M161.206 84.896h-.84v-.83h.84z" class="st29"/><path d="M163.64 95.037h-4.09v-4.06h4.09z" class="st27"/><path d="M162.447 93.685h-2.11v-2.16h2.11z" class="st28"/><path d="M161.206 93.013h-.84v-.83h.84z" class="st29"/><path d="M163.64 103.154h-4.09v-4.06h4.09z" class="st27"/><path d="M162.447 101.802h-2.11v-2.16h2.11z" class="st28"/><path d="M161.206 101.12h-.84v-.83h.84z" class="st29"/><path d="M163.64 111.271h-4.09v-4.06h4.09z" class="st27"/><path d="M162.447 109.91h-2.11v-2.16h2.11z" class="st28"/><path d="M161.206 109.238h-.84v-.83h.84z" class="st29"/><path d="M163.64 119.723h-4.09v-4.06h4.09z" class="st27"/><path d="M162.447 118.371h-2.11v-2.16h2.11z" class="st28"/><path d="M161.206 117.69h-.84v-.83h.84z" class="st29"/><path d="M163.64 127.554h-4.09v-4.06h4.09z" class="st27"/><path d="M162.447 126.203h-2.11v-2.16h2.11z" class="st28"/><path d="M161.206 125.52h-.84v-.83h.84z" class="st29"/><path d="M163.64 135.386h-4.09v-4.06h4.09z" class="st27"/><path d="M162.447 134.034h-2.11v-2.16h2.11z" class="st28"/><path d="M161.206 133.352h-.84v-.83h.84z" class="st29"/><path d="M163.64 148.614h-4.09v-4.06h4.09z" class="st27"/><path d="M162.447 147.262h-2.11v-2.16h2.11z" class="st28"/><path d="M161.206 146.58h-.84v-.83h.84z" class="st29"/><path d="M163.64 157.343h-4.09v-4.06h4.09z" class="st27"/><path d="M162.447 155.981h-2.11v-2.16h2.11z" class="st28"/><path d="M161.206 155.31h-.84v-.83h.84z" class="st29"/><path d="M163.64 165.16h-4.09v-4.06h4.09z" class="st27"/><path d="M162.447 163.799h-2.11v-2.16h2.11z" class="st28"/><path d="M161.206 163.127h-.84v-.83h.84z" class="st29"/><path d="M163.64 173.278h-4.09v-4.06h4.09z" class="st27"/><path d="M162.447 171.917h-2.11v-2.16h2.11z" class="st28"/><path d="M161.206 171.245h-.84v-.83h.84z" class="st29"/><path d="M163.64 181.396h-4.09v-4.06h4.09z" class="st27"/><path d="M162.447 180.044h-2.11v-2.16h2.11z" class="st28"/><path d="M161.206 179.362h-.84v-.83h.84z" class="st29"/><path d="M163.64 189.862h-4.09v-4.06h4.09z" class="st27"/><path d="M162.447 188.51h-2.11v-2.16h2.11z" class="st28"/><path d="M161.206 187.829h-.84v-.83h.84z" class="st29"/><path d="M163.64 197.558h-4.09v-4.06h4.09z" class="st27"/><path d="M162.447 196.207h-2.11v-2.16h2.11z" class="st28"/><path d="M161.206 195.525h-.84v-.83h.84z" class="st29"/><path d="M163.64 205.742h-4.09v-4.06h4.09z" class="st27"/><path d="M162.447 204.38h-2.11v-2.16h2.11z" class="st28"/><path d="M161.206 203.708h-.84v-.83h.84z" class="st29"/><path d="M63.67 123.41h8.21v66.82h-8.21z" class="st26"/><path d="M65.69 125.76h4.09v4.06h-4.09z" class="st27"/><path d="M66.89 127.11H69v2.16h-2.11z" class="st28"/><path d="M68.13 127.79h.84v.83h-.84z" class="st29"/><path d="M65.69 134.07h4.09v4.06h-4.09z" class="st27"/><path d="M66.89 135.42H69v2.16h-2.11z" class="st28"/><path d="M68.13 136.1h.84v.83h-.84z" class="st29"/><path d="M65.69 142.38h4.09v4.06h-4.09z" class="st27"/><path d="M66.89 143.73H69v2.16h-2.11z" class="st28"/><path d="M68.13 144.41h.84v.83h-.84z" class="st29"/><path d="M65.69 150.72h4.09v4.06h-4.09z" class="st27"/><path d="M66.89 152.07H69v2.16h-2.11z" class="st28"/><path d="M68.13 152.75h.84v.83h-.84z" class="st29"/><path d="M65.69 159.22h4.09v4.06h-4.09z" class="st27"/><path d="M66.89 160.58H69v2.16h-2.11z" class="st28"/><path d="M68.13 161.25h.84v.83h-.84z" class="st29"/><path d="M65.69 167.48h4.09v4.06h-4.09z" class="st27"/><path d="M66.89 168.83H69v2.16h-2.11z" class="st28"/><path d="M68.13 169.51h.84v.83h-.84z" class="st29"/><path d="M65.69 175.58h4.09v4.06h-4.09z" class="st27"/><path d="M66.89 176.94H69v2.16h-2.11z" class="st28"/><path d="M68.13 177.61h.84v.83h-.84z" class="st29"/><path d="M65.69 184.3h4.09v4.06h-4.09z" class="st27"/><path d="M66.89 185.66H69v2.16h-2.11z" class="st28"/><path d="M68.13 186.34h.84v.83h-.84z" class="st29"/><path d="M.64 159.88H8.9v49.61H.64z" class="st5"/><path d="M8.9 159.88H.64v49.61H8.9zm-2.11 48.39H2.68v-4.09h4.11zm0-8.3H2.68v-4.09h4.11zm0-8.55H2.68v-4.09h4.11zm0-8.38H2.68v-4.09h4.11zm0-8.36H2.68v-4.09h4.11zm-4.11-8.35v-4.09h4.11v4.09z" class="st26"/><path d="M2.68 162.24v4.09h4.11v-4.09zM6 165.77H3.88v-2.17H6z" class="st27"/><path d="M3.88 165.77H6v-2.17H3.88zm1.25-1.48h.84v.84h-.84z" class="st28"/><path d="M5.13 164.29h.84v.84h-.84z" class="st29"/><path d="M2.68 174.68h4.11v-4.09H2.68zm1.2-2.72H6v2.17H3.88z" class="st27"/><path d="M6 171.96H3.88v2.17H6zm-.03 1.52h-.84v-.84h.84z" class="st28"/><path d="M5.13 172.64h.84v.84h-.84z" class="st29"/><path d="M2.68 183.04h4.11v-4.09H2.68zm1.2-2.73H6v2.17H3.88z" class="st27"/><path d="M6 180.31H3.88v2.17H6zm-.03 1.52h-.84V181h.84z" class="st28"/><path d="M5.13 181h.84v.84h-.84z" class="st29"/><path d="M2.68 191.42h4.11v-4.09H2.68zm1.2-2.72H6v2.17H3.88z" class="st27"/><path d="M6 188.7H3.88v2.17H6zm-.03 1.52h-.84v-.84h.84z" class="st28"/><path d="M5.13 189.38h.84v.84h-.84z" class="st29"/><path d="M2.68 199.97h4.11v-4.09H2.68zm1.2-2.72H6v2.17H3.88z" class="st27"/><path d="M6 197.25H3.88v2.17H6zm-.03 1.52h-.84v-.84h.84z" class="st28"/><path d="M5.13 197.93h.84v.84h-.84z" class="st29"/><path d="M2.68 208.27h4.11v-4.09H2.68zm1.2-2.72H6v2.17H3.88z" class="st27"/><path d="M6 205.55H3.88v2.17H6zm-.03 1.52h-.84v-.84h.84z" class="st28"/><path d="M5.13 206.23h.84v.84h-.84z" class="st29"/><path d="M14.92 199.56h-.23v-4.53h.23c.25 0 .45.2.45.45v3.64c0 .24-.2.44-.45.44" class="st30"/><path d="M15.57 198.08h-.23v-1.7h.23c.15 0 .27.12.27.27v1.16c0 .15-.12.27-.27.27" class="st31"/><path d="M14.92 191.9h-.23v-4.53h.23c.25 0 .45.2.45.45v3.64c0 .25-.2.44-.45.44" class="st30"/><path d="M15.57 190.42h-.23v-1.7h.23c.15 0 .27.12.27.27v1.16c0 .15-.12.27-.27.27" class="st31"/><path d="M14.92 184.24h-.23v-4.53h.23c.25 0 .45.2.45.45v3.64c0 .24-.2.44-.45.44" class="st30"/><path d="M15.57 182.76h-.23v-1.7h.23c.15 0 .27.12.27.27v1.16c0 .15-.12.27-.27.27" class="st31"/><path d="M14.92 176.78h-.23v-4.53h.23c.25 0 .45.2.45.45v3.64c0 .24-.2.44-.45.44" class="st30"/><path d="M15.57 175.3h-.23v-1.7h.23c.15 0 .27.12.27.27v1.16c0 .15-.12.27-.27.27" class="st31"/><path d="M14.92 169.1h-.23v-4.53h.23c.25 0 .45.2.45.45v3.64c0 .24-.2.44-.45.44" class="st30"/><path d="M15.57 167.62h-.23v-1.7h.23c.15 0 .27.12.27.27v1.16c0 .15-.12.27-.27.27" class="st31"/><path d="M14.92 161.52h-.23v-4.53h.23c.25 0 .45.2.45.45v3.64c0 .24-.2.44-.45.44" class="st30"/><path d="M15.57 160.04h-.23v-1.7h.23c.15 0 .27.12.27.27v1.16c0 .15-.12.27-.27.27" class="st31"/><path d="M14.92 146.27h-.23v-4.53h.23c.25 0 .45.2.45.45v3.64c0 .24-.2.44-.45.44" class="st30"/><path d="M15.57 144.78h-.23v-1.7h.23c.15 0 .27.12.27.27v1.16c0 .15-.12.27-.27.27" class="st31"/><path d="M14.92 138.87h-.23v-4.53h.23c.25 0 .45.2.45.45v3.64c0 .24-.2.44-.45.44" class="st30"/><path d="M15.57 137.39h-.23v-1.7h.23c.15 0 .27.12.27.27v1.16c0 .15-.12.27-.27.27" class="st31"/><path d="M14.92 131.16h-.23v-4.53h.23c.25 0 .45.2.45.45v3.64c0 .24-.2.44-.45.44" class="st30"/><path d="M15.57 129.68h-.23v-1.7h.23c.15 0 .27.12.27.27v1.16c0 .15-.12.27-.27.27" class="st31"/><path d="M14.92 123.45h-.23v-4.53h.23c.25 0 .45.2.45.45V123c0 .25-.2.45-.45.45" class="st30"/><path d="M15.57 121.97h-.23v-1.7h.23c.15 0 .27.12.27.27v1.16c0 .15-.12.27-.27.27" class="st31"/><path d="M14.92 116.12h-.23v-4.53h.23c.25 0 .45.2.45.45v3.64c0 .24-.2.44-.45.44" class="st30"/><path d="M15.57 114.63h-.23v-1.7h.23c.15 0 .27.12.27.27v1.16c0 .15-.12.27-.27.27" class="st31"/><path d="M14.92 108.27h-.23v-4.53h.23c.25 0 .45.2.45.45v3.64c0 .24-.2.44-.45.44" class="st30"/><path d="M15.57 106.78h-.23v-1.7h.23c.15 0 .27.12.27.27v1.16c0 .15-.12.27-.27.27" class="st31"/><path d="M14.92 100.79h-.23v-4.53h.23c.25 0 .45.2.45.45v3.64c0 .24-.2.44-.45.44" class="st30"/><path d="M15.57 99.31h-.23v-1.7h.23c.15 0 .27.12.27.27v1.16c0 .15-.12.27-.27.27" class="st31"/><path d="M14.92 93.13h-.23V88.6h.23c.25 0 .45.2.45.45v3.64c0 .24-.2.44-.45.44" class="st30"/><path d="M15.57 91.64h-.23v-1.7h.23c.15 0 .27.12.27.27v1.16c0 .15-.12.27-.27.27" class="st31"/><path d="M14.92 84.01h-.23v-4.53h.23c.25 0 .45.2.45.45v3.64c0 .24-.2.44-.45.44" class="st30"/><path d="M15.57 82.53h-.23v-1.7h.23c.15 0 .27.12.27.27v1.16c0 .15-.12.27-.27.27" class="st31"/><path d="M14.92 76.26h-.23v-4.53h.23c.25 0 .45.2.45.45v3.64c0 .24-.2.44-.45.44" class="st30"/><path d="M15.57 74.77h-.23v-1.7h.23c.15 0 .27.12.27.27v1.16c0 .15-.12.27-.27.27" class="st31"/><path d="M14.92 68.66h-.23v-4.53h.23c.25 0 .45.2.45.45v3.64c0 .24-.2.44-.45.44" class="st30"/><path d="M15.57 67.18h-.23v-1.7h.23c.15 0 .27.12.27.27v1.16c0 .15-.12.27-.27.27" class="st31"/><path d="M14.87 61.07h-.23v-4.53h.23c.25 0 .45.2.45.45v3.64a.46.46 0 0 1-.45.44" class="st30"/><path d="M15.52 59.58h-.23v-1.7h.23c.15 0 .27.12.27.27v1.16c0 .15-.12.27-.27.27" class="st31"/><path d="M14.82 53.57h-.23v-4.53h.23c.25 0 .45.2.45.45v3.64c0 .24-.2.44-.45.44" class="st30"/><path d="M15.47 52.08h-.23v-1.7h.23c.15 0 .27.12.27.27v1.16c0 .15-.12.27-.27.27" class="st31"/><path d="M14.82 45.69h-.23v-4.53h.23c.25 0 .45.2.45.45v3.64c0 .24-.2.44-.45.44" class="st30"/><path d="M15.47 44.21h-.23v-1.7h.23c.15 0 .27.12.27.27v1.16c0 .15-.12.27-.27.27" class="st31"/><path d="M14.82 38.14h-.23v-4.53h.23c.25 0 .45.2.45.45v3.64c0 .24-.2.44-.45.44" class="st30"/><path d="M15.47 36.66h-.23v-1.7h.23c.15 0 .27.12.27.27v1.16c0 .15-.12.27-.27.27" class="st31"/><path d="M14.82 30.26h-.23v-4.53h.23c.25 0 .45.2.45.45v3.64c0 .24-.2.44-.45.44" class="st30"/><path d="M15.47 28.78h-.23v-1.7h.23c.15 0 .27.12.27.27v1.16c0 .15-.12.27-.27.27" class="st31"/><path d="M24.01 121.97h6.69v.87h-6.69z" style="fill:#888"/><path d="M30.7 122.2h1.6v.42h-1.6z" class="st33"/><path d="M31.883 183.06V122.2h.42v60.86z" class="st33"/><path d="M31.89 143.31h.41v32.16h-.41z" style="fill:#878787"/><path d="M36.28 124.71h21.09v61.6H36.28z" class="st35"/><path d="M59.09 125.09h.77v.88h-.77z" class="st21"/><path d="M58.23 125.86h1.94v3.02h-1.94z" class="st22"/><path d="M64.8 122.07h8v.68h-8z" class="st17"/><path d="M48.33 1.81H25.21c-.99 0-1.8.79-1.8 1.77v21.69h3.37v-3.84h6.38V22s-3.26.57-3.63 3.27v.68h1.66s-.16-1.1 1-1.22l10.1.05c.66.32.66.86.66 1.16 0 .18.01.15.01.15h2.07v-.83c-.6-1.37-.86-2.46-4.77-3.15v-.6h6.16v3.76h4.67V4.53c.01-1.5-1.23-2.72-2.76-2.72" class="st3"/><path d="M51.62 19.75h.43v3.52h-.43z" class="st15"/><path d="M51.53 24.7c-.58 0-1.09.27-1.42.69l.23.41c.23-.42.68-.71 1.19-.71.75 0 1.37.61 1.37 1.37v3.49c0 .75-.61 1.37-1.37 1.37-.75 0-1.37-.61-1.37-1.37v-1.68h-.46v1.75a1.82 1.82 0 0 0 3.64 0v-3.5c.01-1-.8-1.82-1.81-1.82" class="st13"/><path d="M50.16 28.28v1.68c0 .75.61 1.37 1.37 1.37.75 0 1.37-.61 1.37-1.37v-3.49c0-.75-.61-1.37-1.37-1.37-.51 0-.96.29-1.19.71l1.38 2.47z" class="st14"/><path d="M26.6 29.96c0 .75-.61 1.37-1.37 1.37s-1.37-.61-1.37-1.37v-3.49c0-.35.14-.67.36-.91l-.26-.33c-.34.33-.55.79-.55 1.31v3.5c0 1.01.82 1.82 1.82 1.82s1.82-.82 1.82-1.82v-1.75h-.45z" class="st13"/><path d="M23.87 29.96c0 .75.61 1.37 1.37 1.37s1.37-.61 1.37-1.37v-1.68h-.23l-2.15-2.72c-.22.24-.36.56-.36.91z" class="st14"/><path d="m23.73 24.93.23.29c.12-.11.25-.21.4-.29z" class="st5"/><path d="M27.8 28h2.08v3.71H27.8z" class="st13"/><path d="M28.22 30.04h1.25v1.25h-1.25z" class="st14"/><path d="M30.22 28h2.08v3.71h-2.08z" class="st13"/><path d="M30.64 30.04h1.25v1.25h-1.25z" class="st14"/><path d="M47.06 28h2.08v3.71h-2.08z" class="st13"/><path d="M47.48 30.04h1.25v1.25h-1.25z" class="st14"/><path d="M44.65 28h2.08v3.71h-2.08z" class="st13"/><path d="M45.07 30.04h1.25v1.25h-1.25z" class="st14"/><path d="M32.63 28h.97v3.71h-.97z" class="st13"/><path d="M32.71 30.04h.82v1.25h-.82z" class="st14"/><path d="M34.21 28h.97v3.71h-.97z" class="st13"/><path d="M34.29 30.04h.82v1.25h-.82z" class="st14"/><path d="M35.63 28h.97v3.71h-.97z" class="st13"/><path d="M35.71 30.04h.82v1.25h-.82z" class="st14"/><path d="M37.22 28h.97v3.71h-.97z" class="st13"/><path d="M37.29 30.04h.82v1.25h-.82z" class="st14"/><path d="M38.63 28h.97v3.71h-.97z" class="st13"/><path d="M38.71 30.04h.82v1.25h-.82z" class="st14"/><path d="M40.22 28h.97v3.71h-.97z" class="st13"/><path d="M40.3 30.04h.82v1.25h-.82z" class="st14"/><path d="M41.62 28h.97v3.71h-.97z" class="st13"/><path d="M41.69 30.04h.82v1.25h-.82z" class="st14"/><path d="M43.12 28h.97v3.71h-.97z" class="st13"/><path d="M43.2 30.04h.82v1.25h-.82z" class="st14"/><path d="M60.18 14.35h11.34v6.86H60.18z" class="st13"/><path d="M60.86 15.17h9.99v6.04h-9.99z" class="st20"/><path d="M61.61 16.69h8.49v4.51h-8.49zM72.33 16.06h.38v1.09h-.38z" class="st3"/><path d="M56.54 32.36h4.58v7.89h-4.58zM63.58 32.36H68v7.89h-4.42zM70.49 32.36h4.31v7.89h-4.31z" class="st13"/><path d="M55.75 32.36h20.23v.59H55.75z" class="st3"/><path d="M75.57 22.07h.42v10.58h-.42zM55.75 32.05h.4v.52h-.4z" class="st3"/><path d="M57.39 33.32h2.89v6.45h-2.89z" class="st14"/><path d="M57.55 32.05h1.65v5.77h-1.65z" class="st3"/><path d="M64.36 33.32h2.89v6.45h-2.89zM71.23 33.32h3v6.45h-3z" class="st14"/><path d="M72.4 32.05h1.65v5.77H72.4zM64.83 32.05h1.65v5.77h-1.65z" class="st3"/><path d="M60.76 41.84h4.78v4.06h-4.78z" class="st14"/><path d="M59.2 41.48h1.55v4.56H59.2zM65.54 41.48h1.71v4.56h-1.71z" class="st3"/><path d="M54.1 51.19h1.65v3.23H54.1z" class="st35"/><path d="M73.06 49.91h1.2v5.78h-1.2z" class="st3"/><path d="M73.75 51.42h.51v2.86h-.51z" class="st36"/><path d="M57.8 65.5h3.45v3.81H57.8zM63.3 65.5h3.45v3.81H63.3z" class="st37"/><path d="M58.28 66.24h7.8v2.47h-7.8z" class="st14"/><path d="M59.07 65.8h6.2v2.91h-6.2z" class="st3"/><path d="M60.24 65.5h3.57v3.41h-3.57z"/><path d="M57.8 70.91h3.45v3.81H57.8zM63.3 70.91h3.45v3.81H63.3z" class="st37"/><path d="M58.28 71.65h7.8v2.47h-7.8z" class="st14"/><path d="M59.07 71.2h6.2v2.91h-6.2z" class="st3"/><path d="M60.24 70.91h3.57v3.41h-3.57z"/><path d="M29.13 78.19h3.69v3.6h-3.69zM35.02 78.19h3.69v3.6h-3.69z" class="st37"/><path d="M29.64 78.72h8.35v2.47h-8.35z" class="st14"/><path d="M30.5 78.7h6.64v2.48H30.5z" class="st3"/><path d="M31.75 77.98h3.83v3.41h-3.83z"/><path d="M29.13 85.85h3.69v3.81h-3.69zM35.02 85.85h3.69v3.81h-3.69z" class="st37"/><path d="M29.64 86.59h8.35v2.47h-8.35z" class="st14"/><path d="M30.5 86.59h6.64v2.47H30.5z" class="st3"/><path d="M31.75 85.85h3.83v3.41h-3.83z"/><path d="m157.85 56.05-7.08 4.26v74.72l7.08 2.64zM8.87 85.39l5.82 1.96v60.58l-5.82 3.89z" class="st10"/><path d="M149.87 196.68h-.14c-.09 0-.16-.07-.16-.16v-1.59c0-.09.07-.16.16-.16h.14c.09 0 .16.07.16.16v1.59c0 .08-.07.16-.16.16" class="st38"/><path d="M150.77 197.66h-.25a.49.49 0 0 1-.49-.49v-3.08c0-.27.22-.49.49-.49h.25z" class="st30"/><path d="M149.87 189.2h-.14c-.09 0-.16-.07-.16-.16v-1.59c0-.09.07-.16.16-.16h.14c.09 0 .16.07.16.16v1.59c0 .09-.07.16-.16.16" class="st38"/><path d="M150.77 190.18h-.25a.49.49 0 0 1-.49-.49v-3.08c0-.27.22-.49.49-.49h.25z" class="st30"/><path d="M149.87 181.68h-.14c-.09 0-.16-.07-.16-.16v-1.59c0-.09.07-.16.16-.16h.14c.09 0 .16.07.16.16v1.59c0 .09-.07.16-.16.16" class="st38"/><path d="M150.77 182.67h-.25a.49.49 0 0 1-.49-.49v-3.08c0-.27.22-.49.49-.49h.25z" class="st30"/><path d="M149.87 174.57h-.14c-.09 0-.16-.07-.16-.16v-1.59c0-.09.07-.16.16-.16h.14c.09 0 .16.07.16.16v1.59c0 .09-.07.16-.16.16" class="st38"/><path d="M150.77 175.56h-.25a.49.49 0 0 1-.49-.49v-3.08c0-.27.22-.49.49-.49h.25z" class="st30"/><path d="M149.87 167.06h-.14c-.09 0-.16-.07-.16-.16v-1.59c0-.09.07-.16.16-.16h.14c.09 0 .16.07.16.16v1.59c0 .08-.07.16-.16.16" class="st38"/><path d="M150.77 168.04h-.25a.49.49 0 0 1-.49-.49v-3.08c0-.27.22-.49.49-.49h.25z" class="st30"/><path d="M149.87 159.54h-.14c-.09 0-.16-.07-.16-.16v-1.59c0-.09.07-.16.16-.16h.14c.09 0 .16.07.16.16v1.59c0 .09-.07.16-.16.16" class="st38"/><path d="M150.77 160.53h-.25a.49.49 0 0 1-.49-.49v-3.08c0-.27.22-.49.49-.49h.25z" class="st30"/><path d="M149.87 152.29h-.14c-.09 0-.16-.07-.16-.16v-1.59c0-.09.07-.16.16-.16h.14c.09 0 .16.07.16.16v1.59c0 .09-.07.16-.16.16" class="st38"/><path d="M150.77 153.27h-.25a.49.49 0 0 1-.49-.49v-3.08c0-.27.22-.49.49-.49h.25z" class="st30"/><path d="M149.87 144.76h-.14c-.09 0-.16-.07-.16-.16v-1.59c0-.09.07-.16.16-.16h.14c.09 0 .16.07.16.16v1.59c0 .09-.07.16-.16.16" class="st38"/><path d="M150.77 145.75h-.25a.49.49 0 0 1-.49-.49v-3.08c0-.27.22-.49.49-.49h.25z" class="st30"/><path d="M149.87 132.63h-.14c-.09 0-.16-.07-.16-.16v-1.59c0-.09.07-.16.16-.16h.14c.09 0 .16.07.16.16v1.59c0 .09-.07.16-.16.16" class="st38"/><path d="M150.77 133.61h-.25a.49.49 0 0 1-.49-.49v-3.08c0-.27.22-.49.49-.49h.25z" class="st30"/><path d="M149.87 125.08h-.14c-.09 0-.16-.07-.16-.16v-1.59c0-.09.07-.16.16-.16h.14c.09 0 .16.07.16.16v1.59c0 .09-.07.16-.16.16" class="st38"/><path d="M150.77 126.07h-.25a.49.49 0 0 1-.49-.49v-3.08c0-.27.22-.49.49-.49h.25z" class="st30"/><path d="M149.87 117.54h-.14c-.09 0-.16-.07-.16-.16v-1.59c0-.09.07-.16.16-.16h.14c.09 0 .16.07.16.16v1.59c0 .09-.07.16-.16.16" class="st38"/><path d="M150.77 118.53h-.25a.49.49 0 0 1-.49-.49v-3.08c0-.27.22-.49.49-.49h.25z" class="st30"/><path d="M149.87 110h-.14c-.09 0-.16-.07-.16-.16v-1.59c0-.09.07-.16.16-.16h.14c.09 0 .16.07.16.16v1.59c0 .09-.07.16-.16.16" class="st38"/><path d="M150.77 110.99h-.25a.49.49 0 0 1-.49-.49v-3.08c0-.27.22-.49.49-.49h.25z" class="st30"/><path d="M149.87 102.71h-.14c-.09 0-.16-.07-.16-.16v-1.59c0-.09.07-.16.16-.16h.14c.09 0 .16.07.16.16v1.59c0 .09-.07.16-.16.16" class="st38"/><path d="M150.77 103.7h-.25a.49.49 0 0 1-.49-.49v-3.08c0-.27.22-.49.49-.49h.25z" class="st30"/><path d="M149.87 95.24h-.14c-.09 0-.16-.07-.16-.16V93.5c0-.09.07-.16.16-.16h.14c.09 0 .16.07.16.16v1.59c0 .08-.07.15-.16.15" class="st38"/><path d="M150.77 96.23h-.25a.49.49 0 0 1-.49-.49v-3.08c0-.27.22-.49.49-.49h.25z" class="st30"/><path d="M149.87 87.56h-.14c-.09 0-.16-.07-.16-.16v-1.59c0-.09.07-.16.16-.16h.14c.09 0 .16.07.16.16v1.59c0 .09-.07.16-.16.16" class="st38"/><path d="M150.77 88.55h-.25a.49.49 0 0 1-.49-.49v-3.08c0-.27.22-.49.49-.49h.25z" class="st30"/><path d="M149.87 80.24h-.14c-.09 0-.16-.07-.16-.16v-1.59c0-.09.07-.16.16-.16h.14c.09 0 .16.07.16.16v1.59c0 .08-.07.16-.16.16" class="st38"/><path d="M150.77 81.22h-.25a.49.49 0 0 1-.49-.49v-3.08c0-.27.22-.49.49-.49h.25z" class="st30"/><path d="M149.87 72.91h-.14c-.09 0-.16-.07-.16-.16v-1.59c0-.09.07-.16.16-.16h.14c.09 0 .16.07.16.16v1.59c0 .09-.07.16-.16.16" class="st38"/><path d="M150.77 73.89h-.25a.49.49 0 0 1-.49-.49v-3.08c0-.27.22-.49.49-.49h.25z" class="st30"/><path d="M149.87 65.41h-.14c-.09 0-.16-.07-.16-.16v-1.59c0-.09.07-.16.16-.16h.14c.09 0 .16.07.16.16v1.59c0 .09-.07.16-.16.16" class="st38"/><path d="M150.77 66.4h-.25a.49.49 0 0 1-.49-.49v-3.08c0-.27.22-.49.49-.49h.25z" class="st30"/><path d="M144.07 14.76h11.39v18.72h-11.39z" class="st39"/><path d="M145.66 17.43h8.39V31.1h-8.39z" class="st8"/><path d="M147.34 17.98h6.27V28.9h-6.27z" class="st39"/><path d="M148.66 18.86h4.03v8.52h-4.03z" class="st40"/><path d="m149.29 18.49-.63.37.88.22zM152.7 27.38l.55-.5-.43-.18-.32.09z" class="st40"/><path d="M149.29 18.49h3.96v8.39h-3.96z" style="fill:#e92211"/><path d="m144.07 14.76-.9 1.09v19.36l.9-1.73z" class="st2"/><path d="M145.77 12.62h5.44v2.22h-5.44z" class="st5"/><path d="M146.61 13.15h1.28v1.61h-1.28zM149.63 13.15h1.23v1.15h-1.23z" class="st8"/><path d="M147.89 12.73h1.74v2.03h-1.74zM149.63 14.41h1.15v.44h-1.15zM151.21 13.25h2.52v.37h-2.52z" class="st39"/><path d="M152.46 14.76c-.24-.37-1.04-1.15-1.04-1.15h.67l1.15 1.23z" class="st39"/><path d="M146.43 35.1h4.31v3.23h-4.31z" class="st8"/><path d="M147.99 34.61h2.36v1.34l-.77.93v1.44h-1.92v-1.61l.36-.89z" class="st39"/><path d="M145.86 51.6h3.71v3.23h-3.71z" class="st5"/><path d="M146.23 51.31h3.01v3.09h-3.01z" class="st8"/><path d="M147.32 50.84h1.65v1.29l-.54.89v1.38h-1.34v-1.55l.25-.85z" class="st39"/><path d="M151.27 51.6h3.71v3.23h-3.71z" class="st5"/><path d="M151.64 51.31h3.01v3.09h-3.01z" class="st8"/><path d="M152.73 50.84h1.64v1.29l-.53.89v1.38h-1.34v-1.55l.25-.85zM148.88 33.39h1.99v.56h-1.99z" class="st39"/><path d="M144.32 36.76h.66v.74h-.66z" class="st5"/><path d="M153.24 34.55h.85v.86h-.85z" style="fill:#333330"/><path d="M148.76 43.77h3.67v2.82h-3.67z" class="st5"/><path d="M149.18 44.22h2.46v2.37h-2.46z" class="st8"/><path d="M149.98 45.23h1.23l.81 1v.75h-1.43l-.15-.83-.5-.04v-.88zM154.49 40.36h3.37v.66h-3.37zM154.49 45.73h3.37v.78h-3.37zM155.29 41.6h2.1v.4h-2.1z" class="st39"/><path d="M155.29 41.6h.43v.8h-.43zM156.96 41.6h.43v.8h-.43z" class="st39"/><path d="M154.87 39.8h2.09v.61h-2.09z" class="st8"/><path d="M154.87 41.02h.42v4.29h-.42zM157.32 41.13h.42v4.19h-.42z"/><path d="M155.76 42.82h1.2v2.46h-1.2zM155.98 46.51h1.2v1.41h-1.2z" class="st43"/><path d="M156.12 43.22h.42v.83h-.42z" class="st44"/><path d="M155.29 43.22h2.03v.86h-2.03z" class="st39"/><path d="M155.29 44.87h2.07v.41h-2.07z" class="st44"/><path d="M155.32 44.87h2.04v.41h-2.04z" class="st43"/><path d="M156.14 42.02h.4v.8h-.4z" class="st45"/><path d="M146 62.29v2.12h1.64v1.68h2.02v-2.08h-3.22v-1.72z" class="st5"/><path d="M147.21 60.3h.43v-.4h1.24v.4h.36v.82h-.36v-.4h-1.2v.4h-.46z" class="st6"/><path d="M148.81 59.05h.86v.41h-.86z" class="st7"/><path d="M146.79 58.92h2.09v.61h-2.09z" class="st8"/><path d="M146 57.03h3.35v3.69H146z" class="st5"/><path d="M146.41 58.26h3.37v.66h-3.37zM146.41 63.63h3.37v.78h-3.37zM147.21 59.5h2.1v.4h-2.1z" class="st39"/><path d="M147.21 59.5h.43v.8h-.43zM148.88 59.5h.43v.8h-.43z" class="st39"/><path d="M146.79 57.7h2.09v.61h-2.09z" class="st8"/><path d="M146.79 58.92h.42v4.29h-.42zM149.24 59.03h.42v4.19h-.42z"/><path d="M147.68 60.72h1.2v2.46h-1.2z" class="st43"/><path d="M148.04 61.12h.42v.83h-.42z" class="st44"/><path d="M147.21 61.12h2.03v.86h-2.03z" class="st39"/><path d="M147.21 62.77h2.07v.41h-2.07z" class="st44"/><path d="M147.24 62.77h2.04v.41h-2.04z" class="st43"/><path d="M148.06 59.92h.4v.8h-.4z" class="st45"/><path d="M25.09 44.41h4.51v1.3h-4.51z" class="st13"/><path d="M25.77 44.84h3.6v.49h-3.6z" class="st14"/><path d="M26.94 44.8h1.65v.6h-1.65z" class="st3"/><path d="M25.09 46.44h4.51v1.3h-4.51z" class="st13"/><path d="M25.77 46.86h3.6v.49h-3.6z" class="st14"/><path d="M26.94 46.83h1.65v.6h-1.65z" class="st3"/><path d="M25.09 48.46h4.51v1.3h-4.51z" class="st13"/><path d="M25.77 48.89h3.6v.49h-3.6z" class="st14"/><path d="M26.94 48.86h1.65v.6h-1.65z" class="st3"/><path d="M25.09 50.54h4.51v1.3h-4.51z" class="st13"/><path d="M25.77 50.97h3.6v.49h-3.6z" class="st14"/><path d="M26.94 50.94h1.65v.6h-1.65z" class="st3"/><path d="M25.09 52.42h4.51v1.3h-4.51z" class="st13"/><path d="M25.77 52.84h3.6v.49h-3.6z" class="st14"/><path d="M26.94 52.81h1.65v.6h-1.65z" class="st3"/><path d="M25.09 54.29h4.51v1.3h-4.51z" class="st13"/><path d="M25.77 54.72h3.6v.49h-3.6z" class="st14"/><path d="M26.94 54.69h1.65v.6h-1.65z" class="st3"/><path d="M25.09 55.99h4.51v1.54h-4.51z" class="st13"/><path d="M25.77 56.5h3.6v.58h-3.6z" class="st14"/><path d="M26.94 56.46h1.65v.72h-1.65z" class="st3"/><path d="M25.09 58.03h4.51v1.54h-4.51z" class="st13"/><path d="M25.77 58.54h3.6v.58h-3.6z" class="st14"/><path d="M26.94 58.5h1.65v.72h-1.65z" class="st3"/><path d="M25.09 59.99h4.51v1.54h-4.51z" class="st13"/><path d="M25.77 60.5h3.6v.58h-3.6z" class="st14"/><path d="M26.94 60.47h1.65v.72h-1.65z" class="st3"/><path d="M25.09 61.96h4.51v1.54h-4.51z" class="st13"/><path d="M25.77 62.47h3.6v.58h-3.6z" class="st14"/><path d="M26.94 62.43h1.65v.72h-1.65z" class="st3"/><path d="M25.09 63.86h4.51v1.54h-4.51z" class="st13"/><path d="M25.77 64.37h3.6v.58h-3.6z" class="st14"/><path d="M26.94 64.33h1.65v.72h-1.65z" class="st3"/><path d="M25.09 65.91h4.51v1.54h-4.51z" class="st13"/><path d="M25.77 66.42h3.6V67h-3.6z" class="st14"/><path d="M26.94 66.38h1.65v.72h-1.65z" class="st3"/><path d="M25.09 67.9h4.51v1.54h-4.51z" class="st13"/><path d="M25.77 68.41h3.6v.58h-3.6z" class="st14"/><path d="M26.94 68.38h1.65v.72h-1.65z" class="st3"/><path d="M25.09 69.9h4.51v1.54h-4.51z" class="st13"/><path d="M25.77 70.4h3.6v.58h-3.6z" class="st14"/><path d="M26.94 70.37h1.65v.72h-1.65z" class="st3"/><path d="M51.961 45.7h-4.51v-1.3h4.51z" class="st13"/><path d="M51.277 45.32h-3.6v-.49h3.6z" class="st14"/><path d="M50.108 45.411h-1.65v-.6h1.65z" class="st3"/><path d="M51.961 47.727h-4.51v-1.3h4.51z" class="st13"/><path d="M51.277 47.356h-3.6v-.49h3.6z" class="st14"/><path d="M50.108 47.438h-1.65v-.6h1.65z" class="st3"/><path d="M51.961 49.764h-4.51v-1.3h4.51z" class="st13"/><path d="M51.277 49.383h-3.6v-.49h3.6z" class="st14"/><path d="M50.108 49.465h-1.65v-.6h1.65z" class="st3"/><path d="M51.961 51.838h-4.51v-1.3h4.51z" class="st13"/><path d="M51.277 51.457h-3.6v-.49h3.6z" class="st14"/><path d="M50.108 51.54h-1.65v-.6h1.65z" class="st3"/><path d="M51.961 53.71h-4.51v-1.3h4.51z" class="st13"/><path d="M51.277 53.339h-3.6v-.49h3.6z" class="st14"/><path d="M50.108 53.42h-1.65v-.6h1.65z" class="st3"/><path d="M51.961 55.591h-4.51v-1.3h4.51z" class="st13"/><path d="M51.277 55.21h-3.6v-.49h3.6z" class="st14"/><path d="M50.108 55.292h-1.65v-.6h1.65z" class="st3"/><path d="M51.961 57.532h-4.51v-1.54h4.51z" class="st13"/><path d="M51.277 57.08h-3.6v-.58h3.6z" class="st14"/><path d="M50.108 57.182h-1.65v-.72h1.65z" class="st3"/><path d="M51.961 59.564h-4.51v-1.54h4.51z" class="st13"/><path d="M51.277 59.113h-3.6v-.58h3.6z" class="st14"/><path d="M50.108 59.214h-1.65v-.72h1.65z" class="st3"/><path d="M51.961 61.54h-4.51V60h4.51z" class="st13"/><path d="M51.277 61.087h-3.6v-.58h3.6z" class="st14"/><path d="M50.108 61.179h-1.65v-.72h1.65z" class="st3"/><path d="M51.961 63.504h-4.51v-1.54h4.51z" class="st13"/><path d="M51.277 63.052h-3.6v-.58h3.6z" class="st14"/><path d="M50.108 63.154h-1.65v-.72h1.65z" class="st3"/><path d="M51.961 65.397h-4.51v-1.54h4.51z" class="st13"/><path d="M51.277 64.945h-3.6v-.58h3.6z" class="st14"/><path d="M50.108 65.046h-1.65v-.72h1.65z" class="st3"/><path d="M51.961 67.452h-4.51v-1.54h4.51z" class="st13"/><path d="M51.277 67h-3.6v-.58h3.6z" class="st14"/><path d="M50.108 67.102h-1.65v-.72h1.65z" class="st3"/><path d="M51.961 69.446h-4.51v-1.54h4.51z" class="st13"/><path d="M51.277 68.994h-3.6v-.58h3.6z" class="st14"/><path d="M50.108 69.086h-1.65v-.72h1.65z" class="st3"/><path d="M51.961 71.43h-4.51v-1.54h4.51z" class="st13"/><path d="M51.277 70.988h-3.6v-.58h3.6z" class="st14"/><path d="M50.108 71.08h-1.65v-.72h1.65zM45.44 42.06h2.09v.46h-2.09z" class="st3"/><path d="M47.11 42.13h.42v31.51h-.42z" class="st3"/><path d="M29.41 73.23h18.12v.4H29.41z" class="st3"/><path d="M29.41 44.05h.44v29.41h-.44z" class="st3"/><path d="M30.22 41.57h14.92V71.7H30.22z" class="st35"/><path d="M45.89 43.97h1.22v1.3h-1.22zM45.89 46.12h1.22v1.02h-1.22zM45.89 48.06h1.22v.89h-1.22zM45.89 50.08h1.22v.89h-1.22zM45.89 52.01h1.22v.89h-1.22zM45.89 54.07h1.22v.89h-1.22zM45.89 55.9h1.22v.89h-1.22zM45.89 57.9h1.22v.89h-1.22zM45.89 59.81h1.22v.89h-1.22zM45.89 61.72h1.22v.89h-1.22zM45.89 63.74h1.22v.89h-1.22zM45.89 65.76h1.22v.89h-1.22zM45.89 67.71h1.22v.89h-1.22zM45.89 69.61h1.22v.89h-1.22z" class="st3"/><path d="M39.45 122.4h6.31v.65h-6.31z" class="st23"/><path d="M39.39 122.4h.72v1.41h-.72zM45.12 122.4h.72v1.41h-.72zM50.97 122.4h6.31v.65h-6.31z" class="st23"/><path d="M50.91 122.4h.72v1.41h-.72zM56.65 122.4h.72v1.41h-.72z" class="st23"/><path d="M76.01 209.19v-11.33l.77-1.98h6.12l.84 1.57.66-1.57h6.09l.77 1.43.95-1.43h5.83l.84 1.24v12.07z" class="st44"/><path d="M75.52 194.29h.49v12.24h-.49z" class="st4"/><path d="M76.55 193.39h6.48v2.49h-6.48zM83.88 193.39h6.48v2.49h-6.48zM91.58 193.39h6.48v2.49h-6.48z" class="st46"/><path d="M77.53 192.93h4.36v.46h-4.36zM85.12 192.93h4.36v.46h-4.36zM92.54 192.93h4.36v.46h-4.36z" class="st4"/><path d="M78.7 198.74h2.22V209H78.7z" class="st47"/><path d="M79.33 207.34h1.3v1.3h-1.3z" class="st44"/><path d="M78.41 206.29h2.93V209h-2.93zM86.47 206.29h2.93V209h-2.93z" class="st47"/><path d="M87.81 207.34h1.59v1.3h-1.59zM79.08 207.04h1.59v1.59h-1.59z" class="st3"/><path d="m86.25 198.74.95 7.79 2.28-.07-.87-7.72zM94.07 198.74l1.46 7.55h2.3l-1.46-7.55z" class="st47"/><path d="M94.39 206.29h2.35V209h-2.35z" class="st47"/><path d="M95.58 206.17h2.47v2.47h-2.47z" class="st47"/><path d="M96.27 207.4h1.47v1.09h-1.47z" class="st3"/><path d="M85.9 130.86c0-.39.08-.75.23-1.09s.38-.61.67-.82l.78.66c-.24.17-.41.36-.53.56s-.18.43-.18.68q0 .96 1.14.96h3.2v-2.21h.97v3.35h-4.11c-.73 0-1.28-.18-1.64-.53s-.53-.88-.53-1.56M85.99 134.57h6.2v2.55c0 .55-.09 1.02-.26 1.41s-.43.7-.76.91-.73.32-1.19.32-.84-.11-1.17-.32-.58-.52-.75-.91q-.27-.585-.27-1.41v-1.91l.51.5h-2.32v-1.14zm0 4.06 2.25-1.57v1.23l-2.25 1.58zm2.19-2.91.56-.5v1.85c0 .51.11.89.33 1.15s.52.39.91.39.69-.13.91-.39c.21-.26.32-.64.32-1.15v-1.85l.57.5zM85.9 143.92q0-.72.24-1.32c.16-.4.38-.75.67-1.05s.63-.53 1.01-.7.81-.25 1.28-.25.89.08 1.28.25c.38.17.72.4 1.01.7s.51.65.67 1.05.23.84.23 1.32c0 .51-.09.97-.26 1.39s-.43.77-.78 1.06l-.7-.74c.24-.23.42-.48.54-.76s.18-.58.18-.89a2.215 2.215 0 0 0-.61-1.59c-.19-.2-.42-.35-.69-.46a2.3 2.3 0 0 0-.88-.17c-.32 0-.61.06-.88.17s-.5.27-.69.46c-.2.2-.35.43-.45.7s-.16.57-.16.89a2.18 2.18 0 0 0 .73 1.65l-.7.74c-.34-.29-.6-.64-.78-1.06-.17-.41-.26-.88-.26-1.39M85.99 149.92h6.2v2.92c0 .74-.15 1.3-.44 1.69s-.68.58-1.17.58c-.33 0-.61-.08-.85-.23s-.41-.36-.54-.62-.19-.53-.19-.83l.32.16c0 .35-.06.66-.19.94s-.31.5-.55.66q-.36.24-.9.24c-.53 0-.95-.2-1.24-.61-.3-.4-.44-1-.44-1.8v-3.1zm.9 1.16v1.87c0 .43.07.75.21.98s.37.35.68.35.53-.12.68-.35c.14-.23.22-.56.22-.98v-1.96h.89v1.72c0 .4.07.7.21.92s.35.33.64.33.5-.11.65-.33c.14-.22.21-.53.21-.92v-1.63zM85.92 158.69c0-.48.11-.91.32-1.29s.5-.68.86-.9c.37-.22.78-.33 1.25-.33q.72 0 1.26.33c.36.22.64.52.85.9s.31.81.31 1.29c0 .49-.1.93-.31 1.31s-.5.68-.85.9c-.36.21-.78.32-1.26.32-.47 0-.89-.11-1.25-.32a2.4 2.4 0 0 1-.86-.9 2.7 2.7 0 0 1-.32-1.31m.94 0c0 .27.06.51.18.73s.3.38.52.5q.345.18.78.18.45 0 .78-.18c.33-.18.39-.29.51-.5s.18-.45.18-.72-.06-.5-.18-.72c-.12-.21-.29-.38-.51-.5s-.48-.19-.78-.19c-.29 0-.56.06-.78.19-.23.12-.4.29-.52.5s-.18.45-.18.71M85.92 163.7c0-.35.06-.67.18-.93.12-.27.29-.47.51-.62.21-.14.46-.22.73-.22s.5.06.72.19.38.33.5.63c.12.29.19.67.19 1.15v1.37h-.74v-1.29c0-.37-.06-.63-.18-.76a.6.6 0 0 0-.46-.2c-.19 0-.35.08-.47.24q-.18.24-.18.66c0 .27.06.52.19.73s.31.37.55.47l-.66.18c-.28-.11-.49-.3-.65-.57-.15-.26-.23-.6-.23-1.03m.07 1.49h.97l.19-.05h1.67c.33 0 .58-.1.76-.3q.27-.3.27-.9c0-.26-.04-.52-.12-.77s-.2-.47-.35-.66l.81-.43c.2.26.34.56.44.91s.15.71.15 1.09c0 .69-.17 1.22-.5 1.59s-.84.56-1.52.56h-2.77zM85.99 167.65h4.73v1.05h-1.3l.38-.12c.32.14.56.36.73.66.17.31.25.68.25 1.13h-1.05c0-.04.01-.08.01-.12v-.12c0-.42-.12-.76-.36-1.01s-.61-.37-1.11-.37h-2.29v-1.1zM85.92 173.37c0-.46.1-.86.3-1.23.2-.36.48-.65.85-.86s.79-.31 1.28-.31c.48 0 .91.1 1.28.31s.65.49.85.86q.3.54.3 1.23c0 .4-.09.75-.26 1.06s-.44.56-.8.74-.81.27-1.37.27c-.55 0-1-.09-1.36-.27s-.63-.42-.8-.73c-.18-.3-.27-.66-.27-1.07m.07 1.57h1.12l1.26.03 1.26-.09h2.94V176H86v-1.06zm.87-1.44a1.318 1.318 0 0 0 .7 1.21c.23.13.49.19.78.19.3 0 .56-.06.78-.19s.39-.3.51-.5c.12-.21.18-.45.18-.71 0-.27-.06-.5-.18-.71s-.29-.38-.51-.5-.48-.19-.78-.19c-.29 0-.56.06-.78.19a1.32 1.32 0 0 0-.7 1.21" class="st48"/><path d="M81.32 129.88h2.36v-.93h.44v2.38h-.44v-.93h-2.36zM83.49 133.29c0 .17-.03.33-.1.46s-.17.24-.31.32-.32.12-.53.12h-1.23v-.5h1.16c.19 0 .33-.04.42-.13s.14-.21.14-.38c0-.12-.02-.22-.07-.31a.53.53 0 0 0-.21-.21.75.75 0 0 0-.36-.07h-1.08v-.5h2.97v.5h-1.41l.18-.1c.14.07.24.18.32.32.07.13.11.29.11.48M81.29 136.22c0-.24.05-.44.14-.62s.22-.32.39-.41q.24-.15.57-.15c.21 0 .4.05.57.14s.29.23.39.39a1.2 1.2 0 0 1 0 1.13c-.09.16-.22.29-.39.38s-.36.14-.59.14h-.07c-.03 0-.05 0-.07-.01v-1.78h.33v1.52l-.1-.2c.12 0 .23-.02.32-.07s.17-.12.22-.21.08-.2.08-.32-.03-.23-.08-.32-.13-.17-.22-.22-.21-.08-.33-.08h-.08c-.13 0-.24.03-.34.09s-.18.14-.23.25-.08.23-.08.37a.761.761 0 0 0 .24.58l-.31.27c-.11-.1-.2-.22-.26-.37s-.1-.31-.1-.5M81.32 139.66h2.8v1.15c0 .25-.04.46-.12.64s-.19.31-.34.41-.33.14-.54.14-.38-.05-.53-.14a.9.9 0 0 1-.34-.41c-.08-.18-.12-.39-.12-.64v-.86l.24.23h-1.05zm.99.52.26-.23v.84c0 .23.05.4.15.52s.23.17.41.17.31-.06.41-.17c.1-.12.15-.29.15-.52v-.84l.26.23zM81.32 142.92h2.14v.48h-.59l.17-.06q.21.09.33.3c.08.14.11.31.11.51H83c0-.02 0-.04.01-.06v-.05c0-.19-.05-.34-.16-.46-.11-.11-.28-.17-.5-.17h-1.03zM81.29 145.96c0-.22.05-.41.14-.58s.22-.31.39-.41.35-.15.56-.15q.33 0 .57.15c.16.1.29.23.39.4.09.17.14.37.14.58 0 .22-.05.42-.14.59-.1.17-.22.31-.39.4q-.24.15-.57.15-.315 0-.57-.15c-.255-.15-.29-.23-.39-.41s-.13-.35-.13-.57m.43 0c0 .12.03.23.08.33s.13.17.24.23c.1.05.22.08.35.08.14 0 .25-.03.35-.08s.18-.13.23-.23a.69.69 0 0 0 0-.64.57.57 0 0 0-.23-.23.67.67 0 0 0-.35-.08c-.13 0-.25.03-.35.08-.1.06-.18.13-.24.23-.06.09-.08.19-.08.31M81.29 149.17q0-.27.12-.48c.08-.14.2-.26.36-.33.16-.08.37-.12.62-.12s.46.04.62.13c.16.08.28.19.36.34q.12.21.12.48c0 .21-.04.39-.14.56-.09.16-.22.29-.38.39s-.36.14-.58.14-.41-.05-.58-.14a.95.95 0 0 1-.38-.39c-.09-.19-.14-.37-.14-.58m.03-1.18h2.97v.5h-1.33l-.57-.04-.57.02h-.5zm.4 1.12c0 .12.03.23.08.33s.13.17.24.23c.1.06.22.08.35.08.14 0 .25-.03.35-.08.1-.06.18-.13.23-.23a.7.7 0 0 0 0-.65.57.57 0 0 0-.23-.23.67.67 0 0 0-.35-.08c-.13 0-.25.03-.35.08-.1.06-.18.13-.24.23-.06.09-.08.2-.08.32M81.32 151.13h2.97v.5h-2.97zM81.29 153.7c0-.24.05-.44.14-.62s.22-.32.39-.41q.24-.15.57-.15c.21 0 .4.05.57.14s.29.23.39.39a1.2 1.2 0 0 1 0 1.13c-.09.16-.22.29-.39.38s-.36.14-.59.14h-.07c-.03 0-.05 0-.07-.01v-1.78h.33v1.52l-.1-.2c.12 0 .23-.02.32-.07s.17-.12.22-.21.08-.2.08-.32-.03-.23-.08-.32-.13-.17-.22-.22-.21-.09-.33-.09h-.08c-.13 0-.24.03-.34.09s-.18.14-.23.25-.08.23-.08.37a.761.761 0 0 0 .24.58l-.31.27c-.11-.1-.2-.22-.26-.37s-.1-.31-.1-.49M83.49 158.28c0 .17-.03.32-.1.45s-.17.24-.31.31-.32.11-.53.11h-1.23v-.5h1.16c.19 0 .33-.04.42-.13.09-.08.14-.2.14-.36 0-.11-.02-.21-.07-.29s-.12-.15-.21-.2-.21-.07-.35-.07h-1.08v-.5h1.16c.19 0 .33-.04.42-.13.09-.08.14-.2.14-.36 0-.11-.02-.21-.07-.29a.6.6 0 0 0-.21-.2.7.7 0 0 0-.35-.07h-1.08v-.5h2.14v.48h-.57l.17-.09c.14.07.24.18.32.31.08.14.11.3.11.47 0 .2-.05.37-.15.52s-.25.24-.46.29l.07-.19c.16.07.29.18.38.34.09.2.14.39.14.6M81.28 162.62q0-.33.09-.63t.24-.48l.4.18c-.09.11-.16.25-.22.42s-.09.33-.09.51c0 .15.02.27.05.36s.08.16.13.2.12.06.19.06c.09 0 .15-.03.21-.09q.075-.09.12-.24c.03-.1.06-.21.08-.32.02-.12.06-.24.09-.36.04-.12.08-.23.14-.33s.13-.18.23-.24a.7.7 0 0 1 .37-.09q.225 0 .42.12c.13.08.23.21.3.37.08.17.11.38.11.63 0 .17-.02.33-.06.5s-.1.31-.18.43l-.4-.17c.07-.13.13-.25.17-.39.04-.13.05-.26.05-.38 0-.14-.02-.26-.05-.35-.04-.09-.08-.16-.14-.2a.33.33 0 0 0-.19-.06c-.09 0-.15.03-.21.09q-.075.09-.12.24c-.045.15-.06.21-.08.33l-.09.36c-.03.12-.08.23-.14.32-.06.1-.13.18-.23.24-.09.06-.22.09-.36.09a.73.73 0 0 1-.41-.12c-.13-.08-.23-.21-.3-.37s-.12-.38-.12-.63M81.29 165.58c0-.22.05-.41.14-.58s.22-.31.39-.41.35-.15.56-.15q.33 0 .57.15c.16.1.29.23.39.4.09.17.14.37.14.58 0 .22-.05.42-.14.59-.1.17-.22.31-.39.4q-.24.15-.57.15-.315 0-.57-.15c-.255-.15-.29-.23-.39-.41s-.13-.35-.13-.57m.43 0c0 .12.03.23.08.33s.13.17.24.23c.1.05.22.08.35.08.14 0 .25-.03.35-.08s.18-.13.23-.23a.69.69 0 0 0 0-.64.57.57 0 0 0-.23-.23.67.67 0 0 0-.35-.08c-.13 0-.25.03-.35.08-.1.06-.18.13-.24.23-.06.09-.08.19-.08.31M81.32 167.61h2.97v.5h-2.97zM81.32 169.73l2.14-.92v.52l-1.89.79v-.26l1.89.82v.48l-2.14-.92zM81.29 172.88c0-.24.05-.44.14-.62s.22-.32.39-.41q.24-.15.57-.15c.21 0 .4.05.57.14s.29.23.39.39a1.2 1.2 0 0 1 0 1.13c-.09.16-.22.29-.39.38s-.36.14-.59.14h-.07c-.03 0-.05 0-.07-.01v-1.78h.33v1.52l-.1-.2c.12 0 .23-.02.32-.07s.17-.12.22-.21.08-.2.08-.32-.03-.23-.08-.32-.13-.17-.22-.22-.21-.08-.33-.08h-.08c-.13 0-.24.03-.34.09s-.18.14-.23.25-.08.23-.08.37a.761.761 0 0 0 .24.58l-.31.27c-.11-.1-.2-.22-.26-.37s-.1-.31-.1-.5M81.32 174.77h2.14v.48h-.59l.17-.06q.21.09.33.3c.08.14.11.31.11.51H83c0-.02 0-.04.01-.06v-.05c0-.19-.05-.34-.16-.46-.11-.11-.28-.17-.5-.17h-1.03z" class="st49"/><path d="M132.83 156.64s3.52 8.17-.5 11.6-9.64.51-12.55-1.53c-3.02-2.11-12.18-10.21-15.41-21.2 0 0-1.78-8.05 2.98-11 0 0-5.17.18-6.34 6.68 0 0-.76 6.26 4.4 14.72 0 0 4.74 7.86 9.4 11.84s13.65 9.37 18.22 5.2c.01 0 5.16-4.91-.2-16.31" class="st48"/><path d="M126.17 157.98c0 .04 0 .09-.01.13h-.01c.01-.05.01-.09.01-.14v.01zM125.99 158.48l-.09.09z" class="st50"/><path d="M132.83 156.64s3.52 8.17-.5 11.6-9.64.51-12.55-1.53c-3.02-2.11-12.18-10.21-15.41-21.2 0 0-1.78-8.05 2.98-11 0 0-5.17.18-6.34 6.68 0 0-.76 6.26 4.4 14.72 0 0 4.74 7.86 9.4 11.84s13.65 9.37 18.22 5.2c.01 0 5.16-4.91-.2-16.31" class="st48"/><path d="M126.17 157.98c0 .04 0 .09-.01.13h-.01c.01-.05.01-.09.01-.14v.01zM125.99 158.48l-.09.09z" class="st50"/><path d="m109.31 161.61-.18-.24zM111.18 163.94l-.01.01c-.33-.4-.66-.8-.97-1.2h.01c.31.4.64.8.97 1.19M113.38 166.38l-.01.02c-.38-.38-.75-.78-1.12-1.18v-.03c.37.4.75.8 1.13 1.19M115.19 168.06c.29.24.6.49.93.74h-.01c-.46-.35-.89-.71-1.28-1.05q-.585-.495-1.17-1.08l.01-.02c.5.52 1.01.99 1.52 1.41M117.16 169.6c-.19-.14-.39-.28-.57-.42h.02l.57.42c0-.01-.01-.01-.02 0" class="st48"/><path d="M110.75 133.09a.8.8 0 0 0-.45-.15h-.05c.78-.65 1.76-1.22 1.76-1.22q.33-.165.63-.27zM116.12 133.1l-.52-1.84c.25.07.46.14.65.19.17.04.37.1.57.16l-.5 1.46c-.07 0-.14.01-.2.03M115.54 133.83l-4.48-.27a.8.8 0 0 0-.05-.16l1.83-1.59.11-.09.02-.02.3-.26.29-.25c.65-.13 1.19-.11 1.62-.03l.03.1.1.35.48 1.69c-.16.14-.24.32-.25.53" class="st49"/><path d="m115.48 134.22-6.02 3.26.86-2.99c.34-.01.62-.23.72-.54zM108.97 137.75l-.13.07c-.04-.14-.08-.28-.11-.41-.35-1.5.61-3.4.61-3.4q.06-.15.18-.33v.04c0 .02 0 .04.01.05l-.01.09h.01c.04.23.19.42.4.53zM116.36 140.61l-6.98-2.63 6.48-3.5c.06.04.12.08.19.1l.66 5.75h-.01c-.15.05-.26.16-.34.28" class="st51"/><path d="m117.58 140.5.07-.1-.11.07a.75.75 0 0 0-.45-.2l-.64-5.65a.6.6 0 0 0 .24-.08l10.23 4.84-9.19 1.37c0-.01-.01-.02-.01-.03-.04-.09-.09-.15-.14-.22" class="st49"/><path d="m110.06 142.35-.51-.54c.22-.08.42-.15.58-.21z" class="st52"/><path d="M111.49 144.17a.8.8 0 0 0-.47-.1l-.6-1.31.11-1.22s.01-.06 0-.1c0 0 0-.03-.01-.04l-.01-.01s0-.01-.01-.01c-.19-.24-1.03-1.78-1.52-3.13l7.25 2.73c-.01.09.01.19.04.28l-4.69 2.97zM106.94 143.84l-.24-.31-.02-.03c.23-.25.5-.47.78-.67l-.06 1.58v.01z" class="st49"/><path d="m127.27 139.09-.2-.1-.62-.29-.65-.31-8.81-4.17c.07-.11.1-.24.1-.38a.77.77 0 0 0-.39-.67l.4-1.16.01-.02.09-.26c.54.18 1.03.36 1.03.36 2.62-.28 4.18 1.93 4.18 1.93 2.96.75 2.97 1.56 3.26 1.9.14.17.77.97 1.43 1.78l.2 1.32.01.04c-.02.01-.03.02-.04.03" class="st51"/><path d="m128.05 138.86-.2.19c-.03-.02-.07-.03-.11-.04-.01 0-.03-.01-.05-.01l-.11-.69c.17.19.33.38.47.55" class="st49"/><path d="m128.98 139.94-.79-.39c0-.02 0-.04-.01-.06l.51.04c.13.1.23.25.29.41M131.02 144.76c-.26-.06-.46-.1-.62-.12a.6.6 0 0 0-.31-.33.7.7 0 0 0-.29-.05l-1.79-4.27c.02-.02.03-.03.04-.05l1.07.52c.02.08.02.13.02.13.82 1.11 1.61 2.99 1.88 4.17M107.78 144.84l.08-2.26c.44-.26.88-.46 1.28-.62l.05.06.3.32.55.58.6 1.3c-.09.06-.16.14-.22.24-.03.05-.05.11-.07.17z" class="st51"/><path d="M105.75 145.83c0-.1 0-.21.01-.31.04-.68.29-1.24.65-1.72l.13.17.79 1.01zM130.4 145.04c.2.03.44.08.65.14l.03.01c.02.11.03.1.03.19 0 .1-.1.19-.18.48l-.03.01a.3.3 0 0 1-.1-.07c-.11-.09-.25-.27-.38-.45-.04-.05-.07-.1-.1-.15.03-.03.05-.07.06-.11.01-.02.02-.04.02-.05" class="st52"/><path d="m111.82 144.55 4.5-2.84-2.92 4.46a.77.77 0 0 0-.45.05c-.05.02-.09.05-.13.08l-1.01-1.1c.08-.21.09-.45.01-.65" class="st51"/><path d="M124.86 146.2a.6.6 0 0 0-.19 0 .7.7 0 0 0-.34.13c-.04.03-.08.06-.12.1l-1.25-.62a.8.8 0 0 0 0-.22.7.7 0 0 0-.08-.24.7.7 0 0 0-.12-.17l4.39-4.93-.1.26-.74 1.93zM117.33 141.74c.03-.01.05-.03.08-.04l4.11 3.64c-.01.02-.02.03-.03.04-.02.04-.03.07-.04.11l-7.57.98a1 1 0 0 0-.13-.14l3-4.57c.19.06.39.06.58-.02M129.27 144.84l-3.89 1.64c-.04-.05-.08-.1-.14-.13l.01-.02 2.3-5.98.07-.19h.04l1.78 4.27c-.03.03-.05.06-.08.09-.02.03-.03.05-.05.08-.01.03-.03.06-.03.1-.01.04-.01.09-.01.14" class="st49"/><path d="m127.81 147.05-2.23-.23 3.75-1.57-.99 1.59c-.2-.03-.4.05-.53.21" class="st50"/><path d="m108.65 147.51-.75-2.27v-.01h.01l2.43-.2c.03.11.08.22.16.31l-1.44 2.19a.8.8 0 0 0-.41-.02" class="st51"/><path d="m108.13 147.92-1.98-.76-.17-1 1.54-.82.78 2.36q-.09.075-.15.18c-.01.01-.02.02-.02.04" class="st49"/><path d="m109.39 147.75 1.43-2.18c.23.09.49.06.7-.08l1.03 1.11a.7.7 0 0 0-.07.35l-2.93 1.07a.7.7 0 0 0-.16-.27" class="st51"/><path d="M127.43 148.43a.7.7 0 0 0-.53.09l-1.41-1.24c.01-.02.02-.04.02-.07l2.17.23q.015.18.12.33z" class="st50"/><path d="M130.73 146.22c.04.02.07.03.1.03-.01.1 0 .19.03.28.05.15.15.3.34.42.34.21.51.92.6 1.66.04.36.06.73.08 1.05a.7.7 0 0 0-.2-.22l-2.83-1.99c0-.05 0-.1-.01-.15a.54.54 0 0 0-.15-.29l.91-1.46.09-.15c.1.03.2.03.29.01.01.01.02.03.03.04.18.27.47.65.72.77" class="st53"/><path d="M106.94 149.58c-.09-.2-.19-.4-.28-.6-.05-.12-.1-.23-.16-.35-.02-.04-.04-.09-.06-.14-.06-.13-.11-.27-.17-.4-.01-.02-.02-.04-.02-.05-.07-.16-.13-.33-.2-.49l1.99.76c0 .07.02.14.04.21z" class="st49"/><path d="m128.69 147.82 2.77 1.95c.09.06.12.18.08.26-.1.18-.44.11-.64.05-.74-.21-2.11-.66-2.91-.93a.66.66 0 0 0-.21-.51l.36-.64c.19.03.4-.03.55-.18" class="st50"/><path d="m114.02 146.86 7.43-.96a.8.8 0 0 0 .17.33l-1.67 3.71c-.02 0-.03-.01-.05-.01a.78.78 0 0 0-.71.24l-5.22-2.97c.05-.11.06-.23.05-.34" class="st51"/><path d="m122.82 146.17 1.2.6c-.08.29.03.59.25.78l-1.51 3.1c-.03-.01-.07-.03-.1-.04l-.27-4.16a.7.7 0 0 0 .43-.28M126.57 149.23l-3.46 1.61 1.52-3.12c.22.04.44-.01.61-.14l1.39 1.22c0 .01-.01.01-.01.02-.06.14-.07.28-.05.41M120.3 150.13l1.66-3.69h.01l.28 4.16c-.2.05-.38.19-.48.37l-1.23-.27c0-.21-.08-.42-.24-.57" class="st52"/><path d="m126.86 149.71-1.33 3.75h-.01a.81.81 0 0 0-.59.13l-1.8-1.88c.04-.07.06-.14.07-.22q.03-.135 0-.27l3.52-1.64c.05.05.09.09.14.13" class="st49"/><path d="m109.6 154.28-1.87-3.14-.04-.07-.01-.01c-.01-.03-.03-.06-.04-.09-.06-.11-.12-.22-.17-.33-.04-.09-.09-.17-.13-.26-.07-.14-.14-.29-.21-.43l1.1-1.01.14-.05c.02.02.04.03.07.05q.12.06.24.09l1.01 5.24h-.03c-.01 0-.02 0-.03.01-.01-.01-.02 0-.03 0M109.73 154.51v-.01z" class="st51"/><path d="M110.26 154.42a1 1 0 0 0-.16-.1l-1.03-5.33c.17-.06.32-.17.42-.34.04-.06.06-.13.08-.21l3.03-1.11c.04.06.07.11.12.15z" class="st52"/><path d="M119.81 151.47a.76.76 0 0 0 .62-.38l1.24.28c0 .17.05.33.15.46l-3.16 3.61zM113.7 147.56c.02-.01.04-.03.05-.04l5.26 3c0 .01-.01.03-.01.04-.06.35.12.67.42.82l-1.16 4.01q-.12.015-.24.06zM118.95 155.71l3.18-3.64q.09.045.18.06c.02 0 .03.01.05.01.04 0 .08.01.12 0 .14 0 .28-.05.4-.13l1.81 1.89q-.045.09-.06.18c-.02.1-.01.2 0 .29l-5.61 1.45a.4.4 0 0 1-.07-.11" class="st49"/><path d="M129.01 155.92a.8.8 0 0 0-.31-.16l-1.1-6.01c.1-.05.2-.13.26-.24.69.23 1.79.59 2.56.82h.01c.48.24 1.46.25 1.46.25.27.45.3 1.17.27 1.8l-.29.33z" class="st50"/><path d="M128.3 155.78c-.11.03-.2.08-.29.16l-1.94-1.34a.777.777 0 0 0-.19-.96l1.33-3.75z" class="st49"/><path d="m117.57 156-7.15-.49c.1-.13.15-.29.15-.46a.8.8 0 0 0-.03-.22l2.53-7.15c.08.02.16.03.25.02l4.39 8c-.07.09-.11.19-.14.3" class="st51"/><path d="M129.28 156.39a1 1 0 0 0-.04-.14l2.79-3.13.05-.06c-.05.38-.11.64-.11.64.11.82-.17 1.97-.37 2.61h-.13z" class="st53"/><path d="M126.06 157.58c-.01-.02-.02-.03-.03-.05 0-.01-.01-.02-.02-.02-.01-.01-.01-.02-.02-.03a.8.8 0 0 0-.39-.26c-.02-.01-.04-.01-.06-.01v-.01l.01-2.22c.09-.02.18-.05.26-.1l1.99 1.38c-.01.04-.03.08-.04.12-.03.14-.01.28.04.41l-1.6.73zM124.65 157.76h-.02l-5.54-1.49v-.05l5.71-1.48c.09.1.19.17.32.22l-.01 2.28v.01a.81.81 0 0 0-.46.51M112.57 158.3c-.34-.4-.67-.82-1-1.24l5.33-.49zM127.98 158.46l-1.82-.35h-.01c.01-.05.01-.09.01-.14l1.86-.85c.1.08.22.14.35.16.03 0 .05 0 .08.01v.82c-.19.05-.36.17-.47.35" class="st51"/><path d="M129.34 158.54a.77.77 0 0 0-.49-.42v-.91c.17-.08.32-.23.39-.42l2.24-.08c-.02.05-.03.07-.03.07 0 .72-.42 1.33-.62 1.64l-.13.01zM129.13 160.67l-.16-1.11c.2-.09.36-.27.42-.49.01-.05.02-.09.02-.14l1.29-.1-.07.47c-.07.31-.41.76-.87 1.36-.05-.02-.1-.04-.16-.05a.8.8 0 0 0-.47.06" class="st53"/><path d="m119.73 161.37-1.13-4.48c.01-.01.03-.01.04-.01.13-.06.22-.14.3-.24l5.68 1.53.02.01c0 .02.01.03.01.05.01.03.02.05.03.07l-.01.01-3.79 2.35-.07.04zM128.22 161.41l-2.32-2.84c.03-.03.06-.06.08-.09h.01l1.87.36v.03c0 .41.31.75.72.77l.2 1.37c-.03.07-.06.14-.08.22v.03l-.21.11c-.1 0-.18.02-.27.04" class="st51"/><path d="M121.84 162.23c-.05-.04-.1-.08-.15-.11l3.29-3.36.06-.07c.03.01.06.03.08.03.08.03.16.04.25.04.05 0 .1-.01.14-.01h.01l.01.02 2.34 2.86c-.04.04-.07.09-.1.14z" class="st49"/><path d="M125.13 158.71c-.03 0-.06-.01-.08-.03l.01-.01c.02.02.04.03.07.04M125.54 158.75h-.01v-.01.01-.01zl.01.01zM116.98 162.89c-.01.01-.02.01-.03.02-.21-.2-.43-.4-.65-.62l1.89-5.36h.01l1.15 4.55-.76.67-.76.67a.8.8 0 0 0-.38-.1c-.18.01-.34.07-.47.17M118.13 163.13a.6.6 0 0 0-.1-.13l3.03-1.99.04-.02 2.92-1.81-2.77 2.83c-.09.01-.18.02-.26.06-.16.07-.28.19-.36.34z" class="st49"/><path d="m119.98 165.39-1.84-1.46-.01-.01c.04-.07.07-.15.08-.23 0-.03.01-.05.01-.08v-.1h.01l2.29-.67c.01.08.03.17.06.25.01.03.03.06.05.09z" class="st51"/><path d="m125.01 165.57 2.96-2.83c.06.05.13.09.2.12-.12.19-.23.38-.35.58-.88 1.57-2.2 2.01-2.81 2.13" class="st49"/><path d="M122.74 167.13c-.09 0-.17-.02-.25-.06-.28-.15-.55-.3-.8-.46v-.08c0-.21-.08-.39-.21-.53l-.16-2.43c.1 0 .2-.02.29-.07a.77.77 0 0 0 .44-.88l5.63-.44c0 .09.02.18.05.26l-2 1.91-.15.14-2.8 2.65c-.01-.01-.02-.01-.04-.01" class="st51"/><path d="m101.17 159.2 1.04 2.68c-2.11-.45-5.49-1.3-5.49-1.3s1.95-.2 4.45-1.38" class="st54"/><path d="M103.12 162.06c-.12-.02-.25-.05-.39-.08l4.43-2.75-3.28 2.81a.6.6 0 0 0-.23-.08.8.8 0 0 0-.53.1M104.6 165.67c-.6-.74-.81-1.54-.86-2.2a.77.77 0 0 0 .53-.92l4.94-.39c.02.09.05.17.09.25-.48.37-1.09.85-1.69 1.33-1.23.99-1.89 1.56-2.25 1.9-.07-.03-.14-.06-.22-.08-.2-.03-.39.01-.54.11M108.28 167.71l-.11-.05a.8.8 0 0 1-.24-.15.3.3 0 0 0-.13-.06c-.86-.2-1.54-.49-2.09-.82.02-.05.04-.11.05-.17.01-.04.01-.08.01-.12.51-.12 1.41-.37 3-.87.8-.25 1.6-.51 2.22-.71.09.25.31.45.59.5.09.02.17.01.26 0l-.1 2.65c-.35.01-.66.26-.73.61-1.17-.29-2.71-.8-2.73-.81" class="st51"/><path d="M112.41 169.13c.09.01.16.03.23.04-.36.19-.63.31-.63.31-.02 0-.04.01-.06.01a.2.2 0 0 1-.03-.05c.2-.04.38-.15.49-.31M111.55 169.52c-1.4.05-2.44-.71-3.05-1.32.55.18 1.66.52 2.55.72.09.26.31.47.6.52 0 0-.04.03-.1.08M108.36 160.33l-3.52 1.42 2.81-2.41c.22.31.46.64.71.99M105.06 162.09l3.54-1.43c.09.13.19.26.29.39l.24.33.18.24c-.03.04-.05.09-.07.14z" class="st49"/><path d="m115.74 156.27-4.46.41c-.19-.25-.38-.5-.57-.76z" class="st51"/><path d="M115.98 161.99c-1-.98-2.07-2.11-3.15-3.38l4.88-1.96c.03.04.07.08.11.11v.01zM105.69 165.96a.2.2 0 0 0-.04-.06c.34-.31.91-.8 1.6-1.36s1.51-1.21 2.33-1.85c.08.04.16.08.25.1.12.02.24.01.36-.02h.01c.31.4.64.79.97 1.19l-.01.01a.8.8 0 0 0-.2.39c-.96.32-2.03.66-2.98.95s-1.79.53-2.29.65" class="st49"/><path d="M120.52 165.85c-.08-.05-.15-.1-.22-.16l.62-2.1.14 2.16a1 1 0 0 0-.16-.02c-.13.01-.27.05-.38.12" class="st51"/><path d="m112.15 168 .1-2.79v-.03c.37.41.75.82 1.13 1.2l-.01.02zM113.19 168.86c-.03.01-.03.01-.17-.02-.1-.02-.25-.06-.47-.09a.84.84 0 0 0-.11-.47l1.21-1.59.01-.02c.51.5 1.02.97 1.53 1.39.29.24.6.49.93.74h-.01c-.31.01-.63.03-.95.04h-.74c-.22-.3-.28-.56-.28-.56-.24.18-.59.4-.95.58" class="st49"/><path d="M114.82 169.25c.59-.02 1.22-.05 1.77-.08h.02l.57.42h-.02c-1.16.24-1.89 0-2.34-.34" class="st52"/><path d="M102.73 161.99c-.16-.03-.33-.07-.51-.11" class="st44"/><path d="m120.88 160.66-.07.04z" class="st49"/><path d="M107.4 144.42v.01l-.46-.59zM107.9 145.24v-.01l.01-.01z" class="st55"/><path d="M125.13 158.72a1 1 0 0 1-.08-.03l.01-.01c.02.01.04.02.07.04q0-.015 0 0M125.59 157.23c-.02-.01-.04-.01-.06-.01v-.01c.23.04.42.18.53.37-.01-.02-.02-.03-.03-.05 0-.01-.01-.02-.02-.02-.01-.01-.01-.02-.02-.03-.1-.11-.24-.2-.4-.25M124.65 157.76h-.02c.07-.25.26-.44.5-.53v.01c-.22.09-.41.28-.48.52M124.68 158.3l-.01.01a.6.6 0 0 1-.05-.14l.02.01c0 .02.01.03.01.05.01.02.02.04.03.07M125.53 158.75v-.01zv-.01l.01.01zM120.52 165.84v.01h-.01zM118.23 163.54v.06-.08h.01v.01c-.01 0-.01 0-.01.01q0-.015 0 0M118.05 164.02c-.01 0-.01-.01-.01-.01.02-.01.04-.03.05-.04-.01.01-.03.03-.04.05M118.14 163.92c.03-.08.06-.15.07-.24 0-.03.01-.05.01-.08v-.1h.01v.04c0 .15-.03.27-.09.38" class="st50"/><path d="M125.13 158.71c-.03 0-.06-.01-.08-.03l.01-.01c.02.02.04.03.07.04M125.53 158.75v-.01l.01.01z" class="st49"/><path d="M109.63 154.27c.01 0 .02 0 .03-.01l-.47-1.51-1.86-2.38c.04.09.09.17.13.26.06.11.11.22.17.33.01.03.03.06.04.09l.01.01.04.07 1.87 3.14c.02.01.03 0 .04 0M111.27 156.68c-.19-.25-.37-.5-.56-.76l.47.22zM112.54 158.3c-.33-.4-.66-.82-.99-1.25h.02l.95.73.05.51z" class="st51"/><path d="M115.96 162.06c-1.01-1-2.08-2.16-3.16-3.45h.04l2.9 2.69.27.64-.02.05zM116.89 162.96l-.62-.59.03-.07.68-.3v.89c-.01.01-.02.01-.03.02-.02.02-.04.03-.06.05" class="st49"/><path d="M119.92 165.55c-.52-.4-1.16-.91-1.87-1.54-.01 0-.01-.01-.01-.01.02-.01.04-.03.05-.04l.01-.01.04-.04h.01l1.57.36.26 1.11zM120.41 165.92c-.05-.03-.1-.07-.15-.1l.04-.12.19-.09.03.24v.01s-.01 0-.01-.01c-.03.02-.07.04-.1.07M109.6 154.28l-1.87-3.14.09.11 1.33 1.91.48 1.1c-.01.01-.02.02-.03.02" class="st51"/><path d="M110.75 133.09a.8.8 0 0 0-.45-.15h-.05c.78-.65 1.76-1.22 1.76-1.22q.33-.165.63-.27zM116.12 133.1l-.52-1.84c.25.07.46.14.65.19.17.04.37.1.57.16l-.5 1.46c-.07 0-.14.01-.2.03M115.54 133.83l-4.48-.27a.8.8 0 0 0-.05-.16l1.83-1.59.11-.09.02-.02.3-.26.29-.25c.65-.13 1.19-.11 1.62-.03l.03.1.1.35.48 1.69c-.16.14-.24.32-.25.53" class="st49"/><path d="m115.48 134.22-6.02 3.26.86-2.99c.34-.01.62-.23.72-.54zM108.97 137.75l-.13.07c-.04-.14-.08-.28-.11-.41-.35-1.5.61-3.4.61-3.4q.06-.15.18-.33v.04c0 .02 0 .04.01.05l-.01.09h.01c.04.23.19.42.4.53zM116.36 140.61l-6.98-2.63 6.48-3.5c.06.04.12.08.19.1l.66 5.75h-.01c-.15.05-.26.16-.34.28" class="st51"/><path d="m117.58 140.5.07-.1-.11.07a.75.75 0 0 0-.45-.2l-.64-5.65a.6.6 0 0 0 .24-.08l10.23 4.84-9.19 1.37c0-.01-.01-.02-.01-.03-.04-.09-.09-.15-.14-.22" class="st49"/><path d="m110.06 142.35-.51-.54c.22-.08.42-.15.58-.21z" class="st52"/><path d="M111.49 144.17a.8.8 0 0 0-.47-.1l-.6-1.31.11-1.22s.01-.06 0-.1c0 0 0-.03-.01-.04l-.01-.01s0-.01-.01-.01c-.19-.24-1.03-1.78-1.52-3.13l7.25 2.73c-.01.09.01.19.04.28l-4.69 2.97zM106.94 143.84l-.24-.31-.02-.03c.23-.25.5-.47.78-.67l-.06 1.58v.01z" class="st49"/><path d="m127.27 139.09-.2-.1-.62-.29-.65-.31-8.81-4.17c.07-.11.1-.24.1-.38a.77.77 0 0 0-.39-.67l.4-1.16.01-.02.09-.26c.54.18 1.03.36 1.03.36 2.62-.28 4.18 1.93 4.18 1.93 2.96.75 2.97 1.56 3.26 1.9.14.17.77.97 1.43 1.78l.2 1.32.01.04c-.02.01-.03.02-.04.03" class="st51"/><path d="m128.05 138.86-.2.19c-.03-.02-.07-.03-.11-.04-.01 0-.03-.01-.05-.01l-.11-.69c.17.19.33.38.47.55" class="st49"/><path d="m128.98 139.94-.79-.39c0-.02 0-.04-.01-.06l.51.04c.13.1.23.25.29.41M131.02 144.76c-.26-.06-.46-.1-.62-.12a.6.6 0 0 0-.31-.33.7.7 0 0 0-.29-.05l-1.79-4.27c.02-.02.03-.03.04-.05l1.07.52c.02.08.02.13.02.13.82 1.11 1.61 2.99 1.88 4.17M107.78 144.84l.08-2.26c.44-.26.88-.46 1.28-.62l.05.06.3.32.55.58.6 1.3c-.09.06-.16.14-.22.24-.03.05-.05.11-.07.17zM121.79 145.05l-2.57-2.28-1.52-1.35-.01-.01c.05-.08.08-.18.09-.27l9.27-1.39c0 .01 0 .02.01.02l-4.63 5.19c-.05-.01-.1-.03-.15-.03 0 0-.01 0-.06-.01-.06 0-.11 0-.16.01q-.15.045-.27.12" class="st51"/><path d="M105.75 145.83c0-.1 0-.21.01-.31.04-.68.29-1.24.65-1.72l.13.17.79 1.01zM130.4 145.04c.2.03.44.08.65.14l.03.01c.02.11.03.1.03.19 0 .1-.1.19-.18.48l-.03.01a.3.3 0 0 1-.1-.07c-.11-.09-.25-.27-.38-.45-.04-.05-.07-.1-.1-.15.03-.03.05-.07.06-.11.01-.02.02-.04.02-.05" class="st52"/><path d="m111.82 144.55 4.5-2.84-2.92 4.46a.77.77 0 0 0-.45.05c-.05.02-.09.05-.13.08l-1.01-1.1c.08-.21.09-.45.01-.65" class="st51"/><path d="M124.86 146.2a.6.6 0 0 0-.19 0 .7.7 0 0 0-.34.13c-.04.03-.08.06-.12.1l-1.25-.62a.8.8 0 0 0 0-.22.7.7 0 0 0-.08-.24.7.7 0 0 0-.12-.17l4.39-4.93-.1.26-.74 1.93zM117.33 141.74c.03-.01.05-.03.08-.04l4.11 3.64c-.01.02-.02.03-.03.04-.02.04-.03.07-.04.11l-7.57.98a1 1 0 0 0-.13-.14l3-4.57c.19.06.39.06.58-.02M129.27 144.84l-3.89 1.64c-.04-.05-.08-.1-.14-.13l.01-.02 2.3-5.98.07-.19h.04l1.78 4.27c-.03.03-.05.06-.08.09-.02.03-.03.05-.05.08-.01.03-.03.06-.03.1-.01.04-.01.09-.01.14" class="st49"/><path d="m127.81 147.05-2.23-.23 3.75-1.57-.99 1.59c-.2-.03-.4.05-.53.21" class="st50"/><path d="m108.65 147.51-.75-2.27v-.01h.01l2.43-.2c.03.11.08.22.16.31l-1.44 2.19a.8.8 0 0 0-.41-.02" class="st51"/><path d="m108.13 147.92-1.98-.76-.27-.08c-.02 0-.03-.02-.03-.03-.04-.19-.06-.5-.08-.77 0-.01.01-.03.02-.03l.19-.08 1.54-.82.78 2.36q-.09.075-.15.18c-.01 0-.02.01-.02.03" class="st49"/><path d="m109.39 147.75 1.43-2.18c.23.09.49.06.7-.08l1.03 1.11a.7.7 0 0 0-.07.35l-2.93 1.07a.7.7 0 0 0-.16-.27" class="st51"/><path d="M127.43 148.43a.7.7 0 0 0-.53.09l-1.41-1.24c.01-.02.02-.04.02-.07l2.17.23q.015.18.12.33z" class="st50"/><path d="M130.73 146.22c.04.02.07.03.1.03-.01.1 0 .19.03.28.05.15.15.3.34.42.34.21.51.92.6 1.66.04.36.06.73.08 1.05a.7.7 0 0 0-.2-.22l-2.83-1.99c0-.05 0-.1-.01-.15a.54.54 0 0 0-.15-.29l.91-1.46.09-.15c.1.03.2.03.29.01.01.01.02.03.03.04.18.27.47.65.72.77" class="st53"/><path d="M106.94 149.58c-.09-.2-.19-.4-.28-.6-.05-.12-.1-.23-.16-.35-.02-.04-.04-.09-.06-.14-.06-.13-.11-.27-.17-.4-.01-.02-.02-.04-.02-.05-.07-.16-.13-.33-.2-.49l1.99.76c0 .07.02.14.04.21z" class="st49"/><path d="m128.69 147.82 2.77 1.95c.09.06.12.18.08.26-.1.18-.44.11-.64.05-.74-.21-2.11-.66-2.91-.93a.66.66 0 0 0-.21-.51l.36-.64c.19.03.4-.03.55-.18" class="st50"/><path d="m114.02 146.86 7.43-.96a.8.8 0 0 0 .17.33l-1.67 3.71c-.02 0-.03-.01-.05-.01a.78.78 0 0 0-.71.24l-5.22-2.97c.05-.11.06-.23.05-.34" class="st51"/><path d="m122.82 146.17 1.2.6c-.08.29.03.59.25.78l-1.51 3.1c-.03-.01-.07-.03-.1-.04l-.27-4.16a.7.7 0 0 0 .43-.28M126.57 149.23l-3.46 1.61 1.52-3.12c.22.04.44-.01.61-.14l1.39 1.22c0 .01-.01.01-.01.02-.06.14-.07.28-.05.41M120.3 150.13l1.66-3.69h.01l.28 4.16c-.2.05-.38.19-.48.37l-1.23-.27c0-.21-.08-.42-.24-.57" class="st52"/><path d="m126.86 149.71-1.33 3.75h-.01a.81.81 0 0 0-.59.13l-1.8-1.88c.04-.07.06-.14.07-.22q.03-.135 0-.27l3.52-1.64c.05.05.09.09.14.13" class="st49"/><path d="m109.6 154.28-1.87-3.14-.04-.07-.01-.01c-.01-.03-.03-.06-.04-.09-.06-.11-.12-.22-.17-.33-.04-.09-.09-.17-.13-.26-.07-.14-.14-.29-.21-.43l1.1-1.01.14-.05c.02.02.04.03.07.05q.12.06.24.09l1.01 5.24h-.03c-.01 0-.02 0-.03.01-.01-.01-.02 0-.03 0M109.73 154.51v-.01z" class="st51"/><path d="M110.26 154.42a1 1 0 0 0-.16-.1l-1.03-5.33c.17-.06.32-.17.42-.34.04-.06.06-.13.08-.21l3.03-1.11c.04.06.07.11.12.15z" class="st52"/><path d="M119.81 151.47a.76.76 0 0 0 .62-.38l1.24.28c0 .17.05.33.15.46l-3.16 3.61zM113.7 147.56c.02-.01.04-.03.05-.04l5.26 3c0 .01-.01.03-.01.04-.06.35.12.67.42.82l-1.16 4.01q-.12.015-.24.06zM118.95 155.71l3.18-3.64q.09.045.18.06c.02 0 .03.01.05.01.04 0 .08.01.12 0 .14 0 .28-.05.4-.13l1.81 1.89q-.045.09-.06.18c-.02.1-.01.2 0 .29l-5.61 1.45a.4.4 0 0 1-.07-.11" class="st49"/><path d="M129.01 155.92a.8.8 0 0 0-.31-.16l-1.1-6.01c.1-.05.2-.13.26-.24.69.23 1.79.59 2.56.82h.01c.48.24 1.46.25 1.46.25.27.45.3 1.17.27 1.8l-.29.33z" class="st50"/><path d="M128.3 155.78c-.11.03-.2.08-.29.16l-1.94-1.34a.777.777 0 0 0-.19-.96l1.33-3.75z" class="st49"/><path d="m117.57 156-7.15-.49c.1-.13.15-.29.15-.46a.8.8 0 0 0-.03-.22l2.53-7.15c.08.02.16.03.25.02l4.39 8c-.07.09-.11.19-.14.3" class="st51"/><path d="M129.28 156.39a1 1 0 0 0-.04-.14l2.79-3.13.05-.06c-.05.38-.11.64-.11.64.11.82-.17 1.97-.37 2.61h-.13z" class="st53"/><path d="M126.06 157.58c-.01-.02-.02-.03-.03-.05 0-.01-.01-.02-.02-.02-.01-.01-.01-.02-.02-.03a.8.8 0 0 0-.39-.26c-.02-.01-.04-.01-.06-.01v-.01l.01-2.22c.09-.02.18-.05.26-.1l1.99 1.38c-.01.04-.03.08-.04.12-.03.14-.01.28.04.41l-1.6.73zM124.65 157.76h-.02l-5.54-1.49v-.05l5.71-1.48c.09.1.19.17.32.22l-.01 2.28v.01a.81.81 0 0 0-.46.51M112.57 158.3c-.34-.4-.67-.82-1-1.24l5.33-.49zM127.98 158.46l-1.82-.35h-.01c.01-.05.01-.09.01-.14l1.86-.85c.1.08.22.14.35.16.03 0 .05 0 .08.01v.82c-.19.05-.36.17-.47.35" class="st51"/><path d="M129.34 158.54a.77.77 0 0 0-.49-.42v-.91c.17-.08.32-.23.39-.42l2.24-.08c-.02.05-.03.07-.03.07 0 .72-.42 1.33-.62 1.64l-.13.01zM129.13 160.67l-.16-1.11c.2-.09.36-.27.42-.49.01-.05.02-.09.02-.14l1.29-.1-.07.47c-.07.31-.41.76-.87 1.36-.05-.02-.1-.04-.16-.05a.8.8 0 0 0-.47.06" class="st53"/><path d="m119.73 161.37-1.13-4.48c.01-.01.03-.01.04-.01.13-.06.22-.14.3-.24l5.68 1.53.02.01c0 .02.01.03.01.05.01.03.02.05.03.07l-.01.01-3.79 2.35-.07.04zM128.22 161.41l-2.32-2.84c.03-.03.06-.06.08-.09h.01l1.87.36v.03c0 .41.31.75.72.77l.2 1.37c-.03.07-.06.14-.08.22v.03l-.21.11c-.1 0-.18.02-.27.04" class="st51"/><path d="M121.84 162.23c-.05-.04-.1-.08-.15-.11l3.29-3.36.06-.07c.03.01.06.03.08.03.08.03.16.04.25.04.05 0 .1-.01.14-.01h.01l.01.02 2.34 2.86c-.04.04-.07.09-.1.14z" class="st49"/><path d="M125.13 158.71c-.03 0-.06-.01-.08-.03l.01-.01c.02.02.04.03.07.04M125.54 158.75h-.01v-.01.01-.01zl.01.01zM116.98 162.89c-.01.01-.02.01-.03.02-.21-.2-.43-.4-.65-.62l1.89-5.36h.01l1.15 4.55-.76.67-.76.67a.8.8 0 0 0-.38-.1c-.18.01-.34.07-.47.17M118.13 163.13a.6.6 0 0 0-.1-.13l3.03-1.99.04-.02 2.92-1.81-2.77 2.83c-.09.01-.18.02-.26.06-.16.07-.28.19-.36.34z" class="st49"/><path d="m119.98 165.39-1.84-1.46-.01-.01c.04-.07.07-.15.08-.23 0-.03.01-.05.01-.08v-.1h.01l2.29-.67c.01.08.03.17.06.25.01.03.03.06.05.09z" class="st51"/><path d="m125.01 165.57 2.96-2.83c.06.05.13.09.2.12-.12.19-.23.38-.35.58-.88 1.57-2.2 2.01-2.81 2.13" class="st49"/><path d="M122.74 167.13c-.09 0-.17-.02-.25-.06-.28-.15-.55-.3-.8-.46v-.08c0-.21-.08-.39-.21-.53l-.16-2.43c.1 0 .2-.02.29-.07a.77.77 0 0 0 .44-.88l5.63-.44c0 .09.02.18.05.26l-2 1.91-.15.14-2.8 2.65c-.01-.01-.02-.01-.04-.01" class="st51"/><path d="m101.17 159.2 1.04 2.68c-2.11-.45-5.49-1.3-5.49-1.3s1.95-.2 4.45-1.38" class="st54"/><path d="M103.12 162.06c-.12-.02-.25-.05-.39-.08l4.43-2.75-3.28 2.81a.6.6 0 0 0-.23-.08.8.8 0 0 0-.53.1M104.6 165.67c-.6-.74-.81-1.54-.86-2.2a.77.77 0 0 0 .53-.92l4.94-.39c.02.09.05.17.09.25-.48.37-1.09.85-1.69 1.33-1.23.99-1.89 1.56-2.25 1.9-.07-.03-.14-.06-.22-.08-.2-.03-.39.01-.54.11M108.28 167.71l-.11-.05a.8.8 0 0 1-.24-.15.3.3 0 0 0-.13-.06c-.86-.2-1.54-.49-2.09-.82.02-.05.04-.11.05-.17.01-.04.01-.08.01-.12.51-.12 1.41-.37 3-.87.8-.25 1.6-.51 2.22-.71.09.25.31.45.59.5.09.02.17.01.26 0l-.1 2.65c-.35.01-.66.26-.73.61-1.17-.29-2.71-.8-2.73-.81" class="st51"/><path d="M112.41 169.13c.09.01.16.03.23.04-.4.26-.63.31-.63.31-.02 0-.04.01-.06.01a.2.2 0 0 1-.03-.05c.2-.04.38-.15.49-.31M111.55 169.52c-1.4.05-2.44-.71-3.05-1.32.55.18 1.66.52 2.55.72.09.26.31.47.6.52 0 0-.04.03-.1.08M102.54 161.64l-1.01-2.6v-.01c1.25-.61 2.45-1.39 3.78-2.59.08-.08.17-.15.24-.23l.03-.04c.27.43.85 1.36 1.65 2.54l-.02.01zM108.36 160.33l-3.52 1.42 2.81-2.41c.22.31.46.64.71.99M105.06 162.09l3.54-1.43c.09.13.19.26.29.39l.24.33.18.24c-.03.04-.05.09-.07.14z" class="st49"/><path d="m115.74 156.27-4.46.41c-.19-.25-.38-.5-.57-.76z" class="st51"/><path d="M115.98 161.99c-1-.98-2.07-2.11-3.15-3.38l4.88-1.96c.03.04.07.08.11.11v.01zM105.69 165.96a.2.2 0 0 0-.04-.06c.34-.31.91-.8 1.6-1.36s1.51-1.21 2.33-1.85c.08.04.16.08.25.1.12.02.24.01.36-.02h.01c.31.4.64.79.97 1.19l-.01.01a.8.8 0 0 0-.2.39c-.96.32-2.03.66-2.98.95s-1.79.53-2.29.65" class="st49"/><path d="M120.52 165.85c-.08-.05-.15-.1-.22-.16l.62-2.1.14 2.16a1 1 0 0 0-.16-.02c-.13.01-.27.05-.38.12" class="st51"/><path d="m112.15 168 .1-2.79v-.03c.37.41.75.82 1.13 1.2l-.01.02zM113.19 168.86c-.03.01-.03.01-.17-.02-.1-.02-.25-.06-.47-.09a.84.84 0 0 0-.11-.47l1.21-1.59.01-.02c.51.5 1.02.97 1.53 1.39.29.24.6.49.93.74h-.01c-.31.01-.63.03-.95.04h-.74c-.22-.3-.28-.56-.28-.56-.24.18-.59.4-.95.58" class="st49"/><path d="M114.82 169.25c.59-.02 1.22-.05 1.77-.08h.02l.57.42h-.02c-1.16.24-1.89 0-2.34-.34" class="st52"/><path d="M102.73 161.99c-.16-.03-.33-.07-.51-.11" class="st44"/><path d="m120.88 160.66-.07.04z" class="st49"/><path d="M107.4 144.42v.01l-.46-.59zM107.9 145.24v-.01l.01-.01z" class="st55"/><path d="M125.13 158.72a1 1 0 0 1-.08-.03l.01-.01c.02.01.04.02.07.04q0-.015 0 0M125.59 157.23c-.02-.01-.04-.01-.06-.01v-.01c.23.04.42.18.53.37-.01-.02-.02-.03-.03-.05 0-.01-.01-.02-.02-.02-.01-.01-.01-.02-.02-.03-.1-.11-.24-.2-.4-.25M124.65 157.76h-.02c.07-.25.26-.44.5-.53v.01c-.22.09-.41.28-.48.52M124.68 158.3l-.01.01a.6.6 0 0 1-.05-.14l.02.01c0 .02.01.03.01.05.01.02.02.04.03.07M125.53 158.75v-.01zv-.01l.01.01zM120.52 165.84v.01h-.01zM118.23 163.54v.06-.08h.01v.01c-.01 0-.01 0-.01.01q0-.015 0 0M118.05 164.02c-.01 0-.01-.01-.01-.01.02-.01.04-.03.05-.04-.01.01-.03.03-.04.05M118.14 163.92c.03-.08.06-.15.07-.24 0-.03.01-.05.01-.08v-.1h.01v.04c0 .15-.03.27-.09.38" class="st50"/><path d="M125.13 158.71c-.03 0-.06-.01-.08-.03l.01-.01c.02.02.04.03.07.04M125.53 158.75v-.01l.01.01z" class="st49"/><path d="M109.63 154.27c.01 0 .02 0 .03-.01l-.47-1.51-1.86-2.38c.04.09.09.17.13.26.06.11.11.22.17.33.01.03.03.06.04.09l.01.01.04.07 1.87 3.14c.02.01.03 0 .04 0M111.27 156.68c-.19-.25-.37-.5-.56-.76l.47.22zM112.54 158.3c-.33-.4-.66-.82-.99-1.25h.02l.95.73.05.51z" class="st51"/><path d="M115.96 162.06c-1.01-1-2.08-2.16-3.16-3.45h.04l2.9 2.69.27.64-.02.05zM116.89 162.96l-.62-.59.03-.07.68-.3v.89c-.01.01-.02.01-.03.02-.02.02-.04.03-.06.05" class="st49"/><path d="M119.92 165.55c-.52-.4-1.16-.91-1.87-1.54-.01 0-.01-.01-.01-.01.02-.01.04-.03.05-.04l.01-.01.04-.04h.01l1.57.36.26 1.11zM120.41 165.92c-.05-.03-.1-.07-.15-.1l.04-.12.19-.09.03.24v.01s-.01 0-.01-.01c-.03.02-.07.04-.1.07M109.6 154.28l-1.87-3.14.09.11 1.33 1.91.48 1.1c-.01.01-.02.02-.03.02" class="st51"/><path d="m112.83 131.81.11-.09z" class="st55"/><path d="M46.7 78.96h.83v1.89h-.83z" class="st14"/><path d="M45.53 79.42h1.34v.77h-1.34zM41.803 80.843h-.74v-1.89h.74z" class="st14"/><path d="M42.847 80.385h-1.19v-.77h1.19z" class="st14"/><path d="M42.31 78.7h3.4v1.97h-3.4z" class="st38"/><path d="M44.74 86.32h3.23v3.23h-3.23zM40.56 86.32h2.99v3.23h-2.99z" class="st1"/><path d="M45.91 86.58h.37v2.55h-.37zM41.94 86.58h.37v2.55h-.37z" class="st3"/><path d="M46.7 87h.83v1.89h-.83z" class="st14"/><path d="M45.53 87.46h1.34v.77h-1.34zM41.803 88.884h-.74v-1.89h.74z" class="st14"/><path d="M42.847 88.426h-1.19v-.77h1.19z" class="st14"/><path d="M42.31 86.74h3.4v1.97h-3.4z" class="st38"/><path d="M111.74 92.95h3.21v3.03h-3.21zM107.58 92.95h2.98v3.03h-2.98zM101.13 92.58h3.96v3.54h-3.96zM96.07 92.58h3.96v3.54h-3.96z" class="st1"/><path d="M112.91 93.2h.36v2.39h-.36zM108.95 93.2h.36v2.39h-.36z" class="st3"/><path d="M113.69 93.59h.83v1.77h-.83z" class="st14"/><path d="M112.53 94.02h1.33v.72h-1.33zM108.82 95.367h-.74v-1.77h.74z" class="st14"/><path d="M109.866 94.937h-1.19v-.72h1.19z" class="st14"/><path d="M109.32 93.35h3.38v1.85h-3.38z" class="st38"/><path d="M57.61 77.84h3.64v3.24h-3.64zM57.61 82.02h3.64v2.82h-3.64zM57.61 85.28h3.64v3.81h-3.64zM57.61 90.34h3.64v3.81h-3.64z" class="st56"/><path d="M58.28 83.05h1.97v1.28h-1.97zM58.28 85.54h2.32v.9h-2.32zM58.28 77.63h1.97v.49h-1.97z" class="st14"/><path d="M58.28 77.63h1.97v1.28h-1.97z" class="st44"/><path d="M58.23 78.98h2.02v4.07h-2.02z" style="fill:#0f0"/><path d="M58.7 82.65h1.2v.47h-1.2z" style="fill:#b6ae3b"/><path d="M57.83 86.36h2.77v1.08h-2.77z" class="st39"/><path d="M58.27 92.79h2.32v.9h-2.32z" class="st14"/><path d="M57.83 91.71h2.77v1.08h-2.77z" class="st39"/><path d="M57.83 87.44h2.87v4.18h-2.87z" style="fill:#1a1c1e"/><path d="M66.09 84.17h3.42v9.26h-3.42z" class="st56"/><path d="M65.55 84.71h4.25v1.49h-4.25zM65.55 90.96h4.25v1.49h-4.25z" class="st39"/><path d="M65.7 86.2h3.99v4.76H65.7z" style="fill:#414141"/><path d="M80.38 28.23h3.35v3.35h-3.35z" class="st13"/><path d="M83.73 27.64h2.66v2.86h-2.66z" class="st37"/><path d="M84.03 29.37h-.42V28.3h.42c.29 0 .53.24.53.53v.01c0 .29-.24.53-.53.53" class="st61"/><path d="M80.61 28.35h3.12v3.04h-3.12z" class="st36"/><path d="M84 29.44h-.4v-.98h.4a.49.49 0 0 1 0 .98" class="st36"/><path d="M80.38 32.16h3.35v3.35h-3.35z" class="st13"/><path d="M83.73 31.58h2.66v2.86h-2.66z" class="st37"/><path d="M84.03 33.31h-.42v-1.07h.42c.29 0 .53.24.53.53v.01c0 .29-.24.53-.53.53" class="st61"/><path d="M80.61 32.29h3.12v3.04h-3.12z" class="st36"/><path d="M84 33.37h-.4v-.97h.4c.27 0 .49.22.49.49 0 .26-.22.48-.49.48" class="st36"/><path d="M80.38 35.92h3.35v3.35h-3.35z" class="st13"/><path d="M83.73 35.33h2.66v2.86h-2.66z" class="st37"/><path d="M84.03 37.06h-.42v-1.07h.42c.29 0 .53.24.53.53v.01c0 .29-.24.53-.53.53" class="st61"/><path d="M80.61 36.04h3.12v3.04h-3.12z" class="st36"/><path d="M84 37.12h-.4v-.98h.4c.27 0 .49.22.49.49 0 .28-.22.49-.49.49" class="st36"/><path d="M80.38 39.69h3.35v3.35h-3.35z" class="st13"/><path d="M83.73 39.1h2.66v2.86h-2.66z" class="st37"/><path d="M84.03 40.83h-.42v-1.07h.42c.29 0 .53.24.53.53v.01c0 .3-.24.53-.53.53" class="st61"/><path d="M80.61 39.81h3.12v3.04h-3.12z" class="st36"/><path d="M84 40.9h-.4v-.98h.4a.49.49 0 0 1 0 .98" class="st36"/><path d="M80.38 43.63h3.35v3.35h-3.35z" class="st13"/><path d="M83.73 43.04h2.66v2.86h-2.66z" class="st37"/><path d="M84.03 44.77h-.42V43.7h.42c.29 0 .53.24.53.53v.01c0 .29-.24.53-.53.53" class="st61"/><path d="M80.61 43.75h3.12v3.04h-3.12z" class="st36"/><path d="M84 44.83h-.4v-.98h.4c.27 0 .49.22.49.49 0 .28-.22.49-.49.49" class="st36"/><path d="M80.38 47.35h3.35v3.19h-3.35z" class="st13"/><path d="M83.73 46.79h2.66v2.73h-2.66z" class="st37"/><path d="M84.05 48.44h-.44v-1.02h.44c.28 0 .51.23.51.51s-.23.51-.51.51" class="st61"/><path d="M80.61 47.47h3.12v2.9h-3.12z" class="st36"/><path d="M84.02 48.5h-.42v-.93h.42c.26 0 .47.21.47.47 0 .25-.21.46-.47.46" class="st36"/><path d="M80.38 51.14h3.35v3.19h-3.35z" class="st13"/><path d="M83.73 50.58h2.66v2.73h-2.66z" class="st37"/><path d="M84.05 52.23h-.44v-1.02h.44c.28 0 .51.23.51.51s-.23.51-.51.51" class="st61"/><path d="M80.61 51.25h3.12v2.9h-3.12z" class="st36"/><path d="M84.02 52.29h-.42v-.93h.42c.26 0 .47.21.47.47 0 .25-.21.46-.47.46" class="st36"/><path d="M80.38 54.71h3.35v3.19h-3.35z" class="st13"/><path d="M83.73 54.15h2.66v2.73h-2.66z" class="st37"/><path d="M84.05 55.8h-.44v-1.02h.44c.28 0 .51.23.51.51 0 .29-.23.51-.51.51" class="st61"/><path d="M80.61 54.83h3.12v2.9h-3.12z" class="st36"/><path d="M84.02 55.87h-.42v-.93h.42c.26 0 .47.21.47.47 0 .25-.21.46-.47.46" class="st36"/><path d="M80.38 58.75h3.35v3.19h-3.35z" class="st13"/><path d="M83.73 58.19h2.66v2.73h-2.66z" class="st37"/><path d="M84.05 59.83h-.44v-1.02h.44c.28 0 .51.23.51.51 0 .29-.23.51-.51.51" class="st61"/><path d="M80.61 58.86h3.12v2.9h-3.12z" class="st36"/><path d="M84.02 59.9h-.42v-.93h.42c.26 0 .47.21.47.47 0 .25-.21.46-.47.46" class="st36"/><path d="M80.38 62.62h3.35v3.19h-3.35z" class="st13"/><path d="M83.73 62.06h2.66v2.73h-2.66z" class="st37"/><path d="M84.05 63.71h-.44v-1.02h.44c.28 0 .51.23.51.51s-.23.51-.51.51" class="st61"/><path d="M80.61 62.74h3.12v2.9h-3.12z" class="st36"/><path d="M84.02 63.77h-.42v-.93h.42c.26 0 .47.21.47.47 0 .25-.21.46-.47.46" class="st36"/><path d="M80.38 66.2h3.35v3.19h-3.35z" class="st13"/><path d="M83.73 65.64h2.66v2.73h-2.66z" class="st37"/><path d="M84.05 67.28h-.44v-1.02h.44c.28 0 .51.23.51.51 0 .29-.23.51-.51.51" class="st61"/><path d="M80.61 66.31h3.12v2.9h-3.12z" class="st36"/><path d="M84.02 67.35h-.42v-.93h.42c.26 0 .47.21.47.47 0 .25-.21.46-.47.46" class="st36"/><path d="M80.38 70.07h3.35v3.19h-3.35z" class="st13"/><path d="M83.73 69.51h2.66v2.73h-2.66z" class="st37"/><path d="M84.05 71.16h-.44v-1.02h.44c.28 0 .51.23.51.51s-.23.51-.51.51" class="st61"/><path d="M80.61 70.19h3.12v2.9h-3.12z" class="st36"/><path d="M84.02 71.22h-.42v-.93h.42c.26 0 .47.21.47.47 0 .25-.21.46-.47.46" class="st36"/><path d="M80.38 73.94h3.35v3.19h-3.35z" class="st13"/><path d="M83.73 73.38h2.66v2.73h-2.66z" class="st37"/><path d="M84.05 75.03h-.44v-1.02h.44c.28 0 .51.23.51.51s-.23.51-.51.51" class="st61"/><path d="M80.61 74.06h3.12v2.9h-3.12z" class="st36"/><path d="M84.02 75.1h-.42v-.93h.42c.26 0 .47.21.47.47 0 .25-.21.46-.47.46" class="st36"/><path d="M80.38 77.92h3.35v3.19h-3.35z" class="st13"/><path d="M83.73 77.36h2.66v2.73h-2.66z" class="st37"/><path d="M84.05 79.01h-.44v-1.02h.44c.28 0 .51.23.51.51s-.23.51-.51.51" class="st61"/><path d="M80.61 78.04h3.12v2.9h-3.12z" class="st36"/><path d="M84.02 79.07h-.42v-.93h.42c.26 0 .47.21.47.47 0 .25-.21.46-.47.46" class="st36"/><path d="M91.59 83.52h3.29v3.19h-3.29z" class="st13"/><path d="M92.33 80.7h2.54v2.82h-2.54z" class="st37"/><path d="M91.72 83.41h3.08v3.2h-3.08z" class="st36"/><path d="M94.56 83.54h-1.92v-.13a.96.96 0 0 1 1.92 0z" class="st36"/><path d="M95.35 83.52h3.29v3.19h-3.29z" class="st13"/><path d="M96.1 80.7h2.54v2.82H96.1z" class="st37"/><path d="M95.49 83.41h3.08v3.2h-3.08z" class="st36"/><path d="M98.33 83.54h-1.92v-.13a.96.96 0 0 1 1.92 0z" class="st36"/><path d="M99.19 83.52h3.29v3.19h-3.29z" class="st13"/><path d="M99.93 80.7h2.54v2.82h-2.54z" class="st37"/><path d="M99.32 83.41h3.08v3.2h-3.08z" class="st36"/><path d="M102.16 83.54h-1.92v-.13a.96.96 0 0 1 1.92 0z" class="st36"/><path d="M103.05 83.52h3.29v3.19h-3.29z" class="st13"/><path d="M103.79 80.7h2.54v2.82h-2.54z" class="st37"/><path d="M103.18 83.41h3.08v3.2h-3.08z" class="st36"/><path d="M106.02 83.54h-1.92v-.13a.96.96 0 0 1 1.92 0z" class="st36"/><path d="M106.81 83.52h3.29v3.19h-3.29z" class="st13"/><path d="M107.55 80.7h2.54v2.82h-2.54z" class="st37"/><path d="M106.94 83.41h3.08v3.2h-3.08z" class="st36"/><path d="M109.78 83.54h-1.92v-.13a.96.96 0 0 1 1.92 0z" class="st36"/><path d="M110.56 83.52h3.29v3.19h-3.29z" class="st13"/><path d="M111.3 80.7h2.54v2.82h-2.54z" class="st37"/><path d="M110.69 83.41h3.08v3.2h-3.08z" class="st36"/><path d="M113.53 83.54h-1.92v-.13a.96.96 0 0 1 1.92 0z" class="st36"/><path d="M114.35 83.52h3.29v3.19h-3.29z" class="st13"/><path d="M115.09 80.7h2.54v2.82h-2.54z" class="st37"/><path d="M114.48 83.41h3.08v3.2h-3.08z" class="st36"/><path d="M117.32 83.54h-1.92v-.13a.96.96 0 0 1 1.92 0z" class="st36"/><path d="M118.09 83.52h3.29v3.19h-3.29z" class="st13"/><path d="M118.83 80.7h2.54v2.82h-2.54z" class="st37"/><path d="M118.22 83.41h3.08v3.2h-3.08z" class="st36"/><path d="M121.06 83.54h-1.92v-.13a.96.96 0 0 1 1.92 0z" class="st36"/><path d="M121.68 83.52h3.29v3.19h-3.29z" class="st13"/><path d="M122.42 80.7h2.54v2.82h-2.54z" class="st37"/><path d="M121.81 83.41h3.08v3.2h-3.08z" class="st36"/><path d="M124.65 83.54h-1.92v-.13a.96.96 0 0 1 1.92 0z" class="st36"/><path d="M125.59 83.52h3.29v3.19h-3.29z" class="st13"/><path d="M126.33 80.7h2.54v2.82h-2.54z" class="st37"/><path d="M125.72 83.41h3.08v3.2h-3.08z" class="st36"/><path d="M128.56 83.54h-1.92v-.13a.96.96 0 0 1 1.92 0z" class="st36"/><path d="M135.12 28.26h2.14v2.62h-2.14z" class="st37"/><path d="M137.23 28.71h2.47V32h-2.47z" class="st37"/><path d="M137.47 28.9h1.98v2.94h-1.98z" class="st36"/><path d="M136.97 30.47h.78V28.9h-.78c-.43 0-.78.35-.78.78 0 .44.35.79.78.79" class="st36"/><path d="M135.12 32h2.14v2.62h-2.14z" class="st37"/><path d="M137.23 32.46h2.47v3.29h-2.47z" class="st37"/><path d="M137.47 32.65h1.98v2.94h-1.98z" class="st36"/><path d="M136.97 34.21h.78v-1.56h-.78a.781.781 0 0 0 0 1.56" class="st36"/><path d="M135.12 35.87h2.14v2.62h-2.14z" class="st37"/><path d="M137.23 36.32h2.47v3.29h-2.47z" class="st37"/><path d="M137.47 36.51h1.98v2.94h-1.98z" class="st36"/><path d="M136.97 38.08h.78v-1.56h-.78a.781.781 0 0 0 0 1.56" class="st36"/><path d="M135.12 39.89h2.14v2.62h-2.14z" class="st37"/><path d="M137.23 40.34h2.47v3.29h-2.47z" class="st37"/><path d="M137.47 40.53h1.98v2.94h-1.98z" class="st36"/><path d="M136.97 42.09h.78v-1.56h-.78a.781.781 0 0 0 0 1.56" class="st36"/><path d="M135.12 43.53h2.14v2.62h-2.14z" class="st37"/><path d="M137.23 43.98h2.47v3.29h-2.47z" class="st37"/><path d="M137.47 44.17h1.98v2.94h-1.98z" class="st36"/><path d="M136.97 45.73h.78v-1.56h-.78a.781.781 0 0 0 0 1.56" class="st36"/><path d="M135.12 47.27h2.14v2.62h-2.14z" class="st37"/><path d="M137.23 47.73h2.47v3.29h-2.47z" class="st37"/><path d="M137.47 47.92h1.98v2.94h-1.98z" class="st36"/><path d="M136.97 49.48h.78v-1.56h-.78a.781.781 0 0 0 0 1.56" class="st36"/><path d="M135.12 50.98h2.14v2.62h-2.14z" class="st37"/><path d="M137.23 51.43h2.47v3.29h-2.47z" class="st37"/><path d="M137.47 51.62h1.98v2.94h-1.98z" class="st36"/><path d="M136.97 53.19h.78v-1.56h-.78a.781.781 0 0 0 0 1.56" class="st36"/><path d="M135.12 54.73h2.14v2.62h-2.14z" class="st37"/><path d="M137.23 55.18h2.47v3.29h-2.47z" class="st37"/><path d="M137.47 55.37h1.98v2.94h-1.98z" class="st36"/><path d="M136.97 56.93h.78v-1.56h-.78a.781.781 0 0 0 0 1.56" class="st36"/><path d="M135.12 58.69h2.14v2.62h-2.14z" class="st37"/><path d="M137.23 59.14h2.47v3.29h-2.47z" class="st37"/><path d="M137.47 59.33h1.98v2.94h-1.98z" class="st36"/><path d="M136.97 60.89h.78v-1.56h-.78a.781.781 0 0 0 0 1.56" class="st36"/><path d="M135.12 62.43h2.14v2.62h-2.14z" class="st37"/><path d="M137.23 62.88h2.47v3.29h-2.47z" class="st37"/><path d="M137.47 63.07h1.98v2.94h-1.98z" class="st36"/><path d="M136.97 64.64h.78v-1.56h-.78a.781.781 0 0 0 0 1.56" class="st36"/><path d="M135.12 66.18h2.14v2.62h-2.14z" class="st37"/><path d="M137.23 66.63h2.47v3.29h-2.47z" class="st37"/><path d="M137.47 66.82h1.98v2.94h-1.98z" class="st36"/><path d="M136.97 68.38h.78v-1.56h-.78a.781.781 0 0 0 0 1.56" class="st36"/><path d="M135.12 70.08h2.14v2.62h-2.14z" class="st37"/><path d="M137.23 70.53h2.47v3.29h-2.47z" class="st37"/><path d="M137.47 70.72h1.98v2.94h-1.98z" class="st36"/><path d="M136.97 72.29h.78v-1.56h-.78a.781.781 0 0 0 0 1.56" class="st36"/><path d="M135.12 73.83h2.14v2.62h-2.14z" class="st37"/><path d="M137.23 74.28h2.47v3.29h-2.47z" class="st37"/><path d="M137.47 74.47h1.98v2.94h-1.98z" class="st36"/><path d="M136.97 76.03h.78v-1.56h-.78a.781.781 0 0 0 0 1.56" class="st36"/><path d="M135.12 77.57h2.14v2.62h-2.14z" class="st37"/><path d="M137.23 78.02h2.47v3.29h-2.47z" class="st37"/><path d="M137.47 78.21h1.98v2.94h-1.98z" class="st36"/><path d="M136.97 79.78h.78v-1.56h-.78a.781.781 0 0 0 0 1.56" class="st36"/><path d="M132.09 25.6H90.35c-1.67 0-3.03 1.35-3.03 3.03v48.54c0 1.67 1.35 3.03 3.03 3.03h41.74c1.67 0 3.03-1.35 3.03-3.03V28.63c0-1.67-1.36-3.03-3.03-3.03M94.04 74.28c-.87 0-1.58-.71-1.58-1.58s.71-1.58 1.58-1.58 1.58.71 1.58 1.58-.71 1.58-1.58 1.58" class="st3"/><path d="M136.88 97.01h2.9v3.28h-2.9zM128.5 99.65h4.18v3.48h-4.18z" class="st62"/><path d="M128.76 100.01h3.93v2.39h-3.93z" class="st20"/><path d="M130.81 100.44h2.1v1.52h-2.1z" class="st44"/><path d="M128.5 94.11h4.18v3.48h-4.18z" class="st62"/><path d="M128.76 94.48h3.93v2.39h-3.93z" class="st20"/><path d="M130.81 94.9h2.1v1.52h-2.1z" class="st44"/><path d="M136.88 97.4h2.54v2.54h-2.54z" class="st20"/><path d="M136.75 97.91h1.65v1.52h-1.65z" class="st44"/><path d="M122.81 94.16h3.29v1.82h-3.29z" class="st62"/><path d="M122.81 95.53h.39v2.38h-.39z" class="st62"/><path d="M123.2 95.43h3.31v.86h-3.31z" class="st44"/><path d="M123.2 94.62h2.5v.81h-2.5z" class="st20"/><path d="M122.81 101.06h3.29v1.82h-3.29z" class="st62"/><path d="M122.81 99.14h.39v2.38h-.39z" class="st62"/><path d="M123.2 100.76h3.31v.86h-3.31z" class="st44"/><path d="M123.2 101.62h2.5v.81h-2.5z" class="st20"/><path d="M124.02 96.91h1.68v.55h-1.68z" class="st44"/><path d="M124.02 96.92h.43v1.83h-.43zM125.28 96.91h.46v1.84h-.46zM124.02 100.01h1.68v.47h-1.68z" class="st44"/><path d="M124.02 99.1h.43v1.38h-.43zM125.28 99.1h.46v1.38h-.46z" class="st44"/><path d="M96.49 92.95h7.81v2.75h-7.81z" class="st14"/><path d="M97.71 92.87h.83v3.04h-.83zM102.65 92.87h.94v2.96h-.94z" class="st63"/><path d="M66.74 106.07h-12.8v-4.87h12.8c.26 0 .47.21.47.47v3.93c0 .26-.21.47-.47.47" class="st56"/><path d="M98.93 92.95h3.23v2.96h-3.23z" style="fill:#1a1b17"/><circle cx="56.85" cy="12.42" r=".29" class="st13"/><circle cx="56.85" cy="18.18" r=".29" class="st13"/><circle cx="28.84" cy="33.61" r=".29" class="st13"/><circle cx="33.24" cy="35.81" r=".29" class="st13"/><circle cx="32.18" cy="38.93" r=".29" class="st13"/><circle cx="23.44" cy="38.64" r=".29" class="st13"/><circle cx="23.73" cy="48.86" r=".29" class="st13"/><circle cx="21.09" cy="53.04" r=".29" class="st13"/><circle cx="19.48" cy="60.5" r=".29" class="st13"/><circle cx="17.09" cy="69.09" r=".29" class="st13"/><circle cx="20.06" cy="71.58" r=".29" class="st13"/><circle cx="19.48" cy="103.34" r=".29" class="st13"/><circle cx="28.52" cy="112.94" r=".29" class="st13"/><circle cx="23.83" cy="120.83" r=".29" class="st13"/><circle cx="33.19" cy="189.38" r=".29" class="st13"/><circle cx="118.8" cy="195.29" r=".29" class="st13"/><circle cx="17.09" cy="53.06" r=".29" class="st13"/><circle cx="35.82" cy="41.01" r=".29" class="st13"/><circle cx="36.6" cy="33.61" r=".29" class="st13"/><circle cx="39.73" cy="33.9" r=".29" class="st13"/><circle cx="45.69" cy="33.89" r=".29" class="st13"/><circle cx="50" cy="33.89" r=".29" class="st13"/><circle cx="50.93" cy="40.53" r=".29" class="st13"/><circle cx="64.49" cy="12.42" r=".29" class="st13"/><circle cx="72.16" cy="12.42" r=".29" class="st13"/><circle cx="81.47" cy="12.42" r=".29" class="st13"/><circle cx="81.47" cy="18.48" r=".29" class="st13"/><circle cx="121.28" cy="23.79" r=".29" class="st13"/><circle cx="127.85" cy="23.79" r=".29" class="st13"/><circle cx="81.47" cy="24.38" r=".29" class="st13"/><circle cx="77.25" cy="29.68" r=".29" class="st13"/><circle cx="78.79" cy="40.53" r=".29" class="st13"/><circle cx="78.79" cy="52.8" r=".29" class="st13"/><circle cx="70.94" cy="61.47" r=".29" class="st13"/><circle cx="56.45" cy="67.41" r=".29" class="st13"/><circle cx="56.35" cy="72.62" r=".29" class="st13"/><circle cx="75.25" cy="63.92" r=".29" class="st13"/><circle cx="78.79" cy="68.05" r=".29" class="st13"/><circle cx="65.41" cy="79.3" r=".29" class="st13"/><circle cx="93.75" cy="89.83" r=".29" class="st13"/><circle cx="126.33" cy="89.09" r=".29" class="st13"/><circle cx="136.75" cy="91.62" r=".29" class="st13"/><circle cx="139.99" cy="88.26" r=".29" class="st13"/><circle cx="137.26" cy="84.01" r=".29" class="st13"/><circle cx="142.98" cy="77.57" r=".29" class="st13"/><circle cx="148.66" cy="68.2" r=".29" class="st13"/><circle cx="142.03" cy="56.44" r=".29" class="st13"/><circle cx="152.02" cy="57.35" r=".29" class="st13"/><circle cx="148" cy="89.38" r=".29" class="st13"/><circle cx="145.29" cy="93.82" r=".29" class="st13"/><circle cx="138.89" cy="105.1" r=".29" class="st13"/><circle cx="136.75" cy="107.37" r=".29" class="st13"/><circle cx="121.96" cy="116.5" r=".29" class="st13"/><circle cx="143.79" cy="124.04" r=".29" class="st13"/><circle cx="136.58" cy="131.44" r=".29" class="st13"/><circle cx="144.84" cy="135.71" r=".29" class="st13"/><circle cx="145.13" cy="153.92" r=".29" class="st13"/><circle cx="141.58" cy="164.65" r=".29" class="st13"/><circle cx="148.94" cy="154.74" r=".29" class="st13"/><circle cx="143.79" cy="106.64" r=".29" class="st13"/><circle cx="149.09" cy="105.1" r=".29" class="st13"/><path d="M54.75 100.86h11.58v5.61H54.75z" class="st65"/><path d="M57.23 100.81h6.73v5.68h-6.73z" style="fill:#d0afa9"/><path d="M52.88 99.58h.79v7.84h-.79z" class="st65"/><path d="M53.41 99.58h4.52v.67h-4.52zM53.41 106.8h4.52v.62h-4.52z" class="st65"/><path d="M65.81 100.25c.32 0 .63.07.91.18a2.2 2.2 0 0 0-.91-.18M68.16 102.6c0-.32-.07-.63-.18-.91.12.27.18.58.18.91M67.98 101.68" class="st67"/><path d="M66.13 99.58h-2.58v.67h2.27c.32 0 .63.07.91.18.56.24 1.01.69 1.25 1.25.12.28.18.59.18.91v2.11c0 1.3-1.05 2.35-2.35 2.35h-2.27v.67h2.58a2.77 2.77 0 0 0 2.77-2.77v-2.62c.01-1.51-1.23-2.75-2.76-2.75" class="st65"/><path d="M63.76 100.25h-.22v.22c0-.12.1-.22.22-.22" class="st67"/><text class="st3 st68 st69" transform="translate(56.544 27.36)">AMS1117</text><text class="st3 st68" style="font-size:5.3118px" transform="translate(67.997 45.19)">D1</text><text class="st3 st68 st69" transform="translate(54.748 39.079)">1</text><text class="st3 st68 st69" transform="translate(61.565 39.079)">2</text><text class="st3 st68 st69" transform="translate(68.528 39.079)">3</text><text class="st3 st68" style="font-size:5.5259px" transform="translate(141.736 46.25)">O2</text><path d="M99.42 41.2h-7.1c-1.6 0-2.9-1.3-2.9-2.9v-.46c0-1.6 1.3-2.9 2.9-2.9h7.1c1.6 0 2.9 1.3 2.9 2.9v.46a2.89 2.89 0 0 1-2.9 2.9" class="st72"/><path d="M96.45 42.51h-.63c-1.93 0-3.5-1.57-3.5-3.5v-1.88c0-1.93 1.57-3.5 3.5-3.5h.63c1.93 0 3.5 1.57 3.5 3.5v1.88c0 1.93-1.57 3.5-3.5 3.5" class="st72"/><path d="M96.48 40.29h3.08c1.04 0 1.89-.84 1.89-1.89v-.72c0-1.04-.84-1.89-1.89-1.89h-1.2c-1.04 0-1.89.84-1.89 1.89v2.61z" class="st3"/><text class="st3 st68 st73" transform="matrix(1.1035 0 0 1 91.147 39.27)">WI</text><text class="st72 st68 st73" transform="matrix(1.1035 0 0 1 97.304 39.27)">FI</text><text class="st72 st68" style="font-size:4.256px" transform="translate(102.72 39.867)">ESP-WROOM-32</text><text class="st72 st68" style="font-size:7.2532px" transform="translate(100.714 49.263)">1313</text><path d="M97.19 46.97c0-1.12-.91-2.03-2.03-2.03V49c1.12 0 2.03-.91 2.03-2.03M93.13 46.97c0 1.12.91 2.03 2.03 2.03v-4.06c-1.12 0-2.03.91-2.03 2.03" class="st67"/><path d="M95.16 49c-1.12 0-2.03-.91-2.03-2.03s.91-2.03 2.03-2.03v-.77c-1.55 0-2.8 1.26-2.8 2.8s1.26 2.8 2.8 2.8zM99.6 49c-1.12 0-2.03-.91-2.03-2.03s.91-2.03 2.03-2.03v-.77c-1.55 0-2.8 1.26-2.8 2.8s1.26 2.8 2.8 2.8z" class="st72"/><path d="M97.31 46.63h2.29v.79h-2.29zM124.34 42.29c-.18-.04-.38.04-.57.11-.13.13-.31.26-.07.42.37.24 4.64 1.51 5.5 5.89 0 0 .39.61.64-.23.02-.19.05-.39.03-.58-.35-3.09-2.21-4.85-5.53-5.61" class="st72"/><path d="M121.1 43.41s2.83-.6 5.59 2.33c2.76 2.94 2.03 5.25 2.03 5.25s-.07 1.25-1.3.94c0 0 .45-3.01-1.89-5.18-2.15-2-4.66-1.95-5.06-1.9 0-.01-.64-.84.63-1.44" class="st72"/><path d="M124.78 53.48s1.47.11 1.67-.78c.19-.88.38-3.44-1.67-5.29s-4.55-2.42-5.55-1.26c-1.01 1.15-.73 2.73.26 3.22 0 0 2.22-.24 3.01 1.38.79 1.61-.55 2.15-.55 2.15s1.13 1.36 1.94 0c.88-1.46-.16-4.16-2.42-4.71 0 0-1.52.04-.77-.71s2.98.73 3.38 1.4c.4.65 1.18 1.3.7 4.6" class="st72"/><circle cx="120.93" cy="51.18" r=".86" class="st72"/><path d="M124.47 54.15c-3.52 0-6.39-2.87-6.39-6.39 0-1.62.61-3.09 1.6-4.21l-.29-.29a6.76 6.76 0 0 0-1.72 4.51c0 3.75 3.05 6.8 6.8 6.8 1.73 0 3.3-.65 4.51-1.72l-.29-.29a6.4 6.4 0 0 1-4.22 1.59M96.45 57.14v-1.69l-3.81.82-.18-.81 4.82-1.03v1.54l3.4-1.21.27.78z" class="st72"/><path d="M96.87 52.64c-2.38 0-4.32 1.89-4.32 4.21s1.94 4.21 4.32 4.21 4.32-1.89 4.32-4.21c0-.46-.08-.89-.22-1.31l-3.43 1.22 3.43-1.22c-.57-1.68-2.19-2.9-4.1-2.9" class="st67"/><path d="M100.97 55.54c-.57-1.68-2.19-2.9-4.1-2.9-2.38 0-4.32 1.89-4.32 4.21s1.94 4.21 4.32 4.21c1.79 0 3.33-1.07 3.98-2.58h-.2.2c.22-.5.33-1.05.33-1.62q0-.705-.21-1.32" class="st67"/><path d="M100.85 58.47c-.65 1.52-2.19 2.58-3.98 2.58-2.38 0-4.32-1.89-4.32-4.21s1.94-4.21 4.32-4.21c1.91 0 3.54 1.22 4.1 2.9l.77-.28c-.68-2-2.61-3.45-4.88-3.45-2.83 0-5.14 2.26-5.14 5.03s2.31 5.03 5.14 5.03c2.25 0 4.17-1.43 4.86-3.41h-.87z" class="st72"/><text class="st3 st68 st76" transform="translate(16.503 198.057)">32</text><text class="st3 st68 st76" transform="translate(16.503 190.65)">33</text><text class="st3 st68 st76" transform="translate(16.503 182.76)">34</text><text class="st3 st68 st76" transform="translate(16.503 175.298)">35</text><text class="st3 st68 st76" transform="translate(16.503 167.747)">25</text><text class="st3 st68 st76" transform="translate(16.503 160.037)">26</text><text class="st3 st68 st76" transform="translate(16.503 145.082)">VCC</text><text class="st3 st68 st76" transform="translate(16.503 137.849)">GND</text><text class="st3 st68 st76" transform="translate(16.503 130.418)">GND</text><text class="st3 st68 st76" transform="translate(16.94 122.066)">5V</text><text class="st3 st68 st76" transform="translate(17.125 114.633)">3.3V</text><text class="st3 st68 st76" transform="translate(17.568 107.42)">RST</text><text class="st3 st68 st76" transform="translate(16.503 99.911)">10REF</text><text class="st3 st68" style="font-size:3.3369px" transform="translate(142.686 87.332)">GND</text><text class="st3 st68 st78" transform="translate(144.993 94.969)">18</text><text class="st3 st68 st78" transform="translate(144.993 102.426)">19</text><text class="st3 st68 st78" transform="translate(145.443 109.846)">23</text><text class="st3 st68 st78" transform="translate(146.77 117.54)">5</text><text class="st3 st68 st78" transform="translate(145.205 124.962)">13</text><text class="st3 st68 st78" transform="translate(145.205 132.52)">14</text><text class="st3 st68 st78" transform="translate(144.837 143.088)">15</text><text class="st3 st68 st78" transform="translate(144.837 150.645)">16</text><text class="st3 st68 st78" transform="translate(144.837 157.852)">17</text><text class="st3 st68 st78" transform="translate(146.36 165.154)">4</text><text class="st3 st68 st78" transform="translate(146.36 174.105)">2</text><text class="st3 st68 st78" transform="translate(146.36 181.394)">0</text><text class="st3 st68 st78" transform="translate(142.002 189.196)">TXO</text><text class="st3 st68 st78" transform="translate(142.686 197.323)">RXI</text><text class="st3 st68" style="font-size:5.9539px" transform="translate(45.487 119.78)">IC1</text><path d="M19.55 123.68h8.21v66.82h-8.21z" class="st26"/><path d="M21.58 126.03h4.09v4.06h-4.09z" class="st27"/><path d="M22.77 127.38h2.11v2.16h-2.11z" class="st28"/><path d="M24.01 128.06h.84v.83h-.84z" class="st29"/><path d="M21.58 134.34h4.09v4.06h-4.09z" class="st27"/><path d="M22.77 135.69h2.11v2.16h-2.11z" class="st28"/><path d="M24.01 136.37h.84v.83h-.84z" class="st29"/><path d="M21.58 142.65h4.09v4.06h-4.09z" class="st27"/><path d="M22.77 144h2.11v2.16h-2.11z" class="st28"/><path d="M24.01 144.68h.84v.83h-.84z" class="st29"/><path d="M21.58 150.99h4.09v4.06h-4.09z" class="st27"/><path d="M22.77 152.34h2.11v2.16h-2.11z" class="st28"/><path d="M24.01 153.02h.84v.83h-.84z" class="st29"/><path d="M21.58 159.49h4.09v4.06h-4.09z" class="st27"/><path d="M22.77 160.85h2.11v2.16h-2.11z" class="st28"/><path d="M24.01 161.52h.84v.83h-.84z" class="st29"/><path d="M21.58 167.75h4.09v4.06h-4.09z" class="st27"/><path d="M22.77 169.1h2.11v2.16h-2.11z" class="st28"/><path d="M24.01 169.78h.84v.83h-.84z" class="st29"/><path d="M21.58 175.85h4.09v4.06h-4.09z" class="st27"/><path d="M22.77 177.21h2.11v2.16h-2.11z" class="st28"/><path d="M24.01 177.89h.84v.83h-.84z" class="st29"/><path d="M21.58 184.57h4.09v4.06h-4.09z" class="st27"/><path d="M22.77 185.93h2.11v2.16h-2.11z" class="st28"/><path d="M24.01 186.61h.84v.83h-.84z" class="st29"/><text class="st72" style="font-family:&quot;NexaBold&quot;;font-size:3.788px" transform="translate(104.893 58.698)">R</text><path d="M94.04 57.26h5.52v.64h-5.52zM94.04 58.53h5.52v.64h-5.52z" class="st72"/><path d="M96.46 59.07h.84v1.41h-.84zM96.1 57.91h.37v.63h-.37z" class="st72"/><path d="M103.61 55.28h5.24v4.5h-5.24z" style="fill:none;stroke:#c7c7c7;stroke-miterlimit:10"/><text class="st72 st68" style="font-size:3.9767px" transform="translate(111.02 59.492)">211-161007</text><text class="st72 st68" style="font-size:3.9858px" transform="matrix(.8332 0 0 1 91.147 66.003)">FCC ID:2AC71-ESPWROOM32</text><text class="st68" style="fill:#fefe7d;font-size:6.3143px" transform="matrix(-.6584 0 0 -1 68.295 52.751)">DK</text><text class="st37 st68" style="font-size:3.7806px" transform="rotate(180 34.148 23.988)">45R10</text></svg>