<?xml version="1.0" encoding="UTF-8"?>
<svg width="66.863" height="91.588" version="1.1" viewBox="0 0 17.691 24.233" xmlns="http://www.w3.org/2000/svg">
<g transform="matrix(.8845 0 0 .8845 -3.2247e-5 0)">
<path d="m0.034 26.074v-1.196h0.824c0.929 0 1.154-0.071 1.335-0.421 0.218-0.422 0.103-0.929-0.26-1.151-0.191-0.117-0.345-0.137-1.061-0.137h-0.838v-1.23h0.837c0.716 0 0.87-0.02 1.061-0.137 0.363-0.222 0.478-0.729 0.26-1.151-0.181-0.35-0.406-0.421-1.335-0.421h-0.823v-1.094h0.754c0.838 0 1.118-0.078 1.353-0.377 0.204-0.259 0.204-0.764 0-1.023-0.235-0.299-0.515-0.377-1.353-0.377h-0.754v-1.094l0.837-1e-3c0.528-1e-3 0.898-0.032 1.002-0.085 0.403-0.207 0.55-0.756 0.321-1.199-0.182-0.352-0.406-0.423-1.336-0.423h-0.824v-1.094h1.79l0.232-0.232a0.6 0.6 0 0 0 0.232-0.55c0-0.175-0.048-0.411-0.107-0.525-0.163-0.315-0.455-0.401-1.36-0.401h-0.787v-1.162l0.666-2e-3c0.862-2e-3 1.166-0.075 1.401-0.338 0.147-0.164 0.188-0.278 0.188-0.52 0-0.724-0.309-0.918-1.463-0.918h-0.792v-1.162l0.859 5e-3c0.922 6e-3 1.077-0.039 1.297-0.376 0.14-0.213 0.143-0.644 8e-3 -0.906-0.176-0.34-0.467-0.431-1.371-0.431h-0.793v-1.094h0.701c0.851-1e-3 1.15-0.076 1.38-0.349 0.204-0.243 0.238-0.698 0.076-1.012-0.167-0.324-0.469-0.416-1.363-0.416h-0.794v-0.82h4.428l-0.129 0.254c-0.096 0.189-0.129 0.399-0.129 0.822 0 0.693 0.111 0.992 0.441 1.186l0.243 0.143v2.234l-0.182 0.089c-0.38 0.186-0.467 0.407-0.467 1.177 0 0.779 0.077 1.013 0.387 1.173 0.481 0.249 1.044-0.013 1.125-0.525 0.036-0.224 0.069-0.267 0.205-0.267 0.16 0 0.162 8e-3 0.162 0.723 0 1.017 0.163 0.962 0.19-0.028l0.019-0.695h0.542v0.723c0 1.043 0.148 0.882 0.161-8e-3l0.01-0.681 0.726-0.042-0.013 0.701c-0.019 1.044 0.142 0.991 0.142 0.03v-0.723h0.678l0.019 0.695c0.028 0.99 0.19 1.045 0.19 0.028v-0.723h0.678l0.019 0.695c0.028 0.99 0.19 1.045 0.19 0.028v-0.723h0.41v0.718c0 1.066 0.205 1.066 0.205 0v-0.718h0.546v0.718c0 1.066 0.205 1.066 0.205 0v-0.718h0.684v0.723c0 1.017 0.163 0.962 0.19-0.028l0.019-0.695h0.678v0.723c0 1.058 0.167 0.923 0.181-0.012l0.01-0.678 0.698-0.042v0.727c0 1.055 0.148 0.878 0.161-4e-3l0.01-0.681 0.29-0.021c0.285-0.021 0.29-0.017 0.29 0.195 0 0.154 0.066 0.282 0.232 0.448 0.19 0.19 0.284 0.232 0.519 0.232s0.329-0.042 0.519-0.232l0.232-0.232v-0.778c0-0.854-0.05-0.998-0.414-1.186l-0.201-0.104v-2.244l0.201-0.104c0.362-0.187 0.414-0.334 0.414-1.166 0-0.56-0.026-0.792-0.1-0.89-0.055-0.073-0.101-0.156-0.103-0.184s0.997-0.051 2.219-0.051h2.221v0.82h-0.844c-0.766 0-0.866 0.015-1.076 0.156-0.273 0.184-0.449 0.607-0.375 0.902 0.027 0.107 0.152 0.297 0.277 0.423l0.228 0.228h1.79v1.23h-0.844c-0.766 0-0.866 0.015-1.076 0.156-0.273 0.184-0.449 0.607-0.375 0.902 0.027 0.107 0.152 0.297 0.277 0.423l0.228 0.228h1.79v1.094l-0.769 2e-3c-0.6 1e-3 -0.83 0.029-1.047 0.128-0.484 0.22-0.64 0.819-0.334 1.285 0.184 0.28 0.494 0.363 1.363 0.363h0.788v1.082l-0.917 0.022c-0.863 0.021-0.928 0.032-1.095 0.189-0.38 0.357-0.378 0.951 3e-3 1.31 0.163 0.153 0.233 0.165 1.092 0.186l0.917 0.022v1.082h-1.79l-0.227 0.227c-0.416 0.416-0.36 1.052 0.117 1.343 0.194 0.118 0.344 0.138 1.063 0.138h0.837v1.23h-1.79l-0.228 0.228c-0.126 0.126-0.25 0.316-0.277 0.423-0.074 0.295 0.102 0.718 0.375 0.902 0.211 0.141 0.311 0.156 1.076 0.156h0.844v1.162h-1.79l-0.228 0.228c-0.126 0.126-0.25 0.316-0.277 0.423-0.074 0.295 0.102 0.718 0.375 0.902 0.211 0.141 0.311 0.156 1.076 0.156h0.844v1.162h-1.79l-0.228 0.228c-0.126 0.126-0.25 0.316-0.277 0.423-0.074 0.295 0.102 0.718 0.375 0.902 0.211 0.141 0.311 0.156 1.076 0.156h0.844v2.392h-19.952zm0.257-1.523c0.369-0.322 0.397-0.618 0.092-0.953-0.109-0.119-0.218-0.196-0.243-0.171s-0.026-5e-3 -2e-3 -0.066c0.037-0.095 0.16-0.11 0.847-0.1 0.864 0.012 0.956 0.044 1.138 0.396a0.77 0.77 0 0 1-6e-3 0.746c-0.161 0.312-0.48 0.407-1.357 0.405l-0.76-2e-3zm1.605-0.155c0.235-0.255 0.238-0.473 0.011-0.743-0.237-0.281-0.609-0.294-0.873-0.03-0.212 0.212-0.232 0.47-0.061 0.769 0.196 0.341 0.61 0.343 0.923 5e-3zm-0.761 0.021a0.67 0.67 0 0 1-0.186-0.337c-0.034-0.176-8e-3 -0.252 0.133-0.393a0.46 0.46 0 0 1 0.685-0.034c0.131 0.103 0.18 0.205 0.18 0.371 0 0.415-0.497 0.655-0.812 0.393zm17.146 0.29c-0.326-0.11-0.478-0.334-0.478-0.708 0-0.242 0.042-0.366 0.176-0.522 0.176-0.204 0.179-0.205 1.025-0.229 0.937-0.027 0.991 2e-3 0.63 0.324-0.176 0.157-0.217 0.245-0.212 0.448 7e-3 0.259 0.176 0.517 0.339 0.517 0.051 0 0.092 0.054 0.092 0.12 0 0.106-0.079 0.12-0.675 0.123-0.371 2e-3 -0.775-0.031-0.897-0.072zm0.735-0.342c0.214-0.229 0.198-0.512-0.042-0.742-0.163-0.156-0.248-0.185-0.511-0.171-0.174 9e-3 -0.303 0.029-0.287 0.045s-0.031 0.093-0.104 0.171c-0.244 0.261-0.146 0.643 0.223 0.867 0.246 0.149 0.471 0.096 0.721-0.17zm-0.815-0.035c-0.166-0.166-0.198-0.244-0.163-0.393 0.124-0.525 0.812-0.58 0.987-0.078 0.085 0.243 0.024 0.406-0.212 0.572-0.223 0.156-0.38 0.131-0.612-0.101zm1.726 0.372c3e-3 -0.08 0.019-0.096 0.041-0.041 0.02 0.049 0.017 0.108-5e-3 0.131s-0.039-0.018-0.036-0.09zm-19.893-0.678c0-0.559 0.046-0.61 0.311-0.345 0.214 0.214 0.214 0.476 0 0.69-0.265 0.265-0.311 0.215-0.311-0.345zm19.646 0.345c-0.213-0.213-0.221-0.529-0.018-0.718 0.271-0.252 0.329-0.186 0.329 0.373s-0.046 0.61-0.311 0.345zm0.248-1.034c3e-3 -0.08 0.019-0.096 0.041-0.041 0.02 0.049 0.017 0.108-5e-3 0.131s-0.039-0.018-0.036-0.09zm-1.544-1.463c0.024-0.039-3e-3 -0.05-0.063-0.027s-0.186-0.041-0.311-0.166c-0.174-0.174-0.206-0.259-0.204-0.536 2e-3 -0.343 0.139-0.617 0.268-0.537 0.041 0.025 0.066 9e-3 0.056-0.035-0.027-0.117 0.161-0.152 0.989-0.183 0.814-0.031 0.867 2e-3 0.516 0.315-0.176 0.157-0.217 0.245-0.212 0.448 7e-3 0.259 0.176 0.517 0.339 0.517 0.051 0 0.092 0.062 0.092 0.137 0 0.128-0.046 0.137-0.756 0.137-0.481 0-0.741-0.025-0.714-0.068zm0.274-0.069c-0.023-0.038 0.031-0.096 0.121-0.13 0.322-0.123 0.493-0.588 0.304-0.831-0.284-0.367-0.653-0.398-0.969-0.081s-0.187 0.726 0.293 0.969c0.313 0.159 0.301 0.155 0.251 0.074zm-0.397-0.275c-0.237-0.187-0.281-0.361-0.152-0.609 0.116-0.224 0.346-0.318 0.616-0.25 0.199 0.05 0.402 0.4 0.342 0.589-0.053 0.166-0.356 0.408-0.512 0.408-0.065 0-0.197-0.062-0.294-0.138zm1.667 0.304c3e-3 -0.08 0.019-0.096 0.041-0.041 0.02 0.049 0.017 0.108-5e-3 0.131s-0.039-0.018-0.036-0.09zm-19.794-0.034c-0.025-0.04-0.034-0.081-0.021-0.091l0.246-0.171c0.178-0.123 0.222-0.2 0.222-0.39 0-0.251-0.168-0.574-0.299-0.574-0.043 0-0.114-0.058-0.159-0.129-0.077-0.123-0.047-0.129 0.662-0.14 0.861-0.013 1.164 0.078 1.329 0.397 0.186 0.36 0.121 0.701-0.191 0.999-0.123 0.118-0.251 0.139-0.943 0.154-0.513 0.011-0.817-9e-3 -0.846-0.055zm1.783-0.37c0.092-0.121 0.168-0.272 0.168-0.335 0-0.301-0.505-0.722-0.741-0.617-0.062 0.028-0.134 0.053-0.158 0.056s-0.117 0.084-0.206 0.18c-0.134 0.145-0.154 0.219-0.117 0.444 0.028 0.172 0.016 0.292-0.033 0.328s-0.034 0.044 0.04 0.02c0.065-0.021 0.135-9e-3 0.157 0.027 0.055 0.089 0.45 0.186 0.6 0.148 0.068-0.017 0.198-0.13 0.29-0.251zm-0.795 0.041c-0.338-0.273-0.121-0.897 0.312-0.897a0.55 0.55 0 0 1 0.514 0.513c0 0.423-0.495 0.653-0.826 0.385zm18.559 0.028c-0.213-0.213-0.221-0.529-0.018-0.718 0.271-0.252 0.329-0.186 0.329 0.373s-0.046 0.61-0.311 0.345zm-19.647-0.412c0-0.559 0.046-0.61 0.311-0.345 0.214 0.214 0.214 0.476 0 0.69-0.265 0.265-0.311 0.215-0.311-0.345zm0.068-2.121c0-0.058 0.054-0.125 0.12-0.15 0.172-0.066 0.354-0.303 0.357-0.466a0.43 0.43 0 0 1 0.088-0.238c0.047-0.054 0.062-0.08 0.034-0.059-0.049 0.037-0.598-0.438-0.598-0.517 0-0.02 0.341-0.037 0.759-0.037 0.923 0 1.279 0.124 1.232 0.427-4e-3 0.028 0.023 0.051 0.06 0.051s0.068 0.113 0.068 0.252c0 0.31-0.256 0.722-0.423 0.68-0.063-0.016-0.132 0.014-0.152 0.066-0.028 0.073-0.21 0.095-0.79 0.095-0.631 0-0.754-0.017-0.754-0.105zm1.678-0.23c0.133-0.071 0.242-0.148 0.241-0.17a0.54 0.54 0 0 1 0.038-0.144c0.115-0.3-0.174-0.685-0.584-0.778-0.16-0.036-0.274-0.048-0.253-0.028s-0.062 0.118-0.183 0.216c-0.192 0.156-0.221 0.221-0.225 0.519-3e-3 0.187 7e-3 0.302 0.023 0.255 0.019-0.058 0.094-0.03 0.233 0.087 0.245 0.206 0.388 0.214 0.71 0.042zm-0.658-0.138c-0.226-0.226-0.249-0.383-0.09-0.609 0.348-0.497 1.037-0.162 0.888 0.432-0.039 0.157-0.343 0.377-0.521 0.377-0.042 0-0.167-0.09-0.277-0.2zm17.177 0.388c0.027-0.082 0.065-0.094 0.348-0.112 0.191-0.012 0.523-0.404 0.521-0.613-7e-3 -0.543-0.769-0.773-1.107-0.334-0.177 0.23-0.149 0.485 0.08 0.731 0.169 0.181 0.184 0.223 0.092 0.258-0.072 0.028-0.165-0.027-0.27-0.157-0.229-0.286-0.223-0.767 0.012-1.002 0.213-0.213 0.425-0.257 1.238-0.257 0.524 0 0.641 0.019 0.641 0.103 0 0.056-0.038 0.103-0.085 0.105-0.146 4e-3 -0.352 0.356-0.352 0.603 0 0.182 0.05 0.278 0.219 0.418 0.366 0.305 0.302 0.343-0.573 0.343-0.603 0-0.785-0.02-0.763-0.085zm1.628-0.023c3e-3 -0.08 0.019-0.096 0.041-0.041 0.02 0.049 0.017 0.108-5e-3 0.131s-0.039-0.018-0.036-0.09zm-19.893-0.68c0-0.397 0.022-0.511 0.098-0.511 0.113 0 0.381 0.317 0.381 0.45a0.64 0.64 0 0 1-0.315 0.498l-0.163 0.074zm18.152 0.304c-0.207-0.245-0.211-0.278-0.073-0.544 0.186-0.359 0.663-0.359 0.875 1e-3 0.146 0.247 0.106 0.423-0.138 0.615-0.25 0.196-0.457 0.174-0.664-0.072zm1.494 0.043c-0.215-0.215-0.219-0.512-0.01-0.709 0.269-0.253 0.32-0.195 0.32 0.364s-0.046 0.61-0.311 0.345zm0.248-1.034c3e-3 -0.08 0.019-0.096 0.041-0.041 0.02 0.049 0.017 0.108-5e-3 0.131s-0.039-0.018-0.036-0.09zm-19.891-1.447c1e-3 -0.028 0.124-0.136 0.273-0.239 0.234-0.162 0.271-0.222 0.271-0.444 0-0.285-0.242-0.633-0.439-0.633-0.064 0-0.097-0.031-0.073-0.068s0.392-0.068 0.875-0.067c0.686 1e-3 0.859 0.022 0.979 0.12a0.76 0.76 0 0 1-0.118 1.283c-0.204 0.105-1.773 0.148-1.768 0.048zm1.715-0.117c0.051 0.03 0.071 0.03 0.044 0s0.04-0.162 0.148-0.293c0.215-0.261 0.21-0.339-0.045-0.683-0.135-0.183-0.21-0.222-0.425-0.222-0.318 0-0.616 0.262-0.631 0.556l-0.017 0.264c-4e-3 0.038 0.023 0.076 0.059 0.085s0.139 0.084 0.228 0.167c0.175 0.163 0.432 0.231 0.501 0.133 0.024-0.034 0.086-0.037 0.137-7e-3zm-0.662-0.272c-0.186-0.186-0.204-0.293-0.092-0.539a0.64 0.64 0 0 1 0.499-0.318c0.201 0 0.45 0.28 0.45 0.506 0 0.462-0.53 0.679-0.857 0.352zm17.876 0.321c-0.395-0.01-0.783-0.051-0.864-0.093-0.195-0.101-0.298-0.345-0.298-0.708 0-0.262 0.031-0.325 0.255-0.509 0.251-0.207 0.265-0.21 1.03-0.21 0.702 0 0.773 0.011 0.751 0.12-0.014 0.066-0.076 0.116-0.138 0.111-0.146-0.011-0.325 0.427-0.277 0.678 0.02 0.103 0.124 0.25 0.233 0.327 0.378 0.269 0.282 0.308-0.692 0.284zm0.033-0.369c0.254-0.285 0.215-0.563-0.115-0.829-0.235-0.189-0.269-0.198-0.464-0.117-0.269 0.111-0.479 0.378-0.479 0.609 0 0.099 0.083 0.271 0.185 0.384 0.246 0.272 0.607 0.253 0.873-0.046zm-0.813-0.063c-0.206-0.244-0.211-0.278-0.077-0.537 0.181-0.349 0.554-0.38 0.817-0.068 0.226 0.269 0.223 0.37-0.023 0.615-0.262 0.262-0.491 0.258-0.717-0.01zm1.742 0.375c3e-3 -0.08 0.019-0.096 0.041-0.041 0.02 0.049 0.017 0.108-5e-3 0.131s-0.039-0.018-0.036-0.09zm-19.894-0.612v-0.514l0.197 0.102c0.317 0.164 0.371 0.453 0.14 0.747-0.254 0.322-0.337 0.24-0.337-0.334zm19.659 0.304c-0.235-0.185-0.246-0.525-0.022-0.735 0.269-0.253 0.32-0.195 0.32 0.364 0 0.282-0.027 0.513-0.059 0.513s-0.14-0.064-0.239-0.142zm-19.59-2.421c0-0.056 0.041-0.103 0.091-0.103 0.165 0 0.388-0.308 0.388-0.536 0-0.237-0.172-0.557-0.299-0.557-0.043 0-0.117-0.062-0.164-0.137-0.083-0.134-0.068-0.137 0.691-0.137 0.57 0 0.834 0.029 0.992 0.108 0.221 0.11 0.381 0.319 0.304 0.396-0.024 0.024-7e-3 0.043 0.037 0.043 0.136 0 0.088 0.446-0.075 0.688-0.194 0.288-0.322 0.322-1.229 0.331-0.611 6e-3 -0.735-0.011-0.735-0.096zm1.568-0.103c0.029 0 0.135-0.081 0.234-0.18 0.185-0.185 0.245-0.524 0.107-0.609-0.04-0.025-0.057-0.088-0.037-0.14s0.014-0.089-0.012-0.081-0.122-0.027-0.212-0.077c-0.39-0.216-0.971 0.128-0.911 0.538 0.05 0.34 0.421 0.65 0.687 0.574a0.68 0.68 0 0 1 0.144-0.026zm-0.58-0.236c-0.186-0.186-0.204-0.293-0.092-0.539a0.64 0.64 0 0 1 0.499-0.318c0.201 0 0.45 0.28 0.45 0.506 0 0.462-0.53 0.679-0.857 0.352zm16.968 0.163c-0.235-0.194-0.255-0.237-0.253-0.564 4e-3 -0.618 0.171-0.723 1.22-0.773 0.913-0.043 0.971-0.015 0.614 0.305-0.178 0.159-0.214 0.242-0.214 0.487 0 0.21 0.035 0.314 0.12 0.362a1.38 1.38 0 0 1 0.244 0.192c0.086 0.086 0.135 0.099 0.158 0.044 0.018-0.045 0.035-0.027 0.038 0.038 5e-3 0.108-0.078 0.12-0.833 0.12-0.836 0-0.84-1e-3 -1.094-0.21zm0.65 0.012c0.089-0.034 0.242-0.167 0.34-0.295 0.174-0.228 0.175-0.24 0.067-0.468-0.159-0.334-0.277-0.406-0.647-0.392-0.288 0.01-0.338 0.035-0.427 0.215-0.172 0.345-0.131 0.558 0.153 0.792s0.286 0.235 0.514 0.148zm-0.523-0.285c-0.097-0.116-0.177-0.252-0.177-0.302 0-0.187 0.348-0.513 0.547-0.513s0.547 0.326 0.547 0.513-0.348 0.513-0.547 0.513c-0.131 0-0.249-0.067-0.37-0.21zm-18.152-0.233v-0.511l0.163 0.074a0.64 0.64 0 0 1 0.315 0.498c0 0.133-0.268 0.45-0.381 0.45-0.076 0-0.098-0.114-0.098-0.511zm19.646 0.275c-0.228-0.228-0.223-0.531 0.012-0.716 0.099-0.078 0.207-0.142 0.239-0.142s0.059 0.231 0.059 0.513c0 0.559-0.046 0.61-0.311 0.345zm0.248-1.034c3e-3 -0.08 0.019-0.096 0.041-0.041 0.02 0.049 0.017 0.108-5e-3 0.131s-0.039-0.018-0.036-0.09zm-19.848-1.44c-0.043-0.043 0.429-0.407 0.501-0.386 0.019 6e-3 0.024-0.125 0.01-0.289-0.025-0.31-0.268-0.646-0.468-0.646-0.053 0-0.078-0.031-0.055-0.068s0.4-0.068 0.895-0.068c0.693 0 0.86 0.019 0.892 0.102 0.022 0.056 0.065 0.086 0.097 0.066 0.092-0.057 0.269 0.347 0.269 0.612 0 0.184-0.057 0.297-0.241 0.482l-0.241 0.241h-0.807c-0.444 0-0.827-0.02-0.852-0.045zm1.646-0.196c0.128-0.064 0.248-0.202 0.312-0.359 0.091-0.226 0.091-0.267 0-0.37-0.058-0.065-0.08-0.154-0.051-0.205s0.028-0.068-1e-3 -0.042-0.158-9e-3 -0.287-0.078c-0.277-0.148-0.435-0.12-0.675 0.119-0.141 0.141-0.172 0.23-0.156 0.452 0.017 0.226 0.062 0.304 0.253 0.432 0.274 0.184 0.33 0.189 0.605 0.052zm-0.635-0.2c-0.221-0.221-0.212-0.414 0.032-0.658 0.11-0.11 0.265-0.2 0.345-0.2 0.21 0 0.481 0.299 0.481 0.531 0 0.451-0.531 0.653-0.857 0.327zm16.927 0.233c-0.18-0.18-0.213-0.264-0.213-0.544s0.034-0.365 0.207-0.538l0.207-0.207 0.818-2e-3c0.659-1e-3 0.818 0.017 0.818 0.095 0 0.053-0.059 0.115-0.13 0.138-0.174 0.055-0.353 0.446-0.3 0.655 0.023 0.092 0.129 0.24 0.236 0.331s0.194 0.187 0.194 0.215-0.366 0.056-0.812 0.061l-0.812 0.01zm0.896-0.065c0.123-0.075 0.195-0.137 0.159-0.137s-0.028-0.037 0.017-0.082c0.27-0.27-0.138-0.875-0.592-0.875-0.207 0-0.557 0.386-0.557 0.615 0 0.243 0.353 0.615 0.585 0.615 0.09 0 0.265-0.061 0.388-0.136zm-0.711-0.139c-0.167-0.167-0.198-0.242-0.16-0.393 0.134-0.533 0.717-0.62 0.963-0.143 0.117 0.226 0.045 0.471-0.187 0.633s-0.384 0.135-0.616-0.097zm1.568 0.097c-0.339-0.179-0.329-0.721 0.017-0.895 0.165-0.083 0.17-0.078 0.191 0.186a4.2 4.2 0 0 1 0 0.539l-0.021 0.268zm-19.737-0.473c0-0.489 7e-3 -0.511 0.133-0.444 0.168 0.09 0.345 0.34 0.345 0.486s-0.259 0.472-0.381 0.472c-0.076 0-0.098-0.114-0.098-0.515zm18.251-2.067c-0.278-0.047-0.48-0.344-0.481-0.706 0-0.619 0.335-0.811 1.418-0.812 0.703-1e-3 0.787 0.065 0.427 0.331-0.113 0.083-0.205 0.199-0.205 0.256s-0.028 0.087-0.062 0.066c-0.149-0.092 0.107 0.466 0.28 0.612 0.323 0.271 0.254 0.311-0.508 0.296l-0.869-0.042zm0.711-0.352c0.24-0.251 0.244-0.483 0.013-0.732-0.099-0.106-0.179-0.212-0.179-0.234 0-0.048-0.158-0.037-0.461 0.033-0.122 0.028-0.223 0.087-0.223 0.131s-0.028 0.037-0.065-0.022c-0.053-0.083-0.065-0.077-0.066 0.034a3.29 3.29 0 0 1-0.043 0.377c-0.034 0.202-0.01 0.272 0.145 0.427a0.58 0.58 0 0 0 0.881-0.015zm-0.722 0.063c-0.061-0.036-0.15-0.16-0.198-0.276-0.077-0.186-0.071-0.233 0.049-0.395 0.283-0.38 0.749-0.33 0.912 0.098 0.154 0.406-0.372 0.801-0.763 0.572zm1.654 0.234c3e-3 -0.08 0.019-0.096 0.041-0.041 0.02 0.049 0.017 0.108-5e-3 0.131s-0.039-0.018-0.036-0.09zm-19.894-0.035c0-0.041 0.037-0.062 0.082-0.047s0.169-0.073 0.277-0.195c0.161-0.183 0.192-0.276 0.179-0.53-9e-3 -0.169-0.034-0.302-0.056-0.295-0.07 0.023-0.41-0.275-0.365-0.32 0.024-0.024 0.399-0.042 0.835-0.041 0.852 2e-3 0.966 0.04 1.141 0.378 0.122 0.234 0.12 0.466-4e-3 0.707-0.186 0.359-0.362 0.417-1.265 0.417-0.545 0-0.823-0.025-0.823-0.074zm1.818-0.295c0.293-0.293 0.3-0.51 0.022-0.788-0.272-0.272-0.563-0.281-0.828-0.027-0.282 0.27-0.269 0.634 0.03 0.87s0.497 0.223 0.776-0.056zm-0.788-0.084c-0.194-0.247-0.178-0.409 0.065-0.652 0.166-0.166 0.244-0.198 0.393-0.163 0.241 0.057 0.425 0.278 0.425 0.511 0 0.453-0.603 0.661-0.884 0.304zm18.628 0.107a0.46 0.46 0 0 1 0-0.742c0.099-0.078 0.207-0.142 0.239-0.142s0.059 0.231 0.059 0.513-0.027 0.513-0.059 0.513-0.14-0.064-0.239-0.142zm-19.658-0.444c0-0.551 0.013-0.562 0.325-0.281 0.192 0.173 0.196 0.384 0.012 0.618-0.254 0.323-0.337 0.24-0.337-0.337zm19.894-0.617c3e-3 -0.08 0.019-0.096 0.041-0.041 0.02 0.049 0.017 0.108-5e-3 0.131s-0.039-0.018-0.036-0.09zm-19.825-1.543c0-0.044 0.019-0.061 0.042-0.038s0.128-0.053 0.233-0.168c0.122-0.135 0.222-0.19 0.282-0.156 0.074 0.042 0.075 0.034 7e-3 -0.04-0.047-0.051-0.085-0.191-0.085-0.312 0-0.174-0.06-0.272-0.286-0.465l-0.286-0.245h0.891c0.874 0 0.895 4e-3 1.073 0.182 0.1 0.1 0.2 0.255 0.222 0.344 0.086 0.342-0.129 0.841-0.362 0.841-0.051 0-0.092 0.031-0.092 0.068s-0.319 0.068-0.82 0.068c-0.579 0-0.82-0.023-0.82-0.08zm1.69-0.182c0.082-0.063 0.195-0.225 0.251-0.36 0.1-0.24 0.097-0.25-0.115-0.478-0.119-0.128-0.211-0.251-0.205-0.273s-0.126-0.019-0.294 6e-3c-0.379 0.057-0.408 0.068-0.39 0.136 8e-3 0.03-0.03 0.092-0.085 0.138s-0.1 0.198-0.1 0.34c0 0.208 0.045 0.294 0.239 0.461 0.259 0.221 0.44 0.229 0.699 0.03zm-0.728-0.192c-0.183-0.233-0.179-0.384 0.018-0.613 0.312-0.362 0.865-0.164 0.865 0.31 0 0.453-0.603 0.661-0.884 0.304zm17.117 0.371c-0.406-0.235-0.499-0.791-0.198-1.185l0.18-0.236h0.846c0.465 0 0.846 0.027 0.846 0.06s-0.105 0.132-0.234 0.22-0.217 0.188-0.196 0.221 6e-3 0.081-0.032 0.105c-0.092 0.057 0.173 0.625 0.292 0.625 0.048 0 0.108 0.053 0.133 0.118 0.039 0.101 0.054 0.103 0.109 0.017s0.064-0.081 0.065 0.019c1e-3 0.108-0.083 0.119-0.836 0.118-0.504-1e-3 -0.891-0.033-0.973-0.081zm0.6-0.133c0.195-0.078 0.39-0.367 0.39-0.578 0-0.064-0.078-0.219-0.174-0.345-0.144-0.189-0.22-0.229-0.434-0.229-0.477 0-0.757 0.433-0.544 0.842 0.185 0.355 0.416 0.449 0.763 0.309zm-0.557-0.177a0.67 0.67 0 0 1-0.185-0.306c-0.035-0.149-3e-3 -0.227 0.163-0.393 0.233-0.233 0.388-0.257 0.616-0.097 0.234 0.164 0.304 0.406 0.184 0.638-0.156 0.302-0.52 0.376-0.778 0.158zm-18.191-0.359c0-0.537 0.088-0.615 0.337-0.298 0.179 0.227 0.179 0.37 0 0.597-0.249 0.316-0.337 0.239-0.337-0.298zm19.627 0.32c-0.197-0.21-0.189-0.491 0.019-0.699 0.265-0.265 0.311-0.215 0.311 0.345 0 0.565-0.066 0.635-0.33 0.354zm0.267-1.044c3e-3 -0.08 0.019-0.096 0.041-0.041 0.02 0.049 0.017 0.108-5e-3 0.131s-0.039-0.018-0.036-0.09z" fill="#f8ec34"/>
<path d="m2.803 14.385v-12.004l0.476-0.127 1.379-0.04c0.14-0.038 0.149-0.085 0.172-0.973 0.031-1.173 0.065-1.241 0.622-1.241h0.396l-0.038 8.474h0.154c0.15 0 0.154 0.019 0.154 0.718 0 0.433 0.027 0.718 0.068 0.718s0.068-0.285 0.068-0.718v-0.718l0.256-5e-3c0.251-5e-3 0.252-7e-3 0.07-0.073l-0.186-0.068-6e-3 -8.328h8.538l0.106 0.152c0.083 0.119 0.106 0.348 0.106 1.055 0 0.967-0.012 0.934 0.359 1.02 0.028 7e-3 1.051 0.016 2.273 0.02l-0.044 9e-3v12.004l0.126 12.885-7.839 0.126-7.21 0.126zm6.236 12.013c0.018-0.055-0.042-0.085-0.17-0.085a0.43 0.43 0 0 1-0.466-0.355c-0.06-0.247 0.237-0.563 0.485-0.516 0.111 0.021 0.167 1e-3 0.167-0.061 0-0.171-0.53-0.117-0.721 0.075a0.63 0.63 0 0 0 0.14 0.985c0.173 0.097 0.527 0.07 0.564-0.042zm0.905-0.017c0.167-0.167 0.171-0.258 0.022-0.423-0.088-0.097-0.096-0.145-0.034-0.207 0.225-0.225-0.07-0.526-0.427-0.436-0.254 0.064-0.221 0.214 0.046 0.213 0.259-1e-3 0.317 0.191 0.068 0.226-0.085 0.012-0.154 0.064-0.154 0.115s0.069 0.103 0.154 0.115c0.101 0.014 0.154 0.069 0.154 0.159 0 0.108-0.047 0.138-0.22 0.141-0.262 5e-3 -0.362 0.081-0.222 0.169 0.17 0.107 0.469 0.073 0.613-0.071zm-2.939-17.154c0-0.41-0.027-0.683-0.068-0.683s-0.068 0.273-0.068 0.683 0.027 0.683 0.068 0.683 0.068-0.273 0.068-0.683zm0.888 0c0-0.41-0.027-0.683-0.068-0.683s-0.068 0.273-0.068 0.683 0.027 0.683 0.068 0.683 0.068-0.273 0.068-0.683zm0.888 0c0-0.41-0.027-0.683-0.068-0.683s-0.068 0.273-0.068 0.683 0.027 0.683 0.068 0.683 0.068-0.273 0.068-0.683zm0.888 0c0-0.41-0.027-0.683-0.068-0.683s-0.068 0.273-0.068 0.683 0.027 0.683 0.068 0.683 0.068-0.273 0.068-0.683zm0.615 0c0-0.41-0.027-0.683-0.068-0.683s-0.068 0.273-0.068 0.683 0.027 0.683 0.068 0.683 0.068-0.273 0.068-0.683zm0.706 0.028-0.047-0.69c-0.019-0.019-0.045 0.276-0.057 0.655-0.014 0.429 4e-3 0.69 0.047 0.69s0.064-0.256 0.057-0.655zm0.866-0.04c0-0.382-0.023-0.672-0.051-0.643s-0.051 0.341-0.051 0.695 0.023 0.643 0.051 0.643 0.051-0.312 0.051-0.695zm0.888 0.011c0-0.41-0.027-0.683-0.068-0.683s-0.068 0.273-0.068 0.683 0.027 0.683 0.068 0.683 0.068-0.273 0.068-0.683zm0.888 0c0-0.41-0.027-0.683-0.068-0.683s-0.068 0.273-0.068 0.683 0.027 0.683 0.068 0.683 0.068-0.273 0.068-0.683zm-8.307 0.099c0.27-0.128 0.4-0.351 0.361-0.618-0.026-0.177-0.031-0.171-0.04 0.052-0.018 0.438-0.482 0.693-0.924 0.509-0.336-0.141-0.4-0.343-0.373-1.182 0.02-0.623 0.039-0.713 0.186-0.869 0.09-0.096 0.19-0.158 0.222-0.138s0.058 4e-3 0.058-0.036c0-0.174-0.313 0.015-0.444 0.268s-0.142 1.458-0.016 1.71c0.083 0.167 0.471 0.41 0.654 0.41 0.051 0 0.192-0.047 0.315-0.106zm9.979 8e-3c0.35-0.146 0.447-0.399 0.447-1.167 0-0.432-0.033-0.72-0.097-0.843-0.102-0.197-0.418-0.408-0.496-0.33-0.025 0.025 3e-3 0.046 0.062 0.046s0.187 0.095 0.285 0.21c0.164 0.195 0.177 0.258 0.177 0.892 0 0.811-0.087 1.035-0.447 1.154-0.413 0.136-0.776-0.083-0.908-0.548-0.037-0.132-0.071-0.184-0.074-0.117-0.013 0.257 0.193 0.6 0.418 0.698 0.285 0.124 0.348 0.125 0.632 6e-3zm-10.486-4.822c0-0.038-0.044-0.068-0.098-0.068s-0.161-0.081-0.239-0.18-0.141-0.153-0.139-0.12c3e-3 0.093 0.153 0.267 0.305 0.354 0.17 0.097 0.171 0.097 0.171 0.014zm10.657-0.109c0.116-0.097 0.209-0.213 0.208-0.256s-0.065 5e-3 -0.142 0.109-0.182 0.188-0.233 0.188-0.112 0.031-0.135 0.068c-0.08 0.13 0.093 0.068 0.302-0.109zm-11.002-1.982c0.095-0.126 0.094-0.126-0.034-8e-3 -0.115 0.106-0.134 0.223-0.141 0.888l-9e-3 0.767 0.043-0.759c0.028-0.498 0.077-0.803 0.141-0.888zm11.249 0.27c-0.022-0.118-0.09-0.257-0.151-0.308-0.102-0.084-0.101-0.073 2e-3 0.126 0.079 0.152 0.117 0.422 0.127 0.888l0.014 0.67 0.024-0.581c0.013-0.32 6e-3 -0.678-0.016-0.796z" fill="#e8e9e8"/>
<path d="m2.551 2.666v-0.41h-0.303 2.214l-0.129 0.254c-0.096 0.189-0.129 0.399-0.129 0.822 0 0.693 0.111 0.992 0.441 1.186l0.243 0.143v2.234l-0.182 0.089c-0.38 0.186-0.467 0.407-0.467 1.177 0 0.779 0.077 1.013 0.387 1.173 0.103 0.053 0.299 0.097 0.436 0.097 0.331 0 0.714-0.363 0.714-0.677 0-0.18 0.025-0.212 0.171-0.212h0.171v0.723c0 0.548 0.021 0.716 0.085 0.695 0.059-0.02 0.091-0.243 0.105-0.723l0.019-0.695h0.542v0.723c0 0.548 0.021 0.716 0.085 0.695s0.088-0.232 0.095-0.706l0.01-0.678 0.706-0.042-0.013 0.701c-9e-3 0.472 0.012 0.71 0.064 0.727s0.077-0.189 0.077-0.698v-0.723h0.678l0.019 0.695c0.013 0.481 0.046 0.704 0.105 0.723 0.065 0.021 0.085-0.147 0.085-0.695v-0.723h0.678l0.019 0.695c0.013 0.481 0.046 0.704 0.105 0.723 0.065 0.021 0.085-0.147 0.085-0.695v-0.723h0.41v0.718c0 0.592 0.018 0.718 0.103 0.718s0.103-0.125 0.103-0.718v-0.718h0.546v0.718c0 0.592 0.018 0.718 0.103 0.718s0.103-0.125 0.103-0.718v-0.718h0.684v0.718c0 0.592 0.018 0.718 0.103 0.718s0.103-0.125 0.103-0.718v-0.718h0.684v0.723c0 0.548 0.021 0.716 0.085 0.695 0.059-0.02 0.091-0.243 0.105-0.723l0.019-0.695h0.678v0.723c0 0.497 0.024 0.715 0.075 0.698s0.079-0.279 0.085-0.706l0.01-0.681 0.29-0.021c0.285-0.021 0.29-0.017 0.29 0.195 0 0.154 0.066 0.282 0.232 0.448 0.19 0.19 0.284 0.232 0.519 0.232s0.329-0.042 0.519-0.232l0.232-0.232v-0.784c0-0.696-0.016-0.804-0.146-0.969-0.08-0.102-0.219-0.213-0.308-0.247-0.161-0.061-0.162-0.066-0.162-1.189v-1.125l0.201-0.104c0.366-0.189 0.414-0.33 0.414-1.205 0-0.625-0.022-0.815-0.103-0.882-0.056-0.047-0.103-0.112-0.103-0.145s0.993-0.06 2.221-0.06h-0.044l-0.503 25.015h-14.42zm4.523 23.203v-1.196h-1.162v2.392h1.162zm-1.094 0.027v-1.1l0.301 0.024c0.166 0.013 0.287 1e-3 0.269-0.027s0.01-0.051 0.061-0.051c0.073 0 0.097 0.2 0.111 0.927l-0.026 1.128c-0.042 0.189-0.064 0.201-0.38 0.201h-0.336zm0.565 0.919c-0.046-0.019-0.139-0.02-0.205-3e-3s-0.029 0.033 0.084 0.034 0.167-0.013 0.121-0.032zm5.791-0.946v-1.196h-1.094v2.392h1.094zm1.572 0v-1.196h-1.264v2.392h1.264zm-0.763 1.06c-0.013-0.037-0.014-0.526-2e-3 -1.087l0.02-1.019 0.272-0.026c0.312-0.03 0.457 0.062 0.29 0.184-0.088 0.064-0.092 0.092-0.021 0.136 0.059 0.036 0.073 0.028 0.04-0.024-0.027-0.043-0.024-0.079 7e-3 -0.079s0.055 0.415 0.055 0.923c0 0.69-0.021 0.915-0.082 0.892-0.049-0.019-0.067 8e-3 -0.044 0.068 0.029 0.076-0.025 0.099-0.237 0.099-0.151 0-0.285-0.03-0.298-0.067zm-4.071-0.452c0.089-0.089-0.037-0.236-0.166-0.195-0.221 0.07-0.467-0.144-0.467-0.407 0-0.275 0.093-0.364 0.41-0.394 0.299-0.028 0.332-0.217 0.044-0.25-0.668-0.076-1.058 0.744-0.545 1.147 0.168 0.132 0.628 0.195 0.724 0.099zm0.9-0.067c0.136-0.136 0.139-0.431 6e-3 -0.483-0.088-0.034-0.089-0.057-5e-3 -0.177 0.098-0.14 0.072-0.321-0.059-0.411-0.099-0.068-0.569-0.066-0.612 2e-3 -0.061 0.099 0.057 0.201 0.224 0.193 0.208-0.01 0.275 0.159 0.082 0.21s-0.181 0.203 0.027 0.255c0.094 0.024 0.171 0.086 0.171 0.139 0 0.12-0.228 0.198-0.41 0.14-0.134-0.043-0.196 0.089-0.091 0.194 0.088 0.088 0.561 0.045 0.667-0.062zm-3.344-4.505v-1.367h-3.418l-0.019 1.296 0.015 1.385c0.027 0.07 0.389 0.085 1.727 0.07l1.693-0.018zm3.486 1.196c0.074-0.119-0.035-0.221-0.142-0.132-0.053 0.044-0.079 0.107-0.058 0.14 0.05 0.081 0.148 0.077 0.2-8e-3zm1.088 9e-3c0.02-0.033-0.021-0.111-0.092-0.175-0.152-0.137-0.27-0.023-0.139 0.135 0.094 0.113 0.177 0.127 0.231 0.04zm3.307-0.803c-0.018-0.282-0.043-0.334-0.158-0.334s-0.14 0.052-0.157 0.353c-0.017 0.294 0 0.358 0.103 0.381 0.191 0.044 0.235-0.039 0.213-0.4zm0.478 0.016c-0.017-0.298-0.041-0.35-0.157-0.35s-0.14 0.053-0.158 0.298c-0.028 0.391 0.013 0.486 0.191 0.439 0.127-0.033 0.142-0.08 0.124-0.388zm0.971-0.323v-0.677h-0.684v0.672l0.029 0.701c0.016 0.016 0.17 0.018 0.342 5e-3l0.312-0.025zm-6.422 0.393c-0.091-0.091-0.244 0.047-0.175 0.158 0.035 0.057 0.074 0.056 0.147-5e-3s0.078-0.104 0.028-0.154zm2.171-0.018c-0.161-0.161-0.302-0.049-0.15 0.119 0.082 0.09 0.141 0.109 0.189 0.061s0.036-0.105-0.04-0.181zm-2.755-0.436c0.074-0.119-0.035-0.221-0.142-0.132-0.053 0.044-0.079 0.107-0.058 0.14 0.05 0.081 0.148 0.077 0.2-8e-3zm3.383-0.026c0-0.052-0.042-0.129-0.093-0.172-0.13-0.108-0.284 0.066-0.165 0.185 0.109 0.109 0.258 0.101 0.258-0.014zm-3.862-0.453c0.074-0.119-0.035-0.221-0.142-0.132-0.053 0.044-0.079 0.107-0.058 0.14 0.05 0.081 0.148 0.077 0.2-8e-3zm2.204-0.124c-0.071-0.086-0.059-0.093 0.087-0.05 0.163 0.049 0.165 0.046 0.052-0.072s-0.125-0.117-0.29 0.039c-0.211 0.198-0.23 0.106-0.024-0.114 0.082-0.087 0.118-0.158 0.08-0.158s-0.142 0.079-0.232 0.174c-0.187 0.199-0.125 0.281 0.21 0.281 0.17 0 0.188-0.016 0.117-0.101zm2.239 0.055c0.068-0.109-0.165-0.307-0.255-0.217-0.054 0.054-0.051 0.104 0.013 0.18 0.101 0.122 0.182 0.134 0.242 0.037zm-2.632-0.239c0.068-0.082 0.067-0.125-8e-3 -0.215-0.083-0.101-0.075-0.107 0.077-0.061 0.16 0.048 0.163 0.044 0.057-0.067-0.147-0.153-0.286-0.067-0.233 0.145 0.045 0.178-0.037 0.217-0.157 0.073-0.055-0.066-0.054-0.112 2e-3 -0.168s0.053-0.107-0.018-0.193c-0.086-0.104-0.08-0.11 0.058-0.067 0.173 0.055 0.214-0.059 0.045-0.124-0.164-0.063-0.249 0.023-0.203 0.205 0.044 0.177-0.022 0.212-0.153 0.081-0.045-0.045-0.082-0.056-0.082-0.024 0 0.067 0.423 0.515 0.487 0.516 0.024 1e-3 0.081-0.045 0.128-0.102zm-2.389-0.4c-0.091-0.091-0.244 0.047-0.175 0.158 0.035 0.057 0.074 0.056 0.147-5e-3s0.078-0.104 0.028-0.154zm5.503 0.155c0.06-0.097-0.139-0.297-0.235-0.238-0.052 0.032-0.049 0.085 0.01 0.179 0.094 0.151 0.158 0.168 0.225 0.059zm-3.834-0.342c-0.04-0.126-0.026-0.137 0.114-0.093 0.148 0.047 0.152 0.041 0.059-0.071s-0.089-0.118 0.052-0.074c0.176 0.056 0.218-0.077 0.045-0.143-0.066-0.025-0.177 0.027-0.285 0.135-0.149 0.149-0.163 0.193-0.088 0.283 0.121 0.146 0.158 0.133 0.104-0.037zm-0.051-0.33c0.145-0.184 0.147-0.197 0.029-0.303s-0.136-0.096-0.323 0.102-0.193 0.21-0.04 0.164c0.14-0.043 0.155-0.031 0.115 0.094-0.063 0.199 0.037 0.173 0.218-0.057zm-0.118-0.18c0-0.059 0.031-0.087 0.069-0.064s0.052 0.072 0.03 0.107c-0.059 0.095-0.1 0.077-0.1-0.043zm-2.028 0.267c0.062-0.062-0.091-0.236-0.167-0.189-0.094 0.058-0.071 0.234 0.031 0.234 0.05 0 0.111-0.02 0.136-0.045zm6.607-0.049c0-0.052-0.042-0.129-0.093-0.172-0.13-0.108-0.284 0.066-0.165 0.185 0.109 0.109 0.258 0.101 0.258-0.014zm-2.968-0.307c-0.02-0.033-0.125-0.077-0.234-0.099-0.445-0.089-0.896-0.697-0.896-1.208a1.25 1.25 0 0 1 1.093-1.215c0.387-0.037 0.461-0.152 0.097-0.152-0.739 0-1.432 0.836-1.296 1.563 0.09 0.482 0.401 0.889 0.82 1.074 0.235 0.104 0.47 0.125 0.416 0.037zm-1.691-0.17c0.049-0.257-0.115-0.29-0.337-0.068l-0.21 0.21 0.261-7e-3c0.197-6e-3 0.267-0.039 0.286-0.134zm-0.228-0.044c0.023-0.038 0.071-0.068 0.107-0.068s0.064 0.031 0.064 0.068-0.048 0.068-0.107 0.068-0.088-0.031-0.064-0.068zm-2.32-6e-3c0.07-0.114-0.088-0.245-0.182-0.15-0.079 0.079-0.03 0.225 0.076 0.225 0.033 0 0.081-0.033 0.106-0.074zm2.081-0.028c0.068-0.082 0.067-0.125-8e-3 -0.215-0.083-0.101-0.075-0.107 0.077-0.061 0.16 0.048 0.163 0.044 0.057-0.067-0.149-0.155-0.286-0.067-0.232 0.15 0.038 0.151 0.026 0.164-0.114 0.119s-0.146-0.037-0.063 0.063c0.115 0.139 0.173 0.141 0.282 0.01zm2.758-0.255c0.273-0.443 0.328-1.119 0.128-1.572-0.083-0.188-0.198-0.331-0.289-0.36-0.248-0.079-0.3 0.056-0.142 0.365 0.251 0.492 0.155 1.24-0.21 1.628-0.171 0.182-0.109 0.312 0.134 0.283 0.129-0.015 0.235-0.111 0.378-0.344zm2.902 0.11c-0.161-0.161-0.302-0.049-0.15 0.119 0.082 0.09 0.141 0.109 0.189 0.061s0.036-0.105-0.04-0.181zm-3.558-0.111c0.273-0.283 0.359-0.516 0.359-0.968 0-0.497-0.212-0.817-0.562-0.847-0.205-0.017-0.27 0.01-0.365 0.154-0.077 0.117-0.099 0.237-0.068 0.363 0.126 0.511 0.123 0.54-0.058 0.683-0.191 0.151-0.223 0.285-0.098 0.411 0.119 0.119 0.441-0.097 0.579-0.388 0.096-0.203 0.101-0.286 0.033-0.542-0.101-0.379-0.05-0.445 0.101-0.129 0.16 0.335 0.082 0.694-0.217 0.992-0.258 0.258-0.271 0.292-0.152 0.412 0.127 0.127 0.216 0.1 0.447-0.14zm1.069-0.054c0.341-0.406 0.372-0.991 0.074-1.415-0.157-0.223-0.238-0.189-0.164 0.068 0.124 0.433 0.073 0.853-0.174 1.436-0.081 0.191 0.071 0.14 0.264-0.089zm-3.567 0.058c-0.13-0.13-0.095-0.205 0.071-0.152 0.141 0.045 0.145 0.039 0.052-0.074s-0.089-0.118 0.069-0.071c0.164 0.049 0.166 0.046 0.05-0.074s-0.126-0.119-0.302 0.057c-0.153 0.153-0.168 0.199-0.094 0.288 0.049 0.059 0.121 0.106 0.162 0.106 0.048 0 0.045-0.029-8e-3 -0.082zm-1.667-0.849c-0.161-0.161-0.302-0.049-0.15 0.119 0.082 0.09 0.141 0.109 0.189 0.061s0.036-0.105-0.04-0.181zm7.739-0.05c-0.091-0.091-0.244 0.047-0.175 0.158 0.035 0.057 0.074 0.056 0.147-5e-3s0.078-0.104 0.028-0.154zm-4.24 0.022c0-0.161-0.181-0.255-0.287-0.148s-0.013 0.287 0.148 0.287a0.12 0.12 0 0 0 0.139-0.139zm-2.842-0.399c0.02-0.033-0.021-0.111-0.092-0.175-0.152-0.137-0.27-0.023-0.139 0.135 0.094 0.113 0.177 0.127 0.231 0.04zm6.498-0.077c0.074-0.119-0.035-0.221-0.142-0.132-0.053 0.044-0.079 0.107-0.058 0.14 0.05 0.081 0.148 0.077 0.2-8e-3zm-10.627-0.723v-0.312l-0.256 0.021c-0.249 0.021-0.257 0.03-0.277 0.312l-0.021 0.29h0.554zm2.05 0.072v-0.29c0-0.028-0.115-0.051-0.256-0.051-0.253 0-0.257 4e-3 -0.277 0.29l-0.021 0.29h0.277c0.271 0 0.277-5e-3 0.277-0.239zm2.635 0.164c0.073-0.119-0.156-0.313-0.254-0.216-0.061 0.061-0.059 0.105 8e-3 0.185 0.103 0.124 0.182 0.134 0.246 0.031zm5.364-0.223c-0.091-0.091-0.244 0.047-0.175 0.158 0.035 0.057 0.074 0.056 0.147-5e-3s0.078-0.104 0.028-0.154zm-4.869-0.497c-0.161-0.161-0.302-0.049-0.15 0.119 0.082 0.09 0.141 0.109 0.189 0.061s0.036-0.105-0.04-0.181zm4.39 0.018c-0.091-0.091-0.244 0.047-0.175 0.158 0.035 0.057 0.074 0.056 0.147-5e-3s0.078-0.104 0.028-0.154zm1.899 0.17c0.142-0.09 0.074-0.453-0.085-0.453-0.072 0-0.144 0.038-0.159 0.085s5e-3 0.085 0.046 0.085 0.074 0.033 0.074 0.073-0.069 0.063-0.154 0.051c-0.21-0.03-0.253-0.358-0.06-0.461 0.075-0.04 0.184-0.054 0.243-0.031 0.07 0.027 0.107 3e-3 0.107-0.069 0-0.145-0.327-0.147-0.532-3e-3s-0.209 0.529 0 0.676c0.167 0.117 0.379 0.136 0.52 0.047zm0.388-0.114c0-0.08 0.064-0.143 0.171-0.168 0.125-0.029 0.177-0.092 0.193-0.235 0.026-0.221-0.073-0.31-0.347-0.311-0.186-1e-3 -0.188 3e-3 -0.188 0.449 0 0.33 0.023 0.442 0.085 0.421 0.047-0.016 0.086-0.086 0.086-0.156zm-4e-3 -0.379c-0.07-0.114 0.088-0.245 0.182-0.15 0.079 0.079 0.03 0.225-0.076 0.225-0.033 0-0.081-0.033-0.106-0.074zm1.024 0.445c0.119-0.119 0.133-0.186 0.056-0.263-0.028-0.028-0.051-0.133-0.051-0.234 0-0.162-0.026-0.182-0.239-0.182-0.236 0-0.239 4e-3 -0.251 0.307-6e-3 0.169 0.02 0.346 0.06 0.393 0.098 0.118 0.296 0.108 0.426-0.022zm-0.303-0.132c0-0.063 0.033-0.103 0.073-0.089s0.073 0.054 0.073 0.089-0.033 0.076-0.073 0.089-0.073-0.027-0.073-0.089zm0-0.376c0-0.038 0.048-0.068 0.107-0.068s0.088 0.031 0.064 0.068-0.071 0.068-0.107 0.068-0.064-0.031-0.064-0.068zm-6.806 9e-3c0.02-0.033-0.021-0.111-0.092-0.175-0.152-0.137-0.27-0.023-0.139 0.135 0.094 0.113 0.177 0.127 0.231 0.04zm3.218-0.077c0.074-0.119-0.035-0.221-0.142-0.132-0.053 0.044-0.079 0.107-0.058 0.14 0.05 0.081 0.148 0.077 0.2-8e-3zm-2.661-0.485c0.073-0.119-0.156-0.313-0.254-0.216-0.061 0.061-0.059 0.105 8e-3 0.185 0.103 0.124 0.182 0.134 0.246 0.031zm2.118-0.068c0.07-0.114-0.088-0.245-0.182-0.15-0.079 0.079-0.03 0.225 0.076 0.225 0.033 0 0.081-0.033 0.106-0.074zm4.097-0.336v-0.308h-1.366l-0.042 0.654 1.408-0.04zm-5.61-0.196c0.02-0.033-0.021-0.111-0.092-0.175-0.152-0.137-0.27-0.023-0.139 0.135 0.094 0.113 0.177 0.127 0.231 0.04zm0.951-0.054c0.062-0.062-0.091-0.236-0.167-0.189-0.094 0.058-0.071 0.234 0.031 0.234 0.05 0 0.111-0.02 0.136-0.045zm-7.882-0.365v-0.342h-0.546v0.684h0.546zm1.025 0v-0.342h-0.546v0.684h0.546zm1.025 0v-0.342h-0.546v0.684h0.546zm3.212-1.016c0.307-0.223 0.34-0.378 0.341-1.599l1e-3 -1.146-0.468-0.51-1.743-0.02c-2.516-0.029-2.435-0.086-2.447 1.708-9e-3 1.42 0.022 1.505 0.624 1.723 0.056 0.02 0.871 0.022 1.811 3e-3 1.512-0.03 1.728-0.048 1.88-0.158zm-2.46-0.637c-0.407-0.209-0.651-0.666-0.58-1.084 0.055-0.324 0.347-0.692 0.649-0.817 0.274-0.114 0.758-0.053 1.01 0.127 0.423 0.301 0.553 0.963 0.271 1.378-0.354 0.52-0.834 0.661-1.35 0.397zm8.831 0.692c0.372-0.191 0.393-0.276 0.395-1.604 2e-3 -1.801 0.082-1.741-2.327-1.741-2.376 0-2.342-0.027-2.307 1.841 0.032 1.694-0.024 1.656 2.393 1.614l1.845-0.11zm-2.269-0.62c-0.997-0.398-0.85-1.882 0.2-2.023a1.08 1.08 0 0 1 1.2 0.866c0.126 0.743-0.709 1.433-1.4 1.157zm4.016 0.538c-0.015-0.047-0.095-0.095-0.177-0.107-0.197-0.029-0.188-0.109 0.022-0.205 0.171-0.078 0.234-0.217 0.098-0.217-0.04 0-0.132 0.031-0.203 0.07-0.093 0.05-0.171 0.045-0.273-0.017-0.122-0.075-0.156-0.068-0.241 0.046-0.054 0.073-0.098 0.219-0.098 0.325 0 0.191 2e-3 0.192 0.45 0.192 0.329 0 0.442-0.023 0.422-0.085zm-0.718-0.205c0.016-0.047 0.069-0.085 0.12-0.085s0.104 0.038 0.12 0.085-0.032 0.085-0.12 0.085-0.137-0.035-0.12-0.085zm-12.114-0.085c0-0.302-0.084-0.408-0.161-0.205-0.027 0.07-0.137 0.103-0.349 0.103-0.23 0-0.31 0.026-0.31 0.103s0.08 0.103 0.31 0.103c0.212 0 0.322 0.032 0.349 0.103 0.078 0.203 0.161 0.097 0.161-0.205zm-0.107-0.483c0.139-0.139 0.137-0.4-4e-3 -0.541-0.175-0.175-0.579-0.112-0.703 0.11-0.09 0.161-0.088 0.199 0.017 0.359a0.49 0.49 0 0 0 0.69 0.071zm-0.478-0.127c-0.194-0.141-0.076-0.326 0.192-0.3 0.165 0.016 0.223 0.055 0.223 0.15 0 0.171-0.258 0.264-0.415 0.15zm13.421-7e-3c-0.023-0.266-0.139-0.327-0.192-0.101-0.043 0.184-0.164 0.186-0.193 3e-3s-0.134-0.178-0.161 0.014c-0.012 0.085-0.053 0.145-0.09 0.134s-0.059-0.08-0.047-0.154c0.014-0.085-0.018-0.134-0.085-0.134-0.077 0-0.107 0.068-0.107 0.239v0.239h0.896zm-0.413-0.556c0.148-0.203 0.297-0.17 0.238 0.054-0.027 0.105-0.011 0.137 0.058 0.114 0.126-0.042 0.162-0.31 0.059-0.435-0.125-0.15-0.323-0.118-0.447 0.072-0.108 0.166-0.256 0.174-0.219 0.013 0.01-0.044-0.012-0.096-0.049-0.114-0.1-0.051-0.126 0.265-0.031 0.38 0.121 0.146 0.243 0.121 0.391-0.083zm-12.53-0.199c0.139-0.139 0.137-0.4-4e-3 -0.541-0.175-0.175-0.579-0.112-0.703 0.11-0.09 0.161-0.088 0.199 0.017 0.359a0.49 0.49 0 0 0 0.69 0.071zm-0.551-0.2c-0.061-0.158 0.062-0.253 0.292-0.227 0.143 0.016 0.196 0.059 0.196 0.159 0 0.181-0.422 0.24-0.488 0.068zm13.495-0.393c0.016-0.196-4e-3 -0.256-0.085-0.256-0.069 0-0.107 0.062-0.107 0.177s-0.032 0.166-0.085 0.148c-0.047-0.016-0.086-0.085-0.086-0.154s-0.039-0.138-0.085-0.154c-0.053-0.018-0.085 0.038-0.085 0.148 0 0.214-0.118 0.236-0.149 0.028-0.038-0.255-0.193-0.232-0.193 0.029 0 0.128 0.022 0.255 0.049 0.282s0.219 0.04 0.427 0.028l0.379-0.02zm-12.921-0.28c0.046-0.029 0.085-0.158 0.085-0.287v-0.235h-0.403c-0.414 0-0.522 0.074-0.449 0.308l0.063 0.202c0.033 0.106 0.54 0.115 0.705 0.013zm-0.599-0.215c0-0.056 0.046-0.103 0.103-0.103s0.103 0.046 0.103 0.103-0.046 0.103-0.103 0.103-0.103-0.046-0.103-0.103zm0.385 0.055c-0.077-0.077-0.047-0.158 0.059-0.158 0.056 0 0.103 0.029 0.103 0.064 0 0.086-0.107 0.148-0.161 0.093zm12.464 0.017c0-0.069 0.096-0.105 0.319-0.12 0.451-0.029 0.481-0.192 0.036-0.192-0.287 0-0.345-0.022-0.377-0.144-0.062-0.239-0.183-0.074-0.183 0.25 0 0.224 0.027 0.304 0.103 0.304 0.056 0 0.103-0.044 0.103-0.099z" fill="#abacab"/>
<path d="m0.034 26.108v-1.162h0.789c0.545 0 0.847-0.03 0.974-0.096 0.515-0.268 0.707-0.846 0.431-1.293-0.23-0.372-0.488-0.456-1.402-0.456h-0.792v-1.08l1.786-0.048 0.268-0.288c0.223-0.24 0.268-0.336 0.268-0.573 0-0.167-0.057-0.378-0.138-0.508-0.221-0.358-0.487-0.443-1.393-0.443h-0.791v-1.026l0.837-1e-3c0.934-1e-3 1.092-0.049 1.331-0.403 0.192-0.285 0.201-0.649 0.022-0.942-0.221-0.362-0.438-0.43-1.366-0.43h-0.824v-1.026h0.793c0.914 0 1.172-0.084 1.402-0.456 0.301-0.488 0.024-1.156-0.551-1.328-0.133-0.04-0.557-0.062-0.943-0.05l-0.701 0.022v-0.992h0.793c0.9 0 1.186-0.089 1.406-0.439 0.099-0.158 0.125-0.295 0.103-0.548a0.68 0.68 0 0 0-0.276-0.564c-0.272-0.249-0.246-0.244-1.291-0.234l-0.735 7e-3v-1.162h0.837c0.71 0 0.871-0.021 1.056-0.134a0.88 0.88 0 0 0 0.297-1.212c-0.243-0.399-0.419-0.462-1.35-0.489l-0.84-0.024v-1.012h0.824c0.928 0 1.146-0.069 1.366-0.43 0.241-0.395 0.136-0.9-0.25-1.204-0.163-0.128-0.273-0.143-1.061-0.143h-0.879v-1.094h0.824c0.928 0 1.146-0.069 1.366-0.43 0.241-0.395 0.136-0.9-0.25-1.204-0.163-0.128-0.273-0.143-1.061-0.143h-0.879v-0.746h4.364l-0.103 0.207c-0.078 0.156-0.098 0.383-0.08 0.918 0.022 0.678 0.032 0.721 0.223 0.92 0.11 0.115 0.248 0.224 0.308 0.243 0.092 0.029 0.108 0.196 0.108 1.161v1.127l-0.196 0.081c-0.347 0.144-0.453 0.417-0.453 1.172 0 0.969 0.199 1.278 0.825 1.278 0.366 0 0.645-0.204 0.715-0.524 0.072-0.328 0.092-0.365 0.198-0.365 0.083 0 0.106 0.133 0.122 0.7 0.017 0.603 0.036 0.703 0.139 0.723s0.12-0.048 0.12-0.7v-0.723h0.478v0.718c0 0.672 9e-3 0.718 0.137 0.718s0.137-0.046 0.137-0.718v-0.718h0.616v0.718c0 0.672 9e-3 0.718 0.137 0.718s0.137-0.046 0.137-0.718v-0.718h0.616v0.718c0 0.585 0.019 0.718 0.1 0.718s0.104-0.14 0.12-0.701l0.019-0.701 0.65-0.042v0.721c0 0.588 0.019 0.721 0.1 0.721s0.104-0.14 0.12-0.701l0.019-0.701 0.376-0.044v0.722c0 0.596 0.018 0.722 0.103 0.722s0.103-0.125 0.103-0.718v-0.718h0.546v0.718c0 0.592 0.018 0.718 0.103 0.718s0.103-0.125 0.103-0.718v-0.718h0.684v0.718c0 0.592 0.018 0.718 0.103 0.718s0.103-0.125 0.103-0.718v-0.718h0.61l0.019 0.7c0.017 0.603 0.036 0.703 0.139 0.723s0.12-0.048 0.12-0.7v-0.723h0.616v0.718c0 0.672 9e-3 0.718 0.137 0.718s0.137-0.046 0.137-0.718v-0.718h0.232c0.21 0 0.236 0.022 0.276 0.237 0.024 0.13 0.138 0.33 0.252 0.444 0.172 0.172 0.262 0.208 0.529 0.208 0.615 0 0.83-0.329 0.83-1.269 0-0.7-0.108-0.981-0.448-1.164l-0.236-0.127v-1.109c0-1.092 3e-3 -1.115 0.154-1.173a1.12 1.12 0 0 0 0.325-0.243c0.154-0.165 0.173-0.25 0.194-0.849 0.017-0.488-5e-3 -0.733-0.082-0.917l-0.105-0.251h4.368v0.67l-0.837 0.026c-0.935 0.029-1.205 0.12-1.383 0.464-0.152 0.294-0.133 0.766 0.039 0.985 0.256 0.325 0.462 0.384 1.357 0.384h0.824v1.094h-0.789c-0.655 0-0.834 0.023-1.058 0.137-0.644 0.328-0.642 1.273 3e-3 1.606 0.142 0.073 0.425 0.101 1.02 0.101h0.824v1.026h-1.794l-0.265 0.265c-0.241 0.241-0.265 0.299-0.265 0.623s0.025 0.383 0.265 0.623l0.265 0.265h1.794v1.026h-0.793c-0.901 0-1.19 0.09-1.402 0.439-0.275 0.45-0.08 1.115 0.383 1.308 0.159 0.066 0.492 0.098 1.024 0.098h0.788v0.956h-0.788c-0.517 0-0.866 0.033-1.015 0.095-0.632 0.264-0.709 1.197-0.131 1.586 0.157 0.105 0.35 0.133 1.063 0.154l0.871 0.025v1.08h-0.788c-0.891 0-1.162 0.077-1.389 0.396-0.186 0.262-0.194 0.721-0.018 1.011 0.213 0.349 0.501 0.439 1.402 0.439h0.793v1.026h-0.824c-0.909 0-1.115 0.061-1.358 0.403-0.172 0.241-0.187 0.679-0.035 0.973 0.179 0.345 0.553 0.466 1.448 0.468l0.769 2e-3v1.026h-0.824c-0.895 0-1.102 0.058-1.357 0.384-0.174 0.221-0.191 0.692-0.036 0.992 0.179 0.345 0.553 0.466 1.448 0.468l0.769 2e-3v2.324h-19.967zm7.262 0.977c-0.152-0.029-0.154-0.04-0.154-1.216s1e-3 -1.187 0.154-1.217c0.085-0.017-0.2-0.027-0.632-0.022l-0.786 9e-3 -0.019 1.159 0.015 1.247c0.025 0.065 0.232 0.086 0.805 0.079 0.424-5e-3 0.702-0.023 0.617-0.039zm6.612-1.216v-1.264l-0.769 8e-3 -0.649 0.039c0.108 0.028 0.12 0.145 0.12 1.217s-0.011 1.189-0.12 1.217c-0.066 0.017 0.226 0.035 0.649 0.039l0.769 8e-3zm-1.572 0v-1.196h-1.162v2.392h1.162zm-3.366 0.675c0.09-0.024 0.154-0.094 0.154-0.17 0-0.104-0.051-0.129-0.271-0.129-0.198 0-0.29-0.036-0.342-0.132-0.173-0.323 0.034-0.649 0.385-0.608 0.157 0.018 0.198-6e-3 0.215-0.131 0.02-0.141-6e-3 -0.154-0.296-0.154-0.26 0-0.354 0.036-0.517 0.2-0.341 0.341-0.257 0.884 0.164 1.068 0.248 0.108 0.296 0.113 0.507 0.057zm0.863-0.022c0.249-0.095 0.35-0.315 0.231-0.503-0.072-0.113-0.077-0.197-0.023-0.344 0.062-0.169 0.05-0.212-0.089-0.325-0.181-0.147-0.268-0.157-0.516-0.063-0.267 0.101-0.226 0.275 0.064 0.275 0.276 0 0.32 0.114 0.068 0.177-0.094 0.024-0.171 0.082-0.171 0.131s0.077 0.107 0.171 0.131c0.262 0.066 0.218 0.245-0.061 0.245-0.284 0-0.39 0.179-0.16 0.272a0.52 0.52 0 0 0 0.486 5e-3zm-3.117-4.582c0.017-1.193 6e-3 -1.342-0.098-1.418-0.149-0.109-3.175-0.123-3.376-0.015-0.124 0.066-0.132 0.156-0.132 1.39l0.047 1.366c0.026 0.026 0.833 0.038 1.794 0.028l1.747-0.018zm3.45 1.015c-0.122-0.122-0.322 0.06-0.212 0.194 0.069 0.083 0.095 0.082 0.186-9e-3 0.08-0.08 0.086-0.124 0.026-0.185zm1.054 0.112c0.013-0.038-0.042-0.11-0.122-0.159-0.188-0.118-0.331-2e-3 -0.197 0.16 0.095 0.115 0.281 0.115 0.319-1e-3zm3.303-0.722c0-0.412-1e-3 -0.414-0.188-0.393-0.169 0.019-0.19 0.052-0.209 0.32-0.028 0.392 0.016 0.488 0.224 0.488 0.166 0 0.173-0.017 0.173-0.415zm0.505 0.307a1.06 1.06 0 0 0-0.019-0.633c-0.032-0.05-0.131-0.081-0.221-0.068-0.13 0.018-0.168 0.07-0.185 0.255-0.036 0.374 0.036 0.554 0.221 0.554 0.089 0 0.181-0.049 0.204-0.108zm0.915-0.627-0.019-0.735-0.271-0.022c-0.367-0.03-0.447 0.096-0.446 0.702 2e-3 0.75 0.023 0.79 0.419 0.79h0.336zm-6.364 0.491c0.061-0.158-0.074-0.263-0.177-0.138-0.088 0.106-0.048 0.245 0.07 0.245 0.037 0 0.085-0.048 0.108-0.107zm2.18 0.032c0.026-0.041-0.018-0.139-0.096-0.218-0.129-0.129-0.146-0.132-0.187-0.026-0.076 0.197 0.177 0.415 0.283 0.244zm-2.755-0.755c-0.122-0.122-0.322 0.06-0.212 0.194 0.069 0.083 0.095 0.082 0.186-9e-3 0.08-0.08 0.086-0.124 0.026-0.185zm3.268-0.016c-0.108-0.108-0.158-0.121-0.221-0.058-0.123 0.123 0.13 0.389 0.265 0.278 0.081-0.067 0.074-0.101-0.044-0.219zm-3.769-0.344c0.095-0.115-1e-3 -0.197-0.16-0.136-0.115 0.044-0.138 0.112-0.063 0.187 0.07 0.07 0.135 0.055 0.223-0.051zm1.957 0.022c0.033-0.054 0.067-0.054 0.12 0 0.104 0.104 0.184 0.092 0.184-0.028 0-0.056-0.036-0.103-0.08-0.103s-0.06-0.02-0.036-0.044 0.092-4e-3 0.15 0.044 0.126 0.067 0.151 0.042c0.056-0.056-0.525-0.658-0.635-0.658-0.044 0-0.118 0.046-0.165 0.103-0.068 0.082-0.068 0.123 0 0.205 0.047 0.057 0.055 0.103 0.017 0.103-0.118 0-0.238-0.187-0.154-0.239 0.042-0.026 0.054-0.11 0.028-0.193-0.04-0.125-0.031-0.135 0.055-0.063 0.056 0.046 0.122 0.064 0.146 0.04 0.061-0.061-0.087-0.228-0.202-0.228-0.052 0-0.086-0.037-0.077-0.083s-0.052-0.114-0.137-0.153-0.154-0.098-0.154-0.132c0-0.078-0.985-1.067-1.062-1.067-0.088 0-0.373 0.288-0.373 0.377 0 0.122 0.597 0.639 0.662 0.573 0.032-0.032 0.127-0.039 0.213-0.017 0.147 0.039 0.149 0.047 0.039 0.169-0.142 0.156-0.074 0.253 0.085 0.121 0.102-0.085 0.109-0.078 0.066 0.058-0.04 0.125 0.024 0.227 0.354 0.563 0.221 0.226 0.436 0.411 0.478 0.411s0.096 0.062 0.12 0.137c0.048 0.151 0.138 0.177 0.209 0.062zm-0.135-0.448c-0.058-0.151-9e-3 -0.186 0.091-0.066 0.049 0.058 0.055 0.114 0.017 0.138s-0.084-0.01-0.107-0.072zm-0.648-0.338c-0.085-0.097-0.142-0.189-0.127-0.204 0.039-0.039 0.325 0.238 0.325 0.316 0 0.099-0.029 0.082-0.198-0.112zm0.1-0.281c-0.037-0.097-0.029-0.105 0.038-0.038 0.047 0.046 0.068 0.102 0.047 0.123s-0.059-0.017-0.085-0.084zm-1.274-0.883-0.166-0.179 0.161 0.049c0.144 0.044 0.155 0.033 0.11-0.111s-0.039-0.151 0.064-0.064c0.077 0.063 0.092 0.119 0.047 0.164s-0.045 0.111 0 0.194c0.099 0.184-0.024 0.154-0.216-0.053zm0.387 0.067c-0.058-0.151-9e-3 -0.186 0.091-0.066 0.049 0.058 0.055 0.114 0.017 0.138s-0.084-0.01-0.107-0.072zm4.03 1.817c0.025-0.04-9e-3 -0.132-0.075-0.205-0.092-0.102-0.141-0.114-0.213-0.054-0.079 0.065-0.076 0.098 0.021 0.205 0.131 0.144 0.203 0.159 0.267 0.054zm-4.965-0.499c0.059-0.071 0.055-0.113-0.017-0.172s-0.114-0.055-0.178 0.022c-0.083 0.1-0.047 0.243 0.061 0.243 0.031 0 0.091-0.042 0.134-0.093zm5.444 0.021c0.025-0.04-9e-3 -0.132-0.075-0.205-0.092-0.102-0.141-0.114-0.213-0.054-0.079 0.065-0.076 0.098 0.021 0.205 0.131 0.144 0.202 0.159 0.267 0.054zm-6.034-0.758c-0.122-0.122-0.322 0.06-0.212 0.194 0.069 0.083 0.095 0.082 0.186-9e-3 0.08-0.08 0.086-0.124 0.026-0.185zm6.549-0.016c-0.108-0.108-0.158-0.121-0.221-0.058-0.123 0.123 0.13 0.389 0.265 0.278 0.081-0.067 0.074-0.101-0.044-0.219zm-2.841-0.111c0.023-0.038-0.013-0.088-0.081-0.111-0.358-0.121-0.705-0.324-0.799-0.466-0.098-0.149-0.096-0.158 0.021-0.127 0.076 0.02 0.212-0.044 0.345-0.163 0.169-0.151 0.228-0.268 0.255-0.509 0.02-0.176 1e-3 -0.377-0.043-0.459s-0.05-0.147-0.016-0.147c0.081 0 0.145 0.242 0.146 0.547 1e-3 0.285-0.207 0.654-0.404 0.716-0.178 0.057-0.179 0.135-2e-3 0.312l0.139 0.139 0.197-0.141c0.498-0.355 0.68-1.1 0.4-1.642-0.205-0.397-0.453-0.498-0.723-0.296-0.152 0.114-0.186 0.192-0.18 0.406 4e-3 0.146 0.03 0.332 0.058 0.413 0.049 0.145 4e-3 0.211-0.334 0.487-0.092 0.076-0.107 0.065-0.107-0.074 0-0.121 0.037-0.161 0.145-0.156a0.28 0.28 0 0 0 0.222-0.118c0.062-0.1 0.052-0.143-0.054-0.221-0.097-0.072-0.155-0.078-0.222-0.022-0.15 0.124-0.111-0.066 0.079-0.39 0.196-0.335 0.621-0.576 1.014-0.576 0.138 0 0.252-0.032 0.252-0.07 0-0.237-0.747-0.089-1.126 0.224-0.827 0.682-0.609 1.973 0.409 2.417 0.251 0.109 0.355 0.116 0.41 0.026zm0.606-0.632c0.433-0.845 0.118-2.097-0.47-1.872-0.088 0.034-0.082 0.08 0.043 0.319 0.296 0.568 0.235 1.161-0.167 1.618-0.197 0.224-0.203 0.247-0.092 0.329 0.226 0.165 0.471 0.025 0.685-0.394zm-4.886 0.334c0.059-0.071 0.055-0.113-0.017-0.172s-0.114-0.055-0.178 0.022c-0.083 0.1-0.047 0.243 0.061 0.243 0.031 0 0.091-0.042 0.134-0.093zm7.767 0.021c0.025-0.04-9e-3 -0.132-0.075-0.205-0.092-0.102-0.141-0.114-0.213-0.054-0.079 0.065-0.076 0.098 0.021 0.205 0.131 0.144 0.203 0.159 0.267 0.054zm-2.55-0.252c0.344-0.392 0.418-0.937 0.188-1.387-0.163-0.32-0.371-0.379-0.293-0.083 0.093 0.354 0.047 0.931-0.1 1.264-0.135 0.304-0.136 0.325-0.022 0.325 0.067 0 0.169-0.054 0.227-0.12zm-5.096-0.735c0.013-0.038-0.042-0.11-0.122-0.159-0.188-0.118-0.331-2e-3 -0.197 0.16 0.095 0.115 0.281 0.115 0.319-1e-3zm7.665-0.125c0.013-0.066-0.022-0.114-0.081-0.114-0.127 0-0.204 0.111-0.144 0.209s0.198 0.043 0.225-0.095zm-7.127-0.392c0.025-0.04-9e-3 -0.132-0.075-0.205-0.092-0.102-0.141-0.114-0.213-0.054-0.079 0.065-0.076 0.098 0.021 0.205 0.131 0.144 0.202 0.159 0.267 0.054zm6.527-0.101c0.064-0.078 0.067-0.126 0.011-0.182-0.1-0.1-0.294 0.052-0.242 0.19 0.048 0.126 0.121 0.124 0.23-8e-3zm-10.63-0.715v-0.308l-0.58-0.042v0.7l0.58-0.042zm2.071-0.017 0.021-0.325h-0.622v0.692l0.58-0.042zm2.547 0.06c-0.108-0.108-0.158-0.121-0.221-0.058-0.123 0.123 0.13 0.389 0.265 0.278 0.081-0.067 0.074-0.101-0.044-0.219zm5.437 0.063c0.069-0.181-0.045-0.261-0.187-0.132-0.101 0.091-0.111 0.132-0.044 0.174 0.127 0.081 0.189 0.07 0.232-0.042zm-4.79-0.452c0.025-0.04-9e-3 -0.132-0.075-0.205-0.092-0.102-0.141-0.114-0.213-0.054-0.079 0.065-0.076 0.098 0.021 0.205 0.131 0.144 0.202 0.159 0.267 0.054zm4.307-0.194c-0.066-0.107-0.154-0.092-0.202 0.034-0.065 0.169 0.028 0.261 0.146 0.144 0.056-0.056 0.082-0.136 0.056-0.177zm1.931-0.024c0.019-0.235 7e-3 -0.256-0.154-0.256-0.11 0-0.175 0.038-0.175 0.103 0 0.056 0.031 0.103 0.068 0.103s0.068 0.033 0.068 0.073-0.069 0.063-0.154 0.051c-0.12-0.017-0.154-0.066-0.154-0.227 0-0.181 0.026-0.208 0.222-0.226 0.311-0.03 0.301-0.218-0.012-0.218-0.172 0-0.272 0.048-0.376 0.18-0.178 0.226-0.177 0.303 3e-3 0.532 0.117 0.149 0.191 0.18 0.393 0.163 0.233-0.019 0.25-0.036 0.27-0.277zm0.355 0.171c0-0.066 0.093-0.172 0.205-0.236 0.363-0.207 0.214-0.562-0.218-0.52-0.219 0.021-0.227 0.033-0.248 0.355-0.012 0.183-5e-3 0.375 0.015 0.427 0.052 0.136 0.245 0.116 0.246-0.025zm-1e-3 -0.461c0-0.056 0.031-0.103 0.068-0.103s0.068 0.046 0.068 0.103-0.031 0.103-0.068 0.103-0.068-0.046-0.068-0.103zm1.009 0.496c0.095-0.117 0.046-0.674-0.065-0.744-0.223-0.142-0.496 0.015-0.455 0.262a0.35 0.35 0 0 1-0.032 0.208c-0.029 0.046-0.019 0.146 0.021 0.222 0.084 0.157 0.42 0.19 0.532 0.053zm-0.286-0.11c-0.029-0.048-0.035-0.105-0.013-0.128 0.061-0.061 0.128 0.029 0.095 0.128-0.023 0.069-0.039 0.069-0.082 0zm-0.04-0.419c0-0.038 0.031-0.068 0.068-0.068s0.068 0.031 0.068 0.068-0.031 0.068-0.068 0.068-0.068-0.031-0.068-0.068zm-6.798 0.064c0.025-0.04-9e-3 -0.132-0.075-0.205-0.092-0.102-0.141-0.114-0.213-0.054-0.079 0.065-0.076 0.098 0.021 0.205 0.131 0.144 0.202 0.159 0.267 0.054zm3.261-0.279c-0.122-0.122-0.322 0.06-0.212 0.194 0.069 0.083 0.095 0.082 0.186-9e-3 0.08-0.08 0.086-0.124 0.026-0.185zm-2.746-0.494c-0.108-0.108-0.158-0.121-0.221-0.058-0.123 0.123 0.13 0.389 0.265 0.278 0.081-0.067 0.074-0.101-0.044-0.219zm2.171 3e-3c0.013-0.066-0.022-0.114-0.081-0.114-0.127 0-0.204 0.111-0.144 0.209s0.198 0.043 0.225-0.095zm4.099-0.236 0.021-0.361-1.476 0.038-0.021 0.261c-0.034 0.419 0.048 0.464 0.801 0.442l0.656-0.019zm-5.622-0.156c0.025-0.04-9e-3 -0.132-0.075-0.205-0.092-0.102-0.141-0.114-0.213-0.054-0.079 0.065-0.076 0.098 0.021 0.205 0.131 0.144 0.203 0.159 0.267 0.054zm0.922-0.101c0.064-0.078 0.067-0.126 0.011-0.182-0.1-0.1-0.294 0.052-0.242 0.19 0.048 0.126 0.121 0.124 0.23-8e-3zm-7.862-0.339v-0.376h-0.546v0.752h0.546zm1.08-0.017 0.021-0.359h-0.622v0.76l0.58-0.042zm1.025 0 0.021-0.359h-0.622v0.76l0.58-0.042zm3.265-1.127 0.234-0.255v-1.166c0-1.838 0.085-1.775-2.39-1.775h-1.78l-0.51 0.468-0.022 1.162c-0.024 1.301 0.019 1.477 0.418 1.724 0.206 0.127 0.327 0.134 2.018 0.117l1.799-0.019zm-2.5-0.511c-0.34-0.124-0.615-0.568-0.615-0.991 1e-3 -0.612 0.567-1.078 1.183-0.974a1.09 1.09 0 0 1 0.829 0.829c0.065 0.382-0.14 0.854-0.453 1.045-0.219 0.133-0.701 0.179-0.944 0.091zm8.796 0.666c0.399-0.243 0.442-0.42 0.418-1.722l-0.022-1.162-0.51-0.468h-1.781c-2.485 0-2.39-0.067-2.39 1.693 0 1.843-0.071 1.789 2.358 1.791 1.576 1e-3 1.726-9e-3 1.927-0.132zm-2.496-0.753a1.12 1.12 0 0 1-0.453-1.049c0.106-0.627 0.787-1.001 1.387-0.761 0.361 0.144 0.57 0.436 0.61 0.848 0.035 0.36-0.07 0.621-0.355 0.887-0.253 0.237-0.869 0.275-1.189 0.075zm-8.624 0.374c0-0.373-0.112-0.518-0.185-0.239-0.03 0.113-0.093 0.137-0.37 0.137-0.251 0-0.334 0.025-0.334 0.103s0.083 0.103 0.334 0.103c0.276 0 0.34 0.024 0.37 0.137 0.073 0.279 0.185 0.134 0.185-0.239zm12.849 0.273c0-0.064-0.065-0.103-0.171-0.103-0.094 0-0.171-0.027-0.171-0.061s0.077-0.08 0.171-0.104 0.171-0.085 0.171-0.136c0-0.067-0.1-0.093-0.359-0.091-0.437 3e-3 -0.53 0.067-0.53 0.366v0.231h0.444c0.349 0 0.444-0.022 0.444-0.103zm-0.683-0.213c0-0.091 0.019-0.095 0.103-0.026 0.056 0.047 0.103 0.097 0.103 0.111s-0.046 0.026-0.103 0.026-0.103-0.05-0.103-0.111zm-12.314-0.477c0.213-0.149 0.187-0.576-0.04-0.676-0.085-0.037-0.154-0.084-0.154-0.103s0.069-0.066 0.154-0.103c0.122-0.054 0.154-0.123 0.154-0.338 0-0.221-0.033-0.289-0.179-0.371s-0.213-0.086-0.394-0.011c-0.36 0.149-0.371 0.56-0.02 0.72 0.193 0.088 0.187 0.147-0.018 0.199-0.303 0.076-0.319 0.567-0.023 0.709 0.22 0.106 0.341 0.1 0.52-0.025zm-0.509-0.264c-0.056-0.145 0.028-0.242 0.209-0.242 0.207 0 0.339 0.151 0.228 0.261s-0.391 0.1-0.437-0.019zm0-0.888c-0.056-0.145 0.028-0.242 0.209-0.242 0.207 0 0.339 0.151 0.228 0.261s-0.391 0.1-0.437-0.019zm13.387 1.22c0.159-0.048 0.174-0.574 0.017-0.574-0.064 0-0.103 0.065-0.103 0.171 0 0.094-0.031 0.171-0.068 0.171s-0.068-0.062-0.068-0.137-0.046-0.137-0.103-0.137-0.103 0.061-0.103 0.137c0 0.179-0.121 0.177-0.149-3e-3 -0.012-0.077-0.053-0.139-0.09-0.139-0.077 1e-3 -0.131 0.31-0.079 0.447 0.035 0.091 0.52 0.132 0.745 0.064zm-0.278-0.813c0.043-0.094 0.104-0.171 0.135-0.171s0.057 0.077 0.057 0.171c0 0.106 0.039 0.171 0.103 0.171 0.139 0 0.136-0.367-5e-3 -0.508-0.17-0.17-0.224-0.148-0.474 0.2-0.095 0.132-0.098 0.13-0.1-0.051-1e-3 -0.121-0.039-0.188-0.105-0.188-0.126 0-0.141 0.345-0.021 0.465 0.135 0.135 0.326 0.093 0.409-0.089zm0.398-0.786c0-0.197-0.028-0.273-0.103-0.273-0.064 0-0.103 0.065-0.103 0.171 0 0.094-0.031 0.171-0.068 0.171s-0.068-0.077-0.068-0.171c0-0.106-0.039-0.171-0.103-0.171s-0.103 0.065-0.103 0.171c0 0.094-0.031 0.171-0.068 0.171s-0.068-0.077-0.068-0.171c0-0.106-0.039-0.171-0.103-0.171-0.074 0-0.103 0.076-0.103 0.273v0.273h0.888zm-13.098-0.232c0.202-6e-3 0.216-0.023 0.235-0.297l0.021-0.29h-0.448c-0.444 0-0.448 2e-3 -0.448 0.19 0 0.251 0.177 0.5 0.317 0.446 0.06-0.023 0.205-0.045 0.323-0.048zm-0.435-0.275c0-0.06 0.049-0.108 0.108-0.108 0.121 0 0.1 0.147-0.027 0.189-0.045 0.015-0.081-0.022-0.081-0.081zm0.385 0.049c-0.077-0.077-0.047-0.158 0.059-0.158 0.056 0 0.103 0.029 0.103 0.064 0 0.086-0.107 0.148-0.161 0.093zm12.464 0.013c0-0.078 0.084-0.103 0.347-0.103 0.294 0 0.343-0.018 0.323-0.12-0.019-0.095-0.09-0.118-0.347-0.111-0.273 8e-3 -0.323-0.011-0.323-0.12 0-0.071-0.046-0.128-0.103-0.128-0.077 0-0.103 0.084-0.103 0.342s0.025 0.342 0.103 0.342c0.056 0 0.103-0.046 0.103-0.103zm-15.992 12.819c0-0.359 0.024-0.482 0.092-0.482 0.28 0 0.427 0.568 0.199 0.765-0.275 0.236-0.29 0.221-0.29-0.283zm1.073 0.284c-0.229-0.253-0.095-0.711 0.226-0.775 0.225-0.045 0.463 0.079 0.548 0.285 0.077 0.185 0.071 0.232-0.049 0.394-0.175 0.235-0.553 0.285-0.724 0.096zm17.107-0.015c-0.075-0.075-0.137-0.215-0.137-0.311 0-0.21 0.281-0.509 0.478-0.509 0.192 0 0.478 0.297 0.478 0.497 0 0.394-0.538 0.606-0.82 0.324zm1.44-0.043c-0.186-0.236-0.179-0.404 0.026-0.609 0.262-0.262 0.311-0.213 0.311 0.311 0 0.537-0.088 0.615-0.337 0.298zm-19.62-3.165c0-0.359 0.024-0.482 0.092-0.482 0.28 0 0.427 0.568 0.199 0.765-0.275 0.236-0.29 0.221-0.29-0.283zm18.18 0.338c-0.287-0.287-0.073-0.775 0.342-0.775s0.621 0.46 0.339 0.762c-0.176 0.189-0.499 0.195-0.681 0.013zm1.436-0.048c-0.209-0.266-0.102-0.643 0.206-0.724 0.124-0.032 0.134 1e-3 0.134 0.437 0 0.532-0.089 0.607-0.341 0.287zm-18.543-5e-3c-0.331-0.366 0.084-0.959 0.529-0.756a0.59 0.59 0 0 1 0.248 0.276c0.072 0.174 0.065 0.225-0.053 0.384-0.175 0.235-0.553 0.285-0.724 0.096zm-1.073-3.164c0-0.504 0.015-0.519 0.29-0.283a0.47 0.47 0 0 1-0.032 0.659c-0.084 0.059-0.176 0.106-0.205 0.106s-0.053-0.217-0.053-0.482zm1.094 0.346c-0.197-0.197-0.177-0.505 0.043-0.678 0.236-0.186 0.404-0.179 0.609 0.026 0.213 0.213 0.213 0.408 0 0.621-0.203 0.203-0.468 0.216-0.652 0.031zm17.086 0c-0.287-0.287-0.073-0.775 0.342-0.775s0.629 0.487 0.342 0.775a0.55 0.55 0 0 1-0.342 0.137 0.55 0.55 0 0 1-0.342-0.137zm1.436-0.048c-0.209-0.266-0.102-0.643 0.206-0.724 0.124-0.032 0.134 1e-3 0.134 0.437 0 0.532-0.089 0.607-0.341 0.287zm-19.616-3.092c0-0.265 0.024-0.482 0.053-0.482s0.121 0.048 0.205 0.106a0.47 0.47 0 0 1 0.032 0.659c-0.275 0.236-0.29 0.221-0.29-0.283zm1.137 0.333c-0.208-0.164-0.237-0.43-0.071-0.667 0.154-0.22 0.544-0.183 0.732 0.07 0.118 0.159 0.125 0.211 0.053 0.384s-0.314 0.355-0.478 0.355c-0.031 0-0.137-0.064-0.236-0.142zm17.013-0.147c-0.238-0.34-0.026-0.763 0.377-0.751 0.418 0.012 0.623 0.48 0.336 0.767-0.192 0.192-0.575 0.183-0.714-0.015zm1.471-0.028c-0.078-0.099-0.141-0.199-0.141-0.222 4e-3 -0.189 0.117-0.371 0.281-0.457l0.196-0.102v0.48c0 0.539-0.088 0.617-0.337 0.3zm-19.62-2.96c0-0.265 0.024-0.482 0.053-0.482s0.121 0.048 0.205 0.106a0.47 0.47 0 0 1 0.032 0.659c-0.275 0.236-0.29 0.221-0.29-0.283zm1.299 0.425c-0.513-0.185-0.408-0.908 0.132-0.908 0.388 0 0.603 0.527 0.325 0.796a0.52 0.52 0 0 1-0.457 0.112zm17.104-0.072c-0.314-0.052-0.454-0.466-0.253-0.753 0.213-0.304 0.85-0.115 0.85 0.253 0 0.318-0.28 0.552-0.597 0.5zm1.217-0.196c-0.078-0.099-0.142-0.205-0.142-0.236a0.66 0.66 0 0 1 0.315-0.463l0.163-0.074v0.477c0 0.535-0.088 0.613-0.337 0.297zm-19.621-3.1c0-0.273 0.029-0.478 0.068-0.478 0.14 0 0.342 0.28 0.342 0.476 0 0.187-0.216 0.481-0.355 0.481-0.031 0-0.055-0.215-0.055-0.478zm1.142 0.341c-0.35-0.275-0.158-0.819 0.288-0.819 0.136 0 0.247 0.059 0.346 0.185a0.45 0.45 0 0 1-0.634 0.634zm17.05-0.02c-0.204-0.217-0.191-0.482 0.031-0.657 0.236-0.186 0.404-0.179 0.609 0.026s0.212 0.373 0.026 0.609c-0.18 0.228-0.464 0.238-0.667 0.022zm1.454-0.01c-0.092-0.092-0.168-0.232-0.168-0.311 0-0.148 0.281-0.478 0.407-0.478 0.043 0 0.071 0.191 0.071 0.478 0 0.524-0.049 0.573-0.311 0.311zm-1.308-2.704c-0.301-0.12-0.386-0.523-0.158-0.751 0.408-0.408 1.077 0.166 0.701 0.602-0.149 0.172-0.348 0.227-0.542 0.149zm-18.338-0.477c0-0.273 0.029-0.478 0.068-0.478 0.14 0 0.342 0.28 0.342 0.476 0 0.187-0.216 0.481-0.355 0.481-0.031 0-0.055-0.215-0.055-0.478zm1.137 0.337c-0.345-0.271-0.149-0.815 0.293-0.815 0.43 0 0.606 0.551 0.268 0.837-0.186 0.157-0.341 0.151-0.561-0.022zm18.522 0.039c-0.183-0.183-0.204-0.379-0.061-0.572 0.074-0.099 0.185-0.19 0.246-0.202 0.095-0.019 0.112 0.047 0.112 0.427 0 0.474-0.079 0.566-0.298 0.346zm-19.659-3.247c0-0.507 0.048-0.567 0.273-0.342a0.51 0.51 0 0 1 0 0.683c-0.225 0.225-0.273 0.165-0.273-0.342zm1.137 0.337c-0.334-0.262-0.152-0.815 0.267-0.815 0.21 0 0.509 0.281 0.509 0.478 0 0.179-0.292 0.478-0.466 0.478-0.072 0-0.212-0.064-0.311-0.142zm17.074-0.026c-0.203-0.203-0.216-0.468-0.031-0.652 0.282-0.282 0.82-0.07 0.82 0.324 0 0.2-0.286 0.497-0.478 0.497-0.079 0-0.218-0.075-0.311-0.168zm1.563 0.087c-0.082-0.04-0.186-0.162-0.232-0.273-0.072-0.174-0.065-0.226 0.054-0.385 0.075-0.101 0.188-0.194 0.249-0.206 0.096-0.019 0.112 0.049 0.112 0.461l-0.017 0.479a3.07 3.07 0 0 1-0.166-0.077z" fill="#717174"/>
<path d="m0.034 26.074v-1.128c5.686-0.347 13.054-0.048 19.133 0h0.824v2.256h-19.957zm13.943-0.206 0.503-0.888-1.636-0.108-1.636 0.144-0.019 0.819-0.019 1.196-4.03-0.038v-1.153c0-1.12 4e-3 -1.152 0.137-1.118 0.076 0.02 0.137 2e-3 0.137-0.041 0-0.052-0.253-0.076-0.786-0.076l-0.66 0.378-0.126 0.887v1.264h8.135zm-1.64 9e-3c0-1.126 6e-3 -0.924 0.137-0.934s0.137-0.22 0.137 0.888c0 1.092-7e-3 1.151-0.137 1.185s-0.137 2e-3 -0.137-1.139zm-3.32 0.668c0.059-0.023 0.108-0.1 0.108-0.171 0-0.101-0.05-0.129-0.226-0.129-0.285 0-0.39-0.104-0.39-0.387 0-0.258 0.177-0.391 0.434-0.327 0.127 0.032 0.171 9e-3 0.2-0.102 0.087-0.334-0.512-0.352-0.853-0.024-0.326 0.312-0.225 0.953 0.176 1.114 0.177 0.072 0.405 0.082 0.551 0.026zm0.953-0.1c0.202-0.159 0.231-0.345 0.077-0.498-0.064-0.064-0.077-0.119-0.034-0.146 0.124-0.076 0.073-0.366-0.083-0.475-0.28-0.196-0.668-0.118-0.668 0.136 0 0.144 0.023 0.155 0.239 0.12 0.155-0.025 0.239-0.012 0.239 0.038 0 0.043-0.077 0.077-0.171 0.077-0.137 0-0.171 0.034-0.171 0.171s0.034 0.171 0.171 0.171c0.11 0 0.171 0.038 0.171 0.108 0 0.083-0.059 0.103-0.256 0.085-0.219-0.019-0.259-1e-3 -0.277 0.126-0.036 0.25 0.482 0.308 0.764 0.086z" fill="#a12111"/>
<path d="m0.034 26.074v-1.128h0.837c0.71 0 0.871-0.021 1.056-0.134 0.411-0.25 0.577-0.897 0.328-1.276-0.236-0.36-0.474-0.435-1.384-0.435h-0.837v-1.094h0.824c0.914 0 1.115-0.06 1.364-0.411 0.199-0.28 0.199-0.745 0-1.024-0.249-0.35-0.45-0.411-1.364-0.411h-0.824v-0.956h0.794c0.679 0 0.831-0.021 1.048-0.143 0.653-0.367 0.674-1.125 0.045-1.595-0.162-0.121-0.308-0.144-1.038-0.164l-0.85-0.023v-0.946h1.794l0.265-0.265c0.323-0.323 0.374-0.694 0.152-1.122-0.193-0.374-0.445-0.458-1.374-0.458h-0.836v-0.956l0.906-0.011 0.99-8e-3c0.047 2e-3 0.071-0.02 0.053-0.048s0.045-0.122 0.138-0.209c0.415-0.39 0.315-1.126-0.195-1.437-0.184-0.112-0.347-0.133-1.055-0.133h-0.837v-1.074l0.871-0.012c0.938-0.013 1.051-0.05 1.338-0.434 0.172-0.23 0.173-0.657 2e-3 -0.953-0.218-0.377-0.488-0.466-1.408-0.466h-0.803v-0.992h0.849c0.751 0 0.871-0.016 1.038-0.141 0.462-0.345 0.585-0.823 0.326-1.264-0.225-0.383-0.496-0.474-1.409-0.474h-0.804v-0.946l0.85-0.023c0.73-0.019 0.876-0.043 1.038-0.164 0.472-0.353 0.587-0.829 0.31-1.278-0.08-0.129-0.122-0.26-0.095-0.29s0.015-0.035-0.028-0.011-0.166-1e-3 -0.273-0.057c-0.14-0.073-0.421-0.102-0.998-0.102l-0.803-1e-3v-0.684h4.382l-0.106 0.152c-0.081 0.116-0.106 0.335-0.106 0.917 0 0.72 0.01 0.778 0.174 0.972 0.096 0.114 0.234 0.226 0.308 0.249 0.126 0.04 0.134 0.111 0.134 1.161s-8e-3 1.121-0.134 1.161c-0.074 0.023-0.212 0.135-0.308 0.249-0.163 0.194-0.174 0.253-0.174 0.96 0 0.829 0.07 1.041 0.413 1.243 0.237 0.14 0.492 0.142 0.755 6e-3 0.219-0.114 0.471-0.467 0.472-0.663 0-0.066 0.046-0.12 0.103-0.12 0.084 0 0.103 0.122 0.103 0.683 0 0.628 0.011 0.683 0.131 0.683 0.072 0 0.141 0.031 0.154 0.069s0.012-0.27 0-0.683l-0.023-0.753h0.49v0.683c0 0.638 9e-3 0.683 0.137 0.683s0.137-0.046 0.137-0.683v-0.683h0.616v0.683c0 0.638 9e-3 0.683 0.137 0.683s0.137-0.046 0.137-0.683v-0.683h0.616v0.675c0 0.646 7e-3 0.677 0.154 0.705 0.153 0.029 0.154 0.024 0.133-0.693l-0.021-0.723 0.588 0.046-0.044 1.356h0.35v-0.683c0-0.638 9e-3 -0.683 0.137-0.683s0.137 0.046 0.137 0.683v0.683h0.342v-1.366h0.41v1.366h0.35l-0.044-1.368h0.58v1.366h0.171c0.171 0 0.171-1e-3 0.171-0.676v-0.676l0.546-0.052v0.702c0 0.657 9e-3 0.702 0.137 0.702s0.137-0.046 0.137-0.683v-0.683h0.616v0.683c0 0.638 9e-3 0.683 0.137 0.683s0.137-0.046 0.137-0.701v-0.701h0.233c0.214 0 0.236 0.02 0.272 0.243 0.021 0.134 0.115 0.315 0.209 0.403s0.157 0.18 0.142 0.205 0.157 0.044 0.383 0.041c0.386-4e-3 0.426-0.02 0.645-0.259l0.234-0.255v-0.763c0-0.709-0.012-0.779-0.171-0.987-0.094-0.123-0.232-0.243-0.308-0.267-0.129-0.041-0.137-0.103-0.137-1.142 0-0.966 0.014-1.109 0.12-1.189 0.152-0.115 0.245-0.12 0.181-0.01-0.029 0.05-0.023 0.062 0.013 0.028s0.064-0.077 0.065-0.103 0.055-0.144 0.12-0.264c0.16-0.3 0.168-1.558 0.01-1.782l-0.106-0.152h4.379v0.684h-0.837c-0.709 0-0.871 0.021-1.056 0.133-0.465 0.284-0.622 0.832-0.351 1.227 0.317 0.462 0.421 0.499 1.381 0.489l0.863-9e-3v1.098h-0.837c-0.941 0-1.165 0.078-1.419 0.495-0.174 0.286-0.172 0.55 7e-3 0.869 0.248 0.44 0.454 0.516 1.412 0.516h0.837v0.922l-0.803 0.013-0.952 0.015c-0.082 1e-3 -0.145 0.018-0.14 0.038s-0.088 0.139-0.208 0.264a0.91 0.91 0 0 0 0.347 1.511c0.106 0.04 0.544 0.073 0.974 0.073h0.782v0.946l-0.917 0.022c-0.869 0.021-0.927 0.031-1.1 0.193-0.504 0.471-0.49 1.017 0.038 1.461 0.205 0.173 0.243 0.179 1.096 0.179h0.883v0.956h-0.883c-0.853 0-0.891 6e-3 -1.096 0.179-0.528 0.444-0.542 0.99-0.038 1.461 0.173 0.162 0.231 0.172 1.1 0.193l0.917 0.022v1.082h-0.883c-0.853 0-0.891 6e-3 -1.096 0.179-0.549 0.462-0.54 1.064 0.021 1.492 0.217 0.166 0.272 0.174 1.094 0.174h0.865v0.992h-0.849c-0.945 0-1.071 0.047-1.395 0.519-0.271 0.395-0.114 0.943 0.351 1.227 0.185 0.113 0.346 0.133 1.056 0.133h0.837v0.942l-0.837 0.024c-0.722 0.021-0.871 0.045-1.083 0.177-0.472 0.293-0.593 0.921-0.259 1.345 0.254 0.323 0.462 0.381 1.356 0.381h0.824v2.256h-19.959zm13.943-0.205v-1.264h-0.824c-0.606 0-0.811 0.021-0.775 0.079 0.032 0.051 0.019 0.06-0.038 0.025-0.048-0.029-1.529-0.058-3.291-0.064l-3.204-0.01v2.498h8.132zm-6.807 0 0.023-0.601v1.162c-0.013 0.331-0.023 0.079-0.023-0.56zm3.964 0 0.023-0.601v1.162c-0.013 0.331-0.023 0.079-0.023-0.56zm-2.437 0.741c0.047-0.019 0.124-0.019 0.171 0s9e-3 0.034-0.085 0.034-0.132-0.016-0.085-0.034zm0.787-2e-3a0.39 0.39 0 0 1 0.205 3e-3c0.046 0.019-8e-3 0.033-0.121 0.032s-0.151-0.017-0.084-0.034zm-1.278-0.221c-0.105-0.11-0.175-0.24-0.155-0.29 0.025-0.063 0.038-0.057 0.042 0.023 3e-3 0.062 0.1 0.193 0.216 0.29s0.183 0.177 0.149 0.177-0.147-0.09-0.252-0.2zm1.669 0.131a0.41 0.41 0 0 1 0.171-0.066c0.038 0 0.022 0.03-0.034 0.066a0.41 0.41 0 0 1-0.171 0.066c-0.038 0-0.022-0.03 0.034-0.066zm-0.741-0.137c0-0.094 0.016-0.132 0.034-0.085s0.019 0.124 0 0.171-0.034 9e-3 -0.034-0.085zm0.995-0.155c0.019-0.097-0.013-0.21-0.077-0.274-0.075-0.075-0.085-0.124-0.034-0.156 0.041-0.026 0.063-0.134 0.047-0.24s-1e-3 -0.176 0.032-0.156 0.053 0.134 0.043 0.253 8e-3 0.302 0.038 0.408c0.034 0.116 0.028 0.22-0.013 0.261s-0.058 0.014-0.037-0.097zm-1.548-0.08c-0.11-0.132-0.064-0.534 0.065-0.568 0.081-0.022 0.083-0.014 0.012 0.036-0.054 0.038-0.081 0.158-0.068 0.296 0.02 0.206 0.049 0.237 0.261 0.274l0.239 0.042-0.214 9e-3c-0.118 5e-3 -0.25-0.035-0.295-0.089zm0.748 0.029c-0.073-0.048-0.035-0.057 0.137-0.032 0.184 0.027 0.208 0.02 0.103-0.029-0.131-0.062-0.131-0.065 0.017-0.07 0.093-3e-3 0.154 0.036 0.154 0.098 0 0.117-0.252 0.137-0.41 0.033zm5e-3 -0.312c3e-3 -0.08 0.019-0.096 0.041-0.041 0.02 0.049 0.017 0.108-5e-3 0.131s-0.039-0.018-0.036-0.09zm-1.304-0.195c0-0.054 0.028-0.116 0.062-0.137s0.046 0.023 0.026 0.098c-0.042 0.16-0.088 0.18-0.088 0.038zm1.367-0.038c0.134-0.086 0.273-0.086 0.273 0 0 0.038-0.085 0.068-0.188 0.067-0.146-1e-3 -0.165-0.016-0.085-0.067zm-0.423-0.047c0.049-0.02 0.108-0.017 0.131 5e-3s-0.018 0.039-0.09 0.036c-0.08-3e-3 -0.096-0.019-0.041-0.041zm0.177-0.101c-0.075-0.122 0.234-0.332 0.476-0.323l0.215 8e-3 -0.242 0.047c-0.318 0.062-0.41 0.125-0.363 0.247s-0.015 0.134-0.085 0.021zm-0.847-0.188c0.094-0.077 0.202-0.14 0.239-0.14 0.073-1e-3 -0.05 0.094-0.273 0.209-0.091 0.047-0.079 0.024 0.034-0.069zm-2.753-0.279c6e-3 -0.075-0.016-0.137-0.048-0.137-0.046 0-0.049 0.118-7e-3 0.256 0.018 0.058 0.046-3e-3 0.055-0.12zm0.67-1.501c-0.022-0.036-0.086-0.048-0.141-0.027-0.141 0.054-0.125 0.092 0.04 0.092 0.077 0 0.123-0.029 0.1-0.065zm4.133-0.029c0-0.014-0.054-0.068-0.12-0.12-0.108-0.085-0.111-0.083-0.026 0.026 0.089 0.114 0.145 0.15 0.145 0.094zm-3.704-0.193c0.116-0.116 0.116-2.659 0-2.775s-3.342-0.117-3.458 0-0.116 2.659 0 2.775 3.342 0.117 3.458 0zm3.657-0.129c0.107 0.107 0.256 0.092 0.401-0.038 0.116-0.105 0.134-0.105 0.257 7e-3 0.138 0.125 0.278 0.095 0.278-0.06 0-0.05-0.047-0.129-0.105-0.177-0.093-0.077-0.083-0.11 0.081-0.281s0.197-0.184 0.3-0.09c0.063 0.057 0.165 0.084 0.227 0.061 0.141-0.054 0.141-0.089-3e-3 -0.248-0.109-0.121-0.106-0.137 0.066-0.309s0.186-0.177 0.316-0.059c0.227 0.205 0.386-3e-3 0.178-0.233-0.092-0.102-0.085-0.129 0.066-0.272 0.139-0.131 0.187-0.144 0.273-0.072 0.057 0.047 0.09 0.108 0.074 0.135s0.038 0.044 0.12 0.038c0.188-0.014 0.2-0.159 0.029-0.353-0.129-0.147-0.129-0.149 0.049-0.265 0.167-0.109 0.188-0.11 0.304-4e-3s0.134 0.103 0.213 8e-3c0.072-0.087 0.066-0.129-0.037-0.244-0.122-0.134-0.12-0.143 0.061-0.323 0.153-0.153 0.197-0.168 0.248-0.086 0.034 0.055 0.051 0.116 0.039 0.137s0.045 0.037 0.128 0.037c0.187 0 0.222-0.225 0.055-0.349-0.107-0.078-0.1-0.103 0.084-0.295s0.212-0.199 0.313-0.108c0.062 0.056 0.148 0.102 0.19 0.102 0.092 0 0.248-0.267 0.191-0.325-0.022-0.022-0.04 3e-3 -0.04 0.055 0 0.076-0.021 0.074-0.105-0.01-0.093-0.093-0.093-0.127-4e-3 -0.3 0.073-0.141 0.082-0.231 0.032-0.324s-0.046-0.157 5e-3 -0.219c0.104-0.126-0.102-0.302-0.218-0.186s-0.49-0.248-0.384-0.377c0.113-0.136-0.058-0.329-0.193-0.217-0.078 0.065-0.134 0.044-0.281-0.104s-0.165-0.197-0.09-0.243c0.111-0.069 0.056-0.18-0.14-0.285-0.089-0.048-0.125-0.049-0.098-5e-3 0.083 0.135-0.078 0.144-0.198 0.011-0.093-0.103-0.103-0.155-0.042-0.229 0.11-0.133-0.085-0.302-0.219-0.191-0.128 0.106-0.494-0.267-0.377-0.384s-0.062-0.321-0.195-0.211c-0.078 0.065-0.134 0.044-0.281-0.104-0.155-0.156-0.168-0.195-0.082-0.248s0.088-0.078-0.014-0.18c-0.09-0.09-0.138-0.098-0.211-0.037-0.129 0.107-0.4-0.179-0.375-0.394 0.013-0.109-0.029-0.173-0.139-0.216-0.095-0.036-0.142-0.035-0.118 3e-3s-0.057 0.048-0.19 0.026c-0.161-0.026-0.263-3e-3 -0.343 0.077-0.101 0.101-0.138 0.09-0.127-0.035 6e-3 -0.07-0.322-0.063-0.366 8e-3 -0.024 0.039 9e-3 0.131 0.075 0.203 0.114 0.126 0.111 0.138-0.077 0.286-0.235 0.185-0.34 0.196-0.327 0.037 8e-3 -0.1-0.012-0.106-0.137-0.037-0.08 0.045-0.17 0.074-0.2 0.066-0.071-0.02 0.068 0.239 0.158 0.295 0.038 0.023 0.051 0.072 0.029 0.107s-0.069 0.047-0.105 0.024-0.06-0.015-0.053 0.016-0.012 0.111-0.041 0.179c-0.048 0.109-0.066 0.112-0.167 0.02-0.126-0.114-0.43-0.121-0.367-9e-3a1.52 1.52 0 0 0 0.138 0.185c0.086 0.1 0.08 0.132-0.05 0.262s-0.162 0.136-0.262 0.05c-0.063-0.054-0.146-0.116-0.185-0.137-0.11-0.062-0.109 0.268 1e-3 0.359 0.083 0.069 0.07 0.106-0.087 0.241-0.171 0.147-0.194 0.151-0.307 0.05s-0.131-0.1-0.236 5e-3 -0.106 0.121 0.015 0.209 0.124 0.101-0.048 0.306c-0.141 0.167-0.193 0.193-0.252 0.122-0.041-0.049-0.056-0.108-0.034-0.13s-0.025-0.023-0.104-3e-3c-0.208 0.055-0.241 0.148-0.104 0.299 0.109 0.121 0.09 0.165-0.06 0.139-0.031-5e-3 -0.036 0.024-0.01 0.065s-0.011 0.116-0.08 0.167c-0.103 0.075-0.146 0.076-0.229 6e-3 -0.128-0.109-0.325-0.218-0.257-0.142 0.028 0.031 0.02 0.093-0.017 0.137-0.047 0.056-0.026 0.119 0.066 0.202 0.121 0.109 0.123 0.131 0.027 0.227-0.077 0.077-0.095 0.179-0.065 0.368 0.023 0.144 0.014 0.262-0.02 0.262s-0.079 0.046-0.101 0.102-0.017 0.096 0.01 0.088 0.116 0.024 0.198 0.069c0.113 0.063 0.162 0.064 0.199 4e-3 0.03-0.049 0.019-0.061-0.03-0.03-0.043 0.027-0.079 0.016-0.079-0.024 0-0.128 0.177-0.077 0.342 0.098 0.139 0.148 0.139 0.194 0 0.185-0.019-1e-3 -0.034 0.067-0.034 0.151 0 0.164 0.143 0.207 0.294 0.087 0.066-0.052 0.137-0.023 0.268 0.108 0.153 0.153 0.165 0.195 0.088 0.288-0.128 0.155 0.018 0.306 0.189 0.195 0.095-0.062 0.153-0.044 0.301 0.095s0.17 0.193 0.104 0.299c-0.111 0.178 0.033 0.33 0.189 0.2 0.089-0.074 0.129-0.068 0.24 0.033 0.074 0.067 0.115 0.151 0.093 0.188s-0.058 0.039-0.087-8e-3c-0.025-0.041-0.046 0.037-0.046 0.174s0.012 0.213 0.026 0.169 0.056-0.061 0.092-0.039 0.112 2e-3 0.169-0.045c0.086-0.071 0.134-0.055 0.282 0.093s0.165 0.195 0.088 0.288c-0.132 0.159 0.018 0.304 0.198 0.192 0.106-0.066 0.158-0.047 0.319 0.121 0.171 0.178 0.175 0.233 0.015 0.209-0.027-4e-3 -0.021 0.066 0.013 0.156s0.041 0.188 0.015 0.218 0.041 0 0.148-0.068c0.141-0.089 0.216-0.102 0.27-0.048zm-3.233-0.103c0-0.052-0.054-0.093-0.12-0.09-0.076 3e-3 -0.087 0.018-0.031 0.041 0.069 0.027 0.07 0.057 7e-3 0.133s-0.059 0.089 0.031 0.054c0.062-0.024 0.112-0.086 0.112-0.138zm10.707 0.08c-0.021-0.054-1e-3 -0.113 0.044-0.131s0.051-0.035 0.013-0.038-0.114 0.026-0.171 0.063c-0.091 0.06-0.091 0.075 0 0.135 0.139 0.091 0.158 0.086 0.114-0.029zm-2.695-0.671-0.053-0.518c-0.05-0.059-0.28-0.055-0.356 5e-3 -0.058 0.046-0.118 0.041-0.185-0.014-0.055-0.045-0.162-0.062-0.239-0.038-0.12 0.038-0.14 0.101-0.14 0.444 0 0.428 0.059 0.501 0.325 0.403 0.085-0.031 0.223-0.031 0.308 0s0.197 0.042 0.25 0.023c0.067-0.023 0.083 1e-3 0.053 0.078-0.024 0.062-0.017 0.112 0.014 0.112s0.042-0.223 0.023-0.496zm0.936-0.517-0.011-0.731-0.77 0.068v1.436l0.273 0.037c0.491 0.067 0.52 0.02 0.508-0.811zm-13.278 0.517c-0.019-0.047-0.034-9e-3 -0.034 0.085s0.016 0.132 0.034 0.085 0.019-0.124 0-0.171zm16.951 0.073c-0.022-0.055-0.038-0.038-0.041 0.041-3e-3 0.072 0.013 0.112 0.036 0.09s0.025-0.082 5e-3 -0.131zm-10.614-0.367c0.023-0.061 0.012-0.088-0.027-0.064s-0.068 0.071-0.068 0.106c0 0.098 0.049 0.077 0.094-0.042zm-7.426-0.072c-0.023-0.023-0.082-0.025-0.131-5e-3 -0.055 0.022-0.038 0.038 0.041 0.041 0.072 3e-3 0.112-0.013 0.09-0.036zm0.497-0.016c0-0.031-0.046-0.057-0.103-0.057s-0.103 0.026-0.103 0.057 0.046 0.057 0.103 0.057 0.103-0.026 0.103-0.057zm12.678-0.353c0.023-0.038 0.01-0.068-0.03-0.068s-0.072 0.031-0.072 0.068 0.014 0.068 0.03 0.068 0.049-0.031 0.072-0.068zm1.164-0.67c-0.021-0.021-0.076 0-0.123 0.047-0.067 0.067-0.059 0.075 0.038 0.038 0.067-0.026 0.105-0.064 0.084-0.085zm-2.428-0.423c0-0.038-0.033-0.068-0.072-0.068s-0.053 0.031-0.03 0.068 0.056 0.068 0.072 0.068 0.03-0.031 0.03-0.068zm-6.619-0.158c-0.043-0.051-0.062-0.108-0.044-0.127s-0.01-0.034-0.064-0.034c-0.079 0-0.076 0.029 0.017 0.153 0.063 0.084 0.126 0.141 0.141 0.127s-8e-3 -0.068-0.051-0.119zm-4.931-0.381c0-0.034-0.041-0.077-0.091-0.096s-0.091 8e-3 -0.091 0.061 0.041 0.096 0.091 0.096 0.091-0.027 0.091-0.061zm-0.547-0.127c0-0.028-0.161-0.042-0.359-0.032-0.602 0.033-0.659 0.064-0.137 0.073 0.273 5e-3 0.496-0.014 0.496-0.042zm-0.994-0.149c0.022-0.035 0.013-0.08-0.019-0.1s-0.058 9e-3 -0.058 0.064c0 0.115 0.022 0.125 0.077 0.036zm19.357-0.428c-0.022-0.055-0.038-0.038-0.041 0.041-3e-3 0.072 0.013 0.112 0.036 0.09s0.025-0.082 5e-3 -0.131zm-17.996-0.093c0.023-0.061 0.012-0.088-0.027-0.064s-0.068 0.071-0.068 0.106c0 0.098 0.049 0.077 0.094-0.042zm0.817-1.142c-0.057-0.092-0.16 0.019-0.16 0.171 0 0.142 2e-3 0.143 0.096 0.014 0.053-0.073 0.082-0.156 0.064-0.185zm14.854-0.064c-0.022-0.055-0.038-0.038-0.041 0.041-3e-3 0.072 0.013 0.112 0.036 0.09s0.025-0.082 5e-3 -0.131zm-14.709-0.199c0.019-0.019-0.04-0.034-0.13-0.034s-0.151 0.022-0.134 0.049c0.032 0.052 0.208 0.042 0.264-0.015zm2.368-0.13h0.268v-0.291c0-0.237 0.029-0.304 0.154-0.359 0.147-0.065 0.154-0.103 0.154-0.888s-7e-3 -0.823-0.154-0.888c-0.132-0.058-0.154-0.12-0.154-0.431v-0.363l-0.65 0.042-0.021 0.359c-0.019 0.333-0.033 0.359-0.194 0.359-0.168 0-0.173-0.012-0.15-0.393l0.023-0.393-0.718 0.046v0.362c0 0.331-0.014 0.364-0.171 0.394-0.167 0.032-0.171 0.023-0.171-0.368v-0.401h-0.682v0.376c0 0.274-0.026 0.376-0.095 0.376-0.137 0-0.177 0.221-0.178 1-1e-3 0.524 0.023 0.712 0.099 0.775 0.055 0.045 0.132 0.063 0.171 0.039 0.046-0.028 0.071 0.079 0.071 0.302v0.346h0.616v-0.65l1.422 0.042v0.252c0 0.139-0.035 0.296-0.079 0.35-0.064 0.08-0.056 0.09 0.046 0.051a1.47 1.47 0 0 1 0.393-0.047zm-2.685-0.164c-0.048-0.053-0.099-0.085-0.112-0.073-0.041 0.039 0.062 0.169 0.133 0.169 0.037 0 0.027-0.043-0.021-0.096zm-0.464-0.314c0-0.038-0.069-0.066-0.154-0.064-0.147 5e-3 -0.148 7e-3 -0.017 0.064l0.154 0.064c9e-3 3e-3 0.017-0.026 0.017-0.064zm13.191-0.281c0-0.071 0.046-0.129 0.103-0.129s0.161-0.059 0.234-0.131c0.158-0.158 0.234-0.111 0.121 0.074-0.069 0.113-0.056 0.154 0.084 0.269 0.091 0.074 0.206 0.119 0.256 0.098 0.313-0.128 0.318-0.128 0.263-0.038-0.035 0.057-0.029 0.074 0.016 0.046s0.052-0.133 0.016-0.293a0.85 0.85 0 0 1 7e-3 -0.414c0.039-0.102 0.039-0.151-1e-3 -0.126s-0.083 8e-3 -0.106-0.03c-0.066-0.107-0.444-0.083-0.488 0.03-0.032 0.083-0.071 0.075-0.232-0.043-0.136-0.1-0.246-0.13-0.37-0.099-0.166 0.042-0.177 0.071-0.188 0.504-9e-3 0.333-0.019 0.38-0.038 0.17-0.024-0.27-0.04-0.29-0.227-0.29-0.157 0-0.201 0.031-0.201 0.141 0 0.077 0.031 0.122 0.068 0.098s0.068-0.01 0.068 0.03c0 0.106-0.107 0.088-0.21-0.036-0.128-0.155 6e-3 -0.335 0.251-0.338 0.128-2e-3 0.204-0.042 0.219-0.117 0.033-0.17-0.27-0.222-0.525-0.09a0.45 0.45 0 0 0-0.205 0.649c0.079 0.142 0.163 0.182 0.438 0.21 0.475 0.048 0.647 9e-3 0.647-0.145zm0.683-0.129c0-0.038 0.031-0.068 0.068-0.068s0.068 0.031 0.068 0.068-0.031 0.068-0.068 0.068-0.068-0.031-0.068-0.068zm-0.683-0.342c0-0.038 0.031-0.068 0.068-0.068s0.068 0.031 0.068 0.068-0.031 0.068-0.068 0.068-0.068-0.031-0.068-0.068zm0.718 0c-0.023-0.038-0.01-0.068 0.03-0.068s0.072 0.031 0.072 0.068-0.014 0.068-0.03 0.068-0.049-0.031-0.072-0.068zm1.857-0.236c0-0.055-0.026-0.083-0.058-0.064s-0.04 0.065-0.019 0.1c0.055 0.089 0.077 0.079 0.077-0.036zm-1.864-0.419c0.07-0.181 0.046-0.543-0.041-0.63s-1.18-0.118-1.382-0.041c-0.077 0.03-0.108 0.133-0.108 0.365 0 0.178 0.021 0.344 0.046 0.369s0.36 0.046 0.744 0.046c0.574 0 0.706-0.019 0.74-0.108zm1.592-0.657c-0.022-0.055-0.038-0.038-0.041 0.041-3e-3 0.072 0.013 0.112 0.036 0.09s0.025-0.082 5e-3 -0.131zm-3.191-0.359c0-0.017-0.031-0.049-0.068-0.072s-0.068-0.01-0.068 0.03 0.031 0.072 0.068 0.072 0.068-0.014 0.068-0.03zm3.349-0.353c0-0.057-0.133-0.089-0.163-0.039-0.02 0.032 9e-3 0.058 0.064 0.058s0.1-8e-3 0.1-0.019zm-15.999-0.124c-0.06-0.06-1.5-0.091-1.536-0.032-0.021 0.035 0.309 0.061 0.764 0.061l0.773-0.029zm6.971-0.42c0.308-0.259 0.362-0.538 0.336-1.75-0.022-1.033-0.029-1.078-0.193-1.256-0.319-0.346-0.478-0.372-2.221-0.372-1.773 0-1.952 0.032-2.211 0.396-0.137 0.192-0.147 0.288-0.146 1.392 0 1.057 0.015 1.207 0.133 1.386 0.073 0.11 0.114 0.231 0.092 0.267s-6e-3 0.044 0.038 0.018 0.132-0.017 0.199 0.022c0.074 0.043 0.827 0.071 1.943 0.072l1.823 2e-3zm6.355 0.067c0.377-0.223 0.417-0.38 0.417-1.644 0-1.031-0.015-1.175-0.137-1.376-0.075-0.123-0.183-0.242-0.239-0.263s-0.087-0.063-0.069-0.092-0.78-0.058-1.774-0.065c-1.92-0.013-2.023 2e-3 -2.319 0.329-0.071 0.078-0.15 0.129-0.177 0.112s-0.055 0.52-0.064 1.192c-0.016 1.267 0.021 1.479 0.296 1.707 0.058 0.049 0.091 0.113 0.072 0.143s0.828 0.059 1.882 0.063c1.68 8e-3 1.94-6e-3 2.11-0.106zm-11.054-0.386c-0.018-0.301-0.048-0.393-0.13-0.393-0.095 0-0.094-0.014 6e-3 -0.125 0.161-0.178 0.14-0.391-0.055-0.544l-0.168-0.132 0.168-0.158c0.202-0.19 0.216-0.412 0.035-0.575-0.132-0.119-0.132-0.122 5e-3 -0.308 0.085-0.115 0.13-0.264 0.116-0.386-0.022-0.194-0.031-0.198-0.484-0.218l-0.461-0.02v0.31c0 0.233 0.033 0.331 0.132 0.393 0.131 0.082 0.131 0.084 0 0.175-0.19 0.133-0.179 0.523 0.02 0.662l0.152 0.106-0.152 0.106c-0.106 0.074-0.152 0.176-0.152 0.338 0 0.269 0.195 0.444 0.494 0.444 0.106 0 0.19 0.038 0.19 0.085 0 0.06-0.101 0.078-0.342 0.062-0.328-0.023-0.342-0.017-0.342 0.154s0.019 0.177 0.342 0.177c0.249 0 0.342 0.026 0.342 0.097 0 0.053-0.038 0.11-0.085 0.125s0.022 0.026 0.154 0.023l0.239-6e-3zm-0.694-0.664c-0.09-0.058-0.089-0.08 9e-3 -0.178 0.14-0.14 0.418-0.071 0.387 0.096-0.025 0.132-0.248 0.178-0.396 0.082zm8e-3 -0.916c-0.106-0.128 0.074-0.275 0.263-0.215 0.166 0.053 0.185 0.208 0.032 0.267-0.158 0.061-0.208 0.052-0.294-0.052zm0.164-0.591c0.024-0.038 0.072-0.052 0.107-0.03 0.095 0.059 0.077 0.1-0.043 0.1-0.059 0-0.087-0.031-0.064-0.069zm-0.206-0.272c-0.023-0.038-0.01-0.068 0.03-0.068s0.072 0.031 0.072 0.068-0.014 0.068-0.03 0.068-0.049-0.031-0.072-0.068zm13.498 2.734c0-0.075 0.035-0.137 0.077-0.137 0.054 0 0.053-0.029-5e-3 -0.098-0.045-0.054-0.076-0.154-0.069-0.222 0.042-0.403-9e-3 -0.773-0.105-0.773-0.064 0-0.103 0.065-0.103 0.171 0 0.094-0.033 0.171-0.073 0.171s-0.063-0.085-0.051-0.188c0.015-0.133 0.065-0.194 0.172-0.209 0.202-0.029 0.263-0.252 0.127-0.46-0.144-0.22-0.334-0.212-0.516 0.02-0.136 0.173-0.145 0.176-0.115 0.034 0.025-0.116 2e-3 -0.154-0.093-0.154-0.069 0-0.146 0.033-0.171 0.072-0.076 0.123 0.031 0.398 0.188 0.482 0.132 0.071 0.172 0.053 0.341-0.149 0.105-0.126 0.191-0.194 0.191-0.152a0.38 0.38 0 0 1-0.256 0.368c-0.124 0.047-0.16 0.101-0.134 0.2 0.019 0.075 8e-3 0.135-0.027 0.135s-0.062-0.077-0.062-0.171c0-0.295-0.188-0.203-0.217 0.106-0.015 0.152-0.013 0.291 4e-3 0.308s0.218 0.033 0.446 0.036c0.286 4e-3 0.362 0.021 0.245 0.054-0.201 0.057-0.703 0.043-0.832-0.024-0.05-0.026-0.033 1e-3 0.038 0.058 0.077 0.063 0.111 0.149 0.085 0.216-0.023 0.061-0.024 0.186-1e-3 0.277 0.039 0.153 0.073 0.165 0.478 0.165 0.391 0 0.437-0.014 0.437-0.137zm-0.683-0.205c0-0.038 0.031-0.068 0.068-0.068s0.068 0.031 0.068 0.068-0.031 0.068-0.068 0.068-0.068-0.031-0.068-0.068zm0.376 0c0.023-0.038 0.102-0.068 0.175-0.068s0.133 0.031 0.133 0.068-0.079 0.068-0.175 0.068-0.157-0.03-0.133-0.068zm2.613-0.11c-0.023-0.023-0.082-0.025-0.131-5e-3 -0.055 0.022-0.038 0.038 0.041 0.041 0.072 3e-3 0.112-0.013 0.09-0.036zm-16.609-0.196c0.029-0.032 0.017-0.038-0.026-0.013s-0.092 8e-3 -0.107-0.037c-0.018-0.054-0.042-0.044-0.069 0.027-0.044 0.115 0.103 0.132 0.203 0.023zm1.599-0.26c-0.067-0.067-0.075-0.059-0.038 0.038 0.026 0.067 0.064 0.105 0.085 0.084s0-0.076-0.047-0.123zm6.393-0.819c-0.019-0.047-0.034-9e-3 -0.034 0.085s0.016 0.132 0.034 0.085 0.019-0.124 0-0.171zm-6.493 0.054c0-0.055-0.026-0.083-0.058-0.064s-0.04 0.065-0.019 0.1c0.055 0.089 0.077 0.079 0.077-0.036zm13.701-0.293c0.085-0.108 0.083-0.111-0.026-0.026-0.066 0.052-0.12 0.105-0.12 0.12 0 0.056 0.056 0.02 0.145-0.094zm-15.25-0.111c0-0.014-0.054-0.068-0.12-0.12-0.108-0.085-0.111-0.083-0.026 0.026 0.089 0.114 0.145 0.15 0.145 0.094zm14.364-0.38c0.02-0.281 7e-3 -0.32-0.096-0.293-0.072 0.019-0.12 0.097-0.12 0.194 0 0.09-0.031 0.163-0.068 0.163s-0.068-0.062-0.068-0.137c0-0.094-0.046-0.137-0.145-0.137-0.111 0-0.136 0.032-0.109 0.137 0.02 0.075 8e-3 0.137-0.026 0.137s-0.062-0.123-0.062-0.273v-0.273h0.342c0.296 0 0.342-0.018 0.342-0.137s-0.046-0.137-0.342-0.137c-0.258 0-0.342-0.025-0.342-0.103 0-0.056-0.046-0.103-0.103-0.103-0.104 0-0.107 0.02-0.12 0.923-5e-3 0.325 5e-3 0.343 0.192 0.376a2.05 2.05 0 0 0 0.45 0.01c0.248-0.024 0.252-0.029 0.275-0.348zm-12.723 0.037c0-0.015-0.048-0.045-0.106-0.068s-0.088-0.012-0.064 0.027c0.04 0.065 0.17 0.096 0.17 0.041zm13.783-0.064c0-0.05-0.041-0.091-0.09-0.091-0.067 0-0.071 0.023-0.014 0.091a0.43 0.43 0 0 0 0.09 0.091c8e-3 0 0.014-0.041 0.014-0.091zm1.751-0.096c-0.233-0.013-0.633-0.013-0.888 0s-0.064 0.024 0.424 0.024 0.698-0.011 0.464-0.024zm-18.191-0.72c-0.067-0.067-0.075-0.059-0.038 0.038 0.026 0.067 0.064 0.105 0.085 0.084s0-0.076-0.047-0.123zm9.499-0.036c-0.042-0.014-0.056-0.061-0.031-0.105s0.02-0.056-0.012-0.027-0.062 0.113-0.068 0.187c-8e-3 0.109 8e-3 0.119 0.089 0.052 0.065-0.054 0.072-0.09 0.022-0.107zm7.682 0.055a0.16 0.16 0 0 0-0.124-0.067c-0.049 1e-3 -0.04 0.027 0.021 0.067 0.131 0.085 0.155 0.085 0.103 0zm-9.842-0.29c0.031 0.028 0.034 0.012 7e-3 -0.035-0.068-0.118-0.155-0.107-0.206 0.027-0.034 0.089-0.023 0.096 0.05 0.035 0.051-0.043 0.118-0.055 0.149-0.027zm-0.923-0.09c0-0.059-0.031-0.087-0.069-0.064s-0.052 0.072-0.03 0.107c0.059 0.095 0.1 0.077 0.1-0.043zm0.547 0.038c0-0.038-0.033-0.068-0.072-0.068s-0.053 0.031-0.03 0.068 0.056 0.068 0.072 0.068 0.03-0.031 0.03-0.068zm3.168 0.016c0.017-0.028-0.058-0.053-0.167-0.057s-0.198 0.012-0.198 0.036c0 0.062 0.329 0.081 0.366 0.021zm3.257 0.011c0-0.057-0.133-0.089-0.163-0.039-0.02 0.032 9e-3 0.058 0.064 0.058s0.1-8e-3 0.1-0.019zm-11.261-0.073c-0.046-0.019-0.139-0.02-0.205-3e-3s-0.029 0.033 0.084 0.034 0.167-0.013 0.121-0.032zm-0.93-0.792c-0.019-0.047-0.034-9e-3 -0.034 0.085s0.016 0.132 0.034 0.085 0.019-0.124 0-0.171zm14.968-0.137c-0.019-0.047-0.034-9e-3 -0.034 0.085s0.015 0.132 0.034 0.085 0.019-0.124 0-0.171zm2.056-0.853c-0.179-0.014-0.471-0.014-0.649 0s-0.032 0.026 0.325 0.026 0.503-0.012 0.325-0.026zm-17.61-0.66c-0.061-0.073-0.055-0.104 0.026-0.135 0.057-0.022 0.104-5e-3 0.104 0.038s0.018 0.059 0.041 0.037c0.096-0.096-0.051-0.186-0.186-0.114-0.109 0.059-0.121 0.093-0.056 0.171 0.045 0.054 0.097 0.098 0.115 0.098s-1e-3 -0.043-0.044-0.095zm-0.435-0.083c-0.023-0.023-0.082-0.025-0.131-5e-3 -0.055 0.022-0.038 0.038 0.041 0.041 0.072 3e-3 0.112-0.013 0.09-0.036zm15.99-1.202c-0.022-0.055-0.038-0.038-0.041 0.041-3e-3 0.072 0.013 0.112 0.036 0.09s0.025-0.082 5e-3 -0.131zm-15.84-0.904c-0.054-0.052-1.488-0.073-1.539-0.022-0.028 0.028 0.313 0.051 0.758 0.051l0.78-0.028zm-9e-3 -0.755c0.021-0.021-0.308-0.037-0.73-0.037s-0.752 0.024-0.734 0.054c0.037 0.059 1.403 0.044 1.464-0.017zm18.195 0.031c0-0.038-0.031-0.068-0.068-0.068s-0.068 0.031-0.068 0.068 0.031 0.068 0.068 0.068 0.068-0.031 0.068-0.068zm-17.155-1.029c0-0.04-0.036-0.05-0.08-0.023-0.054 0.033-0.066 0.012-0.036-0.064 0.024-0.063 0.014-0.114-0.023-0.114s-0.066 0.062-0.066 0.137 0.046 0.137 0.103 0.137 0.103-0.033 0.103-0.072zm14.81-0.252c-0.017-0.066-0.031-0.012-0.031 0.12s0.014 0.185 0.031 0.12a0.56 0.56 0 0 0 0-0.239zm0.194-0.756c-0.021-0.021-0.076 0-0.123 0.047-0.067 0.068-0.059 0.075 0.038 0.038 0.067-0.026 0.105-0.064 0.084-0.085zm-16.011-0.166c0.02-0.053-0.026-0.085-0.123-0.085-0.086 0-0.141 0.023-0.124 0.051s-0.248 0.041-0.591 0.029-0.638 3e-3 -0.657 0.034 0.302 0.057 0.713 0.057c0.536 0 0.758-0.024 0.781-0.085zm18.206 0.039c-0.026-0.026-0.34-0.039-0.699-0.029-0.434 0.012-0.686-0.01-0.752-0.065-0.082-0.068-0.092-0.062-0.057 0.029s0.161 0.112 0.799 0.112c0.416 0 0.735-0.021 0.709-0.047zm-19.865 21.131c0-0.472 0.051-0.53 0.273-0.308 0.175 0.175 0.175 0.44 0 0.615-0.222 0.222-0.273 0.164-0.273-0.308zm1.094 0.308c-0.28-0.28-0.072-0.752 0.331-0.752 0.248 0 0.421 0.19 0.421 0.463 0 0.381-0.476 0.564-0.752 0.289zm0.244-0.478c0-0.063-0.033-0.114-0.073-0.114s-0.073 0.051-0.073 0.114 0.033 0.114 0.073 0.114 0.073-0.051 0.073-0.114zm16.958 0.539a0.47 0.47 0 0 1-0.02-0.76c0.142-0.095 0.43-0.052 0.552 0.082 0.339 0.374-0.097 0.931-0.531 0.678zm1.388-0.061c-0.171-0.171-0.177-0.489-0.012-0.639 0.228-0.206 0.285-0.14 0.285 0.331s-0.051 0.53-0.273 0.308zm-1.473-2.902c-0.189-0.189-0.201-0.256-0.089-0.469 0.103-0.195 0.191-0.249 0.406-0.251 0.382-2e-3 0.566 0.523 0.268 0.764-0.208 0.169-0.386 0.155-0.585-0.044zm0.597-0.462c-0.049-0.049-0.081-0.053-0.081-0.01s0.021 0.091 0.046 0.116 0.061 0.03 0.081 0.01-1e-3 -0.072-0.046-0.116zm1.013 0.582c-0.279-0.1-0.367-0.53-0.148-0.728 0.228-0.206 0.285-0.14 0.285 0.331l-0.017 0.439zm-19.82-0.465c0-0.472 0.051-0.53 0.273-0.308 0.175 0.175 0.175 0.44 0 0.615-0.222 0.222-0.273 0.164-0.273-0.308zm1.094 0.308c-0.395-0.395 0.138-0.969 0.6-0.645 0.106 0.074 0.152 0.176 0.152 0.338 0 0.399-0.468 0.591-0.752 0.308zm0.173-0.329c-0.021-0.021-0.076 0-0.123 0.047-0.067 0.067-0.059 0.075 0.038 0.038 0.067-0.026 0.105-0.064 0.084-0.085zm-1.268-2.777c0-0.489 0.1-0.587 0.304-0.296 0.14 0.2 0.135 0.418-0.013 0.545-0.273 0.234-0.29 0.219-0.29-0.248zm1.246 0.364c-0.221-0.082-0.333-0.357-0.233-0.576 0.155-0.34 0.719-0.334 0.805 9e-3 0.1 0.398-0.208 0.702-0.573 0.567zm0.011-0.186c0.019-0.031-8e-3 -0.057-0.061-0.057s-0.081 0.026-0.061 0.057 0.047 0.057 0.061 0.057 0.042-0.026 0.061-0.057zm0.497-0.302c-0.019-0.047-0.034-9e-3 -0.034 0.085s0.016 0.132 0.034 0.085 0.019-0.124 0-0.171zm-0.497-0.04c0.019-0.031-8e-3 -0.057-0.061-0.057s-0.081 0.026-0.061 0.057 0.047 0.057 0.061 0.057 0.042-0.026 0.061-0.057zm16.954 0.436c-0.205-0.205-0.21-0.307-0.026-0.541a0.4 0.4 0 0 1 0.675 2e-3c0.162 0.206 0.136 0.402-0.078 0.587-0.191 0.165-0.373 0.15-0.571-0.048zm0.593-0.362c0.084-0.108 0.082-0.111-0.023-0.028-0.064 0.05-0.153 0.069-0.199 0.041-0.052-0.032-0.064-0.022-0.033 0.028 0.068 0.111 0.145 0.098 0.254-0.041zm0.895 0.423c-0.191-0.134-0.206-0.506-0.027-0.669 0.228-0.206 0.285-0.14 0.285 0.331 0 0.244-0.024 0.444-0.053 0.444s-0.121-0.048-0.205-0.106zm-19.699-3.208c0-0.244 0.025-0.444 0.056-0.444 0.106 0 0.354 0.316 0.354 0.451 0 0.176-0.186 0.438-0.311 0.438-0.076 0-0.099-0.103-0.099-0.444zm1.094 0.308c-0.075-0.075-0.137-0.208-0.137-0.296a0.56 0.56 0 0 1 0.466-0.456c0.209 0 0.423 0.237 0.423 0.468 0 0.383-0.474 0.562-0.752 0.284zm0.456-0.025c0-0.06-0.049-0.08-0.139-0.057-0.136 0.035-0.136 0.037-6e-3 0.088l0.139 0.057c3e-3 3e-3 6e-3 -0.037 6e-3 -0.088zm-0.341-0.02c-0.024-0.024 9e-3 -0.088 0.074-0.14 0.106-0.086 0.102-0.088-0.037-0.02-0.134 0.065-0.157 0.205-0.034 0.205 0.023 0 0.022-0.02-3e-3 -0.044zm17.024-7e-3c-0.187-0.213-0.202-0.393-0.049-0.587a0.42 0.42 0 0 1 0.765 0.263c0 0.376-0.48 0.594-0.716 0.325zm0.631-0.389c0-0.054-0.024-0.113-0.054-0.132s-0.054 0.026-0.054 0.098 0.024 0.132 0.054 0.132 0.054-0.044 0.054-0.098zm-0.366-0.142c0.097 8e-3 0.135-0.019 0.112-0.079-0.064-0.166-0.364-0.045-0.361 0.145 1e-3 0.047 0.018 0.046 0.051-3e-3 0.028-0.041 0.116-0.07 0.197-0.063zm1.201 0.544c-0.191-0.134-0.206-0.506-0.027-0.669 0.228-0.206 0.285-0.14 0.285 0.331 0 0.244-0.024 0.444-0.053 0.444s-0.121-0.048-0.205-0.106zm-19.699-3.075c0-0.468 0.018-0.483 0.29-0.248 0.148 0.127 0.153 0.345 0.013 0.545-0.204 0.291-0.304 0.193-0.304-0.296zm1.089 0.307c-0.157-0.157-0.162-0.522-8e-3 -0.49 0.05 0.01 0.072-0.011 0.049-0.048-0.046-0.075 0.169-0.21 0.334-0.21 0.172 0 0.38 0.257 0.38 0.468 0 0.386-0.474 0.562-0.756 0.28zm17.096-0.108c-0.078-0.099-0.142-0.218-0.142-0.264s0.064-0.165 0.142-0.264a0.42 0.42 0 0 1 0.764 0.264 0.42 0.42 0 0 1-0.764 0.264zm0.405 0.043c0-0.038-0.033-0.068-0.072-0.068s-0.053 0.031-0.03 0.068 0.056 0.068 0.072 0.068 0.03-0.031 0.03-0.068zm0.103-0.478a0.16 0.16 0 0 0-0.124-0.067c-0.049 1e-3 -0.04 0.027 0.021 0.067 0.131 0.085 0.155 0.085 0.103 0zm1.006 0.509c-0.191-0.134-0.206-0.506-0.027-0.669 0.228-0.206 0.285-0.14 0.285 0.331 0 0.244-0.024 0.444-0.053 0.444s-0.121-0.048-0.205-0.106zm0.1-0.453c-0.022-0.055-0.038-0.038-0.041 0.041-3e-3 0.072 0.013 0.112 0.036 0.09s0.025-0.082 5e-3 -0.131zm-1.503-2.319c-0.176-0.102-0.262-0.368-0.185-0.571 0.119-0.314 0.665-0.316 0.808-4e-3a0.43 0.43 0 0 1-0.229 0.584c-0.216 0.082-0.238 0.081-0.394-9e-3zm0.431-0.087c0-0.014-0.047-0.065-0.104-0.112-0.087-0.072-0.097-0.068-0.061 0.026s0.165 0.163 0.165 0.086zm0.115-0.26c-0.022-0.055-0.038-0.038-0.041 0.041-3e-3 0.072 0.013 0.112 0.036 0.09s0.025-0.082 5e-3 -0.131zm-0.615-0.205c-0.022-0.055-0.038-0.038-0.041 0.041-3e-3 0.072 0.013 0.112 0.036 0.09s0.025-0.082 5e-3 -0.131zm0.261-0.124c0.023-0.038 0.01-0.068-0.03-0.068s-0.072 0.031-0.072 0.068 0.014 0.068 0.03 0.068 0.049-0.031 0.072-0.068zm1.299 0.668c-0.307-0.169-0.331-0.517-0.051-0.738l0.188-0.148 0.021 0.246c0.012 0.135 0.012 0.352 0 0.481-0.019 0.212-0.034 0.228-0.158 0.16zm-19.787-0.432c0-0.468 0.018-0.483 0.29-0.248 0.148 0.127 0.153 0.345 0.013 0.545-0.204 0.291-0.304 0.193-0.304-0.296zm1.094 0.312c-0.075-0.075-0.137-0.211-0.137-0.303 0-0.186 0.286-0.449 0.488-0.449 0.19 0 0.401 0.247 0.401 0.468 0 0.383-0.474 0.562-0.752 0.284zm0.53-0.068c0.018-0.068 8e-3 -0.076-0.029-0.025-0.031 0.043-0.118 0.094-0.193 0.115-0.108 0.03-0.102 0.035 0.029 0.025 0.091-7e-3 0.178-0.059 0.193-0.115zm-0.188-0.478a0.41 0.41 0 0 0-0.171-0.066c-0.038 0-0.022 0.03 0.034 0.066a0.41 0.41 0 0 0 0.171 0.066c0.038 0 0.022-0.03-0.034-0.066zm-1.436-2.598c0-0.508 0.015-0.523 0.29-0.287 0.227 0.195 0.132 0.533-0.205 0.724-0.065 0.037-0.085-0.068-0.085-0.438zm18.224 0.375c-0.17-0.17-0.2-0.369-0.083-0.549 0.28-0.428 0.864-0.2 0.793 0.31-0.042 0.303-0.494 0.455-0.71 0.239zm3e-3 -0.457c-0.022-0.055-0.038-0.038-0.041 0.041-3e-3 0.072 0.013 0.112 0.036 0.09s0.025-0.082 5e-3 -0.131zm0.637 0.013c0-0.038-0.033-0.068-0.072-0.068s-0.053 0.031-0.03 0.068 0.056 0.068 0.072 0.068 0.03-0.031 0.03-0.068zm0.797 0.422c-0.166-0.183-0.146-0.528 0.039-0.657 0.084-0.059 0.176-0.106 0.205-0.106s0.053 0.2 0.053 0.444c0 0.476-0.078 0.561-0.297 0.319zm-18.598-0.095a0.6 0.6 0 0 1-0.106-0.276c0-0.168 0.302-0.46 0.475-0.46 0.347 0 0.548 0.541 0.288 0.775-0.183 0.166-0.528 0.146-0.657-0.039zm0.203-0.518c-0.021-0.021-0.076 0-0.123 0.047-0.067 0.068-0.059 0.075 0.038 0.038 0.067-0.026 0.105-0.064 0.084-0.085zm-1.266-2.611c0-0.508 0.015-0.523 0.29-0.287 0.227 0.195 0.132 0.533-0.205 0.724-0.065 0.037-0.085-0.068-0.085-0.438zm0.222-0.215c-0.059-0.059-0.076-0.042-0.068 0.068 7e-3 0.096 0.034 0.123 0.079 0.079s0.041-0.094-0.011-0.146zm0.841 0.473a0.6 0.6 0 0 1-0.106-0.276c0-0.168 0.302-0.46 0.475-0.46 0.337 0 0.548 0.539 0.306 0.781-0.163 0.163-0.547 0.138-0.675-0.044zm0.372 0.027c0-0.031-0.045-0.057-0.1-0.057s-0.084 0.026-0.064 0.057 0.064 0.057 0.1 0.057 0.064-0.026 0.064-0.057zm0.32-0.298c-0.022-0.055-0.038-0.038-0.041 0.041-3e-3 0.072 0.013 0.112 0.036 0.09s0.025-0.082 5e-3 -0.131zm-0.355-0.055c0.024-0.039-3e-3 -0.05-0.064-0.027-0.118 0.045-0.14 0.094-0.042 0.094 0.035 0 0.083-0.03 0.106-0.068zm16.875 0.425a0.47 0.47 0 0 1-0.165-0.525c0.141-0.372 0.679-0.386 0.815-0.021a0.55 0.55 0 0 1-0.151 0.545c-0.104 0.066-0.4 0.067-0.498 1e-3zm0.246-0.237c0-0.04-0.043-0.033-0.103 0.016s-0.103 0.096-0.103 0.109 0.046 6e-3 0.103-0.016 0.103-0.071 0.103-0.109zm1.138 0.164c-0.166-0.183-0.146-0.528 0.039-0.657 0.084-0.059 0.176-0.106 0.205-0.106s0.053 0.2 0.053 0.444c0 0.476-0.078 0.561-0.297 0.319z" fill="#404042"/>
</g>
</svg>
