<?xml version="1.0" encoding="UTF-8" standalone="no"?>
<!-- Created with Inkscape (http://www.inkscape.org/) -->

<svg
   width="26.214mm"
   height="57.741mm"
   version="1.1"
   viewBox="0 0 26.214 57.741"
   xml:space="preserve"
   id="svg145"
   sodipodi:docname="board.svg"
   inkscape:version="1.3 (0e150ed, 2023-07-21)"
   xmlns:inkscape="http://www.inkscape.org/namespaces/inkscape"
   xmlns:sodipodi="http://sodipodi.sourceforge.net/DTD/sodipodi-0.dtd"
   xmlns="http://www.w3.org/2000/svg"
   xmlns:svg="http://www.w3.org/2000/svg"><defs
     id="defs145" /><sodipodi:namedview
     id="namedview145"
     pagecolor="#ffffff"
     bordercolor="#666666"
     borderopacity="1.0"
     inkscape:showpageshadow="2"
     inkscape:pageopacity="0.0"
     inkscape:pagecheckerboard="0"
     inkscape:deskcolor="#d1d1d1"
     inkscape:document-units="mm"
     inkscape:zoom="6.1173759"
     inkscape:cx="55.170715"
     inkscape:cy="89.49916"
     inkscape:window-width="1920"
     inkscape:window-height="1172"
     inkscape:window-x="1352"
     inkscape:window-y="28"
     inkscape:window-maximized="0"
     inkscape:current-layer="g131" /><g
     transform="translate(-15.995 -118.63)"
     id="g145"><rect
       x="15.995"
       y="125.12"
       width="26.214"
       height="50.528"
       ry=".37313"
       fill="#3e3e3e"
       stroke-width=".32119"
       id="rect1" /><text
       x="18.885897"
       y="148.02179"
       fill="#ffffff"
       font-family="sans-serif"
       font-size="1.2347px"
       stroke-width=".26458"
       style="line-height:1.25"
       xml:space="preserve"
       id="text1"><tspan
         x="18.885897"
         y="148.02179"
         fill="#ffffff"
         font-size="1.2347px"
         stroke-width=".26458"
         id="tspan1">8</tspan></text><text
       x="18.756224"
       y="142.91377"
       fill="#ffffff"
       font-family="sans-serif"
       font-size="1.2347px"
       stroke-width=".26458"
       style="line-height:1.25"
       xml:space="preserve"
       id="text2"><tspan
         x="18.756224"
         y="142.91377"
         fill="#ffffff"
         font-size="1.2347px"
         stroke-width=".26458"
         id="tspan2">6</tspan></text><g
       transform="matrix(.35278 0 0 .35278 15.968 131.76)"
       id="g3"><text
         x="7.8881145"
         y="38.873901"
         fill="#ffffff"
         font-family="sans-serif"
         font-size="3.5px"
         stroke-width=".75"
         style="line-height:1.25"
         xml:space="preserve"
         id="text3"><tspan
           x="7.8881145"
           y="38.873901"
           fill="#ffffff"
           font-size="3.5px"
           stroke-width=".75"
           id="tspan3">7</tspan></text></g><g
       transform="matrix(.35278 0 0 .35278 15.995 118.63)"
       fill="#ffd700"
       fill-rule="evenodd"
       stroke-width="1.0388"
       id="g34"><path
         d="m2.925 22.111c-2.6137 0-2.6137 4.0068 0 4.0068h1.8509c2.6177 0 2.6177-4.0068 0-4.0068h-1.8509"
         id="path3" /><path
         d="m2.925 29.311c-2.6137 0-2.6137 4.0068 0 4.0068h1.8509c2.6177 0 2.6177-4.0068 0-4.0068h-1.8509"
         id="path4" /><path
         d="m2.925 36.511c-2.6137 0-2.6137 4.0027 0 4.0027h1.8509c2.6177 0 2.6177-4.0027 0-4.0027h-1.8509"
         id="path5" /><path
         d="m2.925 43.711c-2.6137 0-2.6137 4.0068 0 4.0068h1.8509c2.6177 0 2.6177-4.0068 0-4.0068h-1.8509"
         id="path6" /><path
         d="m2.925 51.251c-2.6137 0-2.6137 4.0068 0 4.0068h1.8509c2.6177 0 2.6177-4.0068 0-4.0068h-1.8509"
         id="path7" /><path
         d="m2.925 58.452c-2.6137 0-2.6137 4.0068 0 4.0068h1.8509c2.6177 0 2.6177-4.0068 0-4.0068h-1.8509"
         id="path8" /><path
         d="m2.925 65.652c-2.6137 0-2.6137 4.0068 0 4.0068h1.8509c2.6177 0 2.6177-4.0068 0-4.0068h-1.8509"
         id="path9" /><path
         d="m2.925 72.569c-2.6137 0-2.6137 4.0027 0 4.0027h1.8509c2.6177 0 2.6177-4.0027 0-4.0027h-1.8509"
         id="path10" /><path
         d="m2.925 79.769c-2.6137 0-2.6137 4.0068 0 4.0068h1.8509c2.6177 0 2.6177-4.0068 0-4.0068h-1.8509"
         id="path11" /><path
         d="m2.925 86.969c-2.6137 0-2.6137 4.0068 0 4.0068h1.8509c2.6177 0 2.6177-4.0068 0-4.0068h-1.8509"
         id="path12" /><path
         d="m2.925 94.169c-2.6137 0-2.6137 4.0027 0 4.0027h1.8509c2.6177 0 2.6177-4.0027 0-4.0027h-1.8509"
         id="path13" /><path
         d="m2.925 101.37c-2.6137 0-2.6137 4.0068 0 4.0068h1.8509c2.6177 0 2.6177-4.0068 0-4.0068h-1.8509"
         id="path14" /><path
         d="m2.925 108.91c-2.6137 0-2.6137 4.0068 0 4.0068h1.8509c2.6177 0 2.6177-4.0068 0-4.0068h-1.8509"
         id="path15" /><path
         d="m2.925 116.11c-2.6137 0-2.6137 4.0068 0 4.0068h1.8509c2.6177 0 2.6177-4.0068 0-4.0068h-1.8509"
         id="path16" /><path
         d="m2.925 123.3c-2.6137 0-2.6137 4.0068 0 4.0068h1.8509c2.6177 0 2.6177-4.0068 0-4.0068h-1.8509"
         id="path17" /><path
         d="m2.925 130.22c-2.6137 0-2.6137 4.0027 0 4.0027h1.8509c2.6177 0 2.6177-4.0027 0-4.0027h-1.8509"
         id="path18" /><path
         d="m68.707 23.131c-2.6137 0-2.6137 4.0068 0 4.0068h1.8509c2.6177 0 2.6177-4.0068 0-4.0068h-1.8509"
         id="path19" /><path
         d="m68.707 30.33c-2.6137 0-2.6137 4.0068 0 4.0068h1.8509c2.6177 0 2.6177-4.0068 0-4.0068h-1.8509"
         id="path20" /><path
         d="m68.707 37.53c-2.6137 0-2.6137 4.0027 0 4.0027h1.8509c2.6177 0 2.6177-4.0027 0-4.0027h-1.8509"
         id="path21" /><path
         d="m68.707 44.73c-2.6137 0-2.6137 4.0068 0 4.0068h1.8509c2.6177 0 2.6177-4.0068 0-4.0068h-1.8509"
         id="path22" /><path
         d="m68.707 52.271c-2.6137 0-2.6137 4.0068 0 4.0068h1.8509c2.6177 0 2.6177-4.0068 0-4.0068h-1.8509"
         id="path23" /><path
         d="m68.707 59.471c-2.6137 0-2.6137 4.0068 0 4.0068h1.8509c2.6177 0 2.6177-4.0068 0-4.0068h-1.8509"
         id="path24" /><path
         d="m68.707 66.671c-2.6137 0-2.6137 4.0068 0 4.0068h1.8509c2.6177 0 2.6177-4.0068 0-4.0068h-1.8509"
         id="path25" /><path
         d="m68.707 73.588c-2.6137 0-2.6137 4.0027 0 4.0027h1.8509c2.6177 0 2.6177-4.0027 0-4.0027h-1.8509"
         id="path26" /><path
         d="m68.707 80.788c-2.6137 0-2.6137 4.0068 0 4.0068h1.8509c2.6177 0 2.6177-4.0068 0-4.0068h-1.8509"
         id="path27" /><path
         d="m68.707 87.988c-2.6137 0-2.6137 4.0068 0 4.0068h1.8509c2.6177 0 2.6177-4.0068 0-4.0068h-1.8509"
         id="path28" /><path
         d="m68.707 95.189c-2.6137 0-2.6137 4.0027 0 4.0027h1.8509c2.6177 0 2.6177-4.0027 0-4.0027h-1.8509"
         id="path29" /><path
         d="m68.707 102.39c-2.6137 0-2.6137 4.0068 0 4.0068h1.8509c2.6177 0 2.6177-4.0068 0-4.0068h-1.8509"
         id="path30" /><path
         d="m68.707 109.93c-2.6137 0-2.6137 4.0068 0 4.0068h1.8509c2.6177 0 2.6177-4.0068 0-4.0068h-1.8509"
         id="path31" /><path
         d="m68.707 117.13c-2.6137 0-2.6137 4.0068 0 4.0068h1.8509c2.6177 0 2.6177-4.0068 0-4.0068h-1.8509"
         id="path32" /><path
         d="m68.707 124.33c-2.6137 0-2.6137 4.0068 0 4.0068h1.8509c2.6177 0 2.6177-4.0068 0-4.0068h-1.8509"
         id="path33" /><path
         d="m68.707 131.24c-2.6137 0-2.6137 4.0027 0 4.0027h1.8509c2.6177 0 2.6177-4.0027 0-4.0027h-1.8509"
         id="path34" /></g><rect
       x="19.929"
       y="118.63"
       width="18.195"
       height="6.5204"
       ry="0"
       fill="#333"
       stroke-width=".17935"
       id="rect34" /><g
       transform="matrix(.35278 0 0 .35278 15.995 118.63)"
       fill="#ccc"
       fill-rule="evenodd"
       stroke-width="1.005"
       id="g38"><path
         d="m20.216 122.04h3.0661v-4.4911h-3.0661z"
         id="path35" /><path
         d="m25.343 122.04h3.0661v-4.4911h-3.0661z"
         id="path36" /><path
         d="m25.343 112.63h3.0661v-4.4911h-3.0661z"
         id="path37" /><path
         d="m20.216 112.63h3.0661v-4.4911h-3.0661z"
         id="path38" /><rect
         x="16.147"
         y="84.705"
         width="10.377"
         height="5.4006"
         fill="none"
         stroke="#ccc"
         stroke-width=".31031"
         style="paint-order:stroke markers fill"
         id="rect38" /></g><g
       transform="matrix(.32077 0 0 .32077 16.208 117.79)"
       id="g45"><rect
         x="16.591"
         y="29.302"
         width="46.702"
         height="49.718"
         ry=".52358"
         fill="#ccc"
         id="rect39" /><g
         fill="#808080"
         id="g44"><g
           transform="matrix(3.8052,0,0,3.8052,-22.561,-270.04)"
           stroke-width=".26458"
           id="g43"><path
             class="cls-1"
             d="m15.481 86.507a0.39158 0.39158 0 1 1-0.39158-0.39158 0.39158 0.39158 0 0 1 0.39158 0.39158"
             id="path39" /><path
             class="cls-1"
             d="m18.897 86.099a4.0587 4.0587 0 0 0-3.4396-3.4396 2.5744 2.5744 0 0 0-0.56885 0.4101v0.37835a3.2226 3.2226 0 0 1 3.22 3.2173h0.37835a2.712 2.712 0 0 0 0.4101-0.56621"
             id="path40" /><path
             class="cls-1"
             d="m19.203 84.911a2.5453 2.5453 0 0 0-2.5585-2.5453c-0.08996 0-0.17727 0-0.26458 0.01323l-0.05821 0.16933a4.3789 4.3789 0 0 1 2.6829 2.6802l0.16933-0.06086c0-0.08467 0.01588-0.16933 0.01588-0.26458"
             id="path41" /><path
             class="cls-1"
             d="m16.674 87.922a3.0268 3.0268 0 0 1-3.0268-3.0136 3.0057 3.0057 0 0 1 0.88635-2.1405l0.17198 0.1614a2.794 2.794 0 0 0 0 3.9688 2.794 2.794 0 0 0 3.9688 0l0.1614 0.1614a3.003 3.003 0 0 1-2.1616 0.86254"
             id="path42" /><path
             class="cls-1"
             d="m16.64 86.84a1.7595 1.7595 0 0 0-0.69056-1.5637 1.7224 1.7224 0 0 0-0.88635-0.35983 0.1614 0.1614 0 0 1-0.14023-0.16933 0.1561 0.1561 0 0 1 0.17198-0.14288 2.077 2.077 0 0 1 1.8521 2.2701 1.8124 1.8124 0 0 1-0.06879 0.35719l0.46038 0.12965a2.5559 2.5559 0 0 0 0.39688-0.15081 2.8152 2.8152 0 0 0 0.05027-0.5424 2.9104 2.9104 0 0 0-2.4686-2.8734 1.2806 1.2806 0 0 0-0.46302 0 1.0081 1.0081 0 0 0-0.50006 0.30956 0.98954 0.98954 0 0 0 0.44186 1.5875 2.2913 2.2913 0 0 0 0.24871 0.04498 0.92869 0.92869 0 0 1 0.77258 0.91546 0.9181 0.9181 0 0 1-0.14817 0.50006l0.3175 0.20373a2.3574 2.3574 0 0 0 0.47625 0.07937 1.741 1.741 0 0 0 0.17462-0.60854"
             id="path43" /></g><text
           x="18.008335"
           y="73.43277"
           font-family="sans-serif"
           font-size="8.5928px"
           letter-spacing="0px"
           stroke-width=".21483"
           word-spacing="0px"
           style="line-height:1.25"
           xml:space="preserve"
           id="text43"><tspan
             x="18.008335"
             y="73.43277"
             fill="#808080"
             font-family="'Ubuntu Mono'"
             stroke-width=".21483"
             id="tspan43">ESP32-C5</tspan></text><text
           x="17.414093"
           y="39.167633"
           font-family="sans-serif"
           font-size="8.0567px"
           letter-spacing="0px"
           stroke-width=".20143"
           word-spacing="0px"
           style="line-height:1.25"
           xml:space="preserve"
           id="text44"><tspan
             x="17.414093"
             y="39.167633"
             fill="#808080"
             font-family="'Ubuntu Mono'"
             stroke-width=".20143"
             id="tspan44">ESPRESSIF</tspan></text></g></g><g
       transform="matrix(.15243 0 0 .15243 54.663 142.28)"
       id="g47"><path
         d="m-218.38-119.09v-30.238h15.667v18.742h17.719v-18.452h17.252v18.356h17.812v-18.549h32.92v33.426"
         fill="none"
         stroke="#5c5c5c"
         stroke-linecap="round"
         stroke-width="3.9877"
         id="path45" /><path
         d="m-133.61-115.67v-33.523"
         fill="none"
         stroke="#5c5c5c"
         stroke-linecap="round"
         stroke-width="3.9877"
         id="path46" /><ellipse
         cx="-117.05"
         cy="-115.75"
         rx="1.9123"
         ry="1.9811"
         fill="#a80"
         fill-opacity=".99608"
         id="ellipse46" /><ellipse
         cx="-133.6"
         cy="-115.61"
         rx="1.9123"
         ry="1.9811"
         fill="#a80"
         fill-opacity=".99608"
         id="ellipse47" /></g><g
       transform="matrix(.35278 0 0 .35278 61.895 144.2)"
       id="g48"><path
         d="m-110.84 37.814v9.2148l0.70704 0.70704h9.2148v-9.9219z"
         fill="#f9f9f9"
         id="path47" /><circle
         cx="-105.88"
         cy="42.774"
         r="3.8358"
         fill="#e3dedb"
         id="circle47" /><rect
         x="-106.54"
         y="44.585"
         width="1.323"
         height="1.323"
         fill="#a80"
         id="rect47" /></g><g
       transform="matrix(.35278 0 0 .35278 15.678 117.21)"
       id="g82"><g
         fill="#ccc"
         fill-rule="evenodd"
         stroke-width="1.005"
         id="g75"><path
           d="m52.837 113.19h0.93041v-2.7794h-0.93041z"
           id="path48" /><path
           d="m51.412 113.19h0.93041v-2.7794h-0.93041z"
           id="path49" /><path
           d="m49.987 113.19h0.93041v-2.7794h-0.93041z"
           id="path50" /><path
           d="m48.562 113.19h0.93041v-2.7794h-0.93041z"
           id="path51" /><path
           d="m47.138 113.19h0.93041v-2.7794h-0.93041z"
           id="path52" /><path
           d="m45.713 113.19h0.93041v-2.7794h-0.93041z"
           id="path53" /><path
           d="m44.288 113.19h0.93041v-2.7794h-0.93041z"
           id="path54" /><path
           d="m44.288 126.86h0.93041v-2.7794h-0.93041z"
           id="path55" /><path
           d="m45.713 126.86h0.93041v-2.7794h-0.93041z"
           id="path56" /><path
           d="m47.138 126.86h0.93041v-2.7794h-0.93041z"
           id="path57" /><path
           d="m48.562 126.86h0.93041v-2.7794h-0.93041z"
           id="path58" /><path
           d="m49.987 126.86h0.93041v-2.7794h-0.93041z"
           id="path59" /><path
           d="m51.412 126.86h0.93041v-2.7794h-0.93041z"
           id="path60" /><path
           d="m52.837 126.86h0.93041v-2.7794h-0.93041z"
           id="path61" /><path
           d="m40.801 114.83h2.7794v-0.93041h-2.7794z"
           id="path62" /><path
           d="m40.801 116.26h2.7794v-0.93041h-2.7794z"
           id="path63" /><path
           d="m40.801 117.67h2.7794v-0.93041h-2.7794z"
           id="path64" /><path
           d="m40.801 119.1h2.7794v-0.93041h-2.7794z"
           id="path65" /><path
           d="m40.801 120.53h2.7794v-0.93041h-2.7794z"
           id="path66" /><path
           d="m40.801 121.96h2.7794v-0.93041h-2.7794z"
           id="path67" /><path
           d="m40.801 123.38h2.7794v-0.93041h-2.7794z"
           id="path68" /><path
           d="m54.474 123.38h2.7794v-0.93041h-2.7794z"
           id="path69" /><path
           d="m54.474 121.96h2.7794v-0.93041h-2.7794z"
           id="path70" /><path
           d="m54.474 120.53h2.7794v-0.93041h-2.7794z"
           id="path71" /><path
           d="m54.474 119.1h2.7794v-0.93041h-2.7794z"
           id="path72" /><path
           d="m54.474 117.67h2.7794v-0.93041h-2.7794z"
           id="path73" /><path
           d="m54.474 116.26h2.7794v-0.93041h-2.7794z"
           id="path74" /><path
           d="m54.474 114.83h2.7794v-0.93041h-2.7794z"
           id="path75" /></g><rect
         x="41.944"
         y="111.56"
         width="14.176"
         height="14.172"
         ry="0"
         fill="#1a1a1a"
         id="rect75" /><g
         transform="translate(1.0771,-3.3293)"
         id="g81"><g
           fill="#ccc"
           fill-rule="evenodd"
           stroke-width="1.005"
           id="g79"><path
             d="m28.423 146.74h3.2074v-2.0689h-3.2074z"
             id="path76" /><path
             d="m28.423 140.62h3.2074v-2.0689h-3.2074z"
             id="path77" /><path
             d="m16.602 140.62h3.2074v-2.0689h-3.2074z"
             id="path78" /><path
             d="m16.602 146.74h3.2074v-2.0689h-3.2074z"
             id="path79" /></g><g
           transform="translate(130.08,48.535)"
           id="g80"><rect
             x="-111.81"
             y="89.61"
             width="11.906"
             height="9.211"
             fill="#9d9d9d"
             id="rect79" /><rect
             x="-110.55"
             y="91.313"
             width="9.393"
             height="5.8052"
             ry="2.9026"
             id="rect80" /></g></g></g><g
       transform="matrix(.35278 0 0 .35278 25.245 116.04)"
       id="g87"><g
         fill="#ccc"
         fill-rule="evenodd"
         stroke-width="1.005"
         id="g85"><path
           d="m28.423 146.74h3.2074v-2.0689h-3.2074z"
           id="path82" /><path
           d="m28.423 140.62h3.2074v-2.0689h-3.2074z"
           id="path83" /><path
           d="m16.602 140.62h3.2074v-2.0689h-3.2074z"
           id="path84" /><path
           d="m16.602 146.74h3.2074v-2.0689h-3.2074z"
           id="path85" /></g><g
         transform="translate(130.08,48.535)"
         id="g86"><rect
           x="-111.81"
           y="89.61"
           width="11.906"
           height="9.211"
           fill="#9d9d9d"
           id="rect85" /><rect
           x="-110.55"
           y="91.313"
           width="9.393"
           height="5.8052"
           ry="2.9026"
           id="rect86" /></g></g><g
       transform="matrix(.35278 0 0 .35278 16.646 116.18)"
       id="g96"><g
         fill="#ccc"
         fill-rule="evenodd"
         stroke-width="1.005"
         id="g95"><path
           d="m16.375 153.01c0-1.2837-1.9276-1.2837-1.9276 0v3.4194c0 1.2837 1.9276 1.2837 1.9276 0v-3.4194"
           id="path87" /><path
           d="m24.351 153.01c0-1.2837-1.9276-1.2837-1.9276 0v3.4194c0 1.2837 1.9276 1.2837 1.9276 0v-3.4194"
           id="path88" /><path
           d="m16.94 157.39h1.213v-5.3469h-1.213z"
           id="path89" /><path
           d="m18.793 157.39h1.213v-5.3469h-1.213z"
           id="path90" /><path
           d="m20.642 157.39h1.213v-5.3469h-1.213z"
           id="path91" /><path
           d="m10.745 152.44c0-2.0454-3.0621-2.0454-3.0621 0v2.2769c0 2.0454 3.0621 2.0454 3.0621 0v-2.2769"
           id="path92" /><path
           d="m31.116 152.44c0-2.0454-3.0661-2.0454-3.0661 0v2.2769c0 2.0454 3.0661 2.0454 3.0661 0v-2.2769"
           id="path93" /><path
           d="m10.745 162.98c0-2.0454-3.0621-2.0454-3.0621 0v2.2769c0 2.0454 3.0621 2.0454 3.0621 0v-2.2769"
           id="path94" /><path
           d="m31.116 162.98c0-2.0454-3.0661-2.0454-3.0661 0v2.2769c0 2.0454 3.0661 2.0454 3.0661 0v-2.2769"
           id="path95" /></g><path
         d="m8.75 154.55h21.262l0.0391 14.176 0.80856 1.414v0.28519l-0.82418 3e-5 -1.3008-1.6992v1.6992h-18.707v-1.6992l-1.418 1.6992-0.71093-3e-5v-0.28519l0.81252-1.414z"
         fill="#9d9d9d"
         id="path96" /></g><g
       transform="matrix(.35278 0 0 .35278 14.818 116.22)"
       id="g106"><g
         fill="#ccc"
         fill-rule="evenodd"
         stroke-width="1.005"
         id="g105"><path
           d="m53.85 152.89c0-1.2837-1.9276-1.2837-1.9276 0v3.4194c0 1.2837 1.9276 1.2837 1.9276 0v-3.4194"
           id="path97" /><path
           d="m61.828 152.89c0-1.2837-1.9276-1.2837-1.9276 0v3.4194c0 1.2837 1.9276 1.2837 1.9276 0v-3.4194"
           id="path98" /><path
           d="m54.416 157.27h1.213v-5.3469h-1.213z"
           id="path99" /><path
           d="m56.269 157.27h1.213v-5.3469h-1.213z"
           id="path100" /><path
           d="m58.117 157.27h1.213v-5.3469h-1.213z"
           id="path101" /><path
           d="m48.221 152.32c0-2.0454-3.0661-2.0454-3.0661 0v2.2769c0 2.0454 3.0661 2.0454 3.0661 0v-2.2769"
           id="path102" /><path
           d="m68.592 152.32c0-2.0454-3.0661-2.0454-3.0661 0v2.2769c0 2.0454 3.0661 2.0454 3.0661 0v-2.2769"
           id="path103" /><path
           d="m48.221 162.86c0-2.0454-3.0661-2.0454-3.0661 0v2.2769c0 2.0454 3.0661 2.0454 3.0661 0v-2.2769"
           id="path104" /><path
           d="m68.592 162.86c0-2.0454-3.0661-2.0454-3.0661 0v2.2769c0 2.0454 3.0661 2.0454 3.0661 0v-2.2769"
           id="path105" /></g><path
         d="m45.95 154.63h21.262l0.0391 14.176 0.80856 1.414v0.28519l-0.82418 3e-5 -1.3008-1.6992v1.6992h-18.707v-1.6992l-1.418 1.6992-0.71093-3e-5v-0.28519l0.81252-1.414z"
         fill="#9d9d9d"
         id="path106" /></g><g
       fill="#ffffff"
       font-family="sans-serif"
       font-size="1.2347px"
       stroke-width=".26458"
       id="g110"><text
         x="18.582006"
         y="127.66626"
         style="line-height:1.25"
         xml:space="preserve"
         id="text106"><tspan
           x="18.582006"
           y="127.66626"
           fill="#ffffff"
           font-size="1.2347px"
           stroke-width=".26458"
           id="tspan106">3V3</tspan></text><text
         x="18.513088"
         y="130.09755"
         style="line-height:1.25"
         xml:space="preserve"
         id="text107"><tspan
           x="18.513088"
           y="130.09755"
           fill="#ffffff"
           font-size="1.2347px"
           stroke-width=".26458"
           id="tspan107">RST</tspan></text><text
         x="18.885599"
         y="132.61371"
         style="line-height:1.25"
         xml:space="preserve"
         id="text108"><tspan
           x="18.885599"
           y="132.61371"
           fill="#ffffff"
           font-size="1.2347px"
           stroke-width=".26458"
           id="tspan108">2</tspan></text><text
         x="18.858913"
         y="135.13815"
         style="line-height:1.25"
         xml:space="preserve"
         id="text109"><tspan
           x="18.858913"
           y="135.13815"
           fill="#ffffff"
           font-size="1.2347px"
           stroke-width=".26458"
           id="tspan109">3</tspan></text><text
         x="18.885897"
         y="137.784"
         style="line-height:1.25"
         xml:space="preserve"
         id="text110"><tspan
           x="18.885897"
           y="137.784"
           fill="#ffffff"
           font-size="1.2347px"
           stroke-width=".26458"
           id="tspan110">0</tspan></text></g><g
       transform="matrix(.35278 0 0 .35278 15.792 126.67)"
       id="g111"><text
         x="8.576478"
         y="39.17984"
         fill="#ffffff"
         font-family="sans-serif"
         font-size="3.5px"
         stroke-width=".75"
         style="line-height:1.25"
         xml:space="preserve"
         id="text111"><tspan
           x="8.576478"
           y="39.17984"
           fill="#ffffff"
           font-size="3.5px"
           stroke-width=".75"
           id="tspan111">1</tspan></text></g><g
       transform="matrix(.35278 0 0 .35278 15.968 137.03)"
       id="g112"><text
         x="7.7351446"
         y="38.032566"
         fill="#ffffff"
         font-family="sans-serif"
         font-size="3.5px"
         stroke-width=".75"
         style="line-height:1.25"
         xml:space="preserve"
         id="text112"><tspan
           x="7.7351446"
           y="38.032566"
           fill="#ffffff"
           font-size="3.5px"
           stroke-width=".75"
           id="tspan112">9</tspan></text></g><g
       transform="matrix(.35278 0 0 .35278 16.223 139.5)"
       id="g123"><text
         x="6.6940536"
         y="38.539246"
         fill="#ffffff"
         font-family="sans-serif"
         font-size="3.5px"
         stroke-width=".75"
         style="line-height:1.25"
         xml:space="preserve"
         id="text113"><tspan
           x="6.6940536"
           y="38.539246"
           fill="#ffffff"
           font-size="3.5px"
           stroke-width=".75"
           id="tspan113">10</tspan></text><text
         x="7.76232"
         y="45.568195"
         fill="#ffffff"
         font-family="sans-serif"
         font-size="3.5px"
         stroke-width=".75"
         style="line-height:1.25"
         xml:space="preserve"
         id="text114"><tspan
           x="7.76232"
           y="45.568195"
           fill="#ffffff"
           font-size="3.5px"
           stroke-width=".75"
           id="tspan114">26</tspan></text><g
         transform="translate(-.75 14.25)"
         id="g122"><text
           x="8.1420851"
           y="38.859226"
           fill="#ffffff"
           font-family="sans-serif"
           font-size="3.5px"
           stroke-width=".75"
           style="line-height:1.25"
           xml:space="preserve"
           id="text115"><tspan
             x="8.1420851"
             y="38.859226"
             fill="#ffffff"
             font-size="3.5px"
             stroke-width=".75"
             id="tspan115">25</tspan></text><text
           x="7.8913946"
           y="46.212471"
           fill="#ffffff"
           font-family="sans-serif"
           font-size="3.5px"
           stroke-width=".75"
           style="line-height:1.25"
           xml:space="preserve"
           id="text116"><tspan
             x="7.8913946"
             y="46.212471"
             fill="#ffffff"
             font-size="3.5px"
             stroke-width=".75"
             id="tspan116">5V</tspan></text><g
           transform="translate(0,13.5)"
           id="g121"><text
             x="8.1940536"
             y="39.638748"
             fill="#ffffff"
             font-family="sans-serif"
             font-size="3.5px"
             stroke-width=".75"
             style="line-height:1.25"
             xml:space="preserve"
             id="text117"><tspan
               x="8.1940536"
               y="39.638748"
               fill="#ffffff"
               font-size="3.5px"
               stroke-width=".75"
               id="tspan117">G</tspan></text><g
             transform="translate(0,7.125)"
             id="g118"><text
               x="8.1940536"
               y="39.638748"
               fill="#ffffff"
               font-family="sans-serif"
               font-size="3.5px"
               stroke-width=".75"
               style="line-height:1.25"
               xml:space="preserve"
               id="text118"><tspan
                 x="8.1940536"
                 y="39.638748"
                 fill="#ffffff"
                 font-size="3.5px"
                 stroke-width=".75"
                 id="tspan118">NC</tspan></text></g><g
             transform="translate(14.067 1.287)"
             fill="#ffffff"
             font-family="sans-serif"
             font-size="3.5px"
             stroke-width=".75"
             id="g120"><text
               x="5.0269394"
               y="42.163475"
               style="line-height:1.25"
               xml:space="preserve"
               id="text119"><tspan
                 x="5.0269394"
                 y="42.163475"
                 fill="#ffffff"
                 font-size="3.5px"
                 stroke-width=".75"
                 id="tspan119">RESET</tspan></text><text
               x="31.444054"
               y="41.888744"
               style="line-height:1.25"
               xml:space="preserve"
               id="text120"><tspan
                 x="31.444054"
                 y="41.888744"
                 fill="#ffffff"
                 font-size="3.5px"
                 stroke-width=".75"
                 id="tspan120">BOOT</tspan></text></g></g></g><text
         transform="rotate(-90)"
         x="-98.988426"
         y="34.690868"
         fill="#ffffff"
         font-family="sans-serif"
         font-size="2.964px"
         stroke-width=".074099"
         style="line-height:1.25"
         xml:space="preserve"
         id="text122"><tspan
           x="-98.988426"
           y="34.690868"
           fill="#ffffff"
           stroke-width=".074099"
           id="tspan122">UART</tspan></text><text
         transform="rotate(-90)"
         x="-98.358902"
         y="40.664639"
         fill="#ffffff"
         font-family="sans-serif"
         font-size="2.964px"
         stroke-width=".074099"
         style="line-height:1.25"
         xml:space="preserve"
         id="text123"><tspan
           x="-98.358902"
           y="40.664639"
           fill="#ffffff"
           stroke-width=".074099"
           id="tspan123">USB</tspan></text></g><text
       x="38.286903"
       y="127.903"
       fill="#ffffff"
       font-family="sans-serif"
       font-size="1.2347px"
       stroke-width=".26458"
       style="line-height:1.25"
       xml:space="preserve"
       id="text124"><tspan
         x="38.286903"
         y="127.903"
         fill="#ffffff"
         font-size="1.2347px"
         stroke-width=".26458"
         id="tspan124">G</tspan></text><g
       transform="matrix(.35278 0 0 .35278 35.432 116.66)"
       id="g129"><text
         x="6.6938877"
         y="39.177158"
         fill="#ffffff"
         font-family="sans-serif"
         font-size="3.5px"
         stroke-width=".75"
         style="line-height:1.25"
         xml:space="preserve"
         id="text125"><tspan
           x="6.6938877"
           y="39.177158"
           fill="#ffffff"
           font-size="3.5px"
           stroke-width=".75"
           id="tspan125">TX</tspan></text><g
         transform="translate(-1.1817 6.3044)"
         id="g128"><text
           x="7.7324643"
           y="40.100338"
           fill="#ffffff"
           font-family="sans-serif"
           font-size="3.5px"
           stroke-width=".75"
           style="line-height:1.25"
           xml:space="preserve"
           id="text126"><tspan
             x="7.7324643"
             y="40.100338"
             fill="#ffffff"
             font-size="3.5px"
             stroke-width=".75"
             id="tspan126">RX</tspan></text><g
           transform="translate(-.25186 7.7861)"
           id="g127"><text
             x="8.1940536"
             y="39.638748"
             fill="#ffffff"
             font-family="sans-serif"
             font-size="3.5px"
             stroke-width=".75"
             style="line-height:1.25"
             xml:space="preserve"
             id="text127"><tspan
               x="8.1940536"
               y="39.638748"
               fill="#ffffff"
               font-size="3.5px"
               stroke-width=".75"
               id="tspan127">24</tspan></text></g></g></g><g
       transform="matrix(.35278 0 0 .35278 34.998 124.27)"
       id="g130"><text
         x="8.1940536"
         y="39.638748"
         fill="#ffffff"
         font-family="sans-serif"
         font-size="3.5px"
         stroke-width=".75"
         style="line-height:1.25"
         xml:space="preserve"
         id="text129"><tspan
           x="8.1940536"
           y="39.638748"
           fill="#ffffff"
           font-size="3.5px"
           stroke-width=".75"
           id="tspan129">23</tspan></text></g><g
       transform="matrix(.35278 0 0 .35278 33.681 126.81)"
       id="g131"><text
         x="11.136474"
         y="39.638748"
         fill="#ffffff"
         font-family="sans-serif"
         font-size="3.5px"
         stroke-width="0.75"
         style="line-height:1.25"
         xml:space="preserve"
         id="text130"><tspan
           x="11.136474"
           y="39.638748"
           fill="#ffffff"
           font-size="3.5px"
           stroke-width="0.75"
           id="tspan130">15</tspan></text></g><g
       transform="matrix(.35278 0 0 .35278 34.754 129.36)"
       id="g133"><text
         x="8.3367128"
         y="39.292553"
         fill="#ffffff"
         font-family="sans-serif"
         font-size="3.5px"
         stroke-width=".75"
         style="line-height:1.25"
         xml:space="preserve"
         id="text131"><tspan
           x="8.3367128"
           y="39.292553"
           fill="#ffffff"
           font-size="3.5px"
           stroke-width=".75"
           id="tspan131">27</tspan></text><g
         transform="translate(1.339 6.8342)"
         id="g132"><text
           x="8.1940536"
           y="39.638748"
           fill="#ffffff"
           font-family="sans-serif"
           font-size="3.5px"
           stroke-width=".75"
           style="line-height:1.25"
           xml:space="preserve"
           id="text132"><tspan
             x="8.1940536"
             y="39.638748"
             fill="#ffffff"
             font-size="3.5px"
             stroke-width=".75"
             id="tspan132">4</tspan></text></g></g><g
       transform="matrix(.35278 0 0 .35278 35.198 134.31)"
       id="g134"><text
         x="8.1940536"
         y="39.638748"
         fill="#ffffff"
         font-family="sans-serif"
         font-size="3.5px"
         stroke-width=".75"
         style="line-height:1.25"
         xml:space="preserve"
         id="text133"><tspan
           x="8.1940536"
           y="39.638748"
           fill="#ffffff"
           font-size="3.5px"
           stroke-width=".75"
           id="tspan133">5</tspan></text></g><text
       x="37.58831"
       y="150.82675"
       fill="#ffffff"
       font-family="sans-serif"
       font-size="1.2347px"
       stroke-width=".26458"
       style="line-height:1.25"
       xml:space="preserve"
       id="text134"><tspan
         x="37.58831"
         y="150.82675"
         fill="#ffffff"
         font-size="1.2347px"
         stroke-width=".26458"
         id="tspan134">NC</tspan></text><g
       transform="matrix(.35278 0 0 .35278 35.343 139.52)"
       id="g144"><text
         x="7.0792632"
         y="39.638748"
         fill="#ffffff"
         font-family="sans-serif"
         font-size="3.5px"
         stroke-width=".75"
         style="line-height:1.25"
         xml:space="preserve"
         id="text135"><tspan
           x="7.0792632"
           y="39.638748"
           fill="#ffffff"
           font-size="3.5px"
           stroke-width=".75"
           id="tspan135">28</tspan></text><g
         transform="translate(-1.7887 6.7135)"
         id="g143"><text
           x="9.5157423"
           y="39.96917"
           fill="#ffffff"
           font-family="sans-serif"
           font-size="3.5px"
           stroke-width=".75"
           style="line-height:1.25"
           xml:space="preserve"
           id="text136"><tspan
             x="9.5157423"
             y="39.96917"
             fill="#ffffff"
             font-size="3.5px"
             stroke-width=".75"
             id="tspan136">G</tspan></text><text
           x="8.103548"
           y="47.591251"
           fill="#ffffff"
           font-family="sans-serif"
           font-size="3.5px"
           stroke-width=".75"
           style="line-height:1.25"
           xml:space="preserve"
           id="text137"><tspan
             x="8.103548"
             y="47.591251"
             fill="#ffffff"
             font-size="3.5px"
             stroke-width=".75"
             id="tspan137">14</tspan></text><g
           transform="translate(.59161 13.917)"
           id="g142"><text
             x="7.5332093"
             y="40.409733"
             fill="#ffffff"
             font-family="sans-serif"
             font-size="3.5px"
             stroke-width=".75"
             style="line-height:1.25"
             xml:space="preserve"
             id="text138"><tspan
               x="7.5332093"
               y="40.409733"
               fill="#ffffff"
               font-size="3.5px"
               stroke-width=".75"
               id="tspan138">13</tspan></text><g
             transform="translate(-.23841 7.4733)"
             id="g141"><text
               x="8.8548985"
               y="40.409733"
               fill="#ffffff"
               font-family="sans-serif"
               font-size="3.5px"
               stroke-width=".75"
               style="line-height:1.25"
               xml:space="preserve"
               id="text139"><tspan
                 x="8.8548985"
                 y="40.409733"
                 fill="#ffffff"
                 font-size="3.5px"
                 stroke-width=".75"
                 id="tspan139">G</tspan></text><g
               transform="translate(-.17881 8.605)"
               id="g140"><text
                 x="6.9641266"
                 y="38.813911"
                 fill="#ffffff"
                 font-family="sans-serif"
                 font-size="3.5px"
                 stroke-width=".75"
                 style="line-height:1.25"
                 xml:space="preserve"
                 id="text140"><tspan
                   x="6.9641266"
                   y="38.813911"
                   fill="#ffffff"
                   font-size="3.5px"
                   stroke-width=".75"
                   id="tspan140">NC</tspan></text></g></g></g></g></g><ellipse
       cx="22.701"
       cy="149.46"
       rx=".68131"
       ry=".64834"
       fill="#ffd700"
       style="paint-order:stroke markers fill"
       id="ellipse144" /><rect
       x="23.744"
       y="148.81"
       width="1.2514"
       height="1.2514"
       fill="#ffd700"
       style="paint-order:stroke markers fill"
       id="rect144" /></g></svg>
