<?xml version="1.0" encoding="UTF-8"?>
<svg width="72.36pt" height="198.59pt" version="1.1" viewBox="0 0 72.36 198.59" xmlns="http://www.w3.org/2000/svg" xmlns:cc="http://creativecommons.org/ns#" xmlns:dc="http://purl.org/dc/elements/1.1/" xmlns:rdf="http://www.w3.org/1999/02/22-rdf-syntax-ns#">
 <metadata>
  <rdf:RDF>
   <cc:Work rdf:about="">
    <dc:format>image/svg+xml</dc:format>
    <dc:type rdf:resource="http://purl.org/dc/dcmitype/StillImage"/>
   </cc:Work>
  </rdf:RDF>
 </metadata>
 <g transform="translate(-3.6168 -9.4766)">
  <rect x="3.8447" y="27.266" width="72.034" height="178.25" ry="1.3163" fill="#3e3e3e"/>
  <g fill="none" stroke="#000" stroke-linecap="round" stroke-miterlimit="10" stroke-width=".36">
   <path d="m3.7968 204.05c0 0.78516 0.63677 1.418 1.418 1.418"/>
   <path d="m5.2148 205.46h69.164"/>
   <path d="m74.379 205.46c0.78516 0 1.418-0.63288 1.418-1.418"/>
   <path d="m75.797 204.05v-175.36"/>
   <path d="m75.797 28.684c0-0.78127-0.63288-1.418-1.418-1.418"/>
   <path d="m74.379 27.266h-69.164"/>
   <path d="m5.2148 27.266c-0.7812 0-1.418 0.63648-1.418 1.418"/>
   <path d="m3.7968 28.684v175.36"/>
  </g>
  <g fill="#ccc" fill-rule="evenodd">
   <path d="m56.534 105.24h2.8086v-2.5195h-2.8086z"/>
   <path d="m56.534 109.92h2.8086v-2.5195h-2.8086z"/>
   <path d="m46.109 142.95h0.92578v-2.7656h-0.92578z"/>
   <path d="m44.691 142.95h0.92578v-2.7656h-0.92578z"/>
   <path d="m43.273 142.95h0.92578v-2.7656h-0.92578z"/>
   <path d="m41.855 142.95h0.92578v-2.7656h-0.92578z"/>
   <path d="m40.438 142.95h0.92578v-2.7656h-0.92578z"/>
   <path d="m39.02 142.95h0.92578v-2.7656h-0.92578z"/>
   <path d="m37.602 142.95h0.92578v-2.7656h-0.92578z"/>
   <path d="m37.602 156.55h0.92578v-2.7656h-0.92578z"/>
   <path d="m39.02 156.55h0.92578v-2.7656h-0.92578z"/>
   <path d="m40.438 156.55h0.92578v-2.7656h-0.92578z"/>
   <path d="m41.855 156.55h0.92578v-2.7656h-0.92578z"/>
   <path d="m43.273 156.55h0.92578v-2.7656h-0.92578z"/>
   <path d="m44.691 156.55h0.92578v-2.7656h-0.92578z"/>
   <path d="m46.109 156.55h0.92578v-2.7656h-0.92578z"/>
   <path d="m34.133 144.58h2.7656v-0.92578h-2.7656z"/>
   <path d="m34.133 146h2.7656v-0.92578h-2.7656z"/>
   <path d="m34.133 147.41h2.7656v-0.92578h-2.7656z"/>
   <path d="m34.133 148.83h2.7656v-0.92578h-2.7656z"/>
   <path d="m34.133 150.25h2.7656v-0.92578h-2.7656z"/>
   <path d="m34.133 151.67h2.7656v-0.92578h-2.7656z"/>
   <path d="m34.133 153.09h2.7656v-0.92578h-2.7656z"/>
   <path d="m47.738 153.09h2.7656v-0.92578h-2.7656z"/>
   <path d="m47.738 151.67h2.7656v-0.92578h-2.7656z"/>
   <path d="m47.738 150.25h2.7656v-0.92578h-2.7656z"/>
   <path d="m47.738 148.83h2.7656v-0.92578h-2.7656z"/>
   <path d="m47.738 147.41h2.7656v-0.92578h-2.7656z"/>
   <path d="m47.738 146h2.7656v-0.92578h-2.7656z"/>
   <path d="m47.738 144.58h2.7656v-0.92578h-2.7656z"/>
   <path d="m55.781 188.98c0-1.2773-1.918-1.2773-1.918 0v3.4024c0 1.2773 1.918 1.2773 1.918 0v-3.4024"/>
   <path d="m63.719 188.98c0-1.2773-1.918-1.2773-1.918 0v3.4024c0 1.2773 1.918 1.2773 1.918 0v-3.4024"/>
   <path d="m17.797 188.98c0-1.2773-1.918-1.2773-1.918 0v3.4024c0 1.2773 1.918 1.2773 1.918 0v-3.4024"/>
   <path d="m25.734 188.98c0-1.2773-1.918-1.2773-1.918 0v3.4024c0 1.2773 1.918 1.2773 1.918 0v-3.4024"/>
   <path d="m56.344 193.34h1.207v-5.3203h-1.207z"/>
   <path d="m58.188 193.34h1.207v-5.3203h-1.207z"/>
   <path d="m60.027 193.34h1.207v-5.3203h-1.207z"/>
   <path d="m18.359 193.34h1.207v-5.3203h-1.207z"/>
   <path d="m20.203 193.34h1.207v-5.3203h-1.207z"/>
   <path d="m22.043 193.34h1.207v-5.3203h-1.207z"/>
   <path d="m50.18 188.41c0-2.0352-3.0508-2.0352-3.0508 0v2.2656c0 2.0352 3.0508 2.0352 3.0508 0v-2.2656"/>
   <path d="m70.449 188.41c0-2.0352-3.0508-2.0352-3.0508 0v2.2656c0 2.0352 3.0508 2.0352 3.0508 0v-2.2656"/>
   <path d="m50.18 198.9c0-2.0352-3.0508-2.0352-3.0508 0v2.2656c0 2.0352 3.0508 2.0352 3.0508 0v-2.2656"/>
   <path d="m70.449 198.9c0-2.0352-3.0508-2.0352-3.0508 0v2.2656c0 2.0352 3.0508 2.0352 3.0508 0v-2.2656"/>
   <path d="m12.195 188.41c0-2.0352-3.0469-2.0352-3.0469 0v2.2656c0 2.0352 3.0469 2.0352 3.0469 0v-2.2656"/>
   <path d="m32.465 188.41c0-2.0352-3.0508-2.0352-3.0508 0v2.2656c0 2.0352 3.0508 2.0352 3.0508 0v-2.2656"/>
   <path d="m12.195 198.9c0-2.0352-3.0469-2.0352-3.0469 0v2.2656c0 2.0352 3.0469 2.0352 3.0469 0v-2.2656"/>
   <path d="m32.465 198.9c0-2.0352-3.0508-2.0352-3.0508 0v2.2656c0 2.0352 3.0508 2.0352 3.0508 0v-2.2656"/>
   <path d="m12.902 32.094h4.4688v-2.7656h-4.4688z"/>
   <path d="m12.902 35.691h4.4688v-2.7656h-4.4688z"/>
   <path d="m12.902 39.293h4.4688v-2.7656h-4.4688z"/>
   <path d="m12.902 42.895h4.4688v-2.7656h-4.4688z"/>
   <path d="m12.902 46.492h4.4688v-2.7656h-4.4688z"/>
   <path d="m12.902 50.094h4.4688v-2.7656h-4.4688z"/>
   <path d="m12.902 53.691h4.4688v-2.7656h-4.4688z"/>
   <path d="m12.902 57.293h4.4688v-2.7656h-4.4688z"/>
   <path d="m12.902 60.895h4.4688v-2.7656h-4.4688z"/>
   <path d="m12.902 64.492h4.4688v-2.7656h-4.4688z"/>
   <path d="m12.902 68.094h4.4688v-2.7656h-4.4688z"/>
   <path d="m12.902 71.691h4.4688v-2.7656h-4.4688z"/>
   <path d="m12.902 75.293h4.4688v-2.7656h-4.4688z"/>
   <path d="m12.902 78.895h4.4688v-2.7656h-4.4688z"/>
   <path d="m62.508 78.895h4.4688v-2.7656h-4.4688z"/>
   <path d="m62.508 75.293h4.4688v-2.7656h-4.4688z"/>
   <path d="m62.508 71.691h4.4688v-2.7656h-4.4688z"/>
   <path d="m62.508 68.094h4.4688v-2.7656h-4.4688z"/>
   <path d="m62.508 64.492h4.4688v-2.7656h-4.4688z"/>
   <path d="m62.508 60.895h4.4688v-2.7656h-4.4688z"/>
   <path d="m62.508 57.293h4.4688v-2.7656h-4.4688z"/>
   <path d="m62.508 53.691h4.4688v-2.7656h-4.4688z"/>
   <path d="m62.508 50.094h4.4688v-2.7656h-4.4688z"/>
   <path d="m62.508 46.492h4.4688v-2.7656h-4.4688z"/>
   <path d="m62.508 42.895h4.4688v-2.7656h-4.4688z"/>
   <path d="m62.508 39.293h4.4688v-2.7656h-4.4688z"/>
   <path d="m62.508 35.691h4.4688v-2.7656h-4.4688z"/>
   <path d="m62.508 32.094h4.4688v-2.7656h-4.4688z"/>
   <path d="m18.758 83.289h2.7656v-4.4688h-2.7656z"/>
   <path d="m22.355 83.289h2.7656v-4.4688h-2.7656z"/>
   <path d="m25.957 83.289h2.7656v-4.4688h-2.7656z"/>
   <path d="m29.555 83.289h2.7656v-4.4688h-2.7656z"/>
   <path d="m33.156 83.289h2.7656v-4.4688h-2.7656z"/>
   <path d="m36.758 83.289h2.7656v-4.4688h-2.7656z"/>
   <path d="m40.355 83.289h2.7656v-4.4688h-2.7656z"/>
   <path d="m43.957 83.289h2.7656v-4.4688h-2.7656z"/>
   <path d="m47.555 83.289h2.7656v-4.4688h-2.7656z"/>
   <path d="m51.156 83.289h2.7656v-4.4688h-2.7656z"/>
   <path d="m54.758 83.289h2.7656v-4.4688h-2.7656z"/>
   <path d="m58.355 83.289h2.7656v-4.4688h-2.7656z"/>
   <path d="m30.16 98.078h5.8867v-4.4688h-5.8867z"/>
   <path d="m30.16 104.6h5.8867v-4.4688h-5.8867z"/>
   <path d="m30.16 111.12h5.8867v-4.4688h-5.8867z"/>
   <path d="m48.016 107.86h5.8867v-10.988h-5.8867z"/>
   <path d="m20.961 129.94h3.0508v-4.4688h-3.0508z"/>
   <path d="m26.062 129.94h3.0508v-4.4688h-3.0508z"/>
   <path d="m26.062 120.58h3.0508v-4.4688h-3.0508z"/>
   <path d="m20.961 120.58h3.0508v-4.4688h-3.0508z"/>
   <path d="m58.84 169.97h3.1914v-2.0586h-3.1914z"/>
   <path d="m58.84 163.88h3.1914v-2.0586h-3.1914z"/>
   <path d="m47.074 163.88h3.1914v-2.0586h-3.1914z"/>
   <path d="m47.074 169.97h3.1914v-2.0586h-3.1914z"/>
   <path d="m29.414 169.97h3.1914v-2.0586h-3.1914z"/>
   <path d="m29.414 163.88h3.1914v-2.0586h-3.1914z"/>
   <path d="m17.652 163.88h3.1914v-2.0586h-3.1914z"/>
   <path d="m17.652 169.97h3.1914v-2.0586h-3.1914z"/>
  </g>
  <g fill="#ffd700" fill-rule="evenodd">
   <path d="m6.4961 29.793c-2.543 0-2.543 3.8164 0 3.8164h1.8008c2.5469 0 2.5469-3.8164 0-3.8164h-1.8008"/>
   <path d="m6.4961 36.992c-2.543 0-2.543 3.8164 0 3.8164h1.8008c2.5469 0 2.5469-3.8164 0-3.8164h-1.8008"/>
   <path d="m6.4961 44.195c-2.543 0-2.543 3.8125 0 3.8125h1.8008c2.5469 0 2.5469-3.8125 0-3.8125h-1.8008"/>
   <path d="m6.4961 51.395c-2.543 0-2.543 3.8164 0 3.8164h1.8008c2.5469 0 2.5469-3.8164 0-3.8164h-1.8008"/>
   <path d="m6.4961 58.594c-2.543 0-2.543 3.8164 0 3.8164h1.8008c2.5469 0 2.5469-3.8164 0-3.8164h-1.8008"/>
   <path d="m6.4961 65.793c-2.543 0-2.543 3.8164 0 3.8164h1.8008c2.5469 0 2.5469-3.8164 0-3.8164h-1.8008"/>
   <path d="m6.4961 72.992c-2.543 0-2.543 3.8164 0 3.8164h1.8008c2.5469 0 2.5469-3.8164 0-3.8164h-1.8008"/>
   <path d="m6.4961 80.195c-2.543 0-2.543 3.8125 0 3.8125h1.8008c2.5469 0 2.5469-3.8125 0-3.8125h-1.8008"/>
   <path d="m6.4961 87.395c-2.543 0-2.543 3.8164 0 3.8164h1.8008c2.5469 0 2.5469-3.8164 0-3.8164h-1.8008"/>
   <path d="m6.4961 94.594c-2.543 0-2.543 3.8164 0 3.8164h1.8008c2.5469 0 2.5469-3.8164 0-3.8164h-1.8008"/>
   <path d="m6.4961 101.79c-2.543 0-2.543 3.8164 0 3.8164h1.8008c2.5469 0 2.5469-3.8164 0-3.8164h-1.8008"/>
   <path d="m6.4961 108.99c-2.543 0-2.543 3.8164 0 3.8164h1.8008c2.5469 0 2.5469-3.8164 0-3.8164h-1.8008"/>
   <path d="m6.4961 116.2c-2.543 0-2.543 3.8125 0 3.8125h1.8008c2.5469 0 2.5469-3.8125 0-3.8125h-1.8008"/>
   <path d="m6.4961 123.39c-2.543 0-2.543 3.8164 0 3.8164h1.8008c2.5469 0 2.5469-3.8164 0-3.8164h-1.8008"/>
   <path d="m6.4961 130.59c-2.543 0-2.543 3.8164 0 3.8164h1.8008c2.5469 0 2.5469-3.8164 0-3.8164h-1.8008"/>
   <path d="m6.4961 137.79c-2.543 0-2.543 3.8164 0 3.8164h1.8008c2.5469 0 2.5469-3.8164 0-3.8164h-1.8008"/>
   <path d="m6.4961 144.99c-2.543 0-2.543 3.8164 0 3.8164h1.8008c2.5469 0 2.5469-3.8164 0-3.8164h-1.8008"/>
   <path d="m6.4961 152.2c-2.543 0-2.543 3.8125 0 3.8125h1.8008c2.5469 0 2.5469-3.8125 0-3.8125h-1.8008"/>
   <path d="m6.4961 159.39c-2.543 0-2.543 3.8164 0 3.8164h1.8008c2.5469 0 2.5469-3.8164 0-3.8164h-1.8008"/>
   <path d="m6.4961 166.59c-2.543 0-2.543 3.8164 0 3.8164h1.8008c2.5469 0 2.5469-3.8164 0-3.8164h-1.8008"/>
   <path d="m6.4961 173.79c-2.543 0-2.543 3.8164 0 3.8164h1.8008c2.5469 0 2.5469-3.8164 0-3.8164h-1.8008"/>
   <path d="m6.4961 180.99c-2.543 0-2.543 3.8164 0 3.8164h1.8008c2.5469 0 2.5469-3.8164 0-3.8164h-1.8008"/>
   <path d="m71.297 29.793c-2.543 0-2.543 3.8164 0 3.8164h1.8008c2.543 0 2.543-3.8164 0-3.8164h-1.8008"/>
   <path d="m71.297 36.992c-2.543 0-2.543 3.8164 0 3.8164h1.8008c2.543 0 2.543-3.8164 0-3.8164h-1.8008"/>
   <path d="m71.297 44.195c-2.543 0-2.543 3.8125 0 3.8125h1.8008c2.543 0 2.543-3.8125 0-3.8125h-1.8008"/>
   <path d="m71.297 51.395c-2.543 0-2.543 3.8164 0 3.8164h1.8008c2.543 0 2.543-3.8164 0-3.8164h-1.8008"/>
   <path d="m71.297 58.594c-2.543 0-2.543 3.8164 0 3.8164h1.8008c2.543 0 2.543-3.8164 0-3.8164h-1.8008"/>
   <path d="m71.297 65.793c-2.543 0-2.543 3.8164 0 3.8164h1.8008c2.543 0 2.543-3.8164 0-3.8164h-1.8008"/>
   <path d="m71.297 72.992c-2.543 0-2.543 3.8164 0 3.8164h1.8008c2.543 0 2.543-3.8164 0-3.8164h-1.8008"/>
   <path d="m71.297 80.195c-2.543 0-2.543 3.8125 0 3.8125h1.8008c2.543 0 2.543-3.8125 0-3.8125h-1.8008"/>
   <path d="m71.297 87.395c-2.543 0-2.543 3.8164 0 3.8164h1.8008c2.543 0 2.543-3.8164 0-3.8164h-1.8008"/>
   <path d="m71.297 94.594c-2.543 0-2.543 3.8164 0 3.8164h1.8008c2.543 0 2.543-3.8164 0-3.8164h-1.8008"/>
   <path d="m71.297 101.79c-2.543 0-2.543 3.8164 0 3.8164h1.8008c2.543 0 2.543-3.8164 0-3.8164h-1.8008"/>
   <path d="m71.297 108.99c-2.543 0-2.543 3.8164 0 3.8164h1.8008c2.543 0 2.543-3.8164 0-3.8164h-1.8008"/>
   <path d="m71.297 116.2c-2.543 0-2.543 3.8125 0 3.8125h1.8008c2.543 0 2.543-3.8125 0-3.8125h-1.8008"/>
   <path d="m71.297 123.39c-2.543 0-2.543 3.8164 0 3.8164h1.8008c2.543 0 2.543-3.8164 0-3.8164h-1.8008"/>
   <path d="m71.297 130.59c-2.543 0-2.543 3.8164 0 3.8164h1.8008c2.543 0 2.543-3.8164 0-3.8164h-1.8008"/>
   <path d="m71.297 137.79c-2.543 0-2.543 3.8164 0 3.8164h1.8008c2.543 0 2.543-3.8164 0-3.8164h-1.8008"/>
   <path d="m71.297 144.99c-2.543 0-2.543 3.8164 0 3.8164h1.8008c2.543 0 2.543-3.8164 0-3.8164h-1.8008"/>
   <path d="m71.297 152.2c-2.543 0-2.543 3.8125 0 3.8125h1.8008c2.543 0 2.543-3.8125 0-3.8125h-1.8008"/>
   <path d="m71.297 159.39c-2.543 0-2.543 3.8164 0 3.8164h1.8008c2.543 0 2.543-3.8164 0-3.8164h-1.8008"/>
   <path d="m71.297 166.59c-2.543 0-2.543 3.8164 0 3.8164h1.8008c2.543 0 2.543-3.8164 0-3.8164h-1.8008"/>
   <path d="m71.297 173.79c-2.543 0-2.543 3.8164 0 3.8164h1.8008c2.543 0 2.543-3.8164 0-3.8164h-1.8008"/>
   <path d="m71.297 180.99c-2.543 0-2.543 3.8164 0 3.8164h1.8008c2.543 0 2.543-3.8164 0-3.8164h-1.8008"/>
  </g>
  <g fill="none" stroke="#131313" stroke-linecap="round" stroke-miterlimit="10" stroke-width=".36">
   <path d="m3.7968 204.05c0 0.78516 0.63677 1.418 1.418 1.418"/>
   <path d="m5.2148 205.46h69.164"/>
   <path d="m74.379 205.46c0.78516 0 1.418-0.63288 1.418-1.418"/>
   <path d="m75.797 204.05v-175.36"/>
   <path d="m75.797 28.684c0-0.78127-0.63288-1.418-1.418-1.418"/>
  </g>
  <g stroke="#030303" stroke-linecap="round" stroke-miterlimit="10" stroke-width=".36">
   <path d="m74.379 27.266h-69.164"/>
   <path d="m5.2148 27.266c-0.7812 0-1.418 0.63648-1.418 1.418"/>
   <path d="m3.7968 28.684v175.36"/>
  </g>
  <g fill="none" stroke="#fff" stroke-linecap="round" stroke-miterlimit="10" stroke-width=".288">
   <path d="m48.602 170.5h11.906"/>
   <path d="m60.508 167.88v-3.9687"/>
   <path d="m60.508 161.29h-11.906"/>
   <path d="m48.602 163.91v3.9687"/>
   <path d="m60.508 170.5v-0.49608"/>
   <path d="m48.602 170.5v-0.49608"/>
   <path d="m60.508 161.79v-0.49608"/>
   <path d="m48.602 161.79v-0.49608"/>
   <path d="m55.688 169.02h-2.2696"/>
   <path d="m53.418 162.78c-4.1562 0-4.1562 6.2344 0 6.2344"/>
   <path d="m53.418 162.78h2.2696"/>
   <path d="m55.688 169.02c4.1562 0 4.1562-6.2344 0-6.2344"/>
   <path d="m59.238 105.75h-2.5937"/>
   <path d="m56.645 105.75 1.2969 1.2969"/>
   <path d="m57.941 107.04 1.2969-1.2969"/>
   <path d="m30 118.07v9.9219"/>
   <path d="m20.785 127.99-0.70704-0.71093"/>
   <path d="m20.078 127.28v-9.211"/>
   <path d="m29.289 118.07h0.71064"/>
   <path d="m30 127.99h-0.71093"/>
   <path d="m25.746 127.99h-1.418"/>
   <path d="m25.746 118.07h-1.418"/>
   <path d="m20.078 118.07h0.70704"/>
   <path d="m47.297 207.64v0.28124"/>
   <path d="m48.008 207.83v0.0859"/>
   <path d="m48.125 207.83v0.0859"/>
   <path d="m48.148 192.05v13.898"/>
   <path d="m48.859 206.41v-0.19533"/>
   <path d="m48.922 206.22v0.19533"/>
   <path d="m49.191 206.41v-0.19533"/>
   <path d="m49.426 206.22v1.6992"/>
   <path d="m68.367 206.41 0.65239 0.83203"/>
   <path d="m68.699 206.41 0.85154 1.418"/>
   <path d="m69.551 206.45 0.70704 1.1836"/>
   <path d="m68.633 206.41 0.38671 0.83203"/>
   <path d="m68.133 206.22v1.6992"/>
   <path d="m68.367 206.41v-0.19533"/>
   <path d="m68.633 206.41v-0.19533"/>
   <path d="m68.699 206.41v-0.19533"/>
   <path d="m69.41 205.95v-13.898"/>
   <path d="m69.434 207.83v0.0859"/>
   <path d="m69.551 207.83v0.0859"/>
   <path d="m70.258 207.64v0.28124"/>
   <path d="m48.922 206.41-0.38275 0.83203"/>
   <path d="m48.008 206.45-0.71093 1.1836"/>
   <path d="m48.859 206.41-0.85154 1.418"/>
   <path d="m49.191 206.41-0.65232 0.83203"/>
   <path d="m68.133 207.92h-18.707"/>
   <path d="m47.297 207.92h0.82814"/>
   <path d="m69.434 207.92h0.82426"/>
   <path d="m69.551 207.83h-0.11722"/>
   <path d="m48.125 207.83h-0.11722"/>
   <path d="m49.426 207.64h18.707"/>
   <path d="m68.699 206.41h-0.33206"/>
   <path d="m49.191 206.41h-0.33206"/>
   <path d="m49.426 206.22h-1.3164"/>
   <path d="m68.133 206.22h1.3164"/>
   <path d="m69.41 205.95h-21.262"/>
   <path d="m48.148 192.05h21.262"/>
   <path d="m69.41 205.95c0 0.17971 0.04687 0.35546 0.1404 0.50782"/>
   <path d="m48.008 206.45c0.0936-0.15236 0.1404-0.32811 0.1404-0.50782"/>
   <path d="m19.176 170.5h11.906"/>
   <path d="m31.082 167.88v-3.9687"/>
   <path d="m31.082 161.29h-11.906"/>
   <path d="m19.176 163.91v3.9687"/>
   <path d="m31.082 170.5v-0.49608"/>
   <path d="m19.176 170.5v-0.49608"/>
   <path d="m31.082 161.79v-0.49608"/>
   <path d="m19.176 161.79v-0.49608"/>
   <path d="m26.262 169.02h-2.2656"/>
   <path d="m23.996 162.78c-4.1563 0-4.1563 6.2344 0 6.2344"/>
   <path d="m23.996 162.78h2.2656"/>
   <path d="m26.262 169.02c4.1602 0 4.1602-6.2344 0-6.2344"/>
   <path d="m47.422 155.46h1.9844"/>
   <path d="m49.406 155.46v-1.9844"/>
   <path d="m37.215 141.28h-1.9844"/>
   <path d="m35.23 141.28v1.9844"/>
   <path d="m37.215 155.46h-1.9844"/>
   <path d="m35.23 155.46v-1.9844"/>
   <path d="m49.406 143.41v-1.418"/>
   <path d="m49.406 141.99-0.71064-0.71064"/>
   <path d="m48.695 141.28h-1.418"/>
   <path d="m50.605 141c0-0.84376-1.2656-0.84376-1.2656 0 0 0.84377 1.2656 0.84377 1.2656 0"/>
   <path d="m9.3125 207.64v0.28124"/>
   <path d="m10.023 207.83v0.0859"/>
   <path d="m10.141 207.83v0.0859"/>
   <path d="m10.164 192.05v13.898"/>
   <path d="m10.875 206.41v-0.19533"/>
   <path d="m10.938 206.22v0.19533"/>
   <path d="m11.207 206.41v-0.19533"/>
   <path d="m11.441 206.22v1.6992"/>
   <path d="m30.383 206.41 0.65232 0.83203"/>
   <path d="m30.715 206.41 0.85154 1.418"/>
   <path d="m31.566 206.45 0.70704 1.1836"/>
   <path d="m30.652 206.41 0.38282 0.83203"/>
   <path d="m30.148 206.22v1.6992"/>
   <path d="m30.383 206.41v-0.19533"/>
   <path d="m30.652 206.41v-0.19533"/>
   <path d="m30.715 206.41v-0.19533"/>
   <path d="m31.426 205.95v-13.898"/>
   <path d="m31.449 207.83v0.0859"/>
   <path d="m31.566 207.83v0.0859"/>
   <path d="m32.273 207.64v0.28124"/>
   <path d="m10.938 206.41-0.38282 0.83203"/>
   <path d="m10.023 206.45-0.71093 1.1836"/>
   <path d="m10.875 206.41-0.85162 1.418"/>
   <path d="m11.207 206.41-0.65232 0.83203"/>
   <path d="m30.148 207.92h-18.707"/>
   <path d="m9.3125 207.92h0.82814"/>
   <path d="m31.449 207.92h0.82418"/>
   <path d="m31.566 207.83h-0.11714"/>
   <path d="m10.141 207.83h-0.11722"/>
   <path d="m11.441 207.64h18.707"/>
   <path d="m30.715 206.41h-0.33199"/>
   <path d="m11.207 206.41h-0.33199"/>
   <path d="m11.441 206.22h-1.3164"/>
   <path d="m30.148 206.22h1.3164"/>
   <path d="m10.164 192.05h21.262"/>
   <path d="m31.426 205.95c0 0.17971 0.04687 0.35546 0.1404 0.50782"/>
   <path d="m10.023 206.45c0.0936-0.15236 0.1404-0.32811 0.1404-0.50782"/>
   <path d="m14.43 80.004v1.7578"/>
   <path d="m14.43 81.762h2.8047"/>
   <path d="m62.902 81.762h2.5507"/>
   <path d="m65.453 81.762v-1.7578"/>
  </g>
  <rect x="14.43" y="9.4766" width="51.023" height="72.285" ry="0" fill="#333"/>
  <g fill="#ffd700" fill-rule="evenodd">
   <path d="m14.429 32.094h1.4194v-2.7656h-1.4194z"/>
   <path d="m14.429 35.691h1.4194v-2.7656h-1.4194z"/>
   <path d="m14.429 39.293h1.4194v-2.7656h-1.4194z"/>
   <path d="m14.429 42.895h1.4194v-2.7656h-1.4194z"/>
   <path d="m14.429 46.492h1.4194v-2.7656h-1.4194z"/>
   <path d="m14.429 50.094h1.4194v-2.7656h-1.4194z"/>
   <path d="m14.429 53.691h1.4194v-2.7656h-1.4194z"/>
   <path d="m14.429 57.293h1.4194v-2.7656h-1.4194z"/>
   <path d="m14.429 60.895h1.4194v-2.7656h-1.4194z"/>
   <path d="m14.429 64.492h1.4194v-2.7656h-1.4194z"/>
   <path d="m14.429 68.094h1.4194v-2.7656h-1.4194z"/>
   <path d="m14.429 71.691h1.4194v-2.7656h-1.4194z"/>
   <path d="m14.429 75.293h1.4194v-2.7656h-1.4194z"/>
   <path d="m14.429 78.895h1.4194v-2.7656h-1.4194z"/>
   <path d="m64.037 32.094h1.4194v-2.7656h-1.4194z"/>
   <path d="m64.037 35.691h1.4194v-2.7656h-1.4194z"/>
   <path d="m64.037 39.293h1.4194v-2.7656h-1.4194z"/>
   <path d="m64.037 42.895h1.4194v-2.7656h-1.4194z"/>
   <path d="m64.037 46.492h1.4194v-2.7656h-1.4194z"/>
   <path d="m64.037 50.094h1.4194v-2.7656h-1.4194z"/>
   <path d="m64.037 53.691h1.4194v-2.7656h-1.4194z"/>
   <path d="m64.037 57.293h1.4194v-2.7656h-1.4194z"/>
   <path d="m64.037 60.895h1.4194v-2.7656h-1.4194z"/>
   <path d="m64.037 64.492h1.4194v-2.7656h-1.4194z"/>
   <path d="m64.037 68.094h1.4194v-2.7656h-1.4194z"/>
   <path d="m64.037 71.691h1.4194v-2.7656h-1.4194z"/>
   <path d="m64.037 75.293h1.4194v-2.7656h-1.4194z"/>
   <path d="m64.037 78.895h1.4194v-2.7656h-1.4194z"/>
   <path d="m21.523 81.763v-1.4194h-2.7656v1.4194z"/>
   <path d="m25.121 81.763v-1.4194h-2.7656v1.4194z"/>
   <path d="m28.723 81.763v-1.4194h-2.7656v1.4194z"/>
   <path d="m32.324 81.763v-1.4194h-2.7656v1.4194z"/>
   <path d="m35.922 81.763v-1.4194h-2.7656v1.4194z"/>
   <path d="m39.523 81.763v-1.4194h-2.7656v1.4194z"/>
   <path d="m43.121 81.763v-1.4194h-2.7656v1.4194z"/>
   <path d="m46.723 81.763v-1.4194h-2.7656v1.4194z"/>
   <path d="m50.324 81.763v-1.4194h-2.7656v1.4194z"/>
   <path d="m53.922 81.763v-1.4194h-2.7656v1.4194z"/>
   <path d="m57.523 81.763v-1.4194h-2.7656v1.4194z"/>
   <path d="m61.121 81.763v-1.4194h-2.7656v1.4194z"/>
  </g>
  <g>
   <rect x="16.591" y="29.302" width="46.702" height="49.718" ry=".52358" fill="#ccc"/>
   <g transform="matrix(3.8052 0 0 3.8052 -22.561 -270.04)" fill="#808080" stroke-width=".26458">
    <path class="cls-1" d="m15.481 86.507a0.39158 0.39158 0 1 1-0.39158-0.39158 0.39158 0.39158 0 0 1 0.39158 0.39158"/>
    <path class="cls-1" d="m18.897 86.099a4.0587 4.0587 0 0 0-3.4396-3.4396 2.5744 2.5744 0 0 0-0.56885 0.4101v0.37835a3.2226 3.2226 0 0 1 3.22 3.2173h0.37835a2.712 2.712 0 0 0 0.4101-0.56621"/>
    <path class="cls-1" d="m19.203 84.911a2.5453 2.5453 0 0 0-2.5585-2.5453c-0.08996 0-0.17727 0-0.26458 0.01323l-0.05821 0.16933a4.3789 4.3789 0 0 1 2.6829 2.6802l0.16933-0.06086c0-0.08467 0.01588-0.16933 0.01588-0.26458"/>
    <path class="cls-1" d="m16.674 87.922a3.0268 3.0268 0 0 1-3.0268-3.0136 3.0057 3.0057 0 0 1 0.88635-2.1405l0.17198 0.1614a2.794 2.794 0 0 0 0 3.9688 2.794 2.794 0 0 0 3.9688 0l0.1614 0.1614a3.003 3.003 0 0 1-2.1616 0.86254"/>
    <path class="cls-1" d="m16.64 86.84a1.7595 1.7595 0 0 0-0.69056-1.5637 1.7224 1.7224 0 0 0-0.88635-0.35983 0.1614 0.1614 0 0 1-0.14023-0.16933 0.1561 0.1561 0 0 1 0.17198-0.14288 2.077 2.077 0 0 1 1.8521 2.2701 1.8124 1.8124 0 0 1-0.06879 0.35719l0.46038 0.12965a2.5559 2.5559 0 0 0 0.39688-0.15081 2.8152 2.8152 0 0 0 0.05027-0.5424 2.9104 2.9104 0 0 0-2.4686-2.8734 1.2806 1.2806 0 0 0-0.46302 0 1.0081 1.0081 0 0 0-0.50006 0.30956 0.98954 0.98954 0 0 0 0.44186 1.5875 2.2913 2.2913 0 0 0 0.24871 0.04498 0.92869 0.92869 0 0 1 0.77258 0.91546 0.9181 0.9181 0 0 1-0.14817 0.50006l0.3175 0.20373a2.3574 2.3574 0 0 0 0.47625 0.07937 1.741 1.741 0 0 0 0.17462-0.60854"/>
   </g>
   <text x="18.45409" y="35.471416" fill="#808080" font-family="sans-serif" font-size="4.0283px" letter-spacing="0px" stroke-width=".10071" word-spacing="0px" style="line-height:1.25" xml:space="preserve"><tspan x="18.45409" y="35.471416" fill="#808080" font-family="'Ubuntu Mono'" stroke-width=".10071">ESP32-S3-WROOM-1</tspan></text>
  </g>
  <g transform="matrix(.43209 0 0 .43209 112.78 76.464)">
   <path d="m-218.38-119.09v-30.238h15.667v18.742h17.719v-18.452h17.252v18.356h17.812v-18.549h32.92v33.426" fill="none" stroke="#5c5c5c" stroke-linecap="round" stroke-width="3.9877"/>
   <path d="m-133.61-115.67v-33.523" fill="none" stroke="#5c5c5c" stroke-linecap="round" stroke-width="3.9877"/>
   <ellipse cx="-117.05" cy="-115.75" rx="1.9123" ry="1.9811" fill="#a80" fill-opacity=".99608"/>
   <ellipse cx="-133.6" cy="-115.61" rx="1.9123" ry="1.9811" fill="#a80" fill-opacity=".99608"/>
  </g>
  <g transform="translate(130.91 80.253)">
   <path d="m-110.84 37.814v9.2148l0.70704 0.70704h9.2148v-9.9219z" fill="#f9f9f9"/>
   <circle cx="-105.88" cy="42.774" r="3.8358" fill="#e3dedb"/>
   <rect x="-106.54" y="44.585" width="1.323" height="1.323" fill="#a80"/>
  </g>
  <rect x="35.23" y="141.28" width="14.176" height="14.172" ry="0" fill="#1a1a1a"/>
  <text x="37.007381" y="149.4816" fill="#333333" font-family="'Noto Sans SC'" font-size="3.0366px" letter-spacing="0px" stroke-width=".18979" word-spacing="0px" style="line-height:1.25" xml:space="preserve"><tspan x="37.007381" y="149.4816" fill="#333333" stroke-width=".18979"/></text>
  <g transform="translate(130.99 71.683)">
   <rect x="-111.81" y="89.61" width="11.906" height="9.211" fill="#9d9d9d"/>
   <rect x="-110.55" y="91.313" width="9.393" height="5.8052" ry="2.9026"/>
  </g>
  <g transform="translate(160.41 71.683)">
   <rect x="-111.81" y="89.61" width="11.906" height="9.211" fill="#9d9d9d"/>
   <rect x="-110.55" y="91.313" width="9.393" height="5.8052" ry="2.9026"/>
  </g>
  <g>
   <path d="m10.164 192.04h21.262l0.0391 14.176 0.80856 1.414v0.28519l-0.82418 3e-5 -1.3008-1.6992v1.6992h-18.707v-1.6992l-1.418 1.6992-0.71093-3e-5v-0.28519l0.81252-1.414z" fill="#9d9d9d"/>
   <path d="m48.148 192.04h21.262l0.0391 14.176 0.80856 1.414v0.28519l-0.82418 3e-5 -1.3008-1.6992v1.6992h-18.707v-1.6992l-1.418 1.6992-0.71093-3e-5v-0.28519l0.81252-1.414z" fill="#9d9d9d"/>
   <rect x="36.054" y="92.867" width="12.012" height="18.992" ry="0" fill="#1a1a1a"/>
   <rect x="56.441" y="103.82" width="2.9941" height="5.1906" ry="0" fill="#e3dedb"/>
  </g>
  <g fill="#ffffff" font-family="sans-serif" font-size="2.9181px" stroke-width=".072952">
   <text x="4.7248979" y="36.114529" style="line-height:1.25" xml:space="preserve"><tspan x="4.7248979" y="36.114529" fill="#ffffff" stroke-width=".072952">3V3</tspan></text>
   <text x="4.701715" y="43.46312" style="line-height:1.25" xml:space="preserve"><tspan x="4.701715" y="43.46312" fill="#ffffff" stroke-width=".072952">3V3</tspan></text>
   <text x="4.6053467" y="50.449867" style="line-height:1.25" xml:space="preserve"><tspan x="4.6053467" y="50.449867" fill="#ffffff" stroke-width=".072952">RST</tspan></text>
   <text x="6.3043666" y="57.677532" style="line-height:1.25" xml:space="preserve"><tspan x="6.3043666" y="57.677532" fill="#ffffff" stroke-width=".072952">4</tspan></text>
   <text x="6.363946" y="64.85701" style="line-height:1.25" xml:space="preserve"><tspan x="6.363946" y="64.85701" fill="#ffffff" stroke-width=".072952">5</tspan></text>
   <text x="6.797606" y="72.132866" style="line-height:1.25" xml:space="preserve"><tspan x="6.797606" y="72.132866" fill="#ffffff" stroke-width=".072952">6</tspan></text>
   <text x="6.5832024" y="79.563515" style="line-height:1.25" xml:space="preserve"><tspan x="6.5832024" y="79.563515" fill="#ffffff" stroke-width=".072952">7</tspan></text>
   <text x="5.4737749" y="86.656868" style="line-height:1.25" xml:space="preserve"><tspan x="5.4737749" y="86.656868" fill="#ffffff" stroke-width=".072952">15</tspan></text>
   <text x="5.5936441" y="93.810745" style="line-height:1.25" xml:space="preserve"><tspan x="5.5936441" y="93.810745" fill="#ffffff" stroke-width=".072952">16</tspan></text>
   <text x="6.0703688" y="101.14502" style="line-height:1.25" xml:space="preserve"><tspan x="6.0703688" y="101.14502" fill="#ffffff" stroke-width=".072952">17</tspan></text>
   <text x="5.6346068" y="108.29681" style="line-height:1.25" xml:space="preserve"><tspan x="5.6346068" y="108.29681" fill="#ffffff" stroke-width=".072952">18</tspan></text>
   <text x="6.7316914" y="115.5829" style="line-height:1.25" xml:space="preserve"><tspan x="6.7316914" y="115.5829" fill="#ffffff" stroke-width=".072952">8</tspan></text>
   <text x="6.6271839" y="122.82291" style="line-height:1.25" xml:space="preserve"><tspan x="6.6271839" y="122.82291" fill="#ffffff" stroke-width=".072952">3</tspan></text>
   <text x="5.7966232" y="130.17464" style="line-height:1.25" xml:space="preserve"><tspan x="5.7966232" y="130.17464" fill="#ffffff" stroke-width=".072952">46</tspan></text>
   <text x="6.7497835" y="136.99449" style="line-height:1.25" xml:space="preserve"><tspan x="6.7497835" y="136.99449" fill="#ffffff" stroke-width=".072952">9</tspan></text>
   <text x="5.5349765" y="144.14886" style="line-height:1.25" xml:space="preserve"><tspan x="5.5349765" y="144.14886" fill="#ffffff" stroke-width=".072952">10</tspan></text>
   <text x="5.6061263" y="151.54185" style="line-height:1.25" xml:space="preserve"><tspan x="5.6061263" y="151.54185" fill="#ffffff" stroke-width=".072952">11</tspan></text>
   <text x="5.4123645" y="158.57452" style="line-height:1.25" xml:space="preserve"><tspan x="5.4123645" y="158.57452" fill="#ffffff" stroke-width=".072952">12</tspan></text>
   <text x="5.5589662" y="165.80263" style="line-height:1.25" xml:space="preserve"><tspan x="5.5589662" y="165.80263" fill="#ffffff" stroke-width=".072952">13</tspan></text>
   <text x="5.486587" y="172.98354" style="line-height:1.25" xml:space="preserve"><tspan x="5.486587" y="172.98354" fill="#ffffff" stroke-width=".072952">14</tspan></text>
   <text x="21.216141" y="160.29483" style="line-height:1.25" xml:space="preserve"><tspan x="21.216141" y="160.29483" fill="#ffffff" stroke-width=".072952">BOOT</tspan></text>
   <text x="5.4127736" y="180.01683" style="line-height:1.25" xml:space="preserve"><tspan x="5.4127736" y="180.01683" fill="#ffffff" stroke-width=".072952">5V</tspan></text>
   <text x="6.1445417" y="187.5623" style="line-height:1.25" xml:space="preserve"><tspan x="6.1445417" y="187.5623" fill="#ffffff" stroke-width=".072952">G</tspan></text>
   <text x="17.926455" y="115.20123" style="line-height:1.25" xml:space="preserve"><tspan x="17.926455" y="115.20123" fill="#ffffff" stroke-width=".072952">RGB</tspan></text>
   <text x="16.998285" y="187.377" style="line-height:1.25" xml:space="preserve"><tspan x="16.998285" y="187.377" fill="#ffffff" stroke-width=".072952">UART</tspan></text>
   <text x="70.909599" y="36.205132" style="line-height:1.25" xml:space="preserve"><tspan x="70.909599" y="36.205132" fill="#ffffff" stroke-width=".072952">G</tspan></text>
   <text x="71.187233" y="187.46443" style="line-height:1.25" xml:space="preserve"><tspan x="71.187233" y="187.46443" fill="#ffffff" stroke-width=".072952">G</tspan></text>
   <text x="71.30426" y="180.38033" style="line-height:1.25" xml:space="preserve"><tspan x="71.30426" y="180.38033" fill="#ffffff" stroke-width=".072952">G</tspan></text>
   <text x="70.251991" y="173.20792" style="line-height:1.25" xml:space="preserve"><tspan x="70.251991" y="173.20792" fill="#ffffff" stroke-width=".072952">19</tspan></text>
   <text x="70.442642" y="165.86302" style="line-height:1.25" xml:space="preserve"><tspan x="70.442642" y="165.86302" fill="#ffffff" stroke-width=".072952">20</tspan></text>
   <text x="70.43428" y="158.82101" style="line-height:1.25" xml:space="preserve"><tspan x="70.43428" y="158.82101" fill="#ffffff" stroke-width=".072952">21</tspan></text>
   <text x="70.29071" y="151.45039" style="line-height:1.25" xml:space="preserve"><tspan x="70.29071" y="151.45039" fill="#ffffff" stroke-width=".072952">47</tspan></text>
   <text x="70.349464" y="144.26813" style="line-height:1.25" xml:space="preserve"><tspan x="70.349464" y="144.26813" fill="#ffffff" stroke-width=".072952">48</tspan></text>
   <text x="70.403915" y="137.13428" style="line-height:1.25" xml:space="preserve"><tspan x="70.403915" y="137.13428" fill="#ffffff" stroke-width=".072952">45</tspan></text>
   <text x="71.184593" y="129.99908" style="line-height:1.25" xml:space="preserve"><tspan x="71.184593" y="129.99908" fill="#ffffff" stroke-width=".072952">0</tspan></text>
   <text x="70.205894" y="122.61545" style="line-height:1.25" xml:space="preserve"><tspan x="70.205894" y="122.61545" fill="#ffffff" stroke-width=".072952">35</tspan></text>
   <text x="70.198891" y="115.45087" style="line-height:1.25" xml:space="preserve"><tspan x="70.198891" y="115.45087" fill="#ffffff" stroke-width=".072952">36</tspan></text>
   <text x="70.370483" y="108.27093" style="line-height:1.25" xml:space="preserve"><tspan x="70.370483" y="108.27093" fill="#ffffff" stroke-width=".072952">37</tspan></text>
   <text x="70.317749" y="101.09933" style="line-height:1.25" xml:space="preserve"><tspan x="70.317749" y="101.09933" fill="#ffffff" stroke-width=".072952">38</tspan></text>
   <text x="70.138779" y="93.925415" style="line-height:1.25" xml:space="preserve"><tspan x="70.138779" y="93.925415" fill="#ffffff" stroke-width=".072952">39</tspan></text>
   <text x="70.483696" y="86.696053" style="line-height:1.25" xml:space="preserve"><tspan x="70.483696" y="86.696053" fill="#ffffff" stroke-width=".072952">40</tspan></text>
   <text x="70.29673" y="79.531479" style="line-height:1.25" xml:space="preserve"><tspan x="70.29673" y="79.531479" fill="#ffffff" stroke-width=".072952">41</tspan></text>
   <text x="70.37085" y="72.322159" style="line-height:1.25" xml:space="preserve"><tspan x="70.37085" y="72.322159" fill="#ffffff" stroke-width=".072952">42</tspan></text>
   <text x="71.250725" y="65.170609" style="line-height:1.25" xml:space="preserve"><tspan x="71.250725" y="65.170609" fill="#ffffff" stroke-width=".072952">2</tspan></text>
   <text x="71.402657" y="57.898834" style="line-height:1.25" xml:space="preserve"><tspan x="71.402657" y="57.898834" fill="#ffffff" stroke-width=".072952">1</tspan></text>
   <text x="69.796196" y="50.602367" style="line-height:1.25" xml:space="preserve"><tspan x="69.796196" y="50.602367" fill="#ffffff" stroke-width=".072952">RX</tspan></text>
   <text x="70.134109" y="43.355305" style="line-height:1.25" xml:space="preserve"><tspan x="70.134109" y="43.355305" fill="#ffffff" stroke-width=".072952">TX</tspan></text>
   <text x="55.431389" y="187.22548" style="line-height:1.25" xml:space="preserve"><tspan x="55.431389" y="187.22548" fill="#ffffff" stroke-width=".072952">USB</tspan></text>
   <text x="49.828423" y="160.43681" style="line-height:1.25" xml:space="preserve"><tspan x="49.828423" y="160.43681" fill="#ffffff" stroke-width=".072952">RESET</tspan></text>
  </g>
 </g>
</svg>
