<?xml version="1.0" encoding="UTF-8"?>
<svg class="diagram-part_diagramItem__ZeYe_ diagram-part_active__exoHi diagram-part_selectable__N65pi diagram-part_editMode__gIx0Q" width="18.1mm" height="23.4mm" overflow="visible" text-rendering="geometricprecision" data-draggable="true" part="AnonymousModel@/parts/0" version="1.1" viewBox="0 0 712.6 921.23" wokwi-controller="wokwi-pi-pico" xmlns="http://www.w3.org/2000/svg">
 <g fill-rule="evenodd" stroke-linecap="round" stroke-linejoin="round" stroke-miterlimit="7.4">
  <path d="m672.67 789.21c-0.039-0.6969-0.2402-1.7756-0.4732-2.7126-0.8945-3.5984-3.1323-6.9284-6.1332-9.1201-2.0736-1.5157-4.6905-2.5984-7.2353-2.9921-0.4492-0.079-3.437-0.1181-4.1282-0.039-0.8303 0.079-1.9772 0.315-3.0039 0.6457-1.817 0.5866-3.6619 1.5394-4.9211 2.5433-0.9867 0.7834-2.3422 2.1338-3.0843 3.0669-1.0146 1.2795-2.1016 3.4173-2.6752 5.2768-0.7779 2.5157-0.8862 5.6441-0.2795 8.324 0.5453 2.437 1.6484 4.7307 3.1606 6.5937 1.115 1.374 2.5508 2.6771 3.9706 3.6063 0.8063 0.5275 1.4598 0.87 2.322 1.2244 1.4961 0.6102 3.2489 1.0826 4.4908 1.2086 0.9787 0.079 3.2886 0.079 4.1226-0.039 2.8795-0.4174 5.6234-1.6378 7.9468-3.5355 0.461-0.3937 1.4677-1.3504 1.8972-1.8385 2.1417-2.4252 3.413-5.1855 3.9185-8.4996 0.1221-0.9095 0.2008-2.689 0.1221-3.6969zm0-99.293c-0.039-0.6968-0.2402-1.7756-0.4732-2.7126-0.8945-3.5984-3.1323-6.9283-6.1332-9.1201-2.0736-1.5157-4.6905-2.5984-7.2353-2.9921-0.4492-0.079-3.437-0.1181-4.1282-0.039-0.8303 0.079-1.9772 0.3149-3.0039 0.6456-1.817 0.5866-3.6619 1.5394-4.9211 2.5433-0.9867 0.7835-2.3422 2.1339-3.0843 3.0669-1.0146 1.2796-2.1016 3.4174-2.6752 5.2768-0.7779 2.5158-0.8862 5.6441-0.2795 8.324 0.5453 2.4331 1.6484 4.7307 3.1606 6.5937 1.115 1.374 2.5508 2.6772 3.9706 3.6063 0.8063 0.5276 1.4598 0.8701 2.322 1.2244 1.4961 0.6102 3.2489 1.0827 4.4908 1.2087 0.9787 0.079 3.2886 0.079 4.1226-0.039 2.8795-0.4173 5.6234-1.6378 7.9468-3.5354 0.461-0.3937 1.4677-1.3504 1.8972-1.8386 2.1417-2.4252 3.413-5.185 3.9185-8.4992 0.1221-0.9095 0.2008-2.689 0.1221-3.6969zm0-99.293c-0.039-0.6968-0.2402-1.7755-0.4732-2.7126-0.8945-3.5984-3.1323-6.9283-6.1332-9.12-2.0736-1.5158-4.6905-2.5984-7.2353-2.9921-0.4492-0.079-3.437-0.1182-4.1282-0.039-0.8303 0.079-1.9772 0.3149-3.0039 0.6457-1.817 0.5866-3.6619 1.5393-4.9211 2.5433-0.9867 0.7834-2.3422 2.1338-3.0843 3.0669-1.0146 1.2795-2.1016 3.4173-2.6752 5.2767-0.7779 2.5158-0.8862 5.6441-0.2795 8.3244 0.5453 2.4331 1.6484 4.7307 3.1606 6.5937 1.115 1.3741 2.5508 2.6772 3.9706 3.6063 0.8063 0.5276 1.4598 0.8701 2.322 1.2244 1.4961 0.6103 3.2489 1.0827 4.4908 1.2087 0.9787 0.079 3.2886 0.079 4.1226-0.039 2.8795-0.4173 5.6234-1.6378 7.9468-3.5354 0.461-0.3937 1.4677-1.3504 1.8972-1.8386 2.1417-2.4252 3.413-5.1854 3.9185-8.4996 0.1221-0.9094 0.2008-2.6889 0.1221-3.6968zm0-99.293c-0.039-0.6969-0.2402-1.7756-0.4732-2.7126-0.8945-3.5945-3.1323-6.928-6.1332-9.1197-2.0736-1.5157-4.6905-2.5984-7.2353-2.9921-0.4492-0.079-3.437-0.1181-4.1282-0.039-0.8303 0.079-1.9772 0.315-3.0039 0.6457-1.817 0.5866-3.6619 1.5394-4.9211 2.5433-0.9867 0.7835-2.3422 2.1338-3.0843 3.0669-1.0146 1.2795-2.1016 3.4173-2.6752 5.2768-0.7779 2.5157-0.8862 5.6441-0.2795 8.324 0.5453 2.4331 1.6484 4.7307 3.1606 6.5937 1.115 1.374 2.5508 2.6771 3.9706 3.6063 0.8063 0.5275 1.4598 0.87 2.322 1.2244 1.4961 0.6102 3.2489 1.0827 4.4908 1.2086 0.9787 0.079 3.2886 0.079 4.1226-0.039 2.8795-0.4174 5.6234-1.6378 7.9468-3.5355 0.461-0.3937 1.4677-1.3504 1.8972-1.8385 2.1417-2.4252 3.413-5.1855 3.9185-8.4996 0.1221-0.9095 0.2008-2.6851 0.1221-3.6969zm0-99.292c-0.039-0.6968-0.2402-1.7756-0.4732-2.7126-0.8945-3.5945-3.1323-6.9283-6.1332-9.1201-2.0736-1.5157-4.6905-2.5984-7.2353-2.9921-0.4492-0.079-3.437-0.1181-4.1282-0.039-0.8303 0.079-1.9772 0.3149-3.0039 0.6456-1.817 0.5866-3.6619 1.5394-4.9211 2.5433-0.9867 0.7835-2.3422 2.1339-3.0843 3.067-1.0146 1.2795-2.1016 3.4173-2.6752 5.2767-0.7779 2.5158-0.8862 5.6441-0.2795 8.324 0.5453 2.4331 1.6484 4.7307 3.1606 6.5937 1.115 1.374 2.5508 2.6772 3.9706 3.6063 0.8063 0.5276 1.4598 0.8701 2.322 1.2244 1.4961 0.6102 3.2489 1.0827 4.4908 1.2087 0.9787 0.079 3.2886 0.079 4.1226-0.039 2.8795-0.4173 5.6234-1.6378 7.9468-3.5354 0.461-0.3937 1.4677-1.3504 1.8972-1.8386 2.1417-2.4252 3.413-5.185 3.9185-8.4992 0.1221-0.9095 0.2008-2.685 0.1221-3.6969zm0-99.293c-0.039-0.6968-0.2402-1.7755-0.4732-2.7126-0.8945-3.5984-3.1323-6.9283-6.1332-9.1201-2.0736-1.5158-4.6905-2.5984-7.2353-2.9921-0.4492-0.0787-3.437-0.11811-4.1282-0.0394-0.8303 0.0787-1.9772 0.31496-3.0039 0.64961-1.817 0.58661-3.6619 1.5394-4.9211 2.5433-0.9867 0.78347-2.3422 2.1339-3.0843 3.0669-1.0146 1.2795-2.1016 3.4173-2.6752 5.2768-0.7779 2.5157-0.8862 5.6441-0.2795 8.3244 0.5453 2.4331 1.6484 4.7307 3.1606 6.5937 1.115 1.374 2.5508 2.6771 3.9706 3.6063 0.8063 0.5275 1.4598 0.8701 2.322 1.2244 1.4961 0.6102 3.2489 1.0827 4.4908 1.2086 0.9787 0.079 3.2886 0.079 4.1226-0.039 2.8795-0.4174 5.6234-1.6378 7.9468-3.5355 0.461-0.3937 1.4677-1.3503 1.8972-1.8385 2.1417-2.4252 3.413-5.1855 3.9185-8.4996 0.1221-0.9095 0.2008-2.689 0.1221-3.6969zm0-99.292c-0.039-0.69685-0.2402-1.7756-0.4732-2.7126-0.8945-3.5945-3.1323-6.9283-6.1332-9.1201-2.0736-1.5158-4.6905-2.5984-7.2353-2.9921-0.4492-0.0787-3.437-0.11811-4.1282-0.0394-0.8303 0.0787-1.9772 0.31496-3.0039 0.64566-1.817 0.58662-3.6619 1.5394-4.9211 2.5433-0.9867 0.78346-2.3422 2.1338-3.0843 3.0669-1.0146 1.2795-2.1016 3.4173-2.6752 5.2768-0.7779 2.5157-0.8862 5.6441-0.2795 8.324 0.5453 2.437 1.6484 4.7307 3.1606 6.5937 1.115 1.374 2.5508 2.6772 3.9706 3.6063 0.8063 0.52756 1.4598 0.87008 2.322 1.2244 1.4961 0.61024 3.2489 1.0827 4.4908 1.2087 0.9787 0.0787 3.2886 0.0787 4.1226-0.0394 2.8795-0.41732 5.6234-1.6378 7.9468-3.5354 0.461-0.3937 1.4677-1.3504 1.8972-1.8386 2.1417-2.4252 3.413-5.1854 3.9185-8.4996 0.1221-0.90945 0.2008-2.685 0.1221-3.6968zm-631.74-0.11811c0.039-0.69685 0.2401-1.7756 0.4732-2.7126 0.8945-3.5984 3.1323-6.9283 6.1335-9.1201 2.0736-1.5158 4.6897-2.5984 7.2345-2.9921 0.4492-0.0787 3.437-0.11811 4.1286-0.0394 0.8303 0.0787 1.9772 0.31496 3.0039 0.6496 1.817 0.58661 3.6619 1.5394 4.9211 2.5433 0.9867 0.78347 2.3422 2.1339 3.0843 3.0669 1.0146 1.2795 2.1016 3.4173 2.6752 5.2768 0.7779 2.5158 0.8862 5.6441 0.2795 8.3244-0.5453 2.4331-1.6484 4.7307-3.1606 6.5933-1.115 1.374-2.5508 2.6772-3.9706 3.6063-0.8063 0.52756-1.4598 0.87008-2.322 1.2244-1.4961 0.61023-3.2489 1.0827-4.4908 1.2087-0.9788 0.0787-3.2886 0.0787-4.1226-0.0394-2.8795-0.41733-5.6234-1.6378-7.9468-3.5354-0.461-0.3937-1.4677-1.3504-1.8973-1.8386-2.1417-2.4252-3.4129-5.185-3.9185-8.4992-0.122-0.90945-0.2007-2.689-0.122-3.6968zm0 99.292c0.039-0.6968 0.2401-1.7756 0.4732-2.7126 0.8945-3.5984 3.1323-6.9279 6.1331-9.1197 2.0736-1.5158 4.6901-2.5984 7.2349-2.9921 0.4492-0.0787 3.437-0.11811 4.1286-0.0394 0.8303 0.0787 1.9772 0.31496 3.0039 0.64567 1.817 0.58661 3.6619 1.5394 4.9207 2.5433 0.9867 0.78346 2.3422 2.1338 3.0843 3.0669 1.0146 1.2795 2.1016 3.4173 2.6752 5.2768 0.7779 2.5158 0.8862 5.6437 0.2795 8.324-0.5457 2.4331-1.6445 4.7307-3.1606 6.5937-1.115 1.374-2.5508 2.6772-3.9706 3.6063-0.8063 0.5276-1.4598 0.8701-2.322 1.2244-1.4961 0.6103-3.2489 1.0827-4.4904 1.2087-0.9787 0.079-3.2886 0.079-4.1226-0.039-2.8795-0.4173-5.6238-1.6378-7.9468-3.5354-0.461-0.3937-1.4677-1.3504-1.8972-1.8386-2.1417-2.4252-3.413-5.1854-3.9185-8.4996-0.1221-0.9094-0.2008-2.685-0.1221-3.6968zm0 99.293c0.039-0.6969 0.2401-1.7756 0.4732-2.7126 0.8945-3.5945 3.1323-6.9283 6.1331-9.1201 2.0736-1.5157 4.6901-2.5984 7.2349-2.9921 0.4492-0.079 3.437-0.1181 4.1286-0.039 0.8303 0.079 1.9772 0.315 3.0039 0.6457 1.817 0.5866 3.6619 1.5394 4.9207 2.5433 0.9867 0.7835 2.3422 2.1339 3.0843 3.0669 1.0146 1.2796 2.1016 3.4174 2.6752 5.2768 0.7779 2.5158 0.8862 5.6441 0.2795 8.3244-0.5457 2.4331-1.6445 4.7307-3.1606 6.5937-1.115 1.374-2.5508 2.6772-3.9706 3.6063-0.8063 0.5275-1.4598 0.8701-2.322 1.2244-1.4961 0.6102-3.2489 1.0827-4.4904 1.2087-0.9787 0.079-3.2886 0.079-4.1226-0.039-2.8795-0.4173-5.6238-1.6378-7.9468-3.5354-0.461-0.3937-1.4677-1.3504-1.8972-1.8386-2.1417-2.4252-3.413-5.1854-3.9185-8.4996-0.1221-0.9095-0.2008-2.6851-0.1221-3.6969zm0 99.293c0.039-0.6969 0.2401-1.7756 0.4732-2.7126 0.8945-3.5985 3.1323-6.9284 6.1331-9.1201 2.0736-1.5157 4.6901-2.5984 7.2349-2.9921 0.4492-0.079 3.437-0.1181 4.1286-0.039 0.8303 0.079 1.9772 0.315 3.0039 0.6457 1.817 0.5866 3.6619 1.5393 4.9207 2.5433 0.9867 0.7834 2.3422 2.1338 3.0843 3.0669 1.0146 1.2795 2.1016 3.4173 2.6752 5.2768 0.7779 2.5157 0.8862 5.6441 0.2795 8.324-0.5457 2.433-1.6445 4.7307-3.1606 6.5937-1.115 1.374-2.5508 2.6771-3.9706 3.6063-0.8063 0.5275-1.4598 0.87-2.322 1.2244-1.4961 0.6102-3.2489 1.0826-4.4904 1.2086-0.9787 0.079-3.2886 0.079-4.1226-0.039-2.8795-0.4174-5.6238-1.6378-7.9468-3.5355-0.461-0.3937-1.4677-1.3504-1.8972-1.8386-2.1417-2.4251-3.413-5.185-3.9185-8.4992-0.1221-0.9094-0.2008-2.6889-0.1221-3.6968zm0 99.293c0.039-0.6968 0.2401-1.7756 0.4732-2.7126 0.8945-3.5984 3.1323-6.9283 6.1331-9.12 2.0736-1.5158 4.6901-2.5985 7.2349-2.9922 0.4492-0.079 3.437-0.1181 4.1286-0.039 0.8303 0.079 1.9772 0.3149 3.0039 0.6456 1.817 0.5867 3.6619 1.5394 4.9207 2.5433 0.9867 0.7835 2.3422 2.1339 3.0843 3.067 1.0146 1.2795 2.1016 3.4173 2.6752 5.2767 0.7779 2.5158 0.8862 5.6441 0.2795 8.324-0.5457 2.4331-1.6445 4.7307-3.1606 6.5937-1.115 1.374-2.5508 2.6772-3.9706 3.6063-0.8063 0.5276-1.4598 0.8701-2.322 1.2244-1.4961 0.6103-3.2489 1.0827-4.4904 1.2087-0.9787 0.079-3.2886 0.079-4.1226-0.039-2.8795-0.4173-5.6238-1.6378-7.9468-3.5354-0.461-0.3937-1.4677-1.3504-1.8972-1.8386-2.1417-2.4252-3.413-5.1854-3.9185-8.4996-0.1221-0.9094-0.2008-2.689-0.1221-3.6968zm0 99.292c0.039-0.6969 0.2401-1.7717 0.4732-2.7126 0.8945-3.5984 3.1323-6.9283 6.1331-9.1201 2.0736-1.5157 4.6901-2.5984 7.2349-2.9921 0.4492-0.079 3.437-0.1181 4.1286-0.039 0.8303 0.079 1.9772 0.315 3.0039 0.6457 1.817 0.5866 3.6619 1.5394 4.9207 2.5433 0.9867 0.7835 2.3422 2.1339 3.0843 3.0669 1.0146 1.2796 2.1016 3.4174 2.6752 5.2772 0.7779 2.5157 0.8862 5.6437 0.2795 8.324-0.5457 2.437-1.6445 4.7307-3.1606 6.5937-1.115 1.374-2.5508 2.6772-3.9706 3.6063-0.8063 0.5275-1.4598 0.8701-2.322 1.2244-1.4961 0.6102-3.2489 1.0827-4.4904 1.2087-0.9787 0.079-3.2886 0.079-4.1226-0.039-2.8795-0.4173-5.6238-1.6378-7.9468-3.5354-0.461-0.3937-1.4677-1.3504-1.8972-1.8386-2.1417-2.4252-3.413-5.1855-3.9185-8.4996-0.1221-0.9095-0.2008-2.689-0.1221-3.6969zm0 99.293c0.039-0.6969 0.2401-1.7756 0.4732-2.7126 0.8945-3.5985 3.1323-6.9284 6.1331-9.1201 2.0736-1.5157 4.6901-2.5984 7.2349-2.9921 0.4492-0.079 3.437-0.1181 4.1286-0.039 0.8303 0.079 1.9772 0.315 3.0039 0.6457 1.817 0.5866 3.6619 1.5393 4.9207 2.5433 0.9867 0.7834 2.3422 2.1338 3.0843 3.0669 1.0146 1.2795 2.1016 3.4173 2.6752 5.2768 0.7779 2.5157 0.8862 5.6441 0.2795 8.324-0.5457 2.437-1.6445 4.7307-3.1606 6.5937-1.115 1.374-2.5508 2.6771-3.9706 3.6063-0.8063 0.5275-1.4598 0.87-2.322 1.2244-1.4961 0.6102-3.2489 1.0826-4.4904 1.2086-0.9787 0.079-3.2886 0.079-4.1226-0.039-2.8795-0.4173-5.6238-1.6377-7.9468-3.5354-0.461-0.3937-1.4677-1.3504-1.8972-1.8386-2.1417-2.4252-3.413-5.185-3.9185-8.4992-0.1221-0.9094-0.2008-2.6889-0.1221-3.6968zm671.52 39.186c0 51.406-42.162 92.773-94.53 92.773h-522.48c-52.369 0-94.53-41.368-94.53-92.773v-23.234a15.241 14.961 0 0 0 14.363-14.954 15.241 14.961 0 0 0-14.363-14.872v-69.458a15.241 14.961 0 0 0 14.363-14.974 15.241 14.961 0 0 0-14.363-14.852v-69.478a15.241 14.961 0 0 0 14.363-14.954 15.241 14.961 0 0 0-14.363-14.872v-69.458a15.241 14.961 0 0 0 14.363-14.954 15.241 14.961 0 0 0-14.363-14.872v-69.478a15.241 14.961 0 0 0 14.363-14.953 15.241 14.961 0 0 0-14.363-14.872v-69.458a15.241 14.961 0 0 0 14.363-14.954 15.241 14.961 0 0 0-14.363-14.872v-69.478a15.241 14.961 0 0 0 14.363-14.954 15.241 14.961 0 0 0-14.363-14.872v-1.9921c0-51.407 42.162-92.794 94.53-92.794h522.48c52.368 0 94.53 41.387 94.53 92.794v2.0354a15.241 14.961 0 0 0-14.342 14.832 15.241 14.961 0 0 0 14.342 14.954v69.498a15.241 14.961 0 0 0-14.342 14.852 15.241 14.961 0 0 0 14.342 14.954v69.499a15.241 14.961 0 0 0-14.342 14.832 15.241 14.961 0 0 0 14.342 14.953v69.499a15.241 14.961 0 0 0-14.342 14.852 15.241 14.961 0 0 0 14.342 14.954v69.478a15.241 14.961 0 0 0-14.342 14.852 15.241 14.961 0 0 0 14.342 14.954v69.499a15.241 14.961 0 0 0-14.342 14.831 15.241 14.961 0 0 0 14.342 14.974v69.478a15.241 14.961 0 0 0-14.342 14.852 15.241 14.961 0 0 0 14.342 14.954z" stroke-width=".01266" style="paint-order:markers fill stroke" gorn="0.2.0.0.0.0.0.0.1"/>
  <rect transform="rotate(90)" x="339.85" y="-601.92" width="432.38" height="490.46" ry="16.081" fill="#fff" stroke-width=".81329" style="paint-order:markers fill stroke" gorn="0.2.0.0.0.0.0.0.2.0.0.0.0.0.0.0.0.0.0.0.0.0"/>
  <path d="m519.86 363.2 0.0827-3.2165 8.228-0.1654v6.5992h-8.3979z" stroke-width=".11308" style="paint-order:markers fill stroke" gorn="0.2.0.0.0.0.0.0.2.0.0.0.0.0.0.1.0.0.0.0.0.0.0.0.0.0.0.0.0.10"/>
 </g>
 <path d="m547.77 407.09c-4.606-1.502-7.5225-3.5528-10.97-7.7141-0.7-0.84527-2.8492-5.3345-3.2421-6.7724-0.81181-2.9709-0.31102-12.417 0.65709-12.417 0.13385 0 0.24015-0.15354 0.24015-0.34252 0-0.45748 1.2512-2.9988 1.7205-3.4949 0.20473-0.21653 0.37402-0.49133 0.37402-0.60787 0-0.33464 2.7043-3.074 4.1904-4.2469 4.2917-3.387 10.102-4.9387 15.733-4.2019 5.2497 0.68661 8.9202 2.4669 12.401 6.0137 1.5059 1.5342 3.8787 4.7395 3.8787 5.239 0 0.11024 0.18898 0.62717 0.41693 1.1461 1.1559 2.6122 1.463 4.2676 1.4634 7.8917 2.4e-4 2.1228-0.13385 3.8177-0.31496 4.0392-0.17323 0.20866-0.41259 0.90355-0.53189 1.5413-0.38189 2.0476-2.576 5.8588-4.6944 8.1571-2.3429 2.5417-5.9005 4.7194-9.4242 5.7688-2.8953 0.8622-9.2522 0.8618-11.898-8.7e-4zm9.4052-7.6236c0.91574-0.2559 2.4055-0.97519 3.3106-1.5953 1.9472-1.3346 4.3775-4.2223 4.6576-5.5339 0.11024-0.51142 0.35039-1.1193 0.53858-1.3504 0.49292-0.60945 0.44213-6.2994-0.0669-7.3879-1.6244-3.4795-2.5075-4.6657-4.6807-6.2882-2.2712-1.6961-3.5441-2.0606-7.1867-2.0606-3.163 0-3.4055 0.0433-5.2457 0.9878-2.2968 1.176-2.8024 1.5815-4.1754 3.3508-2.1768 2.8047-2.8161 4.6668-2.7968 8.1422 8e-3 1.4339 0.1496 2.7803 0.31889 2.9921 0.1693 0.2126 0.39489 0.76614 0.5063 1.2327 0.47166 1.972 3.272 5.301 5.3781 6.3927 3.0976 1.6059 6.3381 1.9898 9.442 1.1185zm-37.38-9.5558v-17.802h8.3776v35.605h-8.3776zm-35.34 17.087c-4.1832-1.4122-7.4203-3.5882-9.8403-6.6148-0.65787-0.82244-1.3142-1.6409-1.4587-1.8181-0.14567-0.17717-0.35433-0.61457-0.4685-0.97244-0.11418-0.35827-0.33071-0.6504-0.48543-0.6504-0.15355 0-0.27953-0.16929-0.27953-0.37401-9.1e-4 -0.20472-0.18898-0.73543-0.42087-1.1768-0.22834-0.44134-0.51417-1.2492-0.6307-1.7953-0.11811-0.54607-0.36615-1.1815-0.55118-1.4122-0.45394-0.5622-0.45906-8.9565-5e-3 -9.932 0.18504-0.39567 0.64409-1.5268 1.0232-2.5142 0.96024-2.5012 2.5917-4.8154 4.8643-6.8996 3.5681-3.2724 6.9806-4.8695 11.805-5.5252 5.279-0.71772 11.246 0.73228 15 3.6433 1.4543 1.128 1.5307 0.92559 1.5307-4.0688v-4.6223l1.7205-0.50393c0.94646-0.2756 2.3264-0.68111 3.0669-0.89804 0.74055-0.21653 1.8512-0.48346 2.4685-0.59212l1.122-0.19685v47.639h-8.3775v-2.2441c0-1.4402-0.11811-2.2441-0.33071-2.2441-0.1811 0-0.82165 0.37401-1.4213 0.83346-1.6756 1.2807-4.0454 2.4468-6.26 3.0799-2.9933 0.8559-9.3345 0.78189-12.068-0.14173zm10.034-7.6538c3.5374-1.2169 7.4043-5.1248 7.862-7.945 0.0945-0.57913 0.2874-1.1256 0.42952-1.2138 0.14174-0.0866 0.25591-1.1957 0.25591-2.461-8e-3 -5.1506-2.5587-9.245-7.1702-11.518-1.8272-0.9004-2.1283-0.95512-5.236-0.95197-3.1366 3e-3 -3.3921 0.0512-5.2368 0.99173-2.8913 1.4732-4.6899 3.4417-6.1976 6.7842-0.64488 1.4307-0.77441 7.3635-0.18504 8.5573 0.19292 0.39488 0.57835 1.2185 0.85237 1.8307 1.0949 2.4429 4.2323 4.9402 7.9193 6.3036 1.1181 0.41339 5.054 0.19291 6.7085-0.37795zm-52.062 7.8152c-5.3619-1.7378-9.265-5.5605-11.243-11.012-0.59843-1.6496-0.64173-2.4464-0.76693-14.184l-0.13386-12.437 1.8949-0.53937c1.0421-0.29528 2.5008-0.71339 3.2413-0.92599 0.74055-0.21259 1.7165-0.4685 2.1693-0.56811l0.82283-0.1811v11.853c0 10.048 0.0748 12.11 0.48622 13.545 0.81496 2.8346 1.3165 3.598 3.4142 5.1947 2.3433 1.7835 5.8428 2.2213 8.829 1.1039 2.1122-0.79055 3.3894-1.9032 4.501-3.922l0.87126-1.5823 0.1812-24 1.8547-0.52755c1.0201-0.29134 2.4602-0.70355 3.2008-0.91929 0.74055-0.21654 1.7866-0.48032 2.3248-0.5878l0.97873-0.19685-0.10236 12.966c-0.0984 12.375-0.32283 15.885-1.0831 16.841-0.13779 0.17323-0.35039 0.65-0.47677 1.0614-0.37008 1.2098-2.0429 3.6409-3.463 5.029-1.6154 1.5783-4.3193 3.137-6.8378 3.9417-2.4421 0.78032-8.324 0.80748-10.663 0.0512zm-22.308-0.0387c-4.5276-1.4894-7.0909-4.5051-7.7162-9.0779-0.19291-1.4114-0.3189-8.4976-0.3189-17.854v-15.514l0.97244-0.28741c0.53426-0.15748 1.8476-0.51968 2.9169-0.80511 1.0697-0.28347 2.3354-0.63819 2.8122-0.78386 1.6992-0.51968 1.6539-0.63464 1.7429 4.447l0.0827 4.7124 4.937 0.1732v8.03l-4.937 0.1732-0.0748 8.6481c-0.0748 7.8749-0.0338 8.6997 0.44292 9.2251 0.70157 0.7752 2.3264 1.4252 3.563 1.4252h1.0106v8.0783l-1.8701-0.0169c-1.0287-8e-3 -2.6295-0.26772-3.5579-0.57402zm-36.61 5e-3c-2.6913-0.58858-6.0159-1.8433-7.7202-2.9134-1.2886-0.80905-1.2968-0.57165 0.15748-4.5017 0.65354-1.7697 1.0567-2.4685 1.4224-2.4685 0.27952 0 1.5752 0.53268 2.8776 1.1831 1.302 0.65118 2.9732 1.3323 3.7138 1.5146 0.74055 0.1811 1.9217 0.46929 2.6244 0.6374 0.70276 0.16929 2.7898 0.2559 4.6376 0.19685 2.7602-0.0906 3.6098-0.23228 4.7623-0.79803 1.752-0.86181 2.437-1.8756 2.437-3.6059 0-1.1941-0.13386-1.4563-1.2551-2.4512-1.2894-1.1441-2.9374-1.7634-7.5213-2.8256-3.4032-0.78898-7.5945-2.1606-8.9471-2.9291-4.131-2.3465-5.9431-6.1934-5.1264-10.883 0.38188-2.1937 0.82873-3.1618 2.3626-5.1193 4.3174-5.5093 17.045-6.7853 25.899-2.5968l1.6335 0.77283-0.39646 1.2587c-0.21654 0.69252-0.70866 2.1-1.0886 3.1283-0.76614 2.0701-1.0264 2.1957-2.9008 1.3949-4.0842-1.7453-8.4052-2.4752-11.492-1.9417-3.513 0.60709-5.41 2.189-5.41 4.5114 0 2.6654 1.8594 3.763 9.3568 5.5245 7.9198 1.8606 11.3 3.7618 12.896 7.2525 0.52913 1.1575 0.65591 1.9898 0.65787 4.304 2e-3 2.5236-0.0984 3.0713-0.81929 4.5479-1.648 3.3689-4.6648 5.5908-9.2444 6.8092-2.8681 0.76338-10.015 0.76102-13.512-3e-3zm-54.778 5e-3c-3.6724-1.0854-5.7748-2.374-8.8099-5.4003-2.9964-2.9878-4.0721-4.7055-5.4338-8.6768-0.5689-1.6598-0.6622-2.5366-0.63661-5.9839 0.0254-3.5583 0.12204-4.2846 0.79803-6.0994 1.1598-3.1094 2.502-5.1696 4.9887-7.6562 3.587-3.5866 7.0708-5.2988 12.214-6.0015 3.0787-0.42087 6.9572-0.0591 9.7441 0.90118 1.7268 0.59685 4.8247 2.2197 5.4713 2.8661 0.23622 0.23622 0.62402 0.43189 0.85906 0.43189 0.35039 0 0.42795-0.81574 0.42795-4.6223v-4.6224l1.7205-0.50393c0.94606-0.27559 2.3264-0.68111 3.0669-0.89803 0.74055-0.21654 1.8512-0.48347 2.4685-0.59213l1.122-0.19685v47.639h-8.3782v-2.2441c0-1.2342-0.11417-2.2441-0.2559-2.2441-0.1378 0-0.83465 0.42008-1.5433 0.93346-1.8209 1.3189-3.9154 2.322-6.23 2.9842-2.7071 0.77362-8.9549 0.76693-11.595-0.0169zm10.946-8.3318c4.4761-2.1949 7.2746-6.5375 7.2698-11.28-3e-3 -4.008-2.1957-8.2377-5.3251-10.276-2.7173-1.7701-3.3654-1.9496-7.0311-1.9484-2.9405 8.3e-4 -3.6366 0.0984-4.7872 0.66102-2.6079 1.2787-3.3 1.8342-4.9024 3.9331-2.072 2.7146-2.428 3.8327-2.428 7.6261 0 3.1354 0.0512 3.411 0.98543 5.3091 1.2441 2.5268 3.5032 4.7968 5.8716 5.899 2.4795 1.1539 2.6437 1.1858 5.7092 1.1028 2.3362-0.0669 2.9504-0.20079 4.6376-1.0268zm-56.997 8.1846c-2.698-0.86496-4.066-1.5768-6.3933-3.3264-2.0559-1.5453-4.6486-4.7931-5.7185-7.1629-0.37008-0.82244-0.78976-1.7228-0.92913-2-1.2339-2.4496-1.2496-10.486-0.0254-13.558 2.4902-6.2558 6.783-10.566 12.619-12.67 5.1026-1.8398 11.584-1.4154 16.327 1.0689 4.0395 2.1157 7.6255 6.64 9.1959 11.602 0.7441 2.3512 1.1831 6.0628 0.96142 8.1312l-0.20079 1.8866-15.157 0.0748c-14.357 0.0748-15.162 0.10629-15.261 0.61968-0.25196 1.311 1.652 4.1565 3.9295 5.8718 3.5378 2.6646 8.2811 3.1685 12.197 1.2961 1.0823-0.51732 2.1472-1.1571 2.3665-1.4213 0.4311-0.51889 1.4598-0.41574 3.1445 0.31496 0.49448 0.21654 1.8748 0.74646 3.0681 1.1831 1.4134 0.51654 2.1693 0.95394 2.1693 1.2547 0 0.49527-2.5532 3.1181-4.0538 4.1644-1.6476 1.1488-4.065 2.2421-6.2318 2.8189-3.1579 0.84055-9.1506 0.76536-12.005-0.1496zm17.678-23.613c0.51063-1.3303-3.0228-5.3731-6.1713-7.0607-1.8106-0.97047-2.1134-1.0366-4.7845-1.0472-2.1965-8e-3 -3.1587 0.12205-4.1887 0.57559-2.2468 0.98582-3.9641 2.3618-5.4827 4.3942-0.85393 1.1429-1.4846 2.8516-1.2138 3.2898 0.0866 0.14174 5.0019 0.25591 10.922 0.25591 8.8142 0 10.791-0.0748 10.919-0.40827zm-62.284 23.76c-4.2061-1.2429-8.3238-4.0935-10.46-7.2409-0.48543-0.71535-0.96732-1.3685-1.0701-1.4508-0.10237-0.0827-0.47835-0.82244-0.83465-1.6457-0.35433-0.82244-0.77441-1.7256-0.93031-2.0067-0.15748-0.27953-0.37008-1.0886-0.47953-1.7953-0.1063-0.7067-0.3189-1.4433-0.47283-1.637-0.6189-0.78701 0.0669-8.7787 0.91693-10.718 1.5646-3.561 2.9606-5.7723 4.7893-7.588 4.4476-4.4157 11.11-6.6335 17.286-5.7539 6.9557 0.99055 11.652 4.4076 14.743 10.728 1.572 3.2138 1.9563 4.9859 1.9626 9.0464l5e-3 3.7402-15.259 0.15748c-8.3926 0.0866-15.302 0.18504-15.354 0.22441-0.0512 0.0338-8e-3 0.37008 0.0984 0.74134 0.85788 2.9831 2.9913 5.3766 6.13 6.8755 1.5358 0.73386 2.4563 0.95748 4.3781 1.0642 2.8712 0.16142 4.8004-0.3622 7.2146-1.9516l1.5697-1.0331 2.1705 0.76181c1.1937 0.41929 2.9091 1.0378 3.8118 1.3748 0.90275 0.33859 1.6768 0.613 1.7205 0.613 0.0433 0 0.0748 0.18503 0.0748 0.41181 0 0.22834-0.50472 0.93818-1.122 1.5815-2.5862 2.6957-5.5261 4.436-9.3327 5.5246-2.6728 0.76417-8.9394 0.75157-11.561-0.0254zm17.118-23.795c0.54606-1.4236-2.9823-5.476-6.1727-7.0891-1.7929-0.90669-2.1665-0.98307-4.7872-0.98228-2.6425 1e-3 -2.9866 0.0748-4.8902 1.0315-3.1949 1.6075-5.8693 4.8408-5.8794 7.1083-1e-3 0.29134 2.3528 0.37401 10.779 0.37401 9.2403 0 10.805-0.0591 10.95-0.44291zm-62.123 23.777c-3.55-1.0634-6.2365-2.663-8.8334-5.26-0.98898-0.98898-3.7319-4.9537-3.735-5.3989-1e-3 -0.14174-0.19685-0.63504-0.43779-1.0945-0.24016-0.45905-0.52598-1.3346-0.63583-1.9449-0.11023-0.61063-0.32283-1.2669-0.47677-1.459-0.37795-0.47756-0.13385-8.0067 0.31496-9.6734 0.67047-2.4972 1.9236-5.0522 3.5323-7.2009 3.1819-4.2501 7.5865-6.7905 13.357-7.7034 2.4996-0.39567 3.3331-0.40748 5.6214-0.0827 6.1392 0.8689 9.7318 3.1209 13.662 8.5638 0.62047 0.85945 1.9398 3.9412 2.5583 5.9758 0.59961 1.9716 0.92244 5.6918 0.66024 7.599l-0.20867 1.5268h-14.758c-8.1168 0-14.971 0.0827-15.231 0.1811-1.4768 0.56654 1.0992 4.828 4.0812 6.7519 4.3416 2.8012 8.9663 2.772 13.44-0.0827l1.389-0.88701 1.902 0.66811c1.0461 0.36614 2.709 0.95 3.6957 1.2949 2.2882 0.8 2.4067 1.3067 0.71023 3.0354-1.9358 1.9724-4.9646 3.8756-7.6186 4.7871-2.0716 0.71102-2.9035 0.82362-6.7035 0.90039-3.611 0.0748-4.6644-8e-3 -6.2831-0.49449zm17.054-24.122c0-1.8008-2.9-5.0137-6.0781-6.7338-1.7287-0.93583-2.0386-1.002-4.6994-1.0039-2.6094-2e-3 -3.0114 0.0748-4.7872 0.96103-1.8949 0.94133-2.9016 1.7425-4.5469 3.6181-0.95315 1.0866-1.813 2.9988-1.5992 3.5559 0.11811 0.31102 2.3484 0.38976 10.93 0.38976h10.781zm-59.69 24.249c-3.2197-0.77362-5.0531-1.4138-7.0312-2.4551-1.0697-0.56299-1.9882-1.0642-2.0413-1.1138-0.16929-0.15748 0.67204-3.437 0.87952-3.437 0.11024 0 0.29134-0.50472 0.40748-1.122 0.24016-1.2791 0.63662-1.8701 1.2575-1.8701 0.23622 0 1.5327 0.5311 2.8807 1.1791 3.535 1.7008 6.5622 2.411 10.276 2.411 3.7945 0 5.5649-0.51496 6.9105-2.011 0.74842-0.83189 0.97244-1.3512 0.97244-2.2563 0-2.4882-1.9319-3.8161-7.5029-5.1562-8.0726-1.9421-10.712-3.0338-12.976-5.366-1.9177-1.976-2.5598-3.7378-2.5598-7.0214 0-1.3378 0.12598-2.6661 0.27952-2.952 0.15355-0.2874 0.58937-1.1744 0.96772-1.9748 0.72795-1.5406 3.1866-4.007 4.8111-4.8256 3.6059-1.8169 8.6694-2.5468 13.69-1.9736 4.7359 0.54094 9.6542 2.1047 10.076 3.2039 0.14567 0.37795-0.41417 2.1996-1.2886 4.1979-0.22834 0.5185-0.41259 1.1583-0.41259 1.4212 0 0.73307-1.1681 0.59174-3.7906-0.45826-1.2866-0.51496-3.6386-1.1457-5.2263-1.4004-2.4795-0.39803-3.1842-0.40748-4.9988-0.0669-3.5866 0.67637-5.3605 2.1417-5.4104 4.4686-0.0253 1.2748 1.0988 2.8189 2.6134 3.5831 0.60788 0.30708 2.8551 0.98543 4.9942 1.509 6.339 1.5508 7.3741 1.8673 9.6437 2.9504 2.4598 1.1736 4.2875 2.9496 5.1813 5.0348 0.62322 1.4539 0.83858 6.1878 0.3307 7.2258-0.14173 0.2874-0.51062 1.0583-0.82283 1.7161-1.4 2.952-4.6331 5.2833-8.9452 6.4503-2.6464 0.71614-10.367 0.77874-13.165 0.1063z" fill-rule="evenodd" stroke-linecap="round" stroke-linejoin="round" stroke-miterlimit="7.4" style="paint-order:markers fill stroke"/>
 <g transform="translate(27.117)" fill-rule="evenodd" stroke-linecap="round" stroke-linejoin="round" stroke-miterlimit="7.4">
  <g transform="matrix(39.372 0 0 39.372 -2209.7 -3083.6)" stroke-width=".0014284" gorn="0.2.0.0.0.0.0.0.2.0.0.0.0.0.0.2.0.0.0.0.0.0">
   <path d="m61.185 95.478c-0.0069-0.0017-0.0273-0.0043-0.04535-0.0058s-0.03452-0.0038-0.0366-0.0052c-0.0021-0.0013-0.01313-0.0045-0.02457-0.0069-0.03559-0.0077-0.05973-0.01431-0.06268-0.01726-0.0016-0.0016-0.0055-0.0028-0.0088-0.0029-0.0033-1.2e-5 -0.01055-0.0024-0.01612-0.0053-0.0056-0.0029-0.01535-0.0064-0.02173-0.0078-0.0064-0.0014-0.01159-0.0041-0.01159-6e-3s-0.0022-0.0035-0.0049-0.0035c-8e-3 0-0.09286-0.04442-0.10089-0.05282-5e-3 -0.0052-0.02657-0.01898-0.02977-0.01898-2e-3 0-0.0042-0.0013-0.0049-0.0029-6.93e-4 -0.0016-0.01317-0.01215-0.02772-0.02351-0.03897-0.03042-0.08562-0.0792-0.12499-0.1307-0.02045-0.02675-0.06208-0.09204-0.06208-0.09736 0-0.0011-0.0052-0.01364-0.01164-0.02782-0.01959-0.04336-0.02138-0.04776-0.02819-0.06924-0.0036-0.01143-0.0078-0.0234-0.0094-0.0266-0.0015-0.0032-0.0041-0.01334-0.0056-0.02253-0.0016-0.0092-0.0042-0.01933-6e-3 -0.02253-0.0046-0.0085-0.01076-0.05184-0.01541-0.10807-0.0053-0.06415 2e-3 -0.1657 0.01543-0.21332 0.01581-0.05621 0.02048-0.07139 0.02515-0.08183 0.0029-0.0066 0.0053-0.0138 0.0053-0.01611 0-0.0023 0.0016-0.0072 0.0035-0.01077 0.0019-0.0036 0.01002-0.02017 0.01795-0.0368 0.0079-0.01663 0.0157-0.0308 0.01726-0.03149 0.0016-6.93e-4 0.0028-3e-3 0.0028-0.0052 0-0.0039 0.02588-0.04863 0.0302-0.05215 0.0013-1e-3 0.0064-0.0087 0.01145-0.01701 5e-3 -0.0083 0.01228-0.01852 0.01614-0.02268 0.0039-0.0042 0.01071-0.01255 0.01524-0.01865 0.01753-0.02363 0.07742-0.08205 0.11648-0.11363 0.05923-0.04789 0.15814-0.09738 0.23756-0.11886 0.01767-0.0048 0.03553-0.01009 0.03968-0.01181 0.01148-0.0047 0.05858-0.01105 0.11449-0.01534 0.06366-0.0049 0.17997 0.0039 0.20675 0.01565 0.0042 0.0018 0.01351 0.0044 0.02079 0.0057 0.01472 0.0027 0.04371 0.01198 0.0538 0.01727 0.0036 0.0019 0.0087 0.0035 0.01134 0.0036 0.0026 7e-5 0.01158 0.0034 0.01989 0.0074 0.0083 4e-3 0.01656 0.0074 0.01833 0.0074 0.0055 2.2e-4 0.07155 0.03442 0.08863 0.0459 0.0089 6e-3 0.0172 0.01092 0.01835 0.01092 0.0022 0 0.05516 0.03985 0.07488 0.05636 0.01753 0.01467 0.07032 0.06841 0.08506 0.08661 0.01713 0.02113 0.01886 0.02401 0.01892 0.03151 4.6e-5 0.0052-0.03407 0.03255-0.07946 0.06363-9e-3 0.0061-0.04096 0.02993-0.04709 0.03501-0.01842 0.01528-0.05783 0.04058-0.0632 0.04058-0.0037 0-0.0233-0.01667-0.04357-0.03704s-0.04252-0.04121-0.04946-0.0463c-0.0069-0.0051-0.01489-0.01138-0.01768-0.01398-0.0028-0.0026-0.0063-0.0047-0.0079-0.0047-0.0015 0-0.0055-0.0025-0.0089-0.0055-7e-3 -0.0063-0.07167-0.03986-0.07686-0.03986-0.0019 0-0.0088-0.0024-0.01536-0.0053-0.03854-0.01727-0.0802-0.02502-0.14797-0.02752-0.05216-0.0019-0.11365 0.0047-0.13128 0.01421-0.0036 0.0019-0.0091 0.0035-0.01227 0.0035-0.0071 0-0.04837 0.01415-0.06189 0.0212-0.0055 0.0029-0.01211 0.0052-0.01471 0.0052-0.0026 1.1e-5 -0.0047 0.0017-0.0047 0.0038s-0.0022 0.0038-0.0048 0.0038-0.01385 6e-3 -0.0249 0.01323c-0.01105 0.0073-0.02164 0.01323-0.02353 0.01323-0.0019 0-0.0035 0.0016-0.0035 0.0035s-0.0035 0.0046-0.0078 6e-3c-0.0149 0.0047-0.09251 0.0857-0.11404 0.11898-0.0207 0.03199-0.04824 0.08565-0.04824 0.09399 0 0.0024-0.0016 0.0073-0.0035 0.01094-0.0053 0.01-0.01436 0.04148-0.01976 0.06892-0.0094 0.04789-0.0034 0.19328 0.0085 0.20579 0.0019 2e-3 0.0034 0.0071 0.0034 0.01134 1.1e-5 0.0043 0.0026 0.01262 0.0057 0.01857 0.0031 6e-3 0.0056 0.0125 0.0056 0.01455 0 0.0087 0.03785 0.08612 0.04212 0.08612 0.0018 0 0.0032 0.0023 0.0032 0.0051s0.0034 0.0082 0.0076 0.01192c0.0042 0.0038 0.0076 0.0083 0.0076 0.01 0 7e-3 0.06024 0.07008 0.08694 0.0911 0.01888 0.01487 0.04129 0.02928 0.0455 0.02928 2e-3 0 0.0036 0.0017 0.0036 0.0037s0.0043 0.0048 0.0094 0.0061c0.0052 0.0013 0.0094 0.0039 0.0094 0.0057 0 0.0019 0.0021 0.0034 0.0047 0.0034 0.0026 2.9e-5 0.01445 5e-3 0.02634 0.01101 0.01189 6e-3 0.0272 0.01216 0.03401 0.01362 0.0068 0.0015 0.01409 4e-3 0.01617 0.0056 0.0021 0.0016 0.01143 0.0041 0.02079 0.0057 0.0094 0.0015 0.01936 0.0046 0.02223 7e-3 0.0071 0.0058 0.15129 0.0083 0.17619 0.0031 0.0389-0.0081 0.05691-0.01247 0.06425-0.01554 0.0042-0.0017 0.01606-0.0061 0.02646-0.0097 0.02368-0.0082 0.05251-0.02172 0.05417-0.02546 6.93e-4 -0.0016 0.0034-0.0028 0.0059-0.0028 0.0055 0 0.06024-0.03699 0.06209-0.04196 6.93e-4 -0.0019 0.0031-0.0034 0.0053-0.0034 0.0045 0 0.05198-0.04763 0.06881-0.06905 0.0154-0.01961 0.02414-0.01843 0.06263 0.0085 0.01767 0.01235 0.0453 0.03131 0.06141 0.04213s0.02929 0.02099 0.02929 0.02259 0.0037 0.0041 0.0083 0.0056 0.01032 0.0045 0.01276 0.0069c0.0024 0.0023 0.0082 0.0068 0.0129 0.0099 0.02004 0.01343 0.02648 0.01987 0.02648 0.02648 0 0.01416-0.06288 0.08541-0.11338 0.12847-0.01341 0.01143-0.02634 0.02249-0.02873 0.02456-0.0024 0.0021-0.0082 0.0063-0.01281 0.0094-0.0047 0.0031-0.01236 0.0086-0.01712 0.01228-0.0048 0.0036-0.01052 0.0066-0.01279 0.0066-0.0023 0-0.0041 0.0013-0.0041 0.0029s-0.0077 0.0071-0.01701 0.0122c-0.0094 0.0051-0.01701 0.0106-0.01701 0.0122s-0.0019 0.0029-0.0043 0.0029c-0.0057 0-0.03881 0.01624-0.04041 0.01984-6.93e-4 0.0016-0.0035 0.0028-0.0061 0.0028-0.0042 0-0.0191 0.0057-0.0493 0.01891-0.0042 0.0018-0.01946 7e-3 -0.03401 0.01148-0.01455 0.0045-0.02986 0.0096-0.03401 0.01133-0.03602 0.01504-0.20886 0.03119-0.24307 0.02271z" style="paint-order:markers fill stroke" gorn="0.2.0.0.0.0.0.0.2.0.0.0.0.0.0.2.0.0.0.0.0.0.0"/>
   <path d="m61.136 96.019c-0.03014-0.0019-0.0599-0.0051-0.06614-0.0071-0.0062-2e-3 -0.02457-0.0049-0.04073-0.0063-0.01617-0.0014-0.03025-4e-3 -0.0313-0.0057-1e-3 -0.0017-0.01209-0.0042-0.02455-0.0056-0.01245-0.0014-0.02349-0.0039-0.02451-0.0056-1e-3 -0.0017-0.01121-0.0042-0.02264-0.0056s-0.02164-4e-3 -0.02271-0.0057c-0.0011-0.0017-0.0096-0.0043-0.01889-0.0057-0.0093-0.0014-0.01783-4e-3 -0.0189-0.0057-0.0011-0.0017-0.0095-0.0043-0.01885-0.0057-0.0093-0.0014-0.01692-0.0039-0.01692-0.0056s-0.0068-0.0042-0.01512-0.0056c-0.0083-0.0014-0.01512-0.0041-0.01512-6e-3s-3e-3 -0.0035-0.0066-0.0036c-0.0036-6.8e-5 -0.01342-0.0034-0.02173-0.0074-0.0083-4e-3 -0.01809-0.0074-0.02173-0.0074-0.0036-7.4e-5 -0.0066-0.0018-0.0066-0.0039s-0.0022-0.0038-5e-3 -0.0038c-0.0075 0-0.10909-0.05204-0.14998-0.07682-0.0369-0.02236-0.09215-0.06014-0.10124-0.06923-0.0028-0.0028-0.0063-0.0051-0.0077-0.0051s-0.0068-0.0038-0.01201-0.0085c-0.0052-0.0047-0.02127-0.01788-0.03576-0.02929s-0.0468-0.04121-0.07181-0.06622c-0.04526-0.04526-0.05826-0.0593-0.08703-0.09401-0.0083-0.01003-0.01769-0.02104-0.02084-0.02447-0.0031-0.0034-0.0099-0.01216-0.01494-0.01941-0.0051-0.0072-0.01015-0.01403-0.01129-0.01507-0.0011-1e-3 -0.0089-0.01209-0.01714-0.02457-0.0083-0.01247-0.01605-0.02353-0.01725-0.02457-0.0031-0.0027-0.04551-0.07418-0.05658-0.09543-0.0051-0.0099-0.0105-0.01795-0.01189-0.01795-0.0014 0-0.0037-0.0051-5e-3 -0.01134-0.0014-0.0062-0.0041-0.01134-6e-3 -0.01134s-0.0035-0.0027-0.0035-6e-3 -0.0025-0.01054-0.0055-0.01606c-3e-3 -0.0055-0.0091-0.01853-0.0135-0.02893-0.0044-0.01039-0.0105-0.02485-0.01357-0.03213-0.0031-0.0073-0.0072-0.01618-0.0092-0.01979-2e-3 -0.0036-0.0036-0.0087-0.0036-0.01134-1.3e-5 -0.0026-0.0024-0.0093-0.0053-0.01491-0.0029-0.0056-0.0065-0.01578-8e-3 -0.02268s-4e-3 -0.01424-0.0056-0.01632c-0.0016-0.0021-0.0041-0.0097-0.0055-0.01701-0.0014-0.0073-4e-3 -0.01663-0.0058-0.02079-0.0039-0.0092-0.01057-0.03429-0.0165-0.06236-0.0024-0.01143-0.0055-0.02249-0.0068-0.02457-0.0013-0.0021-0.0037-0.01568-0.0052-0.03024-0.0015-0.01455-4e-3 -0.02816-0.0056-0.03024-0.0016-0.0021-4e-3 -0.01908-0.0055-0.03779-0.0014-0.01871-0.0034-0.03699-0.0045-0.04063-0.0018-0.0062-0.01747-0.0066-0.26054-0.0066h-0.25849v0.91821l-0.01039 0.0066c-0.0057 0.0036-0.01124 0.0075-0.01228 0.0086-1e-3 0.0011-0.03505 0.02405-0.07559 0.05098-0.04053 0.02693-0.07426 0.0503-0.07496 0.05193-6.93e-4 0.0016-0.0034 3e-3 -6e-3 3e-3s-0.0089 0.0034-0.01386 0.0075c-0.01493 0.01231-0.01621 0.01316-0.02721 0.01805-0.0058 0.0026-0.01474 0.0047-0.01984 0.0047h-0.0093v-2.4226h0.52722c0.37865 0 0.52722 0.0012 0.52722 0.0041 0 0.0023-3e-3 8e-3 -0.0066 0.01279-0.0036 0.0048-0.0092 0.01242-0.01228 0.01701-0.0031 0.0046-0.0086 0.01185-0.01228 0.01613-0.0036 0.0043-0.0066 0.0088-0.0067 0.01004-3.4e-5 0.0012-0.0047 0.0076-0.01039 0.01415-0.0057 0.0065-0.01288 0.01574-0.016 0.02043-0.0031 0.0047-0.0086 0.0112-0.01228 0.01445-0.0036 0.0033-0.0066 0.0073-0.0066 9e-3s-0.0017 0.0052-0.0038 0.0077c-0.0089 0.0105-0.01729 0.02138-0.02261 0.02916-0.0031 0.0046-0.01032 0.01365-0.016 0.02019-0.0057 0.0065-0.01036 0.01291-0.01039 0.01415-3.3e-5 0.0012-0.0034 0.0063-0.0075 0.01134-0.0041 5e-3 -0.0088 0.01078-0.01043 0.01286-0.0016 0.0021-0.0083 0.01069-0.01494 0.01913l-0.01201 0.01535-0.62219 0.0018-0.0019 0.8538 0.51969-0.0019 0.0045-0.03779c0.0062-0.05178 0.02285-0.13911 0.02811-0.1474 0.0013-0.0021 0.0037-0.01137 0.0052-0.02064 0.0015-0.0093 0.0042-0.01948 0.0058-0.02268 0.0017-0.0032 0.0069-0.01857 0.01158-0.03416 0.0047-0.01559 0.0099-0.02996 0.01161-0.03194 0.0017-2e-3 0.0031-0.0062 0.0031-0.0094 1.3e-5 -0.0032 0.0026-0.01073 0.0057-0.01668 0.0031-6e-3 0.0056-0.01278 0.0056-0.01517 0-0.0024 0.0034-0.01069 0.0076-0.01845 0.0042-0.0078 0.0076-0.01666 0.0076-0.01979 0-0.0031 0.0017-0.0057 0.0038-0.0057s0.0038-0.0021 0.0039-0.0047c7.1e-5 -0.0026 0.0034-0.01153 0.0074-0.01984 4e-3 -0.0083 0.0074-0.0171 0.0074-0.01953 7e-5 -0.0024 0.0014-5e-3 3e-3 -0.0057 0.0016-6.93e-4 0.0096-0.01485 0.01795-0.03146 0.0083-0.01661 0.01724-0.03246 0.01984-0.03523 0.0026-0.0028 0.0047-0.0075 0.0047-0.01043 0-3e-3 0.0017-0.0054 0.0037-0.0054s0.0048-0.0043 0.0061-0.0094c0.0013-0.0052 0.0038-0.0094 0.0055-0.0094s0.0043-0.0038 0.0058-0.0085 0.0037-0.0094 5e-3 -0.01039c4e-3 -0.0032 0.01933-0.02602 0.01933-0.02869 0-0.0014 0.0031-0.0053 7e-3 -0.0087 0.0038-0.0034 0.0092-0.01026 0.01185-0.01532 0.0027-0.0051 0.0064-0.01102 0.0082-0.01323 0.0093-0.01118 0.01698-0.02113 0.0221-0.02858 0.03728-0.05434 0.17727-0.19215 0.23418-0.23054 0.0078-0.0053 0.01848-0.01351 0.02927-0.02261 0.0025-0.0021 0.0056-0.0038 0.0068-0.0038 0.0023 0 0.02501-0.01536 0.02835-0.01915 0.0093-0.01054 0.18438-0.10556 0.19453-0.10556 0.0013 0 0.0104-0.0035 0.02016-0.0078 0.0098-0.0043 0.02115-0.0093 0.0253-0.01107 0.0042-0.0018 0.01861-0.0069 0.03213-0.01124 0.01351-0.0044 0.02797-0.0094 0.03212-0.01129 0.0042-0.0018 0.01436-0.0051 0.02268-0.0072 0.0083-0.0021 0.02447-0.0066 0.0359-0.0101s0.03014-0.0079 0.04157-0.01c0.01143-2e-3 0.02334-0.0048 0.02646-6e-3 0.0082-0.0033 0.05533-0.01147 0.1096-0.01892 0.06669-0.0091 0.24284-0.0091 0.3118 9.7e-5 0.07541 0.01005 0.17771 0.03131 0.19512 0.04055 0.0034 0.0018 0.01274 0.0045 0.02079 0.0059 8e-3 0.0015 0.01634 0.0039 0.01842 0.0055 0.0021 0.0016 0.0094 0.0041 0.01632 0.0055 0.0069 0.0015 0.0171 0.0051 0.02268 8e-3 0.0056 0.0029 0.01213 0.0053 0.01456 0.0053 0.0024 1.1e-5 0.0092 0.0024 0.01512 0.0053 0.0059 0.0029 0.01495 0.0071 0.02015 0.0092 0.06203 0.02575 0.11646 0.05334 0.17385 0.08811 0.03423 0.02074 0.03872 0.02353 0.04326 0.02691 0.0022 0.0016 0.01929 0.01391 0.038 0.02729 0.03875 0.02771 0.05384 0.03912 0.06247 0.04722 0.0033 0.0031 0.01698 0.01493 0.03036 0.02626 0.05753 0.04868 0.17997 0.18298 0.1842 0.20203 0.0011 5e-3 -0.01385 0.01808-0.04173 0.03641-0.0078 0.0051-0.01416 0.01058-0.01417 0.01214-1.1e-5 0.0016-0.0018 0.0028-4e-3 0.0028s-6e-3 0.0018-0.0085 4e-3c-0.0086 0.0075-0.07634 0.05692-0.09591 0.06994-0.02977 0.0198-0.0336 0.01854-0.06661-0.02196-0.02563-0.03145-0.10008-0.10706-0.12928-0.1313-0.10069-0.0836-0.21287-0.14606-0.33454-0.18628-0.24803-0.08198-0.50987-0.06566-0.75145 0.04683-0.01735 0.0081-0.03294 0.01469-0.03464 0.01469s-0.0037 0.0013-0.0043 0.0028c-6.93e-4 0.0016-0.01061 0.0078-0.02205 0.01382-0.0325 0.01717-0.09 0.05473-0.11896 0.0777-0.0145 0.0115-0.02969 0.02347-0.03374 0.02658-0.02538 0.01951-0.08666 0.07951-0.11185 0.1095-0.0094 0.01114-0.01904 0.0223-0.02151 0.02481-0.02272 0.02297-0.09512 0.13119-0.108 0.16143-0.0024 0.0057-0.0056 0.01039-0.0071 0.01039s-0.0038 0.0051-0.0051 0.01134c-0.0014 0.0062-0.0039 0.01134-0.0057 0.01134-0.0017 0-0.0043 0.0051-0.0057 0.01134-0.0014 0.0062-4e-3 0.01134-0.0058 0.01134s-0.0044 6e-3 -0.0058 0.01323c-0.0014 0.0073-0.0039 0.01323-0.0055 0.01323-0.0017 0-0.0042 0.0052-0.0056 0.01159-0.0014 0.0064-0.0049 0.01616-0.0078 0.02173-0.0029 0.0056-0.0053 0.01311-0.0053 0.01675-1.3e-5 0.0036-0.0016 0.0066-0.0035 0.0066s-0.0046 0.0068-6e-3 0.0151-0.0039 0.01594-0.0056 0.01696c-0.0017 1e-3 -0.0042 0.0095-0.0056 0.01883-0.0014 0.0093-4e-3 0.01786-0.0058 0.01895-0.0018 0.0011-0.0044 0.01084-0.0059 0.02167s-0.0042 0.02231-0.0059 0.02551c-0.0042 0.0076-0.01062 0.04611-0.01512 0.09086-2e-3 0.01975-0.0053 0.04316-0.0073 0.05202-0.0048 0.0212-0.0047 0.13361 1.67e-4 0.16617 0.0021 0.01407 0.0054 0.03919 0.0074 0.05581 0.0055 0.0468 0.01149 0.08257 0.01493 0.08896 0.0017 0.0032 0.0044 0.0134 0.0059 0.02268 0.0015 0.0093 0.0041 0.01856 0.0057 0.02064 0.0016 0.0021 0.0041 0.011 0.0056 0.01982 0.0015 0.0088 4e-3 0.01691 0.0058 0.01797 0.0017 0.0011 0.0043 0.0087 0.0057 0.01701 0.0014 0.0083 0.0041 0.01604 6e-3 0.01721 0.0019 0.0012 0.0035 0.0047 0.0035 0.0078 0 0.0049 0.0041 0.0155 0.0189 0.0487 0.01399 0.03142 0.0189 0.04354 0.0189 0.04672 0 2e-3 0.0013 0.0042 0.0028 0.0049 0.0016 6.93e-4 7e-3 0.0098 0.01202 0.02016 0.01799 0.03703 0.0854 0.14172 0.09124 0.14172 0.0016 0 0.0035 0.0023 0.0042 0.0052 0.0042 0.01787 0.12524 0.13964 0.17984 0.18093 0.0213 0.01611 0.04029 0.02929 0.04218 0.02929 0.0019 0 4e-3 0.0013 0.0047 3e-3 0.0016 0.0038 0.04903 0.03486 0.07117 0.0466 0.0093 5e-3 0.01787 0.01015 0.01893 0.01154 0.0011 0.0014 0.0066 0.0037 0.01229 0.0051 0.0057 0.0014 0.01036 0.0038 0.01036 0.0052 0 0.0015 0.0072 0.0057 0.01606 0.0094 0.0088 0.0037 0.02249 0.01002 0.03035 0.01395 0.0079 0.0039 0.01665 0.0071 0.01953 0.0071 0.0029 0 0.0058 0.0014 0.0065 0.0032 0.0014 0.0036 0.04548 0.01946 0.05419 0.01946 0.0031 0 0.0057 0.0016 0.0057 0.0035 0 2e-3 0.0077 0.0047 0.01705 0.0061 0.0094 0.0014 0.01788 0.0039 0.0189 0.0055 1e-3 0.0016 0.01035 0.0042 0.02074 0.0056s0.01977 4e-3 0.02084 0.0058c0.0011 0.0017 0.01171 0.0043 0.02363 0.0058 0.01192 0.0014 0.02342 4e-3 0.02556 0.0057 0.0038 3e-3 0.03046 7e-3 0.10194 0.0153 0.04147 0.0048 0.22637 0.0023 0.23329-0.0032 0.0026-0.0021 0.01837-5e-3 0.03494-0.0064s0.03188-4e-3 0.03401-0.0057c0.0021-0.0017 0.01364-0.0043 0.02556-0.0057s0.02251-4e-3 0.02354-0.0056c1e-3 -0.0017 0.01034-0.0041 0.02069-0.0055s0.01985-0.0041 0.02109-0.0062c0.0012-2e-3 6e-3 -0.0037 0.01055-0.0037 0.0046-1.1e-5 0.01269-0.0023 0.01808-0.0051 0.0054-0.0028 0.01602-0.0063 0.02362-0.0077s0.01382-0.0042 0.01382-0.0062 0.0026-0.0036 0.0059-0.0036c0.0053 0 0.01702-0.0046 0.05327-0.02106 0.0066-3e-3 0.01378-0.0054 0.01606-0.0054 0.0023 0 0.0042-0.0015 0.0042-0.0034s0.0044-0.0045 0.0098-0.0058 0.01639-0.0066 0.02449-0.01175c0.0081-0.0051 0.01581-0.0093 0.01714-0.0093 0.0027 0 0.04765-0.02664 0.05065-0.03 0.0049-0.0055 0.01973-0.01157 0.02829-0.01157 0.0065 0 0.0096-0.0021 0.0097-0.0066 1.03e-4 -0.0039 0.01595-0.01823 0.03868-0.03496 0.04713-0.03469 0.13827-0.12496 0.17648-0.1748 0.03341-0.04357 0.04015-0.04546 0.07082-0.01989 0.0025 0.0021 0.0071 6e-3 0.01023 0.0086 0.0031 0.0026 0.0066 0.0047 0.0078 0.0047 0.0021 0 0.02422 0.01477 0.02835 0.0189 0.0024 0.0024 0.02159 0.01592 0.05289 0.03724 0.01352 0.0092 0.02516 0.01821 0.02585 0.01999 6.93e-4 0.0018 0.0029 0.0032 0.0049 0.0032 0.0076 0 0.03334 0.02074 0.03349 0.02694 5.9e-5 0.0024-0.03576 0.04999-0.0577 0.07663-0.04187 0.05082-0.12185 0.131-0.16536 0.16578-0.04475 0.03576-0.06386 0.05023-0.07729 0.0585-0.0083 0.0051-0.01691 0.01128-0.01903 0.01365-0.0021 0.0024-0.0072 0.0063-0.01134 0.0088-0.06923 0.04167-0.09168 0.05458-0.11711 0.06731-0.01661 0.0083-0.03076 0.01639-0.03146 0.01795-6.93e-4 0.0016-0.0029 0.0028-0.0049 0.0028-0.0032 0-0.0153 0.0049-0.04672 0.0189-0.0332 0.01479-0.04379 0.0189-0.0487 0.0189-0.0031 0-0.0067 0.0017-8e-3 0.0038s-5e-3 0.0038-0.0082 0.0038-0.01118 0.0024-0.01773 0.0053c-0.01639 0.0073-0.06274 0.02114-0.0709 0.02114-0.0037 0-0.0077 0.0015-0.0088 0.0034-0.0012 0.0019-0.01062 0.0046-0.02101 6e-3s-0.01972 0.0039-0.02073 0.0056c-1e-3 0.0016-0.01292 0.0042-0.02646 0.0056-0.01354 0.0015-0.02462 0.0039-0.02462 0.0055 0 0.0027-0.02846 0.0068-0.10393 0.01511-0.04903 0.0054-0.18466 0.0076-0.24377 0.0039z" style="paint-order:markers fill stroke" gorn="0.2.0.0.0.0.0.0.2.0.0.0.0.0.0.2.0.0.0.0.0.0.1"/>
  </g>
  <g transform="matrix(1.8009 0 0 1.8009 543.32 -90.201)" stroke-width=".023562" gorn="0.2.0.0.0.0.0.0.2.0.0.0.0.0.0.3.0.0.0.0.0.0.0.0.0.0.0.0.0">
   <path d="m-6.9673 437.14c-0.10586-0.0254-0.2219-0.0642-0.25786-0.0864-0.035965-0.0222-0.63615-0.0848-1.3338-0.13896-0.6976-0.0542-1.302-0.12644-1.343-0.16052-0.041058-0.0341-0.36421-0.09-0.71811-0.12425-0.3539-0.0343-0.74165-0.10306-0.86166-0.15288-0.12001-0.0498-0.42274-0.11575-0.67273-0.14647-0.24999-0.0307-0.49353-0.0882-0.54119-0.12774-0.04766-0.0396-0.24991-0.0874-0.44943-0.10636-0.19953-0.019-0.42329-0.0722-0.49726-0.11827-0.07397-0.0461-0.27035-0.11756-0.4364-0.15878-0.16605-0.0412-0.35802-0.11033-0.4266-0.15359-0.06858-0.0433-0.2369-0.0983-0.37405-0.12234-0.13716-0.0241-0.29499-0.0834-0.35074-0.13198-0.05575-0.0486-0.21005-0.1049-0.34288-0.12522-0.13283-0.0204-0.2836-0.0726-0.33503-0.11621-0.05143-0.0436-0.21274-0.11102-0.35847-0.14983-0.14572-0.0388-0.26495-0.0964-0.26495-0.12809 0-0.0316-0.10895-0.0869-0.24211-0.12271-0.13316-0.0359-0.27537-0.10528-0.31602-0.15425-0.04065-0.049-0.16315-0.10856-0.27222-0.13237-0.10907-0.0238-0.26521-0.0958-0.34698-0.15987-0.08177-0.0641-0.18956-0.11657-0.23954-0.11657-0.04997 0-0.16219-0.0561-0.24937-0.12467-0.08718-0.0686-0.19556-0.1247-0.24085-0.1247s-0.18569-0.0701-0.31201-0.15584c-0.12632-0.0857-0.26783-0.15587-0.31448-0.15587s-0.08481-0.0277-0.08481-0.0615-0.09118-0.10548-0.20262-0.1592c-0.33899-0.16345-0.61071-0.32366-0.72615-0.42814-0.06034-0.0546-0.13404-0.0993-0.16379-0.0993-0.06306 0-0.50467-0.29337-0.68038-0.45198-0.06647-0.06-0.1509-0.10909-0.18762-0.10909s-0.1018-0.0561-0.14463-0.1247-0.10216-0.12467-0.13184-0.12467c-0.02969 0-0.15643-0.0939-0.28165-0.20855-0.12522-0.11469-0.30323-0.24796-0.39558-0.29612-0.09235-0.0482-0.21467-0.12967-0.27182-0.1811-0.05715-0.0514-0.23899-0.20574-0.40408-0.34288-0.16509-0.13716-0.34442-0.29146-0.3985-0.3429-0.05408-0.0514-0.29262-0.26183-0.53008-0.46757-0.23746-0.20571-0.54162-0.47924-0.67591-0.60783-0.13429-0.12858-0.26884-0.23378-0.29899-0.23378s-0.05482-0.0407-0.05482-0.0904-0.03972-0.11287-0.08826-0.14028c-0.04855-0.0274-0.17103-0.15418-0.27219-0.2817-0.20297-0.25586-0.85767-0.99415-1.1981-1.3511-0.12001-0.12584-0.30158-0.35417-0.40348-0.50742-0.10191-0.15327-0.25038-0.36282-0.32994-0.46569-0.16352-0.2114-0.25217-0.32964-0.51414-0.68577-0.1009-0.13714-0.22617-0.2938-0.2784-0.34812-0.05222-0.0543-0.09495-0.128-0.09495-0.1638s-0.0437-0.10134-0.09712-0.14565c-0.05341-0.0444-0.13856-0.16701-0.18922-0.2726-0.05066-0.1056-0.16015-0.30419-0.2433-0.44135-0.08316-0.13716-0.1983-0.33354-0.25587-0.43641s-0.12567-0.20106-0.15132-0.2182c-0.02564-0.0172-0.09044-0.13637-0.14398-0.26495-0.05354-0.12859-0.12683-0.23379-0.16286-0.23379-0.03604 0-0.06552-0.0523-0.06552-0.11628 0-0.0639-0.05183-0.18318-0.11518-0.26496-0.06335-0.0818-0.13567-0.23283-0.16071-0.3357-0.02506-0.10286-0.08188-0.2291-0.12631-0.28054-0.04443-0.0514-0.11455-0.19871-0.15583-0.3273-0.04128-0.12858-0.09871-0.23378-0.12761-0.23378-0.02891 0-0.07075-0.0829-0.09299-0.1841-0.02225-0.10126-0.09054-0.24854-0.15178-0.3273-0.06124-0.0788-0.13018-0.24558-0.1532-0.37072s-0.081-0.26001-0.12884-0.29971-0.10684-0.18967-0.13109-0.33324c-0.02426-0.14357-0.09658-0.35896-0.16073-0.47864-0.06414-0.11969-0.11662-0.26722-0.11662-0.32785 0-0.0606-0.05611-0.21494-0.12469-0.34289-0.06857-0.12795-0.12468-0.28957-0.12468-0.35917s-0.05185-0.2243-0.11523-0.3438-0.13452-0.38505-0.15809-0.5901c-0.02357-0.20504-0.07989-0.42948-0.12516-0.49873-0.04526-0.0693-0.10263-0.29425-0.12748-0.49999-0.02484-0.20572-0.08626-0.43811-0.13647-0.51641-0.05059-0.0789-0.11528-0.41245-0.1451-0.74811-0.02959-0.33316-0.08751-0.68992-0.12869-0.79278-0.04119-0.10286-0.11228-0.64992-0.15799-1.2157-0.04571-0.56576-0.11806-1.4424-0.16077-1.9481-0.06213-0.73543-0.06203-1.091 5.3e-4 -1.7768 0.043-0.47154 0.11602-1.3343 0.16227-1.9172 0.04625-0.58291 0.11712-1.144 0.15748-1.2468 0.04036-0.10287 0.0976-0.45962 0.12719-0.79279 0.02981-0.33565 0.09451-0.66922 0.1451-0.74811 0.05021-0.0783 0.11162-0.31068 0.13647-0.51641 0.02484-0.20573 0.08221-0.43072 0.12748-0.49998 0.04527-0.0693 0.10158-0.29369 0.12516-0.49874 0.02357-0.20505 0.09471-0.47059 0.15809-0.59009s0.11523-0.27422 0.11523-0.34381c0-0.0696 0.05611-0.23122 0.12468-0.35917 0.06858-0.12795 0.12469-0.28224 0.12469-0.34288 0-0.0606 0.05561-0.21401 0.12358-0.34083s0.14161-0.34329 0.16364-0.48105c0.02204-0.13776 0.07888-0.2827 0.12634-0.32209 0.04746-0.0394 0.10357-0.17966 0.12468-0.31172 0.02111-0.13205 0.07554-0.27092 0.12094-0.3086 0.0454-0.0377 0.11627-0.17069 0.15749-0.29558s0.11279-0.26492 0.15905-0.31118c0.04626-0.0463 0.0841-0.13442 0.0841-0.19593 0-0.0615 0.05183-0.17873 0.11518-0.2605 0.06335-0.0818 0.13522-0.23063 0.15972-0.33079s0.09891-0.25122 0.16536-0.3357c0.06645-0.0845 0.12082-0.20293 0.12082-0.26321 0-0.0603 0.03926-0.12467 0.08724-0.14308 0.04798-0.0184 0.12029-0.13363 0.16069-0.25604s0.09896-0.22257 0.13012-0.22257c0.03117 0 0.10012-0.0912 0.15322-0.20261 0.0531-0.11144 0.16464-0.31483 0.24788-0.45198 0.08323-0.13716 0.20928-0.34756 0.2801-0.46757 0.14526-0.24614 0.26023-0.42165 0.53048-0.80984 0.10286-0.14775 0.21508-0.31108 0.24937-0.36294 0.0731-0.11057 0.16442-0.22561 0.37362-0.47067 0.08377-0.0981 0.16911-0.23137 0.18967-0.29612 0.02056-0.0648 0.06441-0.11774 0.09747-0.11774 0.03305 0 0.07817-0.0491 0.10025-0.1091 0.02209-0.06 0.09835-0.16628 0.16948-0.23616 0.15051-0.14788 0.81267-0.89643 1.0726-1.2126 0.44776-0.54455 2.6935-2.6608 2.9034-2.736 0.03589-0.0129 0.11085-0.0637 0.16657-0.11303 0.05572-0.0493 0.21352-0.17249 0.35068-0.27373 0.44927-0.33161 0.53633-0.39896 0.65856-0.50942 0.0664-0.06 0.14177-0.10947 0.16748-0.10993 0.04362-8e-4 0.12168-0.0578 0.57497-0.41998 0.09656-0.0771 0.21626-0.14027 0.266-0.14027s0.13893-0.0536 0.1982-0.11908c0.05927-0.0655 0.17583-0.13616 0.25903-0.15704 0.0832-0.0209 0.15127-0.0651 0.15127-0.0983s0.10422-0.10386 0.2316-0.15708c0.12738-0.0532 0.24661-0.11941 0.26496-0.14707 0.03961-0.0597 0.19744-0.14544 0.85248-0.46294 0.26954-0.13065 0.53215-0.26472 0.58358-0.29794 0.05143-0.0332 0.1465-0.0779 0.21125-0.0993 0.06476-0.0214 0.24158-0.10474 0.39294-0.18522 0.15136-0.0805 0.30436-0.14633 0.34-0.14633s0.13613-0.0561 0.22331-0.12468c0.08718-0.0686 0.20424-0.12469 0.26013-0.12469s0.2063-0.0561 0.33425-0.12468c0.12795-0.0686 0.29694-0.12469 0.37553-0.12469 0.0786 0 0.24866-0.0539 0.37792-0.11982 0.12926-0.0659 0.34396-0.13822 0.47711-0.16072s0.34785-0.0948 0.47711-0.16072c0.12926-0.0659 0.29933-0.11982 0.37792-0.11982 0.0786 0 0.24759-0.0561 0.37554-0.12469 0.12795-0.0686 0.32604-0.12468 0.4402-0.12468s0.33901-0.0539 0.49966-0.1197c0.16066-0.0658 0.4464-0.13765 0.63498-0.15958 0.18859-0.0219 0.40047-0.0773 0.47086-0.12305 0.07039-0.0457 0.37898-0.10351 0.68577-0.12838 0.30679-0.0249 0.67491-0.0844 0.81805-0.13218 0.14314-0.0478 0.79791-0.12902 1.455-0.1804 0.65714-0.0514 1.2554-0.12815 1.3295-0.17057 0.19228-0.11012 2.2017-0.10722 2.3955 3e-3 0.077631 0.0443 0.4213 0.0977 0.7637 0.11852l0.62255 0.0379v7.6271l-2.3223-1e-3c-1.7255-1e-3 -2.3944 0.0194-2.6028 0.0797-0.1543 0.0446-0.56108 0.11767-0.90397 0.16229-0.34288 0.0446-0.72773 0.12594-0.85521 0.18072-0.12748 0.0548-0.3383 0.0996-0.4685 0.0996-0.13019 0-0.33448 0.0519-0.45398 0.11521-0.1195 0.0634-0.34352 0.13492-0.49782 0.15901-0.1543 0.0241-0.33726 0.0809-0.40659 0.12627-0.06933 0.0454-0.24305 0.10225-0.38605 0.12641-0.143 0.0242-0.2925 0.0831-0.3322 0.13092-0.03971 0.0478-0.17458 0.10531-0.29972 0.12771s-0.2696 0.0771-0.32104 0.12148c-0.05143 0.0444-0.17768 0.10106-0.28054 0.12588-0.10286 0.0248-0.26149 0.0971-0.35251 0.16071-0.09101 0.0636-0.20646 0.11559-0.25655 0.11559s-0.15797 0.0523-0.23974 0.11611c-0.08178 0.0639-0.21827 0.13794-0.30333 0.16462-0.08506 0.0267-0.22533 0.0948-0.31171 0.15135-0.28383 0.18583-0.40394 0.25505-0.59842 0.34486-0.1056 0.0488-0.22826 0.13236-0.27259 0.18577-0.04433 0.0534-0.1138 0.0971-0.15437 0.0971-0.08568 0-0.6098 0.36625-0.90769 0.63429-0.0638 0.0574-0.17636 0.13668-0.25013 0.17616-0.14324 0.0767-0.1931 0.11743-0.61292 0.50124-0.14852 0.13578-0.28553 0.24687-0.30445 0.24687-0.08846 0-1.5762 1.4763-2.0012 1.9858-0.12636 0.15149-0.29288 0.33798-0.37002 0.41442-0.07715 0.0764-0.14027 0.16986-0.14027 0.20758 0 0.0377-0.05578 0.0984-0.12395 0.13492-0.06817 0.0365-0.14144 0.13602-0.16281 0.22119-0.02138 0.0852-0.07181 0.17553-0.11208 0.20081-0.07949 0.0499-0.51368 0.67357-0.65481 0.94056-0.04804 0.0909-0.123 0.18643-0.16657 0.21236-0.04358 0.0259-0.09768 0.13112-0.12023 0.23378-0.02254 0.10266-0.06751 0.18666-0.09993 0.18666-0.03241 0-0.08699 0.0738-0.12128 0.16399-0.03429 0.0902-0.11776 0.24182-0.18548 0.33693-0.06772 0.0951-0.12313 0.20625-0.12313 0.24698 0 0.0407-0.05611 0.14538-0.12468 0.23257-0.06858 0.0872-0.12468 0.20705-0.12468 0.26638 0 0.0593-0.05245 0.17477-0.11656 0.25655-0.06411 0.0818-0.13605 0.23791-0.15986 0.34698s-0.08284 0.23112-0.13116 0.27122-0.10618 0.1753-0.12857 0.30044c-0.02238 0.12513-0.07766 0.27005-0.1228 0.32204-0.04515 0.052-0.11265 0.23091-0.15001 0.39761-0.03736 0.16671-0.10908 0.36186-0.15939 0.43368-0.05031 0.0718-0.09242 0.21551-0.09358 0.31932-0.0011 0.10381-0.05632 0.30096-0.12257 0.43812-0.06625 0.13715-0.12141 0.31969-0.12257 0.40563-0.0011 0.0859-0.02714 0.24351-0.05771 0.35012-0.11241 0.39195-0.66386 0.3635 7.7059 0.39758l7.6548 0.0312v7.7305l-7.6548 0.0312c-8.3697 0.0341-7.8183 6e-3 -7.7059 0.39758 0.03058 0.10662 0.0556 0.26813 0.0556 0.3589 0 0.0908 0.05549 0.28734 0.12332 0.43681 0.06782 0.14947 0.12412 0.35593 0.1251 0.45879 0.0011 0.10287 0.05752 0.27119 0.12564 0.37406 0.06812 0.10286 0.12405 0.24421 0.12427 0.31411 2.25e-4 0.0699 0.05652 0.23714 0.1251 0.37166 0.06858 0.13451 0.12468 0.27329 0.12468 0.30841 0 0.0351 0.07299 0.21855 0.16221 0.40763 0.14702 0.31158 0.25411 0.54586 0.45637 0.99838 0.03832 0.0857 0.13731 0.26807 0.22 0.40522 0.08268 0.13716 0.19585 0.33354 0.25148 0.4364 0.25571 0.47285 0.34195 0.61507 0.39363 0.64912 0.0306 0.0202 0.09503 0.11195 0.14318 0.20398 0.10456 0.19984 0.81781 1.2432 0.9593 1.4033 0.05476 0.062 0.21065 0.23417 0.34643 0.38269s0.24687 0.28225 0.24687 0.29716c0 0.0843 1.9287 2.02 2.0127 2.02 0.01892 0 0.15592 0.1111 0.30445 0.24688 0.45017 0.41153 0.48758 0.44127 0.64655 0.51369 0.08437 0.0384 0.1534 0.0889 0.1534 0.11218 0 0.0233 0.18682 0.16603 0.41516 0.31729s0.48784 0.32377 0.57667 0.38338c0.08883 0.0596 0.2597 0.15777 0.37971 0.2182 0.12001 0.0604 0.22778 0.13158 0.2395 0.15815 0.01172 0.0266 0.1099 0.0907 0.2182 0.1425 0.32187 0.15401 0.56495 0.2794 0.66447 0.34279 0.05143 0.0328 0.16365 0.0904 0.24937 0.12809 0.08572 0.0377 0.19794 0.0938 0.24937 0.1247s0.16365 0.0864 0.24937 0.12332c0.08572 0.037 0.26807 0.11975 0.40523 0.18399 0.13715 0.0642 0.33353 0.13573 0.4364 0.15891 0.10287 0.0233 0.22911 0.0781 0.28054 0.12203 0.05143 0.0439 0.19902 0.0994 0.32798 0.12337 0.12895 0.0238 0.33828 0.0964 0.46516 0.16113 0.12689 0.0647 0.30192 0.11856 0.38897 0.11973 0.08704 0 0.27048 0.0563 0.40763 0.12258 0.13715 0.0662 0.34756 0.12263 0.46757 0.1253 0.12001 3e-3 0.33041 0.0473 0.46757 0.0991 0.13715 0.0519 0.52991 0.13194 0.8728 0.17798 0.34288 0.046 0.74967 0.12007 0.90397 0.16447 0.20609 0.0593 0.89682 0.0817 2.6028 0.0842l2.3223 3e-3 2.12e-5 7.62-0.26773 0.0367c-0.14725 0.0201-0.35064 0.0799-0.45198 0.13277-0.14932 0.0779-0.42066 0.095-1.4311 0.0901-0.68577-3e-3 -1.3335-0.0267-1.4393-0.052z" style="paint-order:markers fill stroke" gorn="0.2.0.0.0.0.0.0.2.0.0.0.0.0.0.3.0.0.0.0.0.0.0.0.0.0.0.0.0.0"/>
   <path d="m-51.911 437.15c-0.10286-0.0161-0.21548-0.053-0.25026-0.0818-0.03478-0.0287-0.62299-0.0973-1.3071-0.15245-0.68415-0.0551-1.357-0.13798-1.4953-0.18418s-0.49779-0.10393-0.7989-0.12832c-0.30111-0.0243-0.62409-0.0826-0.71773-0.1293-0.09365-0.0467-0.36629-0.11158-0.60587-0.14415-0.23958-0.0326-0.54782-0.10273-0.68498-0.15594-0.13715-0.0532-0.35827-0.0979-0.49138-0.0995-0.13311-3e-3 -0.32949-0.0554-0.4364-0.11983-0.10691-0.0644-0.30362-0.13655-0.43713-0.16036-0.13351-0.0238-0.27891-0.0794-0.32312-0.12362-0.0442-0.0442-0.18746-0.0976-0.31834-0.11866-0.13088-0.0212-0.3491-0.0951-0.48494-0.16449-0.13583-0.0694-0.2986-0.12621-0.3617-0.12621-0.06311 0-0.21848-0.0537-0.34529-0.11927-0.45709-0.23646-0.91963-0.44183-0.99514-0.44183-0.04237 0-0.07703-0.0269-0.07703-0.0598s-0.11255-0.0936-0.25011-0.13478c-0.13756-0.0412-0.28127-0.11248-0.31935-0.15836-0.03808-0.0459-0.09792-0.0834-0.13299-0.0834-0.06301 0-0.83299-0.36872-1.0743-0.51445-0.11007-0.0665-0.71238-0.43985-1.0598-0.65699-0.06858-0.0429-0.21108-0.11782-0.31667-0.16658-0.1056-0.0488-0.22826-0.13237-0.27259-0.18577s-0.10818-0.0971-0.14189-0.0971-0.14951-0.0699-0.25732-0.15531c-0.10782-0.0854-0.26186-0.20465-0.34233-0.26495-0.08046-0.0603-0.21306-0.16576-0.29465-0.23434-0.08159-0.0685-0.24935-0.19481-0.37279-0.28054-0.12344-0.0857-0.29271-0.21196-0.37615-0.28054-0.08344-0.0686-0.22428-0.18079-0.31298-0.24937-0.0887-0.0686-0.2357-0.19063-0.32668-0.27122-0.47164-0.4178-1.0524-0.93112-1.2097-1.0691-0.18173-0.15949-0.75162-0.73326-0.91952-0.9258-0.05143-0.059-0.24735-0.28858-0.43537-0.51028-0.18802-0.22167-0.44752-0.50821-0.57667-0.63674-0.12915-0.12856-0.23481-0.25157-0.23481-0.2734 0-0.0217-0.06312-0.10337-0.14027-0.18124-0.162-0.16346-0.22094-0.23915-0.38513-0.49456-0.13246-0.20603-0.15754-0.23958-0.36121-0.48328-0.07812-0.0935-0.21218-0.27096-0.2979-0.39442-0.08572-0.12343-0.21898-0.29652-0.29613-0.38462s-0.14027-0.1968-0.14027-0.24152c0-0.0447-0.03672-0.10374-0.08159-0.13115-0.04487-0.0274-0.11758-0.13901-0.16156-0.24799-0.04399-0.10899-0.11949-0.21331-0.16778-0.23183-0.04829-0.0185-0.08781-0.0808-0.08781-0.1383s-0.1048-0.2618-0.23288-0.45394c-0.27331-0.40998-0.40006-0.62876-0.56861-0.98148-0.06783-0.14195-0.1537-0.27686-0.19083-0.29981-0.03713-0.0229-0.0675-0.0924-0.0675-0.15432 0-0.0619-0.05611-0.18392-0.12468-0.27111-0.06857-0.0872-0.12468-0.21342-0.12468-0.28054 0-0.0671-0.05245-0.18893-0.11656-0.27071-0.06411-0.0818-0.13689-0.24175-0.16173-0.3555s-0.08185-0.2209-0.12668-0.2381-0.09995-0.12957-0.12248-0.2497c-0.02254-0.12013-0.09532-0.30755-0.16175-0.41649s-0.12088-0.2546-0.12101-0.32369c-1.27e-4 -0.0691-0.05634-0.23029-0.12492-0.35824s-0.12468-0.28291-0.12468-0.34436c0-0.0615-0.05586-0.2213-0.12413-0.3552-0.06827-0.13391-0.14155-0.34324-0.16285-0.46517s-0.07762-0.28378-0.12517-0.35966c-0.04754-0.0759-0.11269-0.32327-0.14476-0.54976-0.03208-0.22648-0.08765-0.44713-0.12349-0.49032-0.03585-0.0432-0.09116-0.262-0.12291-0.48622-0.03176-0.22424-0.0986-0.48856-0.14854-0.58739-0.04994-0.0988-0.10922-0.40955-0.13172-0.69047-0.02252-0.28092-0.08164-0.64562-0.13142-0.81045s-0.1332-0.84668-0.18539-1.5152c-0.05259-0.67365-0.12289-1.2249-0.1577-1.2365-0.03938-0.0131-0.06282-0.48227-0.06282-1.2574s0.02344-1.2443 0.06282-1.2574c0.03486-0.0116 0.10461-0.56188 0.15672-1.2365 0.05164-0.66853 0.13457-1.3558 0.18429-1.5272 0.04971-0.17144 0.1093-0.55017 0.1324-0.84163 0.0231-0.29145 0.08288-0.61077 0.13282-0.70961 0.04994-0.0988 0.11679-0.36316 0.14854-0.58739 0.03176-0.22423 0.08707-0.44303 0.12291-0.48622 0.03585-0.0432 0.09142-0.26384 0.12349-0.49033 0.03207-0.22648 0.09722-0.47387 0.14476-0.54975 0.04754-0.0759 0.10387-0.23773 0.12517-0.35966 0.0213-0.12194 0.09458-0.33126 0.16285-0.46517s0.12413-0.29375 0.12413-0.3552c0-0.0614 0.05611-0.21641 0.12468-0.34436 0.06858-0.12795 0.12468-0.28585 0.12468-0.35089 0-0.065 0.05375-0.20572 0.11945-0.31263 0.0657-0.10692 0.13859-0.29765 0.16198-0.42385 0.02339-0.12621 0.07921-0.24355 0.12404-0.26075s0.10184-0.12435 0.12668-0.2381c0.02484-0.11376 0.09763-0.27373 0.16173-0.35551 0.06411-0.0818 0.11656-0.19722 0.11656-0.25655 0-0.0593 0.05611-0.1792 0.12468-0.26638 0.06858-0.0872 0.12468-0.21555 0.12468-0.28527 0-0.0697 0.03038-0.14553 0.0675-0.16847 0.03713-0.0229 0.123-0.15786 0.19083-0.29981 0.16855-0.35272 0.29529-0.57149 0.56861-0.98148 0.12808-0.19213 0.23288-0.37715 0.23288-0.41115s0.05452-0.11115 0.12115-0.17145 0.139-0.1909 0.16081-0.29021c0.0218-0.0993 0.06694-0.18056 0.10029-0.18056s0.08997-0.0842 0.12583-0.18703c0.03586-0.10286 0.08979-0.18703 0.11984-0.18703s0.10125-0.0912 0.1582-0.20261c0.05696-0.11144 0.14184-0.22505 0.18863-0.25247 0.04679-0.0274 0.08507-0.0812 0.08507-0.11945 0-0.0383 0.04273-0.11404 0.09495-0.16835 0.18897-0.19653 0.46614-0.58504 0.46614-0.6534 0-0.0385 0.05611-0.10499 0.12468-0.14781 0.06858-0.0428 0.12468-0.1034 0.12468-0.1346s0.1052-0.16692 0.23379-0.3016c0.24395-0.25552 0.95086-1.0415 1.2073-1.3424 0.3363-0.39455 1.5141-1.5179 2.1457-2.0465 0.44632-0.37351 0.4726-0.39591 0.59458-0.50661 0.06612-0.06 0.14126-0.10935 0.16697-0.10966 0.02572-2.7e-4 0.22911-0.14052 0.45198-0.31158s0.46134-0.35341 0.52991-0.40522c0.06858-0.0518 0.2129-0.16408 0.32071-0.2495 0.10782-0.0854 0.2227-0.15531 0.25529-0.15531 0.0326 0 0.11004-0.0561 0.1721-0.12468 0.06206-0.0686 0.14356-0.12473 0.1811-0.12477 0.03755-5e-5 0.22256-0.10574 0.41115-0.23488 0.18859-0.12915 0.41302-0.26983 0.49874-0.31263s0.2821-0.16108 0.4364-0.26285c0.1543-0.10176 0.32262-0.20178 0.37405-0.22227 0.14738-0.0587 0.33451-0.14615 0.4364-0.2039 0.12208-0.0692 0.61182-0.30004 0.81045-0.38202 0.08572-0.0354 0.19794-0.09 0.24937-0.12132 0.05143-0.0313 0.26184-0.13246 0.46757-0.2247 0.20573-0.0922 0.48627-0.21963 0.62343-0.28311 0.13715-0.0635 0.35867-0.13279 0.49227-0.15404 0.1336-0.0212 0.30192-0.0755 0.37405-0.12061 0.07214-0.0451 0.24338-0.10123 0.38053-0.12476 0.13715-0.0235 0.30575-0.079 0.37466-0.12331 0.06891-0.0443 0.2731-0.11222 0.45375-0.15096 0.18065-0.0387 0.39079-0.10931 0.46696-0.15682 0.07618-0.0475 0.27878-0.10166 0.45022-0.12035 0.17144-0.0187 0.39588-0.078 0.49874-0.13173 0.10286-0.0538 0.28522-0.0991 0.40523-0.10085 0.12001-2e-3 0.33041-0.0467 0.46757-0.10001 0.13715-0.0533 0.54939-0.1344 0.91609-0.18024 0.3667-0.0459 0.71832-0.11098 0.7814-0.14474 0.06307-0.0337 0.68784-0.10727 1.3884-0.16338 0.7469-0.0598 1.3108-0.1328 1.3634-0.17646 0.1274-0.10577 2.1783-0.10303 2.3833 3e-3 0.0824 0.0427 0.41634 0.0988 0.74207 0.12468l0.59225 0.047v7.6058l-2.4002 3e-3c-2.0659 3e-3 -2.4393 0.0175-2.6807 0.10565-0.1543 0.0564-0.50498 0.12118-0.77928 0.14405-0.27431 0.0229-0.5829 0.0829-0.68577 0.13329-0.10286 0.0504-0.35765 0.11664-0.5662 0.14714s-0.46103 0.0981-0.56108 0.15032c-0.10005 0.0522-0.25247 0.095-0.3387 0.0953-0.08623 2.1e-4 -0.25776 0.0545-0.38118 0.12065-0.12342 0.0662-0.33341 0.13984-0.46665 0.16376-0.13323 0.0239-0.28432 0.0796-0.33575 0.12382-0.05143 0.0442-0.19896 0.0999-0.32784 0.12383-0.12888 0.0239-0.30163 0.0964-0.38389 0.16113-0.08226 0.0647-0.20448 0.11764-0.27159 0.11764-0.06712 0-0.19336 0.0561-0.28054 0.12469-0.08718 0.0686-0.1994 0.12468-0.24937 0.12468s-0.16219 0.0561-0.24937 0.12469c-0.08718 0.0686-0.19617 0.12519-0.24219 0.12582-0.07149 1e-3 -0.50926 0.26151-0.70711 0.42084-0.03429 0.0276-0.1515 0.0868-0.26048 0.13153-0.10897 0.0447-0.2133 0.12085-0.23183 0.16914-0.01852 0.0483-0.07962 0.0878-0.13575 0.0878-0.09246 0-0.3091 0.14471-0.60321 0.40295-0.06001 0.0527-0.12609 0.0958-0.14686 0.0958s-0.11702 0.0631-0.2139 0.14027c-0.09688 0.0772-0.27693 0.2104-0.40012 0.29613-0.25082 0.17453-0.32472 0.236-0.97431 0.81045-0.57351 0.50716-0.85397 0.78603-1.3664 1.3586-0.22288 0.24904-0.51744 0.57798-0.6546 0.73098-0.13715 0.153-0.29728 0.34159-0.35583 0.41909s-0.17155 0.22508-0.25111 0.32795c-0.07956 0.10286-0.22795 0.31327-0.32976 0.46757-0.10181 0.15429-0.21806 0.30175-0.25834 0.32766-0.04028 0.0259-0.09169 0.13113-0.11423 0.23379s-0.06825 0.18666-0.10156 0.18666-0.0996 0.0934-0.1473 0.20757-0.13043 0.24385-0.18385 0.28818c-0.05341 0.0443-0.09712 0.12892-0.09712 0.18799 0 0.0591-0.05452 0.15672-0.12115 0.21702-0.06664 0.0603-0.13857 0.18896-0.15986 0.2859-0.0213 0.0969-0.07719 0.20819-0.12421 0.24722-0.04702 0.039-0.10499 0.16019-0.1288 0.26926s-0.09575 0.26521-0.15986 0.34698c-0.06411 0.0818-0.11675 0.19399-0.11697 0.24937-2.25e-4 0.0554-0.05615 0.18486-0.12428 0.28772-0.06812 0.10287-0.12405 0.24356-0.12427 0.31264-2.25e-4 0.0691-0.05278 0.22338-0.11678 0.34288-0.06401 0.1195-0.13782 0.31506-0.16403 0.43456-0.02622 0.11951-0.08399 0.27381-0.12839 0.34289-0.0444 0.0691-0.09998 0.23781-0.1235 0.37497-0.02352 0.13715-0.08127 0.31083-0.12832 0.38595-0.04704 0.0751-0.1039 0.29956-0.12634 0.49874-0.02244 0.19919-0.08186 0.44346-0.13203 0.54282-0.05017 0.0994-0.1152 0.45663-0.14449 0.79391-0.0293 0.33729-0.08955 0.6768-0.1339 0.75448-0.11688 0.2047-0.11688 4.8158 0 5.0205 0.04435 0.0777 0.1046 0.41719 0.1339 0.75447 0.02934 0.33779 0.09813 0.70001 0.15315 0.8064 0.05494 0.10624 0.10111 0.28573 0.10262 0.39887 0.0016 0.11314 0.04529 0.31792 0.09731 0.45508 0.05201 0.13715 0.13117 0.39624 0.17589 0.57574 0.04473 0.17951 0.10992 0.36186 0.14486 0.40523 0.03495 0.0434 0.08455 0.17704 0.11022 0.29705 0.02566 0.12001 0.09905 0.31597 0.16306 0.43547 0.064 0.11951 0.11637 0.27049 0.11637 0.33553 0 0.065 0.05291 0.20572 0.11758 0.31264 0.06467 0.10691 0.13812 0.26452 0.16323 0.35024 0.02511 0.0857 0.08087 0.19794 0.12391 0.24937 0.04304 0.0514 0.11204 0.19871 0.15332 0.3273 0.04128 0.12858 0.10094 0.23378 0.13257 0.23378s0.05751 0.029 0.05751 0.0643c0 0.0893 0.16205 0.42856 0.31171 0.65259 0.06872 0.10287 0.16999 0.28522 0.22504 0.40523s0.13696 0.2394 0.18202 0.26533c0.04506 0.0259 0.10035 0.13095 0.12285 0.23341 0.02252 0.10246 0.07446 0.20749 0.11547 0.23341 0.041 0.0259 0.12999 0.12846 0.19774 0.22786s0.16527 0.24251 0.2167 0.31801c0.24497 0.35961 0.35026 0.50506 0.4364 0.60285 0.05143 0.0584 0.14962 0.18168 0.2182 0.27397 0.11527 0.15512 0.53679 0.62215 1.129 1.2509 0.13337 0.14158 0.42485 0.41841 0.64772 0.61513 0.22288 0.19674 0.50342 0.44659 0.62342 0.55525 0.39997 0.36214 0.84611 0.70734 1.2969 1.0035 0.11118 0.073 0.22531 0.16361 0.4734 0.37563 0.0993 0.0848 0.23344 0.1543 0.29808 0.1543s0.1327 0.0395 0.15123 0.0878c0.01852 0.0483 0.12286 0.1238 0.23183 0.1678s0.22057 0.11668 0.24799 0.16155c0.02742 0.0449 0.08509 0.0816 0.12816 0.0816s0.17337 0.0701 0.28956 0.15584c0.11619 0.0857 0.25047 0.15587 0.2984 0.15587 0.04794 0 0.15849 0.0561 0.24567 0.12467 0.08718 0.0686 0.1994 0.1247 0.24937 0.1247s0.16219 0.0561 0.24937 0.12467c0.08718 0.0686 0.21343 0.12469 0.28054 0.12469 0.06712 0 0.1904 0.0538 0.27397 0.11952 0.08357 0.0657 0.26172 0.13806 0.39589 0.16073 0.13417 0.0228 0.27523 0.0789 0.31347 0.12499 0.03824 0.0461 0.18713 0.10303 0.33089 0.12658 0.14375 0.0236 0.30698 0.0831 0.36273 0.13224 0.05575 0.0492 0.21005 0.10459 0.34288 0.12316 0.13283 0.0185 0.37296 0.0875 0.53361 0.15319 0.16066 0.0657 0.37989 0.11941 0.48718 0.11941 0.1073 0 0.32653 0.0539 0.48718 0.11972 0.16066 0.0659 0.51653 0.13753 0.79084 0.15931 0.27431 0.0217 0.62499 0.0856 0.77928 0.14195 0.23917 0.0873 0.63451 0.1044 2.6807 0.11623l2.4002 0.014v7.5807l-0.28054 0.0553c-0.1543 0.0304-0.30052 0.0874-0.32494 0.12666-0.04501 0.0723-2.4844 0.12189-2.8857 0.0586z" style="paint-order:markers fill stroke" gorn="0.2.0.0.0.0.0.0.2.0.0.0.0.0.0.3.0.0.0.0.0.0.0.0.0.0.0.0.0.1"/>
  </g>
 </g>
 <g fill="#f7bd13" fill-rule="evenodd" stroke-linecap="round" stroke-linejoin="round" stroke-miterlimit="7.4" stroke-width="12.199">
  <rect transform="rotate(90)" x="252.01" y="-458" width="23.663" height="13.265" style="paint-order:markers fill stroke" gorn="0.2.0.0.0.0.0.0.3.0.0.0.0.0.0.0.0.0.0.0.0.0"/>
  <rect transform="rotate(90)" x="252.01" y="-434.33" width="23.663" height="13.265" style="paint-order:markers fill stroke" gorn="0.2.0.0.0.0.0.0.3.0.0.0.0.0.0.1.0.0.0.0.0.0"/>
  <rect transform="rotate(90)" x="252.01" y="-410.66" width="23.663" height="13.265" style="paint-order:markers fill stroke" gorn="0.2.0.0.0.0.0.0.3.0.0.0.0.0.0.2.0.0.0.0.0.0"/>
  <rect transform="rotate(90)" x="252.01" y="-386.99" width="23.663" height="13.265" style="paint-order:markers fill stroke" gorn="0.2.0.0.0.0.0.0.3.0.0.0.0.0.0.3.0.0.0.0.0.0"/>
  <rect transform="rotate(90)" x="252.01" y="-363.32" width="23.663" height="13.265" style="paint-order:markers fill stroke" gorn="0.2.0.0.0.0.0.0.3.0.0.0.0.0.0.4.0.0.0.0.0.0"/>
  <rect transform="rotate(90)" x="252.01" y="-339.65" width="23.663" height="13.265" style="paint-order:markers fill stroke" gorn="0.2.0.0.0.0.0.0.3.0.0.0.0.0.0.5.0.0.0.0.0.0"/>
  <rect transform="rotate(90)" x="252.01" y="-315.98" width="23.663" height="13.265" style="paint-order:markers fill stroke" gorn="0.2.0.0.0.0.0.0.3.0.0.0.0.0.0.6.0.0.0.0.0.0"/>
  <rect transform="rotate(90)" x="252.01" y="-292.31" width="23.663" height="13.265" style="paint-order:markers fill stroke" gorn="0.2.0.0.0.0.0.0.3.0.0.0.0.0.0.7.0.0.0.0.0.0"/>
  <rect transform="rotate(90)" x="252.01" y="-268.64" width="23.663" height="13.265" style="paint-order:markers fill stroke" gorn="0.2.0.0.0.0.0.0.3.0.0.0.0.0.0.8.0.0.0.0.0.0"/>
  <rect transform="rotate(90)" x="252.01" y="-244.97" width="23.663" height="13.265" style="paint-order:markers fill stroke" gorn="0.2.0.0.0.0.0.0.3.0.0.0.0.0.0.9.0.0.0.0.0.0"/>
  <rect transform="rotate(90)" x="252.01" y="-481.67" width="23.663" height="13.265" style="paint-order:markers fill stroke" gorn="0.2.0.0.0.0.0.0.3.0.0.0.0.0.0.10.0.0.0.0.0.0"/>
 </g>
 <g transform="matrix(0,39.37,-39.37,0,3917.5,-2027.8)">
  <g gorn="0.2.0.0.0.0.0.0.7.0.0.0.0.0.0.0">
   <path d="m69.64 99.496-0.20878-6.2e-4 -0.0014-8e-3c-0.01317-0.0817-0.04203-0.14357-0.09345-0.20034-0.09469-0.10455-0.25007-0.14817-0.38695-0.10864-0.06736 0.0195-0.11936 0.0503-0.16852 0.0999-0.05651 0.057-0.0897 0.12443-0.1024 0.20799l-0.0015 0.01h-0.36848l6.4e-4 -0.75299 6.41e-4 -0.753 0.0052-0.0319c0.0146-0.0898 0.03464-0.15373 0.07207-0.22994 0.03926-0.0799 0.08417-0.14317 0.14464-0.20374 0.23141-0.23181 0.58146-0.29234 0.879-0.15199 0.14307 0.0675 0.26717 0.18501 0.34447 0.32622 0.03802 0.0695 0.06902 0.15804 0.08204 0.23441 0.01198 0.0703 0.01121 0.0208 0.01202 0.77292 4.34e-4 0.38253 4.96e-4 0.71702 1.1e-4 0.74331l-6.2e-4 0.0478zm-0.52993-1.0297c0.09806-0.0122 0.17841-0.0519 0.24475-0.12085 0.05635-0.0586 0.0923-0.13195 0.10363-0.21141 0.0031-0.022 0.0031-0.0805 0-0.10245-0.0059-0.0413-0.0237-0.0954-0.04272-0.12977-0.03282-0.0593-0.08718-0.11502-0.146-0.14963-0.08617-0.0507-0.19026-0.0672-0.29122-0.0461-0.04792 0.01-0.10748 0.0362-0.14853 0.0654-0.02785 0.0198-0.0721 0.0641-0.09135 0.0914-0.03087 0.0439-0.05329 0.096-0.06396 0.14887-0.0044 0.0217-0.0051 0.0324-5e-3 0.0722 1.1e-4 0.0393 9.09e-4 0.0504 0.0052 0.0706 0.02202 0.10369 0.08021 0.18998 0.16655 0.24696 0.05631 0.0372 0.11336 0.0574 0.18555 0.0657 0.01589 2e-3 0.06531 1e-3 0.08316-8.3e-4z" fill="#f7bd13" fill-rule="evenodd" stroke-linecap="round" stroke-linejoin="round" stroke-miterlimit="7.4" stroke-width=".020658" style="paint-order:markers fill stroke" gorn="0.2.0.0.0.0.0.0.7.0.0.0.0.0.0.0.0"/>
   <rect x="69.309" y="98.396" width=".0030821" height=".004399" fill="none" stroke-width="0" gorn="0.2.0.0.0.0.0.0.7.0.0.0.0.0.0.0.1"/>
   <path d="m72.168 99.503-0.20878-6.2e-4 -0.0014-8e-3c-0.01317-0.0817-0.04203-0.14357-0.09345-0.20034-0.09469-0.10455-0.25007-0.14817-0.38695-0.10864-0.06736 0.0195-0.11936 0.0503-0.16852 0.0999-0.05651 0.057-0.0897 0.12443-0.1024 0.20799l-0.0015 0.01h-0.36848l6.4e-4 -0.75299 6.41e-4 -0.753 0.0052-0.0319c0.01461-0.0898 0.03464-0.15373 0.07207-0.22994 0.03925-0.0799 0.08416-0.14317 0.14464-0.20374 0.23141-0.23181 0.58146-0.29234 0.879-0.15199 0.14307 0.0675 0.26717 0.18501 0.34447 0.32622 0.03802 0.0695 0.06902 0.15804 0.08204 0.23441 0.01198 0.0703 0.01121 0.0208 0.01202 0.77292 4.34e-4 0.38253 4.96e-4 0.71702 1.1e-4 0.74331l-6.2e-4 0.0478zm-0.52993-1.0297c0.09806-0.0122 0.17841-0.0519 0.24475-0.12085 0.05635-0.0586 0.0923-0.13195 0.10363-0.21141 0.0031-0.022 0.0031-0.0805 0-0.10245-0.0059-0.0413-0.0237-0.0954-0.04272-0.12977-0.03282-0.0593-0.08718-0.11502-0.146-0.14963-0.08617-0.0507-0.19026-0.0672-0.29122-0.0461-0.04792 0.01-0.10748 0.0362-0.14853 0.0654-0.02785 0.0198-0.0721 0.0641-0.09135 0.0914-0.03087 0.0439-0.05329 0.096-0.06396 0.14887-0.0044 0.0217-0.0051 0.0324-5e-3 0.0722 1.1e-4 0.0393 9.09e-4 0.0504 0.0052 0.0706 0.02202 0.10369 0.08021 0.18998 0.16655 0.24696 0.05631 0.0372 0.11336 0.0574 0.18555 0.0657 0.01589 2e-3 0.06531 1e-3 0.08316-8.3e-4z" fill="#f7bd13" fill-rule="evenodd" stroke-linecap="round" stroke-linejoin="round" stroke-miterlimit="7.4" stroke-width=".020658" style="paint-order:markers fill stroke" gorn="0.2.0.0.0.0.0.0.7.0.0.0.0.0.0.0.2.0.0.0.0.0.0"/>
   <rect transform="rotate(-90)" x="-98.076" y="71.606" width=".004399" height=".0030821" fill="none" stroke-width="0" gorn="0.2.0.0.0.0.0.0.7.0.0.0.0.0.0.0.2.0.0.0.0.0.1"/>
   <path d="m67.124 99.496-0.20878-6.2e-4 -0.0014-8e-3c-0.01317-0.0817-0.04203-0.14357-0.09345-0.20034-0.09469-0.10455-0.25007-0.14817-0.38695-0.10864-0.06736 0.0195-0.11936 0.0503-0.16852 0.0999-0.05651 0.057-0.0897 0.12443-0.1024 0.20799l-0.0015 0.01h-0.36848l6.4e-4 -0.75299 6.41e-4 -0.753 0.0052-0.0319c0.0146-0.0898 0.03464-0.15373 0.07207-0.22994 0.03926-0.0799 0.08417-0.14317 0.14464-0.20374 0.23141-0.23181 0.58146-0.29234 0.879-0.15199 0.14307 0.0675 0.26717 0.18501 0.34447 0.32622 0.03802 0.0695 0.06902 0.15804 0.08204 0.23441 0.01198 0.0703 0.01121 0.0208 0.01202 0.77292 4.34e-4 0.38253 4.96e-4 0.71702 1.1e-4 0.74331l-6.2e-4 0.0478zm-0.52993-1.0297c0.09806-0.0122 0.17841-0.0519 0.24475-0.12085 0.05635-0.0586 0.0923-0.13195 0.10363-0.21141 0.0031-0.022 0.0031-0.0805 0-0.10245-0.0059-0.0413-0.0237-0.0954-0.04272-0.12977-0.03282-0.0593-0.08718-0.11502-0.146-0.14963-0.08617-0.0507-0.19026-0.0672-0.29122-0.0461-0.04792 0.01-0.10748 0.0362-0.14853 0.0654-0.02785 0.0198-0.0721 0.0641-0.09135 0.0914-0.03087 0.0439-0.05329 0.096-0.06396 0.14887-0.0044 0.0217-0.0051 0.0324-5e-3 0.0722 1.1e-4 0.0393 9.09e-4 0.0504 0.0052 0.0706 0.02202 0.10369 0.08021 0.18998 0.16655 0.24696 0.05631 0.0372 0.11336 0.0574 0.18555 0.0657 0.01589 2e-3 0.06531 1e-3 0.08316-8.3e-4z" fill="#f7bd13" fill-rule="evenodd" stroke-linecap="round" stroke-linejoin="round" stroke-miterlimit="7.4" stroke-width=".020658" style="paint-order:markers fill stroke" gorn="0.2.0.0.0.0.0.0.7.0.0.0.0.0.0.0.3"/>
   <rect x="66.794" y="98.396" width=".0030821" height=".004399" fill="none" stroke-width="0" gorn="0.2.0.0.0.0.0.0.7.0.0.0.0.0.0.0.4"/>
   <path d="m64.589 99.496-0.20878-6.2e-4 -0.0014-8e-3c-0.01317-0.0817-0.04203-0.14356-0.09345-0.20034-0.09469-0.10454-0.25007-0.14817-0.38695-0.10864-0.06735 0.0195-0.11936 0.0503-0.16852 0.0999-0.05651 0.057-0.0897 0.12443-0.1024 0.20799l-0.0015 0.01h-0.36848l6.4e-4 -0.75299 6.41e-4 -0.753 0.0052-0.0319c0.01461-0.0898 0.03464-0.15373 0.07207-0.22994 0.03925-0.0799 0.08416-0.14317 0.14464-0.20374 0.23141-0.23181 0.58146-0.29234 0.879-0.15199 0.14307 0.0675 0.26717 0.18501 0.34447 0.32622 0.03802 0.0695 0.06902 0.15804 0.08204 0.23441 0.01198 0.0703 0.01121 0.0208 0.01202 0.77292 4.34e-4 0.38253 4.96e-4 0.71702 1.1e-4 0.74332l-6.2e-4 0.0478zm-0.52993-1.0297c0.09806-0.0122 0.17841-0.0519 0.24475-0.12085 0.05635-0.0586 0.0923-0.13195 0.10363-0.21141 0.0031-0.022 0.0031-0.0805 0-0.10245-0.0059-0.0413-0.0237-0.0954-0.04272-0.12977-0.03282-0.0593-0.08718-0.11502-0.146-0.14963-0.08617-0.0507-0.19026-0.0672-0.29122-0.0461-0.04792 0.01-0.10748 0.0362-0.14853 0.0654-0.02785 0.0198-0.0721 0.0641-0.09135 0.0914-0.03087 0.0439-0.05329 0.096-0.06396 0.14887-0.0044 0.0217-0.0051 0.0324-5e-3 0.0722 1.1e-4 0.0393 9.09e-4 0.0504 0.0052 0.0706 0.02202 0.10369 0.08021 0.18998 0.16655 0.24696 0.05631 0.0372 0.11336 0.0574 0.18555 0.0657 0.01589 2e-3 0.06531 1e-3 0.08316-8.3e-4z" fill="#f7bd13" fill-rule="evenodd" stroke-linecap="round" stroke-linejoin="round" stroke-miterlimit="7.4" stroke-width=".020658" style="paint-order:markers fill stroke" gorn="0.2.0.0.0.0.0.0.7.0.0.0.0.0.0.0.5"/>
   <rect x="64.258" y="98.396" width=".0030821" height=".0043991" fill="none" stroke-width="0" gorn="0.2.0.0.0.0.0.0.7.0.0.0.0.0.0.0.6"/>
   <path d="m62.053 99.496-0.20878-6.2e-4 -0.0014-8e-3c-0.01317-0.0817-0.04203-0.14356-0.09345-0.20034-0.09469-0.10454-0.25007-0.14817-0.38695-0.10864-0.06735 0.0195-0.11936 0.0503-0.16852 0.0999-0.05651 0.057-0.0897 0.12443-0.1024 0.20799l-0.0015 0.01h-0.36848l6.4e-4 -0.75299 6.41e-4 -0.753 0.0052-0.0319c0.01461-0.0898 0.03464-0.15373 0.07207-0.22994 0.03925-0.0799 0.08416-0.14317 0.14464-0.20374 0.23141-0.23181 0.58146-0.29234 0.879-0.15199 0.14307 0.0675 0.26717 0.18501 0.34447 0.32622 0.03802 0.0695 0.06902 0.15804 0.08204 0.23441 0.01198 0.0703 0.0112 0.0208 0.01202 0.77292 4.34e-4 0.38253 4.96e-4 0.71702 1.1e-4 0.74332l-6.2e-4 0.0478zm-0.52993-1.0297c0.09806-0.0122 0.17841-0.0519 0.24475-0.12085 0.05635-0.0586 0.0923-0.13195 0.10363-0.21141 0.0031-0.022 0.0031-0.0805 0-0.10245-0.0059-0.0413-0.0237-0.0954-0.04272-0.12977-0.03282-0.0593-0.08718-0.11502-0.146-0.14963-0.08617-0.0507-0.19026-0.0672-0.29122-0.0461-0.04792 0.01-0.10748 0.0362-0.14853 0.0654-0.02785 0.0198-0.0721 0.0641-0.09135 0.0914-0.03087 0.0439-0.05329 0.096-0.06396 0.14887-0.0044 0.0217-0.0051 0.0324-5e-3 0.0722 1.1e-4 0.0393 9.09e-4 0.0504 0.0052 0.0706 0.02202 0.10369 0.08021 0.18998 0.16655 0.24696 0.05631 0.0372 0.11336 0.0574 0.18555 0.0657 0.01589 2e-3 0.06531 1e-3 0.08316-8.3e-4z" fill="#f7bd13" fill-rule="evenodd" stroke-linecap="round" stroke-linejoin="round" stroke-miterlimit="7.4" stroke-width=".020658" style="paint-order:markers fill stroke" gorn="0.2.0.0.0.0.0.0.7.0.0.0.0.0.0.0.7"/>
   <rect x="61.722" y="98.396" width=".0030821" height=".0043991" fill="none" stroke-width="0" gorn="0.2.0.0.0.0.0.0.7.0.0.0.0.0.0.0.8"/>
   <path d="m59.517 99.503-0.20878-6.2e-4 -0.0014-8e-3c-0.01317-0.0817-0.04203-0.14356-0.09345-0.20034-0.09469-0.10454-0.25007-0.14817-0.38695-0.10864-0.06736 0.0195-0.11936 0.0503-0.16852 0.0999-0.05651 0.057-0.0897 0.12443-0.1024 0.20799l-0.0015 0.01h-0.36848l6.4e-4 -0.75299 6.41e-4 -0.753 0.0052-0.0319c0.01461-0.0898 0.03464-0.15373 0.07207-0.22994 0.03925-0.0799 0.08416-0.14317 0.14464-0.20374 0.23141-0.23181 0.58146-0.29234 0.879-0.15199 0.14307 0.0675 0.26717 0.18501 0.34447 0.32622 0.03802 0.0695 0.06902 0.15804 0.08204 0.23441 0.01198 0.0703 0.0112 0.0208 0.01202 0.77292 4.34e-4 0.38253 4.96e-4 0.71702 1.1e-4 0.74332l-6.2e-4 0.0478zm-0.52993-1.0297c0.09806-0.0122 0.17841-0.0519 0.24475-0.12085 0.05635-0.0586 0.0923-0.13195 0.10363-0.21141 0.0031-0.022 0.0031-0.0805 0-0.10245-0.0059-0.0413-0.0237-0.0954-0.04272-0.12977-0.03282-0.0593-0.08718-0.11502-0.146-0.14963-0.08617-0.0507-0.19026-0.0672-0.29122-0.0461-0.04792 0.01-0.10748 0.0362-0.14853 0.0654-0.02785 0.0198-0.0721 0.0641-0.09135 0.0914-0.03087 0.0439-0.05329 0.096-0.06396 0.14887-0.0044 0.0217-0.0051 0.0324-5e-3 0.0722 1.1e-4 0.0393 9.09e-4 0.0504 0.0052 0.0706 0.02202 0.10369 0.08021 0.18998 0.16655 0.24696 0.05631 0.0372 0.11336 0.0574 0.18555 0.0657 0.01589 2e-3 0.06531 1e-3 0.08316-8.3e-4z" fill="#f7bd13" fill-rule="evenodd" stroke-linecap="round" stroke-linejoin="round" stroke-miterlimit="7.4" stroke-width=".020658" style="paint-order:markers fill stroke" gorn="0.2.0.0.0.0.0.0.7.0.0.0.0.0.0.0.9"/>
   <rect x="59.186" y="98.403" width=".0030821" height=".0043991" fill="none" stroke-width="0" gorn="0.2.0.0.0.0.0.0.7.0.0.0.0.0.0.0.10"/>
   <path d="m57.009 99.489-0.20878-6.2e-4 -0.0014-8e-3c-0.01317-0.0817-0.04203-0.14357-0.09345-0.20034-0.09469-0.10455-0.25007-0.14817-0.38695-0.10864-0.06735 0.0195-0.11936 0.0503-0.16852 0.0999-0.05651 0.057-0.0897 0.12443-0.1024 0.20799l-0.0015 0.01h-0.36848l6.4e-4 -0.75299 6.41e-4 -0.753 0.0052-0.0319c0.01461-0.0898 0.03464-0.15373 0.07207-0.22994 0.03925-0.0799 0.08416-0.14317 0.14464-0.20375 0.23141-0.2318 0.58146-0.29233 0.879-0.15198 0.14307 0.0675 0.26717 0.18501 0.34447 0.32622 0.03802 0.0695 0.06902 0.15804 0.08204 0.23441 0.01198 0.0703 0.01121 0.0208 0.01202 0.77291 4.34e-4 0.38253 4.96e-4 0.71703 1.1e-4 0.74332l-6.2e-4 0.0478zm-0.52993-1.0297c0.09806-0.0122 0.17841-0.0519 0.24475-0.12085 0.05635-0.0586 0.0923-0.13195 0.10363-0.21142 0.0031-0.022 0.0031-0.0805 0-0.10244-0.0059-0.0413-0.0237-0.0954-0.04272-0.12977-0.03282-0.0593-0.08718-0.11502-0.146-0.14964-0.08617-0.0507-0.19026-0.0672-0.29122-0.0461-0.04792 0.01-0.10748 0.0362-0.14853 0.0654-0.02785 0.0198-0.0721 0.0641-0.09135 0.0914-0.03087 0.0439-0.05329 0.096-0.06396 0.14888-0.0044 0.0217-0.0051 0.0324-5e-3 0.0722 1.1e-4 0.0393 9.09e-4 0.0504 0.0052 0.0706 0.02202 0.10369 0.08021 0.18998 0.16655 0.24696 0.05631 0.0372 0.11336 0.0574 0.18555 0.0657 0.01589 2e-3 0.06531 1e-3 0.08316-8.3e-4z" fill="#f7bd13" fill-rule="evenodd" stroke-linecap="round" stroke-linejoin="round" stroke-miterlimit="7.4" stroke-width=".020658" style="paint-order:markers fill stroke" gorn="0.2.0.0.0.0.0.0.7.0.0.0.0.0.0.0.11"/>
   <rect x="56.678" y="98.389" width=".0030821" height=".004399" fill="none" stroke-width="0" gorn="0.2.0.0.0.0.0.0.7.0.0.0.0.0.0.0.12"/>
   <path d="m59.556 81.407-0.20878 6.2e-4 -0.0014 0.0085c-0.01317 0.08169-0.04203 0.14356-0.09345 0.20034-0.09469 0.10455-0.25007 0.14817-0.38695 0.10864-0.06735-0.01946-0.11936-0.05027-0.16852-0.09986-0.05651-0.05701-0.0897-0.12443-0.1024-0.20799l-0.0015-0.0097h-0.36848l6.4e-4 0.753 6.41e-4 0.753 0.0052 0.03187c0.01461 0.08982 0.03464 0.15373 0.07207 0.22994 0.03925 0.07991 0.08416 0.14318 0.14464 0.20375 0.23141 0.23181 0.58146 0.29233 0.879 0.15199 0.14307-0.06749 0.26717-0.18501 0.34447-0.32622 0.03802-0.06945 0.06902-0.15803 0.08204-0.23441 0.01198-0.07025 0.0112-0.02077 0.01202-0.77292 4.34e-4 -0.38253 4.96e-4 -0.71702 1.1e-4 -0.74332l-6.2e-4 -0.04781zm-0.52993 1.0297c0.09806 0.01219 0.17841 0.05186 0.24475 0.12086 0.05635 0.05861 0.0923 0.13195 0.10363 0.21141 0.0031 0.02199 0.0031 0.08046 0 0.10245-0.0059 0.04131-0.0237 0.09541-0.04272 0.12977-0.03282 0.0593-0.08718 0.11502-0.146 0.14964-0.08617 0.05071-0.19026 0.06721-0.29122 0.04614-0.04792-0.01-0.10748-0.03623-0.14853-0.06542-0.02785-0.01981-0.0721-0.0641-0.09135-0.09145-0.03087-0.04385-0.05329-0.09604-0.06396-0.14888-0.0044-0.02169-0.0051-0.03245-5e-3 -0.07216 1.1e-4 -0.03934 9.09e-4 -0.05043 0.0052-0.07058 0.02202-0.10369 0.08021-0.18998 0.16655-0.24696 0.05631-0.03716 0.11336-0.05738 0.18555-0.06575 0.01589-0.0019 0.06531-0.0012 0.08316 8.26e-4z" fill="#f7bd13" fill-rule="evenodd" stroke-linecap="round" stroke-linejoin="round" stroke-miterlimit="7.4" stroke-width=".020658" style="paint-order:markers fill stroke" gorn="0.2.0.0.0.0.0.0.7.0.0.0.0.0.0.0.13"/>
   <rect x="58.782" y="82.504" width=".0030821" height=".0043991" fill="none" stroke-width="0" gorn="0.2.0.0.0.0.0.0.7.0.0.0.0.0.0.0.14"/>
   <path d="m57.034 81.407-0.20878 6.2e-4 -0.0014 0.0085c-0.01317 0.08169-0.04203 0.14356-0.09345 0.20034-0.09469 0.10455-0.25007 0.14817-0.38695 0.10864-0.06735-0.01946-0.11936-0.05027-0.16852-0.09986-0.05651-0.05701-0.0897-0.12443-0.1024-0.20799l-0.0015-0.0097h-0.36848l6.4e-4 0.753 6.41e-4 0.753 0.0052 0.03187c0.01461 0.08982 0.03464 0.15373 0.07207 0.22994 0.03925 0.07991 0.08416 0.14318 0.14464 0.20375 0.23141 0.23181 0.58146 0.29233 0.879 0.15199 0.14307-0.06749 0.26717-0.18501 0.34447-0.32622 0.03802-0.06945 0.06902-0.15803 0.08204-0.23441 0.01198-0.07025 0.0112-0.02077 0.01202-0.77292 4.34e-4 -0.38253 4.96e-4 -0.71702 1.1e-4 -0.74332l-6.2e-4 -0.04781zm-0.52993 1.0297c0.09806 0.01219 0.17841 0.05186 0.24475 0.12086 0.05635 0.05861 0.0923 0.13195 0.10363 0.21141 0.0031 0.02199 0.0031 0.08046 0 0.10245-0.0059 0.04131-0.0237 0.09541-0.04272 0.12977-0.03282 0.0593-0.08718 0.11502-0.146 0.14964-0.08617 0.05071-0.19026 0.06721-0.29122 0.04614-0.04792-0.01-0.10748-0.03623-0.14853-0.06542-0.02785-0.01981-0.0721-0.0641-0.09135-0.09145-0.03087-0.04385-0.05329-0.09604-0.06396-0.14888-0.0044-0.02169-0.0051-0.03245-5e-3 -0.07216 1.1e-4 -0.03934 9.09e-4 -0.05043 0.0052-0.07058 0.02202-0.10369 0.08021-0.18998 0.16655-0.24696 0.05631-0.03716 0.11336-0.05738 0.18555-0.06575 0.01589-0.0019 0.06531-0.0012 0.08316 8.26e-4z" fill="#f7bd13" fill-rule="evenodd" stroke-linecap="round" stroke-linejoin="round" stroke-miterlimit="7.4" stroke-width=".020658" style="paint-order:markers fill stroke" gorn="0.2.0.0.0.0.0.0.7.0.0.0.0.0.0.0.15"/>
   <rect x="56.26" y="82.504" width=".0030821" height=".0043991" fill="none" stroke-width="0" gorn="0.2.0.0.0.0.0.0.7.0.0.0.0.0.0.0.16"/>
   <path d="m62.078 81.407-0.20878 6.2e-4 -0.0014 0.0085c-0.01317 0.08169-0.04203 0.14356-0.09345 0.20034-0.09469 0.10455-0.25007 0.14817-0.38695 0.10864-0.06735-0.01946-0.11936-0.05027-0.16852-0.09986-0.05651-0.05701-0.0897-0.12443-0.1024-0.20799l-0.0015-0.0097h-0.36848l6.4e-4 0.753 6.41e-4 0.753 0.0052 0.03187c0.01461 0.08982 0.03464 0.15373 0.07207 0.22994 0.03925 0.07991 0.08416 0.14318 0.14464 0.20375 0.23141 0.23181 0.58146 0.29233 0.879 0.15199 0.14307-0.06749 0.26717-0.18501 0.34447-0.32622 0.03802-0.06945 0.06902-0.15803 0.08204-0.23441 0.01198-0.07025 0.01121-0.02077 0.01202-0.77292 4.34e-4 -0.38253 4.96e-4 -0.71702 1.1e-4 -0.74332l-6.2e-4 -0.04781zm-0.52993 1.0297c0.09806 0.01219 0.17841 0.05186 0.24475 0.12086 0.05635 0.05861 0.0923 0.13195 0.10363 0.21141 0.0031 0.02199 0.0031 0.08046 0 0.10245-0.0059 0.04131-0.0237 0.09541-0.04272 0.12977-0.03282 0.0593-0.08718 0.11502-0.146 0.14964-0.08617 0.05071-0.19026 0.06721-0.29122 0.04614-0.04792-0.01-0.10748-0.03623-0.14853-0.06542-0.02785-0.01981-0.0721-0.0641-0.09135-0.09145-0.03087-0.04385-0.05329-0.09604-0.06396-0.14888-0.0044-0.02169-0.0051-0.03245-5e-3 -0.07216 1.1e-4 -0.03934 9.09e-4 -0.05043 0.0052-0.07058 0.02202-0.10369 0.08021-0.18998 0.16655-0.24696 0.05631-0.03716 0.11336-0.05738 0.18555-0.06575 0.01589-0.0019 0.06531-0.0012 0.08316 8.26e-4z" fill="#f7bd13" fill-rule="evenodd" stroke-linecap="round" stroke-linejoin="round" stroke-miterlimit="7.4" stroke-width=".020658" style="paint-order:markers fill stroke" gorn="0.2.0.0.0.0.0.0.7.0.0.0.0.0.0.0.17"/>
   <rect x="61.304" y="82.504" width=".0030821" height=".0043991" fill="none" stroke-width="0" gorn="0.2.0.0.0.0.0.0.7.0.0.0.0.0.0.0.18"/>
   <path d="m64.6 81.407-0.20878 6.2e-4 -0.0014 0.0085c-0.01317 0.08169-0.04203 0.14356-0.09345 0.20034-0.09469 0.10455-0.25007 0.14817-0.38695 0.10864-0.06735-0.01946-0.11936-0.05027-0.16852-0.09986-0.05651-0.05701-0.0897-0.12443-0.1024-0.20799l-0.0015-0.0097h-0.36848l6.4e-4 0.753 6.41e-4 0.753 0.0052 0.03187c0.01461 0.08982 0.03464 0.15373 0.07207 0.22994 0.03925 0.07991 0.08416 0.14318 0.14464 0.20375 0.23141 0.23181 0.58146 0.29233 0.879 0.15199 0.14307-0.06749 0.26717-0.18501 0.34447-0.32622 0.03802-0.06945 0.06902-0.15803 0.08204-0.23441 0.01198-0.07025 0.01121-0.02077 0.01202-0.77292 4.34e-4 -0.38253 4.96e-4 -0.71702 1.1e-4 -0.74332l-6.2e-4 -0.04781zm-0.52993 1.0297c0.09806 0.01219 0.17841 0.05186 0.24475 0.12086 0.05635 0.05861 0.0923 0.13195 0.10363 0.21141 0.0031 0.02199 0.0031 0.08046 0 0.10245-0.0059 0.04131-0.0237 0.09541-0.04272 0.12977-0.03282 0.0593-0.08718 0.11502-0.146 0.14964-0.08617 0.05071-0.19026 0.06721-0.29122 0.04614-0.04792-0.01-0.10748-0.03623-0.14853-0.06542-0.02785-0.01981-0.0721-0.0641-0.09135-0.09145-0.03087-0.04385-0.05329-0.09604-0.06396-0.14888-0.0044-0.02169-0.0051-0.03245-5e-3 -0.07216 1.1e-4 -0.03934 9.09e-4 -0.05043 0.0052-0.07058 0.02202-0.10369 0.08021-0.18998 0.16655-0.24696 0.05631-0.03716 0.11336-0.05738 0.18555-0.06575 0.01589-0.0019 0.06531-0.0012 0.08316 8.26e-4z" fill="#f7bd13" fill-rule="evenodd" stroke-linecap="round" stroke-linejoin="round" stroke-miterlimit="7.4" stroke-width=".020658" style="paint-order:markers fill stroke" gorn="0.2.0.0.0.0.0.0.7.0.0.0.0.0.0.0.19"/>
   <rect x="63.826" y="82.504" width=".0030821" height=".0043991" fill="none" stroke-width="0" gorn="0.2.0.0.0.0.0.0.7.0.0.0.0.0.0.0.20"/>
   <path d="m67.122 81.407-0.20878 6.2e-4 -0.0014 0.0085c-0.01317 0.08169-0.04203 0.14356-0.09345 0.20034-0.09469 0.10455-0.25007 0.14817-0.38695 0.10864-0.06735-0.01946-0.11936-0.05027-0.16852-0.09986-0.05651-0.05701-0.0897-0.12443-0.1024-0.20799l-0.0015-0.0097h-0.36848l6.4e-4 0.753 6.41e-4 0.753 0.0052 0.03187c0.0146 0.08982 0.03464 0.15373 0.07207 0.22994 0.03926 0.07991 0.08416 0.14318 0.14464 0.20375 0.23141 0.23181 0.58146 0.29233 0.879 0.15199 0.14307-0.06749 0.26717-0.18501 0.34447-0.32622 0.03802-0.06945 0.06902-0.15803 0.08204-0.23441 0.01198-0.07025 0.01121-0.02077 0.01202-0.77292 4.34e-4 -0.38253 4.96e-4 -0.71702 1.1e-4 -0.74332l-6.2e-4 -0.04781zm-0.52993 1.0297c0.09806 0.01219 0.17841 0.05186 0.24475 0.12086 0.05635 0.05861 0.0923 0.13195 0.10363 0.21141 0.0031 0.02199 0.0031 0.08046 0 0.10245-0.0059 0.04131-0.0237 0.09541-0.04272 0.12977-0.03282 0.0593-0.08718 0.11502-0.146 0.14964-0.08617 0.05071-0.19026 0.06721-0.29122 0.04614-0.04792-0.01-0.10748-0.03623-0.14853-0.06542-0.02785-0.01981-0.0721-0.0641-0.09135-0.09145-0.03087-0.04385-0.05329-0.09604-0.06396-0.14888-0.0044-0.02169-0.0051-0.03245-5e-3 -0.07216 1.1e-4 -0.03934 9.09e-4 -0.05043 0.0052-0.07058 0.02202-0.10369 0.08022-0.18998 0.16655-0.24696 0.05631-0.03716 0.11336-0.05738 0.18555-0.06575 0.01589-0.0019 0.06532-0.0012 0.08316 8.26e-4z" fill="#f7bd13" fill-rule="evenodd" stroke-linecap="round" stroke-linejoin="round" stroke-miterlimit="7.4" stroke-width=".020658" style="paint-order:markers fill stroke" gorn="0.2.0.0.0.0.0.0.7.0.0.0.0.0.0.0.21"/>
   <rect x="66.348" y="82.504" width=".0030821" height=".0043991" fill="none" stroke-width="0" gorn="0.2.0.0.0.0.0.0.7.0.0.0.0.0.0.0.22"/>
   <path d="m69.644 81.407-0.20878 6.2e-4 -0.0014 0.0085c-0.01317 0.08169-0.04203 0.14356-0.09345 0.20034-0.09469 0.10455-0.25007 0.14817-0.38695 0.10864-0.06736-0.01946-0.11936-0.05027-0.16852-0.09986-0.05651-0.05701-0.0897-0.12443-0.1024-0.20799l-0.0015-0.0097h-0.36848l6.4e-4 0.753 6.41e-4 0.753 0.0052 0.03187c0.0146 0.08982 0.03464 0.15373 0.07207 0.22994 0.03926 0.07991 0.08417 0.14318 0.14464 0.20375 0.23141 0.23181 0.58146 0.29233 0.879 0.15199 0.14307-0.06749 0.26717-0.18501 0.34447-0.32622 0.03802-0.06945 0.06902-0.15803 0.08204-0.23441 0.01198-0.07025 0.01121-0.02077 0.01202-0.77292 4.34e-4 -0.38253 4.96e-4 -0.71702 1.1e-4 -0.74332l-6.2e-4 -0.04781zm-0.52993 1.0297c0.09806 0.01219 0.17841 0.05186 0.24475 0.12086 0.05635 0.05861 0.0923 0.13195 0.10363 0.21141 0.0031 0.02199 0.0031 0.08046 0 0.10245-0.0059 0.04131-0.0237 0.09541-0.04272 0.12977-0.03282 0.0593-0.08718 0.11502-0.146 0.14964-0.08617 0.05071-0.19026 0.06721-0.29122 0.04614-0.04792-0.01-0.10748-0.03623-0.14853-0.06542-0.02785-0.01981-0.0721-0.0641-0.09135-0.09145-0.03087-0.04385-0.05329-0.09604-0.06396-0.14888-0.0044-0.02169-0.0051-0.03245-5e-3 -0.07216 1.1e-4 -0.03934 9.09e-4 -0.05043 0.0052-0.07058 0.02202-0.10369 0.08021-0.18998 0.16655-0.24696 0.05631-0.03716 0.11336-0.05738 0.18555-0.06575 0.01589-0.0019 0.06531-0.0012 0.08316 8.26e-4z" fill="#f7bd13" fill-rule="evenodd" stroke-linecap="round" stroke-linejoin="round" stroke-miterlimit="7.4" stroke-width=".020658" style="paint-order:markers fill stroke" gorn="0.2.0.0.0.0.0.0.7.0.0.0.0.0.0.0.23"/>
   <rect x="69.852" y="82.504" width=".0030821" height=".0043991" fill="none" stroke-width="0" gorn="0.2.0.0.0.0.0.0.7.0.0.0.0.0.0.0.24"/>
   <path d="m72.166 81.407-0.20878 6.2e-4 -0.0014 0.0085c-0.01317 0.08169-0.04203 0.14356-0.09345 0.20034-0.09469 0.10455-0.25007 0.14817-0.38695 0.10864-0.06736-0.01946-0.11936-0.05027-0.16852-0.09986-0.05651-0.05701-0.0897-0.12443-0.1024-0.20799l-0.0015-0.0097h-0.36848l6.4e-4 0.753 6.41e-4 0.753 0.0052 0.03187c0.01461 0.08982 0.03464 0.15373 0.07207 0.22994 0.03925 0.07991 0.08416 0.14318 0.14464 0.20375 0.23141 0.23181 0.58146 0.29233 0.879 0.15199 0.14307-0.06749 0.26717-0.18501 0.34447-0.32622 0.03802-0.06945 0.06902-0.15803 0.08204-0.23441 0.01198-0.07025 0.01121-0.02077 0.01202-0.77292 4.34e-4 -0.38253 4.96e-4 -0.71702 1.1e-4 -0.74332l-6.2e-4 -0.04781zm-0.52993 1.0297c0.09806 0.01219 0.17841 0.05186 0.24475 0.12086 0.05635 0.05861 0.0923 0.13195 0.10363 0.21141 0.0031 0.02199 0.0031 0.08046 0 0.10245-0.0059 0.04131-0.0237 0.09541-0.04272 0.12977-0.03282 0.0593-0.08718 0.11502-0.146 0.14964-0.08617 0.05071-0.19026 0.06721-0.29122 0.04614-0.04792-0.01-0.10748-0.03623-0.14853-0.06542-0.02785-0.01981-0.0721-0.0641-0.09135-0.09145-0.03087-0.04385-0.05329-0.09604-0.06396-0.14888-0.0044-0.02169-0.0051-0.03245-5e-3 -0.07216 1.1e-4 -0.03934 9.09e-4 -0.05043 0.0052-0.07058 0.02202-0.10369 0.08021-0.18998 0.16655-0.24696 0.05631-0.03716 0.11336-0.05738 0.18555-0.06575 0.01589-0.0019 0.06531-0.0012 0.08316 8.26e-4z" fill="#f7bd13" fill-rule="evenodd" stroke-linecap="round" stroke-linejoin="round" stroke-miterlimit="7.4" stroke-width=".020658" style="paint-order:markers fill stroke" gorn="0.2.0.0.0.0.0.0.7.0.0.0.0.0.0.0.25"/>
   <rect x="71.392" y="82.504" width=".0030821" height=".0043991" fill="none" stroke-width="0" gorn="0.2.0.0.0.0.0.0.7.0.0.0.0.0.0.0.26"/>
  </g>
 </g>
 <g transform="translate(-142.55)" fill-rule="evenodd" stroke-linecap="round" stroke-linejoin="round" stroke-miterlimit="7.4">
  <rect x="316.72" y="809.27" width="84.705" height="84.705" ry="8.5166" fill="#fff" stroke-width="4.1338" style="paint-order:markers fill stroke" gorn="0.2.0.0.0.0.0.0.2.0.0.0.0.0.0.4"/>
  <g transform="matrix(39.37,0,0,39.37,-2166,-3074.1)" gorn="0.2.0.0.0.0.0.0.10">
   <circle cx="64.154" cy="99.732" r=".86529" fill="#f7bd13" stroke-width=".11597" style="paint-order:markers fill stroke" gorn="0.2.0.0.0.0.0.0.10.0"/>
   <circle cx="64.154" cy="99.732" r=".69165" fill="#fff" stroke-width=".092699" style="paint-order:markers fill stroke" gorn="0.2.0.0.0.0.0.0.10.1"/>
   <circle cx="64.154" cy="99.732" r=".18729" fill="#f7bd13" stroke-width=".025102" style="paint-order:markers fill stroke" gorn="0.2.0.0.0.0.0.0.10.2"/>
  </g>
 </g>
 <g fill-rule="evenodd" stroke-linecap="round" stroke-linejoin="round" stroke-miterlimit="7.4">
  <rect transform="rotate(90)" x="-.031726" y="-511.57" width="253.83" height="309.76" ry="22.946" fill="#ecebea" stroke-width="12.199" style="paint-order:markers fill stroke" gorn="0.2.0.0.0.0.0.0.4.0.0.0.0.0.0"/>
  <g transform="matrix(39.37,0,0,39.37,-2138.2,-3100.7)" fill="#808080" gorn="0.2.0.0.0.0.0.0.5.0.0.0.0.0.0">
   <rect x="60.87" y="84.575" width=".90118" height=".62205" ry="0" stroke-width=".012792" style="paint-order:markers fill stroke" gorn="0.2.0.0.0.0.0.0.5.0.0.0.0.0.0.0"/>
   <rect x="64.995" y="84.592" width=".8748" height=".60384" ry="0" stroke-width=".012418" style="paint-order:markers fill stroke" gorn="0.2.0.0.0.0.0.0.5.0.0.0.0.0.0.1"/>
   <rect x="61.377" y="83.209" width="1.4553" height=".47635" ry="0" stroke-width=".014225" style="paint-order:markers fill stroke" gorn="0.2.0.0.0.0.0.0.5.0.0.0.0.0.0.2"/>
   <rect x="63.907" y="83.209" width="1.4553" height=".47635" ry="0" stroke-width=".014225" style="paint-order:markers fill stroke" gorn="0.2.0.0.0.0.0.0.5.0.0.0.0.0.0.3"/>
  </g>
 </g>
 <text x="579.6886" y="523.77209" font-family="sans-serif" font-size="62.5px" stroke-width="5.3088" style="line-height:1.25" xml:space="preserve"><tspan x="358.46301" y="523.77209" font-size="62.5px" stroke-width="5.3088" text-align="center" text-anchor="middle">XIAO-ESP32-S3</tspan></text>
 <g transform="rotate(-90 591.81 130.67)" stroke-linecap="round" stroke-linejoin="round">
  <rect x="520.54" y="85.194" width="117.27" height="60.63" fill="#4d4d4d" stroke-width="34.063"/>
  <rect transform="rotate(90)" x="87.95" y="-617.32" width="55.118" height="76.292" ry="19.073" fill="#c4c0c0" fill-rule="evenodd" stroke-miterlimit="7.4" stroke-width="11.701" style="paint-order:markers fill stroke" gorn="0.2.0.0.0.0.0.0.0.0.0.0.0.0.0.0.50"/>
  <ellipse transform="rotate(90)" cx="115.51" cy="-579.18" rx="9.7739" ry="9.8425" fill="#333" fill-rule="evenodd" stroke-miterlimit="7.4" stroke-width="18.957" style="paint-order:markers fill stroke" gorn="0.2.0.0.0.0.0.0.0.0.0.0.0.0.0.0.52"/>
 </g>
 <g transform="rotate(180 563.69 239.24)">
  <rect x="529.58" y="237.55" width="42.874" height="20.555" fill="#cbcbcb" stroke-width="1.0004"/>
  <rect x="539.14" y="238.04" width="24.699" height="20.546" fill="#f9f9f9"/>
 </g>
 <g transform="rotate(180 344.29 239.24)">
  <rect x="529.58" y="237.56" width="42.856" height="20.546" fill="#cbcbcb"/>
  <rect x="539.14" y="238.04" width="24.699" height="20.546" fill="#f9f9f9"/>
 </g>
 <text x="38.528275" y="156.27013" font-family="sans-serif" font-size="72.916px" stroke-width="10.417" style="line-height:1.25" xml:space="preserve"><tspan x="38.528275" y="156.27013" fill="#f9f9f9" font-size="72.916px" font-weight="bold" stroke-width="10.417">R</tspan></text>
 <text x="627.15771" y="156.27013" font-family="sans-serif" font-size="72.916px" stroke-width="10.417" style="line-height:1.25" xml:space="preserve"><tspan x="627.15771" y="156.27013" fill="#f9f9f9" font-size="72.916px" font-weight="bold" stroke-width="10.417">B</tspan></text>
 <g transform="rotate(-90 372.28 350.2)" stroke-linecap="round" stroke-linejoin="round">
  <rect x="520.54" y="85.194" width="117.27" height="60.63" fill="#4d4d4d" stroke-width="34.063"/>
  <rect transform="rotate(90)" x="87.95" y="-617.32" width="55.118" height="76.292" ry="19.073" fill="#c4c0c0" fill-rule="evenodd" stroke-miterlimit="7.4" stroke-width="11.701" style="paint-order:markers fill stroke" gorn="0.2.0.0.0.0.0.0.0.0.0.0.0.0.0.0.50"/>
  <ellipse transform="rotate(90)" cx="115.51" cy="-579.18" rx="9.7739" ry="9.8425" fill="#333" fill-rule="evenodd" stroke-miterlimit="7.4" stroke-width="18.957" style="paint-order:markers fill stroke" gorn="0.2.0.0.0.0.0.0.0.0.0.0.0.0.0.0.52"/>
 </g>
 <g fill="#f7bd13" fill-rule="evenodd" stroke-linecap="round" stroke-linejoin="round" stroke-miterlimit="7.4" stroke-width="12">
  <rect x="306.53" y="791.65" width="12.711" height="29.081" style="paint-order:markers fill stroke" gorn="0.2.0.0.0.0.17"/>
  <rect x="326.18" y="791.65" width="12.711" height="29.081" style="paint-order:markers fill stroke" gorn="0.2.0.0.0.0.18"/>
  <rect x="345.82" y="791.65" width="12.711" height="29.081" style="paint-order:markers fill stroke" gorn="0.2.0.0.0.0.19"/>
  <rect x="365.47" y="791.65" width="12.711" height="29.081" style="paint-order:markers fill stroke" gorn="0.2.0.0.0.0.20"/>
  <rect x="385.12" y="791.65" width="12.711" height="29.081" style="paint-order:markers fill stroke" gorn="0.2.0.0.0.0.21"/>
  <rect x="404.76" y="791.65" width="12.711" height="29.081" style="paint-order:markers fill stroke" gorn="0.2.0.0.0.0.22"/>
  <rect x="424.41" y="791.65" width="12.711" height="29.081" style="paint-order:markers fill stroke" gorn="0.2.0.0.0.0.23"/>
  <rect x="444.06" y="791.65" width="12.711" height="29.081" style="paint-order:markers fill stroke" gorn="0.2.0.0.0.0.24"/>
  <rect x="463.7" y="791.65" width="12.711" height="29.081" style="paint-order:markers fill stroke" gorn="0.2.0.0.0.0.25"/>
  <rect x="483.35" y="791.65" width="12.711" height="29.081" style="paint-order:markers fill stroke" gorn="0.2.0.0.0.0.26"/>
  <rect x="502.99" y="791.65" width="12.711" height="29.081" style="paint-order:markers fill stroke" gorn="0.2.0.0.0.0.27"/>
  <rect x="522.64" y="791.65" width="12.711" height="29.081" style="paint-order:markers fill stroke" gorn="0.2.0.0.0.0.28"/>
  <rect x="542.29" y="791.65" width="12.711" height="29.081" style="paint-order:markers fill stroke" gorn="0.2.0.0.0.0.29"/>
  <rect x="561.93" y="791.65" width="12.711" height="29.081" style="paint-order:markers fill stroke" gorn="0.2.0.0.0.0.30"/>
  <rect x="306.57" y="873.48" width="12.711" height="29.081" style="paint-order:markers fill stroke" gorn="0.2.0.0.0.0.31"/>
  <rect x="326.22" y="873.48" width="12.711" height="29.081" style="paint-order:markers fill stroke" gorn="0.2.0.0.0.0.32"/>
  <rect x="345.87" y="873.48" width="12.711" height="29.081" style="paint-order:markers fill stroke" gorn="0.2.0.0.0.0.33"/>
  <rect x="365.51" y="873.48" width="12.711" height="29.081" style="paint-order:markers fill stroke" gorn="0.2.0.0.0.0.34"/>
  <rect x="385.16" y="873.48" width="12.711" height="29.081" style="paint-order:markers fill stroke" gorn="0.2.0.0.0.0.35"/>
  <rect x="404.8" y="873.48" width="12.711" height="29.081" style="paint-order:markers fill stroke" gorn="0.2.0.0.0.0.36"/>
  <rect x="424.45" y="873.48" width="12.711" height="29.081" style="paint-order:markers fill stroke" gorn="0.2.0.0.0.0.37"/>
  <rect x="444.1" y="873.48" width="12.711" height="29.081" style="paint-order:markers fill stroke" gorn="0.2.0.0.0.0.38"/>
  <rect x="463.74" y="873.48" width="12.711" height="29.081" style="paint-order:markers fill stroke" gorn="0.2.0.0.0.0.39"/>
  <rect x="483.39" y="873.48" width="12.711" height="29.081" style="paint-order:markers fill stroke" gorn="0.2.0.0.0.0.40"/>
  <rect x="503.04" y="873.48" width="12.711" height="29.081" style="paint-order:markers fill stroke" gorn="0.2.0.0.0.0.41"/>
  <rect x="522.68" y="873.48" width="12.711" height="29.081" style="paint-order:markers fill stroke" gorn="0.2.0.0.0.0.42"/>
  <rect x="542.33" y="873.48" width="12.711" height="29.081" style="paint-order:markers fill stroke" gorn="0.2.0.0.0.0.43"/>
  <rect x="561.97" y="873.48" width="12.711" height="29.081" style="paint-order:markers fill stroke" gorn="0.2.0.0.0.0.44"/>
 </g>
 <g>
  <path d="m293.14 820.93v58.557" fill="#fff" stroke="#fff" stroke-width="2.9398" gorn="0.2.0.0.0.0.45"/>
  <path d="m587.83 821.47v57.196" fill="#fff" stroke="#fff" stroke-width="2.9398" gorn="0.2.0.0.0.0.46"/>
  <rect x="304.09" y="824.62" width="271.38" height="43.504" fill="#363d3d" fill-rule="evenodd" stroke-linecap="round" stroke-linejoin="round" stroke-miterlimit="7.4" stroke-width="12" style="paint-order:markers fill stroke" gorn="0.2.0.0.0.0.47"/>
 </g>
</svg>
