<?xml version="1.0" encoding="UTF-8" standalone="no"?>
<!-- Created with Inkscape (http://www.inkscape.org/) -->

<svg
   width="44.94mm"
   height="44.31mm"
   viewBox="0 0 44.941574 44.316612"
   version="1.1"
   id="svg1"
   xml:space="preserve"
   inkscape:version="1.3 (0e150ed, 2023-07-21)"
   sodipodi:docname="board.svg"
   xmlns:inkscape="http://www.inkscape.org/namespaces/inkscape"
   xmlns:sodipodi="http://sodipodi.sourceforge.net/DTD/sodipodi-0.dtd"
   xmlns="http://www.w3.org/2000/svg"
   xmlns:svg="http://www.w3.org/2000/svg"><sodipodi:namedview
     id="namedview1"
     pagecolor="#ffffff"
     bordercolor="#666666"
     borderopacity="1.0"
     inkscape:showpageshadow="2"
     inkscape:pageopacity="0.0"
     inkscape:pagecheckerboard="0"
     inkscape:deskcolor="#d1d1d1"
     inkscape:document-units="mm"
     inkscape:zoom="4.577723"
     inkscape:cx="79.952413"
     inkscape:cy="87.379686"
     inkscape:window-width="1920"
     inkscape:window-height="1045"
     inkscape:window-x="0"
     inkscape:window-y="25"
     inkscape:window-maximized="0"
     inkscape:current-layer="layer1" /><defs
     id="defs1" /><g
     inkscape:label="Layer 1"
     inkscape:groupmode="layer"
     id="layer1"
     transform="translate(-58.753678,-75.438544)"><rect
       style="fill:#c7b366;fill-opacity:1;stroke:none;stroke-width:0.325161;paint-order:stroke markers fill"
       id="rect2-7"
       width="2.9415767"
       height="1.1234083"
       x="100.75368"
       y="95.284019"
       inkscape:transform-center-x="0.030249257"
       inkscape:transform-center-y="0.25779244"
       rx="0.70707852"
       ry="0.81377214" /><rect
       style="fill:#c7b366;fill-opacity:1;stroke:none;stroke-width:0.332519;paint-order:stroke markers fill"
       id="rect2-7-6"
       width="2.9415767"
       height="1.1748257"
       x="100.75368"
       y="97.842018"
       inkscape:transform-center-x="0.030249257"
       inkscape:transform-center-y="0.26959137"
       rx="0.70707852"
       ry="0.85101771" /><rect
       style="fill:#c7b366;fill-opacity:1;stroke:none;stroke-width:0.317633;paint-order:stroke markers fill"
       id="rect2-7-4"
       width="2.9415767"
       height="1.0719911"
       x="100.75368"
       y="102.93901"
       inkscape:transform-center-x="0.030249257"
       inkscape:transform-center-y="0.24599357"
       rx="0.70707852"
       ry="0.77652657" /><rect
       style="fill:#c7b366;fill-opacity:1;stroke:none;stroke-width:0.325161;paint-order:stroke markers fill"
       id="rect2-7-1"
       width="2.9415767"
       height="1.1234083"
       x="100.75368"
       y="100.39902"
       inkscape:transform-center-x="0.030249257"
       inkscape:transform-center-y="0.25779244"
       rx="0.70707852"
       ry="0.81377214" /><path
       id="rect1"
       style="opacity:1;fill:#0d4570;fill-opacity:1;stroke:none;stroke-width:0.241213;stroke-opacity:1;paint-order:stroke markers fill"
       d="m 61.054671,77.779749 c -0.133148,0 -0.240295,0.108138 -0.240295,0.242362 v 7.410917 a 2.3757193,2.3513759 0 0 1 2.230871,2.34611 2.3757193,2.3513759 0 0 1 -2.230871,2.341459 v 16.564363 a 1.4066212,1.4953761 0 0 1 0.0894,-0.008 1.4066212,1.4953761 0 0 1 1.406633,1.49552 1.4066212,1.4953761 0 0 1 -1.406633,1.49551 1.4066212,1.4953761 0 0 1 -0.0894,-0.008 v 8.13697 c 0,0.13423 0.107147,0.24184 0.240295,0.24184 h 7.454326 a 2.3757193,2.3513759 0 0 1 2.355411,-2.07377 2.3757193,2.3513759 0 0 1 2.358513,2.07377 h 2.219503 v -6.22081 H 86.39731 v 6.22081 h 3.821473 a 1.1683054,1.1237783 0 0 1 -0.08372,-0.41031 1.1683054,1.1237783 0 0 1 1.168404,-1.12344 1.1683054,1.1237783 0 0 1 1.168404,1.12344 1.1683054,1.1237783 0 0 1 -0.08372,0.41031 h 8.766909 c 0.13316,0 0.24029,-0.10761 0.24029,-0.24184 v -7.5768 a 2.3757193,2.3513759 0 0 1 -2.138367,-2.33474 2.3757193,2.3513759 0 0 1 2.138367,-2.33423 V 88.927389 a 1.1086684,1.2255676 0 0 1 -1.00149,-1.217497 1.1086684,1.2255676 0 0 1 1.00149,-1.21698 v -8.470801 c 0,-0.134224 -0.10713,-0.242362 -0.24029,-0.242362 h -7.178375 a 2.3757193,2.3513759 0 0 1 -2.34456,1.985925 2.3757193,2.3513759 0 0 1 -2.345077,-1.985925 h -16.69458 a 1.3919569,1.2952678 0 0 1 -1.391646,1.295011 1.3919569,1.2952678 0 0 1 -1.392163,-1.295011 z m 12.832292,2.366263 a 0.71595496,0.6980561 0 0 1 0.715718,0.698149 0.71595496,0.6980561 0 0 1 -0.715718,0.698149 0.71595496,0.6980561 0 0 1 -0.716235,-0.698149 0.71595496,0.6980561 0 0 1 0.716235,-0.698149 z m 15.262117,0.0088 a 0.71595496,0.6980561 0 0 1 0.715719,0.698149 0.71595496,0.6980561 0 0 1 -0.715719,0.697632 0.71595496,0.6980561 0 0 1 -0.716235,-0.697632 0.71595496,0.6980561 0 0 1 0.716235,-0.698149 z m -12.707234,0.0016 a 0.71595496,0.6980561 0 0 1 0.716235,0.698148 0.71595496,0.6980561 0 0 1 -0.716235,0.698149 0.71595496,0.6980561 0 0 1 -0.715719,-0.698149 0.71595496,0.6980561 0 0 1 0.715719,-0.698148 z m 5.062223,0.0124 a 0.71595496,0.6980561 0 0 1 0.715719,0.698149 0.71595496,0.6980561 0 0 1 -0.715719,0.698148 0.71595496,0.6980561 0 0 1 -0.716235,-0.698148 0.71595496,0.6980561 0 0 1 0.716235,-0.698149 z m 5.095813,0.0026 a 0.71595496,0.6980561 0 0 1 0.716235,0.698148 0.71595496,0.6980561 0 0 1 -0.716235,0.698149 0.71595496,0.6980561 0 0 1 -0.715719,-0.698149 0.71595496,0.6980561 0 0 1 0.715719,-0.698148 z m -7.63571,0.0047 a 0.71595496,0.6980561 0 0 1 0.715719,0.698148 0.71595496,0.6980561 0 0 1 -0.715719,0.698149 0.71595496,0.6980561 0 0 1 -0.716235,-0.698149 0.71595496,0.6980561 0 0 1 0.716235,-0.698148 z m 5.107699,0.01395 a 0.71595496,0.6980561 0 0 1 0.716235,0.698149 0.71595496,0.6980561 0 0 1 -0.716235,0.697632 0.71595496,0.6980561 0 0 1 -0.715719,-0.697632 0.71595496,0.6980561 0 0 1 0.715719,-0.698149 z" /><ellipse
       style="opacity:1;fill:none;stroke:#0d4570;stroke-width:0.929477;stroke-dasharray:none;stroke-opacity:1;paint-order:stroke markers fill"
       id="path1-7"
       cx="91.307785"
       cy="117.54388"
       rx="1.6815044"
       ry="1.7465398" /><ellipse
       style="opacity:1;fill:none;stroke:#0d4570;stroke-width:0.732636;stroke-dasharray:none;stroke-opacity:1;paint-order:stroke markers fill"
       id="path1-0"
       cx="60.864891"
       cy="108.18787"
       rx="1.744895"
       ry="1.8669364" /><ellipse
       style="opacity:1;fill:none;stroke:#0d4570;stroke-width:0.750818;stroke-dasharray:none;stroke-opacity:1;paint-order:stroke markers fill"
       id="path1-9"
       cx="101.44709"
       cy="87.762459"
       rx="1.6798406"
       ry="1.5405428" /><ellipse
       style="opacity:1;fill:none;stroke:#0d4570;stroke-width:0.732636;stroke-dasharray:none;stroke-opacity:1;paint-order:stroke markers fill"
       id="path1"
       cx="71.200699"
       cy="77.671799"
       rx="1.744895"
       ry="1.8669364" /><text
       xml:space="preserve"
       style="font-style:normal;font-weight:normal;font-size:1.00241px;line-height:1.25;font-family:sans-serif;fill:#ffffff;fill-opacity:1;stroke:none;stroke-width:0.0250604"
       x="72.71611"
       y="79.5"
       id="text10"><tspan
         sodipodi:role="line"
         id="tspan10"
         style="fill:#ffffff;fill-opacity:1;stroke-width:0.0250604"
         x="72.71611"
         y="79.5">GND</tspan></text><text
       xml:space="preserve"
       style="font-style:normal;font-weight:normal;font-size:1.00241px;line-height:1.25;font-family:sans-serif;fill:#ffffff;fill-opacity:1;stroke:none;stroke-width:0.0250604"
       x="98.697388"
       y="96.325203"
       id="text10-29"><tspan
         sodipodi:role="line"
         id="tspan10-7"
         style="fill:#ffffff;fill-opacity:1;stroke-width:0.0250604"
         x="98.697388"
         y="96.325203">GND</tspan></text><text
       xml:space="preserve"
       style="font-style:normal;font-weight:normal;font-size:1.00241px;line-height:1.25;font-family:sans-serif;fill:#ffffff;fill-opacity:1;stroke:none;stroke-width:0.0250604"
       x="98.740952"
       y="98.832207"
       id="text10-29-9"><tspan
         sodipodi:role="line"
         id="tspan10-7-9"
         style="fill:#ffffff;fill-opacity:1;stroke-width:0.0250604"
         x="98.740952"
         y="98.832207">VCC</tspan></text><text
       xml:space="preserve"
       style="font-style:normal;font-weight:normal;font-size:1.00241px;line-height:1.25;font-family:sans-serif;fill:#ffffff;fill-opacity:1;stroke:none;stroke-width:0.0250604"
       x="98.688087"
       y="101.35229"
       id="text10-29-1"><tspan
         sodipodi:role="line"
         id="tspan10-7-2"
         style="fill:#ffffff;fill-opacity:1;stroke-width:0.0250604"
         x="98.688087"
         y="101.35229">SDA</tspan></text><text
       xml:space="preserve"
       style="font-style:normal;font-weight:normal;font-size:1.00241px;line-height:1.25;font-family:sans-serif;fill:#ffffff;fill-opacity:1;stroke:none;stroke-width:0.0250604"
       x="98.813255"
       y="103.9981"
       id="text10-29-6"><tspan
         sodipodi:role="line"
         id="tspan10-7-5"
         style="fill:#ffffff;fill-opacity:1;stroke-width:0.0250604"
         x="98.813255"
         y="103.9981">SCL</tspan></text><path
       id="rect3"
       style="opacity:1;fill:#11244b;fill-opacity:1;stroke:none;stroke-width:0.922384;stroke-dasharray:none;stroke-opacity:1;paint-order:stroke markers fill"
       d="m 73.044603,79.891022 c -0.126977,0 -0.229194,0.104873 -0.229194,0.235152 v 1.49811 c 0,0.130279 0.102217,0.235151 0.229194,0.235151 h 1.625366 c 0.126979,0 0.229194,-0.104872 0.229194,-0.235151 v -1.49811 c 0,-0.130279 -0.102215,-0.235152 -0.229194,-0.235152 z m 0.839423,0.293939 a 0.66153796,0.66176562 0 0 1 0.661796,0.661853 0.66153796,0.66176562 0 0 1 -0.661796,0.661854 0.66153796,0.66176562 0 0 1 -0.66132,-0.661854 0.66153796,0.66176562 0 0 1 0.66132,-0.661853 z" /><ellipse
       style="opacity:1;fill:none;fill-opacity:1;stroke:#11244b;stroke-width:0.307085;stroke-dasharray:none;stroke-opacity:1;paint-order:stroke markers fill"
       id="path4"
       cx="76.437607"
       cy="80.865593"
       rx="0.88205576"
       ry="0.89157826" /><ellipse
       style="fill:none;fill-opacity:1;stroke:#11244b;stroke-width:0.307085;stroke-dasharray:none;stroke-opacity:1;paint-order:stroke markers fill"
       id="path4-3"
       cx="78.958466"
       cy="80.888054"
       rx="0.88205576"
       ry="0.89157826" /><ellipse
       style="fill:none;fill-opacity:1;stroke:#11244b;stroke-width:0.307085;stroke-dasharray:none;stroke-opacity:1;paint-order:stroke markers fill"
       id="path4-6"
       cx="81.487976"
       cy="80.871056"
       rx="0.88205576"
       ry="0.89157826" /><ellipse
       style="fill:none;fill-opacity:1;stroke:#000080;stroke-width:0.307085;stroke-dasharray:none;stroke-opacity:1;paint-order:stroke markers fill"
       id="path4-4"
       cx="84.076668"
       cy="80.873108"
       rx="0.88205576"
       ry="0.89157826" /><ellipse
       style="fill:none;fill-opacity:1;stroke:#11244b;stroke-width:0.307085;stroke-dasharray:none;stroke-opacity:1;paint-order:stroke markers fill"
       id="ellipse4"
       cx="84.076668"
       cy="80.873108"
       rx="0.88205576"
       ry="0.89157826" /><ellipse
       style="fill:none;fill-opacity:1;stroke:#11244b;stroke-width:0.307085;stroke-dasharray:none;stroke-opacity:1;paint-order:stroke markers fill"
       id="ellipse4-1"
       cx="86.606194"
       cy="80.869011"
       rx="0.88205576"
       ry="0.89157826" /><ellipse
       style="fill:none;fill-opacity:1;stroke:#11244b;stroke-width:0.307085;stroke-dasharray:none;stroke-opacity:1;paint-order:stroke markers fill"
       id="ellipse4-7"
       cx="89.139801"
       cy="80.866959"
       rx="0.88205576"
       ry="0.89157826" /><rect
       style="opacity:0.7;fill:none;fill-opacity:1;stroke:#ffffff;stroke-width:0.2;stroke-dasharray:none;stroke-opacity:1;paint-order:stroke markers fill"
       id="rect5"
       width="26.786551"
       height="30.912613"
       x="67.654083"
       y="82.324471" /><rect
       style="opacity:1;fill:#1a1a1a;fill-opacity:1;stroke:#1b2a36;stroke-width:0.584036;stroke-dasharray:none;stroke-opacity:1;paint-order:stroke markers fill"
       id="rect6"
       width="25.479284"
       height="25.396523"
       x="68.289406"
       y="83.13308"
       ry="0.073215365" /><path
       style="fill:#1b1919;fill-opacity:1;stroke:none;stroke-width:0.264583px;stroke-linecap:butt;stroke-linejoin:miter;stroke-opacity:1"
       d="m 68.204128,108.75385 25.656298,-0.008 -2.232218,3.91319 -21.067241,-0.16243 -2.457588,-3.79113 0.01906,0.0242"
       id="path7"
       sodipodi:nodetypes="cccccc" /><rect
       style="opacity:1;fill:#1a1a1a;fill-opacity:1;stroke:none;stroke-width:0.589;stroke-dasharray:none;stroke-opacity:1;paint-order:stroke markers fill"
       id="rect8"
       width="9.6115437"
       height="4.2565413"
       x="76.253204"
       y="112.01802" /><rect
       style="opacity:1;fill:#794310;fill-opacity:1;stroke:none;stroke-width:0.570532;stroke-dasharray:none;stroke-opacity:1;paint-order:stroke markers fill"
       id="rect9"
       width="1.4943168"
       height="3.8986678"
       x="75.670059"
       y="112.40538" /><rect
       style="fill:#794310;fill-opacity:1;stroke:none;stroke-width:0.534979;stroke-dasharray:none;stroke-opacity:1;paint-order:stroke markers fill"
       id="rect9-9"
       width="1.3872539"
       height="3.692457"
       x="84.74485"
       y="112.57306" /><text
       xml:space="preserve"
       style="font-style:normal;font-weight:normal;font-size:0.996927px;line-height:1.25;font-family:sans-serif;fill:#ffffff;fill-opacity:1;stroke:none;stroke-width:0.0249233"
       x="75.715248"
       y="79.5"
       id="text10-2"><tspan
         sodipodi:role="line"
         id="tspan10-3"
         style="fill:#ffffff;fill-opacity:1;stroke-width:0.0249233"
         x="75.715248"
         y="79.5">5V</tspan></text><text
       xml:space="preserve"
       style="font-style:normal;font-weight:normal;font-size:0.954289px;line-height:1.25;font-family:sans-serif;fill:#ffffff;fill-opacity:1;stroke:none;stroke-width:0.0238573"
       x="78.08989"
       y="79.5"
       id="text10-2-4"><tspan
         sodipodi:role="line"
         id="tspan10-3-5"
         style="fill:#ffffff;fill-opacity:1;stroke-width:0.0238573"
         x="78.08989"
         y="79.5">SCL</tspan></text><text
       xml:space="preserve"
       style="font-style:normal;font-weight:normal;font-size:1.00198px;line-height:1.25;font-family:sans-serif;fill:#ffffff;fill-opacity:1;stroke:none;stroke-width:0.0250496"
       x="80.846436"
       y="79.5"
       id="text10-2-4-6"><tspan
         sodipodi:role="line"
         id="tspan10-3-5-0"
         style="fill:#ffffff;fill-opacity:1;stroke-width:0.0250496"
         x="80.846436"
         y="79.5">SI</tspan></text><text
       xml:space="preserve"
       style="font-style:normal;font-weight:normal;font-size:0.954289px;line-height:1.25;font-family:sans-serif;fill:#ffffff;fill-opacity:1;stroke:none;stroke-width:0.0238573"
       x="83.136024"
       y="79.5"
       id="text10-2-4-8"><tspan
         sodipodi:role="line"
         id="tspan10-3-5-1"
         style="fill:#ffffff;fill-opacity:1;stroke-width:0.0238573"
         x="83.136024"
         y="79.5">RES</tspan></text><text
       xml:space="preserve"
       style="font-style:normal;font-weight:normal;font-size:0.978404px;line-height:1.25;font-family:sans-serif;fill:#ffffff;fill-opacity:1;stroke:none;stroke-width:0.0244603"
       x="85.817802"
       y="79.5"
       id="text10-2-4-1"><tspan
         sodipodi:role="line"
         id="tspan10-3-5-8"
         style="fill:#ffffff;fill-opacity:1;stroke-width:0.0244603"
         x="85.817802"
         y="79.5">D/C</tspan></text><text
       xml:space="preserve"
       style="font-style:normal;font-weight:normal;font-size:1.00198px;line-height:1.25;font-family:sans-serif;fill:#ffffff;fill-opacity:1;stroke:none;stroke-width:0.0250496"
       x="88.316963"
       y="79.5"
       id="text10-2-4-0"><tspan
         sodipodi:role="line"
         id="tspan10-3-5-08"
         style="fill:#ffffff;fill-opacity:1;stroke-width:0.0250496"
         x="88.316963"
         y="79.5">CS</tspan></text></g></svg>
