<!-- Graphics Contributed by Ricardo JL Rufino -->
<svg width="27.7mm" height="22.6mm" version="1.1" viewBox="0 0 27.7 22.6" xmlns="http://www.w3.org/2000/svg">
 <path d="m0 0v22.6h6.7v-0.488c0-0.61 0.491-1.1 1.1-1.1h12.8c0.61 0 1.1 0.491 1.1 1.1v0.488h5.98v-22.6z" fill="#0f4d7c"/>
 <rect x=".401" y="4.2" width="26.9" height="14.8"/>
 <rect x="1.46" y="5.27" width="24.8" height="12.4" fill="#262628"/>
 <g fill="#fff">
  <circle cx="2.02" cy="1.87" r="1.24" stroke="#c8ceda" stroke-width=".206"/>
  <circle cx="25.6" cy="1.87" r="1.24" stroke="#c8ceda" stroke-width=".206"/>
  <g stroke="#ecc98a" stroke-width=".304">
   <circle cx="10.1" cy="1.71" r=".706"/>
   <circle cx="12.6" cy="1.71" r=".706"/>
   <circle cx="15.1" cy="1.71" r=".706"/>
   <circle cx="17.7" cy="1.71" r=".706"/>
  </g>
  <g transform="matrix(.449 0 0 .449 -21.9 -29.9)" aria-label="GND">
   <path d="m70.1 74.6q-0.369 0.109-0.599 0.109-0.429 0-0.654-0.243t-0.225-0.63q0-0.367 0.233-0.61 0.235-0.243 0.599-0.243 0.313 0 0.486 0.142 0.176 0.142 0.176 0.375h-0.307q-0.0026-0.124-0.103-0.199-0.101-0.0749-0.251-0.0749-0.266 0-0.393 0.178-0.127 0.176-0.127 0.437 0 0.276 0.142 0.45 0.145 0.173 0.408 0.173 0.129 0 0.305-0.0413v-0.38h-0.326v-0.251h0.636z"/>
   <path d="m71.9 74.7h-0.434l-0.672-1.34v1.34h-0.289v-1.66h0.429l0.672 1.34v-1.34h0.295z"/>
   <path d="m73.1 74.3q0.142-0.15 0.142-0.439t-0.142-0.437q-0.142-0.15-0.413-0.15h-0.207v1.18h0.207q0.271 0 0.413-0.15zm0.447-0.439q0 0.38-0.23 0.607-0.227 0.225-0.633 0.225h-0.506v-1.66h0.506q0.413 0 0.638 0.227 0.225 0.225 0.225 0.602z"/>
  </g>
  <g transform="matrix(.449 0 0 .449 -21.9 -29.9)" aria-label="VCC">
   <path d="m76.1 73-0.62 1.66h-0.357l-0.605-1.66h0.333l0.457 1.31 0.46-1.31z"/>
   <path d="m77.6 74.2q-0.0181 0.243-0.212 0.398-0.191 0.155-0.455 0.155-0.186 0-0.328-0.0698-0.142-0.0724-0.225-0.194-0.0827-0.124-0.124-0.274-0.0388-0.15-0.0388-0.323 0-0.372 0.181-0.618 0.183-0.248 0.535-0.248 0.307 0 0.47 0.137 0.163 0.137 0.181 0.393h-0.3q-0.031-0.295-0.351-0.295-0.403 0-0.403 0.63 0 0.315 0.0956 0.47t0.305 0.155q0.152 0 0.238-0.0853 0.0878-0.0853 0.106-0.233z"/>
   <path d="m79.3 74.2q-0.0181 0.243-0.212 0.398-0.191 0.155-0.455 0.155-0.186 0-0.328-0.0698-0.142-0.0724-0.225-0.194-0.0827-0.124-0.124-0.274-0.0388-0.15-0.0388-0.323 0-0.372 0.181-0.618 0.183-0.248 0.535-0.248 0.307 0 0.47 0.137 0.163 0.137 0.181 0.393h-0.3q-0.031-0.295-0.351-0.295-0.403 0-0.403 0.63 0 0.315 0.0956 0.47t0.305 0.155q0.152 0 0.238-0.0853 0.0878-0.0853 0.106-0.233z"/>
  </g>
  <g transform="matrix(.449 0 0 .449 -21.9 -29.9)" aria-label="SCL">
   <path d="m81.6 74.2q0 0.171-0.109 0.289-0.106 0.119-0.253 0.171-0.145 0.0491-0.307 0.0491-0.266 0-0.447-0.145-0.181-0.147-0.181-0.403h0.313q0.0026 0.147 0.0878 0.225 0.0853 0.0775 0.233 0.0775 0.0878 0 0.165-0.0181 0.0775-0.0207 0.14-0.0749 0.062-0.0568 0.062-0.145 0-0.093-0.0724-0.152-0.0698-0.062-0.176-0.0853-0.106-0.0258-0.233-0.0594-0.124-0.0362-0.23-0.0749-0.106-0.0413-0.178-0.137-0.0698-0.0956-0.0698-0.24 0-0.222 0.189-0.357 0.189-0.137 0.416-0.137 0.256 0 0.426 0.121 0.173 0.119 0.173 0.359h-0.31q0-0.124-0.0827-0.183-0.0827-0.062-0.209-0.062-0.121 0-0.214 0.062-0.0904 0.0594-0.0904 0.173 0 0.0853 0.0698 0.142 0.0724 0.0543 0.178 0.0801 0.106 0.0232 0.23 0.062 0.127 0.0362 0.233 0.0801 0.106 0.0439 0.176 0.142 0.0724 0.0982 0.0724 0.24z"/>
   <path d="m83.3 74.2q-0.0181 0.243-0.212 0.398-0.191 0.155-0.455 0.155-0.186 0-0.328-0.0698-0.142-0.0724-0.225-0.194-0.0827-0.124-0.124-0.274-0.0388-0.15-0.0388-0.323 0-0.372 0.181-0.618 0.183-0.248 0.535-0.248 0.307 0 0.47 0.137 0.163 0.137 0.181 0.393h-0.3q-0.031-0.295-0.351-0.295-0.403 0-0.403 0.63 0 0.315 0.0956 0.47t0.305 0.155q0.152 0 0.238-0.0853 0.0878-0.0853 0.106-0.233z"/>
   <path d="m84.6 74.7h-1.05v-1.66h0.302v1.42h0.747z"/>
  </g>
  <g transform="matrix(.449 0 0 .449 -21.9 -29.9)" aria-label="SDA">
   <path d="m87 74.2q0 0.171-0.109 0.289-0.106 0.119-0.253 0.171-0.145 0.0491-0.307 0.0491-0.266 0-0.447-0.145-0.181-0.147-0.181-0.403h0.313q0.0026 0.147 0.0878 0.225 0.0853 0.0775 0.233 0.0775 0.0878 0 0.165-0.0181 0.0775-0.0207 0.14-0.0749 0.062-0.0568 0.062-0.145 0-0.093-0.0724-0.152-0.0698-0.062-0.176-0.0853-0.106-0.0258-0.233-0.0594-0.124-0.0362-0.23-0.0749-0.106-0.0413-0.178-0.137-0.0698-0.0956-0.0698-0.24 0-0.222 0.189-0.357 0.189-0.137 0.416-0.137 0.256 0 0.426 0.121 0.173 0.119 0.173 0.359h-0.31q0-0.124-0.0827-0.183-0.0827-0.062-0.209-0.062-0.121 0-0.214 0.062-0.0904 0.0594-0.0904 0.173 0 0.0853 0.0698 0.142 0.0724 0.0543 0.178 0.0801 0.106 0.0232 0.23 0.062 0.127 0.0362 0.233 0.0801 0.106 0.0439 0.176 0.142 0.0724 0.0982 0.0724 0.24z"/>
   <path d="m88.2 74.3q0.142-0.15 0.142-0.439t-0.142-0.437q-0.142-0.15-0.413-0.15h-0.207v1.18h0.207q0.271 0 0.413-0.15zm0.447-0.439q0 0.38-0.23 0.607-0.227 0.225-0.633 0.225h-0.506v-1.66h0.506q0.413 0 0.638 0.227 0.225 0.225 0.225 0.602z"/>
   <path d="m89.9 74.1-0.256-0.705-0.261 0.705zm0.553 0.623h-0.307l-0.15-0.385h-0.708l-0.145 0.385h-0.302l0.649-1.66h0.313z"/>
  </g>
 </g>
 <rect x="8.16" y="19.7" width="12" height="1.9" ry=".328" fill="#ba8239"/>
 <path d="m6.12 18.5c0.178 0.0225 1 0.368 1.48 0.515 0.192 0.0596 0.405 0.0658 0.581 0.162 0.117 0.0639 0.186 0.133 0.3 0.266v2.19h11.3v-2.19c0.113-0.133 0.182-0.202 0.3-0.266 0.177-0.0962 0.389-0.102 0.581-0.162 0.475-0.147 1.3-0.493 1.48-0.515h-8.08z"/>
 <rect x=".39" y="18.9" width="27" height=".634" fill="#737373" opacity=".467"/>
 <circle cx="2.02" cy="21" r="1.24" fill="#fff" stroke="#c8ceda" stroke-width=".206"/>
 <circle cx="25.6" cy="21" r="1.24" fill="#fff" stroke="#c8ceda" stroke-width=".206"/>
</svg>
