<?xml version="1.0" encoding="UTF-8"?>
<svg id="pico" class="diagram-part_diagramItem__ZeYe_ diagram-part_active__exoHi diagram-part_selectable__N65pi diagram-part_editMode__gIx0Q" width="79.371" height="200.32" overflow="visible" text-rendering="geometricprecision" style="left:0px;top:0px;transform:rotate(0deg);user-select:none" data-draggable="true" part="AnonymousModel@/parts/0" version="1.1" viewBox="0 0 826.78 2086.6" wokwi-controller="wokwi-pi-pico" xmlns="http://www.w3.org/2000/svg">
 <defs>
  <filter id="ledFilter" x="-.46154" y="-.46154" width="1.9231" height="1.9231">
   <feGaussianBlur stdDeviation="0.5"/>
  </filter>
 </defs>
 <path d="m189.18 194.42c19.292 0 34.987-15.695 34.987-35 0-19.306-15.695-34.986-34.987-34.986-19.291 0-34.986 15.694-34.986 34.986 0 19.291 15.695 35 34.986 35zm448.42 1846.5c19.292 0 34.986-15.694 34.986-35 0-19.305-15.694-35-34.986-35-19.306 0-35 15.694-35 35s15.694 35 35 35zm0-1846.5c19.292 0 34.986-15.695 34.986-35 0-19.306-15.694-34.986-34.986-34.986-19.306 0-35 15.694-35 34.986 0 19.291 15.694 35 35 35z" fill="none"/>
 <circle cx="189.18" cy="2005.9" r="34.986" fill="none"/>
 <path d="M826.768 215.778V149.36c-2.737 0-5.223-.82-7.514-1.986v70.375c2.291-1.167 4.777-1.972 7.514-1.972zm0 100V249.36c-2.737 0-5.223-.82-7.514-1.986v70.375c2.291-1.153 4.777-1.972 7.514-1.972zm0 100v-66.403c-2.737 0-5.223-.82-7.514-1.986v70.361c2.291-1.167 4.777-1.972 7.514-1.972zm0 99.986v-66.389c-2.737 0-5.223-.82-7.514-1.986v70.347c2.291-1.166 4.777-1.972 7.514-1.972zm0 100v-66.403c-2.737 0-5.223-.82-7.514-1.986v70.361c2.291-1.166 4.777-1.972 7.514-1.972zm0 100v-66.403c-2.737 0-5.223-.82-7.514-1.986v70.361c2.291-1.166 4.777-1.972 7.514-1.972zm0 100v-66.403c-2.737 0-5.223-.82-7.514-1.986v70.361c2.291-1.166 4.777-1.972 7.514-1.972zm0 100v-66.403c-2.737 0-5.223-.82-7.514-1.986v70.361c2.291-1.166 4.777-1.972 7.514-1.972zm0 100v-66.403c-2.737 0-5.223-.819-7.514-1.986v70.361c2.291-1.166 4.777-1.972 7.514-1.972zm0 100v-66.403c-2.737 0-5.223-.819-7.514-1.986v70.361c2.291-1.166 4.777-1.972 7.514-1.972zm0 100v-66.402c-2.737 0-5.223-.82-7.514-1.987v70.361c2.291-1.166 4.777-1.972 7.514-1.972zm0 100v-66.403c-2.737 0-5.223-.819-7.514-1.986v70.361c2.291-1.166 4.777-1.972 7.514-1.972zm0 100v-66.402c-2.737 0-5.223-.82-7.514-1.987v70.361c2.291-1.166 4.777-1.972 7.514-1.972zm0 100v-66.402c-2.737 0-5.223-.82-7.514-1.987v70.362c2.291-1.167 4.777-1.973 7.514-1.973zm0 100v-66.402c-2.737 0-5.223-.82-7.514-1.987v70.362c2.291-1.167 4.777-1.973 7.514-1.973zm0 100v-66.402c-2.737 0-5.223-.82-7.514-1.987v70.362c2.291-1.167 4.777-1.973 7.514-1.973zm0 100v-66.402c-2.737 0-5.223-.82-7.514-1.987v70.362c2.291-1.167 4.777-1.973 7.514-1.973zm0 100v-66.402c-2.737 0-5.223-.82-7.514-1.986v70.36c2.291-1.166 4.777-1.972 7.514-1.972zm0 99.986v-66.388c-2.737 0-5.223-.82-7.514-1.986v70.347c2.291-1.167 4.777-1.972 7.514-1.972zm0 33.598c-2.737 0-5.223-.82-7.514-1.986v21.903c0 5.43-4.403 9.847-9.848 9.847-42.016-.272-285.36-15.759-279.209 7.514H811.03c8.695 0 15.75-7.056 15.75-15.75v-21.528zM822.156 83.347l-5.791 5.778a9.814 9.814 0 012.889 6.958v21.64c2.291-1.167 4.777-1.987 7.514-1.987v-21.25a15.678 15.678 0 00-4.612-11.139zM17.362 2079.098a9.746 9.746 0 01-6.958-2.889l-5.792 5.778a15.714 15.714 0 0011.14 4.61H569.11c-10.134-24.118-506.178-7.499-551.748-7.499z" fill="#004e29"/>
 <path transform="scale(10.417)" d="m1.666 8.2793c-0.52262 0-0.94531 0.42403-0.94531 0.94531v2.0781c0.52262 0.26659 0.89258 0.79509 0.89258 1.4219 0 0.62659-0.36995 1.1571-0.89258 1.4238v6.7578c0.52262 0.26669 0.89258 0.79519 0.89258 1.4219 0 0.62659-0.36995 1.1552-0.89258 1.4219v6.7559c0.52262 0.26669 0.89258 0.79714 0.89258 1.4238 0 0.62659-0.36995 1.1552-0.89258 1.4219v6.7559c0.52262 0.26678 0.89258 0.79528 0.89258 1.4219 0 0.62669-0.36995 1.1552-0.89258 1.4219v6.7539c0.52262 0.26669 0.89258 0.79714 0.89258 1.4238 0 0.62659-0.36995 1.1552-0.89258 1.4219v6.7539c0.52262 0.26669 0.89258 0.79714 0.89258 1.4238 0 0.62659-0.36995 1.1552-0.89258 1.4219v6.7559c0.52262 0.26669 0.89258 0.79519 0.89258 1.4219 0 0.62659-0.36995 1.1552-0.89258 1.4219v6.7559c0.52262 0.26669 0.89258 0.79519 0.89258 1.4219 0 0.62659-0.36995 1.1571-0.89258 1.4238v6.7539c0.52262 0.26669 0.89258 0.79519 0.89258 1.4219 0 0.62659-0.36995 1.157-0.89258 1.4238v6.7539c0.52262 0.26669 0.89258 0.79714 0.89258 1.4238 0 0.62659-0.36995 1.1551-0.89258 1.4219v6.7539c0.52262 0.26669 0.89258 0.79714 0.89258 1.4238 0 0.62659-0.36995 1.1551-0.89258 1.4219v6.7539c0.52262 0.26668 0.89258 0.79714 0.89258 1.4238 0 0.62671-0.36995 1.1551-0.89258 1.4219v6.7559c0.52262 0.26669 0.89258 0.79519 0.89258 1.4219 0 0.62669-0.36995 1.157-0.89258 1.4238v6.7539c0.52262 0.26669 0.89258 0.79519 0.89258 1.4219 0 0.62669-0.36995 1.157-0.89258 1.4238v6.7539c0.52262 0.26669 0.89258 0.79714 0.89258 1.4238 0 0.62668-0.36995 1.1552-0.89258 1.4219v6.7539c0.52262 0.26669 0.89258 0.79714 0.89258 1.4238 0 0.62668-0.36995 1.1552-0.89258 1.4219v6.7539c0.52262 0.26668 0.89258 0.79714 0.89258 1.4238 0 0.62671-0.36995 1.1552-0.89258 1.4219v6.7559c0.52262 0.26669 0.89258 0.79519 0.89258 1.4219 0 0.62669-0.36995 1.1571-0.89258 1.4238v6.7539c0.52262 0.26669 0.89258 0.79519 0.89258 1.4219 0 0.62669-0.36995 1.1571-0.89258 1.4238v6.752c0.52262 0.26662 0.89258 0.79705 0.89258 1.4238 0 0.62659-0.36995 1.1551-0.89258 1.4219v2.1035c0 0.52128 0.42269 0.94532 0.94531 0.94532 27.982 0.01632 47.92 0.06816 76.039 0 0.52128 0 0.94531-0.4226 0.94531-0.94532v-2.1035c-0.52272-0.26669-0.89258-0.79519-0.89258-1.4219 0-0.62668 0.36986-1.1571 0.89258-1.4238v-6.752c-0.52272-0.26659-0.89258-0.79704-0.89258-1.4238 0-0.62659 0.36986-1.1552 0.89258-1.4219v-6.7559c-0.52272-0.26659-0.89258-0.79509-0.89258-1.4219 0-0.62659 0.36986-1.1552 0.89258-1.4219v-6.7559c-0.52272-0.26659-0.89258-0.79507-0.89258-1.4219 0-0.62659 0.36986-1.157 0.89258-1.4238v-6.7539c-0.52272-0.26669-0.89258-0.79519-0.89258-1.4219 0-0.62669 0.36986-1.1571 0.89258-1.4238v-6.7539c-0.52272-0.26669-0.89258-0.79519-0.89258-1.4219 0-0.62669 0.36986-1.1571 0.89258-1.4238v-6.7539c-0.52272-0.26678-0.89258-0.79714-0.89258-1.4238 0-0.62668 0.36986-1.1552 0.89258-1.4219v-6.7539c-0.52272-0.26678-0.89258-0.79714-0.89258-1.4238 0-0.62668 0.36986-1.1552 0.89258-1.4219v-6.7559c-0.52272-0.26678-0.89258-0.79517-0.89258-1.4219 0-0.62668 0.36986-1.1571 0.89258-1.4238v-6.7539c-0.52272-0.26678-0.89258-0.79528-0.89258-1.4219 0-0.62669 0.36986-1.1571 0.89258-1.4238v-6.7539c-0.52272-0.26678-0.89258-0.79528-0.89258-1.4219 0-0.62669 0.36986-1.1571 0.89258-1.4238v-6.7539c-0.52272-0.26678-0.89258-0.79724-0.89258-1.4238 0-0.62669 0.36986-1.1552 0.89258-1.4219v-6.7539c-0.52272-0.26669-0.89258-0.79714-0.89258-1.4238 0-0.62659 0.36986-1.1552 0.89258-1.4219v-6.7559c-0.52272-0.26669-0.89258-0.79519-0.89258-1.4219 0-0.62659 0.36986-1.1552 0.89258-1.4219v-6.7559c-0.52272-0.26669-0.89258-0.79519-0.89258-1.4219 0-0.62659 0.36986-1.1571 0.89258-1.4238v-6.7539c-0.52272-0.26669-0.89258-0.79519-0.89258-1.4219 0-0.62659 0.36986-1.1571 0.89258-1.4238v-6.7539c-0.52272-0.26669-0.89258-0.79519-0.89258-1.4219 0-0.62659 0.36986-1.1551 0.89258-1.4219v-6.7559c-0.52272-0.26669-0.89258-0.79519-0.89258-1.4219 0-0.62659 0.36986-1.157 0.89258-1.4238v-6.7559c-0.52272-0.26669-0.89258-0.79519-0.89258-1.4219 0-0.62659 0.36986-1.1552 0.89258-1.4219v-6.7578c-0.52272-0.26669-0.89258-0.79519-0.89258-1.4219 0-0.62659 0.36986-1.1552 0.89258-1.4219v-2.0801c0-0.52128-0.42259-0.94531-0.94531-0.94531h-76.039zm4.4199 2.8496c0.88003 0 1.5957 0.71567 1.5957 1.5957 0 0.87994-0.71567 1.5977-1.5957 1.5977s-1.5957-0.71772-1.5957-1.5977c0-0.88003 0.71567-1.5957 1.5957-1.5957zm67.199 0c0.88003 0 1.5957 0.71567 1.5957 1.5957 0 0.87994-0.71567 1.5977-1.5957 1.5977-0.87994 0-1.5957-0.71772-1.5957-1.5977 0-0.88003 0.71577-1.5957 1.5957-1.5957zm-55.123 0.81641c1.852 0 3.3574 1.5073 3.3574 3.3594 0 1.8519-1.5054 3.3594-3.3574 3.3594-1.8519 0-3.3594-1.5061-3.3594-3.3594 0-1.8534 1.5074-3.3594 3.3594-3.3594zm43.047 0c1.852 0 3.3594 1.5073 3.3594 3.3594 0 1.8519-1.5073 3.3594-3.3594 3.3594-1.8535 0-3.3594-1.5061-3.3594-3.3594 0-1.8534 1.506-3.3594 3.3594-3.3594zm-55.123 8.7852c0.88003 0 1.5957 0.71702 1.5957 1.5957 0 0.87994-0.71567 1.5957-1.5957 1.5957s-1.5957-0.71577-1.5957-1.5957c0-0.88003 0.71567-1.5957 1.5957-1.5957zm67.199 0c0.88003 0 1.5957 0.71567 1.5957 1.5957 0 0.87994-0.71567 1.5957-1.5957 1.5957-0.87994 0-1.5957-0.71577-1.5957-1.5957 0-0.88003 0.71577-1.5957 1.5957-1.5957zm-67.199 9.6016c0.88003 0 1.5957 0.71577 1.5957 1.5957 0 0.88003-0.71567 1.5957-1.5957 1.5957-0.88003 0-1.5957-0.71567-1.5957-1.5957 0-0.87994 0.71567-1.5957 1.5957-1.5957zm67.199 0c0.88003 0 1.5957 0.71577 1.5957 1.5957 0 0.88003-0.71567 1.5957-1.5957 1.5957-0.87994 0-1.5957-0.71567-1.5957-1.5957 0-0.87994 0.71577-1.5957 1.5957-1.5957zm-67.199 9.5996c0.88003 0 1.5957 0.71567 1.5957 1.5957 0 0.87994-0.71567 1.5957-1.5957 1.5957s-1.5957-0.71577-1.5957-1.5957c0-0.88003 0.71567-1.5957 1.5957-1.5957zm67.199 0c0.88003 0 1.5957 0.71567 1.5957 1.5957 0 0.87994-0.71567 1.5957-1.5957 1.5957-0.87994 0-1.5957-0.71577-1.5957-1.5957 0-0.88003 0.71577-1.5957 1.5957-1.5957zm-67.199 9.5977c0.88003 0 1.5957 0.71702 1.5957 1.5957 0 0.87994-0.71567 1.5957-1.5957 1.5957s-1.5957-0.71577-1.5957-1.5957c0-0.88003 0.71567-1.5957 1.5957-1.5957zm67.199 0c0.88003 0 1.5957 0.71567 1.5957 1.5957 0 0.87994-0.71567 1.5957-1.5957 1.5957-0.87994 0-1.5957-0.71577-1.5957-1.5957 0-0.88003 0.71577-1.5957 1.5957-1.5957zm-67.199 9.5996c0.88003 0 1.5957 0.71567 1.5957 1.5957 0 0.87994-0.71567 1.5977-1.5957 1.5977s-1.5957-0.71772-1.5957-1.5977c0-0.88003 0.71567-1.5957 1.5957-1.5957zm67.199 0c0.88003 0 1.5957 0.71567 1.5957 1.5957 0 0.87994-0.71567 1.5977-1.5957 1.5977-0.87994 0-1.5957-0.71772-1.5957-1.5977 0-0.88003 0.71577-1.5957 1.5957-1.5957zm-67.199 9.5996c0.88003 0 1.5957 0.71762 1.5957 1.5977 0 0.87994-0.71567 1.5957-1.5957 1.5957s-1.5957-0.71577-1.5957-1.5957c0-0.88003 0.71567-1.5977 1.5957-1.5977zm67.199 0c0.88003 0 1.5957 0.71762 1.5957 1.5977 0 0.87994-0.71567 1.5957-1.5957 1.5957-0.87994 0-1.5957-0.71577-1.5957-1.5957 0-0.88003 0.71577-1.5977 1.5957-1.5977zm-67.199 9.6016c0.88003 0 1.5957 0.71567 1.5957 1.5957 0 0.87994-0.71567 1.5957-1.5957 1.5957s-1.5957-0.71577-1.5957-1.5957c0-0.88003 0.71567-1.5957 1.5957-1.5957zm67.199 0c0.88003 0 1.5957 0.71567 1.5957 1.5957 0 0.87994-0.71567 1.5957-1.5957 1.5957-0.87994 0-1.5957-0.71577-1.5957-1.5957 0-0.88003 0.71577-1.5957 1.5957-1.5957zm-67.199 9.5996c0.88003 0 1.5957 0.71702 1.5957 1.5957 0 0.88003-0.71567 1.5957-1.5957 1.5957s-1.5957-0.71567-1.5957-1.5957c0-0.88003 0.71567-1.5957 1.5957-1.5957zm67.199 0c0.88003 0 1.5957 0.71567 1.5957 1.5957 0 0.88003-0.71567 1.5957-1.5957 1.5957-0.87994 0-1.5957-0.71567-1.5957-1.5957 0-0.88003 0.71577-1.5957 1.5957-1.5957zm-67.199 9.5996c0.88003 0 1.5957 0.71702 1.5957 1.5957 0 0.88003-0.71567 1.5957-1.5957 1.5957s-1.5957-0.71567-1.5957-1.5957c0-0.88003 0.71567-1.5957 1.5957-1.5957zm67.199 0c0.88003 0 1.5957 0.71567 1.5957 1.5957 0 0.88003-0.71567 1.5957-1.5957 1.5957-0.87994 0-1.5957-0.71567-1.5957-1.5957 0-0.88003 0.71577-1.5957 1.5957-1.5957zm-67.199 9.5996c0.88003 0 1.5957 0.71567 1.5957 1.5957s-0.71567 1.5977-1.5957 1.5977-1.5957-0.71763-1.5957-1.5977 0.71567-1.5957 1.5957-1.5957zm67.199 0c0.88003 0 1.5957 0.71567 1.5957 1.5957s-0.71567 1.5977-1.5957 1.5977c-0.87994 0-1.5957-0.71763-1.5957-1.5977s0.71577-1.5957 1.5957-1.5957zm-67.199 9.5996c0.88003 0 1.5957 0.71762 1.5957 1.5976s-0.71567 1.5957-1.5957 1.5957c-0.88003 0-1.5957-0.71568-1.5957-1.5957s0.71567-1.5976 1.5957-1.5976zm67.199 0c0.88003 0 1.5957 0.71762 1.5957 1.5976s-0.71567 1.5957-1.5957 1.5957c-0.87994 0-1.5957-0.71568-1.5957-1.5957s0.71577-1.5976 1.5957-1.5976zm-22.383 5.0059a1.8898 1.8898 0 0 1 1.8906 1.8906 1.8898 1.8898 0 0 1-1.8906 1.8887 1.8898 1.8898 0 0 1-1.8887-1.8887 1.8898 1.8898 0 0 1 1.8887-1.8906zm-9.9453 0.06445a1.8898 1.8898 0 0 1 1.8887 1.8906 1.8898 1.8898 0 0 1-1.8887 1.8906 1.8898 1.8898 0 0 1-1.8906-1.8906 1.8898 1.8898 0 0 1 1.8906-1.8906zm19.281 0.07422a1.8898 1.8898 0 0 1 1.8887 1.8906 1.8898 1.8898 0 0 1-1.8887 1.8887 1.8898 1.8898 0 0 1-1.8906-1.8887 1.8898 1.8898 0 0 1 1.8906-1.8906zm-54.152 4.457c0.88003 0 1.5957 0.71567 1.5957 1.5957s-0.71567 1.5957-1.5957 1.5957-1.5957-0.71567-1.5957-1.5957 0.71567-1.5957 1.5957-1.5957zm67.199 0c0.88003 0 1.5957 0.71567 1.5957 1.5957s-0.71567 1.5957-1.5957 1.5957c-0.87994 0-1.5957-0.71567-1.5957-1.5957s0.71577-1.5957 1.5957-1.5957zm-67.199 9.5996c0.88003 0 1.5957 0.71701 1.5957 1.5957 0 0.88003-0.71567 1.5957-1.5957 1.5957s-1.5957-0.71567-1.5957-1.5957 0.71567-1.5957 1.5957-1.5957zm67.199 0c0.88003 0 1.5957 0.71567 1.5957 1.5957s-0.71567 1.5957-1.5957 1.5957c-0.87994 0-1.5957-0.71567-1.5957-1.5957s0.71577-1.5957 1.5957-1.5957zm-67.199 9.5996c0.88003 0 1.5957 0.71701 1.5957 1.5957 0 0.88003-0.71567 1.5957-1.5957 1.5957s-1.5957-0.71567-1.5957-1.5957 0.71567-1.5957 1.5957-1.5957zm67.199 0c0.88003 0 1.5957 0.71567 1.5957 1.5957s-0.71567 1.5957-1.5957 1.5957c-0.87994 0-1.5957-0.71567-1.5957-1.5957s0.71577-1.5957 1.5957-1.5957zm-67.199 9.5996c0.88003 0 1.5957 0.71567 1.5957 1.5957 0 0.87993-0.71567 1.5957-1.5957 1.5957s-1.5957-0.71567-1.5957-1.5957 0.71567-1.5957 1.5957-1.5957zm67.199 0c0.88003 0 1.5957 0.71567 1.5957 1.5957s-0.71567 1.5957-1.5957 1.5957c-0.87994 0-1.5957-0.71567-1.5957-1.5957s0.71577-1.5957 1.5957-1.5957zm-67.199 9.5996c0.88003 0 1.5957 0.71762 1.5957 1.5976 0 0.87994-0.71567 1.5957-1.5957 1.5957-0.88003 0-1.5957-0.71568-1.5957-1.5957s0.71567-1.5976 1.5957-1.5976zm67.199 0c0.88003 0 1.5957 0.71762 1.5957 1.5976s-0.71567 1.5957-1.5957 1.5957c-0.87994 0-1.5957-0.71568-1.5957-1.5957s0.71577-1.5976 1.5957-1.5976zm-67.199 9.6016c0.88003 0 1.5957 0.71567 1.5957 1.5957 0 0.87994-0.71567 1.5957-1.5957 1.5957s-1.5957-0.71567-1.5957-1.5957 0.71567-1.5957 1.5957-1.5957zm67.199 0c0.88003 0 1.5957 0.71567 1.5957 1.5957s-0.71567 1.5957-1.5957 1.5957c-0.87994 0-1.5957-0.71567-1.5957-1.5957s0.71577-1.5957 1.5957-1.5957zm-67.199 9.5996c0.88003 0 1.5957 0.71567 1.5957 1.5957 0 0.87994-0.71567 1.5957-1.5957 1.5957s-1.5957-0.71567-1.5957-1.5957 0.71567-1.5957 1.5957-1.5957zm67.199 0c0.88003 0 1.5957 0.71567 1.5957 1.5957s-0.71567 1.5957-1.5957 1.5957c-0.87994 0-1.5957-0.71567-1.5957-1.5957s0.71577-1.5957 1.5957-1.5957zm-55.123 5.2812c1.852 0 3.3574 1.506 3.3574 3.3594 0 1.8534-1.5054 3.3594-3.3574 3.3594-1.8519 0-3.3594-1.506-3.3594-3.3594 0-1.8533 1.5074-3.3594 3.3594-3.3594zm43.047 0c1.852 0 3.3594 1.5061 3.3594 3.3594 0 1.8534-1.5073 3.3594-3.3594 3.3594-1.8535 0-3.3594-1.506-3.3594-3.3594 0-1.8533 1.506-3.3594 3.3594-3.3594zm-55.123 4.3164c0.88003 0 1.5957 0.71577 1.5957 1.5957 0 0.88003-0.71567 1.5976-1.5957 1.5976s-1.5957-0.71762-1.5957-1.5976c0-0.87994 0.71567-1.5957 1.5957-1.5957zm67.199 0c0.88003 0 1.5957 0.71577 1.5957 1.5957 0 0.88003-0.71567 1.5976-1.5957 1.5976-0.87994 0-1.5957-0.71762-1.5957-1.5976s0.71577-1.5957 1.5957-1.5957z" fill="#005a00" stroke-width=".096"/>
 <path d="M811.031 78.736H15.751C7.055 78.736 0 85.792 0 94.486v21.278c2.736 0 5.222.82 7.514 1.986V96.097c0-5.43 4.403-9.847 9.847-9.847h792.06a9.757 9.757 0 016.958 2.889l5.791-5.778c-2.86-2.861-6.791-4.625-11.139-4.625zM0 249.375v66.417c2.736 0 5.222.82 7.514 1.986v-70.375c-2.292 1.153-4.778 1.972-7.514 1.972zm0 100v66.403c2.736 0 5.222.82 7.514 1.986v-70.361c-2.292 1.167-4.778 1.972-7.514 1.972zm0 100v66.39c2.736 0 5.222.818 7.514 1.985v-70.347c-2.292 1.153-4.778 1.972-7.514 1.972zm0 99.986v66.403c2.736 0 5.222.82 7.514 1.986v-70.36c-2.292 1.151-4.778 1.97-7.514 1.97zm0 100v66.403c2.736 0 5.222.82 7.514 1.986v-70.36c-2.292 1.151-4.778 1.97-7.514 1.97zm0 100v66.403c2.736 0 5.222.82 7.514 1.986v-70.36c-2.292 1.151-4.778 1.97-7.514 1.97zm0 100v66.403c2.736 0 5.222.82 7.514 1.986v-70.36c-2.292 1.151-4.778 1.97-7.514 1.97zm0 100v66.403c2.736 0 5.222.82 7.514 1.986v-70.36c-2.292 1.151-4.778 1.97-7.514 1.97zm0 100v66.403c2.736 0 5.222.82 7.514 1.986v-70.36c-2.292 1.152-4.778 1.971-7.514 1.971zm0 100v66.403c2.736 0 5.222.82 7.514 1.986v-70.36c-2.292 1.152-4.778 1.971-7.514 1.971zm0 100v66.403c2.736 0 5.222.82 7.514 1.986v-70.36c-2.292 1.152-4.778 1.971-7.514 1.971zm0 100v66.403c2.736 0 5.222.82 7.514 1.987v-70.362c-2.292 1.153-4.778 1.973-7.514 1.973zm0 100.001v66.402c2.736 0 5.222.82 7.514 1.986v-70.36c-2.292 1.152-4.778 1.972-7.514 1.972zm0 99.999v66.403c2.736 0 5.222.82 7.514 1.987v-70.362c-2.292 1.153-4.778 1.973-7.514 1.973zm0 100.001v66.402c2.736 0 5.222.82 7.514 1.987v-70.362c-2.292 1.153-4.778 1.973-7.514 1.973zm0 100v66.402c2.736 0 5.222.82 7.514 1.987v-70.362c-2.292 1.153-4.778 1.973-7.514 1.973zm0 100v66.402c2.736 0 5.222.82 7.514 1.987v-70.362c-2.292 1.153-4.778 1.973-7.514 1.973zm0 100v66.389c2.736 0 5.222.82 7.514 1.986v-70.348c-2.292 1.153-4.778 1.973-7.514 1.973zM0 149.361v66.417c2.736 0 5.222.82 7.514 1.986v-70.389c-2.292 1.167-4.778 1.986-7.514 1.986zM4.611 2082l5.792-5.777a9.814 9.814 0 01-2.89-6.958v-21.89c-2.29 1.167-4.777 1.987-7.513 1.987v21.528c0 4.319 1.764 8.264 4.611 11.11z" fill="#33865f"/>
 <g fill="none" stroke="#fcee21" stroke-width="27.778">
  <circle cx="189.18" cy="2005.9" r="48.875"/>
  <circle cx="637.59" cy="2005.9" r="48.875"/>
  <circle cx="189.18" cy="159.42" r="48.875"/>
  <circle cx="637.59" cy="159.42" r="48.875"/>
 </g>
 <path d="m288.91 844.42h277.42v277.42h-277.42z" fill="#30312e"/>
 <path d="M543.308 236.236H283.46a7.878 7.878 0 01-7.875-7.875V34.806a7.878 7.878 0 017.875-7.875h259.848a7.878 7.878 0 017.875 7.875V228.36a7.878 7.878 0 01-7.875 7.875z" fill="#363a44"/>
 <path d="M295.32 0a7.893 7.893 0 00-7.54 5.597l-4.32 14.306-7.875 7.875V228.36a7.878 7.878 0 007.875 7.875h48.055a3.927 3.927 0 003.931-3.93v-11.5a7.858 7.858 0 00-4.097-6.903l-26.75-14.611a7.858 7.858 0 01-4.098-6.903v-11.486h17.473v-13.264h27v13.236h15.889v27.375a7.878 7.878 0 007.875 7.875h12.778V201.93h63.736v14.194h12.778a7.878 7.878 0 007.875-7.875v-27.375h15.889V167.64h27v13.236h17.472v11.486a7.858 7.858 0 01-4.097 6.903l-26.75 14.625a7.858 7.858 0 00-4.097 6.903v11.5c0 2.18 1.764 3.93 3.93 3.93h48.056a7.878 7.878 0 007.875-7.875V27.777l-7.875-7.874-4.32-14.306A7.893 7.893 0 00531.448 0z" fill="#ccc"/>
 <path d="M284.224 40.042c-3.459-4.611-6.973-9.264-10.126-14.584-3.222-5.264-5.555-11.541-6.68-17.416l-.028-.18a4.699 4.699 0 013.736-5.515c2.375-.458 4.68.972 5.39 3.222 3.11 10.042 10.25 17.223 18.221 25.375 2.709 2.723 2.695 7.14-.027 9.848-2.723 2.708-7.14 2.694-9.848 0-.208-.209-.458-.5-.639-.723zm247.82-9.098c7.986-8.152 15.111-15.333 18.222-25.375a4.711 4.711 0 015.903-3.097 4.736 4.736 0 013.236 5.375l-.041.195c-1.14 5.86-3.459 12.152-6.681 17.416-3.153 5.32-6.667 9.973-10.125 14.584-2.306 3.07-6.667 3.694-9.75 1.389a6.97 6.97 0 01-1.389-9.75c.167-.237.417-.528.625-.737zM371.946 1471.931H269.585a7.878 7.878 0 01-7.875-7.875v-62.986a7.878 7.878 0 017.875-7.875h102.361a7.878 7.878 0 017.875 7.875v62.986a7.878 7.878 0 01-7.875 7.875z" fill="#ccc"/>
 <path d="m225.01 872.27c-150.01-581.51-75.003-290.76 0 0zm348.95-429.87v98.431h-98.431v-98.431zm102.66-170.31v98.431h-59.056v-98.431z" fill="#2a2d2e"/>
 <path d="M223.501 456.042h102.362a7.878 7.878 0 017.875 7.875v141.736a7.878 7.878 0 01-7.875 7.875H223.5a7.878 7.878 0 01-7.875-7.875V463.917a7.878 7.878 0 017.875-7.875z" fill="#ccc"/>
 <path d="m274.68 465.89c27.18 0 49.208 22.028 49.208 49.208v39.375c0 27.181-22.028 49.209-49.208 49.209s-49.209-22.028-49.209-49.209v-39.375c0-27.18 22.028-49.208 49.209-49.208zm-59.056-1.972v14.791c0 7.014 8.486 10.528 13.444 5.57l14.792-14.792c4.959-4.958 1.445-13.444-5.57-13.444h-14.791a7.878 7.878 0 0 0-7.875 7.875zm110.24-7.875h-14.793c-7.014 0-10.528 8.486-5.57 13.444l14.792 14.792c4.958 4.958 13.445 1.444 13.445-5.57v-14.791a7.878 7.878 0 0 0-7.875-7.875z" fill="#fff"/>
 <path d="M333.738 605.236v-14.791c0-7.014-8.487-10.528-13.445-5.57l-14.792 14.792c-4.958 4.958-1.444 13.444 5.57 13.444h14.792a7.878 7.878 0 007.875-7.875zm-110.237 7.875h14.792c7.014 0 10.528-8.486 5.57-13.444l-14.793-14.792c-4.958-4.958-13.444-1.444-13.444 5.57v14.791a7.878 7.878 0 007.875 7.875z" fill="#fff"/>
 <path d="M607.725 532.959v-82.681a7.878 7.878 0 017.875-7.875h62.986a7.878 7.878 0 017.875 7.875v82.68a7.878 7.878 0 01-7.875 7.876H615.6a7.878 7.878 0 01-7.875-7.875z" fill="#2a2d2e"/>
 <g transform="translate(160 248) scale(20)" fill="#eee">
  <rect width="2.6" height="1.2" fill="#c6c6c6"/>
  <rect x=".6" y="-.1" width="1.35" height="1.4" stroke="#aaa" stroke-width=".05"/>
  <circle cx="1.3" cy=".55" r="1.3" fill="#90ff00" filter="url(#ledFilter)" opacity="0"/>
 </g>
 <path d="M0 1937.805h826.781v46.861H0z" fill="none"/>
 <text transform="rotate(-90)" fill="#fff" font-size="38.889" stroke-width="13.889"><tspan x="-657.542" y="188">B</tspan><tspan x="-622.487" y="188">O</tspan><tspan x="-581.547" y="188">O</tspan><tspan x="-542.058" y="188">T</tspan><tspan x="-512.442" y="188">S</tspan><tspan x="-482.351" y="188">E</tspan><tspan x="-451.827" y="188">L</tspan></text>
 <text fill="#fff" font-size="38.889" stroke-width="13.889"><tspan x="140.174" y="321.297">L</tspan><tspan x="168.916" y="321.297">E</tspan><tspan x="199.439" y="321.297">D</tspan><tspan x="96.514" y="149.182">1</tspan><tspan x="96.514" y="249.198">2</tspan><tspan x="672.642" y="249.198">3</tspan><tspan x="704.279" y="249.198">9</tspan><tspan x="361.413" y="321.297">U</tspan><tspan x="400.218" y="321.297">S</tspan><tspan x="430.315" y="321.297">B</tspan></text>
 <path d="m115.67 672.5h87.084v1242.9h-87.084z" fill="none"/>
 <text x="14.226282" y="-99.54718" fill="#3d3f38" font-size="24.445px" stroke-width="13.889"><tspan x="311.88528" y="1067.4528">R</tspan><tspan x="331.1593" y="1067.4528">P</tspan><tspan x="351.14529" y="1067.4528">2</tspan><tspan x="369.28528" y="1067.4528">-</tspan><tspan x="379.91928" y="1067.4528">8</tspan><tspan x="398.0603" y="1067.4528">0</tspan><tspan x="456.4173" y="1067.4528">2</tspan><tspan x="474.5513" y="1067.4528">0</tspan><tspan x="492.69226" y="1067.4528">/</tspan><tspan x="507.06924" y="1067.4528">2</tspan><tspan x="525.21124" y="1067.4528">1</tspan><tspan x="311.4783" y="1101.4528">P</tspan><tspan x="331.47128" y="1101.4528">6</tspan><tspan x="349.60529" y="1101.4528">4</tspan><tspan x="367.74628" y="1101.4528">M</tspan><tspan x="393.87628" y="1101.4528">1</tspan><tspan x="412.01727" y="1101.4528">5</tspan><tspan x="430.15128" y="1101.4528">.</tspan><tspan x="441.2533" y="1101.4528">0</tspan><tspan x="459.3873" y="1101.4528">0</tspan><tspan x="486.98828" y="1101.4528">T</tspan><tspan x="506.18124" y="1101.4528">T</tspan><tspan x="525.38025" y="1101.4528">T</tspan></text>
 <path d="m476.31 953.74-1.166-1.736c0-13.347-6.098-18.57-13.348-22.639 2.028-0.583 4.348-1.167 4.931-3.778 3.778-0.875 4.347-2.611 4.93-4.347 0.876-0.583 4.348-2.611 3.778-5.514 1.737-1.167 2.903-2.903 2.32-5.222 2.028-2.028 2.611-3.778 1.736-5.514 2.32-2.903 1.444-4.347 0.292-6.097 1.736-3.195 0.291-6.68-4.64-6.097-2.027-2.903-6.097-2.32-6.958-2.32-0.875-0.875-1.736-1.736-4.639-1.444-2.027-1.736-4.055-1.445-6.388-0.584-2.612-2.027-4.348-0.291-6.39 0.292-3.194-1.167-4.055 0.292-5.513 0.875-3.486-0.875-4.64 0.875-6.39 2.611h-2.027c-5.222 3.195-7.833 9.292-9 12.472-0.875-3.194-3.486-9.57-9-12.472h-2.028c-1.736-1.736-2.611-3.194-6.389-2.611-1.444-0.583-2.32-2.028-5.514-0.875-1.444-0.292-2.61-1.167-4.055-1.167-0.875 0-1.445 0.292-2.611 0.875-2.32-0.875-4.348-1.166-6.39 0.584-2.902-0.292-4.055 0.291-4.638 1.444-0.584 0-4.93-0.583-6.959 2.32-4.93-0.584-6.388 2.902-4.638 6.097-0.875 1.444-2.028 2.902 0.291 6.097-0.875 1.736-0.291 3.486 1.736 5.514-0.583 2.32 0.584 3.778 2.32 5.222-0.292 3.194 2.903 4.93 3.778 5.514 0.291 1.736 1.166 3.486 4.93 4.347 0.583 2.611 2.903 3.195 4.93 3.778-7.25 4.056-13.347 9.57-13.347 22.639l-1.166 1.736c-8.125 4.93-15.667 20.597-4.056 33.653 0.875 4.055 2.028 6.958 3.195 10.153 1.736 12.763 12.764 18.86 15.666 19.736 4.348 3.194 8.709 6.097 14.792 8.416 5.806 5.806 11.903 8.125 18.278 8.125h0.292c6.389 0 12.472-2.32 18.277-8.125 6.098-2.027 10.737-5.222 14.792-8.416 2.903-0.584 13.93-6.68 15.667-19.736 1.167-3.195 2.32-6.098 3.194-10.153 12.792-13.056 5.542-28.722-2.875-33.653zm-6.083-2.32c-0.292 5.223-28.153-18.569-23.5-19.444 13.042-2.028 23.778 5.514 23.5 19.444zm-12.486 26.403c-6.958 4.64-17.125 1.736-22.347-6.389-5.514-8.125-4.056-18.277 2.902-22.916 6.959-4.64 17.125-1.736 22.348 6.389 5.514 8.416 4.07 18.569-2.903 22.916zm-19.153-82.11c0.292 1.166 0.583 2.027 0.875 2.027 1.444-1.736 2.903-3.486 4.639-4.93 0 0.874-0.583 2.027 0.583 2.61 1.167-1.444 2.611-2.61 4.348-3.777-0.875 1.444-0.292 2.028 0.291 2.61 1.445-1.166 2.903-2.61 5.514-3.485-0.875 0.875-1.736 1.736-0.583 2.903 1.444-0.875 2.903-1.737 6.68-2.612-0.875 0.875-2.61 1.737-1.444 2.612 2.028-0.584 4.055-1.167 6.389-1.445-1.167 0.875-2.028 1.736-1.167 2.611 2.028-0.583 4.93-1.444 7.542-0.875l-1.736 1.736c-0.292 0.292 4.055 0.292 6.68 0.292-0.875 1.444-2.027 2.903-2.61 5.222 0.29 0.292 1.735 0 2.902 0-1.444 2.903-3.778 3.486-4.056 4.639 0.875 0.583 2.028 0.583 3.195 0-0.875 2.028-2.903 3.195-4.64 4.93 0.293 0.292 1.168 0.584 2.904 0.292-1.445 1.445-3.195 2.903-5.223 4.348 0.292 0.291 1.737 0.291 2.903 0.583-2.028 1.736-4.347 2.903-6.68 4.055 1.166 0.875 2.027 0.584 2.902 0.584-1.736 1.444-4.347 2.028-6.958 2.903 0.583 0.875 0.875 0.875 2.028 1.166-2.611 1.445-6.68 0.875-7.833 1.445 0.291 0.875 0.875 1.166 2.027 1.736-4.347 0.291-16.25-0.292-18.57-9.292 4.348-4.93 12.765-10.736 26.695-17.694-11.027 3.777-20.889 8.416-29.014 15.375-10.18-4.611-3.514-15.93 1.417-20.57zm-9.861 32.79c6.958 0 15.375 4.931 15.375 9.862 0 4.347-6.097 7.833-15.375 7.542-9.292 0-15.375-4.348-15.375-8.417 0-3.486 7.541-9.278 15.375-8.986zm-35.111-3.777c1.166-0.292 1.444-0.292 2.027-1.167-2.61-0.875-5.222-1.444-6.958-2.902 0.875 0 1.736 0.291 2.903-0.584-2.32-1.166-4.64-2.32-6.68-4.055 1.166 0 2.61 0 2.902-0.584-2.028-1.166-3.778-2.61-5.222-4.347 1.736 0.292 2.32 0 2.903-0.292-1.445-1.736-3.487-2.902-4.64-4.93 1.167 0.292 2.32 0.583 3.195 0-0.583-1.167-2.903-2.028-4.055-4.639 1.166 0 2.61 0.292 2.902 0-0.583-2.32-1.736-3.778-2.61-5.222 2.902 0 6.958 0 6.68-0.292l-1.736-1.736c2.61-0.583 5.514 0 7.541 0.875 0.875-0.583 0-1.444-1.166-2.611 2.32 0.292 4.347 0.875 6.389 1.444 0.875-0.875-0.584-1.736-1.445-2.61 3.486 0.583 5.222 1.735 6.68 2.61 1.167-1.166 0-2.027-0.583-2.902 2.612 0.875 4.056 2.32 5.514 3.486 0.584-0.584 1.167-1.167 0.292-2.611 2.028 1.166 3.486 2.32 4.347 3.777 1.167-0.875 0.584-1.736 0.584-2.61 2.027 1.444 3.194 3.194 4.638 4.93 0.292-0.292 0.584-0.875 0.875-2.028 4.64 4.639 11.32 15.958 1.737 20.306-8.125-6.68-17.987-11.612-29.014-15.375 13.93 7.25 22.347 12.763 26.694 17.694-2.32 9-14.222 9.57-18.57 9.292 0.876-0.292 1.737-0.875 2.028-1.736-1.472-0.306-5.25 0.263-8.152-1.18zm17.125 6.958c4.93 0.875-22.917 24.667-23.5 19.445-0.292-13.93 10.444-21.472 23.5-19.445zm-29.306 53.111c-6.68-5.222-9-20.888 3.486-28.152 7.542-1.736 2.597 31.041-3.486 28.152zm25.82 28.14c-3.778 2.319-13.056 1.444-19.737-7.834-4.347-7.833-3.777-15.667-0.875-17.986 4.64-2.903 11.903 0.875 17.417 7.25 4.93 5.514 7.264 15.667 3.195 18.57zm-7.542-34.237c-6.959-4.639-8.125-14.791-2.903-22.916 5.514-8.125 15.375-11.028 22.347-6.39 6.973 4.64 8.125 14.792 2.903 22.917-5.236 8.125-15.389 11.028-22.347 6.39zm29.014 50.195c-8.417 0.291-16.542-6.68-16.542-9.292 0-3.486 10.153-6.389 16.834-6.389 6.68-0.292 15.958 2.028 15.958 5.514 0.292 3.208-8.125 10.167-16.25 10.167zm16.833-35.695c0 8.417-7.541 15.375-16.833 15.375s-16.834-6.68-16.834-15.375v-0.291c0-8.417 7.542-15.375 16.834-15.375 9.292 0.291 16.833 6.972 16.833 15.666zm23.5 12.195c-7.25 9.86-16.833 10.153-20.597 7.541-3.778-3.486-0.875-14.513 4.347-20.597 6.098-6.68 12.473-11.028 16.834-7.542 2.903 2.89 4.639 13.917-0.584 20.598zm6.39-20.89c-6.098 2.612-11.029-29.888-3.487-28.152 12.472 7.25 10.445 22.93 3.486 28.153z" fill="#3d3f38"/>
 <path d="m90.82 232.57c0-15.125-12.306-27.431-27.43-27.431h-63.39v10.639c9.264 0 16.806 7.528 16.806 16.792 0 9.263-7.542 16.805-16.806 16.805v10.639h63.39c15.124-0.014 27.43-12.32 27.43-27.444zm-27.43 16.625c-9.168 0-16.626-7.459-16.626-16.625 0-9.167 7.458-16.625 16.625-16.625s16.625 7.458 16.625 16.625c0 9.166-7.458 16.625-16.625 16.625zm27.43 55.958h-90.82v10.639c9.264 0 16.806 7.528 16.806 16.791 0 9.264-7.542 16.792-16.806 16.792v10.639h90.82zm-27.43 44.055c-9.168 0-16.626-7.458-16.626-16.625 0-9.166 7.458-16.625 16.625-16.625s16.625 7.459 16.625 16.625c0 9.167-7.458 16.625-16.625 16.625zm27.43 83.362c0-15.125-12.306-27.431-27.43-27.431h-63.39v10.639c9.264 0 16.806 7.528 16.806 16.792 0 9.263-7.542 16.805-16.806 16.805v10.639h63.39c15.124-0.014 27.43-12.32 27.43-27.444zm-27.43 16.625c-9.168 0-16.626-7.459-16.626-16.625 0-9.167 7.458-16.625 16.625-16.625s16.625 7.458 16.625 16.625c0 9.166-7.458 16.625-16.625 16.625zm27.43 83.361c0-15.125-12.306-27.43-27.43-27.43h-63.39v10.638c9.264 0 16.806 7.528 16.806 16.792s-7.542 16.805-16.806 16.805v10.64h63.39c15.124-0.015 27.43-12.32 27.43-27.445zm-27.43 16.624c-9.168 0-16.626-7.459-16.626-16.625 0-9.167 7.458-16.625 16.625-16.625s16.625 7.458 16.625 16.625c0 9.166-7.458 16.625-16.625 16.625zm27.43 83.376c0-15.125-12.306-27.43-27.43-27.43h-63.39v10.638c9.264 0 16.806 7.528 16.806 16.792s-7.542 16.805-16.806 16.805v10.64h63.39c15.124-0.015 27.43-12.32 27.43-27.445zm-27.43 16.624c-9.168 0-16.626-7.459-16.626-16.625 0-9.167 7.458-16.625 16.625-16.625s16.625 7.458 16.625 16.625c0 9.166-7.458 16.625-16.625 16.625zm27.43 83.376c0-15.125-12.306-27.43-27.43-27.43h-63.39v10.638c9.264 0 16.806 7.528 16.806 16.792s-7.542 16.805-16.806 16.805v10.64h63.39c15.124-0.015 27.43-12.32 27.43-27.445zm-27.43 16.624c-9.168 0-16.626-7.459-16.626-16.625 0-9.167 7.458-16.625 16.625-16.625s16.625 7.458 16.625 16.625c0 9.166-7.458 16.625-16.625 16.625zm27.43 55.945h-90.82v10.64c9.264 0 16.806 7.527 16.806 16.79 0 9.265-7.542 16.806-16.806 16.806v10.64h90.82zm-27.43 44.056c-9.168 0-16.626-7.459-16.626-16.625 0-9.167 7.458-16.625 16.625-16.625s16.625 7.458 16.625 16.625c0 9.166-7.458 16.625-16.625 16.625zm27.43 83.375c0-15.125-12.306-27.43-27.43-27.43h-63.39v10.638c9.264 0 16.806 7.528 16.806 16.792s-7.542 16.805-16.806 16.805v10.64h63.39c15.124-0.015 27.43-12.32 27.43-27.445zm-27.43 16.624c-9.168 0-16.626-7.458-16.626-16.625s7.458-16.625 16.625-16.625 16.625 7.458 16.625 16.625-7.458 16.625-16.625 16.625zm27.43 83.376c0-15.125-12.306-27.43-27.43-27.43h-63.39v10.638c9.264 0 16.806 7.528 16.806 16.792s-7.542 16.805-16.806 16.805v10.64h63.39c15.124-0.015 27.43-12.32 27.43-27.445zm-27.43 16.625c-9.168 0-16.626-7.458-16.626-16.625s7.458-16.625 16.625-16.625 16.625 7.458 16.625 16.625-7.458 16.625-16.625 16.625zm27.43 83.375c0-15.125-12.306-27.43-27.43-27.43h-63.39v10.638c9.264 0 16.806 7.528 16.806 16.792s-7.542 16.806-16.806 16.806v10.638h63.39c15.124-0.014 27.43-12.32 27.43-27.444zm-27.43 16.625c-9.168 0-16.626-7.458-16.626-16.625s7.458-16.625 16.625-16.625 16.625 7.458 16.625 16.625-7.458 16.625-16.625 16.625zm27.43 83.375c0-15.125-12.306-27.43-27.43-27.43h-63.39v10.638c9.264 0 16.806 7.528 16.806 16.792s-7.542 16.805-16.806 16.805v10.64h63.39c15.124-0.015 27.43-12.32 27.43-27.445zm-27.43 16.625c-9.168 0-16.626-7.458-16.626-16.625s7.458-16.625 16.625-16.625 16.625 7.458 16.625 16.625-7.458 16.625-16.625 16.625zm27.43 55.944h-90.82v10.64c9.264 0 16.806 7.527 16.806 16.79 0 9.265-7.542 16.806-16.806 16.806v10.64h90.82zm-27.43 44.056c-9.168 0-16.626-7.458-16.626-16.625s7.458-16.625 16.625-16.625 16.625 7.458 16.625 16.625-7.458 16.625-16.625 16.625zm27.43 83.375c0-15.125-12.306-27.43-27.43-27.43h-63.39v10.638c9.264 0 16.806 7.528 16.806 16.792s-7.542 16.792-16.806 16.792v10.639h63.39c15.124 0 27.43-12.306 27.43-27.431zm-27.43 16.625c-9.168 0-16.626-7.458-16.626-16.625s7.458-16.625 16.625-16.625 16.625 7.458 16.625 16.625-7.458 16.625-16.625 16.625zm27.43 83.375c0-15.125-12.306-27.43-27.43-27.43h-63.39v10.638c9.264 0 16.806 7.528 16.806 16.792s-7.542 16.792-16.806 16.792v10.639h63.39c15.124 0 27.43-12.306 27.43-27.431zm-27.43 16.625c-9.168 0-16.626-7.458-16.626-16.625s7.458-16.625 16.625-16.625 16.625 7.458 16.625 16.625-7.458 16.625-16.625 16.625zm27.43 83.375c0-15.125-12.306-27.43-27.43-27.43h-63.39v10.638c9.264 0 16.806 7.528 16.806 16.792s-7.542 16.792-16.806 16.792v10.639h63.39c15.124 0 27.43-12.306 27.43-27.43zm-27.43 16.625c-9.168 0-16.626-7.458-16.626-16.625s7.458-16.625 16.625-16.625 16.625 7.458 16.625 16.625-7.458 16.625-16.625 16.625zm27.43 83.375c0-15.125-12.306-27.43-27.43-27.43h-63.39v10.638c9.264 0 16.806 7.528 16.806 16.792s-7.542 16.792-16.806 16.792v10.639h63.39c15.124 0 27.43-12.306 27.43-27.43zm-27.43 16.625c-9.168 0-16.626-7.458-16.626-16.625s7.458-16.625 16.625-16.625 16.625 7.458 16.625 16.625-7.458 16.625-16.625 16.625zm27.43 55.945h-90.82v10.639c9.264 0 16.806 7.527 16.806 16.791s-7.542 16.792-16.806 16.792v10.639h90.82zm-27.43 44.055c-9.168 0-16.626-7.458-16.626-16.625s7.458-16.625 16.625-16.625 16.625 7.458 16.625 16.625-7.458 16.625-16.625 16.625zm27.43 83.375c0-15.125-12.306-27.43-27.43-27.43h-63.39v10.638c9.264 0 16.806 7.528 16.806 16.792s-7.542 16.792-16.806 16.792v10.639h63.39c15.124 0 27.43-12.306 27.43-27.43zm-27.43 16.625c-9.168 0-16.626-7.458-16.626-16.625s7.458-16.625 16.625-16.625 16.625 7.458 16.625 16.625-7.458 16.625-16.625 16.625zm27.43 83.361c0-15.125-12.306-27.43-27.43-27.43h-63.39v10.639c9.264 0 16.806 7.527 16.806 16.791s-7.542 16.792-16.806 16.792v10.639h63.39c15.124 0 27.43-12.306 27.43-27.43zm-27.43 16.625c-9.168 0-16.626-7.458-16.626-16.625 0-9.166 7.458-16.625 16.625-16.625s16.625 7.459 16.625 16.625c0 9.167-7.458 16.625-16.625 16.625zm700-1789.2h63.39v-10.639c-9.264 0-16.806-7.528-16.806-16.791 0-9.264 7.542-16.792 16.806-16.792v-10.639h-63.39c-15.125 0-27.43 12.306-27.43 27.43 0 15.126 12.305 27.431 27.43 27.431zm-16.625-27.43c0-9.167 7.459-16.625 16.625-16.625 9.167 0 16.625 7.458 16.625 16.625 0 9.166-7.458 16.625-16.625 16.625-9.166 0-16.625-7.459-16.625-16.625zm-10.805 127.44h90.82v-10.639c-9.264 0-16.806-7.528-16.806-16.792 0-9.263 7.542-16.791 16.805-16.791v-10.64h-90.82zm10.805-27.43c0-9.167 7.459-16.626 16.625-16.626 9.167 0 16.625 7.459 16.625 16.625 0 9.167-7.458 16.625-16.625 16.625-9.166 0-16.625-7.458-16.625-16.625zm16.625 127.42h63.39v-10.639c-9.264 0-16.806-7.528-16.806-16.791 0-9.264 7.542-16.792 16.806-16.792v-10.639h-63.39c-15.125 0-27.43 12.306-27.43 27.43 0 15.126 12.305 27.431 27.43 27.431zm-16.625-27.43c0-9.167 7.459-16.625 16.625-16.625 9.167 0 16.625 7.458 16.625 16.625 0 9.166-7.458 16.625-16.625 16.625-9.166 0-16.625-7.459-16.625-16.625zm16.625 127.42h63.39v-10.639c-9.264 0-16.806-7.527-16.806-16.791s7.542-16.792 16.806-16.792v-10.639h-63.39c-15.125 0-27.43 12.306-27.43 27.43 0 15.126 12.305 27.431 27.43 27.431zm-16.625-27.43c0-9.167 7.459-16.625 16.625-16.625 9.167 0 16.625 7.458 16.625 16.625 0 9.166-7.458 16.625-16.625 16.625-9.166 0-16.625-7.459-16.625-16.625zm16.625 127.43h63.39v-10.639c-9.264 0-16.806-7.527-16.806-16.791s7.542-16.792 16.806-16.792v-10.639h-63.39c-15.125 0-27.43 12.306-27.43 27.43 0 15.126 12.305 27.431 27.43 27.431zm-16.625-27.43c0-9.167 7.459-16.625 16.625-16.625 9.167 0 16.625 7.458 16.625 16.625 0 9.166-7.458 16.625-16.625 16.625-9.166 0-16.625-7.459-16.625-16.625zm16.625 127.43h63.39v-10.639c-9.264 0-16.806-7.527-16.806-16.791s7.542-16.792 16.806-16.792v-10.639h-63.39c-15.125 0-27.43 12.306-27.43 27.43 0 15.126 12.305 27.431 27.43 27.431zm-16.625-27.43c0-9.167 7.459-16.625 16.625-16.625 9.167 0 16.625 7.458 16.625 16.625 0 9.166-7.458 16.625-16.625 16.625-9.166 0-16.625-7.459-16.625-16.625zm-10.805 127.43h90.82v-10.639c-9.264 0-16.806-7.527-16.806-16.791s7.542-16.792 16.805-16.792v-10.639h-90.82zm10.805-27.43c0-9.167 7.459-16.625 16.625-16.625 9.167 0 16.625 7.458 16.625 16.625 0 9.166-7.458 16.625-16.625 16.625-9.166 0-16.625-7.459-16.625-16.625zm16.625 127.43h63.39v-10.638c-9.264 0-16.806-7.528-16.806-16.792s7.542-16.792 16.806-16.792v-10.639h-63.39c-15.125 0-27.43 12.306-27.43 27.43 0 15.126 12.305 27.431 27.43 27.431zm-16.625-27.43c0-9.167 7.459-16.625 16.625-16.625 9.167 0 16.625 7.458 16.625 16.625s-7.458 16.625-16.625 16.625c-9.166 0-16.625-7.458-16.625-16.625zm16.625 127.43h63.39v-10.638c-9.264 0-16.806-7.528-16.806-16.792s7.542-16.792 16.806-16.792v-10.639h-63.39c-15.125 0-27.43 12.306-27.43 27.43 0 15.126 12.305 27.431 27.43 27.431zm-16.625-27.43c0-9.167 7.459-16.625 16.625-16.625 9.167 0 16.625 7.458 16.625 16.625s-7.458 16.625-16.625 16.625c-9.166 0-16.625-7.458-16.625-16.625zm16.625 127.43h63.39v-10.639c-9.264 0-16.806-7.527-16.806-16.791s7.542-16.792 16.806-16.792v-10.639h-63.39c-15.125 0-27.43 12.306-27.43 27.43 0 15.126 12.305 27.431 27.43 27.431zm-16.625-27.43c0-9.167 7.459-16.625 16.625-16.625 9.167 0 16.625 7.458 16.625 16.625s-7.458 16.625-16.625 16.625c-9.166 0-16.625-7.458-16.625-16.625zm16.625 127.43h63.39v-10.638c-9.264 0-16.806-7.528-16.806-16.792s7.542-16.792 16.806-16.792v-10.639h-63.39c-15.125 0-27.43 12.306-27.43 27.431s12.305 27.43 27.43 27.43zm-16.625-27.43c0-9.167 7.459-16.625 16.625-16.625 9.167 0 16.625 7.458 16.625 16.625s-7.458 16.625-16.625 16.625c-9.166 0-16.625-7.458-16.625-16.625zm-10.805 127.43h90.82v-10.638c-9.264 0-16.806-7.528-16.806-16.792s7.542-16.792 16.805-16.792v-10.639h-90.82zm10.805-27.43c0-9.167 7.459-16.625 16.625-16.625 9.167 0 16.625 7.458 16.625 16.625s-7.458 16.625-16.625 16.625c-9.166 0-16.625-7.458-16.625-16.625zm16.625 127.43h63.39v-10.638c-9.264 0-16.806-7.528-16.806-16.792s7.542-16.792 16.806-16.792v-10.639h-63.39c-15.125 0-27.43 12.306-27.43 27.431s12.305 27.43 27.43 27.43zm-16.625-27.43c0-9.167 7.459-16.625 16.625-16.625 9.167 0 16.625 7.458 16.625 16.625s-7.458 16.625-16.625 16.625c-9.166 0-16.625-7.458-16.625-16.625zm16.625 127.43h63.39v-10.64c-9.264 0-16.806-7.527-16.806-16.791s7.542-16.792 16.806-16.792v-10.638h-63.39c-15.125 0-27.43 12.305-27.43 27.43s12.305 27.43 27.43 27.43zm-16.625-27.431c0-9.167 7.459-16.625 16.625-16.625 9.167 0 16.625 7.458 16.625 16.625s-7.458 16.625-16.625 16.625c-9.166 0-16.625-7.458-16.625-16.625zm16.625 127.43h63.39v-10.64c-9.264 0-16.806-7.527-16.806-16.79 0-9.265 7.542-16.793 16.806-16.793v-10.638h-63.39c-15.125 0-27.43 12.305-27.43 27.43s12.305 27.43 27.43 27.43zm-16.625-27.43c0-9.168 7.459-16.626 16.625-16.626 9.167 0 16.625 7.458 16.625 16.625s-7.458 16.625-16.625 16.625c-9.166 0-16.625-7.458-16.625-16.625zm16.625 127.43h63.39v-10.64c-9.264 0-16.806-7.527-16.806-16.79 0-9.265 7.542-16.793 16.806-16.793v-10.638h-63.39c-15.125 0-27.43 12.305-27.43 27.43s12.305 27.43 27.43 27.43zm-16.625-27.43c0-9.168 7.459-16.626 16.625-16.626 9.167 0 16.625 7.458 16.625 16.625s-7.458 16.625-16.625 16.625c-9.166 0-16.625-7.458-16.625-16.625zm-10.805 127.43h90.82v-10.64c-9.264 0-16.806-7.527-16.806-16.79 0-9.265 7.542-16.793 16.805-16.793v-10.638h-90.82zm10.805-27.43c0-9.168 7.459-16.626 16.625-16.626 9.167 0 16.625 7.458 16.625 16.625s-7.458 16.625-16.625 16.625c-9.166 0-16.625-7.458-16.625-16.625zm16.625 127.43h63.39v-10.64c-9.264 0-16.806-7.527-16.806-16.79 0-9.265 7.542-16.793 16.806-16.793v-10.638h-63.39c-15.125 0-27.43 12.305-27.43 27.43s12.305 27.43 27.43 27.43zm-16.625-27.43c0-9.168 7.459-16.626 16.625-16.626 9.167 0 16.625 7.458 16.625 16.625s-7.458 16.625-16.625 16.625c-9.166 0-16.625-7.458-16.625-16.625zm16.625 127.42h63.39v-10.64c-9.264 0-16.806-7.527-16.806-16.79 0-9.265 7.542-16.792 16.806-16.792v-10.64h-63.39c-15.125 0-27.43 12.306-27.43 27.431s12.305 27.43 27.43 27.43zm-16.625-27.43c0-9.167 7.459-16.626 16.625-16.626 9.167 0 16.625 7.459 16.625 16.625 0 9.167-7.458 16.625-16.625 16.625-9.166 0-16.625-7.458-16.625-16.625zm16.625-1872.6h63.39v-10.639c-9.264 0-16.806-7.528-16.806-16.791 0-9.264 7.542-16.792 16.806-16.792v-10.639h-63.39c-15.125 0-27.43 12.306-27.43 27.43 0 15.126 12.305 27.431 27.43 27.431zm-16.625-27.43c0-9.167 7.459-16.625 16.625-16.625 9.167 0 16.625 7.458 16.625 16.625 0 9.166-7.458 16.625-16.625 16.625-9.166 0-16.625-7.459-16.625-16.625zm-655.95 0c0-15.125-12.306-27.431-27.43-27.431h-63.39v10.639c9.264 0 16.806 7.528 16.806 16.792 0 9.263-7.542 16.805-16.806 16.805v10.639h63.39c15.124-0.014 27.43-12.32 27.43-27.444zm-27.43 16.624c-9.168 0-16.626-7.459-16.626-16.625 0-9.167 7.458-16.625 16.625-16.625s16.625 7.458 16.625 16.625c0 9.166-7.458 16.625-16.625 16.625z" fill="#958863"/>
 <g fill="none">
  <circle cx="63.438" cy="132.56" r="16"/>
  <circle cx="63.438" cy="232.62" r="16"/>
  <circle cx="63.438" cy="332.62" r="16"/>
  <circle cx="63.438" cy="432.62" r="16"/>
  <circle cx="63.438" cy="532.62" r="16"/>
  <circle cx="63.438" cy="632.62" r="16"/>
  <circle cx="63.438" cy="732.62" r="16"/>
  <circle cx="63.438" cy="832.62" r="16"/>
  <circle cx="63" cy="932.62" r="16"/>
  <circle cx="63" cy="1032.6" r="16"/>
  <circle cx="63" cy="1132.6" r="16"/>
  <circle cx="63" cy="1232.6" r="16"/>
  <circle cx="63" cy="1332.6" r="16"/>
  <circle cx="63" cy="1432.6" r="16"/>
  <circle cx="63" cy="1532.6" r="16"/>
  <circle cx="63" cy="1632.6" r="16"/>
  <circle cx="63" cy="1732.6" r="16"/>
  <circle cx="63" cy="1832.6" r="16"/>
  <circle cx="63" cy="1932.6" r="16"/>
  <circle cx="63" cy="2032.6" r="16"/>
  <circle cx="763" cy="2032.6" r="16"/>
  <circle cx="763" cy="1932.6" r="16"/>
  <circle cx="763" cy="1832.6" r="16"/>
  <circle cx="763" cy="1732.6" r="16"/>
  <circle cx="763" cy="1632.6" r="16"/>
  <circle cx="763" cy="1532.6" r="16"/>
  <circle cx="763" cy="1432.6" r="16"/>
  <circle cx="790.84" cy="1297.8" r="16"/>
  <circle cx="800.03" cy="1293.1" r="16"/>
  <circle cx="763" cy="1132.6" r="16"/>
  <circle cx="763" cy="1032.6" r="16"/>
  <circle cx="763" cy="932.62" r="16"/>
  <circle cx="763" cy="832.62" r="16"/>
  <circle cx="763" cy="732.62" r="16"/>
  <circle cx="763" cy="632.62" r="16"/>
  <circle cx="763" cy="532.62" r="16"/>
  <circle cx="763" cy="432.62" r="16"/>
  <circle cx="763" cy="332.62" r="16"/>
  <circle cx="763" cy="232.62" r="16"/>
  <circle cx="763" cy="132.62" r="16"/>
  <circle cx="313" cy="2032.6" r="16"/>
  <circle cx="413" cy="2032.6" r="16"/>
  <circle cx="513" cy="2032.6" r="16"/>
 </g>
 <rect x="215.53" y="1366.5" width="433.95" height="395.09" rx="7.874" fill="#b3b3b3" stroke="#8e8e8e" stroke-linecap="round" stroke-linejoin="round" stroke-width="3.937"/>
 <rect x="374.58" y="1245.2" width="298.12" height="87.81" fill="none" stroke="#a0a0a0" stroke-linecap="round" stroke-linejoin="round" stroke-width="4.194"/>
 <g fill="#be8936">
  <path transform="scale(10.417)" d="m38.328 121.26v4.9297h5.2988v-4.9297h-5.2988zm2.6289 0.53906a1.8898 1.8898 0 0 1 1.8887 1.8906 1.8898 1.8898 0 0 1-1.8887 1.8906 1.8898 1.8898 0 0 1-1.8906-1.8906 1.8898 1.8898 0 0 1 1.8906-1.8906z"/>
  <path transform="scale(10.417)" d="m50.85 121a2.6457 2.6457 0 0 0-2.6445 2.6445 2.6457 2.6457 0 0 0 2.6445 2.6465 2.6457 2.6457 0 0 0 2.6465-2.6465 2.6457 2.6457 0 0 0-2.6465-2.6445zm0.052735 0.73438a1.8898 1.8898 0 0 1 1.8906 1.8906 1.8898 1.8898 0 0 1-1.8906 1.8887 1.8898 1.8898 0 0 1-1.8887-1.8887 1.8898 1.8898 0 0 1 1.8887-1.8906z"/>
  <path transform="scale(10.417)" d="m60.256 121.14a2.6457 2.6457 0 0 0-2.6445 2.6465 2.6457 2.6457 0 0 0 2.6445 2.6445 2.6457 2.6457 0 0 0 2.6465-2.6445 2.6457 2.6457 0 0 0-2.6465-2.6465zm-0.017578 0.73633a1.8898 1.8898 0 0 1 1.8887 1.8906 1.8898 1.8898 0 0 1-1.8887 1.8887 1.8898 1.8898 0 0 1-1.8906-1.8887 1.8898 1.8898 0 0 1 1.8906-1.8906z"/>
 </g>
 <g>
  <rect x="220.23" y="1241" width="114.37" height="85.351" rx="7.874" fill="#f2f2f2"/>
  <g font-family="sans-serif">
   <text transform="rotate(-89.567)" x="-1874.2069" y="188.18607" fill="#ffffff" font-size="60.891px" stroke-width="1.5223" style="line-height:1.25" xml:space="preserve"><tspan x="-1874.2069" y="188.18607" fill="#ffffff" stroke-width="1.5223">Raspberry Pi Pico W ©2022</tspan></text>
   <text x="449.39603" y="1216.5018" fill="#ffffff" font-size="50.238px" stroke-width="1.256" style="line-height:1.25" xml:space="preserve"><tspan x="449.39603" y="1216.5018" fill="#ffffff" stroke-width="1.256">DEBUG</tspan></text>
   <text x="357.93973" y="1583.9539" fill="#000000" font-size="416.67px" stroke-width="10.417" style="line-height:1.25" xml:space="preserve"><tspan stroke-width="10.417"/></text>
   <text x="269.25177" y="1616.2849" fill="#4d4d4d" font-size="125.76px" stroke-width="3.1439" style="line-height:1.25" xml:space="preserve"><tspan x="269.25177" y="1616.2849" fill="#4d4d4d" stroke-width="3.1439">Wi-Fi</tspan></text>
  </g>
 </g>
</svg>
