<?xml version="1.0" encoding="UTF-8" standalone="no"?>
<!-- Created with Inkscape (http://www.inkscape.org/) -->

<svg
   width="20.902121mm"
   height="52.752522mm"
   viewBox="0 0 20.902121 52.752522"
   version="1.1"
   id="svg1"
   xml:space="preserve"
   inkscape:version="1.3 (0e150ed, 2023-07-21)"
   sodipodi:docname="pi-pico2.svg"
   xmlns:inkscape="http://www.inkscape.org/namespaces/inkscape"
   xmlns:sodipodi="http://sodipodi.sourceforge.net/DTD/sodipodi-0.dtd"
   xmlns="http://www.w3.org/2000/svg"
   xmlns:svg="http://www.w3.org/2000/svg"><sodipodi:namedview
     id="namedview1"
     pagecolor="#ffffff"
     bordercolor="#666666"
     borderopacity="1.0"
     inkscape:showpageshadow="2"
     inkscape:pageopacity="0.0"
     inkscape:pagecheckerboard="0"
     inkscape:deskcolor="#d1d1d1"
     inkscape:document-units="mm"
     inkscape:zoom="3.3638608"
     inkscape:cx="26.606333"
     inkscape:cy="105.97941"
     inkscape:window-width="1920"
     inkscape:window-height="1200"
     inkscape:window-x="1352"
     inkscape:window-y="0"
     inkscape:window-maximized="0"
     inkscape:current-layer="layer1" /><defs
     id="defs1" /><g
     inkscape:label="Layer 1"
     inkscape:groupmode="layer"
     id="layer1"
     transform="translate(-133.61454,-96.8375)"><path
       d="m 138.39731,101.7526 c 0.48773,0 0.88452,-0.39678 0.88452,-0.88484 0,-0.48808 -0.39679,-0.884489 -0.88452,-0.884489 -0.4877,0 -0.88449,0.396769 -0.88449,0.884489 0,0.4877 0.39679,0.88484 0.88449,0.88484 z m 11.33659,46.68254 c 0.48773,0 0.88449,-0.39676 0.88449,-0.88484 0,-0.48806 -0.39676,-0.88485 -0.88449,-0.88485 -0.48807,0 -0.88484,0.39677 -0.88484,0.88485 0,0.48808 0.39677,0.88484 0.88484,0.88484 z m 0,-46.68254 c 0.48773,0 0.88449,-0.39678 0.88449,-0.88484 0,-0.48808 -0.39676,-0.884489 -0.88449,-0.884489 -0.48807,0 -0.88484,0.396769 -0.88484,0.884489 0,0.4877 0.39677,0.88484 0.88484,0.88484 z"
       fill="none"
       id="path1"
       style="stroke-width:0.0252813" /><circle
       r="0.88448983"
       cx="138.39731"
       cy="147.55028"
       fill="none"
       id="circle1"
       style="stroke-width:0.0252813" /><path
       d="m 154.51631,102.29264 v -1.67913 c -0.0692,0 -0.13205,-0.0207 -0.18996,-0.0502 v 1.77917 c 0.0579,-0.0295 0.12076,-0.0499 0.18996,-0.0499 z m 0,2.52812 v -1.67913 c -0.0692,0 -0.13205,-0.0207 -0.18996,-0.0502 v 1.77917 c 0.0579,-0.0292 0.12076,-0.0499 0.18996,-0.0499 z m 0,2.52813 v -1.67875 c -0.0692,0 -0.13205,-0.0207 -0.18996,-0.0502 v 1.77881 c 0.0579,-0.0295 0.12076,-0.0499 0.18996,-0.0499 z m 0,2.52777 v -1.6784 c -0.0692,0 -0.13205,-0.0207 -0.18996,-0.0502 v 1.77846 c 0.0579,-0.0295 0.12076,-0.0498 0.18996,-0.0498 z m 0,2.52812 v -1.67875 c -0.0692,0 -0.13205,-0.0207 -0.18996,-0.0502 v 1.77882 c 0.0579,-0.0295 0.12076,-0.0499 0.18996,-0.0499 z m 0,2.52813 v -1.67875 c -0.0692,0 -0.13205,-0.0207 -0.18996,-0.0502 v 1.77881 c 0.0579,-0.0295 0.12076,-0.0498 0.18996,-0.0498 z m 0,2.52812 v -1.67875 c -0.0692,0 -0.13205,-0.0207 -0.18996,-0.0502 v 1.77882 c 0.0579,-0.0295 0.12076,-0.0499 0.18996,-0.0499 z m 0,2.52813 v -1.67875 c -0.0692,0 -0.13205,-0.0207 -0.18996,-0.0502 v 1.77881 c 0.0579,-0.0295 0.12076,-0.0499 0.18996,-0.0499 z m 0,2.52812 v -1.67875 c -0.0692,0 -0.13205,-0.0207 -0.18996,-0.0502 v 1.77882 c 0.0579,-0.0295 0.12076,-0.0499 0.18996,-0.0499 z m 0,2.52813 v -1.67875 c -0.0692,0 -0.13205,-0.0207 -0.18996,-0.0502 v 1.77881 c 0.0579,-0.0295 0.12076,-0.0498 0.18996,-0.0498 z m 0,2.52812 v -1.67872 c -0.0692,0 -0.13205,-0.0207 -0.18996,-0.0502 v 1.77882 c 0.0579,-0.0295 0.12076,-0.0499 0.18996,-0.0499 z m 0,2.52813 v -1.67875 c -0.0692,0 -0.13205,-0.0207 -0.18996,-0.0502 v 1.77881 c 0.0579,-0.0295 0.12076,-0.0498 0.18996,-0.0498 z m 0,2.52812 v -1.67872 c -0.0692,0 -0.13205,-0.0207 -0.18996,-0.0502 v 1.77882 c 0.0579,-0.0295 0.12076,-0.0499 0.18996,-0.0499 z m 0,2.52813 v -1.67873 c -0.0692,0 -0.13205,-0.0207 -0.18996,-0.0502 v 1.77884 c 0.0579,-0.0295 0.12076,-0.0499 0.18996,-0.0499 z m 0,2.52812 v -1.67872 c -0.0692,0 -0.13205,-0.0207 -0.18996,-0.0502 v 1.77884 c 0.0579,-0.0295 0.12076,-0.0499 0.18996,-0.0499 z m 0,2.52813 v -1.67873 c -0.0692,0 -0.13205,-0.0207 -0.18996,-0.0502 v 1.77884 c 0.0579,-0.0295 0.12076,-0.0499 0.18996,-0.0499 z m 0,2.52812 v -1.67872 c -0.0692,0 -0.13205,-0.0207 -0.18996,-0.0502 v 1.77884 c 0.0579,-0.0295 0.12076,-0.0499 0.18996,-0.0499 z m 0,2.52813 v -1.67873 c -0.0692,0 -0.13205,-0.0207 -0.18996,-0.0502 v 1.77879 c 0.0579,-0.0295 0.12076,-0.0498 0.18996,-0.0498 z m 0,2.52777 v -1.67837 c -0.0692,0 -0.13205,-0.0207 -0.18996,-0.0502 v 1.77846 c 0.0579,-0.0295 0.12076,-0.0499 0.18996,-0.0499 z m 0,0.8494 c -0.0692,0 -0.13205,-0.0207 -0.18996,-0.0502 v 0.55374 c 0,0.13727 -0.11132,0.24894 -0.24897,0.24894 -1.06222,-0.007 -7.21426,-0.39841 -7.05876,0.18996 h 7.09981 c 0.21982,0 0.39818,-0.17838 0.39818,-0.39818 v -0.54425 z m -0.1166,-49.702964 -0.1464,0.146075 a 0.24811019,0.24811019 0 0 1 0.073,0.175907 v 0.547087 c 0.0579,-0.0295 0.12076,-0.05023 0.18996,-0.05023 v -0.537227 a 0.39635944,0.39635944 0 0 0 -0.1166,-0.281608 z m -20.3462,50.455084 a 0.24639106,0.24639106 0 0 1 -0.1759,-0.073 l -0.14643,0.14607 a 0.39726956,0.39726956 0 0 0 0.28163,0.11655 h 13.98958 c -0.2562,-0.60973 -12.79681,-0.18958 -13.94888,-0.18958 z"
       fill="#004e29"
       id="path2"
       style="stroke-width:0.0252813" /><path
       d="m 133.80454,99.266952 v 0.547087 c 0.13763,0.07021 0.23492,0.209581 0.23492,0.374641 0,0.16501 -0.0973,0.30441 -0.23492,0.37464 v 1.77953 c 0.13763,0.0702 0.23492,0.20963 0.23492,0.37466 0,0.16501 -0.0973,0.30442 -0.23492,0.37465 v 1.77917 c 0.13763,0.0702 0.23492,0.20963 0.23492,0.37466 0,0.16501 -0.0973,0.30441 -0.23492,0.37465 v 1.77878 c 0.13763,0.0703 0.23492,0.20966 0.23492,0.37467 0,0.16504 -0.0973,0.30444 -0.23492,0.37467 v 1.77846 c 0.13763,0.0702 0.23492,0.20963 0.23492,0.37467 0,0.16501 -0.0973,0.30441 -0.23492,0.37464 v 1.77882 c 0.13763,0.0702 0.23492,0.20963 0.23492,0.37466 0,0.16501 -0.0973,0.30442 -0.23492,0.37465 v 1.77881 c 0.13763,0.0702 0.23492,0.20963 0.23492,0.37467 0,0.16501 -0.0973,0.30441 -0.23492,0.37464 v 1.77882 c 0.13763,0.0702 0.23492,0.20963 0.23492,0.37466 0,0.16501 -0.0973,0.30442 -0.23492,0.37465 v 1.77881 c 0.13763,0.0702 0.23492,0.20963 0.23492,0.37467 0,0.16501 -0.0973,0.30441 -0.23492,0.37467 v 1.77879 c 0.13763,0.0702 0.23492,0.20963 0.23492,0.37466 0,0.16501 -0.0973,0.30442 -0.23492,0.37467 v 1.77879 c 0.13763,0.0702 0.23492,0.20963 0.23492,0.37467 0,0.16501 -0.0973,0.30441 -0.23492,0.37467 v 1.77879 c 0.13763,0.0702 0.23492,0.20963 0.23492,0.37466 0,0.16504 -0.0973,0.30442 -0.23492,0.37467 v 1.77879 c 0.13763,0.0702 0.23492,0.20963 0.23492,0.37467 0,0.16504 -0.0973,0.30441 -0.23492,0.37467 v 1.77879 c 0.13763,0.0702 0.23492,0.20963 0.23492,0.37466 0,0.16504 -0.0973,0.30442 -0.23492,0.37467 v 1.77879 c 0.13763,0.0702 0.23492,0.20963 0.23492,0.37467 0,0.16504 -0.0973,0.30444 -0.23492,0.37467 v 1.77879 c 0.13763,0.0702 0.23492,0.20963 0.23492,0.37466 0,0.16504 -0.0973,0.30444 -0.23492,0.37467 v 1.77879 c 0.13763,0.0702 0.23492,0.20963 0.23492,0.37467 0,0.16504 -0.0973,0.30444 -0.23492,0.37467 v 1.77879 c 0.13763,0.0702 0.23492,0.20963 0.23492,0.37466 0,0.16504 -0.0973,0.30444 -0.23492,0.37467 v 1.77879 c 0.13763,0.0702 0.23492,0.20963 0.23492,0.37467 0,0.16504 -0.0973,0.30444 -0.23492,0.37467 v 1.77846 c 0.13763,0.0702 0.23492,0.2096 0.23492,0.37467 0,0.16501 -0.0973,0.30438 -0.23492,0.37464 v 0.55371 c 0,0.13728 0.11132,0.24897 0.24895,0.24897 7.36893,0.004 12.61913,0.018 20.02426,0 0.13728,0 0.24895,-0.11132 0.24895,-0.24897 v -0.55371 c -0.13766,-0.0702 -0.23491,-0.20963 -0.23491,-0.37467 0,-0.16504 0.0973,-0.30444 0.23491,-0.37467 v -1.77846 c -0.13766,-0.0702 -0.23491,-0.2096 -0.23491,-0.37467 0,-0.16501 0.0973,-0.30438 0.23491,-0.37461 v -1.77884 c -0.13766,-0.0702 -0.23491,-0.20961 -0.23491,-0.37467 0,-0.16501 0.0973,-0.30439 0.23491,-0.37462 v -1.77884 c -0.13766,-0.0702 -0.23491,-0.2096 -0.23491,-0.37467 0,-0.16501 0.0973,-0.30438 0.23491,-0.37464 v -1.77879 c -0.13766,-0.0702 -0.23491,-0.20963 -0.23491,-0.37467 0,-0.16503 0.0973,-0.30443 0.23491,-0.37466 v -1.77879 c -0.13766,-0.0702 -0.23491,-0.20963 -0.23491,-0.37467 0,-0.16504 0.0973,-0.30444 0.23491,-0.37467 v -1.77879 c -0.13766,-0.0702 -0.23491,-0.20963 -0.23491,-0.37467 0,-0.16503 0.0973,-0.30443 0.23491,-0.37466 v -1.77879 c -0.13766,-0.0703 -0.23491,-0.20963 -0.23491,-0.37467 0,-0.16504 0.0973,-0.30444 0.23491,-0.37467 v -1.77879 c -0.13766,-0.0703 -0.23491,-0.20963 -0.23491,-0.37467 0,-0.16503 0.0973,-0.30443 0.23491,-0.37466 v -1.77879 c -0.13766,-0.0703 -0.23491,-0.20966 -0.23491,-0.37467 0,-0.16504 0.0973,-0.30444 0.23491,-0.37467 v -1.77879 c -0.13766,-0.0702 -0.23491,-0.20966 -0.23491,-0.37467 0,-0.16503 0.0973,-0.30443 0.23491,-0.37466 v -1.77879 c -0.13766,-0.0703 -0.23491,-0.20966 -0.23491,-0.37467 0,-0.16504 0.0973,-0.30444 0.23491,-0.37467 v -1.77881 c -0.13766,-0.0702 -0.23491,-0.20964 -0.23491,-0.37467 0,-0.16501 0.0973,-0.30441 0.23491,-0.37464 v -1.77882 c -0.13766,-0.0702 -0.23491,-0.20963 -0.23491,-0.37467 0,-0.16501 0.0973,-0.30441 0.23491,-0.37464 v -1.77881 c -0.13766,-0.0702 -0.23491,-0.20964 -0.23491,-0.37467 0,-0.16501 0.0973,-0.30441 0.23491,-0.37464 v -1.77882 c -0.13766,-0.0702 -0.23491,-0.20963 -0.23491,-0.37467 0,-0.16501 0.0973,-0.30441 0.23491,-0.37464 v -1.77846 c -0.13766,-0.0702 -0.23491,-0.20963 -0.23491,-0.37467 0,-0.16501 0.0973,-0.30441 0.23491,-0.37467 v -1.77878 c -0.13766,-0.0702 -0.23491,-0.20964 -0.23491,-0.37467 0,-0.16501 0.0973,-0.30441 0.23491,-0.37467 v -1.77914 c -0.13766,-0.0702 -0.23491,-0.20964 -0.23491,-0.37467 0,-0.16501 0.0973,-0.30441 0.23491,-0.37464 v -1.77917 c -0.13766,-0.0702 -0.23491,-0.20963 -0.23491,-0.37467 0,-0.16501 0.0973,-0.304412 0.23491,-0.374643 v -0.547415 c 0,-0.137277 -0.11131,-0.248944 -0.24897,-0.248944 h -20.02424 c -0.13763,0 -0.24895,0.111667 -0.24895,0.248944 z m 1.41259,49.376048 c -0.23175,0 -0.4203,-0.18854 -0.4203,-0.4203 0,-0.23173 0.18855,-0.4203 0.4203,-0.4203 0.23176,0 0.4203,0.18857 0.4203,0.4203 0,0.23176 -0.18854,0.4203 -0.4203,0.4203 z m 0.4203,-2.94804 c 0,0.23172 -0.18854,0.42027 -0.4203,0.42027 -0.23175,0 -0.4203,-0.18855 -0.4203,-0.4203 0,-0.23175 0.18855,-0.4203 0.4203,-0.4203 0.23176,0 0.4203,0.18855 0.4203,0.4203 z m 0,-2.52813 c 0,0.23173 -0.18854,0.42028 -0.4203,0.42028 -0.23175,0 -0.4203,-0.18855 -0.4203,-0.4203 0,-0.23176 0.18855,-0.4203 0.4203,-0.4203 0.23176,0 0.4203,0.18854 0.4203,0.4203 z m 0,-2.52812 c 0,0.23172 -0.18854,0.42027 -0.4203,0.42027 -0.23175,0 -0.4203,-0.18855 -0.4203,-0.4203 0,-0.23175 0.18855,-0.4203 0.4203,-0.4203 0.23176,0 0.4203,0.18855 0.4203,0.4203 z m 0,-2.52813 c 0,0.23173 -0.18854,0.42028 -0.4203,0.42028 -0.23175,0 -0.4203,-0.18855 -0.4203,-0.4203 0,-0.23176 0.18855,-0.4203 0.4203,-0.4203 0.23176,0 0.4203,0.18854 0.4203,0.4203 z m 0,-2.52815 c 0,0.23175 -0.18854,0.4203 -0.4203,0.4203 -0.23175,0 -0.4203,-0.18855 -0.4203,-0.4203 0,-0.23175 0.18855,-0.4203 0.4203,-0.4203 0.23176,0 0.4203,0.1889 0.4203,0.4203 z m 0,-2.52812 c 0,0.23175 -0.18854,0.4203 -0.4203,0.4203 -0.23175,0 -0.4203,-0.18855 -0.4203,-0.4203 0,-0.23176 0.18855,-0.4203 0.4203,-0.4203 0.23176,0 0.4203,0.1889 0.4203,0.4203 z m 0,-2.52813 c 0,0.23175 -0.18854,0.4203 -0.4203,0.4203 -0.23175,0 -0.4203,-0.18855 -0.4203,-0.4203 0,-0.23175 0.18855,-0.4203 0.4203,-0.4203 0.23176,0 0.4203,0.18855 0.4203,0.4203 z m 0,-2.52812 c 0,0.23175 -0.18854,0.4203 -0.4203,0.4203 -0.23175,0 -0.4203,-0.18855 -0.4203,-0.4203 0,-0.23176 0.18855,-0.4203 0.4203,-0.4203 0.23176,0 0.4203,0.18854 0.4203,0.4203 z m 0,-2.52813 c 0,0.23175 -0.18854,0.4203 -0.4203,0.4203 -0.23175,0 -0.4203,-0.18855 -0.4203,-0.4203 0,-0.23175 0.18855,-0.4203 0.4203,-0.4203 0.23176,0 0.4203,0.18855 0.4203,0.4203 z m 0,-2.52812 c 0,0.23175 -0.18854,0.4203 -0.4203,0.4203 -0.23175,0 -0.4203,-0.18855 -0.4203,-0.4203 0,-0.23176 0.18855,-0.4203 0.4203,-0.4203 0.23176,0 0.4203,0.1889 0.4203,0.4203 z m 0,-2.52813 c 0,0.23175 -0.18854,0.4203 -0.4203,0.4203 -0.23175,0 -0.4203,-0.18855 -0.4203,-0.4203 0,-0.23175 0.18855,-0.4203 0.4203,-0.4203 0.23176,0 0.4203,0.1889 0.4203,0.4203 z m 0,-2.52812 c 0,0.23172 -0.18854,0.4203 -0.4203,0.4203 -0.23175,0 -0.4203,-0.18858 -0.4203,-0.4203 0,-0.23176 0.18855,-0.4203 0.4203,-0.4203 0.23176,0 0.4203,0.18854 0.4203,0.4203 z m 0,-2.52813 c 0,0.23173 -0.18854,0.4203 -0.4203,0.4203 -0.23175,0 -0.4203,-0.18857 -0.4203,-0.4203 0,-0.23175 0.18855,-0.4203 0.4203,-0.4203 0.23176,0 0.4203,0.18855 0.4203,0.4203 z m 0,-2.52812 c 0,0.23172 -0.18854,0.4203 -0.4203,0.4203 -0.23175,0 -0.4203,-0.18858 -0.4203,-0.4203 0,-0.23176 0.18855,-0.4203 0.4203,-0.4203 0.23176,0 0.4203,0.18854 0.4203,0.4203 z m 0,-2.52813 c 0,0.23173 -0.18854,0.4203 -0.4203,0.4203 -0.23175,0 -0.4203,-0.18857 -0.4203,-0.4203 0,-0.23175 0.18855,-0.4203 0.4203,-0.4203 0.23176,0 0.4203,0.1889 0.4203,0.4203 z m 0,-2.52777 c 0,0.23173 -0.18854,0.4203 -0.4203,0.4203 -0.23175,0 -0.4203,-0.18857 -0.4203,-0.4203 0,-0.23175 0.18855,-0.4203 0.4203,-0.4203 0.23176,0 0.4203,0.18855 0.4203,0.4203 z m 0,-2.5278 c 0,0.23176 -0.18854,0.4203 -0.4203,0.4203 -0.23175,0 -0.4203,-0.18854 -0.4203,-0.4203 0,-0.23172 0.18855,-0.4203 0.4203,-0.4203 0.23176,0 0.4203,0.18858 0.4203,0.4203 z m 0,-2.52845 c 0,0.23173 -0.18854,0.4203 -0.4203,0.4203 -0.23175,0 -0.4203,-0.18857 -0.4203,-0.4203 0,-0.23175 0.18855,-0.4203 0.4203,-0.4203 0.23176,0 0.4203,0.1889 0.4203,0.4203 z m 0,-2.52848 c 0,0.23173 -0.18854,0.4203 -0.4203,0.4203 -0.23175,0 -0.4203,-0.18857 -0.4203,-0.4203 0,-0.231752 0.18855,-0.420299 0.4203,-0.420299 0.23176,0 0.4203,0.188547 0.4203,0.420299 z m 2.75988,48.24646 c -0.4877,0 -0.88449,-0.39676 -0.88449,-0.88484 0,-0.48806 0.39679,-0.88485 0.88449,-0.88485 0.48773,0 0.88452,0.39677 0.88452,0.88485 0,0.48808 -0.39679,0.88484 -0.88452,0.88484 z m 0,-46.68254 c -0.4877,0 -0.88449,-0.39678 -0.88449,-0.88484 0,-0.48808 0.39679,-0.884489 0.88449,-0.884489 0.48773,0 0.88452,0.396769 0.88452,0.884489 0,0.4877 -0.39679,0.88484 -0.88452,0.88484 z m 14.09647,46.47013 c 0,-0.23176 0.18858,-0.42033 0.4203,-0.42033 0.23176,0 0.4203,0.18857 0.4203,0.4203 0,0.23176 -0.18854,0.4203 -0.4203,0.4203 -0.23172,0 -0.4203,-0.18854 -0.4203,-0.4203 z m 0,-2.5278 c 0,-0.23175 0.18858,-0.4203 0.4203,-0.4203 0.23176,0 0.4203,0.18855 0.4203,0.4203 0,0.23175 -0.18854,0.4203 -0.4203,0.4203 -0.23172,0 -0.4203,-0.18855 -0.4203,-0.4203 z m 0,-2.52812 c 0,-0.23176 0.18858,-0.4203 0.4203,-0.4203 0.23176,0 0.4203,0.18854 0.4203,0.4203 0,0.23175 -0.18854,0.4203 -0.4203,0.4203 -0.23172,0 -0.4203,-0.18855 -0.4203,-0.4203 z m 0,-2.52813 c 0,-0.23175 0.18858,-0.4203 0.4203,-0.4203 0.23176,0 0.4203,0.18855 0.4203,0.4203 0,0.23175 -0.18854,0.4203 -0.4203,0.4203 -0.23172,0 -0.4203,-0.18855 -0.4203,-0.4203 z m 0,-2.52812 c 0,-0.23176 0.18858,-0.4203 0.4203,-0.4203 0.23176,0 0.4203,0.18854 0.4203,0.4203 0,0.23175 -0.18854,0.4203 -0.4203,0.4203 -0.23172,0 -0.4203,-0.18855 -0.4203,-0.4203 z m 0,-2.52813 c 0,-0.23175 0.18858,-0.4203 0.4203,-0.4203 0.23176,0 0.4203,0.18855 0.4203,0.4203 0,0.23175 -0.18854,0.4203 -0.4203,0.4203 -0.23172,0 -0.4203,-0.18855 -0.4203,-0.4203 z m 0,-2.52812 c 0,-0.23176 0.18858,-0.4203 0.4203,-0.4203 0.23176,0 0.4203,0.18854 0.4203,0.4203 0,0.23175 -0.18854,0.4203 -0.4203,0.4203 -0.23172,0 -0.4203,-0.18855 -0.4203,-0.4203 z m 0,-2.52813 c 0,-0.23175 0.18858,-0.4203 0.4203,-0.4203 0.23176,0 0.4203,0.18855 0.4203,0.4203 0,0.23175 -0.18854,0.4203 -0.4203,0.4203 -0.23172,0 -0.4203,-0.18855 -0.4203,-0.4203 z m 0,-2.52812 c 0,-0.23176 0.18858,-0.4203 0.4203,-0.4203 0.23176,0 0.4203,0.18854 0.4203,0.4203 0,0.23175 -0.18854,0.4203 -0.4203,0.4203 -0.23172,0 -0.4203,-0.18855 -0.4203,-0.4203 z m 0,-2.52813 c 0,-0.23175 0.18858,-0.4203 0.4203,-0.4203 0.23176,0 0.4203,0.18855 0.4203,0.4203 0,0.23175 -0.18854,0.4203 -0.4203,0.4203 -0.23172,0 -0.4203,-0.18855 -0.4203,-0.4203 z m 0,-2.52812 c 0,-0.23176 0.18858,-0.4203 0.4203,-0.4203 0.23176,0 0.4203,0.18854 0.4203,0.4203 0,0.23175 -0.18854,0.4203 -0.4203,0.4203 -0.23172,0 -0.4203,-0.18855 -0.4203,-0.4203 z m 0,-2.52813 c 0,-0.23175 0.18858,-0.4203 0.4203,-0.4203 0.23176,0 0.4203,0.18855 0.4203,0.4203 0,0.23175 -0.18854,0.4203 -0.4203,0.4203 -0.23172,0 -0.4203,-0.18855 -0.4203,-0.4203 z m 0,-2.52812 c 0,-0.23176 0.18858,-0.4203 0.4203,-0.4203 0.23176,0 0.4203,0.18854 0.4203,0.4203 0,0.23172 -0.18854,0.4203 -0.4203,0.4203 -0.23172,0 -0.4203,-0.18858 -0.4203,-0.4203 z m 0,-2.52813 c 0,-0.23175 0.18858,-0.4203 0.4203,-0.4203 0.23176,0 0.4203,0.18855 0.4203,0.4203 0,0.23173 -0.18854,0.4203 -0.4203,0.4203 -0.23172,0 -0.4203,-0.18857 -0.4203,-0.4203 z m 0,-2.52812 c 0,-0.23176 0.18858,-0.4203 0.4203,-0.4203 0.23176,0 0.4203,0.18854 0.4203,0.4203 0,0.23172 -0.18854,0.4203 -0.4203,0.4203 -0.23172,0 -0.4203,-0.18858 -0.4203,-0.4203 z m 0,-2.52813 c 0,-0.23175 0.18858,-0.4203 0.4203,-0.4203 0.23176,0 0.4203,0.18855 0.4203,0.4203 0,0.23173 -0.18854,0.4203 -0.4203,0.4203 -0.23172,0 -0.4203,-0.18857 -0.4203,-0.4203 z m 0,-2.52777 c 0,-0.23175 0.18858,-0.4203 0.4203,-0.4203 0.23176,0 0.4203,0.18855 0.4203,0.4203 0,0.23173 -0.18854,0.4203 -0.4203,0.4203 -0.23172,0 -0.4203,-0.18857 -0.4203,-0.4203 z m 0,-2.5278 c 0,-0.23172 0.18858,-0.4203 0.4203,-0.4203 0.23176,0 0.4203,0.18858 0.4203,0.4203 0,0.23176 -0.18854,0.4203 -0.4203,0.4203 -0.23172,0 -0.4203,-0.18854 -0.4203,-0.4203 z m 0,-2.52845 c 0,-0.23175 0.18858,-0.4203 0.4203,-0.4203 0.23176,0 0.4203,0.18855 0.4203,0.4203 0,0.23173 -0.18854,0.4203 -0.4203,0.4203 -0.23172,0 -0.4203,-0.18857 -0.4203,-0.4203 z m 0,-2.52848 c 0,-0.231752 0.18858,-0.420299 0.4203,-0.420299 0.23176,0 0.4203,0.188547 0.4203,0.420299 0,0.23173 -0.18854,0.4203 -0.4203,0.4203 -0.23172,0 -0.4203,-0.18857 -0.4203,-0.4203 z m -2.75985,48.24646 c -0.4881,0 -0.88487,-0.39676 -0.88487,-0.88484 0,-0.48806 0.39677,-0.88485 0.88484,-0.88485 0.48773,0 0.88449,0.39679 0.88449,0.88485 0,0.48808 -0.39676,0.88484 -0.88449,0.88484 z m 0,-46.68254 c -0.4881,0 -0.88487,-0.39678 -0.88487,-0.88484 0,-0.48808 0.39677,-0.884489 0.88484,-0.884489 0.48773,0 0.88449,0.396769 0.88449,0.884489 0,0.4877 -0.39676,0.88484 -0.88449,0.88484 z"
       fill="#006837"
       id="path3"
       style="fill:#3ab77d;fill-opacity:1;stroke-width:0.0252813" /><path
       d="m 154.11846,98.828045 h -20.10568 c -0.21984,0 -0.3982,0.178384 -0.3982,0.398179 v 0.537935 c 0.0692,0 0.13202,0.02073 0.18996,0.05021 v -0.547415 c 0,-0.137277 0.11132,-0.248944 0.24895,-0.248944 h 20.02426 a 0.24666916,0.24666916 0 0 1 0.17591,0.07304 l 0.14641,-0.146075 c -0.0723,-0.07233 -0.17169,-0.116925 -0.28161,-0.116925 z m -20.50388,4.313965 v 1.67911 c 0.0692,0 0.13202,0.0207 0.18996,0.0502 v -1.77917 c -0.0579,0.0291 -0.12079,0.0498 -0.18996,0.0498 z m 0,2.52813 v 1.67875 c 0.0692,0 0.13202,0.0207 0.18996,0.0502 v -1.77882 c -0.0579,0.0295 -0.12079,0.0499 -0.18996,0.0499 z m 0,2.52812 v 1.67842 c 0.0692,0 0.13202,0.0207 0.18996,0.0502 v -1.77846 c -0.0579,0.0292 -0.12079,0.0499 -0.18996,0.0499 z m 0,2.52777 v 1.67875 c 0.0692,0 0.13202,0.0207 0.18996,0.0502 v -1.77879 c -0.0579,0.0291 -0.12079,0.0498 -0.18996,0.0498 z m 0,2.52813 v 1.67875 c 0.0692,0 0.13202,0.0207 0.18996,0.0502 v -1.77879 c -0.0579,0.0291 -0.12079,0.0498 -0.18996,0.0498 z m 0,2.52812 v 1.67875 c 0.0692,0 0.13202,0.0207 0.18996,0.0502 v -1.77879 c -0.0579,0.0291 -0.12079,0.0498 -0.18996,0.0498 z m 0,2.52813 v 1.67875 c 0.0692,0 0.13202,0.0207 0.18996,0.0502 v -1.77879 c -0.0579,0.0291 -0.12079,0.0498 -0.18996,0.0498 z m 0,2.52812 v 1.67875 c 0.0692,0 0.13202,0.0207 0.18996,0.0502 v -1.77879 c -0.0579,0.0291 -0.12079,0.0498 -0.18996,0.0498 z m 0,2.52813 v 1.67875 c 0.0692,0 0.13202,0.0207 0.18996,0.0502 v -1.77879 c -0.0579,0.0291 -0.12079,0.0498 -0.18996,0.0498 z m 0,2.52812 v 1.67875 c 0.0692,0 0.13202,0.0207 0.18996,0.0502 v -1.77879 c -0.0579,0.0291 -0.12079,0.0498 -0.18996,0.0498 z m 0,2.52813 v 1.67875 c 0.0692,0 0.13202,0.0207 0.18996,0.0502 v -1.77879 c -0.0579,0.0291 -0.12079,0.0498 -0.18996,0.0498 z m 0,2.52812 v 1.67875 c 0.0692,0 0.13202,0.0207 0.18996,0.0502 v -1.77884 c -0.0579,0.0291 -0.12079,0.0499 -0.18996,0.0499 z m 0,2.52815 v 1.67873 c 0.0692,0 0.13202,0.0207 0.18996,0.0502 v -1.77879 c -0.0579,0.0291 -0.12079,0.0499 -0.18996,0.0499 z m 0,2.5281 v 1.67875 c 0.0692,0 0.13202,0.0207 0.18996,0.0502 v -1.77884 c -0.0579,0.0292 -0.12079,0.0499 -0.18996,0.0499 z m 0,2.52815 v 1.67873 c 0.0692,0 0.13202,0.0207 0.18996,0.0502 v -1.77884 c -0.0579,0.0292 -0.12079,0.0499 -0.18996,0.0499 z m 0,2.52813 v 1.67872 c 0.0692,0 0.13202,0.0207 0.18996,0.0502 v -1.77884 c -0.0579,0.0292 -0.12079,0.0499 -0.18996,0.0499 z m 0,2.52812 v 1.67873 c 0.0692,0 0.13202,0.0207 0.18996,0.0502 v -1.77884 c -0.0579,0.0292 -0.12079,0.0499 -0.18996,0.0499 z m 0,2.52813 v 1.67839 c 0.0692,0 0.13202,0.0207 0.18996,0.0502 v -1.77848 c -0.0579,0.0291 -0.12079,0.0499 -0.18996,0.0499 z m 0,-45.50628 v 1.67911 c 0.0692,0 0.13202,0.0207 0.18996,0.0502 v -1.77953 c -0.0579,0.0295 -0.12079,0.0502 -0.18996,0.0502 z m 0.11657,48.85953 0.14643,-0.14605 a 0.24811019,0.24811019 0 0 1 -0.0731,-0.1759 v -0.55341 c -0.0579,0.0295 -0.12077,0.0502 -0.18994,0.0502 v 0.54426 c 0,0.10919 0.0446,0.20892 0.11657,0.28087 z"
       fill="#33865f"
       id="path4"
       style="stroke-width:0.0252813" /><circle
       r="1.2356211"
       cx="138.39731"
       cy="147.55028"
       fill="none"
       stroke="#fcee21"
       stroke-width="0.702263"
       id="circle4" /><circle
       r="1.2356211"
       cx="149.73355"
       cy="147.55028"
       fill="none"
       stroke="#fcee21"
       stroke-width="0.702263"
       id="circle5" /><circle
       r="1.2356211"
       cx="138.39731"
       cy="100.86774"
       fill="none"
       stroke="#fcee21"
       stroke-width="0.702263"
       id="circle6" /><circle
       r="1.2356211"
       cx="149.73355"
       cy="100.86774"
       fill="none"
       stroke="#fcee21"
       stroke-width="0.702263"
       id="circle7" /><path
       d="m 140.55888,120.70229 h 7.01348 v 7.01345 h -7.01348 z"
       fill="#30312e"
       id="path7"
       style="stroke-width:0.0252813" /><path
       d="m 147.35009,102.80984 h -6.56929 a 0.19916569,0.19916569 0 0 1 -0.19909,-0.19909 v -4.893311 a 0.19916569,0.19916569 0 0 1 0.19909,-0.19909 h 6.56929 a 0.19916569,0.19916569 0 0 1 0.19909,0.19909 v 4.893291 a 0.19916569,0.19916569 0 0 1 -0.19909,0.19909 z"
       fill="#363a44"
       id="path8"
       style="stroke-width:0.0252813" /><path
       d="m 141.08064,96.8375 a 0.19954491,0.19954491 0 0 0 -0.19062,0.141499 l -0.10922,0.361674 -0.19909,0.19909 v 5.070967 a 0.19916569,0.19916569 0 0 0 0.19909,0.19909 h 1.21489 a 0.09927947,0.09927947 0 0 0 0.0994,-0.0994 v -0.29073 a 0.19866006,0.19866006 0 0 0 -0.10357,-0.17452 l -0.67628,-0.36938 a 0.19866006,0.19866006 0 0 1 -0.1036,-0.17452 v -0.29038 h 0.44174 v -0.33533 h 0.68259 v 0.33462 h 0.4017 v 0.69208 a 0.19916569,0.19916569 0 0 0 0.19909,0.19908 h 0.32304 v -0.35884 h 1.61133 v 0.35884 h 0.32304 a 0.19916569,0.19916569 0 0 0 0.19909,-0.19908 v -0.69208 h 0.40169 v -0.33457 h 0.6826 v 0.33462 h 0.44171 v 0.29038 a 0.19866006,0.19866006 0 0 1 -0.10357,0.17452 l -0.67628,0.36974 a 0.19866006,0.19866006 0 0 0 -0.10358,0.17451 v 0.29074 c 0,0.0551 0.0446,0.0994 0.0994,0.0994 h 1.21492 a 0.19916569,0.19916569 0 0 0 0.19909,-0.19909 v -5.070683 l -0.19909,-0.199064 -0.10922,-0.361674 A 0.19954491,0.19954491 0 0 0 147.05025,96.8375 Z"
       fill="#cccccc"
       id="path9"
       style="stroke-width:0.0252813" /><path
       d="m 140.80012,97.849812 c -0.0874,-0.116572 -0.17629,-0.234206 -0.256,-0.368702 -0.0815,-0.13308 -0.14044,-0.291771 -0.16888,-0.440298 l -7.1e-4,-0.0046 a 0.11879659,0.11879659 0 0 1 0.0944,-0.139426 c 0.0601,-0.01158 0.11832,0.02457 0.13627,0.08146 0.0786,0.253875 0.25913,0.435419 0.46065,0.641512 0.0685,0.06884 0.0681,0.180508 -6.8e-4,0.24897 -0.0688,0.06846 -0.18051,0.06811 -0.24897,0 -0.005,-0.0053 -0.0116,-0.01264 -0.0162,-0.01828 z m 6.2652,-0.230009 c 0.20189,-0.206093 0.38202,-0.387637 0.46067,-0.641512 a 0.11909997,0.11909997 0 0 1 0.14924,-0.0783 0.119732,0.119732 0 0 1 0.0818,0.135887 l -10e-4,0.0049 c -0.0288,0.148148 -0.0874,0.307218 -0.1689,0.440298 -0.0797,0.134496 -0.16855,0.25213 -0.25598,0.368702 -0.0583,0.07761 -0.16855,0.09339 -0.24649,0.03512 a 0.17621031,0.17621031 0 0 1 -0.0351,-0.246492 c 0.004,-0.006 0.0105,-0.01335 0.0158,-0.01863 z m -4.04748,36.429957 h -2.58781 a 0.19916569,0.19916569 0 0 1 -0.19909,-0.19909 v -1.59237 a 0.19916569,0.19916569 0 0 1 0.19909,-0.19909 h 2.58781 a 0.19916569,0.19916569 0 0 1 0.19909,0.19909 v 1.59237 a 0.19916569,0.19916569 0 0 1 -0.19909,0.19909 z"
       fill="#cccccc"
       id="path10"
       style="stroke-width:0.0252813" /><path
       d="m 141.29361,115.90351 v 2.98599 h -1.99055 v -2.98599 z m 6.83145,-7.88156 v 2.48846 h -2.48846 v -2.48846 z m 2.59534,-4.30567 v 2.48845 h -1.493 v -2.48845 z"
       fill="#2a2d2e"
       id="path11"
       style="stroke-width:0.0252813" /><path
       d="m 139.26496,108.36681 h 2.58784 a 0.19916569,0.19916569 0 0 1 0.19909,0.19909 v 3.58326 a 0.19916569,0.19916569 0 0 1 -0.19909,0.19909 h -2.58786 a 0.19916569,0.19916569 0 0 1 -0.19909,-0.19909 v -3.58326 a 0.19916569,0.19916569 0 0 1 0.19909,-0.19909 z"
       fill="#cccccc"
       id="path12"
       style="fill:#78726e;fill-opacity:1;stroke-width:0.0252813" /><path
       d="m 140.55888,108.61576 c 0.68715,0 1.24404,0.55689 1.24404,1.24404 v 0.99545 c 0,0.68716 -0.55689,1.24406 -1.24404,1.24406 -0.68714,0 -1.24406,-0.5569 -1.24406,-1.24406 v -0.99545 c 0,-0.68715 0.55689,-1.24404 1.24406,-1.24404 z m -1.49301,-0.0499 v 0.37394 c 0,0.17732 0.21454,0.26616 0.33989,0.14081 l 0.37396,-0.37396 c 0.12537,-0.12534 0.0365,-0.33988 -0.14082,-0.33988 h -0.37394 a 0.19916569,0.19916569 0 0 0 -0.19909,0.19909 z m 2.78693,-0.19909 h -0.37398 c -0.17732,0 -0.26616,0.21454 -0.14082,0.33988 l 0.37396,0.37396 c 0.12535,0.12535 0.33991,0.0365 0.33991,-0.14081 v -0.37394 a 0.19916569,0.19916569 0 0 0 -0.19909,-0.19909 z"
       fill="#ffffff"
       id="path13"
       style="stroke-width:0.0252813" /><path
       d="m 142.05189,112.13862 v -0.37393 c 0,-0.17733 -0.21456,-0.26616 -0.3399,-0.14082 l -0.37396,0.37396 c -0.12535,0.12535 -0.0365,0.33988 0.14081,0.33988 h 0.37396 a 0.19916569,0.19916569 0 0 0 0.19909,-0.19909 z m -2.78693,0.19909 h 0.37396 c 0.17733,0 0.26617,-0.21453 0.14082,-0.33988 l -0.37398,-0.37396 c -0.12535,-0.12534 -0.33989,-0.0365 -0.33989,0.14082 v 0.37393 a 0.19916569,0.19916569 0 0 0 0.19909,0.19909 z"
       fill="#ffffff"
       id="path14"
       style="stroke-width:0.0252813" /><path
       d="m 148.97863,110.31137 v -2.09028 a 0.19916569,0.19916569 0 0 1 0.19909,-0.19909 h 1.59236 a 0.19916569,0.19916569 0 0 1 0.19909,0.19909 v 2.09025 a 0.19916569,0.19916569 0 0 1 -0.19909,0.19912 h -1.59236 a 0.19916569,0.19916569 0 0 1 -0.19909,-0.19909 z"
       fill="#2a2d2e"
       id="path15"
       style="stroke-width:0.0252813" /><g
       fill="#eeeeee"
       id="g17"
       transform="matrix(0.02528125,0,0,0.02528125,133.61458,96.8375)"><path
         fill="#c6c6c6"
         d="m 160,248 h 52 v 24 h -52 z"
         id="path16" /><path
         stroke="#aaaaaa"
         d="m 172,246 h 27 v 28 h -27 z"
         id="path17" /></g><circle
       r="0.42030078"
       cx="138.3313"
       cy="106.04058"
       fill="#9a916c"
       id="circle17"
       style="stroke-width:0.0252813" /><circle
       r="0.42030078"
       cx="150.07591"
       cy="143.58713"
       fill="#9a916c"
       id="circle18"
       style="stroke-width:0.0252813" /><path
       d="m 147.10711,139.61479 -0.0723,-0.10886 c 0,-0.83357 -0.38064,-1.15975 -0.8336,-1.41327 0.12676,-0.0361 0.27177,-0.0723 0.30795,-0.23562 0.23562,-0.0544 0.27177,-0.16292 0.30793,-0.27178 0.0544,-0.0361 0.27177,-0.16291 0.23562,-0.34445 0.10886,-0.0723 0.18119,-0.18117 0.14501,-0.32621 0.12676,-0.12673 0.16294,-0.23559 0.10886,-0.34446 0.14501,-0.18116 0.0906,-0.27177 0.0183,-0.3806 0.10887,-0.19945 0.0183,-0.41679 -0.29002,-0.38064 -0.12676,-0.18116 -0.38064,-0.14501 -0.43507,-0.14501 -0.0544,-0.0544 -0.10883,-0.10884 -0.29002,-0.0906 -0.12676,-0.10886 -0.25388,-0.0906 -0.39854,-0.0361 -0.16291,-0.12678 -0.27177,-0.0183 -0.39853,0.0182 -0.19944,-0.0723 -0.25388,0.0183 -0.34446,0.0544 -0.21734,-0.0544 -0.29002,0.0544 -0.39853,0.16294 h -0.12676 c -0.32621,0.19944 -0.48912,0.5797 -0.5618,0.77917 -0.0544,-0.19947 -0.21734,-0.59801 -0.5618,-0.77917 h -0.12676 c -0.10886,-0.10886 -0.16294,-0.19947 -0.39854,-0.16294 -0.0906,-0.0362 -0.14501,-0.12673 -0.34445,-0.0544 -0.0906,-0.0183 -0.16294,-0.0724 -0.25388,-0.0724 -0.0544,0 -0.0906,0.0183 -0.16293,0.0544 -0.14502,-0.0544 -0.27178,-0.0723 -0.39854,0.0362 -0.18116,-0.0182 -0.25385,0.0183 -0.29002,0.0906 -0.0362,0 -0.30793,-0.0362 -0.43504,0.14501 -0.30793,-0.0361 -0.39854,0.1812 -0.29003,0.38064 -0.0544,0.0906 -0.12676,0.18116 0.0182,0.38061 -0.0544,0.10886 -0.0182,0.21737 0.10884,0.34446 -0.0361,0.14501 0.0361,0.23562 0.14501,0.3262 -0.0182,0.19944 0.18119,0.30793 0.23562,0.34446 0.0183,0.10886 0.0723,0.21734 0.30793,0.27177 0.0362,0.16294 0.18119,0.19944 0.30795,0.23562 -0.45297,0.25385 -0.83357,0.59795 -0.83357,1.41327 l -0.0723,0.10886 c -0.5074,0.30793 -0.97862,1.28654 -0.25388,2.10186 0.0544,0.25388 0.12676,0.43504 0.19945,0.63413 0.10883,0.79742 0.79742,1.1777 0.97858,1.23211 0.27178,0.19947 0.54355,0.38063 0.92418,0.52565 0.36236,0.36235 0.74302,0.50739 1.14153,0.50739 h 0.0183 c 0.39853,0 0.77917,-0.14504 1.14152,-0.50739 0.38064,-0.12676 0.67031,-0.32621 0.92419,-0.52565 0.18119,-0.0361 0.86975,-0.41679 0.97861,-1.23211 0.0723,-0.19944 0.14501,-0.38061 0.19942,-0.63413 0.79671,-0.81567 0.34377,-1.79426 -0.18152,-2.10221 z m -0.38064,-0.14501 c -0.0182,0.3262 -1.75775,-1.15978 -1.46773,-1.21421 0.81532,-0.12676 1.48599,0.34446 1.46773,1.21421 z m -0.77917,1.64889 c -0.43504,0.29003 -1.06916,0.10886 -1.39537,-0.39853 -0.34446,-0.5074 -0.25387,-1.14153 0.18119,-1.43155 0.43504,-0.29003 1.0692,-0.10884 1.39538,0.39853 0.34412,0.52565 0.25352,1.15978 -0.18117,1.43155 z m -1.19592,-5.12822 c 0.0182,0.0723 0.0361,0.12676 0.0544,0.12676 0.0906,-0.10887 0.18116,-0.21735 0.29002,-0.30793 0,0.0544 -0.0362,0.12673 0.0361,0.16291 0.0724,-0.0906 0.16294,-0.16294 0.27178,-0.23562 -0.0544,0.0906 -0.0183,0.12676 0.0183,0.16294 0.0906,-0.0723 0.18116,-0.16294 0.34445,-0.21734 -0.0544,0.0544 -0.10886,0.10883 -0.0361,0.18116 0.0906,-0.0544 0.18117,-0.10883 0.41676,-0.16291 -0.0544,0.0544 -0.16291,0.10883 -0.0906,0.16291 0.12676,-0.0361 0.25387,-0.0723 0.39853,-0.0906 -0.0723,0.0544 -0.12676,0.10883 -0.0723,0.16291 0.12676,-0.0362 0.30793,-0.0906 0.47122,-0.0544 l -0.10886,0.10883 c -0.0182,0.0182 0.25387,0.0182 0.41681,0.0182 -0.0544,0.0906 -0.12676,0.1812 -0.16294,0.32621 0.0183,0.0182 0.10887,0 0.18119,0 -0.0906,0.18119 -0.23562,0.21734 -0.25387,0.29003 0.0544,0.0361 0.12676,0.0361 0.19944,0 -0.0544,0.12676 -0.18119,0.19946 -0.29002,0.30792 0.0182,0.0183 0.0723,0.0362 0.18116,0.0183 -0.0906,0.0906 -0.19944,0.18119 -0.32618,0.27177 0.0183,0.0183 0.10884,0.0183 0.18117,0.0361 -0.12676,0.10887 -0.27177,0.1812 -0.41679,0.25388 0.0723,0.0544 0.12676,0.0361 0.18119,0.0361 -0.10886,0.0906 -0.27177,0.12679 -0.43506,0.18119 0.0361,0.0544 0.0544,0.0544 0.12676,0.0724 -0.16291,0.0906 -0.41679,0.0544 -0.48912,0.0906 0.0183,0.0544 0.0544,0.0723 0.12676,0.10884 -0.27177,0.0183 -1.01479,-0.0183 -1.15977,-0.5797 0.27177,-0.30793 0.79739,-0.67031 1.66714,-1.10535 -0.68856,0.23562 -1.30476,0.52562 -1.81216,0.96033 -0.63451,-0.28969 -0.21772,-0.99651 0.0906,-1.28656 z m -0.61624,2.04778 c 0.43504,0 0.96034,0.30792 0.96034,0.61623 0,0.27177 -0.38064,0.48911 -0.96034,0.47121 -0.57969,0 -0.96035,-0.27177 -0.96035,-0.52564 0,-0.2177 0.47124,-0.58006 0.96035,-0.5618 z m -2.19246,-0.23562 c 0.0723,-0.0183 0.0906,-0.0183 0.12676,-0.0723 -0.16291,-0.0544 -0.3262,-0.0906 -0.43504,-0.18119 0.0544,0 0.10884,0.0182 0.18116,-0.0362 -0.14501,-0.0724 -0.29002,-0.14504 -0.41678,-0.2539 0.0723,0 0.16294,0 0.18119,-0.0361 -0.12676,-0.0723 -0.23562,-0.16292 -0.32621,-0.27178 0.10887,0.0183 0.14502,0 0.1812,-0.0182 -0.0906,-0.10886 -0.21737,-0.18119 -0.29006,-0.30793 0.0724,0.0182 0.14504,0.0362 0.19947,0 -0.0362,-0.0724 -0.18119,-0.12678 -0.25387,-0.29005 0.0723,0 0.16291,0.0183 0.18116,0 -0.0361,-0.14501 -0.10883,-0.23562 -0.16291,-0.3262 0.18119,0 0.43504,0 0.41679,-0.0182 l -0.10884,-0.10887 c 0.16291,-0.0362 0.34446,0 0.47119,0.0544 0.0544,-0.0362 0,-0.0906 -0.0723,-0.16291 0.14499,0.0183 0.27177,0.0544 0.39851,0.0906 0.0544,-0.0544 -0.0361,-0.10884 -0.0906,-0.16292 0.21734,0.0362 0.3262,0.10884 0.41678,0.16292 0.0723,-0.0723 0,-0.12676 -0.0361,-0.1812 0.16291,0.0544 0.25385,0.14502 0.34446,0.21737 0.0361,-0.0362 0.0723,-0.0724 0.0182,-0.16293 0.12676,0.0723 0.21734,0.14501 0.27177,0.23562 0.0723,-0.0544 0.0362,-0.10886 0.0362,-0.16294 0.12676,0.0906 0.19946,0.19944 0.29005,0.30792 0.0182,-0.0182 0.0361,-0.0544 0.0544,-0.12673 0.29002,0.29003 0.70681,0.99651 0.10883,1.26861 -0.50739,-0.41678 -1.12362,-0.72471 -1.81216,-0.96033 0.86973,0.45296 1.39538,0.79742 1.66715,1.10535 -0.14501,0.56182 -0.888,0.59797 -1.15978,0.57972 0.0544,-0.0182 0.10884,-0.0544 0.12676,-0.10886 -0.0906,-0.0182 -0.3262,0.0179 -0.50739,-0.0727 z m 1.06884,0.43471 c 0.30793,0.0544 -1.43155,1.54038 -1.46773,1.2142 -0.0179,-0.86975 0.65241,-1.34096 1.46773,-1.2142 z m -1.83011,3.31639 c -0.41676,-0.32618 -0.56177,-1.30476 0.21737,-1.75773 0.47124,-0.10886 0.16329,1.93892 -0.21734,1.75776 z m 1.61277,1.75776 c -0.23562,0.14501 -0.81532,0.0906 -1.23211,-0.48912 -0.27177,-0.48912 -0.23562,-0.97859 -0.0544,-1.1236 0.29003,-0.18119 0.74299,0.0544 1.08709,0.45294 0.30828,0.3441 0.4533,0.97826 0.19945,1.15978 z m -0.47125,-2.13837 c -0.43504,-0.29002 -0.50737,-0.92418 -0.18116,-1.43155 0.34446,-0.50739 0.96033,-0.68856 1.3954,-0.39853 0.43504,0.29002 0.50739,0.92418 0.18119,1.43155 -0.32621,0.50739 -0.96036,0.68856 -1.3954,0.39853 z m 1.81221,3.13488 c -0.52564,0.0183 -1.03304,-0.41679 -1.03304,-0.5797 0,-0.21737 0.63416,-0.39856 1.05094,-0.39856 0.41679,-0.0182 0.99651,0.12678 0.99651,0.34448 0.0186,0.19871 -0.50704,0.63378 -1.01441,0.63378 z m 1.05095,-2.22898 c 0,0.52565 -0.47125,0.96034 -1.05095,0.96034 -0.57969,0 -1.05094,-0.41679 -1.05094,-0.96034 v -0.0182 c 0,-0.52565 0.47125,-0.96033 1.05094,-0.96033 0.5797,0.0182 1.05095,0.43504 1.05095,0.97858 z m 1.4677,0.76125 c -0.45296,0.61625 -1.05094,0.63415 -1.28654,0.47124 -0.23562,-0.21737 -0.0544,-0.90593 0.27178,-1.28656 0.38063,-0.41679 0.77916,-0.68856 1.05094,-0.47119 0.18152,0.18116 0.29002,0.86972 -0.0362,1.28651 z m 0.39889,-1.30477 c -0.38064,0.16292 -0.68856,-1.86661 -0.21735,-1.75778 0.77917,0.45297 0.65206,1.43158 0.21735,1.75776 z"
       fill="#ffffff"
       id="path18"
       style="stroke-width:0.0252813" /><path
       d="m 133.61458,145.82763 h 20.90206 v 1.18471 h -20.90206 z"
       fill="none"
       id="path19"
       style="stroke-width:0.0252813" /><text
       font-size="0.983163px"
       transform="rotate(-90)"
       fill="#ffffff"
       stroke-width="0.351131"
       id="text25"
       x="-96.837502"
       y="133.61458"><tspan
         x="-113.46098"
         y="138.36746"
         id="tspan19"
         style="stroke-width:0.351131">B</tspan><tspan
         x="-112.57475"
         y="138.36746"
         id="tspan20"
         style="stroke-width:0.351131">O</tspan><tspan
         x="-111.53973"
         y="138.36746"
         id="tspan21"
         style="stroke-width:0.351131">O</tspan><tspan
         x="-110.5414"
         y="138.36746"
         id="tspan22"
         style="stroke-width:0.351131">T</tspan><tspan
         x="-109.79267"
         y="138.36746"
         id="tspan23"
         style="stroke-width:0.351131">S</tspan><tspan
         x="-109.03194"
         y="138.36746"
         id="tspan24"
         style="stroke-width:0.351131">E</tspan><tspan
         x="-108.26025"
         y="138.36746"
         id="tspan25"
         style="stroke-width:0.351131">L</tspan></text><text
       font-size="0.983163px"
       fill="#ffffff"
       stroke-width="0.351131"
       id="text35"
       x="133.61458"
       y="96.837502"><tspan
         x="137.15836"
         y="104.96029"
         id="tspan26"
         style="stroke-width:0.351131">L</tspan><tspan
         x="137.88499"
         y="104.96029"
         id="tspan27"
         style="stroke-width:0.351131">E</tspan><tspan
         x="138.65665"
         y="104.96029"
         id="tspan28"
         style="stroke-width:0.351131">D</tspan><tspan
         x="136.05458"
         y="100.60901"
         id="tspan29"
         style="stroke-width:0.351131">1</tspan><tspan
         x="136.05458"
         y="103.13754"
         id="tspan30"
         style="stroke-width:0.351131">2</tspan><tspan
         x="150.61981"
         y="103.13754"
         id="tspan31"
         style="stroke-width:0.351131">3</tspan><tspan
         x="151.41963"
         y="103.13754"
         id="tspan32"
         style="stroke-width:0.351131">9</tspan><tspan
         x="142.75156"
         y="104.96029"
         id="tspan33"
         style="stroke-width:0.351131">U</tspan><tspan
         x="143.73259"
         y="104.96029"
         id="tspan34"
         style="stroke-width:0.351131">S</tspan><tspan
         x="144.49348"
         y="104.96029"
         id="tspan35"
         style="stroke-width:0.351131">B</tspan></text><path
       d="m 136.53879,113.83914 h 2.20159 v 31.42146 h -2.20159 z"
       fill="none"
       id="path35"
       style="stroke-width:0.0252813" /><path
       d="m 145.53762,123.77348 -0.0339,-0.0505 c 0,-0.38816 -0.17735,-0.54005 -0.3882,-0.65839 0.059,-0.0169 0.12646,-0.0339 0.14342,-0.10986 0.10986,-0.0254 0.12641,-0.0759 0.14337,-0.12643 0.0254,-0.0169 0.12646,-0.0759 0.10986,-0.16036 0.0505,-0.0339 0.0844,-0.0844 0.0675,-0.15187 0.059,-0.059 0.0759,-0.10986 0.0505,-0.16036 0.0675,-0.0844 0.042,-0.12642 0.008,-0.17731 0.0505,-0.093 0.008,-0.19427 -0.13495,-0.17732 -0.0589,-0.0844 -0.17732,-0.0674 -0.20235,-0.0674 -0.0254,-0.0254 -0.0505,-0.0505 -0.13491,-0.042 -0.059,-0.0505 -0.11794,-0.042 -0.18579,-0.017 -0.0759,-0.059 -0.12644,-0.008 -0.18584,0.008 -0.0928,-0.0339 -0.11792,0.008 -0.16032,0.0254 -0.10135,-0.0254 -0.13495,0.0254 -0.18584,0.0759 h -0.059 c -0.15185,0.0929 -0.22779,0.27023 -0.26174,0.36272 -0.0254,-0.093 -0.10134,-0.27833 -0.26174,-0.36272 h -0.059 c -0.0505,-0.0505 -0.0759,-0.0928 -0.18581,-0.0759 -0.042,-0.0169 -0.0675,-0.059 -0.16036,-0.0254 -0.042,-0.008 -0.0759,-0.0339 -0.11793,-0.0339 -0.0254,0 -0.042,0.008 -0.0759,0.0254 -0.0675,-0.0254 -0.12644,-0.0339 -0.18582,0.017 -0.0844,-0.008 -0.11794,0.008 -0.1349,0.042 -0.017,0 -0.14336,-0.0169 -0.20238,0.0674 -0.14338,-0.017 -0.18578,0.0844 -0.13488,0.17732 -0.0254,0.042 -0.059,0.0844 0.008,0.17731 -0.0254,0.0505 -0.008,0.10135 0.0505,0.16036 -0.0169,0.0675 0.017,0.10986 0.0675,0.15187 -0.008,0.093 0.0844,0.14337 0.10986,0.16036 0.008,0.0505 0.0339,0.10135 0.14337,0.12643 0.0169,0.0759 0.0844,0.093 0.14338,0.10986 -0.21085,0.11796 -0.38816,0.27832 -0.38816,0.65839 l -0.0339,0.0505 c -0.2363,0.14336 -0.45563,0.59901 -0.11796,0.97871 0.0254,0.11792 0.059,0.20236 0.093,0.29527 0.0505,0.37118 0.37121,0.54849 0.4556,0.57397 0.12645,0.0928 0.25329,0.17732 0.43019,0.24477 0.16885,0.16885 0.34616,0.23629 0.53157,0.23629 h 0.008 c 0.18582,0 0.36272,-0.0675 0.53155,-0.23629 0.17735,-0.0589 0.31225,-0.15187 0.43018,-0.24477 0.0844,-0.017 0.40513,-0.19427 0.45564,-0.57397 0.0339,-0.093 0.0675,-0.17735 0.0928,-0.29527 0.37203,-0.3797 0.16118,-0.83531 -0.0836,-0.97871 z m -0.17691,-0.0675 c -0.008,0.15189 -0.81876,-0.54004 -0.68344,-0.56548 0.37929,-0.059 0.69152,0.16036 0.68344,0.56548 z m -0.36313,0.76786 c -0.20236,0.13494 -0.49803,0.0505 -0.6499,-0.18581 -0.16036,-0.2363 -0.11796,-0.53154 0.0844,-0.66645 0.2024,-0.13495 0.49805,-0.0505 0.64995,0.1858 0.16036,0.24477 0.11837,0.54004 -0.0844,0.66646 z m -0.55701,-2.38797 c 0.008,0.0339 0.0169,0.059 0.0254,0.059 0.042,-0.0505 0.0844,-0.10134 0.13492,-0.14338 0,0.0254 -0.0169,0.0589 0.0169,0.0759 0.0339,-0.042 0.0759,-0.0759 0.12644,-0.10986 -0.0254,0.042 -0.008,0.059 0.008,0.0759 0.042,-0.0339 0.0844,-0.0759 0.16036,-0.10134 -0.0254,0.0254 -0.0505,0.0505 -0.0169,0.0844 0.042,-0.0254 0.0844,-0.0505 0.19427,-0.0759 -0.0254,0.0254 -0.0759,0.0505 -0.042,0.0759 0.059,-0.017 0.11794,-0.0339 0.18581,-0.042 -0.0339,0.0254 -0.059,0.0505 -0.0339,0.0759 0.059,-0.0169 0.14338,-0.042 0.21934,-0.0254 l -0.0505,0.0505 c -0.008,0.008 0.11793,0.008 0.19427,0.008 -0.0254,0.042 -0.0589,0.0844 -0.0759,0.15186 0.008,0.008 0.0505,0 0.0844,0 -0.042,0.0844 -0.10985,0.10134 -0.11795,0.13491 0.0254,0.0169 0.059,0.0169 0.093,0 -0.0254,0.059 -0.0844,0.093 -0.13495,0.14338 0.008,0.008 0.0339,0.017 0.0844,0.008 -0.042,0.042 -0.093,0.0844 -0.1519,0.12646 0.008,0.008 0.0505,0.008 0.0844,0.0169 -0.059,0.0505 -0.12642,0.0844 -0.19427,0.11793 0.0339,0.0254 0.0589,0.017 0.0844,0.017 -0.0505,0.042 -0.12641,0.059 -0.20235,0.0844 0.0169,0.0254 0.0254,0.0254 0.059,0.0339 -0.0759,0.042 -0.19427,0.0254 -0.2278,0.042 0.008,0.0254 0.0254,0.0339 0.0589,0.0505 -0.12642,0.008 -0.47259,-0.008 -0.54006,-0.27023 0.12645,-0.14338 0.37124,-0.31223 0.77635,-0.51459 -0.32068,0.10986 -0.6075,0.24476 -0.8438,0.44715 -0.29605,-0.1341 -0.10215,-0.46329 0.0412,-0.59822 z m -0.28679,0.95363 c 0.20236,0 0.44715,0.1434 0.44715,0.2868 0,0.12643 -0.17732,0.22781 -0.44715,0.21934 -0.27023,0 -0.44714,-0.12645 -0.44714,-0.24478 0,-0.10135 0.21932,-0.26983 0.44714,-0.26134 z m -1.02111,-0.10986 c 0.0339,-0.008 0.042,-0.008 0.0589,-0.0339 -0.0759,-0.0254 -0.15186,-0.042 -0.20235,-0.0844 0.0254,0 0.0505,0.008 0.0844,-0.017 -0.0675,-0.0339 -0.13495,-0.0675 -0.19428,-0.11792 0.0339,0 0.0759,0 0.0844,-0.017 -0.059,-0.0339 -0.10986,-0.0759 -0.15187,-0.12641 0.0505,0.008 0.0675,0 0.0844,-0.008 -0.042,-0.0505 -0.10147,-0.0844 -0.13495,-0.14339 0.0339,0.008 0.0675,0.0169 0.093,0 -0.0169,-0.0339 -0.0844,-0.059 -0.11794,-0.13491 0.0339,0 0.0759,0.008 0.0844,0 -0.0169,-0.0675 -0.0505,-0.10986 -0.0759,-0.15187 0.0844,0 0.20236,0 0.19428,-0.008 l -0.0505,-0.0505 c 0.0759,-0.0169 0.16037,0 0.21931,0.0254 0.0254,-0.0169 0,-0.042 -0.0339,-0.0759 0.0675,0.008 0.12642,0.0254 0.1858,0.042 0.0254,-0.0254 -0.017,-0.0505 -0.042,-0.0759 0.10135,0.0169 0.15187,0.0505 0.19428,0.0759 0.0339,-0.0339 0,-0.0589 -0.0169,-0.0844 0.0759,0.0254 0.11795,0.0675 0.16036,0.10134 0.017,-0.017 0.0339,-0.0339 0.008,-0.0759 0.059,0.0339 0.10135,0.0675 0.12641,0.10986 0.0339,-0.0254 0.017,-0.0505 0.017,-0.0759 0.0589,0.042 0.0928,0.0928 0.13488,0.14337 0.008,-0.008 0.017,-0.0254 0.0254,-0.059 0.13495,0.13492 0.32922,0.4641 0.0505,0.59055 -0.2363,-0.19427 -0.52311,-0.3377 -0.8438,-0.44714 0.40511,0.21085 0.64991,0.37118 0.77632,0.51459 -0.0675,0.26174 -0.41361,0.27831 -0.54006,0.27023 0.0254,-0.008 0.0505,-0.0254 0.059,-0.0505 -0.0428,-0.009 -0.15268,0.008 -0.23707,-0.0343 z m 0.49804,0.20236 c 0.14338,0.0254 -0.66649,0.71737 -0.68344,0.5655 -0.008,-0.40512 0.30374,-0.62446 0.68344,-0.5655 z m -0.85229,1.54459 c -0.19428,-0.15187 -0.26175,-0.60748 0.10134,-0.81873 0.21934,-0.0505 0.0755,0.90276 -0.10134,0.81873 z m 0.7509,0.81838 c -0.10986,0.0674 -0.37969,0.042 -0.574,-0.22783 -0.12641,-0.2278 -0.10986,-0.45563 -0.0254,-0.52308 0.13494,-0.0844 0.34617,0.0254 0.50653,0.21085 0.14337,0.16036 0.21125,0.45564 0.093,0.54006 z m -0.21933,-0.99569 c -0.20239,-0.13492 -0.2363,-0.43017 -0.0844,-0.66646 0.16036,-0.2363 0.44714,-0.32072 0.64991,-0.18583 0.20278,0.13494 0.23629,0.43019 0.0844,0.66648 -0.15227,0.2363 -0.44755,0.32072 -0.6499,0.18583 z m 0.84379,1.45979 c -0.24478,0.008 -0.48108,-0.19427 -0.48108,-0.27023 0,-0.10135 0.29528,-0.18582 0.48957,-0.18582 0.19428,-0.008 0.46411,0.059 0.46411,0.16038 0.008,0.0933 -0.2363,0.29567 -0.4726,0.29567 z m 0.48955,-1.03809 c 0,0.24478 -0.21931,0.44714 -0.48955,0.44714 -0.27023,0 -0.48958,-0.19427 -0.48958,-0.44714 v -0.008 c 0,-0.24478 0.21935,-0.44714 0.48958,-0.44714 0.27024,0.008 0.48955,0.20276 0.48955,0.45561 z m 0.68344,0.35465 c -0.21085,0.28675 -0.48955,0.29528 -0.59901,0.21932 -0.10986,-0.10135 -0.0254,-0.42208 0.12642,-0.59902 0.17734,-0.19427 0.36274,-0.32072 0.48957,-0.21934 0.0844,0.0841 0.13491,0.40475 -0.017,0.59904 z m 0.18583,-0.60753 c -0.17734,0.0759 -0.32074,-0.86922 -0.10146,-0.81873 0.36272,0.21085 0.30376,0.66686 0.10135,0.81876 z"
       fill="#3d3f38"
       id="path78"
       style="fill:#91877a;fill-opacity:1;stroke-width:0.0252813" /><path
       d="m 135.91062,102.71716 c 0,-0.38238 -0.31111,-0.69349 -0.69346,-0.69349 h -1.60258 v 0.26897 c 0.23421,0 0.42488,0.19031 0.42488,0.42452 0,0.23418 -0.19067,0.42485 -0.42488,0.42485 v 0.26897 h 1.60258 c 0.38235,-3.5e-4 0.69346,-0.31147 0.69346,-0.69382 z m -0.69346,0.4203 c -0.23178,0 -0.42033,-0.18857 -0.42033,-0.4203 0,-0.23175 0.18855,-0.4203 0.4203,-0.4203 0.23176,0 0.4203,0.18855 0.4203,0.4203 0,0.23173 -0.18854,0.4203 -0.4203,0.4203 z m 0.69346,1.41469 h -2.29604 v 0.26897 c 0.23421,0 0.42488,0.19031 0.42488,0.42449 0,0.23421 -0.19067,0.42453 -0.42488,0.42453 v 0.26896 h 2.29604 z m -0.69346,1.11376 c -0.23178,0 -0.42033,-0.18854 -0.42033,-0.4203 0,-0.23172 0.18855,-0.4203 0.4203,-0.4203 0.23176,0 0.4203,0.18858 0.4203,0.4203 0,0.23176 -0.18854,0.4203 -0.4203,0.4203 z m 0.69346,2.1075 c 0,-0.38238 -0.31111,-0.69349 -0.69346,-0.69349 h -1.60258 v 0.26897 c 0.23421,0 0.42488,0.19031 0.42488,0.42452 0,0.23418 -0.19067,0.42485 -0.42488,0.42485 v 0.26897 h 1.60258 c 0.38235,-3.5e-4 0.69346,-0.31147 0.69346,-0.69382 z m -0.69346,0.4203 c -0.23178,0 -0.42033,-0.18857 -0.42033,-0.4203 0,-0.23175 0.18855,-0.4203 0.4203,-0.4203 0.23176,0 0.4203,0.18855 0.4203,0.4203 0,0.23173 -0.18854,0.4203 -0.4203,0.4203 z m 0.69346,2.10747 c 0,-0.38238 -0.31111,-0.69346 -0.69346,-0.69346 h -1.60258 v 0.26894 c 0.23421,0 0.42488,0.19032 0.42488,0.42452 0,0.23421 -0.19067,0.42485 -0.42488,0.42485 v 0.269 h 1.60258 c 0.38235,-3.8e-4 0.69346,-0.31147 0.69346,-0.69385 z m -0.69346,0.42028 c -0.23178,0 -0.42033,-0.18858 -0.42033,-0.4203 0,-0.23176 0.18855,-0.4203 0.4203,-0.4203 0.23176,0 0.4203,0.18854 0.4203,0.4203 0,0.23172 -0.18854,0.4203 -0.4203,0.4203 z m 0.69346,2.10785 c 0,-0.38238 -0.31111,-0.69347 -0.69346,-0.69347 h -1.60258 v 0.26894 c 0.23421,0 0.42488,0.19032 0.42488,0.42453 0,0.2342 -0.19067,0.42485 -0.42488,0.42485 v 0.26899 h 1.60258 c 0.38235,-3.8e-4 0.69346,-0.31146 0.69346,-0.69384 z m -0.69346,0.42027 c -0.23178,0 -0.42033,-0.18857 -0.42033,-0.4203 0,-0.23175 0.18855,-0.4203 0.4203,-0.4203 0.23176,0 0.4203,0.18855 0.4203,0.4203 0,0.23173 -0.18854,0.4203 -0.4203,0.4203 z m 0.69346,2.10785 c 0,-0.38238 -0.31111,-0.69346 -0.69346,-0.69346 h -1.60258 v 0.26894 c 0.23421,0 0.42488,0.19032 0.42488,0.42452 0,0.23421 -0.19067,0.42485 -0.42488,0.42485 v 0.269 h 1.60258 c 0.38235,-3.8e-4 0.69346,-0.31147 0.69346,-0.69385 z m -0.69346,0.42028 c -0.23178,0 -0.42033,-0.18858 -0.42033,-0.4203 0,-0.23176 0.18855,-0.4203 0.4203,-0.4203 0.23176,0 0.4203,0.18854 0.4203,0.4203 0,0.23172 -0.18854,0.4203 -0.4203,0.4203 z m 0.69346,1.41436 h -2.29604 v 0.26899 c 0.23421,0 0.42488,0.19029 0.42488,0.42447 0,0.23423 -0.19067,0.42488 -0.42488,0.42488 v 0.26899 h 2.29604 z m -0.69346,1.11379 c -0.23178,0 -0.42033,-0.18858 -0.42033,-0.4203 0,-0.23176 0.18855,-0.4203 0.4203,-0.4203 0.23176,0 0.4203,0.18854 0.4203,0.4203 0,0.23172 -0.18854,0.4203 -0.4203,0.4203 z m 0.69346,2.10782 c 0,-0.38238 -0.31111,-0.69346 -0.69346,-0.69346 h -1.60258 v 0.26894 c 0.23421,0 0.42488,0.19032 0.42488,0.42452 0,0.23421 -0.19067,0.42485 -0.42488,0.42485 v 0.269 h 1.60258 c 0.38235,-3.8e-4 0.69346,-0.31147 0.69346,-0.69385 z m -0.69346,0.42028 c -0.23178,0 -0.42033,-0.18855 -0.42033,-0.4203 0,-0.23176 0.18855,-0.4203 0.4203,-0.4203 0.23176,0 0.4203,0.18854 0.4203,0.4203 0,0.23175 -0.18854,0.4203 -0.4203,0.4203 z m 0.69346,2.10785 c 0,-0.38238 -0.31111,-0.69347 -0.69346,-0.69347 h -1.60258 v 0.26894 c 0.23421,0 0.42488,0.19032 0.42488,0.42453 0,0.2342 -0.19067,0.42485 -0.42488,0.42485 v 0.26899 h 1.60258 c 0.38235,-3.8e-4 0.69346,-0.31146 0.69346,-0.69384 z m -0.69346,0.4203 c -0.23178,0 -0.42033,-0.18855 -0.42033,-0.4203 0,-0.23176 0.18855,-0.4203 0.4203,-0.4203 0.23176,0 0.4203,0.18854 0.4203,0.4203 0,0.23175 -0.18854,0.4203 -0.4203,0.4203 z m 0.69346,2.10782 c 0,-0.38238 -0.31111,-0.69346 -0.69346,-0.69346 h -1.60258 v 0.26894 c 0.23421,0 0.42488,0.19032 0.42488,0.42452 0,0.23421 -0.19067,0.42488 -0.42488,0.42488 v 0.26894 h 1.60258 c 0.38235,-3.5e-4 0.69346,-0.31146 0.69346,-0.69382 z m -0.69346,0.4203 c -0.23178,0 -0.42033,-0.18855 -0.42033,-0.4203 0,-0.23175 0.18855,-0.4203 0.4203,-0.4203 0.23176,0 0.4203,0.18855 0.4203,0.4203 0,0.23175 -0.18854,0.4203 -0.4203,0.4203 z m 0.69346,2.10783 c 0,-0.38238 -0.31111,-0.69347 -0.69346,-0.69347 h -1.60258 v 0.26894 c 0.23421,0 0.42488,0.19032 0.42488,0.42453 0,0.2342 -0.19067,0.42485 -0.42488,0.42485 v 0.26899 h 1.60258 c 0.38235,-3.8e-4 0.69346,-0.31146 0.69346,-0.69384 z m -0.69346,0.4203 c -0.23178,0 -0.42033,-0.18855 -0.42033,-0.4203 0,-0.23176 0.18855,-0.4203 0.4203,-0.4203 0.23176,0 0.4203,0.18854 0.4203,0.4203 0,0.23175 -0.18854,0.4203 -0.4203,0.4203 z m 0.69346,1.41433 h -2.29604 v 0.26899 c 0.23421,0 0.42488,0.1903 0.42488,0.42448 0,0.23423 -0.19067,0.42487 -0.42488,0.42487 v 0.269 h 2.29604 z m -0.69346,1.11379 c -0.23178,0 -0.42033,-0.18855 -0.42033,-0.4203 0,-0.23175 0.18855,-0.4203 0.4203,-0.4203 0.23176,0 0.4203,0.18855 0.4203,0.4203 0,0.23175 -0.18854,0.4203 -0.4203,0.4203 z m 0.69346,2.10783 c 0,-0.38238 -0.31111,-0.69347 -0.69346,-0.69347 h -1.60258 v 0.26894 c 0.23421,0 0.42488,0.19032 0.42488,0.42453 0,0.2342 -0.19067,0.42452 -0.42488,0.42452 v 0.26897 h 1.60258 c 0.38235,0 0.69346,-0.31111 0.69346,-0.69349 z m -0.69346,0.4203 c -0.23178,0 -0.42033,-0.18855 -0.42033,-0.4203 0,-0.23176 0.18855,-0.4203 0.4203,-0.4203 0.23176,0 0.4203,0.18854 0.4203,0.4203 0,0.23175 -0.18854,0.4203 -0.4203,0.4203 z m 0.69346,2.10782 c 0,-0.38238 -0.31111,-0.69346 -0.69346,-0.69346 h -1.60258 v 0.26894 c 0.23421,0 0.42488,0.19032 0.42488,0.42452 0,0.23421 -0.19067,0.42452 -0.42488,0.42452 v 0.26897 h 1.60258 c 0.38235,0 0.69346,-0.31111 0.69346,-0.69349 z m -0.69346,0.4203 c -0.23178,0 -0.42033,-0.18855 -0.42033,-0.4203 0,-0.23175 0.18855,-0.4203 0.4203,-0.4203 0.23176,0 0.4203,0.18855 0.4203,0.4203 0,0.23175 -0.18854,0.4203 -0.4203,0.4203 z m 0.69346,2.10783 c 0,-0.38238 -0.31111,-0.69347 -0.69346,-0.69347 h -1.60258 v 0.26894 c 0.23421,0 0.42488,0.19032 0.42488,0.42453 0,0.2342 -0.19067,0.42452 -0.42488,0.42452 v 0.26897 h 1.60258 c 0.38235,0 0.69346,-0.31111 0.69346,-0.69347 z m -0.69346,0.4203 c -0.23178,0 -0.42033,-0.18855 -0.42033,-0.4203 0,-0.23176 0.18855,-0.4203 0.4203,-0.4203 0.23176,0 0.4203,0.18854 0.4203,0.4203 0,0.23175 -0.18854,0.4203 -0.4203,0.4203 z m 0.69346,2.10782 c 0,-0.38238 -0.31111,-0.69346 -0.69346,-0.69346 h -1.60258 v 0.26894 c 0.23421,0 0.42488,0.19032 0.42488,0.42452 0,0.23421 -0.19067,0.42452 -0.42488,0.42452 v 0.26897 h 1.60258 c 0.38235,0 0.69346,-0.31111 0.69346,-0.69346 z m -0.69346,0.4203 c -0.23178,0 -0.42033,-0.18855 -0.42033,-0.4203 0,-0.23175 0.18855,-0.4203 0.4203,-0.4203 0.23176,0 0.4203,0.18855 0.4203,0.4203 0,0.23175 -0.18854,0.4203 -0.4203,0.4203 z m 0.69346,1.41436 h -2.29604 v 0.26897 c 0.23421,0 0.42488,0.19029 0.42488,0.4245 0,0.2342 -0.19067,0.42452 -0.42488,0.42452 v 0.26897 h 2.29604 z m -0.69346,1.11377 c -0.23178,0 -0.42033,-0.18855 -0.42033,-0.4203 0,-0.23176 0.18855,-0.4203 0.4203,-0.4203 0.23176,0 0.4203,0.18854 0.4203,0.4203 0,0.23175 -0.18854,0.4203 -0.4203,0.4203 z m 0.69346,2.10782 c 0,-0.38238 -0.31111,-0.69346 -0.69346,-0.69346 h -1.60258 v 0.26894 c 0.23421,0 0.42488,0.19032 0.42488,0.42452 0,0.23421 -0.19067,0.42452 -0.42488,0.42452 v 0.26897 h 1.60258 c 0.38235,0 0.69346,-0.31111 0.69346,-0.69346 z m -0.69346,0.4203 c -0.23178,0 -0.42033,-0.18855 -0.42033,-0.4203 0,-0.23175 0.18855,-0.4203 0.4203,-0.4203 0.23176,0 0.4203,0.18855 0.4203,0.4203 0,0.23175 -0.18854,0.4203 -0.4203,0.4203 z m 0.69346,2.10747 c 0,-0.38238 -0.31111,-0.69346 -0.69346,-0.69346 h -1.60258 v 0.26896 c 0.23421,0 0.42488,0.1903 0.42488,0.4245 0,0.23421 -0.19067,0.42453 -0.42488,0.42453 v 0.26896 h 1.60258 c 0.38235,0 0.69346,-0.31111 0.69346,-0.69346 z m -0.69346,0.4203 c -0.23178,0 -0.42033,-0.18854 -0.42033,-0.4203 0,-0.23173 0.18855,-0.4203 0.4203,-0.4203 0.23176,0 0.4203,0.18857 0.4203,0.4203 0,0.23176 -0.18854,0.4203 -0.4203,0.4203 z m 17.69692,-45.23237 h 1.60258 v -0.26897 c -0.2342,0 -0.42487,-0.19032 -0.42487,-0.4245 0,-0.23421 0.19067,-0.42452 0.42487,-0.42452 v -0.26897 h -1.60258 c -0.38237,0 -0.69346,0.31111 -0.69346,0.69347 0,0.3824 0.31109,0.69349 0.69346,0.69349 z m -0.4203,-0.69347 c 0,-0.23175 0.18858,-0.4203 0.4203,-0.4203 0.23176,0 0.4203,0.18855 0.4203,0.4203 0,0.23173 -0.18854,0.4203 -0.4203,0.4203 -0.23172,0 -0.4203,-0.18857 -0.4203,-0.4203 z m -0.27316,3.22194 h 2.29604 v -0.26896 c -0.2342,0 -0.42487,-0.19032 -0.42487,-0.42453 0,-0.23418 0.19067,-0.42449 0.42485,-0.42449 v -0.269 h -2.29605 z m 0.27316,-0.69346 c 0,-0.23175 0.18858,-0.42033 0.4203,-0.42033 0.23176,0 0.4203,0.18858 0.4203,0.4203 0,0.23176 -0.18854,0.4203 -0.4203,0.4203 -0.23172,0 -0.4203,-0.18854 -0.4203,-0.4203 z m 0.4203,3.22124 h 1.60258 v -0.26897 c -0.2342,0 -0.42487,-0.19032 -0.42487,-0.4245 0,-0.23421 0.19067,-0.42452 0.42487,-0.42452 v -0.26897 h -1.60258 c -0.38237,0 -0.69346,0.31111 -0.69346,0.69347 0,0.3824 0.31109,0.69349 0.69346,0.69349 z m -0.4203,-0.69347 c 0,-0.23175 0.18858,-0.4203 0.4203,-0.4203 0.23176,0 0.4203,0.18855 0.4203,0.4203 0,0.23173 -0.18854,0.4203 -0.4203,0.4203 -0.23172,0 -0.4203,-0.18857 -0.4203,-0.4203 z m 0.4203,3.22124 h 1.60258 v -0.26897 c -0.2342,0 -0.42487,-0.19029 -0.42487,-0.4245 0,-0.2342 0.19067,-0.42452 0.42487,-0.42452 v -0.26897 h -1.60258 c -0.38237,0 -0.69346,0.31111 -0.69346,0.69347 0,0.3824 0.31109,0.69349 0.69346,0.69349 z m -0.4203,-0.69347 c 0,-0.23175 0.18858,-0.4203 0.4203,-0.4203 0.23176,0 0.4203,0.18855 0.4203,0.4203 0,0.23173 -0.18854,0.4203 -0.4203,0.4203 -0.23172,0 -0.4203,-0.18857 -0.4203,-0.4203 z m 0.4203,3.22159 h 1.60258 v -0.26897 c -0.2342,0 -0.42487,-0.19029 -0.42487,-0.42449 0,-0.23421 0.19067,-0.42453 0.42487,-0.42453 v -0.26896 h -1.60258 c -0.38237,0 -0.69346,0.31111 -0.69346,0.69346 0,0.38241 0.31109,0.69349 0.69346,0.69349 z m -0.4203,-0.69346 c 0,-0.23176 0.18858,-0.4203 0.4203,-0.4203 0.23176,0 0.4203,0.18854 0.4203,0.4203 0,0.23172 -0.18854,0.4203 -0.4203,0.4203 -0.23172,0 -0.4203,-0.18858 -0.4203,-0.4203 z m 0.4203,3.22159 h 1.60258 v -0.26897 c -0.2342,0 -0.42487,-0.19029 -0.42487,-0.4245 0,-0.2342 0.19067,-0.42452 0.42487,-0.42452 v -0.26897 h -1.60258 c -0.38237,0 -0.69346,0.31111 -0.69346,0.69347 0,0.3824 0.31109,0.69349 0.69346,0.69349 z m -0.4203,-0.69347 c 0,-0.23175 0.18858,-0.4203 0.4203,-0.4203 0.23176,0 0.4203,0.18855 0.4203,0.4203 0,0.23173 -0.18854,0.4203 -0.4203,0.4203 -0.23172,0 -0.4203,-0.18857 -0.4203,-0.4203 z m -0.27316,3.22159 h 2.29604 v -0.26897 c -0.2342,0 -0.42487,-0.19029 -0.42487,-0.42449 0,-0.23421 0.19067,-0.42453 0.42485,-0.42453 v -0.26896 h -2.29605 z m 0.27316,-0.69346 c 0,-0.23176 0.18858,-0.4203 0.4203,-0.4203 0.23176,0 0.4203,0.18854 0.4203,0.4203 0,0.23172 -0.18854,0.4203 -0.4203,0.4203 -0.23172,0 -0.4203,-0.18858 -0.4203,-0.4203 z m 0.4203,3.22159 h 1.60258 v -0.26895 c -0.2342,0 -0.42487,-0.19031 -0.42487,-0.42452 0,-0.2342 0.19067,-0.42452 0.42487,-0.42452 v -0.26897 h -1.60258 c -0.38237,0 -0.69346,0.31111 -0.69346,0.69347 0,0.3824 0.31109,0.69349 0.69346,0.69349 z m -0.4203,-0.69347 c 0,-0.23175 0.18858,-0.4203 0.4203,-0.4203 0.23176,0 0.4203,0.18855 0.4203,0.4203 0,0.23175 -0.18854,0.4203 -0.4203,0.4203 -0.23172,0 -0.4203,-0.18855 -0.4203,-0.4203 z m 0.4203,3.22159 h 1.60258 v -0.26894 c -0.2342,0 -0.42487,-0.19032 -0.42487,-0.42452 0,-0.23421 0.19067,-0.42453 0.42487,-0.42453 v -0.26896 h -1.60258 c -0.38237,0 -0.69346,0.31111 -0.69346,0.69346 0,0.38241 0.31109,0.69349 0.69346,0.69349 z m -0.4203,-0.69346 c 0,-0.23176 0.18858,-0.4203 0.4203,-0.4203 0.23176,0 0.4203,0.18854 0.4203,0.4203 0,0.23175 -0.18854,0.4203 -0.4203,0.4203 -0.23172,0 -0.4203,-0.18855 -0.4203,-0.4203 z m 0.4203,3.22159 h 1.60258 v -0.26897 c -0.2342,0 -0.42487,-0.19029 -0.42487,-0.4245 0,-0.2342 0.19067,-0.42452 0.42487,-0.42452 v -0.26897 h -1.60258 c -0.38237,0 -0.69346,0.31111 -0.69346,0.69347 0,0.3824 0.31109,0.69349 0.69346,0.69349 z m -0.4203,-0.69347 c 0,-0.23175 0.18858,-0.4203 0.4203,-0.4203 0.23176,0 0.4203,0.18855 0.4203,0.4203 0,0.23175 -0.18854,0.4203 -0.4203,0.4203 -0.23172,0 -0.4203,-0.18855 -0.4203,-0.4203 z m 0.4203,3.22159 h 1.60258 v -0.26894 c -0.2342,0 -0.42487,-0.19032 -0.42487,-0.42452 0,-0.23421 0.19067,-0.42453 0.42487,-0.42453 v -0.26896 h -1.60258 c -0.38237,0 -0.69346,0.31111 -0.69346,0.69349 0,0.38238 0.31109,0.69346 0.69346,0.69346 z m -0.4203,-0.69346 c 0,-0.23176 0.18858,-0.4203 0.4203,-0.4203 0.23176,0 0.4203,0.18854 0.4203,0.4203 0,0.23175 -0.18854,0.4203 -0.4203,0.4203 -0.23172,0 -0.4203,-0.18855 -0.4203,-0.4203 z m -0.27316,3.22159 h 2.29604 v -0.26895 c -0.2342,0 -0.42487,-0.19031 -0.42487,-0.42452 0,-0.2342 0.19067,-0.42452 0.42485,-0.42452 v -0.26897 h -2.29605 z m 0.27316,-0.69347 c 0,-0.23175 0.18858,-0.4203 0.4203,-0.4203 0.23176,0 0.4203,0.18855 0.4203,0.4203 0,0.23175 -0.18854,0.4203 -0.4203,0.4203 -0.23172,0 -0.4203,-0.18855 -0.4203,-0.4203 z m 0.4203,3.22159 h 1.60258 v -0.26894 c -0.2342,0 -0.42487,-0.19032 -0.42487,-0.42452 0,-0.23421 0.19067,-0.42453 0.42487,-0.42453 v -0.26896 h -1.60258 c -0.38237,0 -0.69346,0.31111 -0.69346,0.69349 0,0.38238 0.31109,0.69346 0.69346,0.69346 z m -0.4203,-0.69346 c 0,-0.23176 0.18858,-0.4203 0.4203,-0.4203 0.23176,0 0.4203,0.18854 0.4203,0.4203 0,0.23175 -0.18854,0.4203 -0.4203,0.4203 -0.23172,0 -0.4203,-0.18855 -0.4203,-0.4203 z m 0.4203,3.22161 h 1.60258 v -0.26899 c -0.2342,0 -0.42487,-0.19029 -0.42487,-0.4245 0,-0.2342 0.19067,-0.42452 0.42487,-0.42452 v -0.26894 h -1.60258 c -0.38237,0 -0.69346,0.31108 -0.69346,0.69346 0,0.38238 0.31109,0.69347 0.69346,0.69347 z m -0.4203,-0.69349 c 0,-0.23175 0.18858,-0.4203 0.4203,-0.4203 0.23176,0 0.4203,0.18855 0.4203,0.4203 0,0.23175 -0.18854,0.4203 -0.4203,0.4203 -0.23172,0 -0.4203,-0.18855 -0.4203,-0.4203 z m 0.4203,3.22162 h 1.60258 v -0.269 c -0.2342,0 -0.42487,-0.19029 -0.42487,-0.42447 0,-0.23423 0.19067,-0.42455 0.42487,-0.42455 v -0.26894 h -1.60258 c -0.38237,0 -0.69346,0.31109 -0.69346,0.69347 0,0.38238 0.31109,0.69346 0.69346,0.69346 z m -0.4203,-0.69347 c 0,-0.23178 0.18858,-0.42032 0.4203,-0.42032 0.23176,0 0.4203,0.18854 0.4203,0.4203 0,0.23175 -0.18854,0.4203 -0.4203,0.4203 -0.23172,0 -0.4203,-0.18855 -0.4203,-0.4203 z m 0.4203,3.22159 h 1.60258 v -0.26899 c -0.2342,0 -0.42487,-0.19029 -0.42487,-0.42447 0,-0.23423 0.19067,-0.42455 0.42487,-0.42455 v -0.26894 h -1.60258 c -0.38237,0 -0.69346,0.31108 -0.69346,0.69346 0,0.38238 0.31109,0.69347 0.69346,0.69347 z m -0.4203,-0.69346 c 0,-0.23178 0.18858,-0.42033 0.4203,-0.42033 0.23176,0 0.4203,0.18855 0.4203,0.4203 0,0.23175 -0.18854,0.4203 -0.4203,0.4203 -0.23172,0 -0.4203,-0.18855 -0.4203,-0.4203 z m -0.27316,3.22159 h 2.29604 v -0.269 c -0.2342,0 -0.42487,-0.19029 -0.42487,-0.42447 0,-0.23423 0.19067,-0.42455 0.42485,-0.42455 v -0.26894 h -2.29605 z m 0.27316,-0.69347 c 0,-0.23178 0.18858,-0.42032 0.4203,-0.42032 0.23176,0 0.4203,0.18854 0.4203,0.4203 0,0.23175 -0.18854,0.4203 -0.4203,0.4203 -0.23172,0 -0.4203,-0.18855 -0.4203,-0.4203 z m 0.4203,3.22159 h 1.60258 v -0.26899 c -0.2342,0 -0.42487,-0.19029 -0.42487,-0.42447 0,-0.23423 0.19067,-0.42455 0.42487,-0.42455 v -0.26894 h -1.60258 c -0.38237,0 -0.69346,0.31108 -0.69346,0.69346 0,0.38238 0.31109,0.69347 0.69346,0.69347 z m -0.4203,-0.69346 c 0,-0.23178 0.18858,-0.42033 0.4203,-0.42033 0.23176,0 0.4203,0.18855 0.4203,0.4203 0,0.23175 -0.18854,0.4203 -0.4203,0.4203 -0.23172,0 -0.4203,-0.18855 -0.4203,-0.4203 z m 0.4203,3.22123 h 1.60258 v -0.26899 c -0.2342,0 -0.42487,-0.19029 -0.42487,-0.42447 0,-0.23423 0.19067,-0.42453 0.42487,-0.42453 v -0.26899 h -1.60258 c -0.38237,0 -0.69346,0.31111 -0.69346,0.69349 0,0.38238 0.31109,0.69347 0.69346,0.69347 z m -0.4203,-0.69346 c 0,-0.23176 0.18858,-0.42033 0.4203,-0.42033 0.23176,0 0.4203,0.18857 0.4203,0.4203 0,0.23176 -0.18854,0.4203 -0.4203,0.4203 -0.23172,0 -0.4203,-0.18854 -0.4203,-0.4203 z m 0.4203,-47.34058 h 1.60258 v -0.26897 c -0.2342,0 -0.42487,-0.19032 -0.42487,-0.4245 0,-0.234204 0.19067,-0.424521 0.42487,-0.424521 v -0.268968 h -1.60258 c -0.38237,0 -0.69346,0.311111 -0.69346,0.693469 0,0.3824 0.31109,0.69349 0.69346,0.69349 z m -0.4203,-0.69347 c 0,-0.231752 0.18858,-0.420299 0.4203,-0.420299 0.23176,0 0.4203,0.188547 0.4203,0.420299 0,0.23173 -0.18854,0.4203 -0.4203,0.4203 -0.23172,0 -0.4203,-0.18857 -0.4203,-0.4203 z m -16.58316,0 c 0,-0.382378 -0.31111,-0.693489 -0.69346,-0.693489 h -1.60258 v 0.268968 c 0.23421,0 0.42488,0.190317 0.42488,0.424521 0,0.23418 -0.19067,0.42485 -0.42488,0.42485 v 0.26897 h 1.60258 c 0.38235,-3.5e-4 0.69346,-0.31146 0.69346,-0.69382 z m -0.69346,0.42028 c -0.23178,0 -0.42033,-0.18858 -0.42033,-0.4203 0,-0.231757 0.18855,-0.420305 0.4203,-0.420305 0.23176,0 0.4203,0.188548 0.4203,0.420305 0,0.23172 -0.18854,0.4203 -0.4203,0.4203 z"
       fill="#958863"
       id="path79"
       style="fill:#edb223;fill-opacity:1;stroke-width:0.0252813" /><rect
       style="opacity:1;fill:#3ab77d;fill-opacity:1;stroke-width:1.18855;paint-order:stroke markers fill"
       id="rect2"
       width="5.1125526"
       height="3.1461864"
       x="138.98079"
       y="131.5242" /><rect
       style="opacity:1;fill:#f2f5f6;fill-opacity:1;stroke-width:1.18855;paint-order:stroke markers fill"
       id="rect3"
       width="3.1461864"
       height="2.7922406"
       x="146.45297"
       y="131.72084" /><text
       xml:space="preserve"
       style="font-style:normal;font-weight:normal;font-size:3.04281px;line-height:1.25;font-family:sans-serif;fill:#eff4f4;fill-opacity:1;stroke:none;stroke-width:0.264582"
       x="140.05142"
       y="134.17157"
       id="text3"><tspan
         sodipodi:role="line"
         id="tspan3"
         style="fill:#eff4f4;fill-opacity:1;stroke-width:0.264582"
         x="140.05142"
         y="134.17157">Pico</tspan></text><text
       xml:space="preserve"
       style="font-style:normal;font-weight:normal;font-size:2.93616px;line-height:1.25;font-family:sans-serif;fill:#3ab77d;fill-opacity:1;stroke:none;stroke-width:0.264583"
       x="146.91159"
       y="134.21227"
       id="text4"><tspan
         sodipodi:role="line"
         id="tspan4"
         style="font-style:normal;font-variant:normal;font-weight:bold;font-stretch:normal;font-family:sans-serif;-inkscape-font-specification:'sans-serif Bold';fill:#3ab77d;fill-opacity:1;stroke-width:0.264583"
         x="146.91159"
         y="134.21227">2</tspan></text></g></svg>
