<svg xmlns="http://www.w3.org/2000/svg" height="222" width="252.3" xml:space="preserve" viewBox="0 0 252 222" y="0" x="0" version="1.1"><defs id="defs1212"><pattern id="pattern3253" patternTransform="translate(24.31 214.55)" height="5.87" width="9.6" patternUnits="userSpaceOnUse"><g transform="translate(-26.31 -214.55)"><path d="M450.73 3236.63v-83.2h85.1v83.2z" class="st34" transform="translate(-4.83 -3.67) scale(.06922)"/><path d="M485.01 3201.7h30.7v14.7h-43.8v-41h13.1z" transform="translate(-4.83 -3.67) scale(.06922)"/><path d="M472.13 3216.15v-41h43.8v41z" class="st35" transform="translate(-4.83 -3.67) scale(.06922)"/></g></pattern></defs><style id="style2">.st1{fill:#fff}.st2{font-family:&apos;Roboto-Regular&apos;}.st3{font-size:76.1324px}.st4{letter-spacing:8}.st5{fill:#cb0011}.st7{fill:#9b9b9b}.st8{fill:#d2bb91}.st9{fill:#007746}.st10{fill:#003725}.st12{fill:#022a1c}.st13,.st14{fill:none}.st14{stroke:#003725;stroke-width:2.6253;stroke-miterlimit:10}.st15{fill:#6f6e69}.st17{fill:#6d6d6d}.st18{fill:#b7b7b7}.st19{fill:#0075ed}.st21{font-size:63.0061px}.st22{letter-spacing:6}.st26{font-size:57.7556px}.st27{letter-spacing:5}.st30{letter-spacing:20}.st33{fill:#161616}.st34,.st35{fill:#444;stroke:#8e8e8e;stroke-width:1.6386;stroke-miterlimit:10}.st35{fill:none}.st36{fill:#b2b0a1}.st37{fill:#d6d4bf}.st38{fill:#a0927a}</style><switch transform="translate(-70 -53)" id="switch1207"><g transform="translate(65 49) scale(.06922)"><path style="fill:#1e2f4e" d="M3438 2245h276V271c1-120-97-218-217-218H330c-120 0-217 98-217 218v443l3-2h46c4 0 6 3 6 6v88c0 3-2 5-6 5h-46l-3-1v2232c0 120 97 218 217 218h3167c120 0 218-98 218-218v-683h-277c-18 0-33-15-33-33v-48c0-18 15-33 33-33zm91-2105a86 86 0 1 1 0 173 86 86 0 0 1 0-173zm0 2860a86 86 0 1 1 0 173 86 86 0 0 1 0-173zM299 3173a86 86 0 1 1 0-173 86 86 0 0 1 0 173zm0-2860a86 86 0 1 1 0-173 86 86 0 0 1 0 173z"/><text transform="translate(1620 541)"><tspan class="st1 st2 st3 st4" y="0" x="0">NOTECARRIER - A</tspan><tspan class="st1 st2 st3 st4" y="81" x="301">2.0</tspan></text><path d="M110 1268v140h333v-140zm22 47a14 14 0 1 1 0-29 14 14 0 0 1 0 29z" class="st5"/><path d="M263 1377h14v-53l57 53v-52l58 52v-78h-12v50l-57-50v50l-60-50z" class="st1"/><path d="M1999 70v124l-1396 1h-2l21 33h1384V90Z" style="fill:#d1d1d1"/><path d="M1999 70v124l-1396 1h-2l21 33h1384V90Zm5 20v122l-2-13-1-4V84ZM623 225l-17-27 1393-1 4 28H623Z" class="st1"/><path d="M1994 68H608c-4 0-8 4-8 8v115c0 4 3 7 7 7h1387c4 0 7-4 7-8V77c1-4-3-8-7-8zM628 187c-7 0-13-6-13-13 0-8 6-14 13-14 7 1 13 6 13 14 0 7-6 13-13 13zm0-82c-7 0-13-6-13-13s6-13 13-13 13 6 13 13-6 13-13 13zm166 82c-7 0-13-6-13-13 0-8 6-14 13-14 8 1 13 6 13 14 1 7-5 13-13 13zm0-82c-7 0-13-6-13-13s6-13 13-13c8 0 13 6 13 13 1 7-5 13-13 13zm507 82c-7 0-13-6-13-13 0-8 6-14 13-14 7 1 13 6 13 14 0 7-6 13-13 13zm0-82c-7 0-13-6-13-13s6-13 13-13 13 6 13 13-6 13-13 13zm506 82c-7 0-13-6-13-13 0-8 6-14 13-14 8 1 14 6 14 14 0 7-6 13-14 13zm0-82c-7 0-13-6-13-13s6-13 13-13c8 0 14 6 14 13s-6 13-14 13zm167 82c-7 0-13-6-13-13 0-8 6-14 13-14 7 1 13 6 13 14 0 7-6 13-13 13zm0-82c-7 0-13-6-13-13s6-13 13-13 13 6 13 13-6 13-13 13z" class="st5"/><path d="M953 191h20v-79l85 79v-77l87 77V75h-17v75l-86-75v75l-89-75Zm428-35v-47h5l20 37v-37h5v47h-5l-20-37v37zm38 0v-47h6l20 37v-37h5v47h-5l-21-37v37zm37-23c0-8 1-14 4-18 2-4 5-6 9-6s7 2 9 5c2 4 4 10 4 19 0 8-2 14-4 18s-5 6-9 6-7-2-9-5c-2-4-4-10-4-19zm5 0c0 8 1 13 2 15 2 3 4 4 6 4s4-1 5-4c2-2 3-7 3-15s-1-13-2-15c-2-3-4-4-6-4s-4 1-6 4l-2 15zm25 11 5-1c1 6 4 9 8 9l5-2c2-2 2-5 2-7 1-3 0-5-2-7-1-2-3-3-5-3l-3 1v-5h1l5-2c2-1 3-3 3-6l-2-5-5-2-4 2-3 6-4-1c0-4 2-7 4-9s4-3 7-3 6 1 8 4c2 2 4 5 4 8l-2 6-4 4 4 2 2 4 1 6c0 4-1 7-4 10-2 3-5 4-9 4-3 0-6-1-8-3l-4-10zm45-2v-6h14v6zm33 2 5-1c1 6 3 9 7 9l6-2 2-7c0-3 0-5-2-7-1-2-3-3-5-3l-4 1 1-5h1l5-2c2-1 2-3 2-6 1-2 0-4-1-5l-5-2-4 2c-2 1-2 4-3 6l-4-1c0-4 1-7 4-9 2-2 4-3 7-3s6 1 8 4c2 2 3 5 3 8l-1 6-4 4 4 2 2 4 1 6c0 4-1 7-4 10-2 3-5 4-9 4-3 0-6-1-8-3-2-3-4-6-4-10zm48 12h-5v-36l-4 3-5 3v-5l7-6 4-6h3zm12-23c0-8 1-14 3-18s5-6 10-6c3 0 6 2 8 5 3 4 4 10 4 19 0 8-1 14-3 18s-5 6-10 6c-3 0-6-2-9-5-2-4-3-10-3-19zm5 0c0 8 0 13 2 15 1 3 3 4 6 4 2 0 4-1 5-4 1-2 2-7 2-15s-1-13-2-15c-2-3-3-4-6-4-2 0-4 1-5 4-2 2-2 8-2 15z" class="st1"/><path d="M2746 872h-21v53c0 9-7 16-16 16h-971c-9 0-16-7-16-16v-53h-22c-9 0-16 7-16 16v365c0 9 7 16 16 16h1046c9 0 16-7 16-16V888c0-9-7-16-16-16z"/><path d="M1751 892h18v48h-18zm24 0h17v48h-17zm23 0h18v48h-18zm24 0h18v48h-18zm24 0h17v48h-17zm23 0h18v48h-18zm24 0h18v48h-18zm24 0h17v48h-17zm23 0h18v48h-18zm24 0h17v48h-17zm23 0h18v48h-17zm24 0h18v48h-18zm24 0h17v48h-17zm124 0h17v48h-17zm23 0h18v48h-18zm24 0h18v48h-18zm23 0h18v48h-18zm24 0h18v48h-18Zm24 0h17v48h-17zm23 0h18v48h-18zm24 0h17v48h-17zm23 0h18v48h-18zm24 0h18v48h-18Zm24 0h17v48h-17zm23 0h18v48h-18zm24 0h17v48h-17zm23 0h18v48h-18zm24 0h18v48h-18Zm24 0h17v48h-17zm23 0h18v48h-18zm24 0h17v48h-17zm23 0h18v48h-18zm24 0h18v48h-18Zm24 0h17v48h-17zm23 0h18v48h-18zm24 0h17v48h-17z" class="st7"/><path d="M1751 903h18v37h-18zm24 0h17v37h-17zm23 0h18v37h-18zm24 0h18v37h-18zm24 0h17v37h-17zm23 0h18v37h-18zm24 0h18v37h-18zm24 0h17v37h-17zm23 0h18v37h-18zm24 0h17v37h-17zm23 0h18v37h-17zm24 0h18v37h-18zm24 0h17v37h-17zm124 0h17v37h-17zm23 0h18v37h-18zm24 0h18v37h-18zm23 0h18v37h-18zm24 0h18v37h-18Zm24 0h17v37h-17zm23 0h18v37h-18zm24 0h17v37h-17zm23 0h18v37h-18zm24 0h18v37h-18Zm24 0h17v37h-17zm23 0h18v37h-18zm24 0h17v37h-17zm23 0h18v37h-18zm24 0h18v37h-18Zm24 0h17v37h-17zm23 0h18v37h-18zm24 0h17v37h-17zm23 0h18v37h-18zm24 0h18v37h-18Zm24 0h17v37h-17zm23 0h18v37h-18zm24 0h17v37h-17z" class="st8"/><path d="M2979 1399v-152h-209c-3 0-44-1-48-44v-75h-599v70c1 15-12 27-28 27s-29-12-29-27v-70h-339v74c-4 44-45 45-48 45h-212v151c8 1 15 8 15 16s-7 15-15 16v14c8 1 15 8 15 16s-7 15-15 16v14c8 1 15 8 15 16s-7 15-15 16v15c8 0 15 7 15 15s-7 15-15 16v15c8 0 15 7 15 15 0 9-7 15-15 16v768c9 0 16 7 16 16s-7 16-16 16v14c9 0 16 7 16 16s-7 16-16 16v14c9 0 16 7 16 16s-7 16-16 16v14c9 0 16 7 16 16s-7 16-16 16v14c9 0 16 7 16 16s-7 16-16 16v176h621v-6c0-75 64-136 142-136 79 0 143 61 143 136l-1 6h607v-177h-2c-9 0-16-7-16-16a16 16 0 0 1 18-15v-15h-2c-9 0-16-7-16-16a16 16 0 0 1 18-15v-15h-2c-9 0-16-7-16-16a16 16 0 0 1 18-15v-15h-2c-9 0-16-7-16-16a16 16 0 0 1 18-15v-15h-2c-9 0-16-7-16-16a16 16 0 0 1 18-15v-769c-7-2-12-8-12-15 0-8 5-14 12-15v-16c-7-2-12-8-12-15s5-14 12-15v-16c-7-2-12-8-12-15s5-14 12-15v-16c-7-2-12-8-12-15s5-13 12-15v-16c-7-1-12-8-12-15s5-14 12-15z" class="st9" id="outline"/><path d="M2937 1579v-308h-199c-4 0-40-2-43-41l-1-6v-96h-2v102c3 34 30 43 46 43h196v141h1v4h-1v30l1 1v13h-1v30l1 1v13h-1v30l1 1v13h-1v31l1 1v12h-1v31l1 1v737h-1v32l1 1v12h-1v31l1 2v11h-1v31l1 2v11h-1v32l1 1v11h-1v32l1 1v167H1512V1273h199c16 0 43-9 46-43v-6l1-96h-2l-1 96-1 6c-3 39-39 41-43 41h-201v191l-1 2h1v87l-1 1h1v28h-1v16h1v28h-1v741l1 1v28h-1v15l1 1v28h-1v15l1 1v28h-1v15l1 2v27h-1v15l1 2v27h-1v172h1428V1580l1-1zm-1426-117Z" class="st10" id="inner-outline"/><path d="M1794 1912a18 18 0 0 1-19-22l-14-15v-50l-21-20v-84l-95-93 28 2 1 1 84 82 1 85 20 20v50l8 8 6-1a18 18 0 0 1 1 37zm-31-38 15 15v4a16 16 0 0 0 31 0 16 16 0 0 0-21-14h-1l-10-10v-50l-21-20v-85l-84-81-20-2 91 89v84l20 20v50zm565-250h-109l-47-47c-6 1-13-1-17-5v-23l7-8h15a19 19 0 0 1 10 25l40 40h93l22-22 13 13zm-108-2h107l24-25-9-10-21 21h-95l-42-42 2-7c0-7-4-12-10-15h-13l-6 6v20c4 4 10 6 15 5h1zm229-50c-6 0-11-3-14-7h-63l-34-32 12-13 29 26h56c3-4 8-7 14-7a17 17 0 0 1 0 33zm-76-10h63l1 1c2 4 7 6 12 6 8 0 14-6 14-14a14 14 0 0 0-26-7l-1 1h-58l-27-26-9 10zm-820-178-13-13 31-31h128l25-22 9 16-29 24h-125zm-9-13 9 9 25-25h125l26-21-6-12-23 20h-128z" class="st10"/><path d="m2558 1303-60-59v-57l-12-12v-12h3v11l12 12v57l59 58zm63 1-112-111v-31h3v30l110 110zm55 9-141-140v-15h3v14l140 140zm84-12-22-19h-66l-112-111v-11h3v10l110 110h66l23 19z" class="st9"/><path d="m2507 1743-26-4-31-31 13-13 29 29h8l14-14 13 13zm-25-6 24 3 17-17-9-9-13 13h-10l-28-28-10 9zm121 394h-26l-13-12h-8v-16h15l12 12h20zm-25-2h23v-11h-19l-12-12h-12v11h8zm-71 107-9-9h-42l-11 12-10-10 16-15h52l13 12zm-52-12h44l8 8 6-6-10-9h-51l-13 12 6 6zm-354-483-15-18 47-44 15 18zm-11-18 11 13 43-39-11-14zm-156 745-24-28v-28l33 32 29 1v23zm-22-29 23 27h35v-19h-28l-30-29zm27 106h-30v-16h24l5-5v-25l23-25h12v16h-5l-14 16v25zm-28-3h27l13-12v-25l16-18h3v-10h-8l-22 24v25l-6 6h-23z" class="st10"/><circle r="4.9" cy="1894.3" cx="1794.8" class="st10"/><circle r="4.9" cy="1707.2" cx="2355.9" class="st10"/><circle r="4.9" cy="1556" cx="2449.5" class="st10"/><circle r="4.9" cy="1559.9" cx="2169.5" class="st10"/><circle r="4.9" cy="1328.2" cx="1933.6" class="st10"/><circle r="4.9" cy="1357.1" cx="1962.5" class="st10"/><circle r="4.9" cy="1310.8" cx="2518.7" class="st10"/><circle r="4.9" cy="1348.9" cx="2518.7" class="st10"/><circle r="4.9" cy="1527.1" cx="1555.6" class="st10"/><circle r="4.9" cy="1746.6" cx="1829.6" class="st10"/><circle r="4.9" cy="1792.9" cx="1794.5" class="st10"/><circle r="4.9" cy="1845.7" cx="1797.1" class="st12"/><path d="M2121 2220h8-8z" class="st13"/><path d="M2167 2199v-23h-69v6l34 28v10h45v-9zm-552-184h-18v-26l14-9c0-4 1-8 4-10 6-6 16-6 22 0a15 15 0 0 1 0 21c-5 4-11 6-16 4l-6 4v16zm-15-2h13v-16l7-5h1a13 13 0 0 0 18-12 13 13 0 0 0-26 0v1l-13 9v23z" class="st10"/><circle r="4.9" cy="1981.1" cx="1625.6" class="st12"/><path d="m1690 1630 80 79v82l19 19h98l17 17h7v8l31-31v-17h-7v-34h4l-1-51-37 37v67h-112l-12-13v-96h-5v-33h57v-12h-27l-19-19h-36l-10-11h-11v7zm443 130a18 18 0 1 1 10-32l1-2v-21h16v28l-10 9v1c1 9-7 17-17 17zm0-33a15 15 0 1 0 15 16v-2l10-9v-24h-11v19l-4 4h-1c-3-3-6-4-9-4zm-16-142a18 18 0 0 1-6-35v-46h13v46a18 18 0 0 1-7 35zm-3-78v45l-1 1c-7 2-11 7-11 14 0 8 7 15 15 15 9 0 15-7 15-15 0-7-4-12-10-14l-1-1v-45z" class="st10"/><circle r="4.9" cy="1568.1" cx="2117.7" class="st10"/><circle r="4.9" cy="1742.7" cx="2133.4" class="st10"/><circle r="4.9" cy="1799.8" cx="2068.5" class="st10"/><circle r="4.9" cy="1649.2" cx="2048.4" class="st10"/><circle r="4.9" cy="1832.6" cx="2350" class="st10"/><path d="M2007 1653h-163v13h6v31h-51v79h71v-23h-28c-2 6-8 10-14 10-9 0-17-8-17-17s8-16 17-16c6 0 12 4 14 10h28v-12h26l38-38v-23h86v-5z" class="st10"/><circle r="4.9" cy="1355.8" cx="2016.9" class="st10"/><circle r="4.9" cy="1329.9" cx="2053.4" class="st10"/><path d="M2447 1359h-16v-9a16 16 0 1 1 16-2zm-13-3h10v-9l1-1a14 14 0 0 0-7-25c-8 0-14 7-14 14 0 6 4 11 9 13h1v8z" class="st10"/><circle r="4.9" cy="1424" cx="1981.8" class="st10"/><circle r="4.9" cy="1312.8" cx="2450.8" class="st10"/><circle r="4.9" cy="1334.8" cx="2437.6" class="st10"/><circle r="4.9" cy="1450.6" cx="1945.4" class="st10"/><circle r="4.9" cy="1460.5" cx="1985.8" class="st10"/><circle r="4.9" cy="2188.6" cx="2588.6" class="st10"/><path d="m2128 1369-23-30a28 28 0 0 0-5-55c-16 0-28 12-28 27h-9v-57l-27-27v-74h-117v7h-16v18l5 6v28l-98 98h-63l-6 24h71l114-109v2h3l3 6c-4 5-6 11-6 17a28 28 0 0 0 44 23l6 6v41l-9-2c-2-2-15-21-32-22-8-1-15 2-21 8s-9 13-8 20c0 19 19 37 23 41v144h81v-5h-75v-141l-1-1s-23-19-23-38c0-6 2-12 6-16 6-5 11-8 17-7 16 1 29 20 29 21v-1 1l25 25v22h46v-6h39v6zm-317-38h-67l5-18h62l99-100v-30l-5-6v-15h14v9l7 6v44zm144-107c-8 0-15 4-19 10l-5-13v-45l-1-1v-14h13l-1 60 14 3h-1zm23-60h11v55l35 36v10a28 28 0 0 0-10 0v-6l-36-35zm36 204c-7 0-14-6-14-14l-21-21v-56l-7-9c4-4 6-8 7-14l14 18v56l14 14 7-2c8 0 15 6 15 14-1 8-7 14-15 14zm23-12-20-25v-17h2l5-1v15l17 20h60l14 12-5 6-12-10h-61z" class="st10"/><path d="M1824 1374h24v3h-24zm25 61h-3v-26l-9-9h-15v-2h16l11 10zm17-27h3v26h-3zm4 71v-7h-3v8l3 3c2 2 3 5 3 8 0 7-6 13-13 13-8 0-13-6-13-13v-19h-3v19a16 16 0 1 0 31 0c0-5-2-9-5-12zm540-219v-99h-10v77l-146 145v115l9 5-1-96z" class="st10"/><path d="M2341 1750h-147l-21-22v-61l-33-36-1-88 17-18h48l33-33v-116l146-145v-75h18v82l-145 146v115l-45 45h-47l-7 6 2 74 32 36v61l11 11h132l10-11v-2c-4-3-6-8-6-14a18 18 0 1 1 25 16v8zm-146-2h145l20-20v-8l1-1c6-2 9-7 9-13a15 15 0 0 0-30 0c0 4 3 9 7 12v4l-12 13h-134l-13-13v-61l-32-36-1-76 8-8h47l43-43v-115l146-146v-79h-13v74l-146 145v116l-35 35h-48l-16 16 2 86 32 36v61z" class="st10"/><path d="m2262 1522-1-115 148-148v-104h18v112l-148 147 1 108zm1-114 1 112h13v-107l148-147v-108h-13v103h-1zm-643 326-13-1 1-22 6-6-1-6a17 17 0 0 1 33 0 17 17 0 0 1-23 15l-2 2zm-11-4 8 1 1-16 4-4 1 1 6 1a14 14 0 1 0-14-14l1 6h1l-7 7z" class="st10"/><circle r="4.9" cy="1700.7" cx="1630.7" class="st10"/><path d="m2047 1630-4 1-15-12-15-16-13 12-15-5h-76l1 17h-111l5 14h212l18 16a17 17 0 0 0 30-10c0-9-8-17-17-17zm0 31a14 14 0 0 1-13-17v-1l-17-12-14-15 10-9 13 14 17 13v-1h4a14 14 0 0 1 0 28z" class="st10"/><circle r="4.9" cy="1943.5" cx="2629.9" class="st10"/><circle r="4.9" cy="1916.9" cx="2382.5" class="st10"/><circle r="3.6" cy="2170.9" cx="2443.2" class="st10"/><circle r="4.9" cy="2304.5" cx="2577.4" class="st10"/><circle r="4.9" cy="2255.6" cx="2557.4" class="st10"/><circle r="3.6" cy="2146" cx="2484.9" class="st10"/><path d="M1634 1470h-58v-68h9v3h-6v62h55zm-81-54h3v53h-3zm191 130h-42l-24 25v7h13v8h33v21h20z" class="st10"/><path d="M1910 1510h-316l-29-26-11 14 33 30h112l-36 36v14h3v-13l35-36h44v-1h160l7 4v3h18v-14zm642 212v31l-18 18v24h18v-11h18v-62Zm-3 70h-13v-20l18-18v-29h13v35l-18 18zm-405 51h63v2h-63zm97 3v-3l44-1v3zm-251 0h-3v-12l-16-16v-30h2v29l16 16zm-80 10-2-2 47-41v-25h3v26zm193-83-9-9-18 18h-1v-7h-33v11h-41v20l4 4 13 14v22h3v-24l-12-12h46c3 4 8 6 13 6a18 18 0 0 0 17-25zm-34 41a15 15 0 0 1-16-16 15 15 0 0 1 22-13h1l18-18 5 6-17 18 2 7c0 9-7 16-15 16zm37 16h3v87h-3zm179 50h-161v37h1v-35h80a14 14 0 0 0 2 21v14h2v-16l-2-2c-2-2-3-5-3-8 0-4 2-7 5-9h12a11 11 0 0 1 0 19v16h2v-14c4-3 6-7 6-12 0-3-2-7-4-9h60v36h2v-38h-2z" class="st10"/><path d="M2158 1901c-6 0-11 5-11 11l1 5h20l1-5c1-6-4-11-11-11z" class="st13"/><path d="M2147 1912c0-6 5-11 11-11s12 5 12 11l-2 6h3l1-6c0-7-6-14-14-14a14 14 0 0 0-12 20h3c-2-2-2-4-2-6z" class="st10"/><path d="M2346 1994c0-6-5-12-11-13v26c6-1 11-6 11-13z" class="st13"/><circle r="8" cy="2143.2" cx="2271.8" class="st13" transform="rotate(-22 2272 2143)"/><path d="M2335 1948v-1h-1zm13 46c0-8-6-15-13-16v3c6 1 11 7 11 13 0 7-5 12-11 14v2c7-1 13-8 13-16z" class="st10"/><path d="m2352 1964-16-18-1 1v1l16 18h13v150a16 16 0 0 0-29-9v9a14 14 0 1 1 26 5h-26v3h32v-160h-15z" class="st10"/><circle r="3.8" cy="1962.4" cx="2661.9" class="st10"/><path d="M2756 2142h-13v-8l-22-17h-19v-3h20l23 19v6h11zm-276 316a20 20 0 0 0-36-11l-3-3h-14v-7h-29v7h-27v-12h-19l-15-16v43h97l14 23h28v-12l1-1c2-4 3-7 3-11zm-20-17a17 17 0 0 1 15 26 17 17 0 1 1-15-26z" class="st10"/><circle r="4.9" cy="2457.7" cx="2462.3" class="st10"/><path d="M2501 2350a15 15 0 0 1 0-29c8 0 15 7 15 15s-7 14-15 14zm0-27c-7 1-12 6-12 13 0 6 5 12 12 12s12-6 12-12c0-7-5-12-12-12zm55-50a18 18 0 1 1 0-36 18 18 0 1 1 0 36zm0-33a15 15 0 1 0 0 29 15 15 0 0 0 0-29zm-53 140h-32m31 17h-47l-14-14 2-2 14 14h45z" class="st10"/><path d="M1923 2066h2v35h-2z" class="st10" transform="rotate(-51 1924 2084)"/><path d="M1925 2047h2v36h-2z" class="st10" transform="rotate(-53 1926 2065)"/><path d="M1910 2154h29v2h-29z" class="st10" transform="rotate(-26 1925 2155)"/><path d="M1913 2172h27v3h-27z" class="st10" transform="rotate(-26 1926 2173)"/><path d="M1818 2305h-84v-195h26v-20h5v25h-26v185h74v-37h5z" class="st10"/><path d="M1806 2112h-5v-27h12v5h-7zm-8 35h5v23h-5zm0 58h5v22h-5z" class="st12"/><circle r="4.9" cy="2266.7" cx="1857.4" class="st10"/><circle r="4.9" cy="2299.9" cx="1857.4" class="st10"/><circle r="4.9" cy="2132.5" cx="1750.8" class="st10"/><circle r="4.9" cy="2160.7" cx="1750.2" class="st10"/><circle r="4.9" cy="2193.9" cx="1749.5" class="st10"/><circle r="4.9" cy="2257.6" cx="1752.4" class="st10"/><circle r="4.9" cy="2283.5" cx="1772.5" class="st10"/><circle r="4.9" cy="2281.5" cx="1798.7" class="st10"/><circle r="4.9" cy="2234.3" cx="2047.5" class="st10"/><path d="M2091 2410c2 3 6 5 9 5a11 11 0 0 0 0-22c-3 0-7 2-9 5v1h-4v10h4z" class="st13"/><path d="M2091 2399v-1c2-3 6-5 9-5a11 11 0 0 1 0 22c-3 0-7-2-9-5h-3v2h1c3 4 7 6 11 6a14 14 0 1 0-11-21h-1v2h3z" class="st10"/><path d="M2014 2532a11 11 0 0 0 6-20v-11h-11v10l-1 1c-3 2-5 5-5 9 0 6 5 11 11 11z" class="st13"/><path d="M2219 2503h-90l-38 37h-80c-2-4-5-7-10-7-6 0-11 5-11 11 0 7 5 12 11 12 4 0 7-2 9-5h85l38-38h131l6-5h-51z" class="st13"/><path d="m2013 2538-2-3 2 3zm27-6a11 11 0 0 0 6-20l-1-1v-10h-10v10l-1 1a11 11 0 0 0 6 20zm304-172-6-4v12z" class="st13"/><path d="M2479 1427v-154h42v-3h-44v64l-12-12 2-9a16 16 0 1 0-31 8h2c5 0 10 3 12 8h1l13 14v96h16v-8h89v-4h-90zm-2 9h-11v-95l-14-14c-3-5-8-8-14-8l-1-6a14 14 0 1 1 25 8l-1 1 15 15zm-280-248v-33h-8v28l-3 2a29 29 0 1 0 4 7zm28-16c-5 0-10 2-15 4v-20h-8v27a29 29 0 1 0 51 18c0-16-12-29-28-29z" class="st10"/><path d="M2080 1327h-13c-1-5-4-9-8-11v-62l-26-26v-66h-10v70l26 26v57c-6 2-10 7-10 13a14 14 0 0 0 27 6h14z" class="st14"/><path d="M1847 1186v-33h-8v28l-2 2a29 29 0 1 0 3 7zm28-16c-5 0-10 2-14 4v-20h-8v27a29 29 0 1 0 51 18c0-16-13-29-29-29zm459 983h33v2h-33z" class="st10"/><circle r="4.3" cy="2307.1" cx="2267.7" class="st10"/><circle r="4.3" cy="2215.2" cx="2381.9" class="st10"/><circle r="4.4" cy="1812.4" cx="1986.3" class="st10" transform="rotate(-22 1986 1812)"/><path d="M2085 2183v-12l-10-8-14 23-10-11 5-5v-31l21-20-2-2-21 21v31l-5 4-5-5v-116l9-7h25v-18h-31l-21 15h-5v-103h10l47 47 2-2-48-47h-11v-10h26l31 32 2-2-32-33h-27v-9h33l24 28 3-2-26-28h-34v-68h-2v199h7v131l33 36-9-2a22 22 0 1 0 20 13l12-10v7h37v-3zm-35 67c-10 0-18-9-18-19 0-9 8-18 18-18s18 9 18 19-8 18-18 18zm20-31-42-45v-131l20-13h27v13h-23l-11 7v119l6 6 2 2 30 34z" class="st10"/><circle r="1.8" cy="1912.3" cx="2158.1" class="st10"/><circle r="1.8" cy="1891.5" cx="2214.7" class="st10"/><circle r="4.9" cy="2618.5" cx="1802.1" class="st10"/><circle r="4.9" cy="2664.1" cx="1802.1" class="st10"/><circle r="4.9" cy="2709.8" cx="1802.1" class="st10"/><path d="M1821 2742h-44v-154h44v2h-41v150h41z" class="st10"/><circle r="4.9" cy="2371.1" cx="1729.8" class="st10"/><path d="M2721 1551h-100v-50h28v3h-25v45h97zm-33 48h14v3h-14Zm0 81h14v2h-14Zm22 54h-91v-9h3v6h88zm52-442h-1l-1-2-19-15h-65l-109-108v-13l-115-1v19c-10 5-16 14-16 25a29 29 0 0 0 49 21h10v31l59 59a28 28 0 0 0 2 27v1l1 1c3 4 7 7 12 9v15h80v-3h-77v-11l7 1c12 0 22-8 26-18h9a28 28 0 0 0 52 0h9a28 28 0 0 0 52 0h9a28 28 0 1 0 26-38z" class="st10"/><circle r="4.9" cy="2647.1" cx="2417.5" class="st10"/><circle r="4.9" cy="2677.9" cx="2447.2" class="st10"/><circle r="4.9" cy="2707.8" cx="2417.5" class="st10"/><circle r="4.9" cy="2707.8" cx="2718.4" class="st10"/><circle r="4.9" cy="2676.9" cx="2702.1" class="st10"/><circle r="4.9" cy="2647.1" cx="2718.4" class="st10"/><path d="m2482 2520-16 17h-60l-10-17h-36v-36h33v16l26 23h8v-49h-100l-15-18h-13v3h11l15 17v8h22v35h-9v4h57l9 17h63l17-18zm100 59h-107l-8-8 2-2 7 7h105l18-15 1 2z" class="st10"/><path d="M2592 2596h-126l-12-14 2-2 11 13h124l24-24 2 2zm-20-79h2v12h-3zm-17 0h3v12h-3zm16-116h3v22h-3zm-16 0h3v22h-3zm30 72h12v2h-11zm1 16h11v3h-11z" class="st10"/><path d="M2574 2405h23v3h-23zm0 16h23v3h-23zm-96-43h24v2h-24zm330 349h-411v-106h411zm-409-3h407v-100h-407zm277-539h5v12h-4zm133 125c0 3-2 5-5 5-2 0-4-2-4-5 0-2 2-4 4-4s4 2 4 4zm-127-252v-29h-11v-18h10v-35l-6-7 2-8a15 15 0 1 0-31 0l-7 21v3h-16v-15h-42v91h19v8l15 9 2-2-14-9v-6h20v-7l11 21 2-1-13-26v-17l27 32v12l27 1-16-21h10v-24h8v28l7 9v8h2v-8zm-20-110a13 13 0 1 1 0 26 13 13 0 0 1 0-26zm-42 24v31h-37v-31Zm1 86h-38v-29h38v20h-1 1zm2-55v-16h30v-14c2 2 5 3 9 3s8-2 11-5l6 6v31h-8v-5h-48Zm-180-139h20v3h-20z" class="st10"/><path d="M2445 1848v-11h-46l-14-12-2-19-45-42-143-2-15 14c-8 0-14 7-14 15a14 14 0 0 0 29 0l8-8 126 1 28 27c-13-3-24 8-24 8l-16 18 2 1 16-17c1-1 14-15 28-5l2 19 1 1-41 43h-29v38h39v14l19 19h12v-38s-1-16 15-16 15 16 15 16v18l13-13v-50h-5l13-14-16-14h41v11h21v-2h-19zm-42 17-35-31-2-19-35-33-129-2-10 10v1c0 6-5 11-12 11a12 12 0 0 1 0-23h1l15-15 141 2 44 42 2 18 30 27z" class="st10"/><circle r="1.8" cy="1791.9" cx="2179.1" class="st10"/><path d="M2507 1794h18v2h-18zm0 16h18v3h-18zm-173 331h33v3h-33zm-546-97h24v2h-24zm95-122h3v22h-3zm15 0h3v22h-3zm89-40h2v21h-2zm0 58h2v20h-2zm0 56h2v21h-2zm456-505h2v18h-2zm17 0h2v18h-2z" class="st10"/><path d="m2550 1958-4-2c-3 0-6 2-8 4l-1 1h-27v11h27v1a10 10 0 0 0 19-6c0-4-2-8-6-9zm24 233c2 7 8 11 14 11a14 14 0 0 0 7-26l-1-1v-14l12-12-6-5-2 2-12 12v16h-1c-2 1-5 2-6 4l-1 1h-23v11h19z" class="st13"/><path d="M2618 1935h-57l-18-6-78-1-16 17v209l-4 7h-1a10 10 0 1 0 11 10v-2l7-11v-208l8-8h71l18 6h58v1c3 5 8 8 13 8a15 15 0 0 0 0-30c-5 0-10 3-12 8z" class="st13"/><path d="M2631 1925h-1c-5 0-10 2-13 6v-91h-40v93h-15v-98h-46v13h-16v3h19v-13h41v94l-16-6h-18v-62h-27v62h-35l-18 17h-64v210h64l-3 5c-6 1-11 6-11 12a13 13 0 0 0 26 0v-1l6-11 10 7h79v28h19c2 7 9 12 16 12a17 17 0 0 0 9-31v-12l13-13-10-9v-7h-27l-10-10h-72v8c5 2 9 8 9 14 0 8-7 15-15 15s-15-7-15-15c0-6 3-11 8-14v-8h-14v-74h36v54h24v-51c-16 0-23-12-23-12l-5-5h-20v-86h32v26h27c3 3 7 5 11 5 7 0 13-6 13-13 0-5-3-9-6-11l5-5h57c3 6 9 9 16 9 9 0 17-8 17-18 0-7-4-13-10-15h33v-86h-40Zm-76 254h23l1-1c1-2 4-3 6-3l1-1v-16l12-12 2-2 6 6-12 11v15h1a14 14 0 0 1-7 27c-6 0-12-5-14-12v-1h-19zm1-212a10 10 0 0 1-19 6v-1h-26v-11h26l1-1c2-2 5-4 8-4l5 2c3 1 5 5 5 9zm89-25a15 15 0 0 1-28 7v-1h-58l-18-6h-71l-8 8v208l-7 11v1c0 6-4 10-10 10a10 10 0 0 1-1-20h1l4-6v-209l16-17h78l18 7h57c2-5 7-8 13-8 8 0 14 7 14 15z" class="st10"/><path d="m2621 2190-5 5v20h7v-16l6-6v-13h-8zm32-11-11 1v42l14 14v-15l-3-3zm177-79h86v38h-86z" class="st13"/><path d="m2679 2202-9-12v-11h-10v15l14 18h17l9 9v88l-10 4h-92l-6-4v-1l1-4a15 15 0 0 0-30 0 15 15 0 0 0 21 13h1l10 6h97l18-7v-100l-15-14h-16z" class="st13"/><path d="M2918 2215h-42l-5-16h47v-40h-30l17-18h13v-44h-90v-27h-6v34h-72l-55-56v-217h-119l-14-18-4 3 15 20h116v214l59 59h74l-28 20 1 2 32-22v29h-8l-7 8h-15v50h-38v-8l-17-12v-25h-11l-16-20h-13v2h12l15 21h10v29h-35l-6-6-2 2 7 6h39l26 33v76l9 9 1 1h16l1-1a13 13 0 0 1 12-5c6 1 10 6 10 12a13 13 0 0 1-23 7v-1h-22l-16-15v-89l-21-12h-37l-14-15h-11v-8h-16v8h-2v-8h-16l1 8h-8v-8h-13v12l-6 5v21h-14v87h43v-77l14 14v62h41v6l-7 3h-91l-4-2 1-4a18 18 0 1 0-11 16l9 6h99l20-8v-16h39l19 17h21a15 15 0 1 0 16-24v-137l11-11h63l6-6h13l-17 17h-45v33l-2-2v-31h-19l-2 7 5 130 6 8h33l-1 6a18 18 0 0 0 35 0l-2-8h26v-86zm-289-22-6 6v16h-7v-19l5-6v-11h8zm27 43-14-14v-42l11-1v39l3 3zm54 80-18 8h-97l-10-7h-1l-6 2a15 15 0 0 1 0-30 15 15 0 0 1 14 19v1l6 4h92l10-4v-88l-9-9h-17l-14-18v-14h10v10l10 12h16l14 15v99zm120-178v-38h86v38zm12 23h74v36h-74zm-16 58h32v28h-32zm4 80-4-6v-21h36v-58l-14-14h20l6 17v70h-14v3h14v2c-5 1-9 3-12 7h-32zm62 10a15 15 0 1 1-18-15h2c5 0 9 2 11 5l3 2 2 8zm24-10h-26c-3-5-8-7-13-7v-74h39v81z" class="st10"/><path d="M2219 2503h-90l-38 37h-80c-2-4-5-7-10-7-6 0-11 5-11 11 0 7 5 12 11 12 4 0 7-2 9-5h85l38-38h131l6-5 28-28v-96l9-12 28 1 3-5 6-8-6-4-2-2-6 8-28-1-14 19v95l-28 27h-41z" class="st13"/><path d="M2014 2532a11 11 0 0 0 6-20v-11h-11v10l-1 1c-3 2-5 5-5 9 0 6 5 11 11 11zm26 0a11 11 0 0 0 6-20l-1-1v-10h-10v10l-1 1a11 11 0 0 0 6 20zm213-233v-72h-32v72h32zm29 1h26l2-3v-69h-32v66l4 6z" class="st13"/><path d="M2316 2259v36l-3 4-4 3h-29v-1l-2-3-2-2c-3-2-5-3-8-3a14 14 0 0 0-12 7l-1 2-1 5a14 14 0 0 0 26 4l1-1h32l11-12v-36l7-8v-11zm17-37h32v73h-32z" class="st13"/><path d="m2382 2200-6 1-1 1-9-7h-41l-18 20-1 1h14l11-13h33l6 4-1 1-1 2v4a14 14 0 0 0 19 13c5-2 9-7 9-13 0-8-7-14-14-14zm-130 106v-4h-29l8 8v66h7v-22l13-22h15l5 5 1-3v-12l-4 1c-9-1-16-8-16-17z" class="st13"/><path d="m2382 2198-6 1-9-6h-43l-11 11-13-14v-14h-3v15l14 15-8 9h-10l-8-20v-19h-3v19l8 20h-30l9-19v-20h-3l1 19-10 20h-12l1-39h-3v37l-19-19v-18h-3v19l23 23h77l12-12h30l3 2v1h-32l-21 21v-4h-37v12h-20v-14h-37v-11l-8-8v-29h-31v18l11 12v13h15v83l-10 10h-44v54l-25 24h-9v92h14l18 18h-22l-38 38h-10v-18l27-27c4-2 7-7 7-12a14 14 0 0 0-24-8h-3v3h4v-1c2-3 6-5 10-5 6 0 10 5 10 11 1 3 0 5-2 7-2 3-5 4-8 4-4 0-6-1-9-4l-1-1v-1h-3v2h-13v11h-43v11l-5 7c-1-3-2-5-5-7v-11h-21v32c-8 0-14 6-14 13a14 14 0 0 0 25 10h84l38-38h131l8-8 28-27v-96l2-4h34v20l1 1 18 18h11v-14l10-18v-51l16-16-2-2-17 17v51l-9 19h-13v-25h11v-56l29-29-1-4-33 33v31h-9l-2 3-9-6-3-2v-1h-43l-12 11v11c3 1 5 4 5 7v2c-1 4-4 6-8 6-5 0-8-4-8-8s2-6 4-8v-16l8-7-1-26h63l45-44v-49c6-2 10-8 10-15 0-9-7-17-16-17zm-104 41v-11h32v69l-2 3h-26l-4-6zm-57-12h32v72h-32zm-31-28v-19h8v16l12 12 7 7v84l2 3 9 9v68l3 1a12 12 0 0 1-7 22 12 12 0 0 1-12-12 12 12 0 0 1 8-11v-65l-11-11v-85l-1-1zm-156 313 1-1v-10h10v10l1 1c3 2 5 5 5 9a11 11 0 0 1-22 0c0-4 2-7 5-9zm-26 0 1-1v-10h10v10l1 1c3 2 5 5 5 9a11 11 0 0 1-22 0c0-4 2-7 5-9zm280-36v-96l14-19 28 1 5-8 3 2 6 4-6 8-3 5-28-1-9 12v96l-29 28-5 5h-131l-38 38h-85v1c-2 2-5 4-9 4-6 0-11-5-11-11 0-7 5-12 11-12 4 0 8 3 10 7l1 1h79l38-38h131Zm-25-120-6 5v23h8v73h-10v12l-31 31h-70l1-1-22-21h-11v-84h7l26-26v-52h43l10-11 10 10v62a15 15 0 0 0-8 17h-10v-19h-38l-17 25v85l10 3h64l27-24v-70h-8l1-4c0-5-3-9-6-12h8v-24l12-20h12l5 5zm9-22-1 3-5-5h-15l-13 21v23h-7v-67l-8-7h29v4a16 16 0 0 0 20 16zm59-80-7 8v36l-11 12h-32l-1 1a14 14 0 0 1-12 9c-8 0-14-6-14-14l1-4a14 14 0 0 1 3-5 13 13 0 0 1 22 4v1h29l4-4 3-3v-36l15-16v11zm34 41h-32v-73h32zm22-68-5 1a14 14 0 0 1-14-18l1-2 1-1-6-4h-33l-11 13h-14l1-1 18-20h41l9 7 1-1 6-1a14 14 0 0 1 5 27zm-296 23h21v3h-21z" class="st10"/><path d="M2147 2250h24v3h-24z" class="st10"/><path d="M1620 2594h19v7h-19zm-26-35h8v19h-8z" class="st13"/><path d="M1768 2404v-30l-18-9c-2-10-11-18-21-18a21 21 0 1 0 15 38l3 1v18h-16v155h9v10h-104v-27l-72 7v16h11v98h45v-39h14v41h45v-43h15v41h10v21h3v-21h18v21h3v-21h8v-43l21-15 17-24v-23h11v-154zm-166 174h-8v-19h8zm37 23h-19v-7h19zm55 1h-16v-8h16zm72-198h-5v174l-13 23h-12v-8h8l9-17v-172h-3v-20l-7-3-1 1c-3 3-8 5-13 5a19 19 0 1 1 0-38c9 1 17 8 19 17l18 9zm123-20-24-27v-42a19 19 0 0 0 2-33c5-3 8-9 8-15 0-10-9-19-19-19a19 19 0 0 0-11 35c-5 3-8 9-8 15 1 7 5 14 12 17v48l27 30v19h2v-19zm-38-71a16 16 0 0 1-3-29l2-1-2-1a16 16 0 0 1 8-31 16 16 0 0 1 8 30l-2 2 2 1a16 16 0 0 1-1 29h-1v45l23 26-8 7-26-29v-49zm49 78h3v21h-3zm-57-561h-33c-3-2-7-4-11-4a19 19 0 1 0 11 35h23v30h3v-30h7v-30zm-2 28h-32v1c-3 2-7 3-10 3a17 17 0 1 1 10-29h32zm21 2h3v31h-3z" class="st10"/><path d="M458 1718v53l-2 1h-52l-1-1v-53l1-1h52l2 1zm-66 0v53l-1 1h-53l-1-1v-53l1-1h53l1 1zm-60-139v52l-2 1h-52l-1-1v-52l1-1h52l2 1zm-66 0v52l-1 1h-53l-1-1v-52l1-1h53l1 1zm2176 394h-76l-1-1v-33l1-1h76l1 1v33l-1 1z" class="st7"/><path d="M2382 1938h44v35h-44z" class="st8"/><path d="M3056 1403h-77l-1-2v-32l2-1h76l1 1v32l-1 2z" class="st7"/><path d="M2996 1368h43v35h-43z" class="st8"/><path d="M2467 2583h-76l-1-1v-32l1-1h76l2 1v32l-2 1z" class="st7"/><path d="M2408 2549h43v34h-43z" class="st8"/><path d="M2597 1473h-76l-1-2v-39l1-1h76l1 1v39l-1 2z" class="st7"/><path d="M2537 1431h44v42h-44z" class="st8"/><path d="M2597 1538h-76l-1-1v-39l1-1h76l1 1v39l-1 1z" class="st7"/><path d="M2537 1497h44v41h-44zm1087-730h-611c-6 0-11 5-11 12v217h47c4 0 7 3 7 7v43c0 4-3 7-7 7h-47v208h21v9h27v-39h63l58 39v15h453c7 1 12-5 12-11V779c0-7-5-12-12-12zm-285 37c0-8 5-15 12-15h229c7 0 13 7 13 15v3h-174c-16 0-29 15-29 34v23h-51v-60zm254 35v25h-182c3-14 14-25 27-25zm-516 121c1 4-2 7-6 7h-36c-3 0-6-3-6-7v-44c0-3 3-6 6-6h36c4 0 6 3 6 6zm72 204h-26a35 35 0 0 1 1-69h25a35 35 0 0 1 0 69zm-26-208c8-8 20-8 28 0l10 10a20 20 0 0 1-28 27l-10-10c-7-7-7-20 0-27zm108 261a27 27 0 1 1 0-54 27 27 0 0 1 0 54zm0-121a27 27 0 1 1 0-53 27 27 0 0 1 0 53zm0-117a27 27 0 1 1 0-53 27 27 0 0 1 0 53zm-170-105c-12 0-21-12-21-27v-27h270v27c0 15-9 27-21 27zm263 343a27 27 0 1 1 0-54 27 27 0 0 1 0 54zm0-121a27 27 0 1 1 0-53 27 27 0 0 1 0 53zm0-117a27 27 0 1 1 0-53 27 27 0 0 1 0 53zm71 185a36 36 0 1 1 0-71 36 36 0 0 1 0 71zm93 48a27 27 0 1 1 0-54 27 27 0 0 1 0 54zm0-116a27 27 0 1 1 0-54 27 27 0 0 1 0 54zm0-117a27 27 0 1 1 0-53 27 27 0 0 1 0 53zm93 233a27 27 0 1 1 0-54 27 27 0 0 1 0 54zm0-116a27 27 0 1 1 0-54 27 27 0 0 1 0 54zm0-117a27 27 0 1 1 0-53 27 27 0 0 1 0 53z" class="st8"/><path d="M2598 2338h32l1 1v32h-34v-32l1-1zm0 64h32l1 1v32l-1 1h-32l-1-1v-32l1-1zm0 65h33v32l-1 1h-32l-1-1v-32h1zm0 64h32l1 1v31l-1 1h-32l-1-1v-31l1-1zm261-193h31l1 1v32h-33v-32l1-1zm0 64h31l1 1v32l-1 1h-31l-1-1v-32l1-1zm0 65h32v32l-1 1h-31l-1-1v-32h1zm0 64h31l1 1v31l-1 1h-31l-1-1v-31l1-1zm-1278-520h53l1 1v32l-1 1h-53l-1-1v-32l1-1zm7 163h32l1 1v15h-34v-15l1-1z" class="st7"/><path d="M1511 2058h201v105h-201z" class="st7" transform="rotate(180 1612 2110)"/><path d="M1660 2176h-94c-12 0-21-10-21-22v-88c0-12 9-21 21-21h94c11 0 21 9 21 21v88c0 12-9 22-21 22z" class="st8"/><circle r="47.3" cy="2110.2" cx="1612" class="st7"/><circle r="12.7" cy="2110.2" cx="1612.5" class="st8"/><g><path d="M2720 1537h168c9 0 17 8 17 17v168c0 10-8 18-17 18h-168c-10 0-17-8-17-18v-168c0-9 7-17 17-17z" class="st15"/><path d="M2821 1638c2 3 3 8 3 12 0 9-3 18-9 25-4 6-10 11-16 11-5 0-8-3-11-6l-2-7c0-5 1-9 5-9 2 0 5 2 5 5l-1 6c0 2 1 3 3 3 4 0 9-5 11-9 4-6 6-12 6-19l-1-7c-2-4-4-7-8-7-3 0-5 1-8 4l-4 4c-2 3-3 5-6 5-2 0-4-2-4-5 0-2 4-7 8-10s8-5 14-5c7 0 13 4 15 9zm-102 71h170c1 0 3 1 3 3v7c0 2-2 3-3 3h-170c-2 0-3-1-3-3v-7c0-2 1-3 3-3zm123-154h30v8h-10v24h10v8h-4l-4 1-2 2-1 3h-10v-38h-9v-8zm-53 16 1-7a15 15 0 0 1 9-8l8-2a38 38 0 0 1 15 3v10h-1l-2-1-2-1-4-1-3-1-4 1-4 1-1 2v6l2 2 4 1a29 29 0 0 0 13-1h1v26h-31v-9h20v-7h-5l-6-1-5-2-4-4-1-7zm-53-16h34v8a218 218 0 0 0-14 12l-5 6-2 6 2 5 6 1h3l3-1 3-2 2-1v10a38 38 0 0 1-14 3c-5 0-9-1-12-3-3-3-4-6-4-11 0-2 0-5 2-8l6-8a60 60 0 0 1 9-8h-19z" class="st1"/></g><path d="M2018 2739h-196c-2 0-4-1-4-3v-144c0-2 2-4 4-4h196c2 0 4 2 4 4v144c0 2-2 3-4 3zm58-240h-104l-2-2v-104l2-2h104l2 2v104l-2 2zm129-984h-196c-2 0-4-2-4-4v-139c0-2 2-3 4-3h196c2 0 4 1 4 3v139c0 2-2 4-4 4zm642-11h-197c-2 0-3-2-3-4v-139c0-2 1-4 3-4h197c2 0 3 2 3 4v139c0 2-1 4-3 4zm84 397h-171c-2 0-3-1-3-3v-136c0-2 1-4 3-4h171c2 0 3 2 3 4v136c1 2-1 3-3 3zm0 168h-171c-2 0-3-1-3-3v-135c0-2 1-3 3-3h171c2 0 3 2 3 3v135c1 2-1 3-3 3zm-1021-442h-163c-2 0-3-1-3-3v-94c0-1 1-2 3-2h163l3 2v94c0 2-2 3-3 3zm-225-120v-147l2-2h70l2 2v147l-2 2h-70l-2-2zm647 669h-252c-3 0-5-2-5-5v-249c0-3 2-5 5-5h252c3 0 5 2 5 5v249c0 3-2 5-5 5zm-291-388h-106l-2-3v-118l2-2h106l2 2v118c1 2-1 3-2 3zm434 599h-82c-1 0-3-1-3-3v-153l3-2h82c2 0 3 1 3 2v153c0 2-1 3-3 3zm45 346h-55l-2-1v-92l2-1h55l2 1v92l-2 1zm254-4v-94c0-2 1-3 3-3h155c1 0 2 1 2 3v94l-2 3h-155c-2 0-3-1-3-3zm155-143h-263c-3 0-5-3-5-6v-248c0-3 2-6 5-6h263c3 0 6 3 6 6v248c0 3-3 6-6 6z"/><path d="M2629 2655v77l-1 1h-33l-1-1v-77l1-1h33l1 1zm55 0v77l-1 1h-33l-1-1v-77l1-1h33l1 1zm-774-545v76l-1 1h-32l-1-1v-76l1-1h32l1 1zm0-103v77l-1 1h-32l-1-1v-77l1-1h32l1 1zm-293 576v76l-2 1h-35l-1-1v-76l1-2h35l2 2zm721-202v76l-1 1h-32l-2-1v-76l2-1h32l1 1zm-72 0v76l-1 1h-32l-1-1v-76l1-1h32l1 1zm-66-64v58l-1 1h-43l-1-1v-58l1-1h43l1 1zm80 3h76l2 1v33l-2 1h-76l-1-1v-33l1-1zm-519-859h61l1 1v33l-1 1h-61l-1-1v-33l1-1zm-125 0h48l1 1v33l-1 1h-48l-1-1v-33l1-1zm0-46h48l1 1v33l-1 1h-48l-1-1v-33l1-1zm0-45h48l1 1v33h-50v-33l1-1zm125 1h61l1 1v33l-1 1h-61l-1-1v-33l1-1z" class="st7"/><path d="M1722 1632h-143l-1-2v-52l1-2h143l2 2v52l-2 2z"/><path d="M2070 1600h31l1 1v31l-1 1h-31l-1-1v-31l1-1zm0 45h32v32l-1 1h-31l-1-1v-32h1zm757 569h32v33h-32l-1-1v-31l1-1zm0 51h32v33h-32l-1-1v-31l1-1zm-653 136h32l1 1v32l-1 1h-32l-1-1v-32l1-1zm0 49h32v33h-32l-1-1v-31l1-1zm-531 132h31l1 1v32h-33v-32l1-1zm0 44h31l1 1v32h-33v-32l1-1zm56-44h32l1 1v32h-33v-33zm0 44h32l1 1v32h-33v-33zm963-402h31l1 1v32h-33v-32l1-1zm0 41h31l1 1v32l-1 1h-31l-1-1v-32l1-1zm-58-41h32l1 1v32h-34v-32l1-1zm0 41h32l1 1v32l-1 1h-32l-1-1v-32l1-1zm-288 220h31l1 1v32h-33v-32l1-1zm44 0h32v33h-33v-32l1-1zm-618-74h31l1 1v32l-1 1h-31l-1-1v-32l1-1zm44 0h32v34h-32l-1-1v-32l1-1zm230-344v110c0 2-1 2-2 2h-76c-1 0-2 0-2-2v-110l2-2h76l2 2z" class="st7"/><path d="M2701 2180h-99c-1 0-2-1-2-3v-101l2-2h99c2 0 3 1 3 2v101c-1 2-1 3-3 3z"/><path d="M2584 1972h36l1 1v33l-1 1h-36l-1-1v-33l1-1zm58 1h36l1 1v33l-1 1h-36l-1-1v-33l1-1zm0 58h36l1 1v33l-1 1h-36l-1-1v-33l1-1zm-58-7h36l1 1v33l-1 1h-36l-1-1v-33l1-1z" class="st7"/><g id="screw"><path style="fill:#cecece" d="M2243 2905c78 0 141-62 144-139h-288c3 77 66 139 144 139z"/><path d="M2243 2616a144 144 0 0 0-144 150h288v-6c0-79-64-144-144-144z" class="st8"/><circle r="126" cy="2760.3" cx="2243" class="st7" transform="rotate(-45 2243 2760)"/></g><path d="m2262 2830-18 3c-6 0-11-4-12-9l-16-122c-1-6 3-11 8-12l18-2c6-1 11 3 12 9l17 122c0 5-4 10-9 11z" class="st17"/><path d="m2176 2780-3-18c-1-6 3-11 9-12l117-18c5-1 10 2 11 8l3 18c1 6-3 11-8 12l-117 19c-6 1-11-3-12-9z" class="st17"/><path d="M1812 2012h34l1 1v33l-1 1h-34v-35zm0 42h34l1 1v34h-35v-35zm686-453v77l-1 1h-9l-1-1v-77l1-1h9l1 1z" class="st7"/><path d="M2684 1724h-184c-2 0-4-1-4-3v-152c0-2 2-3 4-3h184c2 0 3 1 3 3v152c0 2-1 3-3 3zm-258 797v-38l1-1h58l1 1v38l-1 1h-59v-1z"/><path d="M2580 1844h35v31l-1 1h-34v-32zm0 47h35v31l-1 1h-34v-32zm54-47h34v32h-34v-32zm0 47h34v32h-34v-32z" class="st7"/><path d="M1609 2716h-39l-41-43v-17h16v11l31 33h33z" class="st14"/><path d="M1609 2683h131l2 2v43l-2 2h-131l-1-2v-43l1-2z" class="st7"/><path d="M631 2518v-335c0-2 2-4 5-4h134c2 0 4 2 4 4v335c0 3-2 5-4 5H636c-3-1-5-3-5-5z" class="st8"/><path d="M631 2457v-213c0-23 19-41 42-41h60c23 0 41 18 41 41v213c0 23-18 42-41 42h-60c-23 0-42-19-42-42z" class="st7"/><path d="M631 2462v-222c0-3 2-4 4-4h135c2 0 4 2 4 4v221c0 3-2 4-4 4H635c-2 0-4-1-4-4z"/><path d="M839 2518v-335c0-2 2-4 4-4h134c3 0 5 2 5 4v335c0 3-2 5-5 5H843c-2-1-4-3-4-5z" class="st8"/><path d="M839 2457v-213c0-23 18-41 41-41h60c23 0 42 18 42 41v213c0 23-19 42-42 42h-60c-23 0-41-19-41-42z" class="st7"/><path d="M839 2462v-222c0-3 1-4 3-4h136c2 0 4 2 4 4v221c0 3-2 4-4 4H843c-3 0-4-1-4-4zm408 390v-190c0-2 2-3 4-3h168c2 0 4 1 4 3v190c0 2-2 4-4 4h-168c-2 0-4-2-4-4z"/><path d="M1021 2337v-145c0-5 4-10 9-10h65c5 0 10 5 10 10v145c0 6-4 10-10 10h-65c-5 0-9-4-9-10z" class="st7"/><path d="M1021 2320v-111l2-2h80l2 2v111l-2 2h-80l-2-2z" class="st8"/><path d="M1310 2343v-82c0-4 3-7 6-7h62c4 0 7 3 7 7v82c0 4-4 7-7 7h-62c-3 0-7-3-7-7z" class="st7"/><path d="M1310 2334v-64l1-1h72l2 1v64l-2 2h-72l-1-2z" class="st8"/><path d="M1187 2185h69c3 0 5 2 5 4v31c0 3-2 5-5 5h-69c-3 0-5-2-5-5v-31c0-2 2-4 5-4z" class="st7"/><path d="M1195 2185h53l1 1v38l-1 1h-53l-1-1v-38l1-1z" class="st8"/><path d="M1187 2121h69c3 0 5 2 5 4v31c0 2-2 4-5 4h-69c-3 0-5-2-5-4v-31c0-2 2-4 5-4z" class="st7"/><path d="M1195 2121h53l1 1v38l-1 1h-53l-1-1v-38l1-1z" class="st8"/><path d="M1058 2029h47c2 0 3 1 3 3v22c0 1-1 3-3 3h-47c-2 0-3-2-3-3v-22c0-2 1-4 3-4z" class="st7"/><path d="M1064 2029h36v27l-1 1h-35l-1-1v-27l1-1z" class="st8"/><path d="M1238 2405h46c2 0 3 2 3 3v22c0 2-1 3-3 3h-46c-2 0-4-1-4-3v-22c1-1 2-3 4-3z" class="st7"/><path d="M1243 2405h36v28c1 0 0 0 0 0h-37v-27l1-1z" class="st8"/><path d="M1335 2405h47l3 3v22c0 2-2 3-4 3h-46c-2 0-3-1-3-3v-22c0-1 1-3 3-3z" class="st7"/><path d="M1340 2405h36l1 1v27h-37v-28z" class="st8"/><path d="M856 2124h47c1 0 3 1 3 3v22l-3 3h-47c-2 0-3-2-3-3v-22c0-2 1-3 3-3z" class="st7"/><path d="M861 2124h37v27l-1 1h-36v-28zm-613-533h47c2 0 3 1 3 3v22c0 2-1 3-3 3h-47c-2 0-3-1-3-3v-22c0-2 1-3 3-3z" class="st8"/><path d="M332 1783v52l-2 1h-52l-1-1v-52l1-2h52l2 2zm-66 0v52l-1 1h-53l-1-1v-52l1-2h53l1 2z" class="st7"/><path d="M248 1795h47c2 0 3 1 3 3v22c0 1-1 3-3 3h-47c-2 0-3-2-3-3v-22c0-2 1-3 3-3z" class="st8"/><path d="M1058 1975h47c2 0 3 1 3 3v22c0 1-1 3-3 3h-47c-2 0-3-2-3-3v-22c0-2 1-3 3-3z" class="st7"/><path d="M1064 1975h36v27l-1 1h-35l-1-1v-27h1z" class="st8"/><path d="M1090 1709h47c2 0 3 1 3 3v22c0 1-1 3-3 3h-47c-2 0-3-2-3-3v-22c0-2 1-4 3-4z" class="st7"/><path d="M1096 1709h36v27l-1 1h-35l-1-1v-27h1z" class="st8"/><path d="M1090 1656h47c2 0 3 2 3 4v22c0 1-1 3-3 3h-47c-2 0-3-2-3-4v-21c0-2 1-4 3-4z" class="st7"/><path d="M1096 1656h35l1 1v27l-1 1h-35l-1-1v-27l1-1z" class="st8"/><path d="M445 2162v43l-1 2h-85l-2-2v-43l2-2h85l1 2zm0 149v44l-1 1h-85l-2-1v-44l2-1h85l1 1z" class="st18"/><path d="M365 2324v-132c0-4 4-8 8-8h56c5 0 8 4 8 8v132c0 5-3 8-8 8h-55c-5 0-9-3-9-8z" class="st7"/><path d="M365 2308v-100l2-2h69l1 2v100l-1 2h-69l-2-2z" class="st8"/><path d="M552 2162v43l-2 2h-85l-1-2v-43l1-2h85l2 2zm0 149v44l-2 1h-85l-1-1v-44l1-1h85l2 1z" class="st18"/><path d="M472 2324v-132c0-4 3-8 8-8h56c4 0 8 4 8 8v132c0 5-4 8-9 8h-55c-5 0-8-3-8-8z" class="st7"/><path d="M472 2308v-100l1-2h69l2 2v100l-2 2h-68l-2-2z" class="st8"/><path d="M2820 920h-40c-1 0-2-1-2-3v-17c0-2 1-3 2-3h40c1 0 2 1 2 3v17c0 2-1 3-2 3z" class="st7"/><path d="M2815 920h-30v-23h30l1 1v21l-1 1z" class="st8"/><path d="M2923 920h-39c-1 0-3-1-3-3v-17c0-2 1-3 3-3h39c2 0 3 1 3 3v17c0 2-1 3-3 3z" class="st7"/><path d="M2919 920h-31v-22l1-1h30v23z" class="st8"/><path d="M2850 1144h-39c-2 0-3-1-3-2v-18c0-1 1-3 3-3h39c2 0 3 2 3 3v18c0 1-1 2-3 2z" class="st7"/><path d="M2846 1144h-31v-22h31v22z" class="st8"/><path d="M2356 1518v84l-1 1h-35l-1-1v-84l1-1h35l1 1z" class="st7"/><path d="M2319 1548h37v24h-37z"/><path d="M2328 1625v84l-1 2h-34l-1-2v-84l1-1h34l1 1z" class="st7"/><path d="M2292 1656h36v23h-36z"/><path d="M2169 1625v84l-1 2h-34l-1-2v-84l1-1h34l1 1z" class="st7"/><path d="M2133 1656h36v23h-36z"/><path d="M1911 2208v84l-1 2h-34l-1-2v-84l1-1h34l1 1z" class="st7"/><path d="M1875 2239h37v23h-37z"/><path d="M1902 1721v84l-1 1h-34l-1-1v-84l1-1h34l1 1z" class="st7"/><path d="M1866 1751h36v24h-36z"/><path d="M1789 2005v84l-1 1h-34l-2-1v-84l2-1h34l1 1z" class="st7"/><path d="M1752 2035h37v24h-37z"/><path d="M2104 1693v84l-1 1h-34l-1-1v-84l1-1h34l1 1z" class="st7"/><path d="M2068 1723h36v23h-37z"/><path d="M1206 1197v84l-1 1h-34l-2-1v-84l2-1h34l1 1z" class="st7"/><path d="M1169 1227h37v23h-37z"/><path d="M2288 1518v84l-1 1h-35l-1-1v-84l1-1h35l1 1z" class="st7"/><path d="M2251 1548h37v24h-37z"/><path d="M2472 1543h-84l-2-1v-34l2-2h84l1 2v34l-1 1z" class="st7"/><path d="M2411 1513h37v24h-37z" transform="rotate(90 2430 1525)"/><path d="M2510 1949v84l-1 1h-34l-1-1v-84l1-1h34l1 1z" class="st7"/><path d="M2474 1979h36v24h-36z"/><path d="M2157 2394v84l-1 1h-34l-1-1v-84l1-1h34l1 1z" class="st7"/><path d="M2121 2424h36v24h-37z"/><path d="M472 1807v83l-1 2h-34l-1-2v-83l1-2h34l1 1z" class="st7"/><path d="M436 1837h36v23h-36z"/><path d="M528 1807v83l-1 2h-35l-1-2v-83l1-2h35l1 1z" class="st7"/><path d="M491 1837h37v23h-37z"/><path d="M2558 1841v80l-2 1h-34l-1-1v-80l1-1h34l2 1z" class="st7"/><path d="M2521 1870h37v22h-37Z"/><path d="M2498 1841v80l-1 1h-34l-1-1v-80l1-1h34l1 1z" class="st7"/><path d="M2462 1870h36v22h-36z"/><path d="M2501 2049v72l-1 2h-35l-1-2v-72l1-2h35l1 2z" class="st7"/><path d="M2464 2075h37v20h-37z"/><path d="M2796 2124v72l-1 2h-34l-2-2v-72l2-2h34l1 2z" class="st7"/><path d="M2760 2150h36v20h-36z"/><path d="M2751 2218v73l-1 1h-34l-1-1v-73l1-1h34l1 1z" class="st7"/><path d="M2715 2245h36v20h-36z"/><path d="M2806 2218v73l-1 1h-34l-1-1v-73l1-1h34l1 1z" class="st7"/><path d="M2770 2245h36v20h-36z"/><path d="M2144 1799v77l-2 1h-32l-1-1v-77l1-1h32l2 1z" class="st7"/><path d="M2105 1820h43v35h-43z" class="st8" transform="rotate(-90 2126 1838)"/><path d="M2092 2220v76l-1 1h-32l-1-1v-76l1-2h32l1 2z" class="st7"/><path d="M2053 2241h44v34h-44z" class="st8" transform="rotate(-90 2075 2258)"/><path d="M2147 2220v76l-1 1h-33l-1-1v-76l1-2h33l1 2z" class="st7"/><path d="M2108 2241h43v34h-43z" class="st8" transform="rotate(-90 2129 2258)"/><path d="M2206 2220v76l-1 1h-33l-1-1v-76l1-2h33l1 2z" class="st7"/><path d="M2167 2241h43v34h-43z" class="st8" transform="rotate(-90 2188 2258)"/><path d="M2257 2220v76l-1 1h-33l-1-1v-76l1-2h33l1 2z" class="st7"/><path d="M2218 2241h43v34h-43z" class="st8" transform="rotate(-90 2239 2258)"/><path d="M2312 2220v76l-1 1h-32l-2-1v-76l2-2h32l1 2z" class="st7"/><path d="M2273 2241h43v34h-43z" class="st8" transform="rotate(-90 2295 2258)"/><path d="M2366 2220v76l-1 1h-32l-1-1v-76l1-2h32l1 2z" class="st7"/><path d="M2328 2241h43v34h-43z" class="st8" transform="rotate(-90 2349 2258)"/><path d="M2913 2220v77l-1 1h-32l-2-1v-77l2-1h32l1 1z" class="st7"/><path d="M2874 2241h43v35h-43z" class="st8" transform="rotate(-90 2896 2259)"/><path d="M1557 1367v77l-1 1h-33l-1-1v-77l1-1h33l1 1z" class="st7"/><path d="M1518 1388h43v35h-43z" class="st8" transform="rotate(-90 1540 1405)"/><path d="M1618 1369v77l-1 1h-33l-1-1v-77l1-1h33l1 1z" class="st7"/><path d="M1579 1390h43v35h-43z" class="st8" transform="rotate(-90 1600 1407)"/><path d="M2241 1799v77l-1 1h-32l-2-1v-77l2-1h32l1 1z" class="st7"/><path d="M2202 1820h43v35h-43z" class="st8" transform="rotate(-90 2224 1838)"/><path d="M2019 1537v77l-1 1h-32l-1-1v-77l1-1h32l1 1z" class="st7"/><path d="M1980 1558h44v35h-44z" class="st8" transform="rotate(-90 2002 1576)"/><path d="M1962 1537v77l-1 1h-32l-2-1v-77l2-1h32l1 1z" class="st7"/><path d="M1923 1558h44v35h-44z" class="st8" transform="rotate(-90 1945 1576)"/><path d="M2320 1799v77l-1 1h-32l-1-1v-77l1-1h32l1 1z" class="st7"/><path d="M2281 1820h43v35h-43z" class="st8" transform="rotate(-90 2303 1838)"/><path d="M2437 1845v76l-1 1h-32l-2-1v-77l2-1h32l1 2z" class="st7"/><path d="M2398 1866h43v34h-43z" class="st8" transform="rotate(-90 2420 1883)"/><path d="M2463 1686v77l-1 1h-32l-1-1v-77l1-1h32l1 1z" class="st7"/><path d="M2424 1707h44v35h-44z" class="st8" transform="rotate(-90 2446 1725)"/><path d="M2558 2045v76l-1 1h-32l-1-1v-76l1-1h32l1 1z" class="st7"/><path d="M2519 2066h44v34h-44z" class="st8" transform="rotate(-90 2541 2083)"/><path d="M2542 2227v76l-1 1h-33l-1-1v-77l1-1h33l1 2z" class="st7"/><path d="M2503 2248h43v34h-43z" class="st8" transform="rotate(-90 2525 2265)"/><path d="M2574 2655v77l-1 1h-33l-1-1v-77l1-1h33l1 1z" class="st7"/><path d="M2535 2676h43v35h-43Z" class="st8" transform="rotate(-90 2557 2694)"/><path d="M1913 2315v76l-2 1h-34l-1-1v-76l1-2h35l1 2z" class="st7"/><path d="M1872 2334h44v37h-44z" class="st8" transform="rotate(-90 1894 2353)"/><path d="M1913 2413v76l-2 1h-34l-1-1v-76l1-2h35l1 2z" class="st7"/><path d="M1872 2432h44v37h-44z" class="st8" transform="rotate(-90 1894 2451)"/><path d="M1776 2468v77l-1 1h-35l-1-1v-77l1-1h35l1 1z" class="st7"/><path d="M1736 2488h43v37h-43z" class="st8" transform="rotate(-90 1758 2506)"/><path d="M1556 2582v77l-1 1h-35l-1-1v-77l1-1h35l1 1z" class="st7"/><path d="M1516 2602h43v37h-43Z" class="st8" transform="rotate(-90 1538 2620)"/><path d="M2506 1820h-79l-1-1v-34l1-2h79l1 2v34l-1 1z" class="st7"/><path d="M2448 1791h37v22h-37z" transform="rotate(90 2466 1802)"/><path d="M1910 1920h-79l-1-1v-35l1-1h79l1 1v35l-1 1z" class="st7"/><path d="M1852 1891h37v22h-37z" transform="rotate(90 1870 1902)"/><path d="M2865 1095h-79l-1-1v-34l1-1h79l1 1v34l-1 1z" class="st7"/><path d="M2807 1066h37v22h-37z" transform="rotate(90 2826 1077)"/><path d="M2831 980h-54l-1-1v-29l1-1h54l1 1v29l-1 1z" class="st7"/><path d="M2789 957h30v15h-30z" transform="rotate(90 2804 965)"/><path d="M3164 2086h-79l-1-1v-34l1-1h79l1 1v34l-1 1z" class="st7"/><path d="M3106 2057h37v22h-37z" transform="rotate(90 3125 2068)"/><path d="M3195 2367h-79l-2-1v-34l2-2h78l2 2v34l-2 1z" class="st7"/><path d="M3137 2338h37v22h-37z" transform="rotate(90 3155 2349)"/><path d="M3211 2142h-79l-1-1v-35l1-1h79l1 1v35l-1 1z" class="st7"/><path d="M3153 2113h37v22h-37z" transform="rotate(90 3172 2124)"/><path d="M3195 2421h-79l-2-2v-34l2-1h78l2 1v34l-2 2z" class="st7"/><path d="M3137 2391h37v22h-37z" transform="rotate(90 3155 2402)"/><path d="M2865 1033h-79l-1-1v-35l1-1h79l1 1v35l-1 1z" class="st7"/><path d="M2807 1004h37v22h-37z" transform="rotate(90 2826 1015)"/><path d="M2855 871h-79l-1-1v-35l1-1h79l1 1v35l-1 1z" class="st7"/><path d="M2797 842h37v22h-37z" transform="rotate(90 2816 853)"/><path d="M1851 1698h-79l-1-2v-34l1-1h79l1 1v34l-1 1z" class="st7"/><path d="M1793 1668h37v22h-37z" transform="rotate(90 1812 1679)"/><path d="M2450 2440h-78l-2-1v-34l2-2h78l2 2v34l-2 1z" class="st7"/><path d="M2393 2411h36v22h-36z" transform="rotate(90 2411 2422)"/><path d="M2581 2401h-79l-1-1v-34l1-1h79l1 1v34l-1 1z" class="st7"/><path d="M2523 2372h37v22h-37z" transform="rotate(90 2542 2383)"/><path d="M2915 2197h-73l-1-1v-34l1-1h73l1 1v34l-1 1z" class="st7"/><path d="M2861 2169h36v20h-36z" transform="rotate(90 2879 2179)"/><path d="M2911 2138h-73l-1-1v-35l1-1h73l1 1v35l-1 1z" class="st7"/><path d="M2856 2109h37v21h-37Z" transform="rotate(90 2874 2120)"/><path d="M1910 1862h-79l-1-2v-34l1-1h79l1 1v34l-1 1z" class="st7"/><path d="M1852 1832h37v22h-37z" transform="rotate(90 1870 1843)"/><path d="M1616 1505h-79l-1-1v-35l1-1h79l1 1v35l-1 1z" class="st7"/><path d="M1558 1475h37v23h-37z" transform="rotate(90 1577 1486)"/><path d="M1612 1232h-79l-1-1v-34l1-1h79l1 1v34l-1 1z" class="st7"/><path d="M1554 1203h37v22h-37z" transform="rotate(90 1573 1214)"/><path d="M1069 803h-78l-2-1v-34l2-1h78l2 1v34l-2 1z" class="st7"/><path d="M1012 774h36v22h-36z" transform="rotate(90 1030 785)"/><path d="M1205 803h-79l-1-1v-34l1-1h79l1 1v34l-1 1z" class="st7"/><path d="M1147 774h37v22h-37z" transform="rotate(90 1166 785)"/><path d="M2581 2566h-79l-1-1v-34l1-2h79l1 2v34l-1 1z" class="st7"/><path d="M2523 2537h37v22h-37z" transform="rotate(90 2542 2548)"/><path d="M2136 2355h-79l-1-1v-34l1-1h79l1 1v34l-1 1z" class="st7"/><path d="M2078 2326h37v22h-37z" transform="rotate(90 2097 2337)"/><path d="M2601 1820h-75l-1-1v-34l1-1h75l1 1v34l-1 1z" class="st7"/><path d="M2545 1791h37v21h-37z" transform="rotate(90 2564 1802)"/><path d="M2097 1578h-56v-33l1-1h55l1 1v32l-1 1z" class="st7"/><path d="M2054 1544h31v34h-31z" class="st8"/><path d="M1920 1471h-82l-1-1v-34l1-2h82l1 2v34c1 1 0 1-1 1z" class="st7"/><path d="M1856 1435h46v36h-46z" class="st8"/><path d="M1276 1353h-83l-1-2v-34l1-1h83l1 1v34l-1 1z" class="st7"/><path d="M1211 1316h47v37h-47z" class="st8"/><path d="M803 810h-52l-1-1v-52l1-2h52l1 2v52l-1 1zm-69 0h-52l-1-1v-52l1-2h52l1 2v52l-1 1z" class="st7"/><path d="M766 795h-47v-24h47v24z" class="st8"/><path d="M823 346h-53l-1-1v-52l1-2h53l1 2v52l-1 1zm-69 0h-53l-1-1v-52l1-2h53l1 2v52l-1 1z" class="st7"/><path d="M785 331h-46l-1-1v-22l1-1h46l1 1v22l-1 1z" class="st8"/><path d="M1920 1408h-82l-1-1v-34l1-2h82l1 2v34c1 1 0 1-1 1z" class="st7"/><path d="M1856 1372h46v36h-46z" class="st8"/><path d="M2442 2154h-76l-1-1v-32l1-2h76l1 2v32l-1 1z" class="st7"/><path d="M2382 2119h44v35h-44z" class="st8"/><path d="M2019 2235h-77l-1-1v-33l2-1h76l1 1v33l-1 1z" class="st7"/><path d="M1959 2200h44v35h-44z" class="st8"/><path d="M2442 2033h-76l-1-1v-32l1-2h76l1 2v32l-1 1z" class="st7"/><path d="M2382 1999h44v34h-44z" class="st8"/><path d="M2442 2094h-76l-1-2v-32l1-1h76l1 1v32l-1 2z" class="st7"/><path d="M2382 2059h44v35h-44z" class="st8"/><path d="M2555 2199h-77l-1-1v-32l1-2h77l1 2v32l-1 1z" class="st7"/><path d="M2495 2165h43v34h-43z" class="st8"/><path d="M3072 2135h-77l-1-1v-33l1-1h77l1 1v33l-2 1z" class="st7"/><path d="M3012 2100h43v35h-43z" class="st8"/><path d="M2580 2455h-77l-1-1v-32l1-1h77l1 1v32l-1 1z" class="st7"/><path d="M2520 2421h43v34h-43z" class="st8"/><path d="M2580 2510h-77l-1-1v-32l1-1h77l1 1v32l-1 1z" class="st7"/><path d="M2520 2476h43v34h-43z" class="st8"/><path d="M2017 1881h-76l-1-1v-32l1-2h76l1 2v32l-1 1z" class="st7"/><path d="M1957 1846h44v35h-44z" class="st8"/><path d="M2017 2050h-76l-1-1v-32l1-2h76l1 2v32l-1 1z" class="st7"/><path d="M1957 2015h44v35h-44z" class="st8"/><path d="M1911 2554h-76l-1-1v-32l1-1h76l1 1v32l-1 1z" class="st7"/><path d="M1851 2520h44v34h-44z" class="st8"/><path d="M2017 1937h-76l-1-1v-32l1-1h76l1 1v32l-1 1z" class="st7"/><path d="M1957 1903h44v34h-44z" class="st8"/><path d="M2017 1994h-76l-1-1v-33l1-1h76l1 1v33l-1 1z" class="st7"/><path d="M1957 1959h44v35h-44z" class="st8"/><path d="M1840 2263h-77l-1-1v-33l1-1h77l1 1v33l-1 1z" class="st7"/><path d="M1780 2228h43v35h-43Z" class="st8"/><path d="M1840 2147h-77l-1-2v-32l1-1h77l1 1v32l-1 2z" class="st7"/><path d="M1780 2112h43v35h-43Z" class="st8"/><path d="M1840 2205h-77l-1-1v-33l1-2h77l1 2v33l-1 1z" class="st7"/><path d="M1780 2169h43v36h-43Z" class="st8"/><path d="M1909 1978h-77l-1-2v-32l1-1h77l1 1v32l-1 2z" class="st7"/><path d="M1849 1943h43v35h-43z" class="st8"/><path d="M3287 2792h-141c-1 0-2-1-2-3v-72l2-2h141l2 2v72c0 2-1 3-2 3z" class="st7"/><path d="M3177 2714h79v78h-79z" class="st8"/><path d="M2409 1491v-134l2-2h50l2 2v134l-2 2h-50c-1 0-2 0-2-2z" class="st7"/><path d="M2448 1466h-24c-8 0-15-7-15-15v-53c0-9 7-15 15-15h24c8 0 15 6 15 15v53c0 8-7 15-15 15zm336-221v-62l1-1h56l1 1v62l-1 1h-56l-1-1z"/><path d="M1171 2297v47c0 2-2 3-4 3h-21c-2 0-4-1-4-3v-47c0-1 2-3 4-3h22l3 3z" class="st7"/><path d="M1171 2303v36h-29v-36l1-1h27l1 1z" class="st8"/><path d="M595 1799v47c0 2-2 3-3 3h-22c-2 0-3-1-3-3v-47c0-1 1-3 3-3h22l3 3z" class="st7"/><path d="M595 1805v36h-29v-36l1-1h27l1 1z" class="st8"/><path d="M1142 1933h-49c-254-6-437-56-542-147a292 292 0 0 1-104-230c0-112 36-219 106-317 56-77 134-150 231-214 164-109 325-159 332-161l14 45c-2 1-163 50-321 156a836 836 0 0 0-218 202c-64 90-97 187-97 289 0 80 29 143 88 194 233 203 846 119 852 118l7 47c-2 0-134 18-299 18zm-12-1024-7-23Z"/><path d="M657 2102a58 58 0 1 1 1-117 58 58 0 0 1-1 117zm0-85c-14 0-27 12-27 27 1 14 13 27 27 27 15 0 27-13 27-27 0-15-12-27-27-27zm-197 466h-2c-14 0-26-12-26-26v-38c0-14 12-25 26-25h2c14 0 25 11 25 25v38c0 14-11 26-25 26zm-2-76c-7 0-13 5-13 12v38c0 7 6 13 13 13h2c6 0 12-6 12-13v-38c0-7-5-12-12-12zm103 210h-2c-14 0-26-12-26-26v-38c0-14 12-25 26-25h2c14 0 25 11 25 25v38c0 14-11 26-25 26zm-2-76c-7 0-13 5-13 12v38c0 7 6 12 13 12h2c6 0 12-5 12-12v-38c0-7-6-12-12-12zm-99 215h-2c-14 0-26-11-26-25v-39c0-13 12-25 26-25h2c14 0 25 11 25 25v39c0 14-11 25-25 25zm-2-76c-7 0-13 6-13 12v39c0 6 6 12 13 12h2c6 0 12-6 12-12v-39c0-6-5-12-12-12z" class="st8"/><circle r="54.8" cy="2661.8" cx="647.9" class="st8"/><path d="M590 881v-53l1-1h53l1 1v53l-1 1h-53l-1-1zm0-69v-53l1-1h53l1 1v53l-1 1h-53l-1-1z" class="st7"/><path d="M636 789v63c0 2-2 5-5 5h-27c-2 0-5-3-5-5v-63c0-3 3-5 5-5h27c3 0 5 2 5 5z" class="st19"/><path d="M949 765v52l-1 1h-52l-2-1v-52l2-2h52l1 2zm0 69v52l-1 1h-52l-2-1v-52l2-1h52l1 1z" class="st7"/><path d="M940 794v63c0 3-2 5-5 5h-27c-2 0-4-2-4-5v-63c0-3 2-5 4-5h27c3 0 5 2 5 5z" class="st19"/><path d="M646 616v53l-2 1h-52l-1-1v-53l1-1h52l2 1zm0 69v53l-2 1h-52l-1-1v-53l1-1h52l2 1z" class="st7"/><path d="M634 654v47c0 2-2 3-4 3h-23c-2 0-4-1-4-3v-47c0-3 2-4 4-4h23c2 0 4 1 4 4zM419 1756h-44c-2 0-3-1-3-3v-17c0-2 1-3 3-3h44c2 0 4 1 4 3v17c0 2-2 3-4 3z" class="st19"/><path d="M265 1563h-52l-1-1v-53l1-1h52l2 1v53l-2 1zm0-66h-52l-1-1v-53l1-1h52l2 1v53l-2 1z" class="st7"/><path d="M253 1479v47c0 2-1 3-3 3h-22c-1 0-3-1-3-3v-47l3-3h22c2 0 3 2 3 3z" class="st8"/><path d="M818 883v-53l1-1h52l2 1v53l-2 1h-52l-1-1zm0-69v-53l1-1h52l2 1v53l-2 1h-52l-1-1z" class="st7"/><path d="M833 845v-46l1-1h23v48h-23l-1-1z" class="st8"/><path d="M823 279h-53l-1-1v-52l1-1h53l1 1v52l-1 1zm-69 0h-53l-1-1v-52l1-1h53l1 1v52l-1 1z" class="st7"/><path d="M794 270h-64c-2 0-5-2-5-4v-27c1-3 3-5 5-5h63c3 0 5 2 5 5v27c0 2-2 4-5 4z" class="st19"/><path d="M1916 350h-53l-1-1v-52l1-2h53l1 2v52l-1 1zm-69 0h-53l-1-1v-52l1-2h53l1 2v52l-1 1zm1051 701v-40l2-2h18l3 2v40c0 1-1 2-3 2h-18l-2-2z" class="st7"/><path d="M2898 1046v-30h23v30l-1 1h-22v-1z" class="st8"/><path d="M3190 1391h-40c-2 0-3-2-3-4v-31c0-2 1-4 3-4h40c2 0 4 2 4 4v31c0 2-2 4-4 4zm74 0h-40c-2 0-3-2-3-4v-31c0-2 1-4 3-4h40c2 0 4 2 4 4v31c0 2-2 4-4 4zm0 59h-40c-2 0-3-2-3-4v-31c0-2 1-3 3-3h40c2 0 4 1 4 3v31c0 2-2 4-4 4zm-74 0h-40c-2 0-3-2-3-4v-31c0-2 1-3 3-3h40c2 0 4 1 4 3v31c0 2-2 4-4 4zm-125 727h-11l-1-1v-12l1-1h11l1 1v12h-1zm24 0h-11l-1-1v-12l1-1h11l1 1v12h-1zm25 0h-11l-1-1v-12l1-1h11l1 1v12h-1zm24 0h-11l-1-1v-12l1-1h11l1 1v12h-1zm24 0h-11l-1-1v-12l1-1h11l1 1v12h-1zm-97 106h-11l-1-1v-12l1-1h11l1 1v12h-1zm24 0h-11l-1-1v-12l1-1h11l1 1v12h-1zm25 0h-11l-1-1v-12l1-1h11l1 1v12h-1zm24 0h-11l-1-1v-12l1-1h11l1 1v12h-1zm24 0h-11l-1-1v-12l1-1h11l1 1v12h-1z" class="st7"/><path d="M3177 2270h-138c-1 0-2-1-2-3v-89l2-3h138l2 3v89c0 2-1 3-2 3zm96 400h-268c-3 0-5-3-5-5v-189c0-3 2-5 5-5h267c3 0 5 2 5 5v189c0 3-2 5-4 5z"/><path d="M1290 1138h32l1 1v32h-33v-33zm-45 102h31l1 1v31l-1 1h-31l-1-1v-31l1-1zm91 0h32v33h-32l-1-1v-31l1-1z" class="st7"/><path d="M1380 1241h-147l-2-2v-67c0-2 1-2 2-2h146c2 0 3 1 3 2v67c0 1-1 2-3 2z"/><path d="M1226 1433h19v46l-1 1h-18v-48zm0 164h18l1 1v46h-19v-47zm139-82h18v47h-18l-1-1v-46h1z" class="st7"/><path d="M1243 1669v-261c0-2 2-4 4-4h115c2 0 4 2 4 4v261c0 2-2 4-4 4h-115c-2 0-4-2-4-4z"/><path d="M943 2563v24l-2 1H745l-1-1v-24l1-2h196l2 2zm-28 313v18l-1 1h-46l-1-1v-18h48zm-96 0v19h-47v-19h47z" class="st7"/><path d="M744 2873v-285c0-2 2-5 5-5h189c2 0 5 3 5 5v285c0 3-3 5-5 5H749c-3 0-5-2-5-5z"/><path d="M1190 2563v24l-2 1H993l-2-1v-24l2-2h195l2 2zm-28 313v18l-1 1h-46v-19h47zm-96 0v19h-46l-1-1v-18h48z" class="st7"/><path d="M991 2873v-285c0-2 2-5 5-5h189c3 0 5 3 5 5v285c0 3-2 5-5 5H996c-2 0-5-2-5-5zm273-518h-34l-1-1v-84l1-2h34l1 2v84l-1 1z"/><path d="M431 756v392H312l81 43 113-4h1l5-381z" style="fill:#232323"/><path d="M431 755v392H312l81 44 113-4h1l5-381v-1zm-114 394h115l73 37-112 3zm189 36-74-37V758l79 48z"/><path d="M1062 1804h17v17l-1 1h-17v-18zm26 0h17v18h-17v-18zm27 0h17v17l-1 1h-16l-1-1v-17h1z" class="st7"/><path d="M1146 1874h-99l-1-2v-50l1-1h99l1 1v50l-1 2z"/><path d="M253 2381v44l-1 1h-86l-1-1v-44l1-1h86l1 1zm110 0v44l-2 1h-85l-1-1v-44l1-1h85l2 1zm-110 408v44l-1 1h-86l-1-1v-44l1-1h86l1 1z" class="st18"/><path d="M381 2791H147c-18 0-32-15-32-32v-303c0-18 14-32 32-32h234c17 0 32 14 32 32v302c0 18-15 33-32 33z" class="st7"/><path d="M736 2680c-64 0-125-3-180-8a768 768 0 0 1-342-100 286 286 0 0 1-132-188 511 511 0 0 1 26-308c32-74 84-140 154-197a754 754 0 0 1 251-132l12 46-6-23 6 23c-1 0-125 34-235 124a473 473 0 0 0-138 178c-36 83-44 177-24 280 13 65 50 116 112 157 132 87 380 118 717 91 258-21 477-68 479-69l11 46a4002 4002 0 0 1-711 80z"/><circle r="86.3" cy="226.4" cx="3528.6" class="st13"/><circle r="86.3" cy="3086.3" cx="298.6" class="st13"/><circle r="86.3" cy="3086.3" cx="3528.6" class="st13"/><text class="st1 st2 st21 st22" transform="rotate(180 835 1162)">GPS</text><text class="st1 st2 st21 st22" transform="rotate(180 833 1102)">DIV</text><text class="st1 st2 st21 st22" transform="rotate(180 847 955)">MAIN</text><text style="letter-spacing:30" class="st1 st2 st21" transform="rotate(180 961 619)">1.5</text><text style="letter-spacing:17" class="st1 st2 st21" transform="rotate(180 1313 619)">NOTECARD</text><g id="_x31_52_C_00000049213835927053378870000007977315887214426783_"><path d="M1347 1963h-168c-9 0-17-8-17-18v-168c0-9 8-17 17-17h168c10 0 18 8 18 17v168c0 10-8 18-18 18z" class="st15"/><path d="M1246 1862c-2-3-3-8-3-13 0-8 3-17 9-25 4-6 11-10 16-10s9 2 11 6l2 6c0 5-1 9-5 9-2 0-5-2-5-4l1-6c0-2-1-4-3-4-4 0-8 6-11 9-4 6-6 13-6 19l1 7c2 5 4 7 8 7 3 0 5-1 9-4l3-3c2-4 3-5 6-5 2 0 5 2 5 4s-5 7-9 10c-4 4-8 6-14 6s-13-4-15-9zm102-71h-170c-1 0-3-1-3-3v-8l3-3h170c2 0 3 2 3 3v8c0 2-1 3-3 3z" class="st1"/></g><text style="font-family:Tahoma" class="st1 st21 st22" transform="translate(1202 1942)">222</text><text y="485" x="-3112" class="st1 st2 st26 st27" transform="rotate(-90)">&lt;VUSB</text><text y="624" x="-3112" class="st1 st2 st26 st27" transform="rotate(-90)">&lt;BAT</text><text y="763" x="-3112" class="st1 st2 st26 st27" transform="rotate(-90)">&lt;MAIN</text><text y="902" x="-3112" class="st1 st2 st26 st27" transform="rotate(-90)">&lt;VIO</text><text y="1179" x="-3112" class="st1 st2 st26 st27" transform="rotate(-90)">V</text><text y="1318" x="-3112" class="st1 st2 st26 st27" transform="rotate(-90)">GND</text><text y="1456" x="-3112" class="st1 st2 st26 st27" transform="rotate(-90)">EN</text><text y="1595" x="-3112" class="st1 st2 st26 st27" transform="rotate(-90)">RST</text><text y="1872" x="-3112" class="st1 st2 st26 st27" transform="rotate(-90)">SCL</text><text y="2011" x="-3112" class="st1 st2 st26 st27" transform="rotate(-90)">SDA</text><text y="2150" x="-3112" class="st1 st2 st26 st27" transform="rotate(-90)">ATTN</text><text y="2288" x="-3112" class="st1 st2 st26 st27" transform="rotate(-90)">AUXEN</text><text y="2427" x="-3112" class="st1 st2 st26 st27" transform="rotate(-90)">AUXRX</text><text y="2565" x="-3112" class="st1 st2 st26 st27" transform="rotate(-90)">AUXTX</text><text y="2704" x="-3112" class="st1 st2 st26 st27" transform="rotate(-90)">AUX1</text><text y="2843" x="-3112" class="st1 st2 st26 st27" transform="rotate(-90)">AUX2</text><text y="2982" x="-3112" class="st1 st2 st26 st27" transform="rotate(-90)">AUX3</text><text y="3120" x="-3112" class="st1 st2 st26 st27" transform="rotate(-90)">AUX4</text><text y="3259" x="-3112" class="st1 st2 st26 st27" transform="rotate(-90)">RX</text><text y="3398" x="-3112" class="st1 st2 st26 st27" transform="rotate(-90)">TX</text><text class="st1 st2 st26 st22" transform="translate(3180 2850)">SOLAR</text><text style="letter-spacing:11" class="st1 st2 st26" transform="translate(3224 2211)">LIPO</text><text style="letter-spacing:18" class="st1 st2 st21" transform="translate(3302 1737)">V</text><text class="st1 st2 st21 st30" transform="rotate(-90 1354 448)">GPS</text><text class="st1 st2 st21 st30" transform="translate(1284 1387)">1V8</text><text class="st1 st2 st21 st30" transform="translate(1284 1738)">3V3</text><text style="letter-spacing:19" class="st1 st2 st21" transform="rotate(-90 1246 -272)">MAIN</text><text class="st1 st2 st21 st22" transform="translate(3329 1926)">+</text><text class="st1 st2 st21 st22" transform="translate(3329 1466)">+</text><text class="st1 st2 st21 st22" transform="translate(3318 2490)">+</text><text class="st1 st2 st21 st22" transform="translate(3246 1518)">1</text><text class="st1 st2 st21 st22" transform="translate(3246 1750)">1</text><circle r="37.4" cy="2728.8" cx="1526.1" class="st7"/><circle r="15.8" cy="2728.8" cx="1526.1" class="st8"/><circle r="24.9" cy="1322.1" cx="1732.8" class="st8"/><circle r="24.9" cy="1198.8" cx="1812.5" class="st8"/><circle r="24.9" cy="1198.8" cx="1875.2" class="st8"/><circle r="24.9" cy="1200.8" cx="2162.3" class="st8"/><circle r="24.9" cy="1200.8" cx="2224.7" class="st8"/><circle r="24.9" cy="1197.9" cx="2464.2" class="st8"/><path d="M2024 1264a28 28 0 0 0-10 1 25 25 0 0 0 3 49h2l6-1a25 25 0 0 0-1-49z" class="st8"/><circle r="24.9" cy="1311.8" cx="2099.3" class="st8"/><circle r="24.9" cy="1320.2" cx="2579.1" class="st8"/><circle r="24.9" cy="1320.2" cx="2640.2" class="st8"/><circle r="24.9" cy="1320.2" cx="2701.4" class="st8"/><circle r="24.9" cy="1320.2" cx="2762.5" class="st8"/><circle r="24.9" cy="1320.2" cx="2820" class="st8"/><circle r="24.9" cy="1346.2" cx="2277.5" class="st8"/><circle r="24.9" cy="1320.2" cx="2356.9" class="st8"/><circle r="37.4" cy="1295.1" cx="2909.9" class="st7"/><circle r="15.8" cy="1295.1" cx="2909.9" class="st8"/><path d="M1507 1342a60 60 0 0 0 48-96h-87v81c10 9 24 15 39 15z" class="st7"/><circle r="15.8" cy="1282.1" cx="1507.4" class="st8"/><path d="M1793 1128h44v37h-44zm817 0h44v37h-44zm-841 0h18v32h-18zm74 0h18v32h-18zm24 0h18v32h-18zm21 0h24v32h-24zm27 0h18v32h-18zm24 0h18v32h-18zm24 0h18v32h-18zm25 0h17v32h-17zm24 0h17v32h-17zm24 0h17v32h-17zm623 0h18v32h-18zm-264 0h17v32h-17zm24 0h17v32h-17zm-267 0h24v32h-24zm315 0h17v32h-17zm24 0h17v32h-17zm24 0h17v32h-17zm24 0h17v32h-17zm24 0h17v32h-17zm24 0h17v32h-17zm-408 0h18v32h-18zm24 0h18v32h-18Zm24 0h18v32h-18Zm24 0h18v32h-18Zm24 0h18v32h-18Zm24 0h18v32h-18zm24 0h18v32h-18zm24 0h18v32h-18zm24 0h18v32h-18zm69 0h23v32h-23z" class="st8"/><path d="M163 2974a66 66 0 1 0-52-107v81c12 16 31 26 52 26z" class="st7"/><circle r="27.8" cy="2908" cx="170.1" class="st8"/><path d="M3660 2835a66 66 0 1 0 55 103v-74a66 66 0 0 0-55-29z" class="st7"/><circle r="27.8" cy="2900.7" cx="3654.2" class="st8"/><path d="m497 1727 1 4 13 69 68-13 40-8 2 10 65-12 1 7 40-8 25-5-4-17c7-10 11-22 9-34-1-16-10-30-23-39l-4-18-26 5-38 8 1 6-65 13 3 11-42 8z" class="st8"/><path d="M1511 1730h187v127h-187z" class="st7" transform="rotate(180 1605 1793)"/><path d="m1410 1855 2 4 32 62 61-31 36-19 5 10 59-30 3 7 36-19 23-12-8-15c4-11 4-24-1-35-6-16-18-26-33-31l-8-17-25 13-34 17 3 7-59 30 5 9-37 19zM1113 844l1 4 14 68 67-13 40-8 2 11 65-13 1 7 40-8 25-5-3-17c6-10 10-21 9-34-2-16-11-30-24-38l-3-19-27 6-38 7 1 7-64 12 2 11-42 8z" class="st8"/><path d="M1511 2420h187v126h-187z" class="st7" transform="rotate(180 1605 2483)"/><path d="m1410 2545 1 4 32 62 62-31 36-19 5 10 59-30 3 6 36-18 23-12-8-16c3-11 4-23-1-35-6-15-18-26-33-30l-9-17-24 12-34 18 3 6-59 30 5 10-37 19z" class="st8"/><path d="M1916 290h-53l-1-2v-52l1-1h53l1 1v52l-1 2zm-69 0h-53l-1-2v-52l1-1h53l1 1v52l-1 2z" class="st7"/><path style="fill:#afafaf" d="M1894 281h-79l-1-2v-34l1-1h79l1 1v34c1 1 0 2-1 2z"/><path d="M1837 251h36v22h-36z" transform="rotate(90 1855 262)"/><path d="M3092 1527h-27l-3-3v-30c0-2 2-3 3-3h27c2 0 3 1 3 3v30c0 1-1 3-3 3zm46 0h-27l-3-3v-30c0-2 2-3 3-3h27c2 0 3 1 3 3v30c0 1-1 3-3 3zm46 0h-27l-2-3v-30c0-2 1-3 2-3h27c2 0 3 1 3 3v30c0 1-1 3-3 3zm47 0h-27c-2 0-3-2-3-3v-30c0-2 1-3 2-3h28c1 0 2 1 2 3v30l-2 3zm-139 236h-27l-3-3v-30c0-2 2-3 3-3h27c2 0 3 1 3 3v30c0 1-1 3-3 3zm46 0h-27l-3-3v-30c0-2 2-3 3-3h27c2 0 3 1 3 3v30c0 1-1 3-3 3zm46 0h-27l-2-3v-30c0-2 1-3 2-3h27c2 0 3 1 3 3v30c0 1-1 3-3 3zm47 0h-27c-2 0-3-2-3-3v-30c0-2 1-3 2-3h28c1 0 2 1 2 3v30l-2 3z" class="st7"/><path d="M310 756h122v393H310Z" class="st33"/><path d="M329 1036h84v85h-84z" class="st34"/><path d="M364 1087v-31h-14v44h41v-13z"/><path d="M350 1056h41v44h-41z" class="st35"/><path d="M329 910h84v85h-84z" class="st34"/><path d="M364 960v-30h-14v43h41v-13z"/><path d="M350 930h41v43h-41z" class="st35"/><path d="M329 783h84v85h-84z" class="st34"/><path d="M364 834v-30h-14v43h41v-13z"/><path d="M350 803h41v44h-41z" class="st35"/><path style="stroke-width:1.02753" d="M3443 3134v122H389v-122z" class="st33"/><path d="M3471 1978h-127l-2-2v-43l2-2h127l2 2v43l-2 2zm0 95h-127l-2-1v-43l2-2h127l2 2v43l-2 1z" class="st7"/><path d="M3490 1867h189v268h-189z" class="st36"/><path d="M3650 1816h28v34l-42-1v22h42v110h21v-166c0-11-9-20-20-20h-29zm-128 373h-29v-34h120v-21h-120v-264h120v-21h-120l1-34h29v-21h-30c-12 0-21 9-21 20v376c0 11 9 20 20 20h30zm156-172-1 117h-42v21h42v34h-27v21h28c11 0 20-9 20-20v-53l1-120z" class="st37"/><circle r="15.6" cy="1951.9" cx="3585.3" class="st38"/><circle r="15.6" cy="2052.6" cx="3585.3" class="st38"/><path d="M3471 1522h-127l-2-2v-43l2-1h127l2 1v43l-2 2zm0 96h-127l-2-2v-43l2-1h127l2 1v43l-2 2z" class="st7"/><path d="M3490 1412h189v267h-189z" class="st36"/><path d="M3650 1360h28v34h-42v21h42v111h21v-167c0-11-9-20-20-20h-29zm-128 373h-29v-34l120 1v-21l-120-1v-263h120v-21h-120l1-34h29v-21h-30c-12 0-21 9-21 20v375c0 11 9 20 20 20h30zm156-171-1 117h-42v21h42v34l-27-1v22h28c11 0 20-9 20-21v-53l1-119z" class="st37"/><circle r="15.6" cy="1496.4" cx="3585.3" class="st38"/><circle r="15.6" cy="1597" cx="3585.3" class="st38"/><path d="M3471 2566h-127l-2-2v-43l2-2h127l2 2v43l-2 2zm0 95h-127c-1 1-2 0-2-1v-43l2-2h127l2 2v43l-2 2z" class="st7"/><path d="M3490 2456h189v267h-189z" class="st36"/><path d="M3650 2404h28v34h-42v21h42v111h21v-167c0-11-9-20-20-20h-29zm-128 373h-29v-34h120v-21h-120v-264l120 1v-21l-120-1 1-34 29 1v-21l-30-1c-12 0-21 9-21 21v375c0 11 9 20 20 20h30zm156-172-1 118-42-1v22h42v33h-27v21h28c11 0 20-9 20-20v-53l1-119z" class="st37"/><circle r="15.6" cy="2540.2" cx="3585.3" class="st38"/><circle r="15.6" cy="2640.8" cx="3585.3" class="st38"/><path d="M3286 1805h-17v-44h-242v44h-17v41h17v44h242v-44h17z" class="st36"/><path d="M3275 1896h-254v-44h-17v-53h17v-44h254v44h17v53h-17zm-243-11h231v-44h18v-30h-18v-44h-231v44h-17v30h17z" class="st37"/><path d="M3286 1569h-17v-44h-242v44h-17v42h17v44h242v-44h17z" class="st36"/><path d="M3275 1661h-254v-44h-17v-53h17v-44h254v44h17v53h-17zm-243-12h231v-44h18v-30h-18v-44h-231v44h-17v30h17z" class="st37"/></g></switch><path id="rect3259" style="stroke:none;fill:url(#pattern3253)" d="M24.31 214.55h208v5.87h-208z"/></svg>