<?xml version="1.0" encoding="UTF-8"?>
<svg width="64.2mm" height="25.3mm" version="1.1" xmlns="http://www.w3.org/2000/svg">
 <path d="m11.946-0.033a5.091 5.091 0 0 0-5.103 5.103v82.744a5.09 5.09 0 0 0 5.103 5.1h225.43a5.09 5.09 0 0 0 5.103-5.1v-82.744a5.091 5.091 0 0 0-5.103-5.103zm20.474 1.82h6.236v6.236h-6.236zm12.434 0h1e-3a3.133 3.133 0 0 1 3.117 3.118 3.133 3.133 0 0 1-3.117 3.118h-1e-3a3.133 3.133 0 0 1-3.117-3.118 3.133 3.133 0 0 1 3.117-3.118zm9.317 0a3.133 3.133 0 0 1 3.118 3.118 3.133 3.133 0 0 1-3.118 3.118 3.133 3.133 0 0 1-3.117-3.118 3.133 3.133 0 0 1 3.117-3.118zm9.317 0h1e-3a3.133 3.133 0 0 1 3.118 3.118 3.133 3.133 0 0 1-3.118 3.118 3.133 3.133 0 0 1-3.118-3.118 3.133 3.133 0 0 1 3.117-3.118zm9.317 0a3.133 3.133 0 0 1 3.118 3.118 3.133 3.133 0 0 1-3.117 3.118h-1e-3a3.133 3.133 0 0 1-3.118-3.118 3.133 3.133 0 0 1 3.117-3.118zm9.316 0a3.133 3.133 0 0 1 3.119 3.118 3.133 3.133 0 0 1-3.119 3.118 3.133 3.133 0 0 1-3.118-3.118 3.133 3.133 0 0 1 3.118-3.118zm9.316 0h1e-3a3.133 3.133 0 0 1 3.117 3.118 3.133 3.133 0 0 1-3.117 3.118 3.133 3.133 0 0 1-3.118-3.118 3.133 3.133 0 0 1 3.117-3.118zm9.317 0a3.133 3.133 0 0 1 3.118 3.118 3.133 3.133 0 0 1-3.118 3.118 3.133 3.133 0 0 1-3.119-3.118 3.133 3.133 0 0 1 3.119-3.118zm9.318 0a3.133 3.133 0 0 1 3.116 3.118 3.133 3.133 0 0 1-3.116 3.118 3.133 3.133 0 0 1-3.118-3.118 3.133 3.133 0 0 1 3.117-3.118zm9.316 0a3.133 3.133 0 0 1 3.118 3.118 3.133 3.133 0 0 1-3.117 3.118h-1e-3a3.133 3.133 0 0 1-3.118-3.118 3.133 3.133 0 0 1 3.118-3.118zm9.316 0a3.133 3.133 0 0 1 3.119 3.118 3.133 3.133 0 0 1-3.119 3.118 3.133 3.133 0 0 1-3.118-3.118 3.133 3.133 0 0 1 3.118-3.118zm9.316 0h1e-3a3.133 3.133 0 0 1 3.117 3.118 3.133 3.133 0 0 1-3.117 3.118 3.133 3.133 0 0 1-3.118-3.118 3.133 3.133 0 0 1 3.117-3.118zm9.317 0a3.133 3.133 0 0 1 3.118 3.118 3.133 3.133 0 0 1-3.118 3.118 3.133 3.133 0 0 1-3.118-3.118 3.133 3.133 0 0 1 3.118-3.118zm9.318 0a3.134 3.134 0 0 1 3.117 3.118 3.134 3.134 0 0 1-3.117 3.118 3.133 3.133 0 0 1-3.118-3.118 3.133 3.133 0 0 1 3.117-3.118zm9.316 0h1e-3a3.133 3.133 0 0 1 3.117 3.118 3.133 3.133 0 0 1-3.117 3.118 3.133 3.133 0 0 1-3.12-3.118 3.133 3.133 0 0 1 3.12-3.118zm9.317 0a3.133 3.133 0 0 1 3.118 3.118 3.133 3.133 0 0 1-3.118 3.118 3.133 3.133 0 0 1-3.119-3.118 3.133 3.133 0 0 1 3.119-3.118zm9.315 0h1e-3a3.133 3.133 0 0 1 3.118 3.118 3.133 3.133 0 0 1-3.118 3.118 3.133 3.133 0 0 1-3.118-3.118 3.133 3.133 0 0 1 3.117-3.118zm9.317 0a3.133 3.133 0 0 1 3.118 3.118 3.133 3.133 0 0 1-3.118 3.118 3.133 3.133 0 0 1-3.116-3.118 3.133 3.133 0 0 1 3.116-3.118zm9.319 0a3.132 3.132 0 0 1 3.115 3.118 3.132 3.132 0 0 1-3.115 3.118h-1e-3a3.133 3.133 0 0 1-3.118-3.118 3.133 3.133 0 0 1 3.118-3.118zm9.32 0.015a3.133 3.133 0 0 1 3.117 3.116 3.133 3.133 0 0 1-3.118 3.119 3.134 3.134 0 0 1-3.116-3.119 3.133 3.133 0 0 1 3.116-3.116zm-195.67 1.393c2.214 0 4.034 1.821 4.034 4.035s-1.821 4.034-4.035 4.034c-2.213 0-4.032-1.821-4.033-4.034 0-2.213 1.82-4.034 4.033-4.035zm15.527 17.226h6.236v6.236h-6.236zm12.434 0h1e-3a3.133 3.133 0 0 1 3.118 3.118 3.133 3.133 0 0 1-3.118 3.118 3.133 3.133 0 0 1-3.118-3.118 3.133 3.133 0 0 1 3.117-3.118zm9.317 0a3.133 3.133 0 0 1 3.118 3.118 3.133 3.133 0 0 1-3.117 3.118h-1e-3a3.133 3.133 0 0 1-3.117-3.118 3.133 3.133 0 0 1 3.117-3.118zm9.317 0h1e-3a3.133 3.133 0 0 1 3.118 3.118 3.133 3.133 0 0 1-3.118 3.118 3.133 3.133 0 0 1-3.118-3.118 3.133 3.133 0 0 1 3.117-3.118zm-31.067 48.913h6.237v6.233h-6.237zm12.435 0a3.133 3.133 0 0 1 3.118 3.117 3.133 3.133 0 0 1-3.118 3.116 3.132 3.132 0 0 1-3.118-3.116 3.132 3.132 0 0 1 3.117-3.117zm9.316 0h1e-3a3.132 3.132 0 0 1 3.117 3.117 3.132 3.132 0 0 1-3.118 3.116 3.133 3.133 0 0 1-3.116-3.116 3.132 3.132 0 0 1 3.116-3.117zm10.858 0h6.235v6.233h-6.235zm12.434 0a3.133 3.133 0 0 1 3.118 3.117 3.132 3.132 0 0 1-3.118 3.116 3.133 3.133 0 0 1-3.116-3.116 3.132 3.132 0 0 1 3.116-3.117zm9.319 0a3.133 3.133 0 0 1 3.118 3.117 3.132 3.132 0 0 1-3.118 3.116 3.132 3.132 0 0 1-3.119-3.116 3.132 3.132 0 0 1 3.118-3.117zm-69.888 13.052c2.214 0 4.035 1.82 4.035 4.034v1e-3c0 2.213-1.822 4.034-4.035 4.033-2.213 0-4.033-1.82-4.034-4.033 0-2.214 1.82-4.035 4.034-4.035zm15.528 3.25h6.236v6.236h-6.236zm12.434 0a3.135 3.135 0 0 1 3.119 3.118v1e-3a3.133 3.133 0 0 1-3.118 3.117h-1e-3a3.132 3.132 0 0 1-3.118-3.117 3.133 3.133 0 0 1 3.118-3.12zm9.316 0h1e-3a3.133 3.133 0 0 1 3.117 3.118v1e-3a3.132 3.132 0 0 1-3.117 3.117 3.133 3.133 0 0 1-3.117-3.118 3.133 3.133 0 0 1 3.116-3.118zm9.318 0a3.135 3.135 0 0 1 3.119 3.118v1e-3a3.133 3.133 0 0 1-3.118 3.117h-1e-3a3.132 3.132 0 0 1-3.117-3.117 3.133 3.133 0 0 1 3.117-3.12zm9.316 0h1e-3a3.133 3.133 0 0 1 3.118 3.118v1e-3a3.132 3.132 0 0 1-3.118 3.117 3.133 3.133 0 0 1-3.119-3.117 3.135 3.135 0 0 1 3.118-3.12zm9.317 0a3.133 3.133 0 0 1 3.118 3.118v1e-3a3.133 3.133 0 0 1-3.118 3.117 3.133 3.133 0 0 1-3.118-3.117 3.133 3.133 0 0 1 3.118-3.12zm9.316 0a3.133 3.133 0 0 1 3.118 3.118v1e-3a3.132 3.132 0 0 1-3.117 3.117h-1e-3a3.132 3.132 0 0 1-3.118-3.117 3.133 3.133 0 0 1 3.118-3.12zm9.316 0a3.133 3.133 0 0 1 3.118 3.118v1e-3a3.133 3.133 0 0 1-3.118 3.117 3.133 3.133 0 0 1-3.118-3.117 3.133 3.133 0 0 1 3.118-3.12zm9.319 0a3.133 3.133 0 0 1 3.116 3.118 3.133 3.133 0 0 1-3.116 3.118h-1e-3a3.132 3.132 0 0 1-3.117-3.117 3.133 3.133 0 0 1 3.117-3.119zm9.315 0h1e-3a3.133 3.133 0 0 1 3.118 3.118v1e-3a3.132 3.132 0 0 1-3.118 3.117 3.133 3.133 0 0 1-3.119-3.117 3.135 3.135 0 0 1 3.118-3.12zm9.317 0a3.133 3.133 0 0 1 3.118 3.118v1e-3a3.133 3.133 0 0 1-3.118 3.117 3.133 3.133 0 0 1-3.118-3.117 3.133 3.133 0 0 1 3.118-3.12zm9.316 0a3.133 3.133 0 0 1 3.118 3.118v1e-3a3.132 3.132 0 0 1-3.117 3.117h-1e-3a3.132 3.132 0 0 1-3.117-3.117 3.133 3.133 0 0 1 3.117-3.12zm9.316 0a3.133 3.133 0 0 1 3.119 3.118v1e-3a3.133 3.133 0 0 1-3.119 3.117 3.133 3.133 0 0 1-3.118-3.117 3.133 3.133 0 0 1 3.118-3.12zm9.319 0a3.134 3.134 0 0 1 3.116 3.118 3.134 3.134 0 0 1-3.116 3.118h-1e-3a3.132 3.132 0 0 1-3.117-3.117 3.133 3.133 0 0 1 3.117-3.119zm9.316 0a3.133 3.133 0 0 1 3.118 3.118v1e-3a3.132 3.132 0 0 1-3.117 3.117h-1e-3a3.133 3.133 0 0 1-3.119-3.117 3.135 3.135 0 0 1 3.119-3.12zm9.316 0a3.135 3.135 0 0 1 3.118 3.118v1e-3a3.133 3.133 0 0 1-3.118 3.117 3.133 3.133 0 0 1-3.118-3.117 3.133 3.133 0 0 1 3.118-3.12zm9.316 0h1e-3a3.133 3.133 0 0 1 3.117 3.118v1e-3a3.132 3.132 0 0 1-3.117 3.117h-1e-3a3.132 3.132 0 0 1-3.117-3.117 3.133 3.133 0 0 1 3.117-3.12zm9.317 0a3.133 3.133 0 0 1 3.118 3.118v1e-3a3.133 3.133 0 0 1-3.118 3.117 3.133 3.133 0 0 1-3.117-3.118 3.133 3.133 0 0 1 3.117-3.118zm9.318 0a3.132 3.132 0 0 1 3.115 3.118 3.132 3.132 0 0 1-3.115 3.118 3.132 3.132 0 0 1-3.118-3.117 3.133 3.133 0 0 1 3.117-3.119zm9.316 0a3.133 3.133 0 0 1 3.118 3.118v1e-3a3.133 3.133 0 0 1-3.118 3.117 3.133 3.133 0 0 1-3.118-3.117 3.133 3.133 0 0 1 3.118-3.12z" fill="#2c8240" stroke-width=".97"/>
 <circle cx="16.921" cy="86.459" r="5.502" fill="none" stroke="#fff" stroke-width=".97"/>
 <circle cx="16.921" cy="7.268" r="5.502" fill="none" stroke="#fff" stroke-width=".97"/>
 <g transform="rotate(-90 77.376 42.824)" stroke-width="3.7795">
  <rect x="70.96" y="48.275" width="3.7288" height="9.4462" fill="#b3b3b3"/>
  <rect x="71.13" y="51.132" width="3.3127" height="3.6045" fill="#f9f9f9"/>
 </g>
 <g transform="rotate(-90 82.449 46.454)" stroke-width="3.7795">
  <rect x="70.96" y="48.275" width="3.7288" height="9.4462" fill="#b3b3b3"/>
  <rect x="71.13" y="51.132" width="3.3127" height="3.6045" fill="#f9f9f9"/>
 </g>
 <g transform="rotate(-90 96.088 49.207)" stroke-width="3.7795">
  <rect x="70.96" y="48.275" width="3.7288" height="9.4462" fill="#b3b3b3"/>
  <rect x="71.13" y="51.132" width="3.3127" height="3.6045" fill="#f9f9f9"/>
 </g>
 <g>
  <path d="M1.538 34.646H23.55v24.386H1.538z" fill="#b3b3b3"/>
  <path d="m11.056 59.295h3.935v1.287h-3.935zm0-26.246h3.935v1.297h-3.935z" fill="#666"/>
  <path d="M3.343 40.16H23.55v13.316H3.343z" fill="#333"/>
  <path d="M1.4 34.346 0 33.52v-.47l2.018 1.297z" fill="#b3b3b3"/>
  <path d="M1.4 34.347H.703L0 33.518l1.4.827z" fill="#ccc"/>
  <path d="m0 60.116 1.4-.826h.618L0 60.588z" fill="#b3b3b3"/>
  <path d="m.703 59.29.697-.001-1.4.827z" fill="#ccc"/>
  <path d="M2.02 51.909h.838v.618H2.02zm0-2.7h.838v.62H2.02zm0-2.698h.838v.617H2.02zm0-2.699h.838v.618H2.02zm0-2.698h.838v.618H2.02z" fill="#f2f2f2"/>
  <path d="M2.02 41.114h.838v.125H2.02zm0 2.698h.838v.126H2.02zm0 2.7h.838v.126H2.02zm0 2.697h.838v.127H2.02zm0 2.701h.838v.127H2.02z" fill="gray"/>
  <path d="M1.78 40.35v.766h.513v.618h-.512v2.08h.512v.617h-.512v2.081h.512v.617h-.512v2.08h.512v.62h-.512v2.08h.512v.618h-.512v.769c0 .1.081.187.188.187h1.377a.187.187 0 0 0 .19-.187V40.35a.19.19 0 0 0-.19-.19H1.97a.191.191 0 0 0-.188.19z" fill="#4d4d4d"/>
  <path d="m23.52 54.904h-2.1132v-2.075h2.1132v-0.597h-0.73002v-10.822h0.72902v-0.676h-2.1132v-2.078h2.1142v-4.302h-21.98v24.938h21.98zm-17.906-14.176h-1.0526v-2.062h1.1385a2.0073 2.01 0 0 1 1.6887-0.916c0.77196 0 1.4281 0.284 1.7686 0.916h5.7892v2.061h-5.7902a2.0063 2.009 0 0 1-3.5432 1e-3zm0 14.09h-1.0526v-2.06h1.1385a2.0073 2.01 0 0 1 1.6887-0.915c0.77196 0 1.4281 0.28 1.7686 0.914h5.7892v2.06h-5.7902a2.0033 2.006 0 0 1-3.5432 0z" fill="#e6e6e6" stroke-width=".99933"/>
  <path d="M1.801 35.57h.854v22.5h-.854z" fill="#b3b3b3"/>
  <path d="M1.538 35.57h.405v22.5h-.405zM27.121 17.01v11.335a.872.872 0 0 1-.871.872H10.555a.872.872 0 0 1-.872-.872V17.01c0-.482.39-.872.872-.872H26.25c.48 0 .871.39.871.872z" fill="#ccc"/>
  <path d="m26.031 22.678a5.448 5.448 0 0 1-5.45 5.448h-4.358a5.449 5.449 0 1 1 0-10.897h4.359a5.45 5.45 0 0 1 5.45 5.45z" fill="#1a1a1a"/>
  <path d="M106.704 37.305v1.82h-3.866v-1.82zm-8.349-3.054v1.82H94.49v-1.82zm0-3.054v1.82H94.49v-1.82zm0 6.108v1.82H94.49v-1.82zm8.35-6.108v1.82h-3.867v-1.82z" fill="#8c8c8c"/>
  <path d="M97.126 28.83h.568v12.394h-.568z" fill="#3d3d3d"/>
  <path d="M103.482 28.88h.569v12.395h-.569z"/>
  <path d="m97.164 41.3.57-.682h5.799l.568.683zm6.937-12.393-.568.568h-5.8l-.569-.568z" fill="#1f1f1f"/>
  <path d="m97.232 29.034h6.596v12.053h-6.596z" fill="#303030"/>
  <path d="M51.125 53.586v1.819H47.26v-1.819zm-8.344-3.052v1.819h-3.864v-1.82zm8.335 0v1.819h-3.863v-1.82zm-8.335-3.052v1.817h-3.864v-1.817zm0 6.104v1.819h-3.864v-1.819zm8.344-6.104v1.817H47.26v-1.817z" fill="#8c8c8c"/>
  <path d="M48.25 45.32v12.046h-6.592V45.319z" fill="#303030"/>
  <path d="M27.121 65.39v11.335a.872.872 0 0 1-.871.873H10.555a.872.872 0 0 1-.872-.873V65.391c0-.481.39-.872.872-.872H26.25c.48 0 .871.39.871.872z" fill="#ccc"/>
  <path d="m26.031 71.059a5.448 5.448 0 0 1-5.45 5.448h-4.358a5.449 5.449 0 1 1 0-10.898h4.359a5.45 5.45 0 0 1 5.45 5.45z" fill="#1a1a1a"/>
 </g>
 <g stroke-width="1.2">
  <path d="M215.19 4.957a2.616 2.616 0 1 1-2.615-2.615 2.616 2.616 0 0 1 2.615 2.615zm-9.337.013a2.616 2.616 0 0 1-5.23 0 2.616 2.616 0 0 1 5.23 0zm-9.31 0a2.616 2.616 0 0 1-5.233 0 2.617 2.617 0 0 1 2.616-2.616 2.617 2.617 0 0 1 2.616 2.616zm-9.3 0a2.616 2.616 0 0 1-5.232 0 2.617 2.617 0 0 1 2.617-2.616 2.617 2.617 0 0 1 2.615 2.616zm-9.33 0a2.616 2.616 0 0 1-5.231 0 2.617 2.617 0 0 1 2.615-2.616 2.617 2.617 0 0 1 2.616 2.616zm-9.306 0a2.616 2.616 0 0 1-5.231 0 2.616 2.616 0 0 1 5.23 0zm-9.32 0a2.616 2.616 0 0 1-5.233 0 2.617 2.617 0 0 1 2.617-2.616 2.617 2.617 0 0 1 2.615 2.616zm-9.316 0a2.616 2.616 0 0 1-5.231 0 2.616 2.616 0 0 1 5.23 0zm-9.32 0a2.616 2.616 0 0 1-5.23 0 2.616 2.616 0 0 1 5.23 0zm-9.312 0a2.616 2.616 0 0 1-5.23 0 2.616 2.616 0 0 1 5.23 0zm-9.325 0a2.616 2.616 0 0 1-5.232 0 2.617 2.617 0 0 1 2.615-2.616 2.617 2.617 0 0 1 2.617 2.616zm-9.306 0a2.616 2.616 0 0 1-5.231 0 2.616 2.616 0 0 1 5.23 0zm-9.327 0a2.616 2.616 0 0 1-5.231 0 2.616 2.616 0 0 1 5.23 0zm-9.31 0a2.616 2.616 0 1 1-5.231-.001 2.616 2.616 0 0 1 5.232 0zm-9.33 0a2.616 2.616 0 0 1-5.232 0 2.617 2.617 0 0 1 2.615-2.616A2.617 2.617 0 0 1 84.74 4.97zm-9.303 0a2.616 2.616 0 1 1-5.232-.001 2.616 2.616 0 0 1 5.232 0zm-9.314 0a2.616 2.616 0 0 1-5.231 0 2.617 2.617 0 0 1 2.615-2.616 2.617 2.617 0 0 1 2.616 2.616zm-9.325 0a2.616 2.616 0 0 1-5.232 0 2.617 2.617 0 0 1 2.617-2.616 2.617 2.617 0 0 1 2.615 2.616zm-9.313.012a2.616 2.616 0 1 1-5.232 0 2.616 2.616 0 0 1 5.232 0z" fill="none" stroke="#9a916c"/>
  <path d="M32.446 1.82c-.025 0-.044 1.402-.044 3.142 0 1.741.019 3.142.044 3.142h6.229c.025 0 .045-1.4.045-3.142 0-1.74-.02-3.142-.045-3.142zm3.087.534h.001A2.628 2.628 0 0 1 38.15 4.97a2.628 2.628 0 0 1-2.615 2.615 2.628 2.628 0 0 1-2.616-2.615 2.628 2.628 0 0 1 2.615-2.616z" fill="gray"/>
  <path d="M38.203 4.986a2.617 2.617 0 0 1-2.615 2.616 2.617 2.617 0 0 1-2.617-2.616 2.616 2.616 0 0 1 5.232 0zm18.587 67.52a2.616 2.616 0 1 1-2.615-2.615 2.616 2.616 0 0 1 2.615 2.615zm-9.301 0a2.616 2.616 0 1 1-2.615-2.615 2.616 2.616 0 0 1 2.615 2.615zm41.906-.01a2.616 2.616 0 0 1-5.231 0 2.616 2.616 0 0 1 5.23 0zm-9.301 0a2.616 2.616 0 0 1-5.231 0 2.616 2.616 0 0 1 5.23 0zm-13.968-48.93a2.616 2.616 0 0 1-5.231 0 2.616 2.616 0 0 1 5.23 0zm-9.326 0a2.616 2.616 0 1 1-5.232 0 2.616 2.616 0 0 1 5.232 0zm-9.312.013a2.616 2.616 0 1 1-5.232 0 2.616 2.616 0 0 1 5.232 0zm167.71 65.205a2.616 2.616 0 0 1-5.231 0 2.616 2.616 0 0 1 5.23 0zm-9.337.014a2.617 2.617 0 0 1-2.616 2.615 2.616 2.616 0 1 1 2.616-2.615zm-9.311 0a2.617 2.617 0 0 1-2.616 2.615 2.617 2.617 0 0 1-2.616-2.615 2.616 2.616 0 0 1 5.232 0zm-9.3 0a2.616 2.616 0 1 1-2.615-2.615 2.616 2.616 0 0 1 2.616 2.615zm-9.33 0a2.616 2.616 0 0 1-5.23 0 2.616 2.616 0 0 1 5.23 0zm-9.305 0a2.617 2.617 0 0 1-2.616 2.615 2.616 2.616 0 1 1 2.616-2.615zm-9.321 0a2.616 2.616 0 1 1-2.615-2.615 2.616 2.616 0 0 1 2.615 2.615zm-9.316 0a2.616 2.616 0 0 1-5.23 0 2.616 2.616 0 0 1 5.23 0zm-9.32 0a2.616 2.616 0 1 1-2.615-2.615 2.616 2.616 0 0 1 2.616 2.615zm-9.311 0a2.616 2.616 0 1 1-2.616-2.615 2.616 2.616 0 0 1 2.616 2.615zm-9.325 0a2.617 2.617 0 0 1-2.616 2.615 2.617 2.617 0 0 1-2.616-2.615 2.616 2.616 0 0 1 5.232 0zm-9.306 0a2.616 2.616 0 1 1-2.616-2.616 2.616 2.616 0 0 1 2.616 2.616zm-9.328 0a2.617 2.617 0 0 1-2.615 2.615 2.616 2.616 0 1 1 2.615-2.615zm-9.308 0a2.617 2.617 0 0 1-2.616 2.615 2.616 2.616 0 1 1 2.616-2.615zm-9.332 0a2.617 2.617 0 0 1-2.615 2.615 2.617 2.617 0 0 1-2.617-2.615 2.616 2.616 0 0 1 5.232 0zm-9.3 0a2.617 2.617 0 0 1-2.617 2.615 2.616 2.616 0 1 1 2.616-2.615zm-9.317 0a2.616 2.616 0 0 1-5.23 0 2.616 2.616 0 0 1 5.23 0zm-9.324 0a2.616 2.616 0 1 1-2.615-2.615 2.616 2.616 0 0 1 2.615 2.615zm-9.314.012a2.616 2.616 0 0 1-2.615 2.616 2.617 2.617 0 0 1-2.616-2.616 2.616 2.616 0 0 1 5.231 0z" fill="none" stroke="#9a916c"/>
  <path d="M32.457 20.454c-.025 0-.044 1.402-.044 3.142 0 1.741.019 3.142.044 3.142h6.228c.025 0 .045-1.4.045-3.142 0-1.74-.02-3.142-.045-3.142zm3.087.535a2.628 2.628 0 0 1 2.616 2.615v.001a2.628 2.628 0 0 1-2.616 2.616 2.628 2.628 0 0 1-2.615-2.616 2.628 2.628 0 0 1 2.615-2.616z" fill="gray"/>
  <path d="m38.213 23.621a2.616 2.616 0 0 1-5.23 0 2.616 2.616 0 0 1 5.23 0z" fill="none" stroke="#9a916c"/>
  <path d="M32.457 69.327c-.025 0-.044 1.402-.044 3.143 0 1.74.019 3.14.044 3.14h6.228c.025 0 .045-1.4.045-3.14 0-1.74-.02-3.143-.045-3.143zm3.087.535a2.628 2.628 0 0 1 2.616 2.615v.001a2.628 2.628 0 0 1-2.616 2.616 2.628 2.628 0 0 1-2.615-2.616 2.628 2.628 0 0 1 2.615-2.616z" fill="gray"/>
  <path d="m38.213 72.494a2.616 2.616 0 0 1-5.23 0 2.616 2.616 0 0 1 5.23 0z" fill="none" stroke="#9a916c"/>
  <path d="M32.457 85.691c-.025 0-.044 1.402-.044 3.143 0 1.74.019 3.14.044 3.14h6.228c.025 0 .045-1.4.045-3.14 0-1.74-.02-3.143-.045-3.143zm3.087.535a2.628 2.628 0 0 1 2.616 2.615v.001a2.628 2.628 0 0 1-2.616 2.616 2.628 2.628 0 0 1-2.615-2.616 2.628 2.628 0 0 1 2.615-2.616z" fill="gray"/>
  <path d="m38.213 88.857a2.616 2.616 0 0 1-5.23 0 2.616 2.616 0 0 1 5.23 0z" fill="none" stroke="#9a916c"/>
  <path d="M65.025 69.334c-.025 0-.044 1.402-.044 3.143 0 1.74.018 3.14.044 3.14h6.229c.024 0 .045-1.4.045-3.14 0-1.74-.021-3.143-.045-3.143zm3.087.535h.001a2.628 2.628 0 0 1 2.615 2.615v.001a2.628 2.628 0 0 1-2.615 2.616 2.628 2.628 0 0 1-2.616-2.616 2.628 2.628 0 0 1 2.615-2.616z" fill="gray"/>
  <path d="m70.781 72.501a2.616 2.616 0 0 1-5.23 0 2.616 2.616 0 0 1 5.23 0z" fill="none" stroke="#9a916c"/>
 </g>
 <rect transform="rotate(90)" x="13.867" y="-242.3" width="65.734" height="115.65" fill="#333" stroke="#277738" stroke-linecap="round" stroke-linejoin="round" stroke-width=".4478"/>
 <path d="m222.97 21.6h16.872v6.6784l-9.1393 0.35153-0.3515 9.1393h9.4908v9.1393l-9.1393 0.35157v7.7333l9.1393 0.35153v17.224h-17.575l-0.703 0.35153" fill="none" stroke="#fefefe" stroke-opacity=".11726" stroke-width="1.8025"/>
 <g stroke-width="3.7795">
  <rect transform="rotate(90)" x="19.843" y="-215.94" width="53.427" height="84.363" fill="#c5c5c5"/>
  <rect transform="rotate(90)" x="53.938" y="-215.94" width="19.333" height="14.06" fill="#151515" opacity=".8"/>
  <rect transform="rotate(90)" x="65.261" y="-215.33" width="7.1546" height="11.603" fill="#ffb768"/>
  <rect transform="rotate(90)" x="65.424" y="-213.63" width="6.8156" height="8.5285" fill="#383838"/>
 </g>
 <g font-family="sans-serif">
  <g transform="matrix(0 3.7795 -3.7795 0 241.45 -9.3301)" fill="#000000">
   <text x="9.3259306" y="8.8483677" font-size="1.2777px" stroke-width=".031943" style="line-height:1.25" xml:space="preserve"><tspan x="9.3259306" y="8.8483677">ESPRESSIF</tspan></text>
   <text x="8.1539488" y="9.9499722" font-size=".89826px" stroke-width=".022457" style="line-height:1.25" xml:space="preserve"><tspan x="8.1539488" y="9.9499722" stroke-width=".022457">ESP32-S2 WROOM</tspan></text>
   <circle cx="8.5522" cy="8.3658" r=".58729" fill="#151515" opacity=".8"/>
  </g>
  <text x="32.3259306" y="66.8483677" fill="#ffffff" font-size="8px" stroke-width=".031943" style="line-height:1.25" xml:space="preserve">FRANZININHO  WIFI</text>
  <g fill="#ffffff" font-size="5px" stroke-width="3.4356" transform="matrix(0 .9 -1.1 0 0 0)">
   <text x="10" y="-191.40">0</text>
   <text x="10" y="-183.16">1</text>
   <text x="10" y="-174.61">2</text>
   <text x="10" y="-166.07">3</text>
   <text x="10" y="-157.66">4</text>
   <text x="10" y="-149.11">5</text>
   <text x="10" y="-140.77">6</text>
   <text x="10" y="-132.23">7</text>
   <text x="9.5" y="-123.63">10</text>
   <text x="9.5" y="-115.20">11</text>
   <text x="9.5" y="-106.76">12</text>
   <text x="9.5" y="-98.32">13</text>
   <text x="9.5" y="-89.80">14</text>
   <text x="9.5" y="-81.35">15</text>
   <text x="9.5" y="-72.91">16</text>
   <text x="9.5" y="-64.27">17</text>
   <text x="10" y="-55.91">8</text>
   <text x="10" y="-47.24">9</text>
   <text x="88.7" y="-191.23">46</text>
   <text x="88.7" y="-183.06">45</text>
   <text x="88.7" y="-174.71">44</text>
   <text x="88.7" y="-166.27">43</text>
   <text x="88.7" y="-157.76">42</text>
   <text x="88.7" y="-149.31">41</text>
   <text x="88.7" y="-140.87">40</text>
   <text x="88.7" y="-132.43">39</text>
   <text x="88.7" y="-123.66">38</text>
   <text x="88.7" y="-115.2">37</text>
   <text x="88.7" y="-106.95">36</text>
   <text x="88.7" y="-98.51">35</text>
   <text x="88.7" y="-89.99">34</text>
   <text x="88.7" y="-81.55">33</text>
   <text x="88.7" y="-73.10">26</text>
   <text x="88.7" y="-64.66">21</text>
   <text x="88.7" y="-55.90">18</text>
   <g font-size="4.3px">
    <text x="30.75" y="-56.11">SDA</text>
    <text x="30.75" y="-47.41">SCL</text>
    <text x="30.75" y="-38.98">3V3</text>
    <text x="30.85" y="-30.54">GND</text>
    <text x="88.29" y="-47.70">5V</text>
    <text x="84.61" y="-30.71">GND</text>
    <text x="84.61" y="-39.32">GND</text>
    <text x="10" y="-38.98">3V3</text>
    <text x="10" y="-30.54">GND</text>
    </g>
  </g>
 </g>
</svg>
