<?xml version="1.0" encoding="UTF-8"?>
<svg width="75.2mm" height="68.2mm" version="1.1" viewBox="0 0 75.2 68.2" xmlns="http://www.w3.org/2000/svg">
 <path d="m5.13 0.132-0.306 0.00929-0.305 0.0279-0.303 0.047-0.299 0.0651-0.296 0.0837-0.289 0.102-0.283 0.119-0.274 0.136-0.266 0.153-0.256 0.168-0.245 0.184-0.233 0.199-0.221 0.213-0.207 0.226-0.193 0.238-0.178 0.25-0.162 0.26-0.147 0.27-0.129 0.278-0.112 0.285-0.0946 0.292-0.076 0.297-0.0579 0.301-0.0393 0.304-0.0243 0.49v58l0.00929 0.306 0.0279 0.305 0.047 0.303 0.0656 0.299 0.0832 0.295 0.102 0.289 0.119 0.283 0.136 0.275 0.153 0.266 0.168 0.256 0.184 0.245 0.199 0.234 0.213 0.221 0.226 0.207 0.239 0.193 0.249 0.178 0.26 0.163 0.27 0.146 0.278 0.13 0.285 0.112 0.292 0.094 0.297 0.0765 0.301 0.0579 0.304 0.0398 0.49 0.0238h6c0-0.25 0.167-0.5 0.5-0.5 0.333 0 0.5 0.25 0.5 0.5h58l1.26-0.161 2.16-1.19 1.33-2.09 0.248-1.56v-13.2h-7v-2.2h7v-42.6l-0.00931-0.306-0.0284-0.305-0.0465-0.303-0.0656-0.299-0.0837-0.296-0.101-0.289-0.119-0.282-0.136-0.275-0.152-0.266-0.169-0.256-0.184-0.245-0.199-0.234-0.213-0.221-0.226-0.207-0.238-0.193-0.25-0.178-0.26-0.162-0.27-0.146-0.278-0.13-0.286-0.112-0.291-0.0946-0.297-0.076-0.301-0.0579-0.304-0.0398-0.489-0.0238zm-0.5 2.75c2.33 0 2.33 3.5 0 3.5-2.33 0-2.33-3.5 0-3.5zm66 0c2.33 0 2.33 3.5 0 3.5-2.33 0-2.33-3.5 0-3.5zm-27.2 53c2.47 0 2.47 3.7 0 3.7-2.47 0-2.47-3.7 0-3.7zm-38.8 6c2.33 0 2.33 3.5 0 3.5-2.33 0-2.33-3.5 0-3.5zm66 0c2.33 0 2.33 3.5 0 3.5-2.33 0-2.33-3.5 0-3.5zm-59 4.45c0.666 0 0.666 0.999 0 0.999-0.666 0-0.666-0.999 0-0.999zm2.54 0c0.666 0 0.666 0.999 0 0.999-0.666 0-0.666-0.999 0-0.999zm2.54 0c0.666 0 0.666 0.999 0 0.999-0.656 0-0.666-0.968-0.0305-0.998 0.0101-5.29e-4 0.0201-0.0011 0.0305-0.0011zm2.54 0c0.666 0 0.666 0.999 0 0.999-0.656 0-0.666-0.968-0.031-0.998 0.0101-5.29e-4 0.0206-0.0011 0.031-0.0011zm2.54 0c0.666 0 0.666 0.999 0 0.999-0.656 0-0.666-0.968-0.031-0.998 0.0101-5.29e-4 0.0206-0.0011 0.031-0.0011zm2.54 0c0.666 0 0.666 0.999 0 0.999-0.656 0-0.666-0.968-0.031-0.998 0.0101-5.29e-4 0.0206-0.0011 0.031-0.0011zm2.54 0c0.666 0 0.666 0.999 0 0.999-0.656 0-0.666-0.968-0.0305-0.998 0.0101-5.29e-4 0.0201-0.0011 0.0305-0.0011zm2.54 0c0.666 0 0.666 0.999 0 0.999-0.656 0-0.666-0.968-0.0305-0.998 0.0101-5.29e-4 0.0201-0.0011 0.0305-0.0011zm2.54 0c0.666 0 0.666 0.999 0 0.999-0.656 0-0.666-0.968-0.0305-0.998 0.0101-5.29e-4 0.0201-0.0011 0.0305-0.0011zm2.54 0c0.666 0 0.666 0.999 0 0.999-0.656 0-0.666-0.968-0.0305-0.998 0.0101-5.29e-4 0.0201-0.0011 0.0305-0.0011zm2.54 0c0.666 0 0.666 0.999 0 0.999-0.656 0-0.666-0.968-0.031-0.998 0.0101-5.29e-4 0.0206-0.0011 0.031-0.0011zm2.54 0c0.666 0 0.666 0.999 0 0.999-0.656 0-0.666-0.968-0.031-0.998 0.0101-5.29e-4 0.0206-0.0011 0.031-0.0011zm2.54 0c0.666 0 0.666 0.999 0 0.999-0.656 0-0.666-0.968-0.031-0.998 0.0101-5.29e-4 0.0206-0.0011 0.031-0.0011zm2.54 0c0.666 0 0.666 0.999 0 0.999-0.656 0-0.666-0.968-0.0305-0.998 0.0101-5.29e-4 0.0201-0.0011 0.0305-0.0011zm2.54 0c0.666 0 0.666 0.999 0 0.999-0.656 0-0.666-0.968-0.0305-0.998 0.0101-5.29e-4 0.0201-0.0011 0.0305-0.0011zm2.54 0c0.666 0 0.666 0.999 0 0.999-0.656 0-0.666-0.968-0.0305-0.998 0.0101-5.29e-4 0.0201-0.0011 0.0305-0.0011zm2.54 0c0.666 0 0.666 0.999 0 0.999-0.656 0-0.666-0.968-0.031-0.998 0.0101-5.29e-4 0.0206-0.0011 0.031-0.0011zm2.54 0c0.666 0 0.666 0.999 0 0.999-0.656 0-0.666-0.968-0.0305-0.998 0.0101-5.29e-4 0.0201-0.0011 0.0305-0.0011zm2.54 0c0.666 0 0.666 0.999 0 0.999-0.656 0-0.666-0.968-0.0305-0.998 0.0101-5.29e-4 0.0201-0.0011 0.0305-0.0011zm2.54 0c0.666 0 0.666 0.999 0 0.999-0.656 0-0.666-0.968-0.0305-0.998 0.0101-5.29e-4 0.0201-0.0011 0.0305-0.0011zm2.54 0c0.666 0 0.666 0.999 0 0.999-0.656 0-0.666-0.968-0.0305-0.998 0.0101-5.29e-4 0.0201-0.0011 0.0305-0.0011zm2.54 0c0.666 0 0.666 0.999 0 0.999-0.656 0-0.666-0.968-0.031-0.998 0.0101-5.29e-4 0.0206-0.0011 0.031-0.0011z" fill="#2f6032" stroke="#000" stroke-linecap="square" stroke-miterlimit="10" stroke-width=".265"/>
 <path d="m10.6 65.4v2.87h0.669c0-0.25 0.0668-0.5 0.4-0.5 0.333 0 0.4 0.25 0.4 0.5h0.67v-2.87zm1.07 0.949c0.666 0 0.666 0.999 0 0.999-0.666 0-0.666-0.999 0-0.999z" fill="#ffe428" fill-opacity=".98"/>
 <path d="m43.4 54.6c-4.13 0-4.13 6.2 0 6.2 4.13 0 4.13-6.2 0-6.2zm0 1.25c2.47 0 2.47 3.7 0 3.7-2.47 0-2.47-3.7 0-3.7z" fill="#b7bfc3"/>
 <g fill-opacity=".4">
  <path d="m33.4 23.8c0.866 0 0.866 1.3 0 1.3-0.866 0-0.866-1.3 0-1.3z"/>
  <path d="m33.4 23.9c0.733 0 0.733 1.1 0 1.1-0.733 0-0.733-1.1 0-1.1z" fill="#fff"/>
  <path d="m53.4 23.7c1.07 0 1.07 1.6 0 1.6-1.07 0-1.07-1.6 0-1.6z"/>
  <path d="m53.4 23.7c1.07 0 1.07 1.6 0 1.6-1.07 0-1.07-1.6 0-1.6z" fill="#fff"/>
 </g>
 <g>
  <rect x="32.6" y="19.2" width="21.7" height="6.44" fill="#282828" stroke-width=".18"/>
  <rect x="17.5" y=".106" width="40.4" height="7.1" fill="#282828" stroke-width=".258"/>
  <text x="17.090349" y="12.282442" fill="#ffffff" font-family="sans-serif" font-size="2.8px" stroke-width=".07" text-anchor="middle" style="line-height:1.25" xml:space="preserve"><tspan x="17.090349" y="12.282442" text-align="center">NOTECARRIER-A</tspan><tspan x="17.090349" y="15.780943" text-align="center">1.7</tspan></text>
 </g>
 <g fill="#ffffff" font-family="sans-serif" font-size="1.84px" stroke-width=".0459">
  <text transform="rotate(-90)" x="-65.132782" y="65.698685" style="line-height:1.25" xml:space="preserve"><tspan x="-65.132782" y="65.698685" fill="#ffffff" stroke-width=".0459">TX</tspan></text>
  <text transform="rotate(-90)" x="-65.132782" y="63.052849" style="line-height:1.25" xml:space="preserve"><tspan x="-65.132782" y="63.052849" fill="#ffffff" stroke-width=".0459">RX</tspan></text>
  <text transform="rotate(-90)" x="-65.132782" y="40.298679" style="line-height:1.25" xml:space="preserve"><tspan x="-65.132782" y="40.298679" fill="#ffffff" stroke-width=".0459">SDA</tspan></text>
  <text transform="rotate(-90)" x="-65.132782" y="37.652843" style="line-height:1.25" xml:space="preserve"><tspan x="-65.132782" y="37.652843" fill="#ffffff" stroke-width=".0459">SCL</tspan></text>
 </g>
 <g fill="#ffe428">
  <path d="m10.6 65.4v2.87h0.669c0-0.25 0.0668-0.5 0.4-0.5 0.333 0 0.4 0.25 0.4 0.5h0.67v-2.87zm1.07 0.949c0.666 0 0.666 0.999 0 0.999-0.666 0-0.666-0.999 0-0.999z"/>
  <path d="m13.1 65.4v2.87h0.669c0-0.25 0.0668-0.5 0.4-0.5 0.333 0 0.4 0.25 0.4 0.5h0.67v-2.87zm1.07 0.949c0.666 0 0.666 0.999 0 0.999-0.666 0-0.666-0.999 0-0.999z"/>
  <path d="m15.6 65.4v2.87h0.669c0-0.25 0.0668-0.5 0.4-0.5 0.333 0 0.4 0.25 0.4 0.5h0.67v-2.87zm1.07 0.949c0.666 0 0.666 0.999 0 0.999-0.666 0-0.666-0.999 0-0.999z"/>
  <path d="m18.2 65.4v2.87h0.669c0-0.25 0.0668-0.5 0.4-0.5 0.333 0 0.4 0.25 0.4 0.5h0.67v-2.87zm1.07 0.949c0.666 0 0.666 0.999 0 0.999-0.666 0-0.666-0.999 0-0.999z"/>
  <path d="m20.7 65.4v2.87h0.669c0-0.25 0.0668-0.5 0.4-0.5 0.333 0 0.4 0.25 0.4 0.5h0.67v-2.87zm1.07 0.949c0.666 0 0.666 0.999 0 0.999-0.666 0-0.666-0.999 0-0.999z"/>
  <path d="m23.3 65.4v2.87h0.669c0-0.25 0.0668-0.5 0.4-0.5 0.333 0 0.4 0.25 0.4 0.5h0.67v-2.87zm1.07 0.949c0.666 0 0.666 0.999 0 0.999-0.666 0-0.666-0.999 0-0.999z"/>
  <path d="m23.3 65.4v2.87h0.669c0-0.25 0.0668-0.5 0.4-0.5 0.333 0 0.4 0.25 0.4 0.5h0.67v-2.87zm1.07 0.949c0.666 0 0.666 0.999 0 0.999-0.666 0-0.666-0.999 0-0.999z"/>
  <path d="m25.8 65.4v2.87h0.669c0-0.25 0.0668-0.5 0.4-0.5 0.333 0 0.4 0.25 0.4 0.5h0.67v-2.87zm1.07 0.949c0.666 0 0.666 0.999 0 0.999-0.666 0-0.666-0.999 0-0.999z"/>
  <path d="m28.3 65.4v2.87h0.669c0-0.25 0.0668-0.5 0.4-0.5 0.333 0 0.4 0.25 0.4 0.5h0.67v-2.87zm1.07 0.949c0.666 0 0.666 0.999 0 0.999-0.666 0-0.666-0.999 0-0.999z"/>
  <path d="m30.9 65.4v2.87h0.669c0-0.25 0.0668-0.5 0.4-0.5 0.333 0 0.4 0.25 0.4 0.5h0.67v-2.87zm1.07 0.949c0.666 0 0.666 0.999 0 0.999-0.666 0-0.666-0.999 0-0.999z"/>
  <path d="m33.4 65.4v2.87h0.669c0-0.25 0.0668-0.5 0.4-0.5 0.333 0 0.4 0.25 0.4 0.5h0.67v-2.87zm1.07 0.949c0.666 0 0.666 0.999 0 0.999-0.666 0-0.666-0.999 0-0.999z"/>
  <path d="m36 65.4v2.87h0.669c0-0.25 0.0668-0.5 0.4-0.5 0.333 0 0.4 0.25 0.4 0.5h0.67v-2.87zm1.07 0.949c0.666 0 0.666 0.999 0 0.999-0.666 0-0.666-0.999 0-0.999z"/>
  <path d="m38.5 65.4v2.87h0.669c0-0.25 0.0668-0.5 0.4-0.5 0.333 0 0.4 0.25 0.4 0.5h0.67v-2.87zm1.07 0.949c0.666 0 0.666 0.999 0 0.999-0.666 0-0.666-0.999 0-0.999z"/>
  <path d="m41 65.4v2.87h0.669c0-0.25 0.0668-0.5 0.4-0.5 0.333 0 0.4 0.25 0.4 0.5h0.67v-2.87zm1.07 0.949c0.666 0 0.666 0.999 0 0.999-0.666 0-0.666-0.999 0-0.999z"/>
  <path d="m43.6 65.4v2.87h0.669c0-0.25 0.0668-0.5 0.4-0.5 0.333 0 0.4 0.25 0.4 0.5h0.67v-2.87zm1.07 0.949c0.666 0 0.666 0.999 0 0.999-0.666 0-0.666-0.999 0-0.999z"/>
  <path d="m46.1 65.4v2.87h0.669c0-0.25 0.0668-0.5 0.4-0.5 0.333 0 0.4 0.25 0.4 0.5h0.67v-2.87zm1.07 0.949c0.666 0 0.666 0.999 0 0.999-0.666 0-0.666-0.999 0-0.999z"/>
  <path d="m48.7 65.4v2.87h0.669c0-0.25 0.0668-0.5 0.4-0.5 0.333 0 0.4 0.25 0.4 0.5h0.67v-2.87zm1.07 0.949c0.666 0 0.666 0.999 0 0.999-0.666 0-0.666-0.999 0-0.999z"/>
  <path d="m51.2 65.4v2.87h0.669c0-0.25 0.0668-0.5 0.4-0.5 0.333 0 0.4 0.25 0.4 0.5h0.67v-2.87zm1.07 0.949c0.666 0 0.666 0.999 0 0.999-0.666 0-0.666-0.999 0-0.999z"/>
  <path d="m53.7 65.4v2.87h0.669c0-0.25 0.0668-0.5 0.4-0.5 0.333 0 0.4 0.25 0.4 0.5h0.67v-2.87zm1.07 0.949c0.666 0 0.666 0.999 0 0.999-0.666 0-0.666-0.999 0-0.999z"/>
  <path d="m56.3 65.4v2.87h0.669c0-0.25 0.0668-0.5 0.4-0.5 0.333 0 0.4 0.25 0.4 0.5h0.67v-2.87zm1.07 0.949c0.666 0 0.666 0.999 0 0.999-0.666 0-0.666-0.999 0-0.999z"/>
  <path d="m58.8 65.4v2.87h0.669c0-0.25 0.0668-0.5 0.4-0.5 0.333 0 0.4 0.25 0.4 0.5h0.67v-2.87zm1.07 0.949c0.666 0 0.666 0.999 0 0.999-0.666 0-0.666-0.999 0-0.999z"/>
  <path d="m61.4 65.4v2.87h0.669c0-0.25 0.0668-0.5 0.4-0.5 0.333 0 0.4 0.25 0.4 0.5h0.67v-2.87zm1.07 0.949c0.666 0 0.666 0.999 0 0.999-0.666 0-0.666-0.999 0-0.999z"/>
  <path d="m63.9 65.4v2.87h0.669c0-0.25 0.0668-0.5 0.4-0.5 0.333 0 0.4 0.25 0.4 0.5h0.67v-2.87zm1.07 0.949c0.666 0 0.666 0.999 0 0.999-0.666 0-0.666-0.999 0-0.999z"/>
 </g>
</svg>
