<?xml version="1.0" encoding="UTF-8" standalone="no"?>
<!-- Created with Inkscape (http://www.inkscape.org/) -->

<svg
   width="96.548325mm"
   height="98.799751mm"
   viewBox="0 0 96.548325 98.799751"
   version="1.1"
   id="svg1"
   xml:space="preserve"
   inkscape:version="1.3 (0e150ed, 2023-07-21)"
   sodipodi:docname="board.svg"
   inkscape:export-filename="s3-box.png"
   inkscape:export-xdpi="107.463"
   inkscape:export-ydpi="107.463"
   xmlns:inkscape="http://www.inkscape.org/namespaces/inkscape"
   xmlns:sodipodi="http://sodipodi.sourceforge.net/DTD/sodipodi-0.dtd"
   xmlns:xlink="http://www.w3.org/1999/xlink"
   xmlns="http://www.w3.org/2000/svg"
   xmlns:svg="http://www.w3.org/2000/svg"><sodipodi:namedview
     id="namedview1"
     pagecolor="#ffffff"
     bordercolor="#000000"
     borderopacity="0.25"
     inkscape:showpageshadow="2"
     inkscape:pageopacity="0.0"
     inkscape:pagecheckerboard="0"
     inkscape:deskcolor="#d1d1d1"
     inkscape:document-units="mm"
     inkscape:zoom="1.122987"
     inkscape:cx="230.6349"
     inkscape:cy="73.019544"
     inkscape:window-width="1920"
     inkscape:window-height="1045"
     inkscape:window-x="0"
     inkscape:window-y="25"
     inkscape:window-maximized="0"
     inkscape:current-layer="layer1" /><defs
     id="defs1"><pattern
       inkscape:collect="always"
       xlink:href="#pins-female"
       id="pattern5"
       patternTransform="rotate(90,16.148456,1.7908078)" /><pattern
       id="pins-female"
       width="2.54"
       height="2.54"
       patternUnits="userSpaceOnUse"><rect
         x="0"
         y="0"
         width="2.54"
         height="2.54"
         fill="#333"
         id="rect3-0" /><rect
         x="1.079"
         y="0.896"
         width="0.762"
         height="0.762"
         style="fill: #191919"
         id="rect4-9" /><path
         transform="translate(1.079, 1.658) rotate(180 0 0)"
         d="m 0 0 v 0.762 l 0.433,0.433 c 0.046,-0.046 0.074,-0.109 0.074,-0.179 v -1.27 c 0,-0.070 -0.028,-0.133 -0.074,-0.179 z"
         style="opacity: 0.25"
         id="path4-56" /><path
         transform="translate(1.841, 1.658) rotate(90 0 0)"
         d="m 0 0 v 0.762 l 0.433,0.433 c 0.046,-0.046 0.074,-0.109 0.074,-0.179 v -1.27 c 0,-0.070 -0.028,-0.133 -0.074,-0.179 z"
         style="opacity: 0.3; fill: #fff"
         id="path5" /><path
         transform="translate(1.841, 0.896)"
         d="m 0 0 v 0.762 l 0.433,0.433 c 0.046,-0.046 0.074,-0.109 0.074,-0.179 v -1.27 c 0,-0.070 -0.028,-0.133 -0.074,-0.179 z"
         style="opacity: 0.15; fill: #fff"
         id="path6" /><path
         transform="translate(1.079, 0.896) rotate(270 0 0)"
         d="m 0 0 v 0.762 l 0.433,0.433 c 0.046,-0.046 0.074,-0.109 0.074,-0.179 v -1.27 c 0,-0.070 -0.028,-0.133 -0.074,-0.179 z"
         style="opacity: 0.35"
         id="path7" /></pattern><pattern
       inkscape:collect="always"
       xlink:href="#pins-female-2"
       id="pattern5-7"
       patternTransform="rotate(90,26.324109,11.963844)" /><pattern
       id="pins-female-2"
       width="2.54"
       height="2.54"
       patternUnits="userSpaceOnUse"><rect
         x="0"
         y="0"
         width="2.54"
         height="2.54"
         fill="#333"
         id="rect3-0-9" /><rect
         x="1.079"
         y="0.896"
         width="0.762"
         height="0.762"
         style="fill: #191919"
         id="rect4-9-7" /><path
         transform="translate(1.079, 1.658) rotate(180 0 0)"
         d="m 0 0 v 0.762 l 0.433,0.433 c 0.046,-0.046 0.074,-0.109 0.074,-0.179 v -1.27 c 0,-0.070 -0.028,-0.133 -0.074,-0.179 z"
         style="opacity: 0.25"
         id="path4-56-5" /><path
         transform="translate(1.841, 1.658) rotate(90 0 0)"
         d="m 0 0 v 0.762 l 0.433,0.433 c 0.046,-0.046 0.074,-0.109 0.074,-0.179 v -1.27 c 0,-0.070 -0.028,-0.133 -0.074,-0.179 z"
         style="opacity: 0.3; fill: #fff"
         id="path5-6" /><path
         transform="translate(1.841, 0.896)"
         d="m 0 0 v 0.762 l 0.433,0.433 c 0.046,-0.046 0.074,-0.109 0.074,-0.179 v -1.27 c 0,-0.070 -0.028,-0.133 -0.074,-0.179 z"
         style="opacity: 0.15; fill: #fff"
         id="path6-5" /><path
         transform="translate(1.079, 0.896) rotate(270 0 0)"
         d="m 0 0 v 0.762 l 0.433,0.433 c 0.046,-0.046 0.074,-0.109 0.074,-0.179 v -1.27 c 0,-0.070 -0.028,-0.133 -0.074,-0.179 z"
         style="opacity: 0.35"
         id="path7-3" /></pattern></defs><g
     inkscape:label="Layer 1"
     inkscape:groupmode="layer"
     id="layer1"
     transform="translate(-56.725838,-88.507317)"><g
       id="g4"
       style="fill:#1b1b1b;fill-opacity:1;stroke:#595959;stroke-opacity:1"><rect
         style="opacity:1;fill:#1b1b1b;stroke:#595959;stroke-width:1.47;stroke-dasharray:none;stroke-opacity:1;fill-opacity:1"
         id="rect1"
         width="95.078323"
         height="88.512817"
         x="57.460838"
         y="89.242317"
         rx="8.6324673"
         ry="8.6910114" /></g><rect
       style="fill:#000000;stroke-width:0.264583"
       id="rect2"
       width="4.1338401"
       height="3.4043391"
       x="79.758804"
       y="128.87856"
       rx="8.5"
       ry="3.4043391" /><rect
       style="opacity:1;fill:#000000;stroke-width:0.282057;fill-opacity:1"
       id="rect3"
       width="70.275284"
       height="53.25359"
       x="69.862358"
       y="107.47985" /><circle
       style="opacity:0.71;fill:none;stroke:#b90000;stroke-width:0.565;stroke-dasharray:none;stroke-opacity:1"
       id="path3"
       cx="105"
       cy="168.02844"
       r="3" /><rect
       style="opacity:1;fill:#6f6f6f;fill-opacity:1;stroke:none;stroke-width:1.16656;stroke-dasharray:none;stroke-opacity:1"
       id="rect4"
       width="79.758804"
       height="8.908083"
       x="65.120598"
       y="178.39899" /><g
       id="g5"
       transform="translate(-2.5905075)"
       style="fill:#666666"><circle
         style="opacity:1;fill:#666666;fill-opacity:1;stroke:none;stroke-width:1.47;stroke-dasharray:none;stroke-opacity:1"
         id="path4"
         cx="86.423813"
         cy="99.215836"
         r="1.2158355" /><circle
         style="fill:#666666;fill-opacity:1;stroke:none;stroke-width:1.47;stroke-dasharray:none;stroke-opacity:1"
         id="path4-5"
         cx="128.7572"
         cy="99.215836"
         r="1.2158355" /></g><g
       transform="translate(97.102081,194.46875)"
       id="g31"><path
         id="rect30"
         style="fill:url(#pattern5)"
         d="m -27.780791,-14.357741 v 5.4601322 h 15.565459 v -5.4601322 z" /><path
         id="rect30-4"
         style="fill:url(#pattern5-7)"
         d="m -7.4320998,-14.360358 v 5.4601328 h 15.565458 v -5.4601328 z" /></g><ellipse
       style="fill:#b3b3b3;fill-opacity:1;stroke:#959595;stroke-width:0.578696;stroke-opacity:1;paint-order:stroke markers fill"
       id="path1"
       cx="113.13583"
       cy="183.28648"
       rx="2.9606519"
       ry="2.9606521" /><ellipse
       style="fill:#b3b3b3;fill-opacity:1;stroke:#959595;stroke-width:0.578696;stroke-opacity:1;paint-order:stroke markers fill"
       id="path1-7"
       cx="123.37006"
       cy="183.28648"
       rx="2.9606519"
       ry="2.9606521" /><ellipse
       style="fill:#b3b3b3;fill-opacity:1;stroke:#959595;stroke-width:0.578696;stroke-opacity:1;paint-order:stroke markers fill"
       id="path1-8"
       cx="133.53397"
       cy="183.28648"
       rx="2.9606519"
       ry="2.9606521" /><path
       d="m 113.0042,181.4871 c 0,0.001 -0.009,0.0516 -0.0193,0.11176 -0.0106,0.0605 -0.0282,0.16038 -0.0388,0.22234 -0.0109,0.0619 -0.0201,0.11295 -0.0204,0.11354 -3e-4,3e-4 -0.0181,0.004 -0.0394,0.008 -0.0691,0.0133 -0.13844,0.032 -0.20484,0.0554 -0.0326,0.0113 -0.0338,0.0116 -0.0388,0.006 -0.002,-0.003 -0.0667,-0.0794 -0.14229,-0.16987 -0.0756,-0.0904 -0.13934,-0.1669 -0.1423,-0.16987 -0.005,-0.005 -0.0113,-0.001 -0.14111,0.0735 -0.0747,0.0433 -0.13637,0.0797 -0.13696,0.0812 -5.9e-4,0.001 0.0341,0.0984 0.0768,0.21552 l 0.0777,0.21256 -0.0119,0.0106 c -0.0857,0.0774 -0.0987,0.0901 -0.18203,0.18231 l -0.0106,0.0116 -0.2087,-0.0762 c -0.11473,-0.0421 -0.21167,-0.0765 -0.21522,-0.0768 -0.005,-5.9e-4 -0.0172,0.0181 -0.0854,0.13548 -0.075,0.12985 -0.0786,0.13637 -0.0735,0.14111 0.003,0.003 0.08,0.0676 0.17135,0.14378 0.0913,0.0762 0.16778,0.14022 0.16986,0.142 0.003,0.003 0.001,0.0104 -0.008,0.0377 -0.0252,0.0738 -0.0418,0.13518 -0.0548,0.20395 -0.004,0.022 -0.008,0.04 -0.008,0.0403 -5.9e-4,3e-4 -0.0516,0.009 -0.11354,0.0204 -0.0619,0.0106 -0.16186,0.0282 -0.22234,0.0388 -0.0602,0.0106 -0.11057,0.0193 -0.11176,0.0193 -0.001,0 -0.002,0.072 -0.002,0.16008 0,0.0881 10e-4,0.16009 0.002,0.16009 0.001,0 0.0516,0.009 0.11176,0.0193 0.0605,0.0106 0.16039,0.0282 0.22234,0.0388 0.062,0.0109 0.11295,0.0201 0.11354,0.0204 3e-4,3e-4 0.004,0.0184 0.008,0.0403 0.013,0.0688 0.0296,0.13014 0.0548,0.20396 0.009,0.0273 0.011,0.0347 0.008,0.0377 -0.002,0.002 -0.0786,0.0658 -0.16986,0.142 -0.0913,0.0762 -0.16839,0.14082 -0.17135,0.14378 -0.005,0.005 -10e-4,0.0113 0.0735,0.14111 0.0682,0.1174 0.0797,0.13608 0.0854,0.13548 0.004,-3e-4 0.10049,-0.0347 0.21522,-0.0768 l 0.2087,-0.0762 0.0106,0.0116 c 0.0833,0.0922 0.0963,0.10494 0.18203,0.18232 l 0.0119,0.0106 -0.0777,0.21256 c -0.0427,0.1171 -0.0774,0.21404 -0.0768,0.21552 5.9e-4,0.001 0.0622,0.038 0.13696,0.0812 0.12984,0.075 0.13637,0.0786 0.14111,0.0735 0.003,-0.003 0.0667,-0.0794 0.1423,-0.16987 0.0756,-0.0904 0.13963,-0.1669 0.14229,-0.16986 0.005,-0.005 0.006,-0.005 0.0388,0.006 0.0664,0.0234 0.13577,0.0421 0.20484,0.0554 0.0214,0.004 0.0391,0.008 0.0394,0.008 3e-4,5.9e-4 0.009,0.0516 0.0204,0.11353 0.0107,0.062 0.0282,0.16187 0.0388,0.22234 0.0106,0.0602 0.0193,0.11058 0.0193,0.11176 0,0.001 0.0717,0.002 0.15949,0.002 h 0.15949 l 0.0154,-0.0866 c 0.008,-0.0478 0.0261,-0.14881 0.0394,-0.22471 0.013,-0.0759 0.0243,-0.13814 0.0249,-0.13873 3e-4,-3e-4 0.0204,-0.005 0.0448,-0.009 0.0753,-0.0148 0.1245,-0.0279 0.1995,-0.0537 0.0273,-0.009 0.0347,-0.011 0.0377,-0.008 0.002,0.002 0.0658,0.0786 0.14201,0.16986 0.0762,0.0913 0.14081,0.16838 0.14377,0.17135 0.005,0.005 0.0113,0.001 0.14111,-0.0735 0.0747,-0.0433 0.13637,-0.0797 0.13696,-0.0812 6e-4,-0.002 -0.0483,-0.13785 -0.13785,-0.38242 l -0.0169,-0.0456 0.0193,-0.0166 c 0.0643,-0.0563 0.11383,-0.10553 0.16898,-0.16897 l 0.0163,-0.019 0.0549,0.0199 c 0.20988,0.0771 0.37056,0.13518 0.37263,0.13518 0.001,0 0.0279,-0.0436 0.0587,-0.0969 0.0305,-0.0537 0.0661,-0.11502 0.0789,-0.13696 0.0187,-0.032 0.0225,-0.0406 0.0196,-0.0433 -0.002,-0.002 -0.0791,-0.0667 -0.17135,-0.14378 -0.0922,-0.0771 -0.16927,-0.14171 -0.17135,-0.14348 -0.003,-0.003 -10e-4,-0.0104 0.008,-0.0377 0.0249,-0.0729 0.0445,-0.14556 0.0566,-0.21108 0.004,-0.019 0.008,-0.0347 0.009,-0.0347 0.001,0 0.0673,-0.0113 0.14704,-0.0252 0.0797,-0.0139 0.17905,-0.0314 0.22055,-0.0385 0.0415,-0.007 0.0765,-0.0133 0.0777,-0.0133 0.001,0 0.002,-0.072 0.002,-0.16009 0,-0.088 -0.001,-0.16008 -0.002,-0.16008 -10e-4,0 -0.051,-0.009 -0.11029,-0.019 -0.0596,-0.0104 -0.15978,-0.0282 -0.22293,-0.0391 l -0.11472,-0.0201 -0.006,-0.0341 c -0.0122,-0.0649 -0.0317,-0.13785 -0.0566,-0.21048 -0.009,-0.0273 -0.0109,-0.0347 -0.008,-0.0377 0.002,-0.002 0.0791,-0.0664 0.17135,-0.14349 0.0922,-0.0771 0.16927,-0.1417 0.17134,-0.14377 0.003,-0.002 -6e-4,-0.0113 -0.0196,-0.0433 -0.0127,-0.022 -0.0483,-0.0833 -0.0789,-0.13697 -0.0308,-0.0533 -0.0572,-0.0969 -0.0587,-0.0969 -0.002,0 -0.16275,0.0581 -0.37264,0.13519 l -0.0549,0.0199 -0.0163,-0.019 c -0.0551,-0.0634 -0.10465,-0.11265 -0.16898,-0.16897 l -0.0193,-0.0166 0.0169,-0.0456 c 0.0895,-0.24458 0.13844,-0.38035 0.13785,-0.38242 -5.9e-4,-0.001 -0.0623,-0.038 -0.13696,-0.0812 -0.12984,-0.075 -0.13636,-0.0786 -0.14111,-0.0735 -0.003,0.003 -0.0676,0.08 -0.14378,0.17135 -0.0762,0.0913 -0.14022,0.16779 -0.142,0.16987 -0.003,0.003 -0.0103,10e-4 -0.0376,-0.008 -0.075,-0.0258 -0.12422,-0.0388 -0.19952,-0.0537 -0.0243,-0.005 -0.0445,-0.009 -0.0448,-0.01 -5.9e-4,-5.9e-4 -0.0119,-0.0628 -0.0249,-0.13874 -0.0133,-0.0759 -0.0311,-0.17698 -0.0394,-0.2247 l -0.0154,-0.0866 h -0.15949 c -0.0877,0 -0.15949,0.001 -0.15949,0.002 z m 0.22086,0.77551 c 0.20099,0.007 0.41651,0.0821 0.58845,0.20455 0.22737,0.16157 0.38568,0.40051 0.44616,0.67176 0.019,0.0857 0.0255,0.14911 0.0255,0.24309 0,0.094 -0.007,0.15741 -0.0255,0.24309 -0.0892,0.40139 -0.39161,0.72245 -0.78708,0.83569 -0.11591,0.0332 -0.23123,0.0462 -0.359,0.0412 -0.47877,-0.019 -0.89439,-0.34744 -1.02779,-0.81169 -0.0332,-0.11502 -0.0465,-0.23122 -0.0415,-0.359 0.0142,-0.35721 0.20336,-0.68954 0.50485,-0.88727 0.14644,-0.0961 0.30801,-0.15475 0.48707,-0.17668 0.0285,-0.004 0.12006,-0.008 0.13548,-0.007 0.005,3e-4 0.029,0.001 0.0534,0.002 z"
       id="path1-5"
       style="fill:#666666;fill-opacity:1;stroke:none;stroke-width:0.000296449" /><path
       d="m 123.49721,184.48575 v 0.75574 c 0,0.058 -0.047,0.10404 -0.10404,0.10404 -0.058,0 -0.10405,-0.047 -0.10405,-0.10404 v -0.75574 c -0.31878,-0.025 -0.60591,-0.16582 -0.81968,-0.37991 -0.23699,-0.23666 -0.38368,-0.56359 -0.38368,-0.92344 0,-0.058 0.047,-0.10404 0.10404,-0.10404 0.058,0 0.10404,0.047 0.10404,0.10404 0,0.30186 0.12381,0.57676 0.32286,0.77675 0.19905,0.19904 0.47396,0.32286 0.77676,0.32286 0.30185,0 0.57676,-0.12382 0.77674,-0.32286 0.004,-0.004 0.007,-0.007 0.0111,-0.0111 l -0.26926,-0.26925 c -0.13165,0.1307 -0.31284,0.21158 -0.51157,0.21158 -0.19997,0 -0.38178,-0.0821 -0.51375,-0.21378 -0.13196,-0.13197 -0.21377,-0.31378 -0.21377,-0.51376 v -0.72377 l -0.68115,-0.6802 c -0.0421,-0.0421 -0.0421,-0.10972 0,-0.15172 0.042,-0.042 0.10972,-0.042 0.15172,0 l 2.87471,2.87472 c 0.042,0.042 0.042,0.10972 0,0.15172 -0.042,0.042 -0.10972,0.042 -0.15171,0 l -0.53852,-0.53883 c -0.004,0.004 -0.007,0.007 -0.0111,0.0111 -0.21409,0.21408 -0.5009,0.35513 -0.81968,0.3799 z m 0.26613,-0.95605 -0.88114,-0.88081 v 0.51251 c 0,0.14294 0.058,0.27176 0.15203,0.36581 0.094,0.094 0.22382,0.15201 0.36581,0.15201 0.14169,0 0.26957,-0.057 0.3633,-0.14952 z m 0.71687,-0.18149 c 0.009,-0.0542 0.0126,-0.10934 0.0126,-0.16581 0,-0.058 0.047,-0.10404 0.10404,-0.10404 0.058,0 0.10404,0.047 0.10404,0.10404 0,0.11787 -0.0157,0.23228 -0.0454,0.34103 z m -1.08017,-1.85441 c 0.19998,0 0.38178,0.0821 0.51376,0.21378 0.13195,0.13197 0.21377,0.31377 0.21377,0.51375 v 0.77424 l -0.21002,-0.21001 v -0.56485 c 0,-0.14294 -0.058,-0.27176 -0.15202,-0.3658 v 0 c -0.094,-0.094 -0.2238,-0.15204 -0.3658,-0.15204 -0.14294,0 -0.27178,0.058 -0.36581,0.15204 -0.009,0.009 -0.0157,0.0159 -0.023,0.0244 l -0.14764,-0.14765 c 0.007,-0.009 0.0151,-0.0159 0.0228,-0.0238 0.13197,-0.13196 0.31409,-0.21409 0.51377,-0.21409 z"
       id="path1-1"
       style="fill:#4d4d4d;fill-opacity:1;stroke-width:0.0313457" /><g
       style="fill:#666666;fill-opacity:1"
       id="g10"
       transform="matrix(0.10004763,-0.1778275,-0.18388925,-0.10508383,135.87586,186.53513)"><path
         d="M 15.88,13.84 C 14.2,10.36 10.44,8.6 6.84,9.24 L 7.8,7.44 C 8.04,7.04 7.88,6.52 7.48,6.32 7.08,6.08 6.56,6.24 6.36,6.64 L 4.4,10.28 c 0,0 -0.44,0.72 0.24,1.04 l 3.64,1.96 c 0.12,0.08 0.28,0.12 0.4,0.12 0.28,0 0.6,-0.16 0.72,-0.44 0.24,-0.4 0.08,-0.92 -0.32,-1.12 L 7.2,10.8 c 2.84,-0.48 5.8,0.96 7.12,3.68 1.6,3.32 0.2,7.32 -3.12,8.88 -1.6,0.76 -3.4,0.88 -5.08,0.28 -1.68,-0.6 -3.04,-1.8 -3.8,-3.4 C 1.56,18.64 1.44,16.84 2.04,15.16 2.2,14.72 1.96,14.24 1.52,14.08 1.12,14 0.64,14.24 0.48,14.68 c -0.72,2.12 -0.6,4.36 0.36,6.36 0.96,2 2.64,3.52 4.76,4.28 0.92,0.32 1.84,0.48 2.76,0.48 1.24,0 2.48,-0.28 3.6,-0.84 4.16,-2 5.92,-7 3.92,-11.12 z"
         id="path1-4"
         style="fill:#666666;fill-opacity:1" /></g><text
       xml:space="preserve"
       style="font-style:normal;font-weight:normal;font-size:3.95547px;line-height:1.25;font-family:sans-serif;fill:#999999;fill-opacity:1;stroke:none;stroke-width:0.0988869"
       x="96.459427"
       y="101.03173"
       id="text10"><tspan
         sodipodi:role="line"
         id="tspan10"
         style="font-weight:bold;stroke-width:0.0988869;fill:#999999"
         x="96.459427"
         y="101.03173">S3-BOX</tspan></text><ellipse
       style="fill:#b3b3b3;fill-opacity:1;stroke:#6e6e6e;stroke-width:0.106463;stroke-dasharray:none;stroke-opacity:1;paint-order:stroke markers fill"
       id="path10"
       cx="123.38902"
       cy="179.34607"
       rx="0.27265546"
       ry="0.26367077" /></g></svg>
