<svg xmlns="http://www.w3.org/2000/svg" xmlns:xlink="http://www.w3.org/1999/xlink" width="99.8105" height="129.7334" viewBox="0 0 74.858 97.3" xmlns:v="https://vecta.io/nano"><style><![CDATA[.K{fill:#e8cf85}.L{fill:#a8abae}.M{fill:#10100e}.N{fill:#bbb6ab}.O{fill:#66336f}.P{fill:#dfd9c9}.Q{fill:#c8c3b7}]]></style><path d="M74.858 87.5v2.55h-1.425-1.425v-2.525-2.575h1.425 1.425v2.55z" class="M"/><path d="M32.551 36.25h-.043V56.2h20V36.25h-2.25v-.05h-.7v.05h-.45v-.05h-.7v.05h-.45v-.05h-.7v.05h-.4v-.05h-.7v.05h-.45v-.05h-.7v.05h-.45v-.05h-.7v.05h-.4v-.05h-.7v.05h-.45v-.05h-.7v.05h-.45v-.05h-.7v.05h-.4v-.05h-.7v.05h-.45v-.05h-.7v.05h-.45v-.05h-.7v.05h-.4v-.05h-.75v.05h-.4v-.05h-.7v.05h-2.257zm-13.9135 38.3h-2.127v.018a.07.07 0 0 0-.0705.0705l.018.0115v.5h.05v3.4h-.05v.5l-.0135.004a.067.067 0 0 0 .0635.0465V79.1h2.139c.0153-.0019.0295-.0087.0405-.0195a.072.072 0 0 0 .0205-.05V78.55h-.05v-3.4h.05v-.5115a.07.07 0 0 0-.0705-.0705zM57.117 89.3v.0055l-.0005.022c-.0055.1047-.0495.2037-.1235.278-.0144.0145-.03.0279-.0465.04l-.002.001c-.0753.0478-.1628.0728-.252.072-.1126.0071-.2229-.0337-.3038-.1124s-.1247-.1879-.1207-.3006l-.01-.0055h-.7v4.55h.7l.01-.0085c-.0041-.1128.0397-.222.1206-.3007s.1913-.1195.3039-.1123c.0892-.0007.1767.0243.252.072l.002.001c.0165.0121.0321.0255.0465.04.074.0743.118.1733.1235.278l.0005.022v.0085h.691V89.3h-.691zm-.7835-56.251l-.116.007c-.0767.0056-.153.0156-.2285.03v.016a.784.784 0 0 0-.149.052c-.0475.0228-.093.0496-.136.08a.731.731 0 0 0-.119.1295.908.908 0 0 0-.088.1525 1.266 1.266 0 0 0-.059.202c-.014.0688-.0214.1388-.022.209a1.342 1.342 0 0 0 .116.4755c.0769.1322.1764.2498.294.3475h-.368v.65h2.6v-.7h-1.2l-.128.05-.0375-.025-.0375-.025a.09.09 0 0 0-.0375.003c-.0123.0033-.024.0087-.0345.016a1.436 1.436 0 0 1-.1475-.019l-.1465-.026-.0735-.0345a.462.462 0 0 1-.0705-.0405c-.0207-.0172-.0403-.0357-.0585-.0555s-.0365-.041-.0525-.0615l-.041-.075a.625.625 0 0 1-.034-.078c-.0065-.027-.0113-.0544-.0145-.082l-.0065-.083.02-.014a.325.325 0 0 1 .017-.116c.0125-.0373.0289-.0732.049-.107h-.02a.338.338 0 0 0 .035-.039c.0105-.0137.023-.0258.037-.036s.0361-.0264.056-.0365l.0585-.0285.0025.005a1.817 1.817 0 0 1 .281-.038l.284-.004h1.3v-.7h-1.6zm-1.827 5.5065l1.2005.3155 1.209.318-1.209.321-1.2045.32.0055.02v1.05h3.55v-.65h-2.8l-.004-.011 1.3935-.351 1.3935-.351h.017v-.687l-.017-.003-1.3935-.351-1.3735-.346h2.784v-.65h-3.55v1.05zM43.808 31.698c.3022.0066.5458.2498.553.552h7.941c.0072-.3034.2526-.547.556-.552v-5.9445l.011-.0105-.0015-.003c-.3025.0002-.5515-.2378-.565-.54h-7.942c-.0134.3016-.2616.5394-.5635.54v.003l.011.0105v5.934l-.011.0105zm-3.05 43.047a.146.146 0 0 0-.0965.0415c-.0266.0269-.0415.0632-.0415.101l-.012.0125v1h-.55v-1l-.002-.0125c.0002-.0379-.0147-.0742-.0415-.101s-.0631-.0417-.101-.0415l-.0055.005h-.55l-.04-.002h-.0005c-.0664.0133-.114.0718-.1135.1395l.004.0125v1h-.55v-1l-.021-.0125c0-.0378-.0149-.0741-.0415-.101s-.0545-.0376-.0875-.041v.0045h-.6l-.0005-.0035c-.0705.0095-.123.0699-.1225.141l.023.0125v1h-.6v-1l.013-.0125c.0002-.0379-.0147-.0742-.0415-.101s-.0631-.0417-.101-.0415l-.0205.005h-.55v-.005a.142.142 0 0 0-.139.1425l-.011.0125v1h-.55v-1l-.003-.0125c.0002-.0379-.0147-.0742-.0415-.101s-.0631-.0417-.101-.0415l-.0045.005h-.55l-.041-.002h-.0005c-.0664.0133-.114.0718-.1135.1395l.005.0125v1h-.55v-1l-.022-.0125a.142.142 0 0 0-.128-.142v.0045h-.6l-.0005-.0035c-.031.0038-.0599.0179-.082.04s-.0415.0632-.0415.101l.024.0125v1h-.6v-1l.012-.0125c.0002-.0379-.0147-.0742-.0415-.101s-.0631-.0417-.101-.0415l-.0195.005h-.55v-.005c-.0779.0009-.1404.0646-.14.1425l-.01.0125v1h-.55v-1l-.007-.0125c.0002-.0379-.0147-.0742-.0415-.101s-.0631-.0417-.101-.0415l-.0005.005h-.55l-.045-.002h-.0005c-.0664.0133-.114.0718-.1135.1395l.009.0125v1h-.55v-1l-.023-.0125c.0005-.0727-.0542-.1339-.1265-.1415l-.0005.004h-1.45l-.0005-.004c-.0723.0076-.127.0688-.1265.1415l.027.0125v1h-.6v-1l.009-.0125c.0002-.0379-.0147-.0742-.0415-.101s-.0631-.0417-.101-.0415l-.0165.005h-1.4l-.031-.002h-.0005c-.0664.0133-.114.0718-.1135.1395l-.005.0125v1h-3.1v2.25h.35v19.1h-14.9l-.0045-.008c-1.5648-.0002-2.8333-1.2687-2.8335-2.8335L5.658 94.4v-.35h5.7V92.6h1.4V82.4h-1.4V81h-5.7v-1.6l.0055-.016-2.8285-.9895-2.829-.9895.002-.005V11.35H0C.002 5.0893 5.0778.0151 11.3385.015L11.358 0h2.8v16.45h2.05V2.3h2.2v14.15h2.15l.015-7.075.015-7.075h4.37v9.05h11.6V2.3h6.65v9.05h11.25V2.3h3.35v14.15h1.95V0h.9l.0035.015C66.9222.0151 71.998 5.0893 72 11.35h.008V81h-5.65v1.4h-1.45v10.2h1.45v1.45h5.65v.35l-.008.0085c-.0002 1.5648-1.2687 2.8333-2.8335 2.8335l-.0085.008h-20.4v-19.1h.35V75.9h-3.1v-1.0125c.0002-.0379-.0147-.0742-.0415-.101s-.0631-.0417-.101-.0415l-.0075.005h-1.4l-.037-.002h-.0005c-.0664.0133-.114.0718-.1135.1395l.001.0125v1h-.55v-1l-.018-.0125c.0005-.0748-.0574-.137-.132-.142v.0045h-1.4l-.055-.002h-.0005c-.0664.0133-.114.0718-.1135.1395l.019.0125v1h-.6v-1l.014-.0125c.0002-.0379-.0147-.0742-.0415-.101s-.0631-.0417-.101-.0415l-.0215.005h-.55zm27.7005-50.382a2.096 2.096 0 0 0 2.0658-2.1154 2.096 2.096 0 0 0-2.1055-2.0758 2.096 2.096 0 0 0-2.0858 2.0957 2.048 2.048 0 0 0 2.1255 2.0955zm0 7.194a2.096 2.096 0 0 0 2.0658-2.1154 2.096 2.096 0 0 0-2.1055-2.0758 2.096 2.096 0 0 0-2.0858 2.0957 2.048 2.048 0 0 0 2.1255 2.0955zm0 7.194a2.096 2.096 0 0 0 2.0658-2.1154 2.096 2.096 0 0 0-2.1055-2.0758 2.096 2.096 0 0 0-2.0858 2.0957 2.048 2.048 0 0 0 2.1255 2.0955zm0 7.194a2.096 2.096 0 0 0 2.0658-2.1154 2.096 2.096 0 0 0-2.1055-2.0758 2.096 2.096 0 0 0-2.0858 2.0957 2.048 2.048 0 0 0 2.1255 2.0955zm0 7.194a2.096 2.096 0 0 0 2.0658-2.1154 2.096 2.096 0 0 0-2.1055-2.0758 2.096 2.096 0 0 0-2.0858 2.0957 2.048 2.048 0 0 0 2.1255 2.0955zm0 7.194a2.096 2.096 0 0 0 2.0658-2.1154 2.096 2.096 0 0 0-2.1055-2.0758 2.096 2.096 0 0 0-2.0858 2.0957 2.048 2.048 0 0 0 2.1255 2.0955zm0 7.197a2.096 2.096 0 0 0 2.0658-2.1154 2.096 2.096 0 0 0-2.1055-2.0758 2.096 2.096 0 0 0-2.0858 2.0957 2.048 2.048 0 0 0 2.1255 2.0955zm0 7.194a2.096 2.096 0 0 0 2.0658-2.1154 2.096 2.096 0 0 0-2.1055-2.0758 2.096 2.096 0 0 0-2.0858 2.0957 2.048 2.048 0 0 0 2.1255 2.0955zM64.916 15.1285c1.1299.0433 2.2275-.3824 3.0328-1.1763s1.2465-1.8853 1.2192-3.0157c-.0334-2.3247-1.9275-4.1918-4.2525-4.1918s-4.2191 1.867-4.2525 4.1918c-.0272 1.1306.4142 2.2222 1.2197 3.016s1.9033 1.2195 3.0333 1.176zM64.058 88.75V85.9h-3.1v2.85h3.1zm-2.7995-64.387a2.096 2.096 0 0 0 2.0658-2.1154 2.096 2.096 0 0 0-2.1055-2.0758 2.096 2.096 0 0 0-2.0858 2.0957 2.048 2.048 0 0 0 2.1255 2.0955zm0 7.197a2.096 2.096 0 0 0 2.0658-2.1154 2.096 2.096 0 0 0-2.1055-2.0758 2.096 2.096 0 0 0-2.0858 2.0957 2.048 2.048 0 0 0 2.1255 2.0955zm0 7.2a2.096 2.096 0 0 0 2.0658-2.1154 2.096 2.096 0 0 0-2.1055-2.0758 2.096 2.096 0 0 0-2.0858 2.0957 2.048 2.048 0 0 0 2.1255 2.0955zm0 7.197a2.096 2.096 0 0 0 2.0658-2.1154 2.096 2.096 0 0 0-2.1055-2.0758 2.096 2.096 0 0 0-2.0858 2.0957 2.048 2.048 0 0 0 2.1255 2.0955zm0 7.2a2.096 2.096 0 0 0 2.0658-2.1154 2.096 2.096 0 0 0-2.1055-2.0758 2.096 2.096 0 0 0-2.0858 2.0957 2.048 2.048 0 0 0 2.1255 2.0955zm0 7.2a2.096 2.096 0 0 0 2.0658-2.1154 2.096 2.096 0 0 0-2.1055-2.0758 2.096 2.096 0 0 0-2.0858 2.0957 2.048 2.048 0 0 0 2.1255 2.0955zm0 7.197a2.096 2.096 0 0 0 2.0658-2.1154 2.096 2.096 0 0 0-2.1055-2.0758 2.096 2.096 0 0 0-2.0858 2.0957 2.048 2.048 0 0 0 2.1255 2.0955zm0 7.2a2.096 2.096 0 0 0 2.0658-2.1154 2.096 2.096 0 0 0-2.1055-2.0758 2.096 2.096 0 0 0-2.0858 2.0957 2.048 2.048 0 0 0 2.1255 2.0955zM58.658 49.05V41.1h-4.8v7.95h4.8zm-.6-12.3v-.65h-2.6v.65h2.6zm0-4.35v-.7h-2.6v.7h2.6zm-2.8 56.35V84.5h-5.65v4.25h5.65zm-.15-52v-.65h-.6v.65h.6zm0-4.35v-.7h-.6v.7h.6zM24.608 68v-5.1h-1v-2h-1.4v2h-3.95v-2h-1.45v2h-1V68h1v1.95h1.45V68h1.25v1.95h1.45V68h1.25v1.95h1.4V68zm-4.65 24.1V81.65h-5.55V92.1h5.55zm-9.2165-67.737a2.096 2.096 0 0 0 1.8396-3.1519 2.096 2.096 0 0 0-1.8396-1.0391 2.096 2.096 0 0 0-1.8396 3.1519 2.096 2.096 0 0 0 1.8396 1.0391zm0 7.197a2.096 2.096 0 0 0 1.8396-3.1519 2.096 2.096 0 0 0-1.8396-1.0391 2.096 2.096 0 0 0-1.8396 3.1519 2.096 2.096 0 0 0 1.8396 1.0391zm0 7.2a2.096 2.096 0 0 0 1.8396-3.1519 2.096 2.096 0 0 0-1.8396-1.0391 2.096 2.096 0 0 0-1.8396 3.1519 2.096 2.096 0 0 0 1.8396 1.0391zm0 7.197a2.096 2.096 0 0 0 1.8396-3.1519 2.096 2.096 0 0 0-1.8396-1.0391 2.096 2.096 0 0 0-1.8396 3.1519 2.096 2.096 0 0 0 1.8396 1.0391zm0 7.2a2.096 2.096 0 0 0 1.8396-3.1519 2.096 2.096 0 0 0-1.8396-1.0391 2.096 2.096 0 0 0-1.8396 3.1519 2.096 2.096 0 0 0 1.8396 1.0391zm0 7.2a2.096 2.096 0 0 0 1.8396-3.1519 2.096 2.096 0 0 0-1.8396-1.0391 2.096 2.096 0 0 0-1.8396 3.1519 2.096 2.096 0 0 0 1.8396 1.0391zm0 7.197a2.096 2.096 0 0 0 1.8396-3.1519 2.096 2.096 0 0 0-1.8396-1.0391 2.096 2.096 0 0 0-1.8396 3.1519 2.096 2.096 0 0 0 1.8396 1.0391zm0 7.2a2.096 2.096 0 0 0 1.8396-3.1519 2.096 2.096 0 0 0-1.8396-1.0391 2.096 2.096 0 0 0-1.8396 3.1519 2.096 2.096 0 0 0 1.8396 1.0391zM7.085 15.1285c1.1299.0433 2.2275-.3824 3.0328-1.1763s1.2465-1.8853 1.2192-3.0157a4.097 4.097 0 0 0-4.253-4.192c-1.1299-.0433-2.2275.3824-3.0328 1.1763S2.8048 9.8061 2.832 10.9365c-.0272 1.1306.4142 2.2222 1.2197 3.016s1.9033 1.2195 3.0333 1.176zM3.5415 24.363a2.096 2.096 0 0 0 1.8396-3.1519 2.096 2.096 0 0 0-1.8396-1.0391 2.096 2.096 0 0 0-1.8396 3.1519 2.096 2.096 0 0 0 1.8396 1.0391zm0 7.194a2.096 2.096 0 0 0 1.8396-3.1519 2.096 2.096 0 0 0-1.8396-1.0391 2.096 2.096 0 0 0-1.8396 3.1519 2.096 2.096 0 0 0 1.8396 1.0391zm0 7.194a2.096 2.096 0 0 0 1.8396-3.1519A2.096 2.096 0 0 0 3.5415 34.56a2.096 2.096 0 0 0-1.8396 3.1519 2.096 2.096 0 0 0 1.8396 1.0391zm0 7.194a2.096 2.096 0 0 0 1.8396-3.1519 2.096 2.096 0 0 0-1.8396-1.0391 2.096 2.096 0 0 0-1.8396 3.1519 2.096 2.096 0 0 0 1.8396 1.0391zm0 7.194a2.096 2.096 0 0 0 1.8396-3.1519 2.096 2.096 0 0 0-1.8396-1.0391 2.096 2.096 0 0 0-1.8396 3.1519 2.096 2.096 0 0 0 1.8396 1.0391zm0 7.194a2.096 2.096 0 0 0 1.8396-3.1519 2.096 2.096 0 0 0-1.8396-1.0391 2.096 2.096 0 0 0-1.8396 3.1519 2.096 2.096 0 0 0 1.8396 1.0391zm0 7.197a2.096 2.096 0 0 0 1.8396-3.1519 2.096 2.096 0 0 0-1.8396-1.0391 2.096 2.096 0 0 0-1.8396 3.1519A2.096 2.096 0 0 0 3.5415 67.53zm0 7.194a2.096 2.096 0 0 0 1.8396-3.1519 2.096 2.096 0 0 0-1.8396-1.0391 2.096 2.096 0 0 0-1.8396 3.1519 2.096 2.096 0 0 0 1.8396 1.0391z" class="O"/><path d="M72.008 90.05v4h-2.825-2.825v-.725-.725h-.725-.725v-5.1-5.1h.725.725v-.7-.7h2.825 2.825v3.95 2.575 2.525z" class="Q"/><g class="K"><use xlink:href="#B"/><path d="M70.584 29.4615a2.126 2.126 0 1 1-2.1255-2.0955 2.048 2.048 0 0 1 2.1255 2.0955zm-.735.0005v-.0005c.0072-.3202-.0995-.6326-.301-.8815l-.006-.007-.032-.0365-.005-.0055-.0225-.0235a1.464 1.464 0 0 0-2.0775.032l-.0305.035a1.347 1.347 0 0 0-.3065.8855v.0025a1.391 1.391 0 0 0 1.3907 1.37 1.391 1.391 0 0 0 1.3903-1.3705zm.735 7.1935a2.126 2.126 0 1 1-2.1255-2.0955 2.048 2.048 0 0 1 2.1255 2.0955zm-.735.0045v-.0045l-.0005-.006a1.449 1.449 0 0 0-.1225-.5845l-.007-.015-.016-.033-.007-.0145c-.0047-.0103-.0101-.0203-.016-.03a1.429 1.429 0 0 0-2.443 0 .253.253 0 0 0-.016.0305l-.0245.05-.0055.012v.0005l-.0235.056a1.465 1.465 0 0 0-.099.528l-.0005.0105a1.391 1.391 0 0 0 2.781 0zm.735 7.1895a2.126 2.126 0 1 1-2.1255-2.0955 2.048 2.048 0 0 1 2.1255 2.0955zm-.735.0055v-.0055l-.0005-.0075c-.0005-.053-.0038-.1059-.01-.1585a1.405 1.405 0 0 0-.0615-.29l-.0015-.004-.0105-.03-.012-.0335c-.2227-.5085-.7223-.8398-1.2774-.8469a1.414 1.414 0 0 0-1.2986.8139.266.266 0 0 0-.013.033l-.021.058a1.487 1.487 0 0 0-.0745.458l-.0005.013a1.391 1.391 0 0 0 2.781 0zm-2.781 7.193a1.391 1.391 0 0 0 2.781 0v-.0045l-.0025-.062-.0005-.0135-.0065-.0765v-.003l-.0105-.0775v-.0005c-.1236-.6596-.6996-1.1376-1.3707-1.1375s-1.2469.4783-1.3703 1.138l-.0105.0775v.003l-.0065.0765-.0005.0135-.0025.062zm3.516-.0045a2.126 2.126 0 1 1-2.1255-2.0955 2.048 2.048 0 0 1 2.1255 2.0955zm-3.5155 7.2c.0138.7578.6321 1.3649 1.39 1.3649s1.3762-.6071 1.39-1.3649l.0005-.006-.003-.07v-.0005c-.0477-.7313-.6548-1.3001-1.3877-1.3s-1.3398.5691-1.3873 1.3005l-.003.07zm3.5155-.006a2.126 2.126 0 1 1-2.1255-2.0955 2.048 2.048 0 0 1 2.1255 2.0955zm-3.516 7.202a1.391 1.391 0 0 0 2.781 0v-.005q-.0007-.0367-.003-.072a1.391 1.391 0 0 0-2.775 0q-.0023.0353-.003.072zm3.516-.005a2.126 2.126 0 1 1-2.1255-2.0955 2.048 2.048 0 0 1 2.1255 2.0955zm-3.5155 7.201c.0144.7574.6325 1.3639 1.39 1.3639s1.3756-.6065 1.39-1.3639l.0005-.007-.003-.068c-.0463-.7323-.6537-1.3026-1.3875-1.3026s-1.3412.5702-1.3875 1.3026l-.003.068zm3.5155-.007a2.126 2.126 0 1 1-2.1255-2.0955 2.048 2.048 0 0 1 2.1255 2.0955zm-1.416-61.692c-.0334 2.3247-1.9275 4.1918-4.2525 4.1918s-4.2191-1.867-4.2525-4.1918c.0334-2.3247 1.9275-4.1918 4.2525-4.1918s4.2191 1.867 4.2525 4.1918zm-4.2525 2.793c.7529.0289 1.4843-.2546 2.0209-.7836s.8307-1.2562.8126-2.0094c-.0222-1.5491-1.2843-2.7932-2.8335-2.7932s-2.8113 1.2442-2.8335 2.7932c-.0181.7533.276 1.4805.8126 2.0094a2.73 2.73 0 0 0 2.0209.7836z"/></g><path d="M61.4845 86.7455c-.0833.0715-.151.1593-.199.258a.838.838 0 0 0-.0645.3205c-.0002.1098.0209.2187.062.3205a.878.878 0 0 0 .199.2585v.001a1.778 1.778 0 0 0 .5.205c.173.0355.3495.0502.526.044v-.003h.144l.0345.025.0345.025h.066l.033-.0285.033-.0285c.1212-.0053.2409-.0291.355-.0705a2.409 2.409 0 0 0 .332-.1485.89.89 0 0 0 .2135-.266.911.911 0 0 0 .0715-.334c.0002-.1098-.0209-.2187-.062-.3205-.0496-.0976-.1169-.1851-.1985-.258l-.0005.0005a1.779 1.779 0 0 0-.5015-.2055 2.282 2.282 0 0 0-.5395-.0435 2.317 2.317 0 0 0-.5385.043 1.748 1.748 0 0 0-.4995.206zm2.5735.5795v1.425h-3.1V85.9h3.1z" class="P"/><path d="M63.3575 87.1605l-.0335-.0275-.039-.031c-.019-.009-.0395-.017-.0605-.0245l-.0625-.0205-.159-.0245-.159-.0175c-.0241.0134-.0501.0234-.077.0295s-.0546.0088-.082.0055l-.0405-.025L62.604 87h-.096l-.1005.025L62.37 87a2.057 2.057 0 0 0-.232.018l-.23.036a.407.407 0 0 0-.1215.0395c-.0381.0193-.0731.0445-.1035.0745h-.021a.198.198 0 0 0-.042.073c-.0087.0269-.0138.0548-.015.083h.021a.321.321 0 0 0 .0165.084c.0088.0273.0225.0527.0405.075l.045.0365a.387.387 0 0 0 .048.0325.442.442 0 0 0 .0535.021l.0545.018.2395.036c.0796.0125.1599.0202.2405.023h.144l.318-.0065c.1058-.0064.2111-.0203.315-.0415v-.008c.042-.0062.0827-.0197.12-.04s.0681-.0418.0995-.0665l-.0035-.0045c.0165-.0232.0296-.0486.039-.0755s.014-.0551.015-.0835-.006-.057-.0155-.084-.0232-.0528-.0415-.075zm.4055-.157c.0411.1018.0622.2107.062.3205a.911.911 0 0 1-.0715.334.89.89 0 0 1-.2135.266 2.409 2.409 0 0 1-.332.1485c-.1141.0414-.2338.0652-.355.0705l-.033.0285-.033.0285h-.066l-.0345-.025-.0345-.025h-.144v.003c-.1765.0062-.353-.0085-.526-.044a1.778 1.778 0 0 1-.5-.205v-.001a.878.878 0 0 1-.199-.2585c-.0411-.1018-.0622-.2107-.062-.3205a.838.838 0 0 1 .0645-.3205c.048-.0987.1157-.1865.199-.258l.0005.0005a1.748 1.748 0 0 1 .4995-.206 2.317 2.317 0 0 1 .5385-.043 2.282 2.282 0 0 1 .5395.0435 1.779 1.779 0 0 1 .5015.2055l.0005-.0005c.0816.0729.1489.1604.1985.258z" class="O"/><path d="M62.364 87.65c-.0806-.0028-.1609-.0105-.2405-.023l-.2395-.036-.0545-.018a.442.442 0 0 1-.0535-.021.387.387 0 0 1-.048-.0325l-.045-.0365c-.018-.0223-.0317-.0477-.0405-.075a.321.321 0 0 1-.0165-.084h-.021c.0012-.0282.0063-.0561.015-.083a.198.198 0 0 1 .042-.073h.021c.0304-.03.0654-.0552.1035-.0745a.407.407 0 0 1 .1215-.0395l.23-.036A2.057 2.057 0 0 1 62.37 87l.0375.025.1005-.025h.096l.0405.025.0405.025c.0274.0033.0552.0014.082-.0055s.0529-.0161.077-.0295c.0515.0025.1055.0095.159.0175l.159.0245.0625.0205.0605.0245.039.031.0335.0275-.0035.0045c.0183.0222.0324.0477.0415.075s.0147.0554.0155.084-.006.0565-.015.0835-.0225.0523-.039.0755l.0035.0045c-.0314.0247-.0647.0469-.0995.0665s-.078.0338-.12.04v.008c-.1039.0212-.2092.0351-.315.0415l-.318.0065z" class="P"/><g class="K"><use xlink:href="#B" x="-7.2"/><path d="M63.384 29.4645a2.126 2.126 0 1 1-2.1255-2.0955 2.048 2.048 0 0 1 2.1255 2.0955zm-.735.001v-.001a1.391 1.391 0 0 0-1.3905-1.3702 1.391 1.391 0 0 0-1.3905 1.3702v.001a1.308 1.308 0 0 0 .4725 1.0515l.015.0125c.5427.4161 1.2995.407 1.832-.022l.018-.015a1.313 1.313 0 0 0 .4435-1.027zm.735 7.199a2.126 2.126 0 1 1-2.1255-2.0955 2.048 2.048 0 0 1 2.1255 2.0955zm-.735 0v-.0015a1.391 1.391 0 0 0-1.3905-1.3689 1.391 1.391 0 0 0-1.3905 1.3689v.002a1.351 1.351 0 0 0 .3065.887l.0305.0345.007.008a.247.247 0 0 0 .0225.0235 1.462 1.462 0 0 0 1.0508.4172c.3921-.0075.7647-.172 1.0342-.4567l.023-.027a1.351 1.351 0 0 0 .3065-.8865zm.735 7.197a2.126 2.126 0 1 1-2.1255-2.0955 2.048 2.048 0 0 1 2.1255 2.0955zm-.735 0v-.0005a1.391 1.391 0 0 0-1.3905-1.3702 1.391 1.391 0 0 0-1.3905 1.3702v.001a1.339 1.339 0 0 0 .344.93l.026.0265a1.465 1.465 0 0 0 2.0445-.0035l.0225-.0235.0035-.004.034-.0385.0055-.0065a1.352 1.352 0 0 0 .301-.881zm.735 7.2a2.126 2.126 0 1 1-2.1255-2.0955 2.048 2.048 0 0 1 2.1255 2.0955zm-.735 0v-.003a1.391 1.391 0 0 0-1.3905-1.3677 1.391 1.391 0 0 0-1.3905 1.3677v.007a1.387 1.387 0 0 0 .2215.768l.019.0275a1.443 1.443 0 0 0 2.3 0l.0495-.0765a1.399 1.399 0 0 0 .191-.719zm.735 7.2a2.126 2.126 0 1 1-2.1255-2.0955 2.048 2.048 0 0 1 2.1255 2.0955zm-.7355.007l.0005-.007v-.005a1.391 1.391 0 0 0-2.781 0l.0005.012a1.472 1.472 0 0 0 .099.527v.0005l.0185.0445.005.011.0145.0315q.0142.0315.0315.0615a1.427 1.427 0 0 0 2.4595-.031l.0105-.021.013-.0275.004-.008.0255-.0615c.0652-.1681.0988-.3467.099-.527zm.7355 7.19a2.126 2.126 0 1 1-2.1255-2.0955 2.048 2.048 0 0 1 2.1255 2.0955zm-.735 0v-.004a1.391 1.391 0 0 0-2.781 0v.0095a1.484 1.484 0 0 0 .096.52l.004.011.023.054.015.0315a1.425 1.425 0 0 0 2.474.061.437.437 0 0 0 .016-.03l.0055-.0115.014-.028.0105-.023a1.46 1.46 0 0 0 .123-.585zm-2.781 7.1975l.0005.0115c.001.1304.019.2602.0535.386l.02.0675.0095.027a1.411 1.411 0 0 0 2.602.033l.027-.0785.0145-.049a1.512 1.512 0 0 0 .0535-.386l.0005-.009v-.0025a1.391 1.391 0 0 0-1.3905-1.3677 1.391 1.391 0 0 0-1.3905 1.3677zm3.516.0025a2.126 2.126 0 1 1-2.1255-2.0955 2.048 2.048 0 0 1 2.1255 2.0955z"/></g><path d="M59.758 8.225v8.225h-.975-.975V9.375 2.3h-1.675-1.675v4.525 4.525h-5.625-5.625V6.825 2.3h-3.325-3.325v4.525 4.525h-5.8-5.8V6.825 2.3h-2.175-2.175-.02l-.015 7.075-.015 7.075h-1.075-1.075V9.375 2.3h-1.1-1.1v7.075 7.075h-1.025-1.025V8.225 0h6.375 6.375v4.675V9.35h3.8 3.8V4.675 0h5.25 5.25v4.675V9.35h3.725 3.725V4.675 0h3.65 3.65v8.225z" fill="#694585"/><path d="M56.8625 45.004c-.0488.0032-.0971.0109-.1445.023a.94.94 0 0 0-.1395.048l-.1335.063v.024l-.108.0805c-.0351.0278-.0682.0581-.099.0905a.79.79 0 0 0-.081.106l-.072.113c-.0568.1232-.1064.2496-.1485.3785s-.0781.2598-.1065.3925a2.246 2.246 0 0 1-.0895.3405 1.779 1.779 0 0 1-.1475.3195l-.0455.0425c-.0299.0288-.068.0477-.109.054-.0203.0042-.0408.0071-.0615.0085s-.0419-.0043-.0625-.009a.448.448 0 0 1-.0605-.018c-.0189-.0108-.0362-.0241-.0515-.0395a.652.652 0 0 1-.0445-.0475l-.0515-.0985a.638.638 0 0 1-.0415-.1025c-.0134-.0466-.0224-.0943-.027-.1425s-.0075-.0985-.009-.1455l.008-.133a.805.805 0 0 1 .022-.131c.012-.0327.026-.0646.042-.0955l.048-.0935.085-.0725a.745.745 0 0 1 .092-.0625.759.759 0 0 1 .1065-.035l.1095-.025-.015-.3585-.015-.3585a1.337 1.337 0 0 0-.4285.0945 1.28 1.28 0 0 0-.3545.2595 1.751 1.751 0 0 0-.233.477c-.042.1728-.0615.3502-.058.528-.0014.1185.0083.2368.029.3535a1.973 1.973 0 0 0 .094.3425l.066.129a.776.776 0 0 0 .081.12c.0298.0379.0635.0726.1005.1035l.1125.0915.103.0565.107.0485a.884.884 0 0 0 .147.033l.15.015c.1343-.005.2667-.0338.391-.085.1208-.06.2294-.1421.32-.242l.12-.1855a1.971 1.971 0 0 0 .102-.1955 2.125 2.125 0 0 0 .072-.2105l.057-.2155.0735-.2875.0825-.2855c.015-.0483.0355-.0948.061-.1385s.0564-.0837.092-.1195c.0155-.0085.0315-.02.048-.0305s.0328-.0186.051-.0235.0368-.0112.056-.0125l.058-.0055c.0662.0029.1311.0196.1905.049s.109.0745.1515.125h.013a.796.796 0 0 1 .116.249c.0226.0892.033.181.031.273h-.013c.0014.0926-.0116.1849-.0385.2735s-.0708.1714-.1265.2455c-.0696.0688-.1496.1264-.237.1705a1.138 1.138 0 0 1-.279.0845l.0345.348.0345.348c.1697-.0203.3356-.0644.493-.131a1.559 1.559 0 0 0 .413-.301 1.771 1.771 0 0 0 .246-.4885 2.046 2.046 0 0 0 .063-.5435 2.233 2.233 0 0 0-.029-.3915c-.0212-.1294-.0547-.2565-.1-.3795-.0418-.0964-.0961-.1868-.1615-.269a1.117 1.117 0 0 0-.2345-.208l-.133-.071a.874.874 0 0 0-.14-.055 1.078 1.078 0 0 0-.147-.03l-.15-.015zm1.7955.071v3.975h-4.8V41.1h4.8zm-.6-.425v-2.4h-.65v1.35l-.0095.0155q-.0427-.027-.0855-.0585l-.091-.075-.1985-.199-.1915-.206-.2195-.231-.2335-.216c-.07-.0536-.1428-.1035-.218-.1495a1.708 1.708 0 0 0-.235-.1205 1.434 1.434 0 0 0-.224-.064c-.0764-.0151-.1541-.0228-.232-.023a.951.951 0 0 0-.702.3c-.0955.1145-.1703.2448-.221.385-.0433.1426-.0648.291-.064.44.0012.1415.0209.2821.0585.4185.043.1352.1062.2632.1875.3795a1.222 1.222 0 0 0 .363.271 1.48 1.48 0 0 0 .441.107l.0345-.3375.0345-.3375-.129-.015a.785.785 0 0 1-.126-.03.715.715 0 0 1-.088-.047l-.083-.055a.448.448 0 0 1-.098-.1565.536.536 0 0 1-.031-.1825l.0075-.091c.0036-.0302.0101-.06.0195-.089s.0258-.0555.042-.0815.0339-.0512.054-.0745l.067-.047c.0224-.0155.0461-.0289.071-.04.0332-.0131.068-.0218.1035-.026l.1065-.01a.825.825 0 0 1 .218.042c.0706.0236.1376.0569.199.099l.3.271.279.293c.1273.1418.2616.2771.4025.4055s.2898.2479.4465.3565c.1029.0626.2124.1138.3265.1525a1.878 1.878 0 0 0 .3515.0815z" class="P"/><path d="M58.075 46.0455a2.233 2.233 0 0 1 .029.3915 2.046 2.046 0 0 1-.063.5435 1.771 1.771 0 0 1-.246.4885 1.559 1.559 0 0 1-.413.301c-.1574.0666-.3233.1107-.493.131l-.0345-.348-.0345-.348a1.138 1.138 0 0 0 .279-.0845.939.939 0 0 0 .237-.1705c.0557-.0741.0985-.1571.1265-.2455s.0399-.1809.0385-.2735h.013a1.021 1.021 0 0 0-.031-.273.796.796 0 0 0-.116-.249h-.013c-.0425-.0505-.0938-.0929-.1515-.125s-.1243-.0461-.1905-.049c-.018.003-.038.0035-.058.0055s-.0381.0055-.056.0125-.0354.0129-.051.0235l-.048.0305c-.0356.0358-.0665.0759-.092.1195a.666.666 0 0 0-.061.1385l-.0825.2855-.0735.2875-.057.2155a2.125 2.125 0 0 1-.072.2105 1.971 1.971 0 0 1-.102.1955l-.12.1855c-.0906.0999-.1992.182-.32.242a1.138 1.138 0 0 1-.391.085l-.15-.015a.884.884 0 0 1-.147-.033l-.107-.0485-.103-.0565-.1125-.0915c-.037-.0309-.0707-.0656-.1005-.1035a.776.776 0 0 1-.081-.12l-.066-.129a1.973 1.973 0 0 1-.094-.3425c-.0207-.1167-.0304-.235-.029-.3535a2.063 2.063 0 0 1 .058-.528 1.751 1.751 0 0 1 .233-.477 1.28 1.28 0 0 1 .3545-.2595 1.337 1.337 0 0 1 .4285-.0945l.015.3585.015.3585-.1095.025a.759.759 0 0 0-.1065.035.745.745 0 0 0-.092.0625l-.085.0725-.048.0935a.828.828 0 0 0-.042.0955.805.805 0 0 0-.022.131l-.008.133.009.1455c.0046.0482.0136.0959.027.1425a.638.638 0 0 0 .0415.1025l.0515.0985.0445.0475c.0153.0154.0326.0287.0515.0395a.448.448 0 0 0 .0605.018.389.389 0 0 0 .0625.009c.021.0013.0412-.0043.0615-.0085.041-.0063.0791-.0252.109-.054a.747.747 0 0 0 .0455-.0425 1.779 1.779 0 0 0 .1475-.3195 2.246 2.246 0 0 0 .0895-.3405c.0284-.1327.064-.2637.1065-.3925a3.591 3.591 0 0 1 .1485-.3785l.072-.113a.79.79 0 0 1 .081-.106c.0308-.0324.0639-.0627.099-.0905l.108-.0805v-.024l.1335-.063a.94.94 0 0 1 .1395-.048.794.794 0 0 1 .1445-.023l.1465.014.15.015a1.078 1.078 0 0 1 .147.03.874.874 0 0 1 .14.055l.133.071a1.117 1.117 0 0 1 .2345.208c.0654.0822.1197.1726.1615.269.0453.123.0788.2501.1.3795zm-.6765-2.43l.0095-.0155v-1.35h.65v2.4l-.017.005a1.878 1.878 0 0 1-.3515-.0815 1.645 1.645 0 0 1-.3265-.1525c-.1567-.1086-.3059-.2277-.4465-.3565l-.4025-.4055-.279-.293-.3-.271a.801.801 0 0 0-.199-.099.825.825 0 0 0-.218-.042l-.1065.01c-.0355.0042-.0703.0129-.1035.026-.0249.0111-.0486.0245-.071.04l-.067.047c-.0201.0233-.0381.0482-.054.0745s-.0302.0533-.042.0815-.0159.0588-.0195.089l-.0075.091a.536.536 0 0 0 .031.1825.448.448 0 0 0 .098.1565l.083.055a.715.715 0 0 0 .088.047.785.785 0 0 0 .126.03l.129.015-.0345.3375-.0345.3375a1.48 1.48 0 0 1-.441-.107 1.222 1.222 0 0 1-.363-.271c-.0813-.1163-.1445-.2443-.1875-.3795-.0376-.1364-.0573-.277-.0585-.4185a1.487 1.487 0 0 1 .064-.44c.0507-.1402.1255-.2705.221-.385a.951.951 0 0 1 .702-.3c.0779.0002.1556.0079.232.023a1.434 1.434 0 0 1 .224.064 1.708 1.708 0 0 1 .235.1205 2.531 2.531 0 0 1 .218.1495l.2335.216.2195.231.1915.206.1985.199.091.075q.0428.0315.0855.0585z" class="O"/><path d="M55.274 38.15l1.374.346 1.393.351.017.003v.35.337h-.017l-1.393.351-1.394.351.004.011h1.4 1.4v.325.325h-1.775-1.775v-.525-.525l-.005-.02 1.204-.32 1.209-.321-1.209-.318-1.2-.315.001-.006v-.525-.525h1.775 1.775v.325.325h-1.4-1.384zm2.784-1.725v.325h-1.3-1.3v-.325-.325h1.3 1.3v.325zm-2.232-1.675c-.1176-.0977-.2171-.2153-.294-.3475a1.342 1.342 0 0 1-.116-.4755 1.095 1.095 0 0 1 .022-.209 1.266 1.266 0 0 1 .059-.202.908.908 0 0 1 .088-.1525.731.731 0 0 1 .119-.1295.941.941 0 0 1 .136-.08.784.784 0 0 1 .149-.052v-.016a1.995 1.995 0 0 1 .2285-.03l.116-.007.1245.001h1.6v.7h-1.3a3.372 3.372 0 0 0-.284.004 1.817 1.817 0 0 0-.281.038l-.0025-.005-.0585.0285c-.0199.0101-.0387.0223-.056.0365s-.0265.0223-.037.036a.338.338 0 0 1-.035.039h.02c-.0201.0338-.0365.0697-.049.107a.325.325 0 0 0-.017.116l-.02.014.0065.083a.69.69 0 0 0 .0145.082.625.625 0 0 0 .034.078l.041.075.0525.0615c.0182.0198.0378.0383.0585.0555a.462.462 0 0 0 .0705.0405l.0735.0345.1465.026a1.436 1.436 0 0 0 .1475.019c.0105-.0073.0222-.0127.0345-.016a.09.09 0 0 1 .0375-.003l.0375.025.0375.025.128-.05h1.2v.7h-2.6v-.65h.368zm2.232-2.7v.35h-1.3-1.3v-.35-.35h1.3 1.3v.35z" class="P"/><path d="M56.9445 93.5005c-.0753-.0477-.1628-.0727-.252-.072-.1126-.0072-.223.0336-.3039.1123s-.1247.1879-.1206.3007l-.01.0085h-.7v-.8575h.002a.154.154 0 0 0 .004.034c.003.0109.007.0214.012.0315l.002.002.0075.014c.0132.0188.0307.0342.051.045s.043.0161.066.016l.0055.015h1.9775v-.015c.023.0001.0456-.0054.066-.016s.0378-.0262.051-.045h.0055v.776h-.691v-.0085l-.0005-.022a.378.378 0 0 0-.17-.318z" class="K"/><path d="M55.578 93.06l-.002-.002c-.005-.0101-.009-.0206-.012-.0315a.154.154 0 0 1-.004-.034h-.002v-2.835h.002a.154.154 0 0 1 .004-.034c.003-.0109.007-.0214.012-.0315l.0095-.016c.0132-.0188.0307-.0342.051-.045s.043-.0161.066-.016L55.708 90h1.9775v.015c.023-.0001.0456.0054.066.016s.0378.0262.051.045h.0055v2.998h-.0055c-.0132.0188-.0307.0342-.051.045s-.043.0161-.066.016v.015H55.708l-.0055-.015c-.023.0001-.0456-.0054-.066-.016s-.0378-.0262-.051-.045z" class="P"/><path d="M56.9445 89.6465l.002-.001a.378.378 0 0 0 .17-.318l.0005-.022V89.3h.691v.776h-.0055c-.0132-.0188-.0307-.0342-.051-.045s-.043-.0161-.066-.016V90H55.708l-.0055.015c-.023-.0001-.0456.0054-.066.016s-.0378.0262-.051.045l-.0095.016c-.005.0101-.009.0206-.012.0315a.154.154 0 0 0-.004.034h-.002V89.3h.7l.01.0055c-.004.1127.0398.2219.1207.3006s.1912.1195.3038.1124c.0892.0008.1767-.0242.252-.072z" class="K"/><path d="M52.9725 84.9l-.1725.9135-.174.9225.2745.0405.2745.0405a.879.879 0 0 1 .2345-.1865.82.82 0 0 1 .2905-.0745c.0712.0016.1416.0157.208.0415s.1233.0722.173.1235a.713.713 0 0 1 .116.2315c.0212.0842.0316.1707.031.2575h-.014c.0013.0919-.0091.1837-.031.273s-.0636.1731-.116.249l.007.007a.566.566 0 0 1-.156.118.502.502 0 0 1-.2.046.462.462 0 0 1-.1765-.036.507.507 0 0 1-.1505-.099l-.0655-.078a.35.35 0 0 1-.0515-.087.405.405 0 0 1-.034-.097l-.02-.101-.339.036-.339.036c.0199.1346.0602.2655.1195.388a1.313 1.313 0 0 0 .2495.32 1.44 1.44 0 0 0 .377.202 1.42 1.42 0 0 0 .424.059c.3779.0135.7378-.162.96-.468a1.524 1.524 0 0 0 .189-.3695 1.588 1.588 0 0 0 .066-.4105 1.494 1.494 0 0 0-.0755-.4565 1.356 1.356 0 0 0-.2395-.3955c-.1008-.102-.219-.1851-.349-.2455a1.282 1.282 0 0 0-.419-.0845 1.034 1.034 0 0 0-.2375.031 1.121 1.121 0 0 0-.2245.083l.0525-.3015.049-.2825.0245.004h1.25v-.65h-1.7855zm-2.0155-.0505l-.068.1415a1.041 1.041 0 0 1-.2165.285l-.1345.119c-.0867.0697-.1785.1328-.2745.189a1.822 1.822 0 0 1-.3015.141h-.004v.618h.004l.2365-.0965a2.068 2.068 0 0 0 .2285-.1135 2.037 2.037 0 0 0 .2115-.145l.1995-.161.02.023v2.55h.65v-3.55h-.55zm4.301 1.7755v2.125h-5.65V84.5h5.65zm-.15-50.2v.325h-.3-.3v-.325-.325h.3.3v.325z" class="P"/><path d="M54.074 87.739l-.007-.007c.0524-.0759.0916-.1601.116-.249s.0323-.1811.031-.273h.014c.0006-.0868-.0098-.1733-.031-.2575a.713.713 0 0 0-.116-.2315c-.0497-.0513-.1083-.0932-.173-.1235s-.1368-.0399-.208-.0415c-.1006.0068-.1991.032-.2905.0745-.0883.0483-.1676.1114-.2345.1865l-.2745-.0405-.2745-.0405.174-.9225.1725-.9135h1.7855v.65h-1.25l-.0245-.004-.049.2825-.0525.3015a1.121 1.121 0 0 1 .2245-.083c.0777-.0195.1574-.0299.2375-.031.1434.0045.285.0331.419.0845.13.0604.2482.1435.349.2455a1.356 1.356 0 0 1 .2395.3955 1.494 1.494 0 0 1 .0755.4565c-.0039.1391-.0261.2771-.066.4105a1.524 1.524 0 0 1-.189.3695c-.2222.306-.5821.4815-.96.468a1.42 1.42 0 0 1-.424-.059 1.44 1.44 0 0 1-.377-.202 1.313 1.313 0 0 1-.2495-.32c-.0593-.1225-.0996-.2534-.1195-.388l.339-.036.339-.036.02.101a.405.405 0 0 0 .034.097.35.35 0 0 0 .0515.087l.0655.078a.507.507 0 0 0 .1505.099.462.462 0 0 0 .1765.036.502.502 0 0 0 .2-.046c.0585-.03.1112-.0699.156-.118z" class="O"/><g class="K"><path d="M52.2345 25.25l-.0005-.0045-.0005-.0015.0335-.036.0075-.008h.028c.0135.3022.2625.5402.565.54l.0015.003-.011.0105-.025.024-.025.024-.0095.009-.002-.0025c-.2944-.0325-.5274-.2639-.562-.558zm.008 6.95l-.0065-.007-.002-.0005c.016-.1437.0803-.2777.1825-.38l.0385-.036h.0005a.637.637 0 0 1 .341-.1465l.0005-.001.011.0105.025.024.025.024v.0105c-.3034.005-.5488.2486-.556.552h-.0135l-.0195-.021z"/><path d="M52.858 28.725v2.963l-.025-.024-.025-.025v-2.914-2.924l.025-.023.025-.025v2.972z"/><path d="M52.7985 25.8105l.0095-.009v5.838l-.011-.0105-.0005.001c-.1257.0139-.2444.0649-.341.1465h-.0005l-.0255-.025c.1877-.2053.2928-.4728.295-.751L52.708 31v-4.5475h.017c.0002-.3004-.1191-.5886-.3315-.801l-.001-.001.024-.025c.1023.1022.2363.1665.38.1825z"/><path d="M43.958 26.4525h-.02a1.132 1.132 0 0 1 1.1325-1.1325v-.02h6.522v.02c.2999-.0002.5877.1186.8.3305l.001.001c.2124.2124.3317.5006.3315.801h-.017V31l.0165.0005c-.0022.2782-.1073.5457-.295.751l-.036.038c-.2084.2086-.4902.3274-.785.331L51.608 32.1h-6.55l-.0005.0205c-.2778-.0027-.5448-.1077-.75-.295l-.038-.036c-.2095-.2094-.3284-.4928-.331-.789L43.958 31v-4.5475zM44.0075 31c.0057.578.4725 1.0453 1.0505 1.0515V32.05h6.55v.0015a1.063 1.063 0 0 0 1.048-1.063h.002V26.45h-.002a1.063 1.063 0 0 0-1.0475-1.0605l-.0005.0105h-6.55l-.0005-.0105A1.063 1.063 0 0 0 44.007 26.45h.001V31z"/><path d="M52.656 26.45h.002v4.5385h-.002a1.063 1.063 0 0 1-1.048 1.063V32.05h-6.55v.0015c-.578-.0062-1.0448-.4735-1.0505-1.0515h.0005v-4.55h-.001a1.063 1.063 0 0 1 1.0505-1.0605l.0005.0105h6.55l.0005-.0105A1.063 1.063 0 0 1 52.656 26.45zm-8.448.0025V30.7l.015.0035a1.132 1.132 0 0 0 1.1325 1.1325l.0025.014h6.2345v-.011a.85.85 0 0 0 .8505-.8505h.015v-4.536h-.015a.85.85 0 0 0-.8505-.8505V25.6h-6.522v.002a.85.85 0 0 0-.8505.8505z"/></g><g class="M"><path d="M52.508 53.25v.7 2.25h-.007l-.106-.106-.114-.114h-.023v-9.755-9.769h.023l.114-.114.092-.092h.021v2.25.7.45.7.4.7.45.7.45.7.4.7.45.7.225.225.7.4.75.4.7.45.7.4.75.4.7.45z"/><path d="M52.501 56.2h-2.243-.7-.45-.7-.45-.7-.4-.7-.45-.7-.45-.7-.4-.7-.25-.2-.7-.45-.7-.4-.7-.45-.7-.45-.7-.4-.75-.4-.7-2.271l.106-.106.114-.114h.001V56h9.75 9.75v-.02h.023l.114.114.106.106zm-.014-19.95l-.092.092-.114.114h-.023v-.006H33.825c-.0038-.0235-.0096-.0466-.0175-.069a.404.404 0 0 0-.031-.0685L33.758 36.3h-.35v-.05h19.079z"/></g><path d="M52.458 28.725v2.2635h-.015a.85.85 0 0 1-.8505.8505v.011H45.358l-.0025-.014a1.132 1.132 0 0 1-1.1325-1.1325l-.015-.0035v-4.2475h.012a.85.85 0 0 1 .8505-.8505V25.6h6.522v.002a.85.85 0 0 1 .8505.8505h.015z" class="Q"/><path d="M52.458 4.675V9.35h-3.725-3.725V4.675 0h3.725 3.725v4.675z" class="O"/><g class="K"><path d="M45.0575 32.1205l.0005-.0205h6.55l.0005.0205c.2948-.0036.5766-.1224.785-.331l.036-.038.0255.025-.0385.036c-.1022.1023-.1665.2363-.1825.38l.002.0005.0065.007h-7.819l.0065-.007-.001-.0005c-.0139-.1257-.0649-.2444-.1465-.341v-.0005l.025-.0255c.2052.1873.4722.2923.75.295z"/><path d="M43.9385 31.0005c.0026.2962.1215.5796.331.789l.038.036-.025.0255-.036-.0385a.639.639 0 0 0-.3785-.1825l-.01.0095v-5.838l.0075.0075.001-.001c.2944-.0325.5274-.2639.562-.558h7.806a.639.639 0 0 0 .182.3755l-.024.025c-.2123-.2119-.5001-.3307-.8-.3305v-.02h-6.522v.02a1.132 1.132 0 0 0-1.1325 1.1325h.02V31zM52.289 32.25h-3.956-3.955l.019-.021.027-.029h3.909 3.91l.026.029.02.021z"/><path d="M52.2745 25.2l-.0075.008-.0335.036.0005.0015.0005.0045h-7.806l.0005-.0045.0005-.0015-.0335-.036-.0075-.008h7.886z"/></g><path d="M45.218 44.159a.523.523 0 0 0-.061-.0715c-.0256-.0249-.0554-.0451-.088-.0595-.0484-.024-.0985-.0442-.15-.0605s-.1033-.0304-.156-.0415c-.0457-.008-.0906-.0202-.134-.0365a1.076 1.076 0 0 1-.127-.0565c-.0114-.012-.0213-.0252-.0295-.0395s-.0127-.0308-.0125-.0475.0043-.0336.0125-.0485a.127.127 0 0 1 .0325-.0385v-.011c.029-.0181.0607-.0313.094-.039l.025-.005.076.004a.396.396 0 0 1 .094.011c.0307.0071.0598.0196.086.037l.0285.033a.318.318 0 0 1 .0255.036c.005.0135.0095.0285.0135.043l.0105.044.141-.006.141-.006a.683.683 0 0 0-.0105-.0875c-.005-.0288-.0136-.0568-.0255-.0835a.465.465 0 0 0-.046-.0725.896.896 0 0 0-.056-.0655v-.024c-.0295-.0196-.0601-.0376-.0915-.054s-.064-.0305-.0975-.042l-.102-.0155c-.0342-.0038-.0686-.0056-.103-.0055l-.005.024a.896.896 0 0 0-.1405.011c-.0463.0077-.0917.0201-.1355.037-.0352.0155-.0684.0355-.0985.0595a.382.382 0 0 0-.0785.0845h.018c-.0172.0279-.0313.0576-.042.0885a.299.299 0 0 0-.018.0955l-.018.017c.0012.0233.0039.0465.008.0695l.016.0685c.0124.0271.028.0526.0465.076a.773.773 0 0 0 .0585.068c.0477.0344.099.0636.153.087a.74.74 0 0 0 .168.051l.1135.0295.1115.0335c.0195.0046.0383.0122.0555.0225s.0332.0225.0465.0375h.011a.108.108 0 0 1 .024.0415.117.117 0 0 1 .0065.043l-.0115-.0005-.0065.0395c-.0029.0131-.0068.0259-.0115.0385l-.024.031a.377.377 0 0 1-.027.029v.011c-.0324.021-.0681.0365-.1055.046s-.076.0134-.1145.011v.0025a.409.409 0 0 1-.095-.015.269.269 0 0 1-.096-.0505v-.014c-.028-.0269-.0511-.0583-.0685-.093a.365.365 0 0 1-.0335-.111l-.138.0135-.138.0135a.61.61 0 0 0 .0525.196c.0291.0615.0692.1171.1185.164.0297.0206.0606.0394.0925.0565s.0651.0313.0995.0425.0713.0138.1075.017l.1085.007v.024a1.074 1.074 0 0 0 .155-.0125c.0514-.008.102-.0209.151-.0385v-.024c.0387-.0164.0748-.0381.1075-.0645a.361.361 0 0 0 .0815-.0945c.023-.0326.0401-.069.0505-.1075a.581.581 0 0 0 .0185-.1175h-.021l-.004-.059c-.0006-.0196-.0032-.039-.008-.058l-.0215-.0545-.0235-.0535zm.2085.641h.9315v-.25h-.5l-.013-.009.018-.026c.0086-.0129.0179-.0253.028-.037l.0805-.078.0815-.078c.0324-.0264.0631-.0548.092-.085l.085-.092.058-.0875c.0178-.0285.0339-.058.048-.0885l-.008-.004c.0119-.0289.0203-.0591.025-.09a.535.535 0 0 0 .008-.093h.01l-.008-.076c-.0035-.0253-.0099-.0501-.019-.074a.329.329 0 0 0-.0415-.067l-.0485-.062c-.0223-.0128-.0438-.0268-.0645-.042s-.0435-.027-.0675-.036c-.0302-.0136-.0625-.0222-.0955-.0255l-.0995-.0075-.0845.006c-.0282.0025-.0562.0076-.0835.015s-.0519.0204-.0765.0335l-.0735.0415-.0525.0595c-.0169.0201-.0324.0413-.0465.0635-.0144.0311-.0257.0636-.0335.097s-.0141.067-.0175.101l.135.0135.135.0135c-.0007-.0308.0037-.0616.013-.091s.0243-.0564.044-.08c.0095-.0055.0195-.013.0295-.02s.02-.0133.0305-.019l.036-.006.036-.006a.21.21 0 0 1 .0725.012c.0234.0083.0448.0216.0625.039s.0297.0401.037.064a.248.248 0 0 1 .011.074.34.34 0 0 1-.0165.086c-.0094.0277-.022.0542-.0375.079l-.1085.118-.1165.11-.1605.1615a1.678 1.678 0 0 0-.1425.1775.593.593 0 0 0-.0595.129.869.869 0 0 0-.033.136zm-3.057 0h.9385v-.25h-.529l.025-.0355.03-.0365.079-.0785.08-.0775c.0324-.0264.0631-.0548.092-.085l.085-.092a1.016 1.016 0 0 0 .06-.0865.552.552 0 0 0 .048-.0935.584.584 0 0 0 .026-.09c.006-.0307.0094-.0618.01-.093l-.0095-.068c-.0027-.0228-.0075-.0452-.0145-.067-.0107-.027-.0244-.0527-.041-.0765s-.0352-.0462-.055-.0675c-.021-.012-.0425-.028-.0645-.0425a.258.258 0 0 0-.0675-.0355c-.0302-.0136-.0625-.0222-.0955-.0255l-.0995-.0075-.0845.0065a.441.441 0 0 0-.0835.0145.431.431 0 0 0-.0765.034l-.0735.041-.059.0685c-.019.0234-.0354.0487-.049.0755s-.0198.0573-.026.087l-.016.09.135.0135.135.0135c-.0008-.0306.0041-.0612.0145-.09a.322.322 0 0 1 .0425-.081l.031-.0205c.0099-.0074.0207-.0136.032-.0185l.036-.0065.036-.0055c.0242-.0002.0483.0041.071.0125s.0437.0214.061.0385h.017c.0353.0356.0529.0851.048.135l-.017.003a.244.244 0 0 1-.0155.086.428.428 0 0 1-.0385.079l-.108.1185-.117.1095a2.213 2.213 0 0 0-.303.339.667.667 0 0 0-.0585.129.714.714 0 0 0-.031.136zm-.6935-.8495l-.015.109-.015.1095.061-.0135a.388.388 0 0 1 .062-.0075l.0335.005a.207.207 0 0 1 .0325.007.248.248 0 0 1 .036.022.419.419 0 0 1 .033.026h.003c.0105.0147.02.0301.0285.046s.0151.0326.0195.05c.0018.0109.0028.0219.003.033s.0012.0221.003.033-.0025.0265-.0035.0405a.147.147 0 0 1-.0055.0405.24.24 0 0 1-.0215.046l-.0265.044h-.003l-.03.0255c-.0102.0086-.0213.0161-.033.0225a.228.228 0 0 1-.0385.0095l-.0395.0055v-.001a.216.216 0 0 1-.071-.014c-.0228-.0092-.0435-.0228-.061-.04l-.0005.0005c-.0202-.019-.0359-.0422-.046-.068a.277.277 0 0 1-.0195-.0815l-.1305.015-.1305.015a.391.391 0 0 0 .0455.157.53.53 0 0 0 .0985.131l.071.0465a.346.346 0 0 0 .076.0375c.0274.0092.0557.0151.0845.0175l.0865.0065a.524.524 0 0 0 .1805-.0325.454.454 0 0 0 .1555-.0965.849.849 0 0 0 .0565-.068.413.413 0 0 0 .0455-.076.418.418 0 0 0 .021-.0845l.012-.0865c-.003-.0185-.0035-.039-.0055-.0595-.0039-.0388-.0165-.0763-.037-.1095l-.0295-.05c-.0261-.0282-.0557-.0531-.088-.074s-.0689-.0343-.107-.04a.464.464 0 0 0 .1445-.1195.398.398 0 0 0 .0595-.1775c-.0011-.0434-.0107-.0862-.028-.126s-.0413-.0764-.071-.108a.919.919 0 0 0-.0785-.059c-.0272-.0183-.0562-.0337-.0865-.046a.5.5 0 0 0-.076-.014l-.077-.007c-.0359 0-.0718.0036-.107.0105s-.0699.0173-.103.0315-.0559.0311-.0805.0515a.478.478 0 0 0-.0665.0685 1.004 1.004 0 0 0-.0455.0995.74.74 0 0 0-.0325.1045l.1245.021.1245.021a.256.256 0 0 1 .019-.074c.0098-.0236.0236-.0453.041-.064s.034-.0271.054-.0355a.151.151 0 0 1 .063-.0125.159.159 0 0 1 .061.011.189.189 0 0 1 .053.031.14.14 0 0 1 .0315.053.182.182 0 0 1 .0105.061l-.006.0365c-.0016.0121-.0047.024-.009.0355a.127.127 0 0 1-.0185.0315l-.0235.0285c-.0266.0191-.0567.033-.0885.041-.026.006-.0528.0086-.0795.0075zm-.096-5.368l.002.0035c-.0426.3308-.0309.6664.0345.9935s.2043.6347.4095.8975a2.376 2.376 0 0 0 .781.644 1.843 1.843 0 0 0 .9785.223c.1223-.014.2406-.0523.348-.1125a.711.711 0 0 0 .262-.252c.0669-.1127.1053-.2401.112-.371a.758.758 0 0 0-.0755-.379.708.708 0 0 0-.2-.2625.847.847 0 0 0-.292-.1565 1.8 1.8 0 0 0-.2615-.048c-.0881-.0096-.1746-.0302-.2575-.0615a.633.633 0 0 1-.2895-.271c-.0665-.1186-.1085-.2494-.1235-.3845v.0235a.531.531 0 0 1 .033-.2335c.0277-.0747.0767-.1395.141-.1865l.013-.0135-.112-.1065-.126-.12-.156-.018-.156-.018h-.003a1.347 1.347 0 0 0-.087 1.368c.1085.1921.2663.3517.457.4625s.3976.1908.614.2335l.0075.0065.0075.0065h.015l.006-.0035.006-.0035.006-.0215.006-.0215h.012l.0045.025.0045.025a.188.188 0 0 1 .0995.025.134.134 0 0 1 .0625.079l-.004.0085-.001.0095.025.0045.025.0045v.009l-.025.0045-.025.0045.001.0095.004.0085a.114.114 0 0 1-.0475.064c-.0227.0151-.0485.025-.0755.029l-.0075.02-.0075.02h-.012l-.0075-.025-.0075-.025h-.015l-.0075.025-.0075.025h-.033l-.0165-.0215-.0165-.0215c-.3754-.0491-.7242-.2205-.9925-.4875a1.529 1.529 0 0 1-.4535-1.0005l-.024-.0165-.024-.0165v-.135l.025-.018.025-.018a1.323 1.323 0 0 1 .0275-.2255l.0535-.2215h-.002l-.141-.069-.141-.069-.0465-.006-.0465-.006-.144.084zm-1.041 1.6855l-.003.001-.0795.0135-.078.0135c-.0167.5933.214 1.1668.6368 1.5834s.9997.6386 1.5927.6131V42.35l.0045-.0125a3.312 3.312 0 0 1-2.0735-2.0695zm.101-.794c.1517 1.4487 1.2845 2.6004 2.7305 2.776l.001.0015.2125-.148.213-.1485.003-.1515.003-.1515v-.0035c-.6824.01-1.3399-.2561-1.8233-.7378s-.7518-1.1383-.7442-1.8207h-.0005l-.165-.0045-.165-.0045-.132.1965-.132.1965zm.0965-.7835l.0035.0035.0675.072.065.0695c.8709-.846 2.2573-.8443 3.126.004s.9035 2.2342.0785 3.125l.005.0055.0705.0705.067.067c.8716-.9725.8239-2.4587-.1083-3.3732s-2.419-.9339-3.3747-.0438zm-.9775 5.4745c-.0188-.0281-.0407-.054-.0655-.077s-.0553-.0448-.0875-.06c-.0487-.0232-.0988-.0433-.15-.06s-.1032-.0312-.156-.042c-.0457-.0079-.0905-.0199-.134-.036s-.0861-.035-.127-.057c-.0126-.0108-.0228-.0241-.03-.039s-.0115-.0313-.012-.048.0043-.0336.0125-.0485a.127.127 0 0 1 .0325-.0385v-.011c.029-.0181.0607-.0313.094-.039l.025-.005.076.004a.395.395 0 0 1 .0935.011.271.271 0 0 1 .0865.037c.0075.0095.0165.019.0255.029s.016.02.0225.031.0122.0313.0165.0475l.0135.0485.141-.006.141-.006a.407.407 0 0 0-.0375-.1695c-.0252-.0527-.0603-.1001-.1035-.1395v-.024a.765.765 0 0 0-.0895-.055.735.735 0 0 0-.0965-.041l-.0955-.015-.0965-.006-.018.024c-.0474-.0001-.0947.0037-.1415.0115s-.093.0199-.1375.0365a.521.521 0 0 0-.0965.0605c-.0299.0237-.0561.0519-.0775.0835h-.019a.387.387 0 0 0-.0425.088.335.335 0 0 0-.0175.096l.019.017c.0012.0233.0039.0465.008.0695l.016.0685c.0124.0271.028.0526.0465.076.0504.0744.1249.1292.211.155a.744.744 0 0 0 .1685.051l.1135.0295.1115.0335c.0195.0046.0383.0122.0555.0225a.191.191 0 0 1 .036.0265l-.0125.011a.088.088 0 0 1 .0225.039.197.197 0 0 1 .0075.045h.023a.188.188 0 0 1-.02.076.229.229 0 0 1-.049.062v.011a.383.383 0 0 1-.099.0445.357.357 0 0 1-.108.0125v.003a.391.391 0 0 1-.109-.016.314.314 0 0 1-.098-.05v-.014a.384.384 0 0 1-.066-.094c-.0168-.0347-.0279-.0718-.033-.11l-.138.0135-.138.0135a.618.618 0 0 0 .052.196c.0293.0615.0696.1171.119.164l.08.0495c.0272.0158.0556.0294.085.0405.0389.013.0792.0214.12.025l.123.008v.024a1.074 1.074 0 0 0 .155-.0125c.0514-.008.102-.0209.151-.0385v-.024c.0145-.009.032-.017.049-.026s.0323-.0172.047-.028a.422.422 0 0 0 .0505-.049c.0152-.0178.0294-.0365.0425-.056.023-.0326.0401-.069.0505-.1075a.581.581 0 0 0 .0185-.1175h-.008l-.005-.0585-.007-.0585-.0215-.0545-.0235-.0535zM52.258 55.98V56h-19.5V36.45h.23l-.0005.004a.423.423 0 0 0 .6468.4135.423.423 0 0 0 .1912-.4135l-.0005-.004h18.433v19.53zm-4.7-12.33v-.25h-.95v1.4h.3v-.6h.6v-.25h-.6v-.3h.65zm-3.7625-4.2085a.308.308 0 1 0-.0112-.6161.308.308 0 0 0-.3053.3081c-.0031.0841.0296.1656.0899.2243s.1426.0891.2266.0837zm.2625 5.0085v-.3h-.55v.3h.55zm-2.9345-.508a.534.534 0 0 0 .0125-.112.633.633 0 0 0-.0205-.1435c-.0118-.0472-.0334-.0913-.0635-.1295l-.041-.0465a.25.25 0 0 0-.046-.0405.29.29 0 0 0-.0555-.0285l-.0585-.0225v.002a1.433 1.433 0 0 0-.171-.018l-.172-.003h-.45v1.4h.3v-.55h.15v.05h.094l.018-.025.018-.025c.0126-.0016.0253-.0006.0375.003a.116.116 0 0 1 .0345.015l.055-.008.056-.007c.0262-.0067.0518-.0156.0765-.0265s.0483-.0241.0705-.0395.0476-.039.0675-.0625.0381-.0483.0525-.0755a.456.456 0 0 0 .0355-.107zm-2.6155.858v-.25h-.8v-.35h.7v-.25h-.7v-.3h.75v-.25h-1v1.4h1.05z" class="M"/><path d="M51.508 86.625V88.4h-.65v-2.55l-.02-.023-.1995.161a2.037 2.037 0 0 1-.2115.145 2.068 2.068 0 0 1-.2285.1135l-.2365.0965h-.004v-.618h.004c.1046-.0378.2055-.085.3015-.141s.1878-.1193.2745-.189l.1345-.119c.0881-.0818.1613-.1782.2165-.285l.068-.1415.001.0005h.55z" class="O"/><g class="L"><use xlink:href="#C"/><path d="M32.408 82.114V82.1h-1.7v1.7h1.7v-1.686zm10.45-4.264h1.75V75.9h4.5v2.25h-.35V97.3h-25.35V78.15h-.35V75.9h4.5v1.95h1.75V76.3h13.55v1.55zm-3.1 4.253V83.8h1.7v-1.7h-1.7z"/><use xlink:href="#C" x="-1.15"/><use xlink:href="#C" x="-2.3"/></g><path d="M47.558 43.525v.125h-.325-.325v.15.15h.3.3v.125.125h-.3-.3v.3.3h-.15-.15v-.7-.7h.475.475v.125z" class="N"/><use xlink:href="#C" x="-3.4" class="L"/><path d="M45.845 44.541l.013.009h.5v.25h-.9315a.869.869 0 0 1 .033-.136.593.593 0 0 1 .0595-.129 1.678 1.678 0 0 1 .1425-.1775l.1605-.1615.1165-.11.1085-.118c.0155-.0248.0281-.0513.0375-.079a.34.34 0 0 0 .0165-.086.248.248 0 0 0-.011-.074c-.0073-.0239-.02-.0457-.037-.064s-.0391-.0307-.0625-.039a.21.21 0 0 0-.0725-.012l-.036.006-.036.006c-.0105.0057-.0207.0121-.0305.019l-.0295.02c-.0197.0236-.0347.0507-.044.08s-.0137.0602-.013.091l-.135-.0135-.135-.0135c.0034-.034.0093-.0678.0175-.101s.0191-.0659.0335-.097c.0141-.0222.0296-.0434.0465-.0635l.0525-.0595.0735-.0415c.0246-.0131.0502-.0243.0765-.0335s.0553-.0125.0835-.015l.0845-.006.0995.0075c.033.0033.0653.0119.0955.0255.024.009.0467.0211.0675.036s.0422.0292.0645.042l.0485.062a.329.329 0 0 1 .0415.067c.0091.0239.0155.0487.019.074s.006.0515.008.076h-.01a.535.535 0 0 1-.008.093c-.0047.0309-.0131.0611-.025.09l.008.004c-.0141.0305-.0302.06-.048.0885l-.058.0875-.085.092c-.0289.0302-.0596.0586-.092.085l-.0815.078-.0805.078c-.0101.0117-.0194.0241-.028.037z" class="N"/><path d="M46.008 75.4v.5h-1.7v-1l-.001-.0125c-.0005-.0677.0471-.1262.1135-.1395h.0005l.037.002h1.4l.0075-.005c.0379-.0002.0742.0147.101.0415s.0417.0631.0415.101V75.4z" class="K"/><use xlink:href="#C" x="-4.55" class="L"/><path d="M44.708 44.6025V44.6c.0385.0024.0772-.0013.1145-.011s.0731-.025.1055-.046v-.011a.377.377 0 0 0 .027-.029l.024-.031c.0047-.0126.0086-.0254.0115-.0385s.005-.027.0065-.0395l.0115.0005a.117.117 0 0 0-.0065-.043.108.108 0 0 0-.024-.0415h-.011c-.0133-.015-.029-.0277-.0465-.0375s-.036-.0179-.0555-.0225c-.0305-.011-.071-.0225-.1115-.0335l-.1135-.0295a.74.74 0 0 1-.168-.051c-.054-.0234-.1053-.0526-.153-.087a.773.773 0 0 1-.0585-.068c-.0185-.0234-.0341-.0489-.0465-.076l-.016-.0685c-.0041-.023-.0068-.0462-.008-.0695l.018-.017a.299.299 0 0 1 .018-.0955c.0107-.0309.0248-.0606.042-.0885h-.018a.382.382 0 0 1 .0785-.0845c.0301-.024.0633-.044.0985-.0595.0438-.0169.0892-.0293.1355-.037a.896.896 0 0 1 .1405-.011l.005-.024c.0344-.0001.0688.0017.103.0055a1.062 1.062 0 0 1 .102.0155c.0335.0115.0661.0255.0975.042s.062.0344.0915.054v.024l.056.0655a.465.465 0 0 1 .046.0725c.0119.0267.0205.0547.0255.0835a.683.683 0 0 1 .0105.0875l-.141.006-.141.006-.0105-.044-.0135-.043a.318.318 0 0 0-.0255-.036l-.0285-.033c-.0262-.0174-.0553-.0299-.086-.037a.396.396 0 0 0-.094-.011l-.076-.004-.025.005c-.0333.0077-.065.0209-.094.039v.011a.127.127 0 0 0-.0325.0385c-.0082.0149-.0125.0315-.0125.0485s.0041.0331.0125.0475.0181.0275.0295.0395a1.076 1.076 0 0 0 .127.0565c.0434.0163.0883.0285.134.0365.0527.0111.1047.025.156.0415s.1016.0365.15.0605c.0326.0144.0624.0346.088.0595a.523.523 0 0 1 .061.0715l-.014.01.0235.0535.0215.0545c.0048.019.0074.0384.008.058l.004.059h.021a.581.581 0 0 1-.0185.1175c-.0104.0385-.0275.0749-.0505.1075a.361.361 0 0 1-.0815.0945c-.0327.0264-.0688.0481-.1075.0645v.024c-.049.0176-.0996.0305-.151.0385a1.074 1.074 0 0 1-.155.0125v-.024l-.1085-.007c-.0362-.0032-.0721-.0089-.1075-.017s-.0676-.0254-.0995-.0425-.0628-.0359-.0925-.0565c-.0493-.0469-.0894-.1025-.1185-.164a.61.61 0 0 1-.0525-.196l.138-.0135.138-.0135a.365.365 0 0 0 .0335.111c.0174.0347.0405.0661.0685.093v.014a.269.269 0 0 0 .096.0505.409.409 0 0 0 .095.015z" class="N"/><path d="M44.608 76.875v.975h-1.75v-.775-.775h-.8v-.2-.2h1.275.425.55.3v.975z" class="M"/><use xlink:href="#C" x="-5.7" class="L"/><path d="M44.432 40.2295a.758.758 0 0 1 .0755.379c-.0067.1309-.0451.2583-.112.371a.711.711 0 0 1-.262.252c-.1074.0602-.2257.0985-.348.1125a1.843 1.843 0 0 1-.9785-.223 2.376 2.376 0 0 1-.781-.644c-.2052-.2628-.3455-.5703-.4095-.8975s-.0771-.6627-.0345-.9935l-.002-.0035.138-.0805.144-.084.0465.006.0465.006.141.069.141.069h.002l-.0535.2215a1.323 1.323 0 0 0-.0275.2255l-.025.018-.025.018v.135l.024.0165.024.0165a1.529 1.529 0 0 0 .4535 1.0005c.2683.267.6171.4384.9925.4875l.0165.0215.0165.0215h.033l.0075-.025.0075-.025h.015l.0075.025.0075.025h.012l.0075-.02.0075-.02c.027-.004.0528-.0139.0755-.029a.114.114 0 0 0 .0475-.064l-.004-.0085-.001-.0095.025-.0045.025-.0045v-.009l-.025-.0045-.025-.0045.001-.0095.004-.0085a.134.134 0 0 0-.0625-.079.188.188 0 0 0-.0995-.025l-.0045-.025-.0045-.025h-.012l-.006.0215-.006.0215-.006.0035-.006.0035h-.015l-.0075-.0065-.0075-.0065c-.2164-.0427-.4239-.1217-.614-.2335s-.3485-.2704-.457-.4625a1.347 1.347 0 0 1 .087-1.368h.003l.156.018.156.018.126.12.112.1065-.013.0135c-.0643.047-.1133.1118-.141.1865a.531.531 0 0 0-.033.2335v-.0235c.015.1351.057.2659.1235.3845a.633.633 0 0 0 .2895.271c.0829.0313.1694.0519.2575.0615a1.8 1.8 0 0 1 .2615.048.847.847 0 0 1 .292.1565.708.708 0 0 1 .2.2625z" class="N"/><path d="M43.858 31.6395l.01-.0095a.639.639 0 0 1 .3785.1825l.036.0385v.0005a.637.637 0 0 1 .1465.341l.001.0005-.0065.007-.0265.029-.019.021h-.017c-.0072-.3022-.2508-.5454-.553-.552v-.0105l.025-.024zm0-5.838l-.025-.024-.025-.024-.011-.0105v-.003c.3019-.0006.5501-.2384.5635-.54h.028l.0075.008.0335.036-.0005.0015-.0005.0045c-.0346.2941-.2676.5255-.562.558l-.001.001z" class="K"/><g class="N"><path d="M44.111 38.734a2.331 2.331 0 0 1 .1085 3.3735l-.067-.067-.0705-.0705-.005-.0055c.825-.8908.7902-2.2767-.0785-3.125s-2.2551-.85-3.126-.004l-.065-.0695-.0675-.072-.0035-.0035c.4459-.4557 1.059-.709 1.6966-.7007s1.2439.2772 1.6779.7442z"/><ellipse cx="43.7955" cy="39.1335" rx=".3165" ry=".308"/><path d="M44.058 44.3v.15h-.275-.275v-.15-.15h.275.275v.15z"/></g><path d="M43.858 28.725v2.914l-.025.025-.025.024v-2.963-2.972l.025.025.025.023v2.924z" class="K"/><path d="M43.803 41.6485v.0035l-.003.1515-.003.1515-.213.1485-.2125.148-.001-.0015c-1.446-.1756-2.5788-1.3273-2.7305-2.776h.001l.132-.1965.132-.1965.165.0045.165.0045h.0005c-.0076.6824.2608 1.339.7442 1.8207s1.1409.7478 1.8233.7378z" class="N"/><path d="M43.758 75.4v.5h-1.7v-1l-.019-.0125c-.0005-.0677.0471-.1262.1135-.1395h.0005l.055.002h1.4v-.0045c.0746.005.1325.0672.132.142l.018.0125z" class="K"/><use xlink:href="#C" x="-6.8" class="L"/><path d="M42.779 44.55h.529v.25h-.9385a.714.714 0 0 1 .031-.136.667.667 0 0 1 .0585-.129 2.213 2.213 0 0 1 .303-.339l.117-.1095.108-.1185a.428.428 0 0 0 .0385-.079.244.244 0 0 0 .0155-.086l.017-.003c.0049-.0499-.0127-.0994-.048-.135h-.017a.167.167 0 0 0-.061-.0385c-.0229-.0082-.0468-.0127-.071-.0125l-.036.0055-.036.0065c-.0113.0049-.0221.0111-.032.0185l-.031.0205a.322.322 0 0 0-.0425.081c-.0104.0288-.0153.0594-.0145.09l-.135-.0135-.135-.0135.016-.09c.0062-.0297.0149-.0588.026-.087s.03-.0521.049-.0755l.059-.0685.0735-.041a.431.431 0 0 1 .0765-.034.441.441 0 0 1 .0835-.0145l.0845-.0065.0995.0075a.307.307 0 0 1 .0955.0255.258.258 0 0 1 .0675.0355l.0645.0425a.672.672 0 0 1 .055.0675.359.359 0 0 1 .041.0765c.007.0218.0118.0442.0145.067l.0095.068a.539.539 0 0 1-.01.093.584.584 0 0 1-.026.09.552.552 0 0 1-.048.0935 1.016 1.016 0 0 1-.06.0865l-.085.092c-.0289.0302-.0596.0586-.092.085l-.08.0775-.079.0785-.03.0365-.025.0355zm-.1665-2.2125l-.0045.0125v.1425c-.593.0255-1.1699-.1966-1.5927-.6131s-.6535-.9901-.6368-1.5834l.078-.0135.0795-.0135.003-.001a3.312 3.312 0 0 0 2.0735 2.0695z" class="N"/><use xlink:href="#C" x="-7.95" class="L"/><path d="M41.6275 44.5495l.0005-.0005c.0175.0172.0382.0308.061.04a.216.216 0 0 0 .071.014v.001l.0395-.0055a.228.228 0 0 0 .0385-.0095c.0117-.0064.0228-.0139.033-.0225l.03-.0255h.003l.0265-.044a.24.24 0 0 0 .0215-.046.147.147 0 0 0 .0055-.0405l.0035-.0405c-.0018-.0109-.0028-.0219-.003-.033s-.0012-.0221-.003-.033c-.0044-.0174-.0109-.0342-.0195-.05s-.018-.0313-.0285-.046h-.003a.419.419 0 0 0-.033-.026.248.248 0 0 0-.036-.022.207.207 0 0 0-.0325-.007l-.0335-.005a.388.388 0 0 0-.062.0075l-.061.0135.015-.1095.015-.109c.0267.0011.0535-.0015.0795-.0075.0318-.008.0619-.0219.0885-.041l.0235-.0285a.127.127 0 0 0 .0185-.0315c.0043-.0115.0074-.0234.009-.0355l.006-.0365a.182.182 0 0 0-.0105-.061.14.14 0 0 0-.0315-.053.189.189 0 0 0-.053-.031.159.159 0 0 0-.061-.011.151.151 0 0 0-.063.0125c-.02.0084-.0383.0205-.054.0355s-.0312.0404-.041.064a.256.256 0 0 0-.019.074l-.1245-.021-.1245-.021a.74.74 0 0 1 .0325-.1045 1.004 1.004 0 0 1 .0455-.0995.478.478 0 0 1 .0665-.0685c.0246-.0204.0517-.0377.0805-.0515s.0676-.0247.103-.0315.0711-.0105.107-.0105l.077.007a.5.5 0 0 1 .076.014c.0303.0123.0593.0277.0865.046a.919.919 0 0 1 .0785.059c.0297.0316.0538.0682.071.108s.0269.0826.028.126a.398.398 0 0 1-.0595.1775.464.464 0 0 1-.1445.1195c.0381.0057.0745.0193.107.04s.0619.0458.088.074c.008.0165.019.033.0295.05.0205.0332.0331.0707.037.1095l.0055.0595-.012.0865a.418.418 0 0 1-.021.0845.413.413 0 0 1-.0455.076.849.849 0 0 1-.0565.068.454.454 0 0 1-.1555.0965.524.524 0 0 1-.1805.0325l-.0865-.0065c-.0288-.0024-.0571-.0083-.0845-.0175a.346.346 0 0 1-.076-.0375l-.071-.0465a.53.53 0 0 1-.0985-.131.391.391 0 0 1-.0455-.157l.1305-.015.1305-.015a.277.277 0 0 0 .0195.0815c.0101.0258.0258.049.046.068z" class="N"/><path d="M42.058 76.1v.2h-2.8v-.4h2.8z" class="M"/><path d="M41.472 74.8875l-.014.0125v1h-.85v-1l.012-.0125c0-.0378.0149-.0741.0415-.101a.146.146 0 0 1 .0965-.0415v.005h.55l.0215-.005c.0379-.0002.0742.0147.101.0415s.0417.0631.0415.101z" class="K"/><path d="M39.758 82.103V82.1h.85.85v.85.85h-.85-.85v-.85-.847z" class="M"/><use xlink:href="#C" x="-9.1" class="L"/><path d="M40.686 43.6445l-.003.0145-.1125-.0075-.1125-.0015h-.1v.4h.15c.0359.0011.0718-.0001.1075-.0035a.728.728 0 0 0 .1065-.0175v-.016a.203.203 0 0 0 .048-.0285.229.229 0 0 0 .039-.0405h.019c.0111-.0162.0196-.0341.025-.053a.203.203 0 0 0 .008-.058h-.019a.205.205 0 0 0-.0115-.067.192.192 0 0 0-.0335-.059.255.255 0 0 0-.052-.0405.191.191 0 0 0-.059-.022zm.45.1855a.534.534 0 0 1-.0125.112.456.456 0 0 1-.0355.107c-.0144.0272-.0321.0525-.0525.0755s-.0425.0445-.0675.0625-.0458.0286-.0705.0395-.0503.0198-.0765.0265l-.056.007-.055.008a.116.116 0 0 0-.0345-.015c-.0122-.0036-.0249-.0046-.0375-.003l-.018.025-.018.025h-.094v-.05h-.15v.55h-.3v-1.4h.45l.172.003a1.433 1.433 0 0 1 .171.018v-.002l.0585.0225a.29.29 0 0 1 .0555.0285.25.25 0 0 1 .046.0405l.041.0465c.0301.0382.0517.0823.0635.1295a.633.633 0 0 1 .0205.1435z" class="N"/><path d="M40.842 43.833h.019a.203.203 0 0 1-.008.058c-.0054.0189-.0139.0368-.025.053h-.019a.229.229 0 0 1-.039.0405.203.203 0 0 1-.048.0285v.016a.728.728 0 0 1-.1065.0175c-.0357.0034-.0716.0046-.1075.0035h-.15v-.4h.1c.0355-.0015.074-.0005.1125.0015l.1125.0075.003-.0145a.191.191 0 0 1 .059.022.255.255 0 0 1 .052.0405.192.192 0 0 1 .0335.059.205.205 0 0 1 .0115.067z" class="M"/><path d="M40.058 75.4v.5h-.85v-1l-.004-.0125c-.0005-.0677.0471-.1262.1135-.1395h.0005l.04.002h.55l.0055-.005c.0379-.0002.0742.0147.101.0415s.0417.0631.0415.101l.002.0125z" class="K"/><use xlink:href="#C" x="-10.2" class="L"/><path d="M39.4935 44.299a.191.191 0 0 0-.036-.0265c-.0172-.0103-.036-.0179-.0555-.0225-.0305-.011-.071-.0225-.1115-.0335l-.1135-.0295a.744.744 0 0 1-.1685-.051c-.0861-.0258-.1606-.0806-.211-.155-.0185-.0234-.0341-.0489-.0465-.076l-.016-.0685c-.0041-.023-.0068-.0462-.008-.0695l-.019-.017a.335.335 0 0 1 .0175-.096.387.387 0 0 1 .0425-.088h.019c.0214-.0316.0476-.0598.0775-.0835a.521.521 0 0 1 .0965-.0605c.0445-.0166.0906-.0288.1375-.0365s.0941-.0116.1415-.0115l.018-.024.0965.006.0955.015a.735.735 0 0 1 .0965.041.765.765 0 0 1 .0895.055v.024c.0432.0394.0783.0868.1035.1395a.407.407 0 0 1 .0375.1695l-.141.006-.141.006-.0135-.0485c-.0043-.0162-.0098-.0321-.0165-.0475s-.0141-.0214-.0225-.031l-.0255-.029a.271.271 0 0 0-.0865-.037.395.395 0 0 0-.0935-.011l-.076-.004-.025.005c-.0333.0077-.065.0209-.094.039v.011a.127.127 0 0 0-.0325.0385c-.0082.0149-.0125.0315-.0125.0485s.0046.0331.012.048.0174.0282.03.039c.0409.022.0834.0411.127.057s.0883.0281.134.036c.0528.0108.1049.0249.156.042s.1013.0368.15.06c.0322.0152.0617.0355.0875.06s.0467.0489.0655.077l-.005.004.0235.0535.0215.0545.007.0585.005.0585h.008a.581.581 0 0 1-.0185.1175c-.0104.0385-.0275.0749-.0505.1075-.0131.0195-.0273.0382-.0425.056a.422.422 0 0 1-.0505.049c-.0147.0108-.0305.0202-.047.028l-.049.026v.024c-.049.0176-.0996.0305-.151.0385a1.074 1.074 0 0 1-.155.0125v-.024l-.123-.008c-.0408-.0036-.0811-.012-.12-.025-.0294-.0111-.0578-.0247-.085-.0405l-.08-.0495c-.0494-.0469-.0897-.1025-.119-.164a.618.618 0 0 1-.052-.196l.138-.0135.138-.0135c.0051.0382.0162.0753.033.11a.384.384 0 0 0 .066.094v.014a.314.314 0 0 0 .098.05.391.391 0 0 0 .109.016V44.6a.357.357 0 0 0 .108-.0125.383.383 0 0 0 .099-.0445v-.011a.229.229 0 0 0 .049-.062.188.188 0 0 0 .02-.076h-.023a.197.197 0 0 0-.0075-.045.088.088 0 0 0-.0225-.039z" class="N"/><path d="M39.258 76.1v.2h-6.35v-.4h6.35z" class="M"/><use xlink:href="#C" x="-11.35" class="L"/><path d="M38.658 75.4v.5h-.85v-1l-.023-.0125c-.0005-.0711.052-.1315.1225-.141l.0005.0035h.6v-.0045c.033.0034.0638.0178.0875.041s.0415.0632.0415.101l.021.0125z" class="K"/><path d="M38.508 44.675v.125h-.525-.525v-.7-.7h.5.5v.125.125h-.375-.375v.15.15h.35.35v.125.125h-.35-.35v.175.175h.4.4v.125z" class="N"/><use xlink:href="#C" x="-12.5" class="L"/><path d="M37.221 74.8875l-.013.0125v1h-.85v-1l.011-.0125a.142.142 0 0 1 .139-.1425v.005h.55l.0205-.005c.0379-.0002.0742.0147.101.0415s.0417.0631.0415.101z" class="K"/><path d="M36.658 36.225v.025h-.75v-.025-.025h.375.375v.025z" class="L"/><path d="M35.808 75.4v.5h-.85v-1l-.005-.0125c-.0005-.0677.0471-.1262.1135-.1395h.0005l.041.002h.55l.0045-.005c.0379-.0002.0742.0147.101.0415s.0417.0631.0415.101l.003.0125z" class="K"/><use xlink:href="#C" x="-14.75" class="L"/><path d="M34.508 4.675V9.35h-3.8-3.8V4.675 0h3.8 3.8v4.675z" class="O"/><path d="M34.408 75.4v.5h-.85v-1l-.024-.0125c0-.0378.0149-.0741.0415-.101s.051-.0362.082-.04l.0005.0035h.6v-.0045a.142.142 0 0 1 .128.142l.022.0125z" class="K"/><path d="M33.825 36.45l.0005.004a.423.423 0 0 1-.6468.4135.423.423 0 0 1-.1912-.4135l.0005-.004c.0038-.0235.0096-.0466.0175-.069a.404.404 0 0 1 .031-.0685l.0215-.0125h.7l.0185.0125a.404.404 0 0 1 .031.0685c.0079.0224.0137.0455.0175.069z" class="N"/><path d="M33.408 36.25v.05h-.35l-.0215.0125a.404.404 0 0 0-.031.0685c-.0079.0224-.0137.0455-.0175.069h-.23v.006h-.001l-.114-.114-.092-.092z" class="M"/><path d="M32.97 74.8875l-.012.0125v1h-.85v-1l.01-.0125c-.0004-.0779.0621-.1416.14-.1425v.005h.55l.0195-.005c.0379-.0002.0742.0147.101.0415s.0417.0631.0415.101z" class="K"/><path d="M32.908 76.1v.2h-2.75v-.4h2.75zm-.15-29.875v9.755h-.001l-.114.114-.106.106h-.029v-2.25-.7-.45-.7-.4-.75-.4-.7-.45-.7-.4-.75-.4-.7-.225V46v-.7-.45-.7-.4-.7-.45-.7-.45-.7-.4-.7-.45-.7-2.25h.043l.092.092.114.114h.001v9.769zm-.35 35.889v.836.85h-.85-.85v-.85-.85h.85.85v.014z" class="M"/><path d="M31.558 75.4v.5h-.85v-1l-.009-.0125c-.0005-.0677.0471-.1262.1135-.1395h.0005l.045.002h.55l.0005-.005c.0379-.0002.0742.0147.101.0415s.0417.0631.0415.101l.007.0125z" class="K"/><path d="M30.158 76.1v.2h-.85v.775.775h-1.75v-.975-.975h.3.6.4 1.3v.2z" class="M"/><path d="M30.158 75.4v.5h-1.7v-1l-.027-.0125c-.0005-.0727.0542-.1339.1265-.1415l.0005.004h1.45l.0005-.004c.0723.0076.127.0688.1265.1415l.023.0125zm-2.291-.5125l-.009.0125v1h-1.7v-1l.005-.0125a.141.141 0 0 1 .1135-.1395h.0005l.031.002h1.4l.0165-.005c.0379-.0002.0742.0147.101.0415s.0417.0631.0415.101z" class="K"/><path d="M24.608 65.45V68h-8.8v-5.1h8.8zm-8.1515 2.3085c.2266-.0062.4059-.1939.4018-.4206s-.1902-.4077-.4169-.4056-.4094.1864-.4094.4131c-.0041.1128.0397.222.1206.3007s.1913.1195.3039.1123z" class="M"/><g class="L"><path d="M23.608 69.85v.1h-1.4v-.4h1.4v.3z"/><path d="M23.608 69.175v.375h-1.4V68h1.4v1.175zm0-6.675v.4h-1.4v-1.6h1.4v1.2z"/><path d="M23.608 61.2335V61.3h-1.4v-.4h1.4v.3335zm-2.65 8.6165v.1h-1.45v-.4h1.45v.3z"/><path d="M20.958 69.175v.375h-1.45V68h1.45v1.175z"/></g><path d="M18.908 89.277v-.855h-.011l-.3465.216-.3465.216-.294.194a3.162 3.162 0 0 0-.279.214 2.248 2.248 0 0 0-.1625.1815c-.0508.0633-.0958.1311-.1345.2025a1.499 1.499 0 0 0-.1055-.3785c-.0572-.1191-.133-.2283-.2245-.3235a1.075 1.075 0 0 0-.3065-.178 1.151 1.151 0 0 0-.3505-.056l-.128.01a1.255 1.255 0 0 0-.127.017.861.861 0 0 0-.156.054c-.0505.0225-.0995.049-.147.075-.0771.0476-.1459.1075-.2035.1775a.839.839 0 0 0-.1355.2335l.0035.001c-.0387.1329-.0655.2689-.08.4065s-.0196.2768-.0155.4155v1.5h3.55v-.7h-1.5v-.15c-.0019-.0611.0005-.1222.007-.183a1.23 1.23 0 0 1 .032-.18h.01a.585.585 0 0 1 .0625-.1155.703.703 0 0 1 .0845-.1005l.2555-.1945.2665-.1805.3855-.2595.3855-.2595zm1.05-2.402V92.1h-5.55V81.65h5.55zm-.998-.121a2.338 2.338 0 0 0-.0295-.3915 2.068 2.068 0 0 0-.0995-.3795l-.0735-.14a.887.887 0 0 0-.0885-.13.718.718 0 0 0-.11-.1105l-.124-.0965-.133-.071a.767.767 0 0 0-.14-.055.824.824 0 0 0-.147-.0305l-.15-.0145-.148.0085a.864.864 0 0 0-.146.0245c-.0471.0118-.093.0275-.1375.047l-.1325.061a1.118 1.118 0 0 0-.205.174 1.052 1.052 0 0 0-.155.219c-.0583.1225-.1082.2488-.1495.378l-.1055.393c-.0232.1147-.0535.2279-.0905.339a1.621 1.621 0 0 1-.1465.318.316.316 0 0 1-.096.078.262.262 0 0 1-.2435 0 .29.29 0 0 1-.0955-.084c-.025-.041-.0469-.0838-.0655-.128a.869.869 0 0 1-.0455-.136.723.723 0 0 1-.013-.112l-.005-.113.0065-.119a.81.81 0 0 1 .0145-.118.687.687 0 0 1 .043-.111l.056-.105c.0512-.0547.1118-.0997.179-.133a.652.652 0 0 1 .214-.062l-.0165-.3585-.0165-.3585a1.315 1.315 0 0 0-.4275.094c-.1317.0656-.2509.1536-.3525.26a1.613 1.613 0 0 0-.234.477 1.897 1.897 0 0 0-.057.528l.0065.1775a1.518 1.518 0 0 0 .0175.1765 1.478 1.478 0 0 0 .0425.173l.0565.169.065.1285a.748.748 0 0 0 .079.1205c.0314.0365.0653.0707.1015.1025l.1115.0925.119.0625a1.049 1.049 0 0 0 .124.0515c.0429.0123.0867.021.131.026l.133.013c.1351-.0048.2682-.0337.393-.0855.1203-.0611.2289-.1428.321-.2415l.105-.163c.0348-.0545.0659-.1113.093-.17a1.831 1.831 0 0 0 .086-.2335l.067-.2405.0715-.288.0815-.285c.0085-.019.016-.0405.024-.062s.0165-.0414.027-.061.0303-.0475.048-.0695l.054-.0655v-.002l.043-.026.044-.025.0585-.0145.0305-.005.04.0005c.0662.0018.1312.0186.19.049a.579.579 0 0 1 .152.125h.004l.066.1195a.638.638 0 0 1 .051.1265.772.772 0 0 1 .0225.138l.0045.138h-.004c.0017.0925-.0101.1849-.035.274-.0306.0872-.0734.1697-.127.245a.964.964 0 0 1-.2375.169c-.089.0397-.1826.0686-.2785.086l.0345.348.0345.348a1.822 1.822 0 0 0 .4915-.1315c.1534-.0758.2926-.1775.4115-.3005.1086-.1481.1921-.3132.247-.4885a1.979 1.979 0 0 0 .065-.5435zm-.052-2.804v-.75h-2.95v-1.05h-.6V85h.6v-1.05h2.95z" class="P"/><path d="M17.828 86.0515l-.0305.005-.0585.0145-.044.025-.043.026v.002l-.054.0655a.58.58 0 0 0-.048.0695c-.0143.0243-.0195.04-.027.061l-.024.062-.0815.285-.0715.288-.067.2405a1.831 1.831 0 0 1-.086.2335c-.0271.0587-.0582.1155-.093.17l-.105.163a1.153 1.153 0 0 1-.321.2415c-.1248.0518-.2579.0807-.393.0855l-.133-.013c-.0443-.005-.0881-.0137-.131-.026a1.049 1.049 0 0 1-.124-.0515l-.119-.0625-.1115-.0925a1.034 1.034 0 0 1-.1015-.1025.748.748 0 0 1-.079-.1205l-.065-.1285-.0565-.169a1.478 1.478 0 0 1-.0425-.173 1.518 1.518 0 0 1-.0175-.1765l-.0065-.1775a1.897 1.897 0 0 1 .057-.528 1.613 1.613 0 0 1 .234-.477 1.271 1.271 0 0 1 .3525-.26 1.315 1.315 0 0 1 .4275-.094l.0165.3585.0165.3585a.652.652 0 0 0-.214.062c-.0672.0333-.1278.0783-.179.133l-.056.105a.687.687 0 0 0-.043.111.81.81 0 0 0-.0145.118l-.0065.119.005.113a.723.723 0 0 0 .013.112.869.869 0 0 0 .0455.136c.0186.0442.0405.087.0655.128a.29.29 0 0 0 .0955.084.262.262 0 0 0 .2435 0 .316.316 0 0 0 .096-.078 1.621 1.621 0 0 0 .1465-.318 2.88 2.88 0 0 0 .0905-.339l.1055-.393c.0413-.1292.0912-.2555.1495-.378a1.052 1.052 0 0 1 .155-.219 1.118 1.118 0 0 1 .205-.174l.1325-.061c.0445-.0195.0904-.0352.1375-.047a.864.864 0 0 1 .146-.0245l.148-.0085.15.0145a.824.824 0 0 1 .147.0305.767.767 0 0 1 .14.055l.133.071.124.0965a.718.718 0 0 1 .11.1105.887.887 0 0 1 .0885.13l.0735.14a2.068 2.068 0 0 1 .0995.3795 2.338 2.338 0 0 1 .0295.3915 1.979 1.979 0 0 1-.065.5435c-.0549.1753-.1384.3404-.247.4885-.1189.123-.2581.2247-.4115.3005a1.822 1.822 0 0 1-.4915.1315l-.0345-.348-.0345-.348c.0959-.0174.1895-.0463.2785-.086a.964.964 0 0 0 .2375-.169.985.985 0 0 0 .127-.245c.0249-.0891.0367-.1815.035-.274h.004l-.0045-.138a.772.772 0 0 0-.0225-.138.638.638 0 0 0-.051-.1265l-.066-.1195h-.004a.579.579 0 0 0-.152-.125.44.44 0 0 0-.19-.049zm-2.3745 3.2265l-.0035-.001a.839.839 0 0 1 .1355-.2335.824.824 0 0 1 .2035-.1775l.147-.075a.861.861 0 0 1 .156-.054 1.255 1.255 0 0 1 .127-.017l.128-.01a1.151 1.151 0 0 1 .3505.056 1.075 1.075 0 0 1 .3065.178 1.244 1.244 0 0 1 .2245.3235 1.499 1.499 0 0 1 .1055.3785c.0387-.0714.0837-.1392.1345-.2025a2.248 2.248 0 0 1 .1625-.1815 3.162 3.162 0 0 1 .279-.214l.294-.194.3465-.216.3465-.216h.011v.855h-.011l-.3855.2595-.3855.2595-.2665.1805-.2555.1945a.703.703 0 0 0-.0845.1005.585.585 0 0 0-.0625.1155h-.01a1.23 1.23 0 0 0-.032.18c-.0065.0608-.0089.1219-.007.183v.15h1.5v.7h-3.55v-1.5a3.116 3.116 0 0 1 .0155-.4155 2.309 2.309 0 0 1 .08-.4065zm1.2065.243l-.001.001a.543.543 0 0 0-.1205-.0535.445.445 0 0 0-.1305-.0185l-.016-.002-.0865.0075a.336.336 0 0 0-.0845.0195.238.238 0 0 0-.061.03l-.056.039a.42.42 0 0 0-.092.1215c-.0234.0456-.039.0947-.046.1455h.004l-.013.261.001.261v.567h.9v-.55h-.0025a2.77 2.77 0 0 0-.004-.309 2.928 2.928 0 0 0-.0385-.32h-.004c-.0137-.0404-.0339-.0783-.06-.112a.45.45 0 0 0-.089-.088zm2.248-5.946v.375h-1.475-1.475v.525V85h-.3-.3v-1.425-1.425h.3.3v.525.525h1.475 1.475v.375z" class="O"/><path d="M18.708 78.8v.2305a.072.072 0 0 1-.0205.05.07.07 0 0 1-.0405.0195h-2.139v.0005a.067.067 0 0 1-.0635-.0465l.0135-.004v-.5h2.25zm0-3.9v.25h-2.25v-.5l-.018-.0115a.07.07 0 0 1 .0705-.0705v-.018h2.127v.018a.07.07 0 0 1 .0705.0705V74.9z" class="L"/><path d="M18.658 76.85v1.7h-1.075-1.075v-1.7-1.7h1.075 1.075v1.7z" fill="#e48e35"/><g class="L"><path d="M18.258 69.85v.1h-1.45v-.4h1.45v.3z"/><path d="M18.258 69.175v.375h-1.45V68h1.45v1.175zm0-6.675v.4h-1.45v-1.6h1.45v1.2z"/><path d="M18.258 61.2335V61.3h-1.45v-.4h1.45v.3335z"/></g><ellipse cx="16.4565" cy="67.3455" rx=".4245" ry=".413" class="M"/><path d="M16.8555 90.35h.0025v.55h-.9v-.567l-.001-.261.013-.261h-.004c.007-.0508.0226-.0999.046-.1455a.42.42 0 0 1 .092-.1215l.056-.039a.238.238 0 0 1 .061-.03.336.336 0 0 1 .0845-.0195l.0865-.0075.016.002a.445.445 0 0 1 .1305.0185.543.543 0 0 1 .1205.0535l.001-.001a.45.45 0 0 1 .089.088c.0261.0337.0463.0716.06.112h.004a2.928 2.928 0 0 1 .0385.32c.0071.1028.0084.206.004.309z" class="P"/><path d="M12.758 87.5v5.1h-.7-.7v.725.725h-2.85-2.85v-4-2.525-2.575V81h2.85 2.85v.7.7h.7.7v5.1z" class="Q"/><path d="M12.867 22.2675c.0137.5651-.2069 1.1107-.6094 1.5076a2.047 2.047 0 0 1-1.5161.5879 2.096 2.096 0 1 1 0-4.191 2.048 2.048 0 0 1 2.1255 2.0955zm-.735 0c.0082-.5642-.3254-1.0775-.8444-1.2991s-1.1204-.1076-1.5223.2885-.5246.9958-.3105 1.518.7224.8631 1.2867.8631c.3694.0141.7283-.125.9916-.3846s.4077-.6163.3989-.9859zm.735 7.197c.0137.5651-.2069 1.1107-.6094 1.5076a2.047 2.047 0 0 1-1.5161.5879 2.096 2.096 0 1 1 0-4.191 2.048 2.048 0 0 1 2.1255 2.0955zm-.735.001v-.001a1.391 1.391 0 0 0-1.3905-1.3709 1.391 1.391 0 0 0-1.3905 1.3709v.001c-.0126.3911.1496.7675.4425 1.027l.0445.0365a.627.627 0 0 0 .0515.039 1.487 1.487 0 0 0 1.781-.0605l.018-.015c.2934-.2592.4559-.6357.4435-1.027zm.735 7.199c.0137.5651-.2069 1.1107-.6094 1.5076a2.047 2.047 0 0 1-1.5161.5879 2.096 2.096 0 1 1 0-4.191 2.048 2.048 0 0 1 2.1255 2.0955zm-.735.0005v-.002a1.391 1.391 0 0 0-1.3905-1.3696A1.391 1.391 0 0 0 9.351 36.663v.002c-.0069.3196.0996.6314.3005.88l.0275.0325a1.462 1.462 0 0 0 2.1235.001l.023-.027a1.351 1.351 0 0 0 .3065-.8865zm.735 7.1965c.0137.5651-.2069 1.1107-.6094 1.5076a2.047 2.047 0 0 1-1.5161.5879 2.096 2.096 0 1 1 0-4.191 2.048 2.048 0 0 1 2.1255 2.0955zm-.735 0v-.0005a1.391 1.391 0 0 0-1.3905-1.3702A1.391 1.391 0 0 0 9.351 43.861v.001a1.351 1.351 0 0 0 .301.8805l.021.025.012.0135.01.011.0225.0235c.5697.5555 1.4785.5553 2.048-.0005l.0225-.0235.0035-.004.034-.0385.0055-.0065a1.352 1.352 0 0 0 .301-.881zm.735 7.2c.0137.5651-.2069 1.1107-.6094 1.5076a2.047 2.047 0 0 1-1.5161.5879 2.096 2.096 0 1 1 0-4.191 2.048 2.048 0 0 1 2.1255 2.0955zm-.735.004v-.007a1.391 1.391 0 0 0-1.3905-1.3677 1.391 1.391 0 0 0-1.3905 1.3677v.007a1.402 1.402 0 0 0 .1905.7185q.0143.0248.03.048l.001.0015.019.0275c.2729.3597.6985.571 1.15.571s.8771-.2113 1.15-.571l.0495-.0765a1.399 1.399 0 0 0 .191-.719zm.735 7.196c.0137.5651-.2069 1.1107-.6094 1.5076a2.047 2.047 0 0 1-1.5161.5879 2.096 2.096 0 1 1 0-4.191 2.048 2.048 0 0 1 2.1255 2.0955zm-.7355.007l.0005-.012a1.391 1.391 0 0 0-2.781 0v.005l.0005.007a1.472 1.472 0 0 0 .099.527l.02.048.0035.0085.0115.0245.0185.0375a.253.253 0 0 0 .016.0305 1.427 1.427 0 0 0 1.2386.6874c.5055-.0064.9699-.2796 1.2209-.7184l.0105-.021.013-.0275.004-.008.0255-.0615c.0652-.1681.0988-.3467.099-.527zm.7355 7.19c.0137.5651-.2069 1.1107-.6094 1.5076a2.047 2.047 0 0 1-1.5161.5879 2.096 2.096 0 1 1 0-4.191 2.048 2.048 0 0 1 2.1255 2.0955zm-.735.0055v-.0095a1.391 1.391 0 0 0-2.781 0v.0095c.0004.1808.0341.36.0995.5285l.0235.0565.015.0315c.2428.45.7081.7355 1.2193.7481s.99-.2496 1.2547-.6871l.016-.03.0055-.0115.014-.028.0105-.023a1.46 1.46 0 0 0 .123-.585zm0 7.192a1.391 1.391 0 0 0-1.3905-1.3683A1.391 1.391 0 0 0 9.351 72.656v.0025l.0005.009c.001.1304.019.2602.0535.386l.02.0675.0115.0325.0235.061a1.414 1.414 0 0 0 2.5765-.0335l.027-.0785.0145-.049a1.512 1.512 0 0 0 .0535-.386zm.735.0025c.0137.5651-.2069 1.1107-.6094 1.5076a2.047 2.047 0 0 1-1.5161.5879 2.096 2.096 0 1 1 0-4.191 2.048 2.048 0 0 1 2.1255 2.0955zm-1.53-61.722c.0272 1.1304-.414 2.2219-1.2192 3.0157S8.215 15.1718 7.085 15.1285c-1.1301.0435-2.2279-.3821-3.0333-1.176s-1.2469-1.8854-1.2197-3.016c-.0272-1.1304.414-2.2219 1.2192-3.0157A4.097 4.097 0 0 1 7.084 6.7445a4.097 4.097 0 0 1 4.253 4.192zm-4.2525 2.793c.7529.0289 1.4843-.2546 2.0209-.7836s.8307-1.2562.8126-2.0094A2.73 2.73 0 0 0 7.0845 8.143a2.73 2.73 0 0 0-2.8335 2.7935c-.0181.7533.276 1.4805.8126 2.0094a2.73 2.73 0 0 0 2.0209.7836z" class="K"/><path d="M5.658 87.525v2.525h-1.4-1.4V87.5v-2.55h1.4 1.4v2.575z" class="M"/><path d="M5.667 22.2675c.0137.5651-.2069 1.1107-.6094 1.5076a2.047 2.047 0 0 1-1.5161.5879 2.096 2.096 0 0 1-1.8396-3.1519 2.096 2.096 0 0 1 1.8396-1.0391 2.048 2.048 0 0 1 2.1255 2.0955zm-.735 0a1.34 1.34 0 0 0-.3987-.9863 1.339 1.339 0 0 0-.9918-.3847 1.371 1.371 0 1 0 0 2.7415c.3695.0142.7283-.125.9917-.3845a1.339 1.339 0 0 0 .3988-.986zm.735 7.194c.0137.5651-.2069 1.1107-.6094 1.5076a2.047 2.047 0 0 1-1.5161.5879 2.096 2.096 0 0 1-1.8396-3.1519 2.096 2.096 0 0 1 1.8396-1.0391 2.048 2.048 0 0 1 2.1255 2.0955zm-.735.0005v-.0005c.0075-.323-.1012-.638-.3065-.8875l-.0375-.043-.026-.0265a1.412 1.412 0 0 0-1.0205-.414 1.41 1.41 0 0 0-1.0535.449l-.0305.035a1.347 1.347 0 0 0-.3065.8855v.0025a1.339 1.339 0 0 0 1.3905 1.3695c.3694.0141.7281-.125.9914-.3844a1.34 1.34 0 0 0 .3991-.9856zm.735 7.1935c.0137.5651-.2069 1.1107-.6094 1.5076a2.047 2.047 0 0 1-1.5161.5879 2.096 2.096 0 0 1-1.8396-3.1519A2.096 2.096 0 0 1 3.5415 34.56a2.048 2.048 0 0 1 2.1255 2.0955zm-.735.0045l-.0005-.0105c-.0002-.1808-.0338-.3599-.099-.5285l-.0235-.056-.004-.009-.001-.0025-.0155-.0315c-.0075-.017-.016-.0335-.0255-.0495a1.364 1.364 0 0 0-1.2215-.688 1.365 1.365 0 0 0-1.2215.688.253.253 0 0 0-.016.0305l-.0245.05-.0055.012v.0005l-.0235.056a1.465 1.465 0 0 0-.099.528l-.0005.006v.0045a1.339 1.339 0 0 0 1.3905 1.366c.3687.0141.7268-.1244.99-.3829s.4081-.6142.4005-.9831zm.735 7.1895c.0137.5651-.2069 1.1107-.6094 1.5076a2.047 2.047 0 0 1-1.5161.5879 2.096 2.096 0 0 1-1.8396-3.1519 2.096 2.096 0 0 1 1.8396-1.0391 2.048 2.048 0 0 1 2.1255 2.0955zm-.735.0055l-.0005-.013c-.0005-.053-.0038-.1059-.01-.1585a1.405 1.405 0 0 0-.0615-.29l-.0005-.001c-.1887-.5627-.7248-.9345-1.318-.914a1.35 1.35 0 0 0-1.2815.8145.266.266 0 0 0-.013.033l-.021.058a1.487 1.487 0 0 0-.0745.458l-.0005.0075v.0055a1.339 1.339 0 0 0 1.3905 1.365c.3685.0141.7265-.1243.9896-.3826s.4082-.6137.4009-.9824zm-2.781 7.193a1.339 1.339 0 0 0 1.3905 1.366c.3687.0141.7268-.1244.99-.3829s.4081-.6142.4005-.9831v-.0045l-.0025-.062-.0005-.0135-.0065-.0765v-.003l-.0105-.0775v-.0005c-.0993-.6736-.6901-1.1642-1.3705-1.138A1.334 1.334 0 0 0 2.171 50.811l-.0105.0775v.003l-.0065.0765-.0005.0135-.0025.062zm3.516-.0045c.0137.5651-.2069 1.1107-.6094 1.5076a2.047 2.047 0 0 1-1.5161.5879 2.096 2.096 0 0 1-1.8396-3.1519 2.096 2.096 0 0 1 1.8396-1.0391 2.048 2.048 0 0 1 2.1255 2.0955zm-3.5155 7.2a1.338 1.338 0 0 0 1.39 1.3645c.3684.0142.7263-.1241.9894-.3824s.408-.6136.4006-.9821l.0005-.006-.003-.07v-.0005a1.336 1.336 0 0 0-1.3875-1.3005 1.336 1.336 0 0 0-1.3875 1.301l-.003.07zm3.5155-.006c.0137.5651-.2069 1.1107-.6094 1.5076a2.047 2.047 0 0 1-1.5161.5879 2.096 2.096 0 0 1-1.8396-3.1519 2.096 2.096 0 0 1 1.8396-1.0391 2.048 2.048 0 0 1 2.1255 2.0955zm-3.516 7.202a1.339 1.339 0 0 0 1.3905 1.3655c.3686.0141.7266-.1244.9898-.3828s.4081-.6139.4007-.9827v-.005q-.0008-.0367-.003-.072a1.336 1.336 0 0 0-1.3875-1.299c-.3568-.0138-.7043.1158-.965.3598a1.336 1.336 0 0 0-.4225.9392q-.0023.0353-.003.072zm3.516-.005c.0137.5651-.2069 1.1107-.6094 1.5076a2.047 2.047 0 0 1-1.5161.5879 2.096 2.096 0 0 1-1.8396-3.1519 2.096 2.096 0 0 1 1.8396-1.0391 2.048 2.048 0 0 1 2.1255 2.0955zm-3.5155 7.201a1.338 1.338 0 0 0 1.39 1.3635c.3682.0142.726-.124.989-.382a1.339 1.339 0 0 0 .401-.9815l.0005-.007-.003-.068a1.336 1.336 0 0 0-1.3875-1.303c-.3575-.0138-.7056.1163-.9664.3612a1.336 1.336 0 0 0-.4211.9418l-.003.068zm3.5155-.007c.0137.5651-.2069 1.1107-.6094 1.5076a2.047 2.047 0 0 1-1.5161.5879 2.096 2.096 0 0 1-1.8396-3.1519 2.096 2.096 0 0 1 1.8396-1.0391 2.048 2.048 0 0 1 2.1255 2.0955z" class="K"/><defs ><path id="B" d="M70.584 22.2675a2.126 2.126 0 0 1-3.6179 1.544 2.126 2.126 0 0 1 1.4924-3.6395 2.048 2.048 0 0 1 2.1255 2.0955zm-2.1255 1.371a1.371 1.371 0 0 0-.026-2.7416 1.371 1.371 0 0 0-1.3645 1.3706 1.34 1.34 0 0 0 1.3905 1.371z"/><path id="C" d="M50.258 36.225v.025h-.7v-.025-.025h.35.35v.025z"/></defs></svg>