<?xml version="1.0" encoding="UTF-8"?>
<svg id="Layer_1" xmlns="http://www.w3.org/2000/svg" version="1.1" viewBox="0 0 90.7 124.7">
  <!-- Generator: Adobe Illustrator 29.7.1, SVG Export Plug-In . SVG Version: 2.1.1 Build 8)  -->
  <defs>
    <style>
      .st0 {
        fill: #2e2f36;
        stroke: #1b1c22;
        stroke-miterlimit: 11.3;
        stroke-width: .3px;
      }

      .st1 {
        fill: #f6e1f1;
      }

      .st2 {
        fill: #22456f;
      }

      .st3 {
        letter-spacing: 0em;
      }

      .st4 {
        letter-spacing: 0em;
      }

      .st5 {
        fill: #bbb;
      }

      .st6 {
        letter-spacing: 0em;
      }

      .st7, .st8, .st9 {
        isolation: isolate;
      }

      .st10 {
        fill: #cbcbcb;
      }

      .st8 {
        fill: #bdab16;
        opacity: .4;
      }

      .st9 {
        font-family: CourierNewPSMT, 'Courier New';
        font-size: 4.4px;
      }

      .st9, .st11 {
        fill: #fff;
      }

      .st11 {
        font-family: Arial-BoldMT, Arial;
        font-size: 2.8px;
        font-weight: 700;
      }
    </style>
  </defs>
  <path class="st2" d="M0,0v124.7h90.7V0H0ZM6.5,3.1c2,0,3.5,1.6,3.5,3.5s-1.6,3.5-3.5,3.5-3.5-1.6-3.5-3.5,1.6-3.5,3.5-3.5ZM6.7,121.3c-2,0-3.5-1.6-3.5-3.5s1.6-3.5,3.5-3.5,3.5,1.6,3.5,3.5-1.6,3.5-3.5,3.5ZM19.3,5c-.8,0-1.4-.6-1.4-1.4s.6-1.4,1.4-1.4,1.4.6,1.4,1.4-.6,1.4-1.4,1.4ZM26.5,5c-.8,0-1.4-.6-1.4-1.4s.6-1.4,1.4-1.4,1.4.6,1.4,1.4-.6,1.4-1.4,1.4ZM33.7,5c-.8,0-1.4-.6-1.4-1.4s.6-1.4,1.4-1.4,1.4.6,1.4,1.4-.6,1.4-1.4,1.4ZM40.9,5c-.8,0-1.4-.6-1.4-1.4s.6-1.4,1.4-1.4,1.4.6,1.4,1.4-.6,1.4-1.4,1.4ZM48.1,5c-.8,0-1.4-.6-1.4-1.4s.6-1.4,1.4-1.4,1.4.6,1.4,1.4-.6,1.4-1.4,1.4ZM55.3,5c-.8,0-1.4-.6-1.4-1.4s.6-1.4,1.4-1.4,1.4.6,1.4,1.4-.6,1.4-1.4,1.4ZM62.5,5c-.8,0-1.4-.6-1.4-1.4s.6-1.4,1.4-1.4,1.4.6,1.4,1.4-.6,1.4-1.4,1.4ZM69.7,5c-.8,0-1.4-.6-1.4-1.4s.6-1.4,1.4-1.4,1.4.6,1.4,1.4-.6,1.4-1.4,1.4ZM84.4,3.1c2,0,3.5,1.6,3.5,3.5s-1.6,3.5-3.5,3.5-3.5-1.6-3.5-3.5,1.6-3.5,3.5-3.5ZM84.6,121.3c-2,0-3.5-1.6-3.5-3.5s1.6-3.5,3.5-3.5,3.5,1.6,3.5,3.5-1.6,3.5-3.5,3.5Z"/>
  <path class="st1" d="M.3,13.8v96.4h89.9V13.8H.3ZM12.9,104.5h67.7v2.4H12.9v-2.4Z"/>
  <rect class="st8" x="21.8" y="107.2" width="47.2" height="7" rx="2.8" ry="2.8"/>
  <rect x="1.3" y="14.6" width="88" height="88"/>
  <g class="st7">
    <g class="st7">
      <text class="st9" transform="translate(18 120.1) scale(1.3 1)"><tspan x="0" y="0">ST7789 1.54” TFT</tspan></text>
    </g>
  </g>
  <path class="st5" d="M6.4,1.7C3.6,1.7,1.4,3.9,1.4,6.7s2.2,5,5,5,5-2.2,5-5S9.1,1.7,6.4,1.7ZM6.4,9.8c-1.7,0-3.1-1.4-3.1-3.1s1.4-3.1,3.1-3.1,3.1,1.4,3.1,3.1-1.4,3.1-3.1,3.1Z"/>
  <path class="st5" d="M84.3,1.7c-2.7,0-5,2.2-5,5s2.2,5,5,5,5-2.2,5-5-2.2-5-5-5ZM84.3,9.8c-1.7,0-3.1-1.4-3.1-3.1s1.4-3.1,3.1-3.1,3.1,1.4,3.1,3.1-1.4,3.1-3.1,3.1Z"/>
  <rect class="st0" x="1.4" y="102.6" width="87.9" height="6.8"/>
  <rect class="st0" x="16.4" y="107.6" width="60.7" height="5"/>
  <path class="st5" d="M6.7,112.8c-2.7,0-5,2.2-5,5s2.2,5,5,5,5-2.2,5-5-2.2-5-5-5ZM6.7,120.9c-1.7,0-3.1-1.4-3.1-3.1s1.4-3.1,3.1-3.1,3.1,1.4,3.1,3.1-1.4,3.1-3.1,3.1Z"/>
  <path class="st5" d="M84.6,112.8c-2.7,0-5,2.2-5,5s2.2,5,5,5,5-2.2,5-5-2.2-5-5-5ZM84.6,120.9c-1.7,0-3.1-1.4-3.1-3.1s1.4-3.1,3.1-3.1,3.1,1.4,3.1,3.1-1.4,3.1-3.1,3.1Z"/>
  <path class="st10" d="M17,1.3v4.5h4.5V1.3h-4.5ZM19.3,5c-.8,0-1.4-.6-1.4-1.4s.6-1.4,1.4-1.4,1.4.6,1.4,1.4-.6,1.4-1.4,1.4Z"/>
  <path class="st10" d="M26.5,1.3c-1.3,0-2.3,1-2.3,2.3s1,2.3,2.3,2.3,2.3-1,2.3-2.3-1-2.3-2.3-2.3ZM26.5,5c-.8,0-1.4-.6-1.4-1.4s.6-1.4,1.4-1.4,1.4.6,1.4,1.4-.6,1.4-1.4,1.4Z"/>
  <path class="st10" d="M33.7,1.3c-1.3,0-2.3,1-2.3,2.3s1,2.3,2.3,2.3,2.3-1,2.3-2.3-1-2.3-2.3-2.3ZM33.7,5c-.8,0-1.4-.6-1.4-1.4s.6-1.4,1.4-1.4,1.4.6,1.4,1.4-.6,1.4-1.4,1.4Z"/>
  <path class="st10" d="M40.9,1.3c-1.3,0-2.3,1-2.3,2.3s1,2.3,2.3,2.3,2.3-1,2.3-2.3-1-2.3-2.3-2.3ZM40.9,5c-.8,0-1.4-.6-1.4-1.4s.6-1.4,1.4-1.4,1.4.6,1.4,1.4-.6,1.4-1.4,1.4Z"/>
  <path class="st10" d="M48.1,1.3c-1.3,0-2.3,1-2.3,2.3s1,2.3,2.3,2.3,2.3-1,2.3-2.3-1-2.3-2.3-2.3ZM48.1,5c-.8,0-1.4-.6-1.4-1.4s.6-1.4,1.4-1.4,1.4.6,1.4,1.4-.6,1.4-1.4,1.4Z"/>
  <path class="st10" d="M55.3,1.3c-1.3,0-2.3,1-2.3,2.3s1,2.3,2.3,2.3,2.3-1,2.3-2.3-1-2.3-2.3-2.3ZM55.3,5c-.8,0-1.4-.6-1.4-1.4s.6-1.4,1.4-1.4,1.4.6,1.4,1.4-.6,1.4-1.4,1.4Z"/>
  <path class="st10" d="M62.5,1.3c-1.3,0-2.3,1-2.3,2.3s1,2.3,2.3,2.3,2.3-1,2.3-2.3-1-2.3-2.3-2.3ZM62.5,5c-.8,0-1.4-.6-1.4-1.4s.6-1.4,1.4-1.4,1.4.6,1.4,1.4-.6,1.4-1.4,1.4Z"/>
  <path class="st10" d="M69.7,1.3c-1.3,0-2.3,1-2.3,2.3s1,2.3,2.3,2.3,2.3-1,2.3-2.3-1-2.3-2.3-2.3ZM69.7,5c-.8,0-1.4-.6-1.4-1.4s.6-1.4,1.4-1.4,1.4.6,1.4,1.4-.6,1.4-1.4,1.4Z"/>
  <text/>
  <text class="st11" transform="translate(16.6 11.9)"><tspan x="0" y="0" xml:space="preserve">GND VCC  SC</tspan><tspan class="st3" x="18.6" y="0">L</tspan><tspan x="20.3" y="0" xml:space="preserve"> SD</tspan><tspan class="st4" x="25" y="0">A</tspan><tspan x="26.9" y="0" xml:space="preserve">   RST   DC    CS    B</tspan><tspan class="st6" x="53.7" y="0">L</tspan></text>
</svg>