<?xml version="1.0" encoding="UTF-8" standalone="no"?>
<!-- Created with Inkscape (http://www.inkscape.org/) -->

<svg
   width="18.049339mm"
   height="12.38556mm"
   viewBox="0 0 18.049339 12.385559"
   version="1.1"
   id="svg1"
   xml:space="preserve"
   sodipodi:docname="board.svg"
   inkscape:export-filename="board.svg"
   inkscape:export-xdpi="107.463"
   inkscape:export-ydpi="107.463"
   xmlns:inkscape="http://www.inkscape.org/namespaces/inkscape"
   xmlns:sodipodi="http://sodipodi.sourceforge.net/DTD/sodipodi-0.dtd"
   xmlns="http://www.w3.org/2000/svg"
   xmlns:svg="http://www.w3.org/2000/svg"><sodipodi:namedview
     id="namedview1"
     pagecolor="#ffffff"
     bordercolor="#666666"
     borderopacity="1.0"
     inkscape:showpageshadow="2"
     inkscape:pageopacity="0.0"
     inkscape:pagecheckerboard="0"
     inkscape:deskcolor="#d1d1d1"
     inkscape:document-units="mm" /><defs
     id="defs1" /><g
     id="layer1"
     transform="translate(-40.276641,-247.61032)"><path
       id="rect2"
       style="fill:#2a6399;fill-opacity:1;stroke:#8c8c8c;stroke-width:0.068;paint-order:stroke markers fill"
       d="m 40.410381,247.64432 c -0.0554,0 -0.09974,0.0443 -0.09974,0.0997 v 12.11761 c 0,0.0554 0.04434,0.10025 0.09974,0.10025 h 14.154692 c 0.0554,0 0.09974,-0.0448 0.09974,-0.10025 v -12.11761 c 0,-0.0554 -0.04434,-0.0997 -0.09974,-0.0997 z m 2.153874,0.71313 a 1.4157839,1.4157839 0 0 1 1.415417,1.41594 1.4157839,1.4157839 0 0 1 -1.415417,1.41541 1.4157839,1.4157839 0 0 1 -1.415935,-1.41541 1.4157839,1.4157839 0 0 1 1.415935,-1.41594 z m -0.15658,8.20622 a 1.4157839,1.4157839 0 0 1 1.415934,1.41593 1.4157839,1.4157839 0 0 1 -1.415934,1.41594 1.4157839,1.4157839 0 0 1 -1.415417,-1.41594 1.4157839,1.4157839 0 0 1 1.415417,-1.41593 z" /><rect
       style="fill:#060f17;fill-opacity:1;stroke:#8c8c8c;stroke-width:0.068;paint-order:stroke markers fill"
       id="rect4"
       width="2.1630032"
       height="11.955508"
       x="52.226688"
       y="247.88016"
       rx="0.1"
       ry="0.1" /><rect
       style="fill:#999999;fill-opacity:1;stroke:#8c8c8c;stroke-width:0.068;paint-order:stroke markers fill"
       id="rect3"
       width="5.2698627"
       height="0.58990991"
       x="53.017677"
       y="248.35208"
       rx="0.1"
       ry="0.1" /><rect
       style="fill:#999999;fill-opacity:1;stroke:#8c8c8c;stroke-width:0.068;paint-order:stroke markers fill"
       id="rect3-9"
       width="5.2698627"
       height="0.58990991"
       x="53.022118"
       y="250.89999"
       rx="0.1"
       ry="0.1" /><rect
       style="fill:#999999;fill-opacity:1;stroke:#8c8c8c;stroke-width:0.068;paint-order:stroke markers fill"
       id="rect3-9-7"
       width="5.2698627"
       height="0.58990991"
       x="53.017971"
       y="253.478"
       rx="0.1"
       ry="0.1" /><rect
       style="fill:#999999;fill-opacity:1;stroke:#8c8c8c;stroke-width:0.068;paint-order:stroke markers fill"
       id="rect3-9-7-6"
       width="5.2698627"
       height="0.58990991"
       x="53.010765"
       y="256.03589"
       rx="0.1"
       ry="0.1" /><rect
       style="fill:#999999;fill-opacity:1;stroke:#8c8c8c;stroke-width:0.068;paint-order:stroke markers fill"
       id="rect3-9-7-6-0"
       width="5.2698627"
       height="0.58990991"
       x="53.002277"
       y="258.50256"
       rx="0.1"
       ry="0.1" /><text
       xml:space="preserve"
       style="font-style:normal;font-weight:normal;font-size:1.01412px;line-height:1.25;font-family:sans-serif;fill:#ffffff;fill-opacity:1;stroke:none;stroke-width:0.264583"
       x="49.909622"
       y="249.00075"
       id="text4"><tspan
         id="tspan4"
         style="fill:#ffffff;stroke-width:0.264583"
         x="49.909622"
         y="249.00075">VCC</tspan></text><text
       xml:space="preserve"
       style="font-style:normal;font-weight:normal;font-size:1.06522px;line-height:1.25;font-family:sans-serif;fill:#ffffff;fill-opacity:1;stroke:none;stroke-width:0.264583"
       x="49.68705"
       y="251.47388"
       id="text4-5"><tspan
         id="tspan4-5"
         style="fill:#ffffff;stroke-width:0.264583"
         x="49.68705"
         y="251.47388">GND</tspan></text><text
       xml:space="preserve"
       style="font-style:normal;font-weight:normal;font-size:1.06498px;line-height:1.25;font-family:sans-serif;fill:#ffffff;fill-opacity:1;stroke:none;stroke-width:0.264583"
       x="49.972858"
       y="254.11209"
       id="text4-5-8"><tspan
         id="tspan4-5-7"
         style="fill:#ffffff;stroke-width:0.264583"
         x="49.972858"
         y="254.11209">SCL</tspan></text><text
       xml:space="preserve"
       style="font-style:normal;font-weight:normal;font-size:1.06498px;line-height:1.25;font-family:sans-serif;fill:#ffffff;fill-opacity:1;stroke:none;stroke-width:0.264583"
       x="49.799759"
       y="256.64893"
       id="text4-5-9"><tspan
         id="tspan4-5-1"
         style="fill:#ffffff;stroke-width:0.264583"
         x="49.799759"
         y="256.64893">SDA</tspan></text><text
       xml:space="preserve"
       style="font-style:normal;font-weight:normal;font-size:1.13937px;line-height:1.25;font-family:sans-serif;fill:#ffffff;fill-opacity:1;stroke:none;stroke-width:0.264583"
       x="50.072784"
       y="259.21371"
       id="text4-5-82"><tspan
         id="tspan4-5-9"
         style="fill:#ffffff;stroke-width:0.264583"
         x="50.072784"
         y="259.21371">3.3</tspan></text><text
       xml:space="preserve"
       style="font-style:normal;font-weight:normal;font-size:1.65219px;line-height:1.25;font-family:sans-serif;fill:#f2f2f2;fill-opacity:1;stroke:none;stroke-width:0.264583"
       x="41.037334"
       y="254.68008"
       id="text5"><tspan
         id="tspan5"
         style="fill:#f2f2f2;stroke-width:0.264583"
         x="41.037334"
         y="254.68008">BMP180</tspan></text><rect
       x="46.519051"
       y="255.76978"
       width="1.0885441"
       height="0.52186918"
       fill="#cbcbcb"
       id="rect42"
       style="stroke-width:0.0254" /><rect
       x="46.761875"
       y="255.78197"
       width="0.62735558"
       height="0.52186918"
       fill="#f9f9f9"
       id="rect43"
       style="fill:#b38d61;fill-opacity:1;stroke-width:0.0254" /><rect
       x="46.519051"
       y="256.60605"
       width="1.0885441"
       height="0.52186918"
       fill="#cbcbcb"
       id="rect42-56"
       style="stroke-width:0.0254" /><rect
       x="46.761875"
       y="256.61823"
       width="0.62735558"
       height="0.52186918"
       fill="#f9f9f9"
       id="rect43-5"
       style="fill:#b38d61;fill-opacity:1;stroke-width:0.0254" /><rect
       x="46.519051"
       y="257.41409"
       width="1.0885441"
       height="0.52186918"
       fill="#cbcbcb"
       id="rect42-8"
       style="stroke-width:0.0254" /><rect
       x="46.761875"
       y="257.4263"
       width="0.62735558"
       height="0.52186918"
       fill="#f9f9f9"
       id="rect43-55"
       style="fill:#333333;stroke-width:0.0254" /><rect
       x="46.519051"
       y="258.27817"
       width="1.0885441"
       height="0.52186918"
       fill="#cbcbcb"
       id="rect42-1"
       style="stroke-width:0.0254" /><rect
       x="46.77578"
       y="258.27646"
       width="0.62735558"
       height="0.52186918"
       fill="#f9f9f9"
       id="rect43-9"
       style="fill:#333333;stroke-width:0.0254" /></g></svg>
