<?xml version="1.0" encoding="UTF-8"?>
<!-- Created with Inkscape (http://www.inkscape.org/) -->
<svg width="100.21mm" height="106.46mm" version="1.1" viewBox="0 0 100.21 106.46" xml:space="preserve" xmlns="http://www.w3.org/2000/svg" xmlns:xlink="http://www.w3.org/1999/xlink"><defs><linearGradient id="linearGradient39" x1="233.43" x2="236.58" y1="158.81" y2="161.56" gradientUnits="userSpaceOnUse"><stop stop-color="#62686d" offset="0"/><stop stop-color="#62686d" stop-opacity="0" offset="1"/></linearGradient><linearGradient id="linearGradient48" x1="178.84" x2="177" y1="72.373" y2="70.673" gradientTransform="translate(-131.82 17.717)" gradientUnits="userSpaceOnUse"><stop stop-color="#42586e" offset="0"/><stop stop-color="#42586e" stop-opacity="0" offset="1"/></linearGradient><linearGradient id="linearGradient53" x1="178.18" x2="178.76" y1="71.498" y2="72.276" gradientTransform="translate(-131.82 17.717)" gradientUnits="userSpaceOnUse"><stop stop-color="#171e25" offset="0"/><stop stop-color="#171e25" stop-opacity="0" offset="1"/></linearGradient><pattern id="pattern5-7-52-3-0" patternTransform="rotate(180 95.355 -8.8878)" xlink:href="#pins-female-2-4-87-32"/><pattern id="pins-female-2-4-87-32" width="2.54" height="2.54" patternUnits="userSpaceOnUse"><rect width="2.54" height="2.54" fill="#333"/><rect x="1.079" y=".896" width=".762" height=".762" fill="#191919"/><path transform="translate(1.079 1.658) rotate(180)" d="m0 0v0.762l0.433 0.433c0.046-0.046 0.074-0.109 0.074-0.179v-1.27c0-0.07-0.028-0.133-0.074-0.179z" opacity=".25"/><path transform="translate(1.841 1.658) rotate(90)" d="m0 0v0.762l0.433 0.433c0.046-0.046 0.074-0.109 0.074-0.179v-1.27c0-0.07-0.028-0.133-0.074-0.179z" fill="#fff" opacity=".3"/><path transform="translate(1.841 .896)" d="m0 0v0.762l0.433 0.433c0.046-0.046 0.074-0.109 0.074-0.179v-1.27c0-0.07-0.028-0.133-0.074-0.179z" fill="#fff" opacity=".15"/><path transform="translate(1.079 .896) rotate(-90)" d="m0 0v0.762l0.433 0.433c0.046-0.046 0.074-0.109 0.074-0.179v-1.27c0-0.07-0.028-0.133-0.074-0.179z" opacity=".35"/></pattern><pattern id="pattern5-7-52-3-0-8-9" patternTransform="rotate(180 95.85 -8.8878)" xlink:href="#pins-female-2-4-87-32-4-7"/><pattern id="pins-female-2-4-87-32-4-7" width="2.54" height="2.54" patternUnits="userSpaceOnUse"><rect width="2.54" height="2.54" fill="#333"/><rect x="1.079" y=".896" width=".762" height=".762" fill="#191919"/><path transform="translate(1.079 1.658) rotate(180)" d="m0 0v0.762l0.433 0.433c0.046-0.046 0.074-0.109 0.074-0.179v-1.27c0-0.07-0.028-0.133-0.074-0.179z" opacity=".25"/><path transform="translate(1.841 1.658) rotate(90)" d="m0 0v0.762l0.433 0.433c0.046-0.046 0.074-0.109 0.074-0.179v-1.27c0-0.07-0.028-0.133-0.074-0.179z" fill="#fff" opacity=".3"/><path transform="translate(1.841 .896)" d="m0 0v0.762l0.433 0.433c0.046-0.046 0.074-0.109 0.074-0.179v-1.27c0-0.07-0.028-0.133-0.074-0.179z" fill="#fff" opacity=".15"/><path transform="translate(1.079 .896) rotate(-90)" d="m0 0v0.762l0.433 0.433c0.046-0.046 0.074-0.109 0.074-0.179v-1.27c0-0.07-0.028-0.133-0.074-0.179z" opacity=".35"/></pattern><pattern id="pattern5-7-52-3-0-8-9-6" patternTransform="rotate(180 95.85 -8.8878)" xlink:href="#pins-female-2-4-87-32-4-7-3"/><pattern id="pins-female-2-4-87-32-4-7-3" width="2.54" height="2.54" patternUnits="userSpaceOnUse"><rect width="2.54" height="2.54" fill="#333"/><rect x="1.079" y=".896" width=".762" height=".762" fill="#191919"/><path transform="translate(1.079 1.658) rotate(180)" d="m0 0v0.762l0.433 0.433c0.046-0.046 0.074-0.109 0.074-0.179v-1.27c0-0.07-0.028-0.133-0.074-0.179z" opacity=".25"/><path transform="translate(1.841 1.658) rotate(90)" d="m0 0v0.762l0.433 0.433c0.046-0.046 0.074-0.109 0.074-0.179v-1.27c0-0.07-0.028-0.133-0.074-0.179z" fill="#fff" opacity=".3"/><path transform="translate(1.841 .896)" d="m0 0v0.762l0.433 0.433c0.046-0.046 0.074-0.109 0.074-0.179v-1.27c0-0.07-0.028-0.133-0.074-0.179z" fill="#fff" opacity=".15"/><path transform="translate(1.079 .896) rotate(-90)" d="m0 0v0.762l0.433 0.433c0.046-0.046 0.074-0.109 0.074-0.179v-1.27c0-0.07-0.028-0.133-0.074-0.179z" opacity=".35"/></pattern><pattern id="pattern5-7-52-3-0-8-9-6-0" patternTransform="rotate(180 95.85 -8.8878)" xlink:href="#pins-female-2-4-87-32-4-7-3-3"/><pattern id="pins-female-2-4-87-32-4-7-3-3" width="2.54" height="2.54" patternUnits="userSpaceOnUse"><rect width="2.54" height="2.54" fill="#333"/><rect x="1.079" y=".896" width=".762" height=".762" fill="#191919"/><path transform="translate(1.079 1.658) rotate(180)" d="m0 0v0.762l0.433 0.433c0.046-0.046 0.074-0.109 0.074-0.179v-1.27c0-0.07-0.028-0.133-0.074-0.179z" opacity=".25"/><path transform="translate(1.841 1.658) rotate(90)" d="m0 0v0.762l0.433 0.433c0.046-0.046 0.074-0.109 0.074-0.179v-1.27c0-0.07-0.028-0.133-0.074-0.179z" fill="#fff" opacity=".3"/><path transform="translate(1.841 .896)" d="m0 0v0.762l0.433 0.433c0.046-0.046 0.074-0.109 0.074-0.179v-1.27c0-0.07-0.028-0.133-0.074-0.179z" fill="#fff" opacity=".15"/><path transform="translate(1.079 .896) rotate(-90)" d="m0 0v0.762l0.433 0.433c0.046-0.046 0.074-0.109 0.074-0.179v-1.27c0-0.07-0.028-0.133-0.074-0.179z" opacity=".35"/></pattern></defs><g transform="translate(-131.82 17.717)"><rect transform="matrix(0,1,1,0,0,0)" x="-4.3926" y="223.12" width="79.759" height="8.9081" rx=".9" ry=".8" fill="#56595d"/><rect transform="scale(-1,1)" x="-197.26" y="79.833" width="37.242" height="8.9081" rx=".42024" ry=".8" fill="#56595d"/><rect x="164.19" y="81.8" width="11.33" height="6.5521" fill="#0072a7" style="paint-order:stroke markers fill"/><rect x="164.23" y="86.617" width="2.8" height="1.6707" fill="#f2f2f2" style="paint-order:stroke markers fill"/><rect x="167.04" y="86.624" width="2.8" height="1.6707" fill="#ccb300" style="paint-order:stroke markers fill"/><rect x="169.87" y="86.642" width="2.8" height="1.6707" fill="#a7001e" style="paint-order:stroke markers fill"/><rect x="172.68" y="86.641" width="2.8" height="1.6707" fill="#0d0009" style="paint-order:stroke markers fill"/><g fill="#303030"><path d="m151.77-17.717a4.9547 4.9455 0 0 0-4.9547 4.9454 4.9547 4.9455 0 0 0 4.9547 4.946 4.9547 4.9455 0 0 0 4.9547-4.946 4.9547 4.9455 0 0 0-4.9547-4.9454zm0.0258 2.174a2.8182 2.9356 0 0 1 2.8184 2.9357 2.8182 2.9356 0 0 1-2.8184 2.9352 2.8182 2.9356 0 0 1-2.8184-2.9352 2.8182 2.9356 0 0 1 2.8184-2.9357z" style="paint-order:stroke markers fill"/><path d="m206.08-17.687a4.9547 4.9455 0 0 0-4.9547 4.9454 4.9547 4.9455 0 0 0 4.9547 4.946 4.9547 4.9455 0 0 0 4.9547-4.946 4.9547 4.9455 0 0 0-4.9547-4.9454zm0.0258 2.174a2.8182 2.9356 0 0 1 2.8184 2.9357 2.8182 2.9356 0 0 1-2.8184 2.9352 2.8182 2.9356 0 0 1-2.8184-2.9352 2.8182 2.9356 0 0 1 2.8184-2.9357z" style="paint-order:stroke markers fill"/><path d="m206.04 78.751a4.9547 4.9455 0 0 0-4.9547 4.9454 4.9547 4.9455 0 0 0 4.9547 4.946 4.9547 4.9455 0 0 0 4.9547-4.946 4.9547 4.9455 0 0 0-4.9547-4.9454zm0.0258 2.174a2.8182 2.9356 0 0 1 2.8184 2.9357 2.8182 2.9356 0 0 1-2.8184 2.9352 2.8182 2.9356 0 0 1-2.8184-2.9352 2.8182 2.9356 0 0 1 2.8184-2.9357z" style="paint-order:stroke markers fill"/></g><g><rect x="172.21" y="-12.877" width="12.924" height="1.9339" style="paint-order:stroke markers fill"/><rect transform="rotate(228.27)" x="-117.48" y="143.92" width="3.8678" height="2.7829" style="paint-order:stroke markers fill"/><rect transform="rotate(-49.184)" x="118.45" y="121.92" width="3.8678" height="2.7829" style="paint-order:stroke markers fill"/></g><path d="m151.78 78.799a4.9547 4.9455 0 0 0-4.9547 4.9454 4.9547 4.9455 0 0 0 4.9547 4.946 4.9547 4.9455 0 0 0 4.9547-4.946 4.9547 4.9455 0 0 0-4.9547-4.9454zm0.0258 2.174a2.8182 2.9356 0 0 1 2.8184 2.9357 2.8182 2.9356 0 0 1-2.8184 2.9352 2.8182 2.9356 0 0 1-2.8184-2.9352 2.8182 2.9356 0 0 1 2.8184-2.9357z" fill="#303030" style="paint-order:stroke markers fill"/><rect x="180.86" y="81.766" width="11.33" height="6.5912" fill="#1a1a1a" style="paint-order:stroke markers fill"/></g><g transform="translate(-188.55 -70.79)"><g transform="matrix(.9613 0 0 1.0159 134.02 -11.415)" fill="#1a1a1a" stroke="#78889e"><rect x="57.461" y="89.242" width="95.078" height="88.513" rx="8.6325" ry="8.691" fill="#1a1a1a" stroke="#78889e" stroke-width="1.47"/></g><rect x="199.83" y="98.355" width="70.275" height="53.254" fill="#ececec" stroke-width=".28206"/><ellipse cx="234.96" cy="160.04" rx="2.8754" ry="2.9201" fill="none" opacity=".71" stroke="#f00" stroke-width=".54573"/><g transform="translate(-.13921 -18.062)"><g transform="rotate(180 236.57 33.18)"><path d="m190.71-86.528-5.4604 0.06259v38.535h5.4604z" fill="url(#pattern5-7-52-3-0)"/></g><g transform="rotate(-90 328.84 48.808)"><g transform="translate(-.03409 -.017045)"><path d="m189.1-58.597-2.78 0.05155v10.661h2.78z" fill="url(#pattern5-7-52-3-0-8-9)"/></g></g><g transform="rotate(-90 337.16 40.478)"><g transform="translate(-.03409 -.017045)"><path d="m189.1-58.597-2.78 0.05155v10.661h2.78z" fill="url(#pattern5-7-52-3-0-8-9-6)"/></g></g><g><rect x="237.76" y="193.21" width="2.8" height="1.6707" fill="#f2f2f2" style="paint-order:stroke markers fill"/><rect x="240.57" y="193.22" width="2.8" height="1.6707" fill="#ccb300" style="paint-order:stroke markers fill"/><rect x="243.39" y="193.24" width="2.8" height="1.6707" fill="#a7001e" style="paint-order:stroke markers fill"/><rect x="246.21" y="193.24" width="2.8" height="1.6707" fill="#0d0009" style="paint-order:stroke markers fill"/><g font-family="sans-serif" font-size="1.542px" stroke-width=".038549"><text x="240.24931" y="192.84381" fill="#f8f8f8" style="line-height:1.25" xml:space="preserve"><tspan x="240.24931" y="192.84381" fill="#f8f8f8" stroke-width=".038549">PORT. B</tspan></text><text x="238.63664" y="194.63904" fill="#1a1a1a" style="line-height:1.25" xml:space="preserve"><tspan x="238.63664" y="194.63904" fill="#1a1a1a" stroke-width=".038549">I</tspan></text><text x="241.40013" y="194.6041" fill="#333333" style="line-height:1.25" xml:space="preserve"><tspan x="241.40013" y="194.6041" fill="#333333" stroke-width=".038549">O</tspan></text></g></g><g transform="translate(22.614 18.771)"><text x="221.72713" y="175.81163" fill="#f2f2f2" font-family="sans-serif" font-size="1.542px" stroke-width=".038549" style="line-height:1.25" xml:space="preserve"><tspan x="221.72713" y="175.81163" fill="#f2f2f2" stroke-width=".038549">V</tspan></text></g><text x="247.12988" y="194.5925" fill="#f2f2f2" font-family="sans-serif" font-size="1.542px" stroke-width=".038549" style="line-height:1.25" xml:space="preserve"><tspan x="247.12988" y="194.5925" fill="#f2f2f2" stroke-width=".038549">G</tspan></text><rect transform="rotate(-90)" x="-178.35" y="284.34" width="11.33" height="3.6268" fill="#800000" style="paint-order:stroke markers fill"/><g transform="rotate(180 236.93 59.697)"><g transform="translate(-.03409 -.017045)"><path d="m189.1-58.597-2.78 0.05155v10.661h2.78z" fill="url(#pattern5-7-52-3-0-8-9-6-0)"/></g></g><g fill="#1a1a1a"><text transform="rotate(-90)" x="-177.59145" y="283.78702" font-family="sans-serif" font-size="1.7696px" stroke-width=".04424" style="line-height:1.25" xml:space="preserve"><tspan x="-177.59145" y="283.78702" fill="#1a1a1a" stroke-width=".04424">C</tspan></text><text transform="rotate(-90)" x="-174.87953" y="283.75507" font-family="sans-serif" font-size="1.8252px" stroke-width=".04563" style="line-height:1.25" xml:space="preserve"><tspan x="-174.87953" y="283.75507" fill="#1a1a1a" stroke-width=".04563">D</tspan></text><g transform="matrix(0 -1.4012 1.4012 0 37.469 482.99)"><text x="221.72713" y="175.81163" fill="#1a1a1a" font-family="sans-serif" font-size="1.542px" stroke-width=".038549" style="line-height:1.25" xml:space="preserve"><tspan x="221.72713" y="175.81163" fill="#1a1a1a" stroke-width=".038549">+</tspan></text></g><text transform="matrix(0 -1.1744 .85153 0 0 0)" x="-144.02989" y="333.6236" font-family="sans-serif" font-size="3.5253px" stroke-width=".088133" style="line-height:1.25" xml:space="preserve"><tspan x="-144.02989" y="333.6236" fill="#1a1a1a" stroke-width=".088133">-</tspan></text></g></g><g><text x="226.37508" y="93.276787" fill="#f9f9f9" font-family="sans-serif" font-size="3.9555px" stroke-width=".098887" style="line-height:1.25" xml:space="preserve"><tspan x="226.37508" y="93.276787" fill="#f9f9f9" font-weight="bold" stroke-width=".098887">CORE S3</tspan></text><circle cx="234.97" cy="159.99" r="2" fill="url(#linearGradient39)" style="paint-order:stroke markers fill"/><g font-family="sans-serif" font-size="1.542px" stroke-width=".038549"><text x="223.446" y="174.77608" fill="#f8f8f8" style="line-height:1.25" xml:space="preserve"><tspan x="223.446" y="174.77608" fill="#f8f8f8" stroke-width=".038549">PORT. C</tspan></text><text x="221.83333" y="176.55115" fill="#1a1a1a" style="line-height:1.25" xml:space="preserve"><tspan x="221.83333" y="176.55115" fill="#1a1a1a" stroke-width=".038549">R</tspan></text><text x="224.59682" y="176.5162" fill="#1a1a1a" style="line-height:1.25" xml:space="preserve"><tspan x="224.59682" y="176.5162" fill="#1a1a1a" stroke-width=".038549">T</tspan></text></g></g><g transform="translate(5.811 .68332)"><text x="221.72713" y="175.81163" fill="#f2f2f2" font-family="sans-serif" font-size="1.542px" stroke-width=".038549" style="line-height:1.25" xml:space="preserve"><tspan x="221.72713" y="175.81163" fill="#f2f2f2" stroke-width=".038549">V</tspan></text></g><g transform="translate(8.5994 .69297)"><text x="221.72713" y="175.81163" fill="#f2f2f2" font-family="sans-serif" font-size="1.542px" stroke-width=".038549" style="line-height:1.25" xml:space="preserve"><tspan x="221.72713" y="175.81163" fill="#f2f2f2" stroke-width=".038549">G</tspan></text></g></g><g><ellipse cx="46.433" cy="89.202" rx="1.5" ry="1.5016" fill="#3d4043" style="paint-order:stroke markers fill"/><circle cx="46.403" cy="89.201" r="1" fill="url(#linearGradient48)" style="paint-order:stroke markers fill"/><circle cx="46.416" cy="89.18" r=".47651" fill="url(#linearGradient53)" style="paint-order:stroke markers fill"/><ellipse cx="57.73" cy="89.361" rx=".59801" ry=".58564" fill="#4d4d4d" style="paint-order:stroke markers fill"/><ellipse cx="61.756" cy="89.377" rx=".59801" ry=".58564" fill="#4d4d4d" style="paint-order:stroke markers fill"/><ellipse cx="70.235" cy="88.207" rx=".95691" ry=".96929" fill="#1a1a1a" style="paint-order:stroke markers fill"/></g></svg>
