<?xml version="1.0" encoding="UTF-8" standalone="no"?><!DOCTYPE svg PUBLIC "-//W3C//DTD SVG 1.1//EN" "http://www.w3.org/Graphics/SVG/1.1/DTD/svg11.dtd"><svg width="100%" height="100%" viewBox="0 0 68 97" version="1.1" xmlns="http://www.w3.org/2000/svg" xmlns:xlink="http://www.w3.org/1999/xlink" xml:space="preserve" xmlns:serif="http://www.serif.com/" style="fill-rule:evenodd;clip-rule:evenodd;stroke-linecap:round;stroke-linejoin:round;stroke-miterlimit:10;"><path d="M-0,21.696l0,-4.571c1.283,0 2.325,-1.045 2.325,-2.332c0,-1.288 -1.042,-2.333 -2.325,-2.333l0,-2.573l67.2,-0l0,2.609c-1.259,0.028 -2.273,1.062 -2.273,2.332c0,1.27 1.014,2.304 2.273,2.332l0,4.568c-0.032,-0.001 -0.065,-0.002 -0.097,-0.002c-1.284,0 -2.326,1.045 -2.326,2.333c0,1.287 1.042,2.333 2.326,2.333c0.032,-0 0.065,-0.001 0.097,-0.002l0,4.966c-0.032,-0.002 -0.065,-0.002 -0.097,-0.002c-1.284,-0 -2.326,1.045 -2.326,2.332c0,1.288 1.042,2.333 2.326,2.333c0.032,0 0.065,-0.001 0.097,-0.002l0,5.009c-1.259,0.028 -2.273,1.062 -2.273,2.332c0,1.27 1.014,2.304 2.273,2.332l0,4.859c-1.259,0.028 -2.273,1.062 -2.273,2.332c0,1.27 1.014,2.304 2.273,2.332l0,4.99c-1.259,0.028 -2.273,1.062 -2.273,2.332c0,1.27 1.014,2.304 2.273,2.332l0,4.888c-1.259,0.028 -2.273,1.062 -2.273,2.332c0,1.27 1.014,2.304 2.273,2.332l0,4.97c-0.032,-0.001 -0.065,-0.002 -0.097,-0.002c-1.284,0 -2.326,1.046 -2.326,2.333c0,1.288 1.042,2.333 2.326,2.333c0.032,-0 0.065,-0.001 0.097,-0.002l0,4.963c-0.032,-0.001 -0.065,-0.002 -0.097,-0.002c-1.284,0 -2.326,1.046 -2.326,2.333c0,1.288 1.042,2.333 2.326,2.333c0.032,-0 0.065,-0.001 0.097,-0.002l0,2.611l-67.2,-0l0,-2.559c1.283,0 2.325,-1.083 2.325,-2.418c0,-1.335 -1.042,-2.419 -2.325,-2.419l-0,-4.878c1.214,-0.078 2.175,-1.091 2.175,-2.328c0,-1.237 -0.961,-2.251 -2.175,-2.328l0,-4.973c1.283,0 2.325,-1.045 2.325,-2.333c0,-1.287 -1.042,-2.332 -2.325,-2.332l0,-4.887c1.283,0 2.325,-1.045 2.325,-2.332c0,-1.288 -1.042,-2.333 -2.325,-2.333l0,-4.989c1.283,0 2.325,-1.045 2.325,-2.332c0,-1.288 -1.042,-2.333 -2.325,-2.333l0,-4.858c1.283,0 2.325,-1.045 2.325,-2.332c0,-1.288 -1.042,-2.333 -2.325,-2.333l-0,-5.011c1.214,-0.078 2.175,-1.091 2.175,-2.328c0,-1.237 -0.961,-2.25 -2.175,-2.328l-0,-4.971c1.214,-0.078 2.175,-1.091 2.175,-2.328c0,-1.237 -0.961,-2.251 -2.175,-2.328Zm4.951,-9.236c-1.284,-0 -2.326,1.045 -2.326,2.333c0,1.287 1.042,2.332 2.326,2.332c1.283,0 2.325,-1.045 2.325,-2.332c0,-1.288 -1.042,-2.333 -2.325,-2.333Zm-0.15,18.858c-1.284,0 -2.326,1.046 -2.326,2.333c0,1.287 1.042,2.333 2.326,2.333c1.283,-0 2.325,-1.046 2.325,-2.333c0,-1.287 -1.042,-2.333 -2.325,-2.333Zm-0,-9.627c-1.284,-0 -2.326,1.045 -2.326,2.333c0,1.287 1.042,2.332 2.326,2.332c1.283,0 2.325,-1.045 2.325,-2.332c0,-1.288 -1.042,-2.333 -2.325,-2.333Zm9.588,57.734c-1.283,0 -2.325,1.046 -2.325,2.333c-0,1.288 1.042,2.333 2.325,2.333c1.284,-0 2.326,-1.045 2.326,-2.333c-0,-1.287 -1.042,-2.333 -2.326,-2.333Zm-9.438,-38.435c-1.284,-0 -2.326,1.045 -2.326,2.333c0,1.287 1.042,2.332 2.326,2.332c1.283,0 2.325,-1.045 2.325,-2.332c0,-1.288 -1.042,-2.333 -2.325,-2.333Zm28.599,28.83c-1.283,0 -2.325,1.045 -2.325,2.333c-0,1.287 1.042,2.333 2.325,2.333c1.284,-0 2.326,-1.046 2.326,-2.333c-0,-1.288 -1.042,-2.333 -2.326,-2.333Zm-19.161,19.2c-1.283,0 -2.325,1.045 -2.325,2.333c-0,1.287 1.042,2.333 2.325,2.333c1.284,-0 2.326,-1.046 2.326,-2.333c-0,-1.288 -1.042,-2.333 -2.326,-2.333Zm28.733,-19.2c-1.284,0 -2.326,1.045 -2.326,2.333c0,1.287 1.042,2.333 2.326,2.333c1.283,-0 2.325,-1.046 2.325,-2.333c0,-1.288 -1.042,-2.333 -2.325,-2.333Zm-38.171,-19.307c-1.284,-0 -2.326,1.045 -2.326,2.333c0,1.287 1.042,2.332 2.326,2.332c1.283,0 2.325,-1.045 2.325,-2.332c0,-1.288 -1.042,-2.333 -2.325,-2.333Zm-0,9.654c-1.284,-0 -2.326,1.045 -2.326,2.333c0,1.287 1.042,2.332 2.326,2.332c1.283,0 2.325,-1.045 2.325,-2.332c0,-1.288 -1.042,-2.333 -2.325,-2.333Zm-0,9.552c-1.284,-0 -2.326,1.045 -2.326,2.332c0,1.288 1.042,2.333 2.326,2.333c1.283,0 2.325,-1.045 2.325,-2.333c0,-1.287 -1.042,-2.332 -2.325,-2.332Zm-0.15,9.633c-1.284,0 -2.326,1.045 -2.326,2.333c0,1.287 1.042,2.333 2.326,2.333c1.283,-0 2.325,-1.046 2.325,-2.333c0,-1.288 -1.042,-2.333 -2.325,-2.333Zm-0,9.625c-1.284,-0 -2.326,1.045 -2.326,2.333c0,1.287 1.042,2.332 2.326,2.332c1.283,0 2.325,-1.045 2.325,-2.332c0,-1.288 -1.042,-2.333 -2.325,-2.333Zm57.501,-76.482c-1.283,0 -2.325,1.046 -2.325,2.333c-0,1.287 1.042,2.333 2.325,2.333c1.283,-0 2.325,-1.046 2.325,-2.333c0,-1.287 -1.042,-2.333 -2.325,-2.333Zm-0.15,9.231c-1.283,0 -2.325,1.045 -2.325,2.333c-0,1.287 1.042,2.333 2.325,2.333c1.284,-0 2.325,-1.046 2.325,-2.333c0,-1.288 -1.041,-2.333 -2.325,-2.333Zm0,9.628c-1.283,-0 -2.325,1.045 -2.325,2.332c-0,1.288 1.042,2.333 2.325,2.333c1.284,0 2.325,-1.045 2.325,-2.333c0,-1.287 -1.041,-2.332 -2.325,-2.332Zm0.15,9.671c-1.283,0 -2.325,1.046 -2.325,2.333c-0,1.288 1.042,2.333 2.325,2.333c1.283,-0 2.325,-1.045 2.325,-2.333c0,-1.287 -1.042,-2.333 -2.325,-2.333Zm-0,9.523c-1.283,0 -2.325,1.046 -2.325,2.333c-0,1.288 1.042,2.333 2.325,2.333c1.283,-0 2.325,-1.045 2.325,-2.333c0,-1.287 -1.042,-2.333 -2.325,-2.333Zm-0,9.654c-1.283,0 -2.325,1.046 -2.325,2.333c-0,1.288 1.042,2.333 2.325,2.333c1.283,-0 2.325,-1.045 2.325,-2.333c0,-1.287 -1.042,-2.333 -2.325,-2.333Zm-0,9.552c-1.283,0 -2.325,1.045 -2.325,2.333c-0,1.287 1.042,2.333 2.325,2.333c1.283,-0 2.325,-1.046 2.325,-2.333c0,-1.288 -1.042,-2.333 -2.325,-2.333Zm-0.15,9.633c-1.283,0 -2.325,1.046 -2.325,2.333c-0,1.288 1.042,2.333 2.325,2.333c1.284,-0 2.325,-1.045 2.325,-2.333c0,-1.287 -1.041,-2.333 -2.325,-2.333Zm-0.091,9.544c-1.283,-0 -2.325,1.045 -2.325,2.333c-0,1.287 1.042,2.332 2.325,2.332c1.283,0 2.325,-1.045 2.325,-2.332c0,-1.288 -1.042,-2.333 -2.325,-2.333Z" style="fill:#005493;"/><g id="Connectors"><g id="Connector-Center" serif:id="Connector Center"><path id="Circle" d="M16.96,81.753c-0,-1.414 -1.143,-2.56 -2.552,-2.56c-1.41,-0 -2.553,1.146 -2.553,2.56c0,1.414 1.143,2.56 2.553,2.56c1.409,-0 2.552,-1.146 2.552,-2.56Z" style="fill:none;stroke:#ffdfa4;stroke-width:0.96px;"/><path id="Circle-copy-2" serif:id="Circle copy 2" d="M36.103,72.153c-0,-1.414 -1.143,-2.56 -2.553,-2.56c-1.409,-0 -2.552,1.146 -2.552,2.56c-0,1.414 1.143,2.56 2.552,2.56c1.41,-0 2.553,-1.146 2.553,-2.56Z" style="fill:none;stroke:#ffdfa4;stroke-width:0.96px;"/><path id="Circle-copy-3" serif:id="Circle copy 3" d="M45.674,72.153c0,-1.414 -1.143,-2.56 -2.552,-2.56c-1.41,-0 -2.553,1.146 -2.553,2.56c0,1.414 1.143,2.56 2.553,2.56c1.409,-0 2.552,-1.146 2.552,-2.56Z" style="fill:none;stroke:#ffdfa4;stroke-width:0.96px;"/><path id="Circle-copy" serif:id="Circle copy" d="M16.96,91.353c-0,-1.414 -1.143,-2.56 -2.552,-2.56c-1.41,-0 -2.553,1.146 -2.553,2.56c0,1.414 1.143,2.56 2.553,2.56c1.409,-0 2.552,-1.146 2.552,-2.56Z" style="fill:none;stroke:#ffdfa4;stroke-width:0.96px;"/></g><g id="Connector-Left" serif:id="Connector Left"><path id="Path-copy-13" serif:id="Path copy 13" d="M7.994,33.732c0,1.698 -1.355,3.078 -3.039,3.114l-4.937,0l0,-1.042c1.093,-0.091 1.952,-1.01 1.952,-2.13c0,-1.12 -0.859,-2.038 -1.952,-2.129l0,-0.938l4.937,-0c1.684,0.037 3.039,1.426 3.039,3.125Zm-0.956,-0.034c0,-1.181 -0.952,-2.136 -2.13,-2.136c-1.177,0 -2.129,0.955 -2.129,2.136c-0,1.181 0.952,2.136 2.129,2.136c1.178,0 2.13,-0.955 2.13,-2.136Z" style="fill:url(#_Linear1);"/><path id="Path-copy-7" serif:id="Path copy 7" d="M7.976,72.132c0,1.698 -1.355,3.078 -3.039,3.114l-4.937,0l-0,-1.042c1.093,-0.091 1.952,-1.01 1.952,-2.13c-0,-1.12 -0.859,-2.038 -1.952,-2.129l-0,-0.938l4.937,-0c1.684,0.037 3.039,1.426 3.039,3.125Zm-0.956,-0.034c0,-1.181 -0.952,-2.136 -2.13,-2.136c-1.177,0 -2.129,0.955 -2.129,2.136c-0,1.181 0.952,2.136 2.129,2.136c1.178,0 2.13,-0.955 2.13,-2.136Z" style="fill:url(#_Linear2);"/><path id="Path-copy-9" serif:id="Path copy 9" d="M7.976,62.532c0,1.698 -1.355,3.078 -3.039,3.114l-4.937,0l-0,-1.042c1.093,-0.091 1.952,-1.01 1.952,-2.13c-0,-1.12 -0.859,-2.038 -1.952,-2.129l-0,-0.938l4.937,-0c1.684,0.037 3.039,1.426 3.039,3.125Zm-0.956,-0.034c0,-1.181 -0.952,-2.136 -2.13,-2.136c-1.177,0 -2.129,0.955 -2.129,2.136c-0,1.181 0.952,2.136 2.129,2.136c1.178,0 2.13,-0.955 2.13,-2.136Z" style="fill:url(#_Linear3);"/><path id="Path-copy-10" serif:id="Path copy 10" d="M7.976,52.932c0,1.698 -1.355,3.078 -3.039,3.114l-4.937,0l-0,-1.042c1.093,-0.091 1.952,-1.01 1.952,-2.13c-0,-1.12 -0.859,-2.038 -1.952,-2.129l-0,-0.938l4.937,-0c1.684,0.037 3.039,1.426 3.039,3.125Zm-0.956,-0.034c0,-1.181 -0.952,-2.136 -2.13,-2.136c-1.177,0 -2.129,0.955 -2.129,2.136c-0,1.181 0.952,2.136 2.129,2.136c1.178,0 2.13,-0.955 2.13,-2.136Z" style="fill:url(#_Linear4);"/><path id="Path-copy-11" serif:id="Path copy 11" d="M7.976,43.332c0,1.698 -1.355,3.078 -3.039,3.114l-4.937,0l-0,-1.042c1.093,-0.091 1.952,-1.01 1.952,-2.13c-0,-1.12 -0.859,-2.038 -1.952,-2.129l-0,-0.938l4.937,-0c1.684,0.037 3.039,1.426 3.039,3.125Zm-0.956,-0.034c0,-1.181 -0.952,-2.136 -2.13,-2.136c-1.177,0 -2.129,0.955 -2.129,2.136c-0,1.181 0.952,2.136 2.129,2.136c1.178,0 2.13,-0.955 2.13,-2.136Z" style="fill:url(#_Linear5);"/><path id="Path-copy-12" serif:id="Path copy 12" d="M7.994,24.132c0,1.698 -1.355,3.078 -3.039,3.114l-4.937,0l0,-1.042c1.093,-0.091 1.952,-1.01 1.952,-2.13c0,-1.12 -0.859,-2.038 -1.952,-2.129l0,-0.938l4.937,-0c1.684,0.037 3.039,1.426 3.039,3.125Zm-0.956,-0.034c0,-1.181 -0.952,-2.136 -2.13,-2.136c-1.177,0 -2.129,0.955 -2.129,2.136c-0,1.181 0.952,2.136 2.129,2.136c1.178,0 2.13,-0.955 2.13,-2.136Z" style="fill:url(#_Linear6);"/><path id="Path-copy-14" serif:id="Path copy 14" d="M7.994,14.852c0,1.698 -1.355,3.078 -3.039,3.114l-4.937,0l0,-1.042c1.093,-0.091 1.952,-1.01 1.952,-2.13c0,-1.12 -0.859,-2.038 -1.952,-2.129l0,-0.938l4.937,-0c1.684,0.037 3.039,1.426 3.039,3.125Zm-0.956,-0.034c0,-1.181 -0.952,-2.136 -2.13,-2.136c-1.177,0 -2.129,0.955 -2.129,2.136c-0,1.181 0.952,2.136 2.129,2.136c1.178,0 2.13,-0.955 2.13,-2.136Z" style="fill:url(#_Linear7);"/><path id="Path-copy-8" serif:id="Path copy 8" d="M7.976,81.732c0,1.698 -1.355,3.078 -3.039,3.114l-4.937,0l-0,-1.042c1.093,-0.091 1.952,-1.01 1.952,-2.13c-0,-1.12 -0.859,-2.038 -1.952,-2.129l-0,-0.938l4.937,-0c1.684,0.037 3.039,1.426 3.039,3.125Zm-0.956,-0.034c0,-1.181 -0.952,-2.136 -2.13,-2.136c-1.177,0 -2.129,0.955 -2.129,2.136c-0,1.181 0.952,2.136 2.129,2.136c1.178,0 2.13,-0.955 2.13,-2.136Z" style="fill:url(#_Linear8);"/><path id="Path-copy-15" serif:id="Path copy 15" d="M7.976,91.332c0,1.698 -1.355,3.078 -3.039,3.114l-4.937,0l-0,-1.042c1.093,-0.091 1.952,-1.01 1.952,-2.13c-0,-1.12 -0.859,-2.038 -1.952,-2.129l-0,-0.938l4.937,-0c1.684,0.037 3.039,1.426 3.039,3.125Zm-0.956,-0.034c0,-1.181 -0.952,-2.136 -2.13,-2.136c-1.177,0 -2.129,0.955 -2.129,2.136c-0,1.181 0.952,2.136 2.129,2.136c1.178,0 2.13,-0.955 2.13,-2.136Z" style="fill:url(#_Linear9);"/></g><g id="Connector-Right" serif:id="Connector Right"><path id="Path-copy-131" serif:id="Path copy 13" d="M59.206,33.732c-0,1.698 1.355,3.078 3.039,3.114l4.937,0l-0,-1.042c-1.093,-0.091 -1.952,-1.01 -1.952,-2.13c-0,-1.12 0.859,-2.038 1.952,-2.129l-0,-0.938l-4.937,-0c-1.684,0.037 -3.039,1.426 -3.039,3.125Zm0.956,-0.034c-0,-1.181 0.952,-2.136 2.13,-2.136c1.177,0 2.129,0.955 2.129,2.136c0,1.181 -0.952,2.136 -2.129,2.136c-1.178,0 -2.13,-0.955 -2.13,-2.136Z" style="fill:url(#_Linear10);"/><path id="Path-copy-71" serif:id="Path copy 7" d="M59.224,72.132c-0,1.698 1.355,3.078 3.039,3.114l4.937,0l0,-1.042c-1.093,-0.091 -1.952,-1.01 -1.952,-2.13c0,-1.12 0.859,-2.038 1.952,-2.129l0,-0.938l-4.937,-0c-1.684,0.037 -3.039,1.426 -3.039,3.125Zm0.956,-0.034c-0,-1.181 0.952,-2.136 2.13,-2.136c1.177,0 2.129,0.955 2.129,2.136c0,1.181 -0.952,2.136 -2.129,2.136c-1.178,0 -2.13,-0.955 -2.13,-2.136Z" style="fill:url(#_Linear11);"/><path id="Path-copy-91" serif:id="Path copy 9" d="M59.224,62.532c-0,1.698 1.355,3.078 3.039,3.114l4.937,0l0,-1.042c-1.093,-0.091 -1.952,-1.01 -1.952,-2.13c0,-1.12 0.859,-2.038 1.952,-2.129l0,-0.938l-4.937,-0c-1.684,0.037 -3.039,1.426 -3.039,3.125Zm0.956,-0.034c-0,-1.181 0.952,-2.136 2.13,-2.136c1.177,0 2.129,0.955 2.129,2.136c0,1.181 -0.952,2.136 -2.129,2.136c-1.178,0 -2.13,-0.955 -2.13,-2.136Z" style="fill:url(#_Linear12);"/><path id="Path-copy-101" serif:id="Path copy 10" d="M59.224,52.932c-0,1.698 1.355,3.078 3.039,3.114l4.937,0l0,-1.042c-1.093,-0.091 -1.952,-1.01 -1.952,-2.13c0,-1.12 0.859,-2.038 1.952,-2.129l0,-0.938l-4.937,-0c-1.684,0.037 -3.039,1.426 -3.039,3.125Zm0.956,-0.034c-0,-1.181 0.952,-2.136 2.13,-2.136c1.177,0 2.129,0.955 2.129,2.136c0,1.181 -0.952,2.136 -2.129,2.136c-1.178,0 -2.13,-0.955 -2.13,-2.136Z" style="fill:url(#_Linear13);"/><path id="Path-copy-111" serif:id="Path copy 11" d="M59.224,43.332c-0,1.698 1.355,3.078 3.039,3.114l4.937,0l0,-1.042c-1.093,-0.091 -1.952,-1.01 -1.952,-2.13c0,-1.12 0.859,-2.038 1.952,-2.129l0,-0.938l-4.937,-0c-1.684,0.037 -3.039,1.426 -3.039,3.125Zm0.956,-0.034c-0,-1.181 0.952,-2.136 2.13,-2.136c1.177,0 2.129,0.955 2.129,2.136c0,1.181 -0.952,2.136 -2.129,2.136c-1.178,0 -2.13,-0.955 -2.13,-2.136Z" style="fill:url(#_Linear14);"/><path id="Path-copy-121" serif:id="Path copy 12" d="M59.206,24.132c-0,1.698 1.355,3.078 3.039,3.114l4.937,0l-0,-1.042c-1.093,-0.091 -1.952,-1.01 -1.952,-2.13c-0,-1.12 0.859,-2.038 1.952,-2.129l-0,-0.938l-4.937,-0c-1.684,0.037 -3.039,1.426 -3.039,3.125Zm0.956,-0.034c-0,-1.181 0.952,-2.136 2.13,-2.136c1.177,0 2.129,0.955 2.129,2.136c0,1.181 -0.952,2.136 -2.129,2.136c-1.178,0 -2.13,-0.955 -2.13,-2.136Z" style="fill:url(#_Linear15);"/><path id="Path-copy-141" serif:id="Path copy 14" d="M59.206,14.852c-0,1.698 1.355,3.078 3.039,3.114l4.937,0l-0,-1.042c-1.093,-0.091 -1.952,-1.01 -1.952,-2.13c-0,-1.12 0.859,-2.038 1.952,-2.129l-0,-0.938l-4.937,-0c-1.684,0.037 -3.039,1.426 -3.039,3.125Zm0.956,-0.034c-0,-1.181 0.952,-2.136 2.13,-2.136c1.177,0 2.129,0.955 2.129,2.136c0,1.181 -0.952,2.136 -2.129,2.136c-1.178,0 -2.13,-0.955 -2.13,-2.136Z" style="fill:url(#_Linear16);"/><path id="Path-copy-81" serif:id="Path copy 8" d="M59.224,81.732c-0,1.698 1.355,3.078 3.039,3.114l4.937,0l0,-1.042c-1.093,-0.091 -1.952,-1.01 -1.952,-2.13c0,-1.12 0.859,-2.038 1.952,-2.129l0,-0.938l-4.937,-0c-1.684,0.037 -3.039,1.426 -3.039,3.125Zm0.956,-0.034c-0,-1.181 0.952,-2.136 2.13,-2.136c1.177,0 2.129,0.955 2.129,2.136c0,1.181 -0.952,2.136 -2.129,2.136c-1.178,0 -2.13,-0.955 -2.13,-2.136Z" style="fill:url(#_Linear17);"/><path id="Path-copy-151" serif:id="Path copy 15" d="M59.128,91.332c0,1.698 1.355,3.078 3.039,3.114l4.937,0l0,-1.042c-1.093,-0.091 -1.952,-1.01 -1.952,-2.13c0,-1.12 0.859,-2.038 1.952,-2.129l0,-0.938l-4.937,-0c-1.684,0.037 -3.039,1.426 -3.039,3.125Zm0.956,-0.034c-0,-1.181 0.953,-2.136 2.13,-2.136c1.177,0 2.13,0.955 2.13,2.136c-0,1.181 -0.953,2.136 -2.13,2.136c-1.177,0 -2.13,-0.955 -2.13,-2.136Z" style="fill:url(#_Linear18);"/></g></g><g id="Markup"><g id="TX" transform="matrix(2.55619,0,0,2.55619,7.31675,20.1528)"></g><text x="4.05px" y="20.153px" style="font-family:'Arial-BoldMT', 'Arial', sans-serif;font-weight:700;font-size:2.556px;fill:#fff;">TX</text><g id="RX" transform="matrix(2.55619,0,0,2.55619,7.60133,29.4808)"></g><text x="4.05px" y="29.481px" style="font-family:'Arial-BoldMT', 'Arial', sans-serif;font-weight:700;font-size:2.556px;fill:#fff;">RX</text><g id="RST" transform="matrix(2.55619,0,0,2.55619,46.1627,29.1216)"></g><text x="41.05px" y="29.122px" style="font-family:'Arial-BoldMT', 'Arial', sans-serif;font-weight:700;font-size:2.556px;fill:#fff;">RST</text><g id="BOOT" transform="matrix(2.55619,0,0,2.55619,25.4344,29.1216)"></g><text x="18.05px" y="29.122px" style="font-family:'Arial-BoldMT', 'Arial', sans-serif;font-weight:700;font-size:2.556px;fill:#fff;">BOOT</text><g id="_0" serif:id="0" transform="matrix(2.55619,0,0,2.55619,6.472,39.1453)"></g><text x="5.05px" y="39.145px" style="font-family:'Arial-BoldMT', 'Arial', sans-serif;font-weight:700;font-size:2.556px;fill:#fff;">0</text><g id="_1" serif:id="1" transform="matrix(2.55619,0,0,2.55619,6.472,48.8841)"></g><text x="5.05px" y="48.884px" style="font-family:'Arial-BoldMT', 'Arial', sans-serif;font-weight:700;font-size:2.556px;fill:#fff;">1</text><g id="_2" serif:id="2" transform="matrix(2.55619,0,0,2.55619,6.472,58.1453)"></g><text x="5.05px" y="58.145px" style="font-family:'Arial-BoldMT', 'Arial', sans-serif;font-weight:700;font-size:2.556px;fill:#fff;">2</text><g id="_3" serif:id="3" transform="matrix(2.55619,0,0,2.55619,6.472,68.1453)"></g><text x="5.05px" y="68.145px" style="font-family:'Arial-BoldMT', 'Arial', sans-serif;font-weight:700;font-size:2.556px;fill:#fff;">3</text><g id="_4" serif:id="4" transform="matrix(2.55619,0,0,2.55619,6.472,77.1453)"></g><text x="5.05px" y="77.145px" style="font-family:'Arial-BoldMT', 'Arial', sans-serif;font-weight:700;font-size:2.556px;fill:#fff;">4</text><g id="_5" serif:id="5" transform="matrix(2.55619,0,0,2.55619,6.472,87.1777)"></g><text x="5.05px" y="87.178px" style="font-family:'Arial-BoldMT', 'Arial', sans-serif;font-weight:700;font-size:2.556px;fill:#fff;">5</text><g id="_5V" serif:id="5V" transform="matrix(2.55619,0,0,2.55619,62.177,20.1528)"></g><text x="59.05px" y="20.153px" style="font-family:'Arial-BoldMT', 'Arial', sans-serif;font-weight:700;font-size:2.556px;fill:#fff;">5V</text><g id="GND" transform="matrix(2.55619,0,0,2.55619,64.7307,29.556)"></g><text x="59.05px" y="29.556px" style="font-family:'Arial-BoldMT', 'Arial', sans-serif;font-weight:700;font-size:2.556px;fill:#fff;">GND</text><g id="_3V3" serif:id="3V3" transform="matrix(2.55619,0,0,2.55619,63.5986,39.1453)"></g><text x="59.05px" y="39.145px" style="font-family:'Arial-BoldMT', 'Arial', sans-serif;font-weight:700;font-size:2.556px;fill:#fff;">3V3</text><g id="_14" serif:id="14" transform="matrix(2.55619,0,0,2.55619,61.8936,48.8841)"></g><text x="59.05px" y="48.884px" style="font-family:'Arial-BoldMT', 'Arial', sans-serif;font-weight:700;font-size:2.556px;fill:#fff;">14</text><g id="_13" serif:id="13" transform="matrix(2.55619,0,0,2.55619,61.8936,58.1453)"></g><text x="59.05px" y="58.145px" style="font-family:'Arial-BoldMT', 'Arial', sans-serif;font-weight:700;font-size:2.556px;fill:#fff;">13</text><g id="_12" serif:id="12" transform="matrix(2.55619,0,0,2.55619,61.8936,68.1453)"></g><text x="59.05px" y="68.145px" style="font-family:'Arial-BoldMT', 'Arial', sans-serif;font-weight:700;font-size:2.556px;fill:#fff;">12</text><g id="_11" serif:id="11" transform="matrix(2.55619,0,0,2.55619,61.7526,77.384)"></g><text x="59.05px" y="77.384px" style="font-family:'Arial-BoldMT', 'Arial', sans-serif;font-weight:700;font-size:2.556px;fill:#fff;">1<tspan x="60.331px " y="77.384px ">1</tspan></text><g id="_25" serif:id="25" transform="matrix(2.55619,0,0,2.55619,34.8936,78.0375)"></g><text x="32.05px" y="78.038px" style="font-family:'Arial-BoldMT', 'Arial', sans-serif;font-weight:700;font-size:2.556px;fill:#fff;">25</text><g id="_22" serif:id="22" transform="matrix(2.55619,0,0,2.55619,44.5908,78.0375)"></g><text x="41.748px" y="78.038px" style="font-family:'Arial-BoldMT', 'Arial', sans-serif;font-weight:700;font-size:2.556px;fill:#fff;">22</text><g id="_10" serif:id="10" transform="matrix(2.55619,0,0,2.55619,61.8936,87.1453)"></g><text x="59.05px" y="87.145px" style="font-family:'Arial-BoldMT', 'Arial', sans-serif;font-weight:700;font-size:2.556px;fill:#fff;">10</text><g id="_8" serif:id="8" transform="matrix(6.12323e-17,1,-1,6.12323e-17,103.24,82.4648)"><g transform="matrix(2.55619,0,0,2.55619,11.8093,94.6822)"></g><text x="10.388px" y="94.682px" style="font-family:'Arial-BoldMT', 'Arial', sans-serif;font-weight:700;font-size:2.556px;fill:#fff;">8</text></g><g id="_131" serif:id="13" transform="matrix(6.12323e-17,1,-1,6.12323e-17,31.0404,-3.73486)"><g transform="matrix(2.55619,0,0,2.55619,20.2309,15.4825)"></g><text x="17.388px" y="15.483px" style="font-family:'Arial-BoldMT', 'Arial', sans-serif;font-weight:700;font-size:2.556px;fill:#fff;">13</text></g><g id="BAT" transform="matrix(6.12323e-17,1,-1,6.12323e-17,64.0329,-38.7274)"><g transform="matrix(2.55619,0,0,2.55619,56.4438,14.4825)"></g><text x="51.38px" y="14.483px" style="font-family:'Arial-BoldMT', 'Arial', sans-serif;font-weight:700;font-size:2.556px;fill:#fff;">BA<tspan x="54.882px " y="14.483px ">T</tspan></text></g><g id="_9" serif:id="9" transform="matrix(6.12323e-17,1,-1,6.12323e-17,151.24,34.4648)"><g transform="matrix(2.55619,0,0,2.55619,59.8093,94.6822)"></g><text x="58.388px" y="94.682px" style="font-family:'Arial-BoldMT', 'Arial', sans-serif;font-weight:700;font-size:2.556px;fill:#fff;">9</text></g><g id="_26" serif:id="26" transform="matrix(6.12323e-17,1,-1,6.12323e-17,101.04,59.2651)"><g transform="matrix(2.55619,0,0,2.55619,23.7309,81.9825)"></g><text x="20.888px" y="81.983px" style="font-family:'Arial-BoldMT', 'Arial', sans-serif;font-weight:700;font-size:2.556px;fill:#fff;">26</text></g><g id="_27" serif:id="27" transform="matrix(6.12323e-17,1,-1,6.12323e-17,111.04,69.2651)"><g transform="matrix(2.55619,0,0,2.55619,23.7309,91.9825)"></g><text x="20.888px" y="91.983px" style="font-family:'Arial-BoldMT', 'Arial', sans-serif;font-weight:700;font-size:2.556px;fill:#fff;">27</text></g></g><g id="Usb"><rect x="18.484" y="0.153" width="30.134" height="25.438" style="fill:#ebebeb;"/><g id="Group"><rect id="Path-copy-4" serif:id="Path copy 4" x="23.907" y="22.308" width="3.396" height="2.351" style="fill:#808080;"/><rect id="Path-copy-3" serif:id="Path copy 3" x="39.451" y="22.372" width="3.296" height="2.282" style="fill:#808080;"/><rect id="Path-copy-2" serif:id="Path copy 2" x="25.817" y="17.145" width="5.484" height="1.8" style="fill:#808080;"/><rect id="Path-copy" serif:id="Path copy" x="35.351" y="17.145" width="5.484" height="1.8" style="fill:#808080;"/></g><g id="Group1" serif:id="Group"><rect id="Path-copy-112" serif:id="Path copy 11" x="41.754" y="24.455" width="1.269" height="2.272" style="fill:#ffdfa4;"/><rect id="Path-copy-102" serif:id="Path copy 10" x="39.488" y="24.455" width="1.269" height="2.272" style="fill:#ffdfa4;"/><rect id="Path-copy-92" serif:id="Path copy 9" x="37.223" y="24.455" width="1.269" height="2.272" style="fill:#ffdfa4;"/><rect id="Path-copy-82" serif:id="Path copy 8" x="34.957" y="24.455" width="1.269" height="2.272" style="fill:#ffdfa4;"/><rect id="Path-copy-72" serif:id="Path copy 7" x="32.692" y="24.455" width="1.269" height="2.272" style="fill:#ffdfa4;"/><rect id="Path-copy-6" serif:id="Path copy 6" x="30.426" y="24.455" width="1.269" height="2.272" style="fill:#ffdfa4;"/><rect id="Path-copy-5" serif:id="Path copy 5" x="28.161" y="24.455" width="1.269" height="2.272" style="fill:#ffdfa4;"/><rect id="Path-copy-41" serif:id="Path copy 4" x="25.895" y="24.455" width="1.269" height="2.272" style="fill:#ffdfa4;"/><rect id="Path-copy-31" serif:id="Path copy 3" x="23.63" y="24.455" width="1.269" height="2.272" style="fill:#ffdfa4;"/><rect id="Path-copy-21" serif:id="Path copy 2" x="21.364" y="24.455" width="1.269" height="2.272" style="fill:#ffdfa4;"/><rect id="Path-copy1" serif:id="Path copy" x="44.02" y="24.455" width="1.269" height="2.272" style="fill:#ffdfa4;"/></g></g><g id="Chip"><g id="Group-copy" serif:id="Group copy"><rect id="Path" x="38.145" y="41.512" width="1.116" height="3.343" style="fill:#ccc;"/><rect id="Path1" serif:id="Path" x="36.436" y="41.512" width="1.116" height="3.343" style="fill:#ccc;"/><rect id="Path2" serif:id="Path" x="34.728" y="41.512" width="1.116" height="3.343" style="fill:#ccc;"/><rect id="Path3" serif:id="Path" x="33.019" y="41.512" width="1.116" height="3.343" style="fill:#ccc;"/><rect id="Path4" serif:id="Path" x="31.312" y="41.512" width="1.116" height="3.343" style="fill:#ccc;"/><rect id="Path5" serif:id="Path" x="29.603" y="41.512" width="1.116" height="3.343" style="fill:#ccc;"/><rect id="Path6" serif:id="Path" x="27.894" y="41.512" width="1.116" height="3.343" style="fill:#ccc;"/><rect id="Path7" serif:id="Path" x="27.894" y="57.953" width="1.116" height="3.343" style="fill:#ccc;"/><rect id="Path8" serif:id="Path" x="29.603" y="57.953" width="1.116" height="3.343" style="fill:#ccc;"/><rect id="Path9" serif:id="Path" x="31.312" y="57.953" width="1.116" height="3.343" style="fill:#ccc;"/><rect id="Path10" serif:id="Path" x="33.019" y="57.953" width="1.116" height="3.343" style="fill:#ccc;"/><rect id="Path11" serif:id="Path" x="34.728" y="57.953" width="1.116" height="3.343" style="fill:#ccc;"/><rect id="Path12" serif:id="Path" x="36.436" y="57.953" width="1.116" height="3.343" style="fill:#ccc;"/><rect id="Path13" serif:id="Path" x="38.145" y="57.953" width="1.116" height="3.343" style="fill:#ccc;"/><rect id="Path14" serif:id="Path" x="23.713" y="45.709" width="3.333" height="1.119" style="fill:#ccc;"/><rect id="Path15" serif:id="Path" x="23.713" y="47.428" width="3.333" height="1.119" style="fill:#ccc;"/><rect id="Path16" serif:id="Path" x="23.713" y="49.124" width="3.333" height="1.119" style="fill:#ccc;"/><rect id="Path17" serif:id="Path" x="23.713" y="50.844" width="3.333" height="1.119" style="fill:#ccc;"/><rect id="Path18" serif:id="Path" x="23.713" y="52.563" width="3.333" height="1.119" style="fill:#ccc;"/><rect id="Path19" serif:id="Path" x="23.713" y="54.283" width="3.333" height="1.119" style="fill:#ccc;"/><rect id="Path20" serif:id="Path" x="23.713" y="55.991" width="3.333" height="1.119" style="fill:#ccc;"/><rect id="Path21" serif:id="Path" x="40.108" y="55.991" width="3.333" height="1.119" style="fill:#ccc;"/><rect id="Path22" serif:id="Path" x="40.108" y="54.283" width="3.333" height="1.119" style="fill:#ccc;"/><rect id="Path23" serif:id="Path" x="40.108" y="52.563" width="3.333" height="1.119" style="fill:#ccc;"/><rect id="Path24" serif:id="Path" x="40.108" y="50.844" width="3.333" height="1.119" style="fill:#ccc;"/><rect id="Path25" serif:id="Path" x="40.108" y="49.124" width="3.333" height="1.119" style="fill:#ccc;"/><rect id="Path26" serif:id="Path" x="40.108" y="47.428" width="3.333" height="1.119" style="fill:#ccc;"/><rect id="Path27" serif:id="Path" x="40.108" y="45.709" width="3.333" height="1.119" style="fill:#ccc;"/></g><rect id="Path-copy2" serif:id="Path copy" x="25.084" y="42.895" width="16.998" height="17.044" style="fill:#1a1a1a;"/></g><g id="Antenna"><rect id="Path-copy-32" serif:id="Path copy 3" x="25.865" y="87.407" width="19.041" height="7.699" style="fill:#902c2c;"/><rect id="Path-copy-22" serif:id="Path copy 2" x="44.906" y="88.843" width="2.169" height="4.88" style="fill:#ccc;"/><rect id="Path-copy3" serif:id="Path copy" x="23.696" y="88.816" width="2.169" height="4.88" style="fill:#ccc;"/></g><g id="Button-Right" serif:id="Button Right"><rect id="Path-copy-42" serif:id="Path copy 4" x="42.037" y="31.56" width="1.709" height="4.151" style="fill:url(#_Linear19);stroke:#fff;stroke-width:0.49px;stroke-linecap:butt;"/><rect id="Path-copy-33" serif:id="Path copy 3" x="52.241" y="31.56" width="1.709" height="4.151" style="fill:url(#_Linear20);stroke:#fff;stroke-width:0.49px;stroke-linecap:butt;"/><rect id="Path-copy-23" serif:id="Path copy 2" x="43.763" y="30.455" width="8.557" height="6.393" style="fill:url(#_Linear21);stroke:#a5a5a5;stroke-width:1.5px;stroke-linecap:butt;"/><path id="Path-copy4" serif:id="Path copy" d="M49.681,33.544c0,0.889 -0.718,1.609 -1.604,1.609c-0.887,0 -1.605,-0.72 -1.605,-1.609c0,-0.889 0.718,-1.609 1.605,-1.609c0.886,-0 1.604,0.72 1.604,1.609Z" style="fill:url(#_Linear22);stroke:#595656;stroke-width:0.97px;stroke-linecap:butt;stroke-linejoin:miter;"/></g><g id="Button-Left" serif:id="Button Left"><rect id="Path-copy-43" serif:id="Path copy 4" x="13.004" y="31.56" width="1.709" height="4.151" style="fill:url(#_Linear23);stroke:#fff;stroke-width:0.49px;stroke-linecap:butt;"/><rect id="Path-copy-34" serif:id="Path copy 3" x="23.208" y="31.56" width="1.709" height="4.151" style="fill:url(#_Linear24);stroke:#fff;stroke-width:0.49px;stroke-linecap:butt;"/><rect id="Path-copy-24" serif:id="Path copy 2" x="14.729" y="30.455" width="8.557" height="6.393" style="fill:url(#_Linear25);stroke:#a5a5a5;stroke-width:1.5px;stroke-linecap:butt;"/><path id="Path-copy5" serif:id="Path copy" d="M20.648,33.544c-0,0.889 -0.719,1.609 -1.605,1.609c-0.886,0 -1.604,-0.72 -1.604,-1.609c-0,-0.889 0.718,-1.609 1.604,-1.609c0.886,-0 1.605,0.72 1.605,1.609Z" style="fill:url(#_Linear26);stroke:#595656;stroke-width:0.97px;stroke-linecap:butt;stroke-linejoin:miter;"/></g><g id="RGB-Led" serif:id="RGB Led"><rect id="Path-copy-73" serif:id="Path copy 7" x="28.765" y="30.988" width="3.039" height="2.08" style="fill:#ccc;"/><rect id="Path-copy-61" serif:id="Path copy 6" x="28.765" y="34.467" width="3.039" height="2.081" style="fill:#ccc;"/><rect id="Path-copy-51" serif:id="Path copy 5" x="35.131" y="34.467" width="3.039" height="2.081" style="fill:#ccc;"/><rect id="Path-copy-44" serif:id="Path copy 4" x="35.131" y="30.988" width="3.039" height="2.08" style="fill:#ccc;"/><path id="Path-copy-35" serif:id="Path copy 3" d="M36.702,30.346l-6.234,0l-0.479,0.48l0,6.253l6.713,-0l-0,-6.733Z" style="fill:#f9f9f9;"/><path id="Path-copy-25" serif:id="Path copy 2" d="M35.941,33.712c0,1.436 -1.162,2.603 -2.595,2.603c-1.432,-0 -2.595,-1.167 -2.595,-2.603c0,-1.437 1.163,-2.603 2.595,-2.603c1.433,-0 2.595,1.166 2.595,2.603Z" style="fill:#e3dedb;"/><rect id="Path-copy6" serif:id="Path copy" x="31.226" y="33.264" width="0.895" height="0.898" style="fill:#a80;"/></g><rect id="Led-Bat" serif:id="Led Bat" x="52.074" y="13.365" width="1.818" height="3.161" style="fill:#e3dedb;"/><rect id="Led-13" serif:id="Led 13" x="13.023" y="13.365" width="1.818" height="3.161" style="fill:#e3dedb;"/><defs><linearGradient id="_Linear1" x1="0" y1="0" x2="1" y2="0" gradientUnits="userSpaceOnUse" gradientTransform="matrix(58.3857,0,0,58.3857,-349.414,23.8554)"><stop offset="0" style="stop-color:#ffdfa4;stop-opacity:1"/><stop offset="1" style="stop-color:#ffdfa4;stop-opacity:1"/></linearGradient><linearGradient id="_Linear2" x1="0" y1="0" x2="1" y2="0" gradientUnits="userSpaceOnUse" gradientTransform="matrix(58.3857,0,0,58.3857,-349.432,62.2554)"><stop offset="0" style="stop-color:#ffdfa4;stop-opacity:1"/><stop offset="1" style="stop-color:#ffdfa4;stop-opacity:1"/></linearGradient><linearGradient id="_Linear3" x1="0" y1="0" x2="1" y2="0" gradientUnits="userSpaceOnUse" gradientTransform="matrix(58.3857,0,0,58.3857,-349.432,52.6554)"><stop offset="0" style="stop-color:#ffdfa4;stop-opacity:1"/><stop offset="1" style="stop-color:#ffdfa4;stop-opacity:1"/></linearGradient><linearGradient id="_Linear4" x1="0" y1="0" x2="1" y2="0" gradientUnits="userSpaceOnUse" gradientTransform="matrix(58.3857,0,0,58.3857,-349.432,43.0554)"><stop offset="0" style="stop-color:#ffdfa4;stop-opacity:1"/><stop offset="1" style="stop-color:#ffdfa4;stop-opacity:1"/></linearGradient><linearGradient id="_Linear5" x1="0" y1="0" x2="1" y2="0" gradientUnits="userSpaceOnUse" gradientTransform="matrix(58.3857,0,0,58.3857,-349.432,33.4554)"><stop offset="0" style="stop-color:#ffdfa4;stop-opacity:1"/><stop offset="1" style="stop-color:#ffdfa4;stop-opacity:1"/></linearGradient><linearGradient id="_Linear6" x1="0" y1="0" x2="1" y2="0" gradientUnits="userSpaceOnUse" gradientTransform="matrix(58.3857,0,0,58.3857,-349.414,14.2554)"><stop offset="0" style="stop-color:#ffdfa4;stop-opacity:1"/><stop offset="1" style="stop-color:#ffdfa4;stop-opacity:1"/></linearGradient><linearGradient id="_Linear7" x1="0" y1="0" x2="1" y2="0" gradientUnits="userSpaceOnUse" gradientTransform="matrix(58.3857,0,0,58.3857,-349.414,4.97542)"><stop offset="0" style="stop-color:#ffdfa4;stop-opacity:1"/><stop offset="1" style="stop-color:#ffdfa4;stop-opacity:1"/></linearGradient><linearGradient id="_Linear8" x1="0" y1="0" x2="1" y2="0" gradientUnits="userSpaceOnUse" gradientTransform="matrix(58.3857,0,0,58.3857,-349.432,71.8554)"><stop offset="0" style="stop-color:#ffdfa4;stop-opacity:1"/><stop offset="1" style="stop-color:#ffdfa4;stop-opacity:1"/></linearGradient><linearGradient id="_Linear9" x1="0" y1="0" x2="1" y2="0" gradientUnits="userSpaceOnUse" gradientTransform="matrix(58.3857,0,0,58.3857,-349.432,81.4554)"><stop offset="0" style="stop-color:#ffdfa4;stop-opacity:1"/><stop offset="1" style="stop-color:#ffdfa4;stop-opacity:1"/></linearGradient><linearGradient id="_Linear10" x1="0" y1="0" x2="1" y2="0" gradientUnits="userSpaceOnUse" gradientTransform="matrix(-58.3857,-7.15019e-15,7.15019e-15,-58.3857,-231.84,23.8554)"><stop offset="0" style="stop-color:#ffdfa4;stop-opacity:1"/><stop offset="1" style="stop-color:#ffdfa4;stop-opacity:1"/></linearGradient><linearGradient id="_Linear11" x1="0" y1="0" x2="1" y2="0" gradientUnits="userSpaceOnUse" gradientTransform="matrix(-58.3857,-7.15019e-15,7.15019e-15,-58.3857,-231.822,62.2554)"><stop offset="0" style="stop-color:#ffdfa4;stop-opacity:1"/><stop offset="1" style="stop-color:#ffdfa4;stop-opacity:1"/></linearGradient><linearGradient id="_Linear12" x1="0" y1="0" x2="1" y2="0" gradientUnits="userSpaceOnUse" gradientTransform="matrix(-58.3857,-7.15019e-15,7.15019e-15,-58.3857,-231.822,52.6554)"><stop offset="0" style="stop-color:#ffdfa4;stop-opacity:1"/><stop offset="1" style="stop-color:#ffdfa4;stop-opacity:1"/></linearGradient><linearGradient id="_Linear13" x1="0" y1="0" x2="1" y2="0" gradientUnits="userSpaceOnUse" gradientTransform="matrix(-58.3857,-7.15019e-15,7.15019e-15,-58.3857,-231.822,43.0554)"><stop offset="0" style="stop-color:#ffdfa4;stop-opacity:1"/><stop offset="1" style="stop-color:#ffdfa4;stop-opacity:1"/></linearGradient><linearGradient id="_Linear14" x1="0" y1="0" x2="1" y2="0" gradientUnits="userSpaceOnUse" gradientTransform="matrix(-58.3857,-7.15019e-15,7.15019e-15,-58.3857,-231.822,33.4554)"><stop offset="0" style="stop-color:#ffdfa4;stop-opacity:1"/><stop offset="1" style="stop-color:#ffdfa4;stop-opacity:1"/></linearGradient><linearGradient id="_Linear15" x1="0" y1="0" x2="1" y2="0" gradientUnits="userSpaceOnUse" gradientTransform="matrix(-58.3857,-7.15019e-15,7.15019e-15,-58.3857,-231.84,14.2554)"><stop offset="0" style="stop-color:#ffdfa4;stop-opacity:1"/><stop offset="1" style="stop-color:#ffdfa4;stop-opacity:1"/></linearGradient><linearGradient id="_Linear16" x1="0" y1="0" x2="1" y2="0" gradientUnits="userSpaceOnUse" gradientTransform="matrix(-58.3857,-7.15019e-15,7.15019e-15,-58.3857,-231.84,4.97542)"><stop offset="0" style="stop-color:#ffdfa4;stop-opacity:1"/><stop offset="1" style="stop-color:#ffdfa4;stop-opacity:1"/></linearGradient><linearGradient id="_Linear17" x1="0" y1="0" x2="1" y2="0" gradientUnits="userSpaceOnUse" gradientTransform="matrix(-58.3857,-7.15019e-15,7.15019e-15,-58.3857,-231.822,71.8554)"><stop offset="0" style="stop-color:#ffdfa4;stop-opacity:1"/><stop offset="1" style="stop-color:#ffdfa4;stop-opacity:1"/></linearGradient><linearGradient id="_Linear18" x1="0" y1="0" x2="1" y2="0" gradientUnits="userSpaceOnUse" gradientTransform="matrix(-58.3857,-7.15019e-15,7.15019e-15,-58.3857,-231.918,81.4554)"><stop offset="0" style="stop-color:#ffdfa4;stop-opacity:1"/><stop offset="1" style="stop-color:#ffdfa4;stop-opacity:1"/></linearGradient><linearGradient id="_Linear19" x1="0" y1="0" x2="1" y2="0" gradientUnits="userSpaceOnUse" gradientTransform="matrix(2.0797e-15,-33.9642,33.9642,2.0797e-15,101.593,-348.917)"><stop offset="0" style="stop-color:#ffdfa4;stop-opacity:1"/><stop offset="1" style="stop-color:#ffdfa4;stop-opacity:1"/></linearGradient><linearGradient id="_Linear20" x1="0" y1="0" x2="1" y2="0" gradientUnits="userSpaceOnUse" gradientTransform="matrix(2.0797e-15,-33.9642,33.9642,2.0797e-15,137.589,-348.917)"><stop offset="0" style="stop-color:#ffdfa4;stop-opacity:1"/><stop offset="1" style="stop-color:#ffdfa4;stop-opacity:1"/></linearGradient><linearGradient id="_Linear21" x1="0" y1="0" x2="1" y2="0" gradientUnits="userSpaceOnUse" gradientTransform="matrix(81.5288,0,0,81.5288,156.578,27.333)"><stop offset="0" style="stop-color:#adadad;stop-opacity:1"/><stop offset="1" style="stop-color:#adadad;stop-opacity:1"/></linearGradient><linearGradient id="_Linear22" x1="0" y1="0" x2="1" y2="0" gradientUnits="userSpaceOnUse" gradientTransform="matrix(2.51012,-2.39856,2.39856,2.51012,30.6873,46.5825)"><stop offset="0" style="stop-color:#6e6b6b;stop-opacity:1"/><stop offset="1" style="stop-color:#6e6b6b;stop-opacity:1"/></linearGradient><linearGradient id="_Linear23" x1="0" y1="0" x2="1" y2="0" gradientUnits="userSpaceOnUse" gradientTransform="matrix(2.0797e-15,-33.9642,33.9642,2.0797e-15,72.5594,-348.917)"><stop offset="0" style="stop-color:#ffdfa4;stop-opacity:1"/><stop offset="1" style="stop-color:#ffdfa4;stop-opacity:1"/></linearGradient><linearGradient id="_Linear24" x1="0" y1="0" x2="1" y2="0" gradientUnits="userSpaceOnUse" gradientTransform="matrix(2.0797e-15,-33.9642,33.9642,2.0797e-15,108.555,-348.917)"><stop offset="0" style="stop-color:#ffdfa4;stop-opacity:1"/><stop offset="1" style="stop-color:#ffdfa4;stop-opacity:1"/></linearGradient><linearGradient id="_Linear25" x1="0" y1="0" x2="1" y2="0" gradientUnits="userSpaceOnUse" gradientTransform="matrix(81.5287,0,0,81.5287,127.545,27.333)"><stop offset="0" style="stop-color:#adadad;stop-opacity:1"/><stop offset="1" style="stop-color:#adadad;stop-opacity:1"/></linearGradient><linearGradient id="_Linear26" x1="0" y1="0" x2="1" y2="0" gradientUnits="userSpaceOnUse" gradientTransform="matrix(2.51012,-2.39856,2.39856,2.51012,1.65393,46.5825)"><stop offset="0" style="stop-color:#6e6b6b;stop-opacity:1"/><stop offset="1" style="stop-color:#6e6b6b;stop-opacity:1"/></linearGradient></defs></svg>