<svg width="25.4mm" height="42.9mm" version="1.1" xmlns="http://www.w3.org/2000/svg">
 <g transform="matrix(.0984 0 0 .0984 34.3 82.9)">
  <text x="-2320.8396" y="-202.73961" fill="#000000" font-size="40px"/>
  <rect x="-348" y="-707" width="976" height="1494" ry="12.3" fill="#4d4d4d" fill-opacity=".996"/>
  <rect x="-114" y="-842" width="507" height="640" fill="#383838" fill-opacity=".996"/>
  <path d="m333-713v-107h-61.3v66.6h-69.3v-65.5h-67.5v65.2h-69.7v-65.9h-129v119" fill="none" stroke="#5c5c5c" stroke-linecap="round" stroke-width="14.9"/>
  <path d="m1.01-701v-119" fill="none" stroke="#5c5c5c" stroke-linecap="round" stroke-width="14.9"/>
  <ellipse transform="scale(-1,1)" cx="63.8" cy="-701" rx="7.48" ry="7.03" fill="#a80" fill-opacity=".996"/>
  <ellipse transform="scale(-1,1)" cx="-.985" cy="-701" rx="7.48" ry="7.03" fill="#a80" fill-opacity=".996"/>
  <rect x="-92.6" y="-689" width="465" height="474" fill="#c7c7c7"/>
  <g fill="#808080">
   <g stroke-width="9.34">
    <path class="cls-1" d="m106-417a13.8 13.9 0 1 1-13.8-13.9 13.8 13.9 0 0 1 13.8 13.9"/>
    <path class="cls-1" d="m227-431a143 144 0 0 0-121-122 90.7 91.1 0 0 0-20 14.5v13.4a114 114 0 0 1 113 114h13.3a95.6 95.9 0 0 0 14.5-20"/>
    <path class="cls-1" d="m238-473a89.7 90 0 0 0-90.2-90c-3.17 0-6.25 0-9.32 0.468l-2.05 5.99a154 155 0 0 1 94.5 94.8l5.97-2.15c0-3 0.56-5.99 0.56-9.36"/>
    <path class="cls-1" d="m148-367a107 107 0 0 1-107-107 106 106 0 0 1 31.2-75.7l6.06 5.71a98.5 98.8 0 0 0 0 140 98.5 98.8 0 0 0 140 0l5.69 5.71a106 106 0 0 1-76.2 30.5"/>
    <path class="cls-1" d="m147-405a62 62.2 0 0 0-24.3-55.3 60.7 60.9 0 0 0-31.2-12.7 5.69 5.71 0 0 1-4.94-5.99 5.5 5.52 0 0 1 6.06-5.05 73.2 73.5 0 0 1 65.3 80.3 63.9 64.1 0 0 1-2.42 12.6l16.2 4.59a90.1 90.4 0 0 0 14-5.34 99.2 99.6 0 0 0 1.77-19.2 103 103 0 0 0-87-102 45.1 45.3 0 0 0-16.3 0 35.5 35.7 0 0 0-17.6 11 34.9 35 0 0 0 15.6 56.2 80.7 81.1 0 0 0 8.76 1.59 32.7 32.9 0 0 1 27.2 32.4 32.4 32.5 0 0 1-5.22 17.7l11.2 7.21a83.1 83.4 0 0 0 16.8 2.81 61.4 61.6 0 0 0 6.15-21.5"/>
   </g>
   <text x="-62.8" y="-290.5" font-family="sans-serif" font-size="50px"><tspan fill="#808080">ESP32-C3-MINI-1</tspan></text>
  </g>
  <g fill="#f2f2f2">
   <rect x="131" y="10.6" width="97.9" height="127" ry=".727"/>
   <rect x="-21.7" y="-35.5" width="97.9" height="39.5" ry=".225"/>
   <rect x="-21.7" y="54.6" width="97.9" height="39.5" ry=".225"/>
   <rect x="-21.7" y="145" width="97.9" height="39.5" ry=".225"/>
  </g>
  <rect x="30.9" y="-42.2" width="135" height="233" ry="1.33" fill="#1a1a1a"/>
  <rect x="327" y="-93.1" width="133" height="136" ry=".998" fill="#ececec"/>
  <rect x="340" y="-80" width="107" height="110" ry="55" fill="#e3dedb"/>
  <text x="315" y="-115.52656" fill="#000000" font-size="56.4px"><tspan fill="#ffffff">GPIO8</tspan></text>
  <rect x="361" y="554" width="126" height="215" ry="2.86" fill="#c7c7c7"/>
  <rect x="368" y="580" width="112" height="163" ry="57.7" fill="#1a1a1a"/>
  <text x="374.56619" y="524.76233" fill="#000000" font-size="56.4px"><tspan x="374.56619" y="524.76233" fill="#ffffff" font-weight="bold">RST</tspan></text>
  <rect x="-196" y="554" width="126" height="215" ry="2.86" fill="#c7c7c7"/>
  <rect x="-189" y="580" width="112" height="163" ry="57.7" fill="#1a1a1a"/>
  <text x="-215.77779" y="524.76233" fill="#000000" font-size="56.4px"><tspan x="-215.77779" y="524.76233" fill="#ffffff" font-weight="bold">BOOT</tspan></text>
  <g fill="#ccc" fill-rule="evenodd">
   <path d="m97.1 634h19.9v-43.1h-19.9z"/>
   <path d="m186 634h19.9v-43.1h-19.9z"/>
   <path d="m127 634h9.2v-43.1h-9.2z"/>
   <path d="m147 634h9.2v-43.1h-9.2z"/>
   <path d="m167 634h9.2v-43.1h-9.2z"/>
   <path d="m68.4 716c0-31.8-47.5-31.8-47.5 0v9.23c0 31.8 47.5 31.8 47.5 0v-9.23"/>
   <path d="m283 716c0-31.8-47.5-31.8-47.5 0v9.23c0 31.8 47.5 31.8 47.5 0v-9.23"/>
   <path d="m68.4 602c0-31.8-47.5-31.8-47.5 0v9.23c0 31.8 47.5 31.8 47.5 0v-9.23"/>
   <path d="m283 602c0-31.8-47.5-31.8-47.5 0v9.23c0 31.8 47.5 31.8 47.5 0v-9.23"/>
  </g>
  <g fill="none" stroke="#fff" stroke-linecap="round" stroke-miterlimit="10" stroke-width=".779">
   <path d="m27.7 803v3.12"/>
   <path d="m35.4 805v0.937"/>
   <path d="m36.6 805v0.937"/>
   <path d="m36.9 634v151"/>
   <path d="m44.6 790v-2.11"/>
   <path d="m45.2 788v2.11"/>
   <path d="m47.6 634v154"/>
   <path d="m48.2 790v-2.11"/>
   <path d="m50.7 788v18.4"/>
   <path d="m255 790 7.08 9.02"/>
   <path d="m259 790 9.2 15.4"/>
   <path d="m268 790 7.62 12.8"/>
   <path d="m258 790 4.2 9.02"/>
   <path d="m253 788v18.4"/>
   <path d="m255 790v-2.11"/>
   <path d="m256 788v-154"/>
   <path d="m258 790v-2.11"/>
   <path d="m259 790v-2.11"/>
   <path d="m267 785v-151"/>
   <path d="m267 805v0.937"/>
   <path d="m268 805v0.937"/>
   <path d="m276 803v3.12"/>
   <path d="m45.2 790-4.12 9.02"/>
   <path d="m35.4 790-7.7 12.8"/>
   <path d="m44.6 790-9.2 15.4"/>
   <path d="m48.2 790-7.08 9.02"/>
   <path d="m253 806h-202"/>
   <path d="m27.7 806h8.94"/>
   <path d="m267 806h8.9"/>
   <path d="m268 805h-1.26"/>
   <path d="m36.6 805h-1.26"/>
   <path d="m50.7 803h202"/>
   <path d="m253 790h-202"/>
   <path d="m259 790h-3.58"/>
   <path d="m48.2 790h-3.58"/>
   <path d="m50.7 788h-14.2"/>
   <path d="m253 788h14.2"/>
   <path d="m267 785h-230"/>
   <path d="m274 735h-7.62"/>
   <path d="m36.9 634h230"/>
   <path d="m267 785c0 1.95 0.52 3.82 1.56 5.54"/>
   <path d="m35.4 790c1.01-1.72 1.56-3.59 1.56-5.54"/>
  </g>
  <path d="m36.9 634h230l0.429 154 8.73 15.3v3.09l-8.9 3.4e-4 -14-18.4v18.4h-202v-18.4l-15.3 18.4-7.68-3.4e-4v-3.09l8.77-15.3z" fill="#9d9d9d"/>
  <rect x="-21.6" y="242" width="158" height="158" ry="0" fill="#1a1a1a"/>
  <text transform="scale(.998 1)" x="-1.8370414" y="333.28836" fill="#333333" font-size="33.8px" stroke-width="2.12"><tspan x="-1.8370414" y="333.28836" fill="#333333" stroke-width="2.12">CP2102</tspan></text>
  <path d="m-199 406h26v-26.1h-26z" fill="#ccc" fill-rule="evenodd"/>
  <path d="m-199 357h26v-26.1h-26z" fill="#ccc" fill-rule="evenodd" opacity=".992"/>
  <g fill="none" stroke="#fff" stroke-linecap="round" stroke-miterlimit="10" stroke-width="6.13">
   <path d="m-204 417h39.7"/>
   <path d="m-165 417v-31.2"/>
   <path d="m-164 360v-37.5"/>
   <path d="m-164 322v-3.12"/>
   <path d="m-164 319h-45.9"/>
   <path d="m-211 320v36.7"/>
   <path d="m-211 383v33.5"/>
   <path d="m-211 417h10.1"/>
   <path d="m-200 376h28"/>
   <path d="m-172 375-15.5-15.6"/>
   <path d="m-187 360-14 14.1"/>
  </g>
  <g fill="#ccc" fill-rule="evenodd">
   <path d="m98.6 262h9.2v-29.2h-9.2z"/>
   <path d="m83.2 262h9.2v-29.2h-9.2z"/>
   <path d="m67.9 262h9.2v-29.2h-9.2z"/>
   <path d="m52.6 262h9.2v-29.2h-9.2z"/>
   <path d="m37.3 262h9.2v-29.2h-9.2z"/>
   <path d="m22 262h9.2v-29.2h-9.2z"/>
   <path d="m6.71 262h9.2v-29.2h-9.2z"/>
   <path d="m6.71 410h9.2v-29.2h-9.2z"/>
   <path d="m22 410h9.2v-29.2h-9.2z"/>
   <path d="m37.3 410h9.2v-29.2h-9.2z"/>
   <path d="m52.6 410h9.2v-29.2h-9.2z"/>
   <path d="m67.9 410h9.2v-29.2h-9.2z"/>
   <path d="m83.2 410h9.2v-29.2h-9.2z"/>
   <path d="m98.6 410h9.2v-29.2h-9.2z"/>
   <path d="m-30.8 280h29.1v-9.23h-29.1z"/>
   <path d="m-30.8 295h29.1v-9.23h-29.1z"/>
   <path d="m-30.8 311h29.1v-9.23h-29.1z"/>
   <path d="m-30.8 326h29.1v-9.23h-29.1z"/>
   <path d="m-30.8 341h29.1v-9.23h-29.1z"/>
   <path d="m-30.8 357h29.1v-9.23h-29.1z"/>
   <path d="m-30.8 372h29.1v-9.23h-29.1z"/>
   <path d="m116 372h29.1v-9.23h-29.1z"/>
   <path d="m116 357h29.1v-9.23h-29.1z"/>
   <path d="m116 341h29.1v-9.23h-29.1z"/>
   <path d="m116 326h29.1v-9.23h-29.1z"/>
   <path d="m116 311h29.1v-9.23h-29.1z"/>
   <path d="m116 295h29.1v-9.23h-29.1z"/>
   <path d="m116 280h29.1v-9.23h-29.1z"/>
   <path d="m6.71 372h101v-101h-101z"/>
  </g>
  <g fill="none" stroke="#fff" stroke-linecap="round" stroke-miterlimit="10" stroke-width="3.9">
   <path d="m136 263v138"/>
   <path d="m136 401h-158"/>
   <path d="m-21.6 401v-158"/>
   <path d="m-21.6 242h137"/>
   <path d="m116 242 20.5 20.6"/>
  </g>
  <rect x="-21.6" y="242" width="158" height="158" ry="0" fill="#1a1a1a"/>
  <rect x="-203" y="341" width="32.3" height="56.3" ry="0" fill="#e3dedb" opacity=".992"/>
  <g fill="#ffd700" fill-rule="evenodd">
   <path d="m-283-643c0-37.8-56.5-37.8-56.5 0s56.5 37.8 56.5 0"/>
   <path d="m-283-546c0-37.8-56.5-37.8-56.5 0s56.5 37.8 56.5 0"/>
   <path d="m-283-448c0-37.8-56.5-37.8-56.5 0s56.5 37.8 56.5 0"/>
   <path d="m-283-350c0-37.8-56.5-37.8-56.5 0s56.5 37.8 56.5 0"/>
   <path d="m-283-253c0-37.8-56.5-37.8-56.5 0s56.5 37.8 56.5 0"/>
   <path d="m-283-155c0-37.8-56.5-37.8-56.5 0s56.5 37.8 56.5 0"/>
   <path d="m-283-57.6c0-37.8-56.5-37.8-56.5 0s56.5 37.8 56.5 0"/>
   <path d="m-283 40c0-37.8-56.5-37.8-56.5 0s56.5 37.8 56.5 0"/>
   <path d="m-283 138c0-37.8-56.5-37.8-56.5 0s56.5 37.8 56.5 0"/>
   <path d="m-283 235c0-37.8-56.5-37.8-56.5 0s56.5 37.8 56.5 0"/>
   <path d="m-283 333c0-37.8-56.5-37.8-56.5 0s56.5 37.8 56.5 0"/>
   <path d="m-283 430c0-37.8-56.5-37.8-56.5 0s56.5 37.8 56.5 0"/>
   <path d="m-283 528c0-37.8-56.5-37.8-56.5 0s56.5 37.8 56.5 0"/>
   <path d="m-283 626c0-37.8-56.5-37.8-56.5 0s56.5 37.8 56.5 0"/>
   <path d="m-283 723c0-37.8-56.5-37.8-56.5 0s56.5 37.8 56.5 0"/>
   <path d="m621-643c0-37.8-56.5-37.8-56.5 0s56.5 37.8 56.5 0"/>
   <path d="m621-546c0-37.8-56.5-37.8-56.5 0s56.5 37.8 56.5 0"/>
   <path d="m621-448c0-37.8-56.5-37.8-56.5 0s56.5 37.8 56.5 0"/>
   <path d="m621-350c0-37.8-56.5-37.8-56.5 0s56.5 37.8 56.5 0"/>
   <path d="m621-253c0-37.8-56.5-37.8-56.5 0s56.5 37.8 56.5 0"/>
   <path d="m621-155c0-37.8-56.5-37.8-56.5 0s56.5 37.8 56.5 0"/>
   <path d="m621-57.6c0-37.8-56.5-37.8-56.5 0s56.5 37.8 56.5 0"/>
   <path d="m621 40c0-37.8-56.5-37.8-56.5 0s56.5 37.8 56.5 0"/>
   <path d="m621 138c0-37.8-56.5-37.8-56.5 0s56.5 37.8 56.5 0"/>
   <path d="m621 235c0-37.8-56.5-37.8-56.5 0s56.5 37.8 56.5 0"/>
   <path d="m621 333c0-37.8-56.5-37.8-56.5 0s56.5 37.8 56.5 0"/>
   <path d="m621 430c0-37.8-56.5-37.8-56.5 0s56.5 37.8 56.5 0"/>
   <path d="m621 528c0-37.8-56.5-37.8-56.5 0s56.5 37.8 56.5 0"/>
   <path d="m621 626c0-37.8-56.5-37.8-56.5 0s56.5 37.8 56.5 0"/>
   <path d="m621 723c0-37.8-56.5-37.8-56.5 0s56.5 37.8 56.5 0"/>
  </g>
 </g>
 <g fill="#ffffff" font-family="sans-serif">
  <text transform="rotate(-90)" font-size="4.44px">
   <tspan x="-159.12622" y="11.126725">GND</tspan>
   <tspan x="-159.12622" y="88.283974">GND</tspan>
   <tspan x="-130.29501" y="88.283974">GND</tspan>
   <tspan x="-82.31517" y="88.283974">GND</tspan>
   <tspan x="-24.711815" y="88.283974">GND</tspan>
   <tspan x="-53.543015" y="88.283974">GND</tspan>
   <tspan x="-42.022793" y="88.225487">RX</tspan>
   <tspan x="-31.989674" y="88.225487">TX</tspan>
   <tspan x="-59.391174" y="88.290474">9</tspan>
   <tspan x="-69.058205" y="88.299141">8</tspan>
   <tspan x="-88.273277" y="88.225487">7</tspan>
   <tspan x="-97.917564" y="88.28614">6</tspan>
   <tspan x="-107.47969" y="88.225487">5</tspan>
   <tspan x="-117.05357" y="88.225487">4</tspan>
   <tspan x="-137.84674" y="88.299141">18</tspan>
   <tspan x="-147.47586" y="88.290474">19</tspan>
   <tspan x="-24.711815" y="11.126725">GND</tspan>
   <tspan x="-49.618965" y="11.189546">2</tspan>
   <tspan x="-43.1698" y="11.122393">3V3</tspan>
   <tspan x="-33.5" y="11.189546">3V3</tspan>
   <tspan x="-59.429085" y="11.122393">3</tspan>
   <tspan x="-130.29501" y="11.126725">GND</tspan>
   <tspan x="-147.6015" y="11.122393">5V</tspan>
   <tspan x="-137.9583" y="11.122393">5V</tspan>
   <tspan x="-118.64465" y="11.122393">10</tspan>
   <tspan x="-107.49919" y="11.189546">1</tspan>
   <tspan x="-97.891571" y="11.122393">0</tspan>
  </text>
  <text transform="rotate(-90)" font-size="4px">
   <tspan x="-81.417709" y="11.131058">RST</tspan>
   <tspan x="-91.419006" y="11.126725">GND</tspan>
   <tspan x="-72.23101" y="11.126725">GND</tspan>
  </text>
 </g>
</svg>
